<svg xmlns="http://www.w3.org/2000/svg" xmlns:xlink="http://www.w3.org/1999/xlink" width="375" height="628" viewBox="0 0 375 628"><defs><linearGradient id="a" x1="1.22" y1="1.736" x2="-0.532" y2="-1.187" gradientUnits="objectBoundingBox"><stop offset="0" stop-color="#010101" stop-opacity="0"/><stop offset="0.95" stop-color="#010101"/></linearGradient><linearGradient id="b" x1="0.5" y1="3.211" x2="0.487" y2="-0.362" gradientUnits="objectBoundingBox"><stop offset="0" stop-color="#fff" stop-opacity="0"/><stop offset="0.13" stop-color="#fff" stop-opacity="0.231"/><stop offset="0.23" stop-color="#fff" stop-opacity="0.412"/><stop offset="0.35" stop-color="#fff" stop-opacity="0.588"/><stop offset="0.48" stop-color="#fff" stop-opacity="0.741"/><stop offset="0.6" stop-color="#fff" stop-opacity="0.851"/><stop offset="0.72" stop-color="#fff" stop-opacity="0.929"/><stop offset="0.84" stop-color="#fff" stop-opacity="0.98"/><stop offset="0.95" stop-color="#fff"/><stop offset="1" stop-color="#fff"/></linearGradient><linearGradient id="c" x1="0.493" y1="-0.188" x2="0.571" y2="9.339" xlink:href="#a"/><linearGradient id="d" x1="0.502" y1="0.004" x2="0.482" y2="4.378" xlink:href="#a"/><clipPath id="e"><path d="M152.11,131.31V35.427H256.241V126.69a4.8,4.8,0,0,1-3.522,4.62Z" transform="translate(-152.11 -35.427)" fill="#fff" stroke="#707070" stroke-width="1"/></clipPath><filter id="f" x="159.272" y="550.226" width="79.113" height="98.025" filterUnits="userSpaceOnUse"><feOffset input="SourceAlpha"/><feGaussianBlur stdDeviation="5" result="g"/><feFlood flood-opacity="0.078"/><feComposite operator="in" in2="g"/><feComposite in="SourceGraphic"/></filter><linearGradient id="h" x1="6.172" y1="66.845" x2="6.177" y2="70.481" gradientUnits="objectBoundingBox"><stop offset="0" stop-color="#fff"/><stop offset="1" stop-color="#cbcbcb"/></linearGradient><linearGradient id="i" x1="-31.853" y1="-57.115" x2="-31.691" y2="-59.541" xlink:href="#h"/><linearGradient id="j" x1="1.193" y1="1.366" x2="-1.881" y2="-1.507" gradientUnits="objectBoundingBox"><stop offset="0" stop-color="#010101" stop-opacity="0"/><stop offset="0.95" stop-color="#010101"/><stop offset="1" stop-color="#010101"/></linearGradient><linearGradient id="k" x1="-2.01" y1="0.014" x2="6.971" y2="1.753" gradientUnits="objectBoundingBox"><stop offset="0.01"/><stop offset="0.08" stop-opacity="0.69"/><stop offset="0.21" stop-opacity="0.322"/><stop offset="1" stop-opacity="0"/></linearGradient><linearGradient id="l" x1="0.5" y1="0.55" x2="0.549" y2="3.974" gradientUnits="objectBoundingBox"><stop offset="0" stop-opacity="0"/><stop offset="0.95"/></linearGradient><linearGradient id="m" x1="0.515" y1="0.374" x2="-1.524" y2="1.983" xlink:href="#l"/><linearGradient id="n" x1="0.654" y1="0.376" x2="-1.527" y2="1.753" xlink:href="#l"/><filter id="o" x="288.989" y="574.649" width="29.453" height="32.807" filterUnits="userSpaceOnUse"><feOffset dy="3" input="SourceAlpha"/><feGaussianBlur stdDeviation="3" result="p"/><feFlood flood-opacity="0.161"/><feComposite operator="in" in2="p"/><feComposite in="SourceGraphic"/></filter><linearGradient id="q" y1="0.5" x2="1" y2="0.5" gradientUnits="objectBoundingBox"><stop offset="0" stop-color="#e5c6d6"/><stop offset="0.42" stop-color="#ead4d0"/><stop offset="1" stop-color="#f0e9cb"/></linearGradient><linearGradient id="r" x1="0.002" y1="0.5" x2="1" y2="0.5" xlink:href="#q"/><linearGradient id="s" x1="0.595" y1="0.272" x2="-0.187" y2="2.312" xlink:href="#a"/><linearGradient id="t" x1="0" y1="0.5" x2="0.999" y2="0.5" xlink:href="#q"/><linearGradient id="u" x1="-0.003" y1="0.499" x2="0.996" y2="0.499" xlink:href="#q"/><linearGradient id="v" x1="0.547" y1="0.753" x2="-2.21" y2="-3.148" xlink:href="#a"/><linearGradient id="w" x1="0" y1="0.499" x2="0.999" y2="0.499" xlink:href="#q"/><linearGradient id="x" x1="0.459" y1="0.046" x2="0.664" y2="3.625" xlink:href="#a"/><linearGradient id="y" x1="-0.069" y1="0.929" x2="2.086" y2="-0.679" xlink:href="#a"/><linearGradient id="z" x1="0.002" y1="0.5" x2="1.001" y2="0.5" xlink:href="#q"/><linearGradient id="aa" x1="1.067" y1="0.061" x2="-0.513" y2="1.715" xlink:href="#a"/><linearGradient id="ab" x1="0.765" y1="-0.396" x2="0.045" y2="2.616" xlink:href="#a"/><linearGradient id="ac" x1="1.653" y1="0.479" x2="-16.64" y2="0.856" xlink:href="#a"/><linearGradient id="ad" y1="0.5" x2="1" y2="0.5" gradientUnits="objectBoundingBox"><stop offset="0" stop-color="#fff" stop-opacity="0"/><stop offset="0.95" stop-color="#fff"/></linearGradient><linearGradient id="ae" x1="-6.665" y1="2.576" x2="-5.82" y2="2.576" xlink:href="#ad"/><linearGradient id="af" x1="-13.257" y1="13.837" x2="-12.384" y2="13.837" xlink:href="#ad"/><linearGradient id="ag" x1="0.403" y1="-0.176" x2="0.542" y2="1.309" gradientUnits="objectBoundingBox"><stop offset="0" stop-color="#00629b"/><stop offset="1" stop-color="#003865"/></linearGradient><filter id="ah" x="26" y="262" width="324" height="108" filterUnits="userSpaceOnUse"><feOffset dy="4" input="SourceAlpha"/><feGaussianBlur stdDeviation="10" result="ai"/><feFlood flood-opacity="0.122"/><feComposite operator="in" in2="ai"/><feComposite in="SourceGraphic"/></filter><linearGradient id="aj" x1="0.44" y1="-0.248" x2="0.566" y2="1.259" gradientUnits="objectBoundingBox"><stop offset="0" stop-color="#007d8a"/><stop offset="1" stop-color="#00629b"/></linearGradient><filter id="ak" x="26" y="334" width="324" height="108" filterUnits="userSpaceOnUse"><feOffset dy="4" input="SourceAlpha"/><feGaussianBlur stdDeviation="10" result="al"/><feFlood flood-opacity="0.122"/><feComposite operator="in" in2="al"/><feComposite in="SourceGraphic"/></filter><linearGradient id="am" x1="0.5" x2="0.5" y2="1" gradientUnits="objectBoundingBox"><stop offset="0" stop-color="#f8f8fc"/><stop offset="1" stop-color="#e1e2e8"/></linearGradient><filter id="an" x="8" y="92.001" width="80" height="80" filterUnits="userSpaceOnUse"><feOffset dy="4" input="SourceAlpha"/><feGaussianBlur stdDeviation="8" result="ao"/><feFlood flood-opacity="0.122"/><feComposite operator="in" in2="ao"/><feComposite in="SourceGraphic"/></filter><clipPath id="ap"><circle cx="16" cy="16" r="16" transform="translate(0 0.001)" fill="#9bcbeb"/></clipPath><linearGradient id="aq" x1="-2.152" y1="0.467" x2="1.172" y2="0.515" gradientUnits="objectBoundingBox"><stop offset="0.01"/><stop offset="1" stop-opacity="0"/></linearGradient><linearGradient id="ar" x1="-1.499" y1="1.742" x2="1.059" y2="0.131" xlink:href="#aq"/><linearGradient id="as" x1="0.337" y1="-1.05" x2="0.603" y2="1.481" xlink:href="#aq"/><linearGradient id="at" x1="0.815" y1="0.239" x2="0.092" y2="0.732" gradientUnits="objectBoundingBox"><stop offset="0.02" stop-color="#fff" stop-opacity="0"/><stop offset="0.58" stop-color="#fff" stop-opacity="0.388"/><stop offset="1" stop-color="#fff"/></linearGradient><linearGradient id="au" x1="-0.26" y1="0.481" x2="1.302" y2="0.521" xlink:href="#at"/><linearGradient id="av" x1="0.538" y1="-0.383" x2="0.467" y2="1.403" xlink:href="#aq"/><linearGradient id="aw" x1="0.256" y1="-0.276" x2="0.721" y2="1.203" xlink:href="#aq"/><linearGradient id="ax" x1="0.253" y1="0.258" x2="0.455" y2="0.476" xlink:href="#aq"/><linearGradient id="ay" x1="0.413" y1="0.486" x2="1.01" y2="0.583" xlink:href="#aq"/><linearGradient id="az" x1="0.014" y1="0.352" x2="0.779" y2="0.604" xlink:href="#aq"/><linearGradient id="ba" x1="0.555" y1="1.165" x2="0.461" y2="-0.341" xlink:href="#aq"/><linearGradient id="bb" x1="0.635" y1="0.055" x2="0.348" y2="0.907" gradientUnits="objectBoundingBox"><stop offset="0.02" stop-color="#fff" stop-opacity="0"/><stop offset="0.58" stop-color="#fff" stop-opacity="0.388"/><stop offset="0.68" stop-color="#fff" stop-opacity="0.678"/><stop offset="1" stop-color="#fff"/></linearGradient><linearGradient id="bc" x1="0.185" y1="-0.258" x2="0.961" y2="1.606" xlink:href="#aq"/><clipPath id="be"><rect width="375" height="628"/></clipPath></defs><g id="bd" clip-path="url(#be)"><rect width="375" height="628" fill="#fff"/><path d="M1.46,0h3.8V-5.06H10.6V-8.28H5.26V-11.5h5.72v-3.42H1.46ZM22.18.36a7.594,7.594,0,0,0,7.8-7.82,7.583,7.583,0,0,0-7.8-7.82,7.611,7.611,0,0,0-7.82,7.82A7.611,7.611,0,0,0,22.18.36Zm0-3.46a4.056,4.056,0,0,1-4-4.36,4.074,4.074,0,0,1,4-4.38,4.082,4.082,0,0,1,3.98,4.38A4.064,4.064,0,0,1,22.18-3.1Zm19.6-2.28A4.66,4.66,0,0,0,45.22-9.9c0-3.32-2.42-5.02-6.08-5.02H34.12V0h3.8V-4.94h.12L41.46,0h4.5ZM37.92-7.82V-11.5h1.16c1.38,0,2.32.64,2.32,1.84,0,1.18-.9,1.84-2.34,1.84ZM60.34-9.74h.08L63.28,0h3.2L69.4-9.76h.08L70.52,0h3.62l-2.1-14.92H67.72L65-5.76h-.02l-2.8-9.16H57.74L55.66,0h3.58ZM85.16.36a7.594,7.594,0,0,0,7.8-7.82,7.583,7.583,0,0,0-7.8-7.82,7.611,7.611,0,0,0-7.82,7.82A7.611,7.611,0,0,0,85.16.36Zm0-3.46a4.056,4.056,0,0,1-4-4.36,4.074,4.074,0,0,1,4-4.38,4.082,4.082,0,0,1,3.98,4.38A4.064,4.064,0,0,1,85.16-3.1Zm19.6-2.28A4.66,4.66,0,0,0,108.2-9.9c0-3.32-2.42-5.02-6.08-5.02H97.1V0h3.8V-4.94h.12L104.44,0h4.5ZM100.9-7.82V-11.5h1.16c1.38,0,2.32.64,2.32,1.84,0,1.18-.9,1.84-2.34,1.84ZM112.66,0h9.84V-3.38h-6.04v-2.6h5.46V-9.06h-5.46v-2.48h6.04v-3.38h-9.84Zm25.86-14.92H133.8V0h4.72c4.84,0,8.2-2.96,8.2-7.46C146.72-11.94,143.38-14.92,138.52-14.92Zm-.92,3.42h1.06c2.54,0,4.22,1.46,4.22,4.04,0,2.56-1.68,4.02-4.22,4.02H137.6ZM150.88,0h9.84V-3.38h-6.04v-2.6h5.46V-9.06h-5.46v-2.48h6.04v-3.38h-9.84ZM168.4,0h3.78V-11.5h4.24v-3.42H164.14v3.42h4.26Zm24.22,0-5.56-14.92h-4.4L177.18,0h3.94l1.12-3.3h5.26L188.66,0Zm-7.76-11.04,1.62,4.66h-3.24ZM196.06,0h3.8V-14.92h-3.8Zm8.72,0h9.82V-3.44h-6.02V-14.92h-3.8Zm15.04.14a2,2,0,0,0,2.02-2,2.014,2.014,0,0,0-2.02-2.02,2,2,0,0,0-2,2.02A1.981,1.981,0,0,0,219.82.14Zm7.66,0a2,2,0,0,0,2.02-2,2.014,2.014,0,0,0-2.02-2.02,2,2,0,0,0-2,2.02A1.981,1.981,0,0,0,227.48.14Zm7.66,0a2,2,0,0,0,2.02-2,2.014,2.014,0,0,0-2.02-2.02,2,2,0,0,0-2,2.02A1.981,1.981,0,0,0,235.14.14Z" transform="translate(32 49)"/><path d="M453.822,230.463c-6.458,22.739-41.432,10.379-129.908,13.838s-166.066-.39-224,0-98.3-10.02-94.011-32.891,13.724-45.227,14.205-68.379c.342-16.164-3.7-32.153-4.738-48.3S16.728,61.471,28.315,48.4s30.873-20.23,50.192-23.346S142.96,29.3,162.637,28.3c40.7-2.046,51.484-40.854,125.438-57.9s145.639,1.129,152.318,65.9C440.906,41.658,453.17,196.845,453.822,230.463Z" transform="translate(-45.823 491.629)" fill="#00629b" opacity="0.24" style="isolation:isolate"/><g transform="translate(29.38 -4288.498)"><g transform="translate(66.418 4792)"><path d="M217.41,113.076v85.581a4.778,4.778,0,0,1-1.23,3.209,4.97,4.97,0,0,1-1.275,1.008.035.035,0,0,0-.029.02,4.837,4.837,0,0,1-2.257.558H71.983c-3.434-4.4-5.6-9.628-8.313-14.529V117.76Q71.324,110.65,79,103.543c2.811-2.609,5.626-5.218,8.548-7.7H196.188c5.87,4.634,11.741,9.275,17.513,14C214.951,110.894,216.223,111.941,217.41,113.076Z" transform="translate(-59.453 -91.92)" fill="url(#a)"/><path d="M4.791,0H148.949a4.791,4.791,0,0,1,4.791,4.791v98.036a4.791,4.791,0,0,1-4.791,4.791H4.791A4.791,4.791,0,0,1,0,102.827V4.791A4.791,4.791,0,0,1,4.791,0Z" transform="translate(0)" fill="#00629b"/><path d="M204.49,88.631v98.026a4.794,4.794,0,0,1-4.794,4.791H55.544a4.784,4.784,0,0,1-4.794-4.791V88.631a4.784,4.784,0,0,1,4.791-4.791H199.692a4.794,4.794,0,0,1,4.8,4.791Z" transform="translate(-50.747 -83.833)" fill="url(#b)"/><path d="M204.49,88.631v6.464H50.75V88.631a4.784,4.784,0,0,1,4.791-4.791H199.692a4.794,4.794,0,0,1,4.8,4.791Z" transform="translate(-50.747 -83.833)" fill="#00629b" opacity="0.24" style="isolation:isolate"/><path d="M204.49,88.631v6.464H50.75V88.631a4.784,4.784,0,0,1,4.791-4.791H199.692a4.794,4.794,0,0,1,4.8,4.791Z" transform="translate(-50.747 -83.833)" fill="#00629b"/><path d="M204.49,88.631v6.464H50.75V88.631a4.784,4.784,0,0,1,4.791-4.791H199.692a4.794,4.794,0,0,1,4.8,4.791Z" transform="translate(-50.747 -83.833)" fill="url(#c)"/><path d="M64.792,130.081a4.785,4.785,0,0,1-1.4-3.391V35.427H113v96.054H68.174A4.784,4.784,0,0,1,64.792,130.081Z" transform="translate(-63.386 -23.866)" fill="#fff"/><path d="M3.614,0h22.7a3.614,3.614,0,0,1,3.614,3.614v0A3.614,3.614,0,0,1,26.313,7.23H3.614A3.614,3.614,0,0,1,0,3.617v0A3.614,3.614,0,0,1,3.614,0Z" transform="translate(10.312 30.94)" fill="#8799a4"/><path d="M3.614,0H21.473a3.614,3.614,0,0,1,3.614,3.614v0A3.614,3.614,0,0,1,21.473,7.23H3.614A3.614,3.614,0,0,1,0,3.617v0A3.614,3.614,0,0,1,3.614,0Z" transform="translate(10.312 73.615)" fill="#00629b"/><path d="M3.614,0H21.473a3.614,3.614,0,0,1,3.614,3.614v0A3.614,3.614,0,0,1,21.473,7.23H3.614A3.614,3.614,0,0,1,0,3.617v0A3.614,3.614,0,0,1,3.614,0Z" transform="translate(10.312 73.615)" fill="url(#d)"/><path d="M1.833,0H23.126a1.833,1.833,0,0,1,1.833,1.833v0a1.833,1.833,0,0,1-1.833,1.833H1.833A1.833,1.833,0,0,1,0,1.836v0A1.833,1.833,0,0,1,1.833,0Z" transform="translate(10.312 63.407)" fill="#8799a4"/><path d="M0,0H30.523V5.825H0Z" transform="translate(10.312 44.801)" fill="#c2d9e7"/><path d="M0,0H53.352V5.825H0Z" transform="translate(91.194 37.952)" fill="#8799a4" opacity="0.7"/><path d="M0,0H19.108V3.868H0Z" transform="translate(125.438 46.758)" fill="#8799a4" opacity="0.7"/><path d="M0,0H30.523V5.825H0Z" transform="translate(10.312 52.332)" fill="#c2d9e7"/><g transform="translate(49.612 11.56)" clip-path="url(#e)"><g transform="translate(28.34 50.163)"><g transform="matrix(1, 0, 0, 1, -173.75, -565.23)" filter="url(#f)"><path d="M44.453,68.006,24.548,66.049a4.084,4.084,0,0,1-3.724-3.86V53.645L4.73,55.229a3.47,3.47,0,0,1-3.159-1.288A3.1,3.1,0,0,1,0,51.219V5.926A4.141,4.141,0,0,1,3.78,2.008L23.99.02a3.473,3.473,0,0,1,3.161,1.289,3.1,3.1,0,0,1,1.572,2.723v9.9l16.666,1.64a4.084,4.084,0,0,1,3.724,3.859V64.056a3.05,3.05,0,0,1-1.546,2.682,3.358,3.358,0,0,1-2.72,1.287Q44.653,68.025,44.453,68.006ZM2.75,52.767a1.928,1.928,0,0,1-.245-.952V6.648a2.249,2.249,0,0,1,.357-1.2,2.5,2.5,0,0,1,.209-.295A2.311,2.311,0,0,0,2.5,6.644V51.81a1.926,1.926,0,0,0,.247.956ZM44.37,17.752a2.516,2.516,0,0,1,2.3,2.38v-.009a2.516,2.516,0,0,0-2.3-2.38l-2.152-.2v0Zm-15.076.163,10.7,1.051a1.3,1.3,0,0,0,1.412-.86,1.3,1.3,0,0,1-1.412.86l-10.7-1.051a1.608,1.608,0,0,1-.571-.159A1.608,1.608,0,0,0,29.293,17.916ZM9.113,5.469q.076,0,.154-.008L19.952,4.4l.007,0L9.26,5.459a1.531,1.531,0,0,1-.506-.033A1.5,1.5,0,0,0,9.113,5.469ZM4.831,4.229a2.622,2.622,0,0,0-.783.2l.1-.037a2.543,2.543,0,0,1,.686-.163l1.605-.159ZM24.457,2.29l-2.847.282v.114h0V2.578L23.2,2.423,24.464,2.3a2.311,2.311,0,0,1,1.131.163l0-.008a2.265,2.265,0,0,0-.887-.176Q24.582,2.278,24.457,2.29Z" transform="translate(174.27 565.23)" fill="#00629b"/></g><g transform="translate(0 0)"><path d="M231.072,61.274v45.293a4.141,4.141,0,0,1-3.782,3.915l-20.211,1.989a3.269,3.269,0,0,1-3.78-3.173V64a4.141,4.141,0,0,1,3.78-3.917L227.29,58.1A3.271,3.271,0,0,1,231.072,61.274Zm-1.935.215a2.015,2.015,0,0,0-2.331-1.957l-2.847.282v.267a1.636,1.636,0,0,1-1.492,1.546L211.61,62.7a1.289,1.289,0,0,1-1.49-1.251v-.267l-2.941.288a2.551,2.551,0,0,0-2.331,2.415v45.167a2.013,2.013,0,0,0,2.331,1.954l19.628-1.935a2.549,2.549,0,0,0,2.331-2.415Z" transform="translate(-203.3 -58.079)" fill="#00629b"/><path d="M226.652,65.171v45.293a4.141,4.141,0,0,1-3.782,3.915l-20.211,1.989a3.269,3.269,0,0,1-3.78-3.174V67.9a4.141,4.141,0,0,1,3.78-3.917L222.87,62A3.269,3.269,0,0,1,226.652,65.171Zm-1.935.215a2.015,2.015,0,0,0-2.331-1.957l-2.847.282v.267a1.636,1.636,0,0,1-1.492,1.546L207.19,66.6a1.289,1.289,0,0,1-1.49-1.251V65.08l-2.939.288a2.551,2.551,0,0,0-2.331,2.415V112.95a2.013,2.013,0,0,0,2.331,1.954l19.628-1.935a2.549,2.549,0,0,0,2.331-2.415Z" transform="translate(-197.93 -61.139)" fill="#fff"/><path d="M232.139,70.682v45.164a2.551,2.551,0,0,1-2.331,2.415L210.181,120.2a2.012,2.012,0,0,1-2.331-1.954V73.075a2.553,2.553,0,0,1,2.331-2.415l2.941-.292v.269a1.289,1.289,0,0,0,1.49,1.251l10.858-1.075a1.636,1.636,0,0,0,1.492-1.546v-.26l2.847-.282A2.015,2.015,0,0,1,232.139,70.682Z" transform="translate(-205.345 -66.427)" fill="#d1e2ed"/><path d="M232.139,70.682v45.164a2.551,2.551,0,0,1-2.331,2.415L210.181,120.2a2.012,2.012,0,0,1-2.331-1.954V73.075a2.553,2.553,0,0,1,2.331-2.415l2.941-.292v.269a1.289,1.289,0,0,0,1.49,1.251l10.858-1.075a1.636,1.636,0,0,0,1.492-1.546v-.26l2.847-.282A2.015,2.015,0,0,1,232.139,70.682Z" transform="translate(-205.345 -66.427)" fill="#fff"/><path d="M207.85,73.081v45.162a2.016,2.016,0,0,0,2.331,1.957l19.566-1.935h.062a2.549,2.549,0,0,0,2.331-2.415V70.688a2.012,2.012,0,0,0-2.331-1.954l-2.849.277v.269a1.632,1.632,0,0,1-1.49,1.546l-.215.022-10.641,1.047a1.291,1.291,0,0,1-1.492-1.251v-.271l-2.946.292a2.537,2.537,0,0,0-.686.163A2.494,2.494,0,0,0,207.85,73.081Z" transform="translate(-205.345 -66.433)" fill="#c2d9e7" style="isolation:isolate"/><g transform="translate(20.824 13.594)"><path d="M113.906,29.989l19.9,1.959a4.084,4.084,0,0,1,3.724,3.859V80.432a3.217,3.217,0,0,1-3.724,3.126l-19.9-1.959a4.084,4.084,0,0,1-3.726-3.857V33.118A3.221,3.221,0,0,1,113.906,29.989Zm-1.825,47.848a2.514,2.514,0,0,0,2.294,2.378l19.34,1.9a1.986,1.986,0,0,0,2.3-1.935V35.676a2.514,2.514,0,0,0-2.3-2.378l-2.9-.286v.264a1.271,1.271,0,0,1-1.469,1.234l-10.7-1.038a1.608,1.608,0,0,1-1.471-1.522V31.7l-2.8-.275a1.985,1.985,0,0,0-2.294,1.935Z" transform="translate(-109.245 -29.97)" fill="#00629b"/><path d="M118.254,33.826l19.905,1.959a4.086,4.086,0,0,1,3.724,3.87V84.269a3.217,3.217,0,0,1-3.724,3.126l-19.905-1.957a4.084,4.084,0,0,1-3.724-3.859V36.954A3.226,3.226,0,0,1,118.254,33.826Zm-1.825,47.848a2.514,2.514,0,0,0,2.3,2.378l19.351,1.9a1.986,1.986,0,0,0,2.3-1.935V39.513a2.516,2.516,0,0,0-2.3-2.38l-2.909-.273v.262a1.271,1.271,0,0,1-1.468,1.234L123,37.3a1.613,1.613,0,0,1-1.469-1.52v-.26l-2.806-.277a1.987,1.987,0,0,0-2.3,1.935Z" transform="translate(-114.53 -32.983)" fill="#fff"/><path d="M121.56,42.385V86.891a2.514,2.514,0,0,0,2.3,2.378l19.351,1.9a1.986,1.986,0,0,0,2.3-1.935V44.731a2.516,2.516,0,0,0-2.3-2.38l-2.909-.282v.262a1.271,1.271,0,0,1-1.468,1.234l-10.7-1.051a1.613,1.613,0,0,1-1.468-1.52v-.26l-2.806-.277A1.986,1.986,0,0,0,121.56,42.385Z" transform="translate(-119.661 -38.192)" fill="#00629b"/><path d="M142.07,33.645l3.677.361V33.7l-3.677-.361Z" transform="translate(-129.709 -29.902)" fill="url(#h)"/><ellipse cx="0.411" cy="0.366" rx="0.411" ry="0.366" transform="translate(11.562 3.97) rotate(-149.69)" fill="url(#i)"/></g></g></g></g></g><g transform="translate(234.323 4792.124)"><g transform="translate(0 0)"><path d="M398.14,113.076v85.581a4.778,4.778,0,0,1-1.23,3.209,4.97,4.97,0,0,1-1.275,1.008.035.035,0,0,0-.029.02,4.836,4.836,0,0,1-2.257.558H331.983c-3.434-4.4-5.6-9.628-8.313-14.529V117.76q7.654-7.11,15.328-14.216c2.811-2.609,5.626-5.218,8.548-7.7h29.372c5.87,4.634,11.741,9.275,17.513,14C395.681,110.894,396.953,111.941,398.14,113.076Z" transform="translate(-317.843 -92.043)" fill="url(#j)"/><g transform="translate(0)"><rect width="76.547" height="107.167" rx="4" fill="#fff"/><rect width="25.019" height="2.427" rx="1.213" transform="translate(42.382 16.455)" fill="#00629b"/><rect width="25.019" height="2.427" rx="1.213" transform="translate(42.382 21.775)" fill="#00629b"/><rect width="56.382" height="2.427" rx="1.213" transform="translate(11.015 31.107)" fill="#00629b"/><rect width="56.382" height="2.427" rx="1.213" transform="translate(11.015 36.428)" fill="#00629b"/><g transform="translate(11.686 46.546)"><rect width="7.805" height="12.882" transform="translate(47.191)" fill="#00629b"/><g transform="translate(0 9.818)" opacity="0.41"><rect width="7.805" height="3.064" fill="#00629b"/></g><rect width="7.805" height="5.45" transform="translate(11.794 7.433)" fill="#00629b"/><g transform="translate(23.589 4.919)" opacity="0.5"><rect width="7.805" height="7.964" fill="#00629b"/></g><rect width="7.805" height="10.414" transform="translate(35.396 2.469)" fill="#00629b"/><rect width="7.805" height="12.882" transform="translate(47.191)" fill="url(#k)"/></g></g></g><g transform="translate(13.526 65.967)"><path d="M157.687,51.038a8.85,8.85,0,0,1-8.857,8.857H115.712a8.854,8.854,0,1,1-.434-17.7,8.536,8.536,0,0,1,8.391-7.058H124.8a8.545,8.545,0,0,1,5.428,1.95,10.243,10.243,0,0,1,19.788,3.752,7.671,7.671,0,0,1-.12,1.425A8.846,8.846,0,0,1,157.687,51.038Z" transform="translate(-106.64 -28.884)" fill="#00629b"/><path d="M157.687,51.038a8.85,8.85,0,0,1-8.857,8.857H115.712a8.854,8.854,0,1,1-.434-17.7,8.536,8.536,0,0,1,8.391-7.058H124.8a8.545,8.545,0,0,1,5.428,1.95,10.243,10.243,0,0,1,19.788,3.752,7.671,7.671,0,0,1-.12,1.425A8.846,8.846,0,0,1,157.687,51.038Z" transform="translate(-106.64 -28.884)" fill="url(#l)"/><path d="M159.046,42.765a8.3,8.3,0,0,1-2.574,6,8.938,8.938,0,0,1-6.22,2.488H117.369a8.646,8.646,0,0,1-8.809-8.488,8.319,8.319,0,0,1,2.574-6.007,8.891,8.891,0,0,1,5.8-2.47,8.009,8.009,0,0,1,2.352-4.367,8.6,8.6,0,0,1,5.982-2.4H126.4a8.683,8.683,0,0,1,5.387,1.866,10.133,10.133,0,0,1,9.461-6.233,10,10,0,0,1,10.178,9.825,7.029,7.029,0,0,1-.12,1.357A8.6,8.6,0,0,1,159.046,42.765Z" transform="translate(-108.126 -23.16)" fill="#5796ba"/><path d="M211.26,29.684l2.311,2.391s1.436-8.626,10.485-8.034C224.057,24.041,215.544,21.035,211.26,29.684Z" transform="translate(-187.598 -23.45)" fill="url(#m)"/><path d="M145.6,49.487a3.942,3.942,0,0,1,3.209,1.721s.337-7.69,6.869-7.823c0,0-2.676-1.71-6.405.7A7.962,7.962,0,0,0,145.6,49.487Z" transform="translate(-136.788 -38.354)" fill="url(#n)"/></g><g transform="matrix(1, 0, 0, 1, -263.7, -503.63)" filter="url(#o)"><path d="M6.583.946v1.49a.943.943,0,0,1-.937.949H1.284A1.284,1.284,0,0,0,0,4.669H0v2A1.285,1.285,0,0,0,1.284,7.956H5.726a.943.943,0,0,1,.944.941v1.617a.944.944,0,0,0,.946.94.954.954,0,0,0,.425-.1.442.442,0,0,0,.051-.032L14.32,6.659a.942.942,0,0,0-.01-1.654L8,.133A.279.279,0,0,0,7.939.1.943.943,0,0,0,6.583.949Z" transform="translate(309.44 580.65) rotate(90)" fill="#fff"/></g></g><g transform="matrix(0.996, -0.087, 0.087, 0.996, -1, 4819.163)"><path d="M1.581.12C.8.139-.287.645.07,1.334a1.142,1.142,0,0,0,.448.4,24.849,24.849,0,0,0,8.2,2.7A92.132,92.132,0,0,0,33.867,5.593a3.087,3.087,0,0,0,1.644-.477C38.018,3.177,29.8,2.4,28.822,2.158a46.123,46.123,0,0,0-6.037-1.5A153.2,153.2,0,0,0,1.581.12Z" transform="translate(0 76.732)" fill="#00629b" opacity="0.24" style="isolation:isolate"/><path d="M6.344,0,17.638,1.922l-7.567,11L0,10.13Z" transform="translate(38.142 14.106)" fill="#fff"/><path d="M2.588,20.091C1.55,23.443.267,26.771.02,30.272a2.987,2.987,0,0,0,.06,1.038C.417,32.462,1.82,32.856,3,33.062c.567.1,1.305.118,1.548-.4s-.264-1.1-.766-1.395-1.11-.612-1.193-1.189a1.793,1.793,0,0,1,.305-1.05,36.736,36.736,0,0,0,1.918-4.667L7.7,16.3a33.14,33.14,0,0,0,1.31-4.234A31.421,31.421,0,0,0,9.5,5.352a8.15,8.15,0,0,0-.552-3.565A3.184,3.184,0,0,0,7.193.145c-1.1-.363-1.141-.037-1.245.917-.255,2.133-.3,4.29-.581,6.434a76.9,76.9,0,0,1-2.779,12.6Z" transform="translate(10.366 45.803)" fill="url(#q)"/><path d="M.357.057q.529,15.49-.34,30.985a1.467,1.467,0,0,0,.114.83,1.361,1.361,0,0,0,1.125.513,9.066,9.066,0,0,0,2.551-.137,1.048,1.048,0,0,0,.7-.357.823.823,0,0,0-.33-1.052,5.757,5.757,0,0,0-1.129-.463.909.909,0,0,1-.45-.336,1.111,1.111,0,0,1-.021-.83C4.635,20.453,5.542,11.326,4.135,2.437,3.964,1.366,3.483.042,2.4,0,1.524-.032.914.831.476,1.584" transform="translate(22.24 47.124)" fill="url(#r)"/><path d="M3.892,3.016a5.141,5.141,0,0,0,2.131,1A5.976,5.976,0,0,0,5.544,2.04a1.685,1.685,0,0,1,.4-1.868C6.6-.263,7.49.193,7.986.8A7.866,7.866,0,0,1,9.092,2.931l.936,2.376a2.675,2.675,0,0,1,.247.98A1.833,1.833,0,0,1,9.813,7.4a3.813,3.813,0,0,1-4.032.928A9.364,9.364,0,0,1,2.194,5.878C1.412,5.108-.695,3.08.231,1.852,1.231.525,3.047,2.441,3.892,3.016Z" transform="translate(24.974 17.107)" fill="#00629b"/><path d="M3.892,3.016a5.141,5.141,0,0,0,2.131,1A5.976,5.976,0,0,0,5.544,2.04a1.685,1.685,0,0,1,.4-1.868C6.6-.263,7.49.193,7.986.8A7.866,7.866,0,0,1,9.092,2.931l.936,2.376a2.675,2.675,0,0,1,.247.98A1.833,1.833,0,0,1,9.813,7.4a3.813,3.813,0,0,1-4.032.928A9.364,9.364,0,0,1,2.194,5.878C1.412,5.108-.695,3.08.231,1.852,1.231.525,3.047,2.441,3.892,3.016Z" transform="translate(24.974 17.107)" fill="url(#s)"/><path d="M.033,1.321A2.113,2.113,0,0,0,1.224,2.784a3.556,3.556,0,0,1,.444.208,1.735,1.735,0,0,1,.6.805,3.024,3.024,0,0,0,.5.886.83.83,0,0,0,.924.239.851.851,0,0,0,.334-.34A1.947,1.947,0,0,0,4.18,3.2a6.3,6.3,0,0,0-.511-1.324A4.478,4.478,0,0,0,2.818.5C2.019-.277-.3-.254.033,1.321Z" transform="translate(27.817 13.59)" fill="url(#t)"/><path d="M14.125,1.3A1.019,1.019,0,0,0,13.594.263,2.424,2.424,0,0,0,12.388,0a5.02,5.02,0,0,0-1.66.22A5.351,5.351,0,0,0,8.219,2.27c-.641.886-1.152,1.868-1.8,2.752A7.3,7.3,0,0,1,1.534,8.116,1.693,1.693,0,0,0,.4,8.489a1.341,1.341,0,0,0-.27.67,5.292,5.292,0,0,0,.039,2.472A2.905,2.905,0,0,0,1.7,13.5c.152.066.328.135.386.288a.6.6,0,0,1-.033.382A3,3,0,0,0,2,15.506a3.059,3.059,0,0,0,4.97,1.8,2.881,2.881,0,0,0,4.9-.907c.22-.623.224-1.287.388-1.92.415-1.565,1.706-2.7,2.679-3.993a9.163,9.163,0,0,0,1.718-3.75,14.156,14.156,0,0,0,.208-2.391,4.245,4.245,0,0,0-.367-2.187A3.937,3.937,0,0,0,14.829.771,3.931,3.931,0,0,0,12.413.159" transform="translate(10.979 8.269)" fill="#606161"/><path d="M.061,6.021a9.833,9.833,0,0,0,.05,1.833A3.856,3.856,0,0,0,.565,9.389a1.749,1.749,0,0,0,1.278.886A1.436,1.436,0,0,0,2.989,9.86c.295-.3-1.488-2.874-1.112-2.683C4.16,8.341,4.12,3.279,4.16,2.717A3.186,3.186,0,0,0,3.784.9,1.779,1.779,0,0,0,2.234,0,1.847,1.847,0,0,0,.877.83a4.209,4.209,0,0,0-.6,1.525A11.923,11.923,0,0,0,.02,5.6" transform="translate(22.296 9.91)" fill="url(#u)"/><path d="M3.275.4A1.41,1.41,0,0,0,1.664.216,2.679,2.679,0,0,0,.531,1.488a5.072,5.072,0,0,0-.44,1.361A10.24,10.24,0,0,0,.039,5.105C.112,6.6.172,8.087.128,9.578a6.793,6.793,0,0,0,.124,2.032,3.688,3.688,0,0,0,2.283,2.347,5.871,5.871,0,0,0,3.337.147,1.3,1.3,0,0,0,.469-.174,1.28,1.28,0,0,0,.3-.324,6.525,6.525,0,0,0,.623-1.063,13.008,13.008,0,0,0,.809-2.773A30.048,30.048,0,0,0,8.953,3.52,3.96,3.96,0,0,0,8.587,1.61,2.945,2.945,0,0,0,6.96.309,6.515,6.515,0,0,0,4.862,0,16.7,16.7,0,0,0,2.038.2" transform="translate(18.341 18.031)" fill="#00629b"/><path d="M7.937,7.621s-5.006-.668-5.3-1.077-.99,5.761-.99,5.761S.08,12.6.02,11.431-.016,1.277.877.185s.191,2.98,4.267,3.447S8.111,6.368,8.111,6.368Z" transform="translate(18.795 18.74)" fill="url(#v)"/><path d="M6.327,6.547c2.231.486,9.015.075,9.837-1.038a2.933,2.933,0,0,0,.4-1.332,2.061,2.061,0,0,0-.135-1.129c-.22-.378-.623-.361-.971-.32a44.733,44.733,0,0,1-6.413.232,8.13,8.13,0,0,1-4.209-.919C4.121,1.6,3.478.969,2.774.5S1.149-.3.45.394A1.853,1.853,0,0,0,.242,2.546c.82,1.743,2.7,2.793,4.047,3.441A6.382,6.382,0,0,0,6.327,6.547Z" transform="translate(19.222 18.523)" fill="#00629b"/><path d="M.149,4.336c1.762.623,3.761.019,5.541-.552A2.306,2.306,0,0,0,6.626,3.3c.251-.247.39-.585.623-.849C7.755,1.881,8.6,1.763,9.207,1.3a.475.475,0,0,0,.164-.187.435.435,0,0,0,0-.291A1.245,1.245,0,0,0,8.384.026a2.993,2.993,0,0,0-1.316.12A10.4,10.4,0,0,0,4.092,1.464a9.285,9.285,0,0,1-2.47,1.411c-.55.151-1.216.208-1.511.691C.1,3.566-.159,4.23.149,4.336Z" transform="translate(34.295 19.115)" fill="url(#w)"/><path d="M14.341,17.979a2.773,2.773,0,0,1-.438,1.546,2.851,2.851,0,0,1-1.413.795,25.163,25.163,0,0,1-5.757,1.413A9.229,9.229,0,0,1,2.5,21.162a6.79,6.79,0,0,1-1.424-.768,2.322,2.322,0,0,1-.751-.778,2.92,2.92,0,0,1-.257-1.191C-.3,12.323.834,5.879,4.448,1.009,4.7.662,4.968.33,5.251,0c2,.338,4.117.3,6.145.479A37.892,37.892,0,0,1,14.341,17.979Z" transform="translate(14.099 30.844)" fill="#00629b"/><path d="M4.747,1.375A3.8,3.8,0,0,1,.407,5.131a.272.272,0,0,1-.274-.224,3.642,3.642,0,0,1,.892-3.333A4.136,4.136,0,0,1,2.449.371,4.566,4.566,0,0,1,3.871.018c.291-.031.805-.058.959.259C4.956.539,4.747,1.08,4.747,1.375Z" transform="translate(20.215 9.076)" fill="#606161"/><path d="M11.492,6.145c-.042.241-.28.438-.645.587a12.343,12.343,0,0,1-4.622.488C4.5,7.1,1.941,7.857,1.037,7.8a3.031,3.031,0,0,1-.313-.033c-.662-.1-.87-.388-.623-.951.288-.645,5.153-3.9,5.649-4.8A8.4,8.4,0,0,1,8.163,0S11.667,5.153,11.492,6.145Z" transform="translate(26.243 9.275)" fill="#fff"/><path d="M10.14,1.523a12.343,12.343,0,0,1-4.622.488C3.8,1.895,1.234,2.648.33,2.59a3.039,3.039,0,0,1-.313-.033c-.075-.158.125-.33.3-.415A14.527,14.527,0,0,1,5.2.917c.282-.017.637-.108.662-.38,0-.191-.141-.43.017-.538.025,0,.6.463.679.5a1.1,1.1,0,0,0,.571.141,7.08,7.08,0,0,1,1.463.446c.479.133,1.017,0,1.473.208a.207.207,0,0,1,.106.081A.189.189,0,0,1,10.14,1.523Z" transform="translate(26.959 14.475)" fill="url(#x)"/><path d="M4.151,6.788a2.527,2.527,0,0,1-.818.141A3.508,3.508,0,0,1,.258,4.439,3.756,3.756,0,0,1,.43,1.326,2.467,2.467,0,0,1,1.779.137c1.5-.529,3.242.521,3.9,2.356S5.658,6.251,4.151,6.788Z" transform="translate(32.905 9.036)" fill="#00629b"/><path d="M3.333,5.6A3.508,3.508,0,0,1,.258,3.113,3.756,3.756,0,0,1,.43,0,3.635,3.635,0,0,1,3.458,2.532,3.893,3.893,0,0,1,3.333,5.6Z" transform="translate(32.905 10.362)" fill="url(#y)"/><path d="M1.7,0A1.707,1.707,0,0,0,1.22.074,1.986,1.986,0,0,0,.149,1.128a1.2,1.2,0,0,0-.139.4.471.471,0,0,0,.45.569,1.263,1.263,0,0,0,.394-.042,2.428,2.428,0,0,0,1.09-.519A1.339,1.339,0,0,0,2.416.456.6.6,0,0,0,2.337.19C2.206-.022,1.915,0,1.7,0Z" transform="translate(27.315 13.492)" fill="url(#z)"/><path d="M2.841.026A1.068,1.068,0,0,0,2.31.042c-.326.122-.469.5-.575.83l-1.66,5.3A.83.83,0,0,0,.048,6.8a.805.805,0,0,0,.342.295A10.866,10.866,0,0,0,5.315,8.448,1.073,1.073,0,0,0,6.16,8.2a.915.915,0,0,0,.176-.571,2.951,2.951,0,0,0-.315-1.453c-.247-.49-.623-.9-.9-1.38a3.684,3.684,0,0,1-.187-3.163C5.17,1.047,5.172.9,4.568.588A5.634,5.634,0,0,0,2.841.026Z" transform="translate(9.189 71.681)" fill="#00629b"/><path d="M1.547,0a1.025,1.025,0,0,0-.517.12,1.179,1.179,0,0,0-.4.926l-.6,5.527a.83.83,0,0,0,.1.623.789.789,0,0,0,.392.222,10.9,10.9,0,0,0,5.095.369,1.049,1.049,0,0,0,.782-.4.921.921,0,0,0,.062-.594,2.978,2.978,0,0,0-.594-1.368C5.517,5,5.064,4.665,4.705,4.25a3.69,3.69,0,0,1-.8-3.065C4.018.562,4,.417,3.34.226A5.624,5.624,0,0,0,1.547,0Z" transform="translate(21.495 72.778)" fill="#00629b"/><path d="M2.841.026A1.068,1.068,0,0,0,2.31.042c-.326.122-.469.5-.575.83l-1.66,5.3A.83.83,0,0,0,.048,6.8a.805.805,0,0,0,.342.295A10.866,10.866,0,0,0,5.315,8.448,1.073,1.073,0,0,0,6.16,8.2a.915.915,0,0,0,.176-.571,2.951,2.951,0,0,0-.315-1.453c-.247-.49-.623-.9-.9-1.38a3.684,3.684,0,0,1-.187-3.163C5.17,1.047,5.172.9,4.568.588A5.634,5.634,0,0,0,2.841.026Z" transform="translate(9.189 71.681)" fill="url(#aa)"/><path d="M1.547,0a1.025,1.025,0,0,0-.517.12,1.179,1.179,0,0,0-.4.926l-.6,5.527a.83.83,0,0,0,.1.623.789.789,0,0,0,.392.222,10.9,10.9,0,0,0,5.095.369,1.049,1.049,0,0,0,.782-.4.921.921,0,0,0,.062-.594,2.978,2.978,0,0,0-.594-1.368C5.517,5,5.064,4.665,4.705,4.25a3.69,3.69,0,0,1-.8-3.065C4.018.562,4,.417,3.34.226A5.624,5.624,0,0,0,1.547,0Z" transform="translate(21.495 72.778)" fill="url(#ab)"/><path d="M4.985,3.2A21.53,21.53,0,0,0,3.422,9.541c-.355,3.416-.166,6.849-.313,10.279a.647.647,0,0,1-.124.415.515.515,0,0,1-.347.139.729.729,0,0,1-.141.017,6.788,6.788,0,0,1-1.424-.768,2.322,2.322,0,0,1-.751-.778,2.92,2.92,0,0,1-.257-1.191C-.3,11.552.834,5.108,4.448.237,5.193-.01,6.06-.217,6.3.445,6.49,1,5.218,2.653,4.985,3.2Z" transform="translate(14.101 31.624)" fill="url(#ac)"/><path d="M0,5.971,3.924,0,5.861,1.837l-4.4,5.109Z" transform="translate(39.383 0)" fill="url(#ad)"/><path d="M0,3.271,6.479,0,7.5,2.571.965,4.854Z" transform="translate(40.832 4.08)" fill="url(#ae)"/><path d="M.033,0,7.257.7,6.747,3.422,0,1.853Z" transform="translate(42.062 9.2)" fill="url(#af)"/></g></g><g transform="translate(16 -4360)"><g transform="matrix(1, 0, 0, 1, -16, 4360)" filter="url(#ah)"><rect width="264" height="48" rx="24" transform="translate(56 288)" fill="url(#ag)"/></g><g transform="translate(3)"><path d="M1.3,0H8.848V-2.368H3.9v-9.568H1.3ZM14.272.224a4.514,4.514,0,0,0,4.656-4.656,4.5,4.5,0,0,0-4.656-4.656A4.514,4.514,0,0,0,9.616-4.432,4.523,4.523,0,0,0,14.272.224Zm0-2.3a2.149,2.149,0,0,1-2.064-2.352,2.149,2.149,0,0,1,2.064-2.352,2.16,2.16,0,0,1,2.08,2.352A2.17,2.17,0,0,1,14.272-2.08Zm9.792-6.992A4.232,4.232,0,0,0,20.1-4.64,4.177,4.177,0,0,0,24.032-.176a3.239,3.239,0,0,0,2.72-1.472v.816c0,1.3-1.088,2.192-2.656,2.192A5.2,5.2,0,0,1,20.976.144V2.576a5.985,5.985,0,0,0,3.36,1.008c2.9,0,4.976-1.712,4.976-4.7V-8.864h-2.16L26.9-7.536A3.358,3.358,0,0,0,24.064-9.072Zm.672,2.256A2.073,2.073,0,0,1,26.784-4.64a2.091,2.091,0,0,1-2.048,2.208,2.09,2.09,0,0,1-2.064-2.192A2.109,2.109,0,0,1,24.736-6.816ZM36.72-10.08a1.383,1.383,0,0,0,1.392-1.392,1.379,1.379,0,0,0-1.392-1.376,1.373,1.373,0,0,0-1.408,1.376A1.377,1.377,0,0,0,36.72-10.08ZM35.44,0H38V-8.864H35.44ZM45.1-9.088a3.117,3.117,0,0,0-2.672,1.472h-.048l-.256-1.248H40.144V0H42.7V-5.248a1.466,1.466,0,0,1,1.536-1.52c.928,0,1.408.5,1.408,1.584V0h2.56V-5.92A2.893,2.893,0,0,0,45.1-9.088Zm12.064-1.824H54.7v2.048H53.44v2.112h1.248v3.344A3.3,3.3,0,0,0,58.3.192,6.076,6.076,0,0,0,59.7.048V-2.1a5.009,5.009,0,0,1-.8.08c-.992,0-1.728-.432-1.728-1.552V-6.752h2.368V-8.864H57.168ZM65.328.224a4.514,4.514,0,0,0,4.656-4.656,4.5,4.5,0,0,0-4.656-4.656,4.514,4.514,0,0,0-4.656,4.656A4.523,4.523,0,0,0,65.328.224Zm0-2.3a2.149,2.149,0,0,1-2.064-2.352,2.149,2.149,0,0,1,2.064-2.352,2.16,2.16,0,0,1,2.08,2.352A2.17,2.17,0,0,1,65.328-2.08ZM77.936,0h2.592V-9.552h3.488v-2.384H74.432v2.384h3.5Zm9.488.224A3.332,3.332,0,0,0,90.336-1.36L90.592,0h2.16V-8.864h-2.16L90.336-7.5a3.367,3.367,0,0,0-2.912-1.584c-2,0-3.936,1.856-3.936,4.688C83.488-1.632,85.424.224,87.424.224Zm.752-2.3a2.174,2.174,0,0,1-2.112-2.352,2.183,2.183,0,0,1,2.112-2.352A2.148,2.148,0,0,1,90.24-4.432,2.148,2.148,0,0,1,88.176-2.08Zm10-7.008c-2.288,0-3.616,1.2-3.616,2.832,0,1.616,1.312,2.192,2.72,2.592,1.152.32,1.792.5,1.792,1.04,0,.48-.512.768-1.408.768a4.771,4.771,0,0,1-3.056-1.1V-.608a5.838,5.838,0,0,0,3.168.832c2.4,0,3.776-1.12,3.776-2.864,0-1.872-1.552-2.368-3.008-2.72-1.008-.272-1.52-.464-1.52-.944,0-.432.448-.7,1.248-.7a5.139,5.139,0,0,1,2.7.784V-8.4A5.577,5.577,0,0,0,98.176-9.088ZM103.2,3.36h2.56V-1.3a3.275,3.275,0,0,0,2.784,1.52c2.08,0,3.92-1.808,3.92-4.656,0-2.832-1.9-4.656-3.968-4.656A3.4,3.4,0,0,0,105.6-7.5l-.256-1.36H103.2Zm4.576-5.44a2.137,2.137,0,0,1-2.048-2.352,2.139,2.139,0,0,1,2.064-2.352,2.145,2.145,0,0,1,2.08,2.336A2.176,2.176,0,0,1,107.776-2.08ZM114.144,0h2.56V-12.848h-2.56Zm8.16.224a3.332,3.332,0,0,0,2.912-1.584L125.472,0h2.16V-8.864h-2.16l-.256,1.36A3.367,3.367,0,0,0,122.3-9.088c-2,0-3.936,1.856-3.936,4.688C118.368-1.632,120.3.224,122.3.224Zm.752-2.3a2.174,2.174,0,0,1-2.112-2.352,2.183,2.183,0,0,1,2.112-2.352,2.148,2.148,0,0,1,2.064,2.352A2.148,2.148,0,0,1,123.056-2.08ZM134.72-9.088a3.117,3.117,0,0,0-2.672,1.472H132l-.256-1.248H129.76V0h2.56V-5.248a1.466,1.466,0,0,1,1.536-1.52c.928,0,1.408.5,1.408,1.584V0h2.56V-5.92A2.893,2.893,0,0,0,134.72-9.088ZM149.6.272a6.031,6.031,0,0,0,6.144-6.24,6.031,6.031,0,0,0-6.144-6.24,6.057,6.057,0,0,0-6.176,6.24A6.038,6.038,0,0,0,149.6.272Zm0-2.384a3.581,3.581,0,0,1-3.536-3.856,3.576,3.576,0,0,1,3.536-3.84,3.571,3.571,0,0,1,3.5,3.84A3.586,3.586,0,0,1,149.6-2.112Zm12.816-6.976a3.117,3.117,0,0,0-2.672,1.472H159.7l-.256-1.248h-1.984V0h2.56V-5.248a1.466,1.466,0,0,1,1.536-1.52c.928,0,1.408.5,1.408,1.584V0h2.56V-5.92A2.893,2.893,0,0,0,162.416-9.088ZM167.6,0h2.56V-12.848H167.6Zm6-10.08a1.383,1.383,0,0,0,1.392-1.392,1.379,1.379,0,0,0-1.392-1.376,1.373,1.373,0,0,0-1.408,1.376A1.377,1.377,0,0,0,173.6-10.08ZM172.32,0h2.56V-8.864h-2.56Zm9.664-9.088a3.117,3.117,0,0,0-2.672,1.472h-.048l-.256-1.248h-1.984V0h2.56V-5.248a1.466,1.466,0,0,1,1.536-1.52c.928,0,1.408.5,1.408,1.584V0h2.56V-5.92A2.893,2.893,0,0,0,181.984-9.088Zm13.232,4.512c0-2.96-1.84-4.512-4.1-4.512A4.431,4.431,0,0,0,186.672-4.4c0,2.688,1.792,4.624,4.912,4.624a6.083,6.083,0,0,0,3.088-.8v-2.1a5.151,5.151,0,0,1-2.768.88,2.665,2.665,0,0,1-2.784-1.92h6.032A4.755,4.755,0,0,0,195.216-4.576Zm-6.144-.672A2.132,2.132,0,0,1,191.1-7.072a1.671,1.671,0,0,1,1.68,1.824Z" transform="translate(83 4677)" fill="#fff"/><g transform="translate(50.808 4659)"><path d="M32.036,13.3c2.142,0,3.884-2.273,3.884-4.415a3.884,3.884,0,1,0-7.768,0C28.152,11.026,29.895,13.3,32.036,13.3Z" transform="translate(-15.589)" fill="#fff"/><path d="M19.363,51.908a4.461,4.461,0,0,1-2.712.916h-.409a4.461,4.461,0,0,1-2.712-.916,5.17,5.17,0,0,0-4.339,5.1c0,1.413,3.248,2.559,7.255,2.559S23.7,58.423,23.7,57.01A5.17,5.17,0,0,0,19.363,51.908Z" transform="translate(0 -38.569)" fill="#fff"/></g></g></g><g transform="translate(16 -4352)"><g transform="matrix(1, 0, 0, 1, -16, 4352)" filter="url(#ak)"><rect width="264" height="48" rx="24" transform="translate(56 360)" fill="url(#aj)"/></g><g transform="translate(24)"><path d="M10.048-.56V-3.184A5.017,5.017,0,0,1,7.04-2.128a3.728,3.728,0,0,1-3.776-3.84A3.7,3.7,0,0,1,7.04-9.792a5.06,5.06,0,0,1,3.008.992v-2.592a6.826,6.826,0,0,0-3.28-.816A6.048,6.048,0,0,0,.624-5.968,6.048,6.048,0,0,0,6.768.272,6.693,6.693,0,0,0,10.048-.56ZM15.9.224A4.514,4.514,0,0,0,20.56-4.432,4.5,4.5,0,0,0,15.9-9.088a4.514,4.514,0,0,0-4.656,4.656A4.523,4.523,0,0,0,15.9.224Zm0-2.3A2.149,2.149,0,0,1,13.84-4.432,2.149,2.149,0,0,1,15.9-6.784a2.16,2.16,0,0,1,2.08,2.352A2.17,2.17,0,0,1,15.9-2.08ZM27.168-9.088A3.117,3.117,0,0,0,24.5-7.616h-.048l-.256-1.248H22.208V0h2.56V-5.248A1.466,1.466,0,0,1,26.3-6.768c.928,0,1.408.5,1.408,1.584V0h2.56V-5.92A2.893,2.893,0,0,0,27.168-9.088Zm8.144-1.824H32.848v2.048H31.584v2.112h1.248v3.344a3.3,3.3,0,0,0,3.616,3.6A6.076,6.076,0,0,0,37.84.048V-2.1a5.009,5.009,0,0,1-.8.08c-.992,0-1.728-.432-1.728-1.552V-6.752H37.68V-8.864H35.312ZM42.768.224A3.332,3.332,0,0,0,45.68-1.36L45.936,0H48.1V-8.864h-2.16L45.68-7.5a3.367,3.367,0,0,0-2.912-1.584c-2,0-3.936,1.856-3.936,4.688C38.832-1.632,40.768.224,42.768.224Zm.752-2.3a2.174,2.174,0,0,1-2.112-2.352A2.183,2.183,0,0,1,43.52-6.784a2.148,2.148,0,0,1,2.064,2.352A2.148,2.148,0,0,1,43.52-2.08Zm8.8-2.352a2.319,2.319,0,0,1,2.448-2.352,3.886,3.886,0,0,1,2.224.672V-8.464a5.2,5.2,0,0,0-2.608-.624,4.538,4.538,0,0,0-4.656,4.64A4.537,4.537,0,0,0,54.384.224a5.749,5.749,0,0,0,2.608-.608V-2.736a3.685,3.685,0,0,1-2.224.656A2.31,2.31,0,0,1,52.32-4.432Zm9.5-6.48H59.36v2.048H58.1v2.112h1.248v3.344A3.3,3.3,0,0,0,62.96.192,6.076,6.076,0,0,0,64.352.048V-2.1a5.009,5.009,0,0,1-.8.08c-.992,0-1.728-.432-1.728-1.552V-6.752h2.368V-8.864H61.824ZM73.744.224A3.713,3.713,0,0,0,77.808-3.6V-8.864h-2.56v5.248a1.375,1.375,0,0,1-1.5,1.536A1.343,1.343,0,0,1,72.288-3.6V-8.864h-2.56V-3.6A3.682,3.682,0,0,0,73.744.224ZM83.12-9.088c-2.288,0-3.616,1.2-3.616,2.832,0,1.616,1.312,2.192,2.72,2.592,1.152.32,1.792.5,1.792,1.04,0,.48-.512.768-1.408.768a4.771,4.771,0,0,1-3.056-1.1V-.608A5.838,5.838,0,0,0,82.72.224C85.12.224,86.5-.9,86.5-2.64c0-1.872-1.552-2.368-3.008-2.72-1.008-.272-1.52-.464-1.52-.944,0-.432.448-.7,1.248-.7a5.139,5.139,0,0,1,2.7.784V-8.4A5.577,5.577,0,0,0,83.12-9.088ZM92.8,0h2.56V-6.752h2.3V-8.864H95.328v-.688c0-.848.48-1.216,1.408-1.216a4.448,4.448,0,0,1,1.248.192V-12.72a5.533,5.533,0,0,0-1.7-.272A3.231,3.231,0,0,0,92.8-9.76v.9H91.584v2.112H92.8Zm10.112.224a4.514,4.514,0,0,0,4.656-4.656,4.5,4.5,0,0,0-4.656-4.656,4.514,4.514,0,0,0-4.656,4.656A4.523,4.523,0,0,0,102.912.224Zm0-2.3a2.149,2.149,0,0,1-2.064-2.352,2.149,2.149,0,0,1,2.064-2.352,2.16,2.16,0,0,1,2.08,2.352A2.17,2.17,0,0,1,102.912-2.08Zm6.3,2.08h2.56V-4.336a1.98,1.98,0,0,1,2.1-2.24,2.883,2.883,0,0,1,.736.08V-8.9a2.735,2.735,0,0,0-.672-.064,2.713,2.713,0,0,0-2.4,1.424H111.5l-.256-1.328h-2.032Zm12.912-12.848h-2.56V0h2.56V-5.3a1.431,1.431,0,0,1,1.536-1.488c.944,0,1.408.5,1.408,1.584V0h2.56V-5.92a2.89,2.89,0,0,0-3.12-3.168A3.037,3.037,0,0,0,122.144-8h-.016ZM137.76-4.576c0-2.96-1.84-4.512-4.1-4.512A4.431,4.431,0,0,0,129.216-4.4c0,2.688,1.792,4.624,4.912,4.624a6.083,6.083,0,0,0,3.088-.8v-2.1a5.151,5.151,0,0,1-2.768.88,2.665,2.665,0,0,1-2.784-1.92H137.7A4.755,4.755,0,0,0,137.76-4.576Zm-6.144-.672a2.132,2.132,0,0,1,2.032-1.824,1.671,1.671,0,0,1,1.68,1.824ZM139.44,0H142V-12.848h-2.56Zm4.7,3.36h2.56V-1.3a3.275,3.275,0,0,0,2.784,1.52c2.08,0,3.92-1.808,3.92-4.656,0-2.832-1.9-4.656-3.968-4.656a3.4,3.4,0,0,0-2.9,1.584l-.256-1.36h-2.144Zm4.576-5.44a2.137,2.137,0,0,1-2.048-2.352,2.139,2.139,0,0,1,2.064-2.352,2.145,2.145,0,0,1,2.08,2.336A2.176,2.176,0,0,1,148.72-2.08Z" transform="translate(83 4741)" fill="#fff"/><path d="M6.5,16.2a5.788,5.788,0,0,1-.164,2.536.516.516,0,0,0,.723.608,7.763,7.763,0,0,0,3.4-3.077H11.53a6.436,6.436,0,0,0,6.441-6.434h0A6.436,6.436,0,0,0,11.537,3.4h-4.1A6.436,6.436,0,0,0,1,9.836H1A6.436,6.436,0,0,0,6.5,16.2Zm5.577-7.3a.936.936,0,1,1-.936.936A.936.936,0,0,1,12.077,8.9Zm-2.592,0a.936.936,0,1,1-.936.936A.936.936,0,0,1,9.485,8.9Zm-2.592,0a.936.936,0,1,1-.936.936A.936.936,0,0,1,6.893,8.9Z" transform="translate(59 4724.6)" fill="#fff"/></g></g><g transform="translate(0 -335.999)"><path d="M-1022.171-522H-1056l8-7.568V-674a16,16,0,0,1,16-16h256a16,16,0,0,1,16,16v136a16,16,0,0,1-16,16Z" transform="translate(1104 1121.999)" fill="url(#am)"/><g transform="translate(-8 26.999)"><g transform="matrix(1, 0, 0, 1, 8, 309)" filter="url(#an)"><circle cx="16" cy="16" r="16" transform="translate(32 112)" fill="#9bcbeb"/></g><g transform="translate(40 421)" clip-path="url(#ap)"><g transform="translate(1.337 4.284)"><path d="M187.825,265.873a1.527,1.527,0,0,1,.06,1.218,1.554,1.554,0,0,1-.529.5l-1.916,1.3a2.575,2.575,0,0,1-1.2.54.887.887,0,0,1-.98-.694c-.044-.51.49-.858.74-1.305a2.67,2.67,0,0,0-.024-1.962,35.924,35.924,0,0,1-.941-4.979c.393-.161,1.537-.882,1.944-.762.458.139.872,1.42,1.076,1.838A33.288,33.288,0,0,1,187.825,265.873Z" transform="translate(-163.941 -233.218)" fill="#f1af8c"/><path d="M199.424,206.471a20.24,20.24,0,0,0,1.822,4.1.2.2,0,0,1,.043.129.2.2,0,0,1-.078.108,5.6,5.6,0,0,1-2.72,1.584.333.333,0,0,1-.205-.018.339.339,0,0,1-.128-.176,12.056,12.056,0,0,1-.887-4.947,20.363,20.363,0,0,1,.2-2.516c.028-.2.043-1.1.219-1.208.268-.158.562.394.679.568A10.289,10.289,0,0,1,199.424,206.471Z" transform="translate(-179.215 -184.806)" fill="#fff"/><path d="M205.78,205.54s.626.235,1.136,2,1.726,6.037,1.726,6.037-1.881.94-2.352.587S205.78,205.54,205.78,205.54Z" transform="translate(-187.749 -186.566)" fill="url(#aq)"/><path d="M213.956,192.407a10.077,10.077,0,0,0-3.048.3,5.05,5.05,0,0,0-2.57,1.6,5.54,5.54,0,0,0-1.1,3.163,20.789,20.789,0,0,0,.192,3.4,53.867,53.867,0,0,1,.211,7.962c-.031.636-.394,3.956.053,4.41.278.286-.278.572.118.666a24.005,24.005,0,0,0,12.11-.9,3.667,3.667,0,0,0,1.944-1.542c.417-.815-.708-4.046-.843-4.952q-.612-4.15-.883-8.344a27.268,27.268,0,0,0-.242-3.785c-.185-.882-.752-1.122-1.572-1.338A19.777,19.777,0,0,0,213.956,192.407Z" transform="translate(-201.262 -175.249)" fill="#fff"/><path d="M228.14,231.913a3.163,3.163,0,0,0,.632,1.574,2.716,2.716,0,0,0,1.086.664c1.93.728,4.13.614,5.98,1.527a1.29,1.29,0,0,1,.355.232,1.125,1.125,0,0,1-.026,1.388,4.165,4.165,0,0,1-2.956,1.349,25.5,25.5,0,0,1-7.993.33.733.733,0,0,1-.4-.151.719.719,0,0,1-.168-.375c-.6-2.663-.128-5.436-.117-8.165,0-1.574-.139-3.15-.032-4.721a9.579,9.579,0,0,1,.6-2.856c.246-.622.965-2,1.4-.721a30.831,30.831,0,0,1,1.13,6.321C227.769,229.515,227.913,230.72,228.14,231.913Z" transform="translate(-218.107 -200.28)" fill="url(#ar)"/><path d="M245.981,170.381c.46-.074.718-.536.512-1.649-.022-.124-.051-.243-.085-.362a.3.3,0,0,0-.018-.067c-.05-.172-.107-.344-.162-.515a3.758,3.758,0,0,1-.242-1.281,2.3,2.3,0,0,0-.08-.945,1.547,1.547,0,0,0-.515-.623c-.5-.382-1.944-1.1-2.221-.151a4.333,4.333,0,0,0-.028,1.293,3.888,3.888,0,0,1-.319,1.734C242.52,168.421,244.852,170.562,245.981,170.381Z" transform="translate(-230.811 -151.065)" fill="#f1af8c"/><path d="M247.7,176.149s-2.56-.972-3.054-2.509l2.728.893S247.443,175.939,247.7,176.149Z" transform="translate(-232.209 -159.095)" fill="url(#as)"/><path d="M299.865,206.337a17.2,17.2,0,0,1-1.4,8.5.632.632,0,0,1-.171.257.694.694,0,0,1-.417.1,5.11,5.11,0,0,1-3.174-1.019,1.216,1.216,0,0,1-.562-.8,1.308,1.308,0,0,1,.1-.51,56.424,56.424,0,0,1,2.478-6.041,3.438,3.438,0,0,1,1.666-1.9C299.406,204.534,299.794,205.576,299.865,206.337Z" transform="translate(-291.31 -185.959)" fill="#fff"/><path d="M250.925,192.638a13.993,13.993,0,0,1-1.866-2.725,4.5,4.5,0,0,1-.725-1.865.372.372,0,0,1,.035-.224.4.4,0,0,1,.128-.118l1.043-.707a2.1,2.1,0,0,0,1,1.558c.555.394,2.145.826,1.8,1.644A17.094,17.094,0,0,1,250.925,192.638Z" transform="translate(-237.409 -170.6)" fill="#00629b"/><path d="M233.893,191.862a18.308,18.308,0,0,0,1.043,1.792,1.354,1.354,0,0,0,.555.555.153.153,0,0,0,.1.014c.061-.021.075-.1.079-.165a10.931,10.931,0,0,0-.16-3.193,2.945,2.945,0,0,0-.45-1.029,2.85,2.85,0,0,0-.927-.576c.056.171.112.343.162.515a.168.168,0,0,1,.017.051v.015c.033.119.062.239.085.362C234.607,191.326,234.349,191.788,233.893,191.862Z" transform="translate(-218.724 -172.546)" fill="#00629b"/><path d="M250.925,192.638a13.993,13.993,0,0,1-1.866-2.725,4.5,4.5,0,0,1-.725-1.865.372.372,0,0,1,.035-.224.4.4,0,0,1,.128-.118l1.043-.707a2.1,2.1,0,0,0,1,1.558c.555.394,2.145.826,1.8,1.644A17.094,17.094,0,0,1,250.925,192.638Z" transform="translate(-237.409 -170.6)" fill="url(#at)"/><path d="M233.893,191.862a18.308,18.308,0,0,0,1.043,1.792,1.354,1.354,0,0,0,.555.555.153.153,0,0,0,.1.014c.061-.021.075-.1.079-.165a10.931,10.931,0,0,0-.16-3.193,2.945,2.945,0,0,0-.45-1.029,2.85,2.85,0,0,0-.927-.576c.056.171.112.343.162.515a.168.168,0,0,1,.017.051v.015c.033.119.062.239.085.362C234.607,191.326,234.349,191.788,233.893,191.862Z" transform="translate(-218.724 -172.546)" fill="url(#au)"/><path d="M252.273,278.994l-6.081-1.162a2.19,2.19,0,0,1-1.019-.375,1.524,1.524,0,0,1-.471-1.362,4.474,4.474,0,0,1,.5-1.413,46.129,46.129,0,0,1,2.627-4.811,7.683,7.683,0,0,1,2.857.821,1.045,1.045,0,0,1,.386.36c.365.694-.633,1.708-.972,2.235a1.308,1.308,0,0,0-.253.576.95.95,0,0,0,.081.432c.329.808,1.5,1.279,2.221,1.694a7.48,7.48,0,0,0,3.093,1.039,18.274,18.274,0,0,1,2.548.153,3.65,3.65,0,0,1,2.392,1.866,2.21,2.21,0,0,1-1.706-.011,9.986,9.986,0,0,0-3.228-.26C254.543,278.835,252.606,279.648,252.273,278.994Z" transform="translate(-244.69 -241.958)" fill="#f1af8c"/><path d="M236.222,70.622a4.243,4.243,0,0,0-1.3-.584,1.608,1.608,0,0,0-1.429.319,2.974,2.974,0,0,1,2.123,1.12.207.207,0,0,0,.107.092.2.2,0,0,0,.112-.021c.192-.072,1.627.255,1.71.082C237.539,71.63,236.4,70.729,236.222,70.622Z" transform="translate(-220.498 -69.843)" fill="#00629b"/><path d="M236.222,70.622a4.243,4.243,0,0,0-1.3-.584,1.608,1.608,0,0,0-1.429.319,2.974,2.974,0,0,1,2.123,1.12.207.207,0,0,0,.107.092.2.2,0,0,0,.112-.021c.192-.072,1.627.255,1.71.082C237.539,71.63,236.4,70.729,236.222,70.622Z" transform="translate(-220.498 -69.843)" fill="url(#av)"/><ellipse cx="1.686" cy="2.077" rx="1.686" ry="2.077" transform="translate(17.142 7.213)" fill="#00629b"/><ellipse cx="1.559" cy="1.922" rx="1.559" ry="1.922" transform="translate(16.923 7.602)" fill="#00629b"/><ellipse cx="1.559" cy="1.922" rx="1.559" ry="1.922" transform="translate(16.923 7.602)" fill="url(#aw)"/><path d="M227.637,96.19l-.39,7.138a2.873,2.873,0,0,1-2.843,2.72,4.345,4.345,0,0,1-4.671-3.252c-.487-1.419-.927-5.587,0-6.739S225.879,92.068,227.637,96.19Z" transform="translate(-208.606 -90.537)" fill="#f1af8c"/><path d="M216.858,78.716a3.56,3.56,0,0,1,3.268,1.752,2.055,2.055,0,0,1,.039,1.767.742.742,0,0,0-.108.561,1.47,1.47,0,0,1-.6,1.25,3.441,3.441,0,0,0-.665.467l.068-1.329a.278.278,0,0,0-.211-.33l-.846-.394s-.261.19-.293.205a1.063,1.063,0,0,1-.444.085,6.246,6.246,0,0,1-.991-.056,9.365,9.365,0,0,1-2.051-.619.933.933,0,0,0,.253.547l-2.156.417a5.859,5.859,0,0,0-.757,1.413,4.926,4.926,0,0,0-.292,1.223,4.42,4.42,0,0,0,.157,1.692,1.775,1.775,0,0,1-.38-.4,2.184,2.184,0,0,1-.639.3.278.278,0,0,1-.149.013c-.106-.029-.128-.154-.139-.254a11.378,11.378,0,0,0-1.058-2.507,3.771,3.771,0,0,1,.383-3.16,2.547,2.547,0,0,1,.671-.783c.993-.728,2.4-.394,3.536-.775.539-.18.972-.523,1.487-.75A5.343,5.343,0,0,1,216.858,78.716Z" transform="translate(-199.856 -77.349)" fill="#3f3d56"/><path d="M216.858,78.716a3.56,3.56,0,0,1,3.268,1.752,2.055,2.055,0,0,1,.039,1.767.742.742,0,0,0-.108.561,1.47,1.47,0,0,1-.6,1.25,3.441,3.441,0,0,0-.665.467l.068-1.329a.278.278,0,0,0-.211-.33l-.846-.394s-.261.19-.293.205a1.063,1.063,0,0,1-.444.085,6.246,6.246,0,0,1-.991-.056,9.365,9.365,0,0,1-2.051-.619.933.933,0,0,0,.253.547l-2.156.417a5.859,5.859,0,0,0-.757,1.413,4.926,4.926,0,0,0-.292,1.223,4.42,4.42,0,0,0,.157,1.692,1.775,1.775,0,0,1-.38-.4,2.184,2.184,0,0,1-.639.3.278.278,0,0,1-.149.013c-.106-.029-.128-.154-.139-.254a11.378,11.378,0,0,0-1.058-2.507,3.771,3.771,0,0,1,.383-3.16,2.547,2.547,0,0,1,.671-.783c.993-.728,2.4-.394,3.536-.775.539-.18.972-.523,1.487-.75A5.343,5.343,0,0,1,216.858,78.716Z" transform="translate(-199.856 -77.349)" fill="url(#ax)"/><ellipse cx="1.667" cy="2.056" rx="1.667" ry="2.056" transform="translate(7.876 7.49)" fill="#00629b"/><ellipse cx="1.667" cy="2.056" rx="1.667" ry="2.056" transform="translate(7.876 7.49)" fill="url(#ay)"/><ellipse cx="1.667" cy="2.056" rx="1.667" ry="2.056" transform="translate(7.238 7.49)" fill="#00629b"/><path d="M249.75,76.529l.833.089.2.021.833-4.1a4.766,4.766,0,0,1,2.821-3.352,1.5,1.5,0,0,1,.641-.076l.568.051-.278-.074-.555-.147a1.829,1.829,0,0,0-.533-.065,3.929,3.929,0,0,0-3.4,2.963Z" transform="translate(-240.857 -68.876)" fill="#00629b"/><path d="M249.75,76.529l.833.089.2.021.833-4.1a4.766,4.766,0,0,1,2.821-3.352,1.5,1.5,0,0,1,.641-.076l.568.051-.278-.074-.555-.147a1.829,1.829,0,0,0-.533-.065,3.929,3.929,0,0,0-3.4,2.963Z" transform="translate(-240.857 -68.876)" fill="url(#az)"/><path d="M251.75,76.529l.833.089.833-4.11a4.816,4.816,0,0,1,2.85-3.382,1.465,1.465,0,0,1,.648-.078l.453.04-.555-.147a1.828,1.828,0,0,0-.533-.065,3.929,3.929,0,0,0-3.4,2.963Z" transform="translate(-242.857 -68.876)" fill="#00629b"/><path d="M214.792,101.417a1.766,1.766,0,0,0-1.316-.862,5.241,5.241,0,0,0-1.624.075c.521.417,1.974,1.037,2,1.148a3.384,3.384,0,0,1,.007.591c-.019.286-.029.586-.028.872a2.222,2.222,0,0,1,.447-.339,1.111,1.111,0,0,0,.375-.24A1.154,1.154,0,0,0,214.792,101.417Z" transform="translate(-194.864 -96.124)" fill="url(#ba)"/><path d="M251.868,152.128a6.47,6.47,0,0,0,1.847-.308.278.278,0,0,0-.16-.533c-1.43.43-2.506.373-3.193-.169a2.823,2.823,0,0,1-.875-2.148.278.278,0,1,0-.555-.028,3.368,3.368,0,0,0,1.087,2.614A2.9,2.9,0,0,0,251.868,152.128Z" transform="translate(-239.011 -137.598)" fill="#00629b"/><path d="M251.868,152.128a6.47,6.47,0,0,0,1.847-.308.278.278,0,0,0-.16-.533c-1.43.43-2.506.373-3.193-.169a2.823,2.823,0,0,1-.875-2.148.278.278,0,1,0-.555-.028,3.368,3.368,0,0,0,1.087,2.614A2.9,2.9,0,0,0,251.868,152.128Z" transform="translate(-239.011 -137.598)" fill="url(#bb)"/><path d="M238.374,160.465a.736.736,0,0,0-.351.38.659.659,0,0,0,.311.616,1.162,1.162,0,0,0,.576.278,1.337,1.337,0,0,0,.875-.311,1.158,1.158,0,0,0,.364-.351.878.878,0,0,0-.48-1.152C239.214,159.729,238.731,160.23,238.374,160.465Z" transform="translate(-223.816 -147.245)" fill="#00629b"/><path d="M238.374,160.465a.736.736,0,0,0-.351.38.659.659,0,0,0,.311.616,1.162,1.162,0,0,0,.576.278,1.337,1.337,0,0,0,.875-.311,1.158,1.158,0,0,0,.364-.351.878.878,0,0,0-.48-1.152C239.214,159.729,238.731,160.23,238.374,160.465Z" transform="translate(-223.816 -147.245)" fill="url(#bc)"/></g></g></g></g><path d="M4.215,16H5.58V11.275L9.66,4.84H8.115L4.92,10H4.9L1.68,4.84H.105l4.11,6.45Zm9.045.18a4.026,4.026,0,0,0,4.02-4.23,4.04,4.04,0,1,0-8.07,0A4.032,4.032,0,0,0,13.26,16.18Zm0-1.29a2.717,2.717,0,0,1-2.655-2.94A2.731,2.731,0,0,1,13.26,8.995,2.729,2.729,0,0,1,15.9,11.95,2.724,2.724,0,0,1,13.26,14.89Zm9.225,1.29a3.126,3.126,0,0,0,3.36-3.3V7.885h-1.38V12.91a1.829,1.829,0,0,1-1.98,1.98,1.8,1.8,0,0,1-1.92-1.98V7.885h-1.38V12.88A3.087,3.087,0,0,0,22.485,16.18ZM28.26,16h1.38V11.38A2.1,2.1,0,0,1,31.815,9.1a3.492,3.492,0,0,1,.57.06V7.84a2.906,2.906,0,0,0-.54-.045,2.628,2.628,0,0,0-2.325,1.38H29.5l-.15-1.29H28.26Zm11.79,0h2.1V6.745h3.345V4.825H36.69v1.92h3.36Zm8.67.21a3.2,3.2,0,0,0,2.79-1.56L51.72,16h1.74V7.75H51.72L51.51,9.1a3.188,3.188,0,0,0-2.79-1.545c-1.875,0-3.69,1.71-3.69,4.335C45.03,14.485,46.845,16.21,48.72,16.21Zm.57-1.89a2.25,2.25,0,0,1-2.175-2.445A2.25,2.25,0,0,1,49.29,9.43a2.226,2.226,0,0,1,2.13,2.445A2.226,2.226,0,0,1,49.29,14.32Zm9.255-6.765c-2.025,0-3.24,1.08-3.24,2.565s1.215,1.995,2.55,2.37c1.11.33,1.755.525,1.755,1.11,0,.54-.525.885-1.455.885a4.186,4.186,0,0,1-2.82-1.08V15.37a5.022,5.022,0,0,0,2.91.84c2.13,0,3.375-1.035,3.375-2.625,0-1.71-1.44-2.16-2.76-2.505-1.005-.27-1.545-.48-1.545-1.005,0-.495.465-.81,1.305-.81a4.418,4.418,0,0,1,2.49.765V8.215A4.959,4.959,0,0,0,58.545,7.555Zm4.74,11.6h2.07V14.725A3.184,3.184,0,0,0,68.04,16.21c1.935,0,3.675-1.695,3.675-4.335S69.93,7.555,68,7.555A3.174,3.174,0,0,0,65.235,9.1l-.21-1.35h-1.74Zm4.17-4.83a2.235,2.235,0,0,1-2.13-2.445,2.169,2.169,0,1,1,4.305-.015A2.254,2.254,0,0,1,67.455,14.32Zm6,1.68h2.07V3.97h-2.07Zm7.47.21a3.2,3.2,0,0,0,2.79-1.56l.21,1.35h1.74V7.75h-1.74l-.21,1.35a3.188,3.188,0,0,0-2.79-1.545c-1.875,0-3.69,1.71-3.69,4.335C77.235,14.485,79.05,16.21,80.925,16.21Zm.57-1.89a2.25,2.25,0,0,1-2.175-2.445A2.25,2.25,0,0,1,81.5,9.43a2.226,2.226,0,0,1,2.13,2.445A2.226,2.226,0,0,1,81.5,14.32ZM92.19,7.555a2.91,2.91,0,0,0-2.49,1.38h-.045L89.43,7.75h-1.6V16H89.9V11.065a1.572,1.572,0,0,1,1.635-1.62c.99,0,1.5.54,1.5,1.68V16H95.1V10.495A2.711,2.711,0,0,0,92.19,7.555Zm12.45-2.97c-2.25,0-3.81,1.29-3.81,3.24,0,1.92,1.545,2.64,3.015,3.255,1.32.57,2.115.975,2.115,1.815,0,.915-.855,1.47-2,1.47a4.783,4.783,0,0,1-3.135-1.26V15.22a5.8,5.8,0,0,0,3.315,1.02c2.325,0,3.975-1.35,3.975-3.42,0-2.04-1.62-2.745-3.24-3.42-1.29-.54-1.965-.9-1.965-1.665,0-.825.795-1.275,1.83-1.275a4.937,4.937,0,0,1,2.73.855V5.335A5.583,5.583,0,0,0,104.64,4.585Zm8.715,11.625a3.38,3.38,0,0,0,3.66-3.51V7.75h-2.07V12.7a1.461,1.461,0,0,1-1.59,1.62,1.431,1.431,0,0,1-1.545-1.6V7.75h-2.07v4.965A3.34,3.34,0,0,0,113.355,16.21Zm5.715,2.94h2.07V14.725a3.184,3.184,0,0,0,2.685,1.485c1.935,0,3.675-1.695,3.675-4.335s-1.785-4.32-3.72-4.32A3.174,3.174,0,0,0,121.02,9.1l-.21-1.35h-1.74Zm4.17-4.83a2.235,2.235,0,0,1-2.13-2.445,2.169,2.169,0,1,1,4.305-.015A2.254,2.254,0,0,1,123.24,14.32Zm13.335-2.595c0-2.73-1.68-4.17-3.735-4.17a4.092,4.092,0,0,0-4.1,4.35,4.112,4.112,0,0,0,4.455,4.3,5.359,5.359,0,0,0,2.865-.81V13.63a4.583,4.583,0,0,1-2.625.9,2.587,2.587,0,0,1-2.715-2.055h5.79A5.429,5.429,0,0,0,136.575,11.725Zm-5.865-.555a2.2,2.2,0,0,1,2.115-1.95,1.777,1.777,0,0,1,1.77,1.95ZM138.255,16h2.07V11.755a1.936,1.936,0,0,1,2.04-2.16,3.275,3.275,0,0,1,.66.06V7.72a2.464,2.464,0,0,0-.6-.06,2.574,2.574,0,0,0-2.28,1.35h-.03l-.21-1.26h-1.65Zm18.4-8.445a2.668,2.668,0,0,0-2.37,1.41,2.348,2.348,0,0,0-2.31-1.41,2.509,2.509,0,0,0-2.25,1.365h-.045l-.225-1.17h-1.6V16h2.07V10.96a1.38,1.38,0,0,1,1.365-1.515c.9,0,1.26.495,1.26,1.485V16h2.07V10.87a1.33,1.33,0,0,1,1.365-1.425c.885,0,1.245.495,1.245,1.485V16h2.07V10.525C159.3,8.74,158.46,7.555,156.66,7.555Zm12.105,4.17c0-2.73-1.68-4.17-3.735-4.17a4.092,4.092,0,0,0-4.1,4.35,4.112,4.112,0,0,0,4.455,4.3,5.359,5.359,0,0,0,2.865-.81V13.63a4.583,4.583,0,0,1-2.625.9,2.587,2.587,0,0,1-2.715-2.055h5.79A5.429,5.429,0,0,0,168.765,11.725ZM162.9,11.17a2.2,2.2,0,0,1,2.115-1.95,1.777,1.777,0,0,1,1.77,1.95Zm16.35-3.615a2.668,2.668,0,0,0-2.37,1.41,2.348,2.348,0,0,0-2.31-1.41,2.509,2.509,0,0,0-2.25,1.365h-.045l-.225-1.17h-1.6V16h2.07V10.96a1.38,1.38,0,0,1,1.365-1.515c.9,0,1.26.495,1.26,1.485V16h2.07V10.87a1.33,1.33,0,0,1,1.365-1.425c.885,0,1.245.495,1.245,1.485V16h2.07V10.525C181.89,8.74,181.05,7.555,179.25,7.555Zm6.81-3.585h-2.07V16h1.74l.21-1.35a3.188,3.188,0,0,0,2.76,1.56c1.92,0,3.72-1.695,3.72-4.335s-1.725-4.32-3.645-4.32A3.186,3.186,0,0,0,186.06,9.04Zm2.1,5.46a2.254,2.254,0,0,1,2.175,2.46,2.169,2.169,0,1,1-4.305-.015A2.235,2.235,0,0,1,188.16,9.43Zm13.335,2.3c0-2.73-1.68-4.17-3.735-4.17a4.092,4.092,0,0,0-4.1,4.35,4.112,4.112,0,0,0,4.455,4.3,5.359,5.359,0,0,0,2.865-.81V13.63a4.583,4.583,0,0,1-2.625.9,2.587,2.587,0,0,1-2.715-2.055h5.79A5.429,5.429,0,0,0,201.5,11.725Zm-5.865-.555a2.2,2.2,0,0,1,2.115-1.95,1.777,1.777,0,0,1,1.77,1.95ZM203.175,16h2.07V11.755a1.936,1.936,0,0,1,2.04-2.16,3.275,3.275,0,0,1,.66.06V7.72a2.464,2.464,0,0,0-.6-.06,2.574,2.574,0,0,0-2.28,1.35h-.03l-.21-1.26h-1.65ZM4,32.555c-2.025,0-3.24,1.08-3.24,2.565s1.215,2,2.55,2.37c1.11.33,1.755.525,1.755,1.11,0,.54-.525.885-1.455.885A4.186,4.186,0,0,1,.8,38.4V40.37a5.022,5.022,0,0,0,2.91.84c2.13,0,3.375-1.035,3.375-2.625,0-1.71-1.44-2.16-2.76-2.5-1-.27-1.545-.48-1.545-1.005,0-.495.465-.81,1.305-.81a4.418,4.418,0,0,1,2.49.765V33.215A4.959,4.959,0,0,0,4,32.555Zm7.17-1.725H9.18v1.92H7.965v1.725h1.2V37.91a2.967,2.967,0,0,0,3.225,3.255,5.31,5.31,0,0,0,1.185-.12v-1.77a4.364,4.364,0,0,1-.735.075c-.96,0-1.665-.435-1.665-1.545v-3.33h2.25V32.75h-2.25ZM18.24,41.21a3.2,3.2,0,0,0,2.79-1.56L21.24,41h1.74V32.75H21.24l-.21,1.35a3.188,3.188,0,0,0-2.79-1.545c-1.875,0-3.69,1.71-3.69,4.335C14.55,39.485,16.365,41.21,18.24,41.21Zm.57-1.89a2.25,2.25,0,0,1-2.175-2.445A2.25,2.25,0,0,1,18.81,34.43a2.226,2.226,0,0,1,2.13,2.445A2.226,2.226,0,0,1,18.81,39.32Zm8.8-8.49h-2v1.92H24.4v1.725h1.2V37.91a2.967,2.967,0,0,0,3.225,3.255,5.31,5.31,0,0,0,1.185-.12v-1.77a4.364,4.364,0,0,1-.735.075c-.96,0-1.665-.435-1.665-1.545v-3.33h2.25V32.75h-2.25Zm11.2,5.895c0-2.73-1.68-4.17-3.735-4.17A4.092,4.092,0,0,0,30.99,36.9a4.112,4.112,0,0,0,4.455,4.305,5.359,5.359,0,0,0,2.865-.81V38.63a4.583,4.583,0,0,1-2.625.9,2.587,2.587,0,0,1-2.715-2.055h5.79A5.429,5.429,0,0,0,38.82,36.725Zm-5.865-.555a2.2,2.2,0,0,1,2.115-1.95,1.777,1.777,0,0,1,1.77,1.95ZM49.3,32.555a2.668,2.668,0,0,0-2.37,1.41,2.348,2.348,0,0,0-2.31-1.41,2.509,2.509,0,0,0-2.25,1.365H42.33L42.1,32.75H40.5V41h2.07V35.96a1.38,1.38,0,0,1,1.365-1.515c.9,0,1.26.495,1.26,1.485V41h2.07V35.87a1.33,1.33,0,0,1,1.365-1.425c.885,0,1.245.495,1.245,1.485V41h2.07V35.525C51.945,33.74,51.1,32.555,49.3,32.555Zm12.105,4.17c0-2.73-1.68-4.17-3.735-4.17A4.092,4.092,0,0,0,53.58,36.9a4.112,4.112,0,0,0,4.455,4.305A5.359,5.359,0,0,0,60.9,40.4V38.63a4.583,4.583,0,0,1-2.625.9,2.587,2.587,0,0,1-2.715-2.055h5.79A5.428,5.428,0,0,0,61.41,36.725Zm-5.865-.555a2.2,2.2,0,0,1,2.115-1.95,1.777,1.777,0,0,1,1.77,1.95Zm11.91-3.615a2.91,2.91,0,0,0-2.49,1.38H64.92l-.225-1.185H63.09V41h2.07V36.065a1.572,1.572,0,0,1,1.635-1.62c.99,0,1.5.54,1.5,1.68V41h2.07V35.495A2.711,2.711,0,0,0,67.455,32.555ZM74.88,30.83h-2v1.92H71.67v1.725h1.2V37.91a2.967,2.967,0,0,0,3.225,3.255,5.31,5.31,0,0,0,1.185-.12v-1.77a4.364,4.364,0,0,1-.735.075c-.96,0-1.665-.435-1.665-1.545v-3.33h2.25V32.75H74.88ZM81.99,41h7.935V39.08h-4.08c2.265-2.475,3.63-4.17,3.63-5.85a3.565,3.565,0,0,0-3.825-3.66,4.761,4.761,0,0,0-3.06,1.08v2.16a3.728,3.728,0,0,1,2.715-1.29,1.888,1.888,0,0,1,2.01,1.9C87.315,34.61,86.82,35.45,81.99,41ZM95.94,29.57c-2.46,0-4.44,2.235-4.44,5.85s1.98,5.835,4.44,5.835,4.47-2.235,4.47-5.835S98.415,29.57,95.94,29.57Zm0,1.95c1.32,0,2.4,1.425,2.4,3.9,0,2.445-1.08,3.87-2.4,3.87s-2.34-1.41-2.34-3.87S94.635,31.52,95.94,31.52Zm8.4,9.48h2.07V29.735h-.165l-4.485,1.77v2.1l2.58-1.065Zm8.61-11.43a3.974,3.974,0,0,0-4.125,3.99,3.666,3.666,0,0,0,3.735,3.645,1.82,1.82,0,0,0,.27-.015L109.785,41h2.49l3.135-3.87a5.724,5.724,0,0,0,1.635-3.645A3.889,3.889,0,0,0,112.95,29.57Zm1.305,5.835a3.239,3.239,0,0,1-1.17.225,2.072,2.072,0,0,1-2.175-2.115,2.048,2.048,0,1,1,4.1,0A2.962,2.962,0,0,1,114.255,35.4Zm9.54-4.38a.84.84,0,1,0-.855-.84A.824.824,0,0,0,123.8,31.025ZM123.105,41h1.38V32.885h-1.38Zm6.48-8.295c-1.8,0-2.925,1.02-2.925,2.385,0,1.425,1.185,1.86,2.52,2.265,1.17.36,1.935.615,1.935,1.4,0,.72-.63,1.2-1.725,1.2a3.851,3.851,0,0,1-2.76-1.155V40.28a4.485,4.485,0,0,0,2.8.9c1.875,0,3.03-.96,3.03-2.445,0-1.635-1.41-2.04-2.655-2.4-1.1-.315-1.8-.585-1.8-1.305,0-.66.57-1.095,1.59-1.095a3.832,3.832,0,0,1,2.43.84V33.41A4.248,4.248,0,0,0,129.585,32.705Zm12.69,0a2.927,2.927,0,0,0-2.49,1.41h-.045l-.15-1.23h-1.065V41h1.38V36.05a1.962,1.962,0,0,1,2.025-2.025c1.215,0,1.86.675,1.86,2.1V41h1.38V35.63A2.725,2.725,0,0,0,142.275,32.705Zm8.85,8.475a4.026,4.026,0,0,0,4.02-4.23,4.04,4.04,0,1,0-8.07,0A4.032,4.032,0,0,0,151.125,41.18Zm0-1.29a2.717,2.717,0,0,1-2.655-2.94,2.663,2.663,0,1,1,5.295,0A2.724,2.724,0,0,1,151.125,39.89ZM164.175,41h1.575l2.28-8.115h-1.365l-1.725,6.57H164.9l-2.055-6.57H161.4l-2.07,6.57h-.03l-1.7-6.57h-1.44L158.46,41h1.575l2.055-6.36h.045Zm12.57.18a3.262,3.262,0,0,0,2.9-1.665L179.805,41h1.125V32.885h-1.125l-.165,1.5a3.276,3.276,0,0,0-2.9-1.68c-1.9,0-3.69,1.65-3.69,4.245A3.93,3.93,0,0,0,176.745,41.18Zm.285-1.29a2.689,2.689,0,0,1-2.58-2.94,2.6,2.6,0,1,1,5.145-.015A2.7,2.7,0,0,1,177.03,39.89ZM185.505,41h1.5l2.955-8.115h-1.425L186.3,39.47h-.045l-2.235-6.585h-1.47Zm8.955.18a3.262,3.262,0,0,0,2.9-1.665L197.52,41h1.125V32.885H197.52l-.165,1.5a3.276,3.276,0,0,0-2.9-1.68c-1.9,0-3.69,1.65-3.69,4.245A3.93,3.93,0,0,0,194.46,41.18Zm.285-1.29a2.689,2.689,0,0,1-2.58-2.94,2.6,2.6,0,1,1,5.145-.015A2.7,2.7,0,0,1,194.745,39.89Zm7.14-8.865a.84.84,0,1,0-.855-.84A.824.824,0,0,0,201.885,31.025ZM201.195,41h1.38V32.885h-1.38Zm3.96,0h1.38V29h-1.38Zm7.1.18a3.262,3.262,0,0,0,2.9-1.665L215.31,41h1.125V32.885H215.31l-.165,1.5a3.276,3.276,0,0,0-2.9-1.68c-1.9,0-3.69,1.65-3.69,4.245A3.93,3.93,0,0,0,212.25,41.18Zm.285-1.29a2.689,2.689,0,0,1-2.58-2.94,2.6,2.6,0,1,1,5.145-.015A2.7,2.7,0,0,1,212.535,39.89Zm7.8-10.89h-1.38V41h1.125l.165-1.485a3.239,3.239,0,0,0,2.88,1.665,3.921,3.921,0,0,0,3.69-4.23c0-2.61-1.755-4.245-3.66-4.245a3.192,3.192,0,0,0-2.82,1.6Zm2.52,4.995a2.694,2.694,0,0,1,2.58,2.955,2.59,2.59,0,1,1-5.13-.015A2.685,2.685,0,0,1,222.855,33.995ZM228.87,41h1.38V29h-1.38Zm10.83-4.215c0-2.67-1.575-4.08-3.5-4.08a3.985,3.985,0,0,0-3.915,4.275,3.906,3.906,0,0,0,4.11,4.2,4.728,4.728,0,0,0,2.835-.9V38.915a4.193,4.193,0,0,1-2.73,1.065,2.766,2.766,0,0,1-2.865-2.58h6.015A3.684,3.684,0,0,0,239.7,36.785Zm-6.06-.42a2.635,2.635,0,0,1,2.55-2.46,2.211,2.211,0,0,1,2.175,2.46ZM4.785,66.18a4.242,4.242,0,1,0-4.05-4.23A4.026,4.026,0,0,0,4.785,66.18Zm0-1.29a2.964,2.964,0,0,1,0-5.9,2.965,2.965,0,0,1,0,5.9Zm9.78-7.185a2.927,2.927,0,0,0-2.49,1.41H12.03l-.15-1.23H10.815V66h1.38V61.05a1.962,1.962,0,0,1,2.025-2.025c1.215,0,1.86.675,1.86,2.1V66h1.38V60.63A2.725,2.725,0,0,0,14.565,57.705ZM26.4,66h2.1V56.745h3.345v-1.92H23.04v1.92H26.4Zm8.67.21a3.2,3.2,0,0,0,2.79-1.56L38.07,66h1.74V57.75H38.07l-.21,1.35a3.188,3.188,0,0,0-2.79-1.545c-1.875,0-3.69,1.71-3.69,4.335C31.38,64.485,33.195,66.21,35.07,66.21Zm.57-1.89a2.462,2.462,0,0,1,0-4.89,2.468,2.468,0,0,1,0,4.89ZM44.9,57.555c-2.025,0-3.24,1.08-3.24,2.565s1.215,2,2.55,2.37c1.11.33,1.755.525,1.755,1.11,0,.54-.525.885-1.455.885a4.186,4.186,0,0,1-2.82-1.08V65.37a5.022,5.022,0,0,0,2.91.84c2.13,0,3.375-1.035,3.375-2.625,0-1.71-1.44-2.16-2.76-2.5-1.005-.27-1.545-.48-1.545-1.005,0-.495.465-.81,1.305-.81a4.418,4.418,0,0,1,2.49.765V58.215A4.959,4.959,0,0,0,44.9,57.555Zm4.74,11.6h2.07V64.725A3.184,3.184,0,0,0,54.39,66.21c1.935,0,3.675-1.695,3.675-4.335s-1.785-4.32-3.72-4.32a3.174,3.174,0,0,0-2.76,1.545l-.21-1.35h-1.74Zm4.17-4.83a2.463,2.463,0,1,1,2.175-2.46A2.235,2.235,0,0,1,53.805,64.32Zm6,1.68h2.07V53.97h-2.07Zm7.47.21a3.2,3.2,0,0,0,2.79-1.56l.21,1.35h1.74V57.75h-1.74l-.21,1.35a3.188,3.188,0,0,0-2.79-1.545c-1.875,0-3.69,1.71-3.69,4.335C63.585,64.485,65.4,66.21,67.275,66.21Zm.57-1.89a2.462,2.462,0,0,1,0-4.89,2.468,2.468,0,0,1,0,4.89ZM78.54,57.555a2.91,2.91,0,0,0-2.49,1.38h-.045L75.78,57.75h-1.6V66h2.07V61.065a1.572,1.572,0,0,1,1.635-1.62c.99,0,1.5.54,1.5,1.68V66h2.07V60.495A2.711,2.711,0,0,0,78.54,57.555Zm14.145,8.7A5.844,5.844,0,1,0,86.97,60.4,5.62,5.62,0,0,0,92.685,66.255Zm0-1.95a3.909,3.909,0,1,1,3.555-3.9A3.619,3.619,0,0,1,92.685,64.305Zm11.79-6.75a2.91,2.91,0,0,0-2.49,1.38h-.045l-.225-1.185h-1.6V66h2.07V61.065a1.572,1.572,0,0,1,1.635-1.62c.99,0,1.5.54,1.5,1.68V66h2.07V60.495A2.711,2.711,0,0,0,104.475,57.555ZM109.5,66h2.07V53.97H109.5Zm5.31-9.63a1.133,1.133,0,0,0,1.155-1.14,1.163,1.163,0,1,0-1.155,1.14ZM113.775,66h2.07V57.75h-2.07Zm8.61-8.445a2.91,2.91,0,0,0-2.49,1.38h-.045l-.225-1.185h-1.6V66h2.07V61.065a1.572,1.572,0,0,1,1.635-1.62c.99,0,1.5.54,1.5,1.68V66h2.07V60.495A2.711,2.711,0,0,0,122.385,57.555Zm12.36,4.17c0-2.73-1.68-4.17-3.735-4.17a4.332,4.332,0,0,0,.36,8.655,5.359,5.359,0,0,0,2.865-.81V63.63a4.583,4.583,0,0,1-2.625.9,2.587,2.587,0,0,1-2.715-2.055h5.79A5.429,5.429,0,0,0,134.745,61.725Zm-5.865-.555a2.2,2.2,0,0,1,2.115-1.95,1.777,1.777,0,0,1,1.77,1.95Zm8.355,4.9a.938.938,0,1,0-.93-.93A.916.916,0,0,0,137.235,66.075ZM1.53,101H7.845V99.695H2.925V89.84H1.53Zm11.175.18a4.242,4.242,0,1,0-4.05-4.23A4.026,4.026,0,0,0,12.7,101.18Zm0-1.29A2.964,2.964,0,0,1,12.7,94a2.965,2.965,0,0,1,0,5.895Zm6.03,1.11h1.38V96.38A2.1,2.1,0,0,1,22.29,94.1a3.491,3.491,0,0,1,.57.06V92.84a2.907,2.907,0,0,0-.54-.045A2.628,2.628,0,0,0,20,94.175H19.98l-.15-1.29H18.735ZM30.99,96.785c0-2.67-1.575-4.08-3.5-4.08A3.985,3.985,0,0,0,23.58,96.98a3.906,3.906,0,0,0,4.11,4.2,4.728,4.728,0,0,0,2.835-.9V98.915A4.193,4.193,0,0,1,27.8,99.98,2.766,2.766,0,0,1,24.93,97.4h6.015A3.684,3.684,0,0,0,30.99,96.785Zm-6.06-.42a2.635,2.635,0,0,1,2.55-2.46,2.211,2.211,0,0,1,2.175,2.46Zm16.065-3.66a2.6,2.6,0,0,0-2.34,1.425,2.237,2.237,0,0,0-2.25-1.425,2.422,2.422,0,0,0-2.175,1.38h-.045l-.15-1.2H32.97V101h1.38V95.885a1.711,1.711,0,0,1,1.68-1.86c1.08,0,1.545.615,1.545,1.785V101h1.38V95.81a1.685,1.685,0,0,1,1.7-1.785c1.08,0,1.53.615,1.53,1.785V101h1.38V95.585C43.56,93.89,42.765,92.705,40.995,92.705Zm9.825-1.68a.84.84,0,1,0-.855-.84A.824.824,0,0,0,50.82,91.025ZM50.13,101h1.38V92.885H50.13Zm3.93,3.15h1.38V99.59a3.23,3.23,0,0,0,2.805,1.59c1.92,0,3.675-1.635,3.675-4.245,0-2.58-1.77-4.23-3.69-4.23a3.27,3.27,0,0,0-2.88,1.68l-.165-1.5H54.06Zm3.9-4.26a2.974,2.974,0,1,1,2.58-2.955A2.685,2.685,0,0,1,57.96,99.89ZM66.5,92.705c-1.8,0-2.925,1.02-2.925,2.385,0,1.425,1.185,1.86,2.52,2.265,1.17.36,1.935.615,1.935,1.395,0,.72-.63,1.2-1.725,1.2a3.851,3.851,0,0,1-2.76-1.155v1.485a4.485,4.485,0,0,0,2.805.9c1.875,0,3.03-.96,3.03-2.445,0-1.635-1.41-2.04-2.655-2.4-1.1-.315-1.8-.585-1.8-1.305,0-.66.57-1.1,1.59-1.1a3.832,3.832,0,0,1,2.43.84V93.41A4.248,4.248,0,0,0,66.5,92.705Zm8.04,8.475a3.126,3.126,0,0,0,3.36-3.3V92.885h-1.38V97.91a1.829,1.829,0,0,1-1.98,1.98,1.8,1.8,0,0,1-1.92-1.98V92.885h-1.38V97.88A3.087,3.087,0,0,0,74.535,101.18Zm13.8-8.475A2.6,2.6,0,0,0,86,94.13a2.237,2.237,0,0,0-2.25-1.425,2.422,2.422,0,0,0-2.175,1.38h-.045l-.15-1.2H80.31V101h1.38V95.885a1.711,1.711,0,0,1,1.68-1.86c1.08,0,1.545.615,1.545,1.785V101H86.3V95.81a1.685,1.685,0,0,1,1.695-1.785c1.08,0,1.53.615,1.53,1.785V101H90.9V95.585C90.9,93.89,90.105,92.705,88.335,92.705Zm12.285,8.475a3.279,3.279,0,0,0,2.895-1.665L103.68,101h1.125V89h-1.38v5.295a3.185,3.185,0,0,0-2.805-1.59c-1.92,0-3.69,1.635-3.69,4.245A3.921,3.921,0,0,0,100.62,101.18Zm.285-1.29a2.978,2.978,0,1,1,2.55-2.955A2.7,2.7,0,0,1,100.9,99.89Zm9.93,1.29a4.242,4.242,0,1,0-4.05-4.23A4.026,4.026,0,0,0,110.835,101.18Zm0-1.29a2.965,2.965,0,1,1,2.64-2.94A2.717,2.717,0,0,1,110.835,99.89ZM116.9,101h1.38V89H116.9Zm7.455.18a4.242,4.242,0,1,0-4.05-4.23A4.026,4.026,0,0,0,124.35,101.18Zm0-1.29a2.965,2.965,0,1,1,2.64-2.94A2.717,2.717,0,0,1,124.35,99.89Zm6.03,1.11h1.38V96.38a2.1,2.1,0,0,1,2.175-2.28,3.491,3.491,0,0,1,.57.06V92.84a2.906,2.906,0,0,0-.54-.045,2.628,2.628,0,0,0-2.325,1.38h-.015l-.15-1.29h-1.1ZM142.3,92.705c-1.8,0-2.925,1.02-2.925,2.385,0,1.425,1.185,1.86,2.52,2.265,1.17.36,1.935.615,1.935,1.395,0,.72-.63,1.2-1.725,1.2a3.851,3.851,0,0,1-2.76-1.155v1.485a4.485,4.485,0,0,0,2.805.9c1.875,0,3.03-.96,3.03-2.445,0-1.635-1.41-2.04-2.655-2.4-1.1-.315-1.8-.585-1.8-1.305,0-.66.57-1.1,1.59-1.1a3.832,3.832,0,0,1,2.43.84V93.41A4.249,4.249,0,0,0,142.3,92.705Zm5.565-1.68a.84.84,0,1,0-.855-.84A.824.824,0,0,0,147.87,91.025ZM147.18,101h1.38V92.885h-1.38Zm5.625-10.02h-1.32v1.9H150.24v1.2h1.215v4.08a2.685,2.685,0,0,0,2.9,2.94,5.084,5.084,0,0,0,.96-.09v-1.2a4.2,4.2,0,0,1-.72.075,1.611,1.611,0,0,1-1.785-1.785v-4.02h2.325v-1.2h-2.325Zm11.415,10.2a3.262,3.262,0,0,0,2.9-1.665L167.28,101H168.4V92.885H167.28l-.165,1.5a3.276,3.276,0,0,0-2.9-1.68c-1.9,0-3.69,1.65-3.69,4.245A3.93,3.93,0,0,0,164.22,101.18Zm.285-1.29a2.976,2.976,0,1,1,2.565-2.955A2.689,2.689,0,0,1,164.505,99.89Zm14.445-7.185a2.6,2.6,0,0,0-2.34,1.425,2.237,2.237,0,0,0-2.25-1.425,2.422,2.422,0,0,0-2.175,1.38h-.045l-.15-1.2h-1.065V101h1.38V95.885a1.711,1.711,0,0,1,1.68-1.86c1.08,0,1.545.615,1.545,1.785V101h1.38V95.81a1.685,1.685,0,0,1,1.7-1.785c1.08,0,1.53.615,1.53,1.785V101h1.38V95.585C181.515,93.89,180.72,92.705,178.95,92.705Zm11.91,4.08c0-2.67-1.575-4.08-3.5-4.08a3.985,3.985,0,0,0-3.915,4.275,3.906,3.906,0,0,0,4.11,4.2,4.728,4.728,0,0,0,2.835-.9V98.915a4.193,4.193,0,0,1-2.73,1.065A2.766,2.766,0,0,1,184.8,97.4h6.015A3.684,3.684,0,0,0,190.86,96.785Zm-6.06-.42a2.635,2.635,0,0,1,2.55-2.46,2.211,2.211,0,0,1,2.175,2.46Zm9.645-5.385h-1.32v1.9H191.88v1.2H193.1v4.08a2.685,2.685,0,0,0,2.9,2.94,5.084,5.084,0,0,0,.96-.09v-1.2a4.2,4.2,0,0,1-.72.075,1.611,1.611,0,0,1-1.785-1.785v-4.02h2.325v-1.2h-2.325ZM197.91,103h1.035a10.013,10.013,0,0,0,.9-3.5v-.615H198.54v.675A11.745,11.745,0,0,1,197.91,103ZM2.13,121.935A2.8,2.8,0,0,1,4.9,119a3.424,3.424,0,0,1,2.175.69v-1.41a4.156,4.156,0,0,0-2.25-.57,4.24,4.24,0,0,0,0,8.475,4.5,4.5,0,0,0,2.25-.555V124.23a3.473,3.473,0,0,1-2.16.66A2.8,2.8,0,0,1,2.13,121.935Zm10.38,4.245a4.242,4.242,0,1,0-4.05-4.23A4.026,4.026,0,0,0,12.51,126.18Zm0-1.29a2.964,2.964,0,0,1,0-5.895,2.965,2.965,0,0,1,0,5.895Zm9.78-7.185a2.927,2.927,0,0,0-2.49,1.41h-.045l-.15-1.23H18.54V126h1.38v-4.95a1.962,1.962,0,0,1,2.025-2.025c1.215,0,1.86.675,1.86,2.1V126h1.38v-5.37A2.725,2.725,0,0,0,22.29,117.705Zm7.875,0c-1.8,0-2.925,1.02-2.925,2.385,0,1.425,1.185,1.86,2.52,2.265,1.17.36,1.935.615,1.935,1.395,0,.72-.63,1.2-1.725,1.2a3.851,3.851,0,0,1-2.76-1.155v1.485a4.485,4.485,0,0,0,2.805.9c1.875,0,3.03-.96,3.03-2.445,0-1.635-1.41-2.04-2.655-2.4-1.095-.315-1.8-.585-1.8-1.305,0-.66.57-1.1,1.59-1.1a3.832,3.832,0,0,1,2.43.84V118.41A4.248,4.248,0,0,0,30.165,117.705Zm11.745,4.08c0-2.67-1.575-4.08-3.495-4.08A3.985,3.985,0,0,0,34.5,121.98a3.906,3.906,0,0,0,4.11,4.2,4.728,4.728,0,0,0,2.835-.9v-1.365a4.193,4.193,0,0,1-2.73,1.065,2.766,2.766,0,0,1-2.865-2.58h6.015A3.684,3.684,0,0,0,41.91,121.785Zm-6.06-.42a2.635,2.635,0,0,1,2.55-2.46,2.211,2.211,0,0,1,2.175,2.46Zm8.91.57A2.8,2.8,0,0,1,47.535,119a3.424,3.424,0,0,1,2.175.69v-1.41a4.156,4.156,0,0,0-2.25-.57,4.24,4.24,0,0,0,0,8.475,4.5,4.5,0,0,0,2.25-.555V124.23a3.473,3.473,0,0,1-2.16.66A2.8,2.8,0,0,1,44.76,121.935Zm8.7-5.955H52.14v1.9H50.9v1.2H52.11v4.08a2.685,2.685,0,0,0,2.9,2.94,5.083,5.083,0,0,0,.96-.09v-1.2a4.2,4.2,0,0,1-.72.075,1.611,1.611,0,0,1-1.785-1.785v-4.02h2.325v-1.2H53.46Zm10.98,5.805c0-2.67-1.575-4.08-3.5-4.08a3.985,3.985,0,0,0-3.915,4.275,3.906,3.906,0,0,0,4.11,4.2,4.728,4.728,0,0,0,2.835-.9v-1.365a4.193,4.193,0,0,1-2.73,1.065,2.766,2.766,0,0,1-2.865-2.58h6.015A3.684,3.684,0,0,0,64.44,121.785Zm-6.06-.42a2.635,2.635,0,0,1,2.55-2.46,2.211,2.211,0,0,1,2.175,2.46Zm9.645-5.385h-1.32v1.9H65.46v1.2h1.215v4.08a2.685,2.685,0,0,0,2.895,2.94,5.083,5.083,0,0,0,.96-.09v-1.2a4.2,4.2,0,0,1-.72.075,1.611,1.611,0,0,1-1.785-1.785v-4.02H70.35v-1.2H68.025Zm7.35,10.2a3.126,3.126,0,0,0,3.36-3.3v-4.995h-1.38v5.025a1.829,1.829,0,0,1-1.98,1.98,1.8,1.8,0,0,1-1.92-1.98v-5.025h-1.38v4.995A3.087,3.087,0,0,0,75.375,126.18ZM81.15,126h1.38v-4.62a2.1,2.1,0,0,1,2.175-2.28,3.491,3.491,0,0,1,.57.06v-1.32a2.907,2.907,0,0,0-.54-.045,2.628,2.628,0,0,0-2.325,1.38h-.015l-.15-1.29h-1.1Zm12.54.18a3.262,3.262,0,0,0,2.895-1.665L96.75,126h1.125v-8.115H96.75l-.165,1.5a3.276,3.276,0,0,0-2.895-1.68c-1.905,0-3.69,1.65-3.69,4.245A3.93,3.93,0,0,0,93.69,126.18Zm.285-1.29a2.976,2.976,0,1,1,2.565-2.955A2.689,2.689,0,0,1,93.975,124.89Zm9.6,1.29a3.279,3.279,0,0,0,2.895-1.665l.165,1.485h1.125V114h-1.38v5.295a3.185,3.185,0,0,0-2.805-1.59c-1.92,0-3.69,1.635-3.69,4.245A3.921,3.921,0,0,0,103.575,126.18Zm.285-1.29a2.978,2.978,0,1,1,2.55-2.955A2.7,2.7,0,0,1,103.86,124.89Zm7.125-8.865a.84.84,0,1,0-.855-.84A.824.824,0,0,0,110.985,116.025Zm-.69,9.975h1.38v-8.115h-1.38Zm3.93,3.15h1.38v-4.56a3.23,3.23,0,0,0,2.805,1.59c1.92,0,3.675-1.635,3.675-4.245,0-2.58-1.77-4.23-3.69-4.23a3.27,3.27,0,0,0-2.88,1.68l-.165-1.5h-1.125Zm3.9-4.26a2.974,2.974,0,1,1,2.58-2.955A2.685,2.685,0,0,1,118.125,124.89Zm6.705-8.865a.84.84,0,1,0-.855-.84A.824.824,0,0,0,124.83,116.025ZM124.14,126h1.38v-8.115h-1.38Zm6.48-8.295c-1.8,0-2.925,1.02-2.925,2.385,0,1.425,1.185,1.86,2.52,2.265,1.17.36,1.935.615,1.935,1.395,0,.72-.63,1.2-1.725,1.2a3.851,3.851,0,0,1-2.76-1.155v1.485a4.485,4.485,0,0,0,2.805.9c1.875,0,3.03-.96,3.03-2.445,0-1.635-1.41-2.04-2.655-2.4-1.1-.315-1.8-.585-1.8-1.305,0-.66.57-1.1,1.59-1.1a3.832,3.832,0,0,1,2.43.84V118.41A4.249,4.249,0,0,0,130.62,117.705Zm5.715,4.23A2.8,2.8,0,0,1,139.11,119a3.424,3.424,0,0,1,2.175.69v-1.41a4.156,4.156,0,0,0-2.25-.57,4.24,4.24,0,0,0,0,8.475,4.5,4.5,0,0,0,2.25-.555V124.23a3.473,3.473,0,0,1-2.16.66A2.8,2.8,0,0,1,136.335,121.935Zm7.725-5.91a.84.84,0,1,0-.855-.84A.824.824,0,0,0,144.06,116.025ZM143.37,126h1.38v-8.115h-1.38Zm7.68-8.295a2.927,2.927,0,0,0-2.49,1.41h-.045l-.15-1.23H147.3V126h1.38v-4.95a1.962,1.962,0,0,1,2.025-2.025c1.215,0,1.86.675,1.86,2.1V126h1.38v-5.37A2.725,2.725,0,0,0,151.05,117.705Zm8.49.015a4.092,4.092,0,0,0,0,8.145,3.305,3.305,0,0,0,2.79-1.53v1.23a2.506,2.506,0,0,1-2.67,2.475,4.429,4.429,0,0,1-2.97-1.2v1.485a5.135,5.135,0,0,0,3.03,1.005,3.79,3.79,0,0,0,3.99-3.99v-7.455h-1.125l-.165,1.41A3.329,3.329,0,0,0,159.54,117.72Zm.27,1.275a2.6,2.6,0,0,1,2.565,2.76,2.666,2.666,0,0,1-2.565,2.85,2.816,2.816,0,0,1,0-5.61Zm17.415,2.79c0-2.67-1.575-4.08-3.5-4.08a3.985,3.985,0,0,0-3.915,4.275,3.906,3.906,0,0,0,4.11,4.2,4.728,4.728,0,0,0,2.835-.9v-1.365a4.193,4.193,0,0,1-2.73,1.065,2.766,2.766,0,0,1-2.865-2.58h6.015A3.684,3.684,0,0,0,177.225,121.785Zm-6.06-.42a2.635,2.635,0,0,1,2.55-2.46,2.211,2.211,0,0,1,2.175,2.46Zm8.07,4.635h1.38V114h-1.38Zm4.65-9.975a.84.84,0,1,0-.855-.84A.824.824,0,0,0,183.885,116.025Zm-.69,9.975h1.38v-8.115h-1.38Zm5.625-10.02H187.5v1.9h-1.245v1.2h1.215v4.08a2.685,2.685,0,0,0,2.9,2.94,5.084,5.084,0,0,0,.96-.09v-1.2a4.2,4.2,0,0,1-.72.075,1.611,1.611,0,0,1-1.785-1.785v-4.02h2.325v-1.2H188.82Zm4.785,10.095a.938.938,0,1,0-.93-.93A.916.916,0,0,0,193.6,126.075Z" transform="translate(80 112.001)"/></g></svg>