<svg xmlns="http://www.w3.org/2000/svg" xmlns:xlink="http://www.w3.org/1999/xlink" width="375" height="628" viewBox="0 0 375 628"><defs><linearGradient id="a" x1="1.22" y1="1.736" x2="-0.532" y2="-1.187" gradientUnits="objectBoundingBox"><stop offset="0" stop-color="#010101" stop-opacity="0"/><stop offset="0.95" stop-color="#010101"/></linearGradient><linearGradient id="b" x1="0.5" y1="3.211" x2="0.487" y2="-0.362" gradientUnits="objectBoundingBox"><stop offset="0" stop-color="#fff" stop-opacity="0"/><stop offset="0.13" stop-color="#fff" stop-opacity="0.231"/><stop offset="0.23" stop-color="#fff" stop-opacity="0.412"/><stop offset="0.35" stop-color="#fff" stop-opacity="0.588"/><stop offset="0.48" stop-color="#fff" stop-opacity="0.741"/><stop offset="0.6" stop-color="#fff" stop-opacity="0.851"/><stop offset="0.72" stop-color="#fff" stop-opacity="0.929"/><stop offset="0.84" stop-color="#fff" stop-opacity="0.98"/><stop offset="0.95" stop-color="#fff"/><stop offset="1" stop-color="#fff"/></linearGradient><linearGradient id="c" x1="0.493" y1="-0.188" x2="0.571" y2="9.339" xlink:href="#a"/><linearGradient id="d" x1="0.502" y1="0.004" x2="0.482" y2="4.378" xlink:href="#a"/><clipPath id="e"><path d="M152.11,131.31V35.427H256.241V126.69a4.8,4.8,0,0,1-3.522,4.62Z" transform="translate(-152.11 -35.427)" fill="#fff" stroke="#707070" stroke-width="1"/></clipPath><filter id="f" x="159.272" y="550.226" width="79.113" height="98.025" filterUnits="userSpaceOnUse"><feOffset input="SourceAlpha"/><feGaussianBlur stdDeviation="5" result="g"/><feFlood flood-opacity="0.078"/><feComposite operator="in" in2="g"/><feComposite in="SourceGraphic"/></filter><linearGradient id="h" x1="6.172" y1="66.845" x2="6.177" y2="70.481" gradientUnits="objectBoundingBox"><stop offset="0" stop-color="#fff"/><stop offset="1" stop-color="#cbcbcb"/></linearGradient><linearGradient id="i" x1="-31.853" y1="-57.115" x2="-31.691" y2="-59.541" xlink:href="#h"/><linearGradient id="j" x1="1.193" y1="1.366" x2="-1.881" y2="-1.507" gradientUnits="objectBoundingBox"><stop offset="0" stop-color="#010101" stop-opacity="0"/><stop offset="0.95" stop-color="#010101"/><stop offset="1" stop-color="#010101"/></linearGradient><linearGradient id="k" x1="-2.01" y1="0.014" x2="6.971" y2="1.753" gradientUnits="objectBoundingBox"><stop offset="0.01"/><stop offset="0.08" stop-opacity="0.69"/><stop offset="0.21" stop-opacity="0.322"/><stop offset="1" stop-opacity="0"/></linearGradient><linearGradient id="l" x1="0.5" y1="0.55" x2="0.549" y2="3.974" gradientUnits="objectBoundingBox"><stop offset="0" stop-opacity="0"/><stop offset="0.95"/></linearGradient><linearGradient id="m" x1="0.515" y1="0.374" x2="-1.524" y2="1.983" xlink:href="#l"/><linearGradient id="n" x1="0.654" y1="0.376" x2="-1.527" y2="1.753" xlink:href="#l"/><filter id="o" x="288.989" y="574.649" width="29.453" height="32.807" filterUnits="userSpaceOnUse"><feOffset dy="3" input="SourceAlpha"/><feGaussianBlur stdDeviation="3" result="p"/><feFlood flood-opacity="0.161"/><feComposite operator="in" in2="p"/><feComposite in="SourceGraphic"/></filter><linearGradient id="q" y1="0.5" x2="1" y2="0.5" gradientUnits="objectBoundingBox"><stop offset="0" stop-color="#e5c6d6"/><stop offset="0.42" stop-color="#ead4d0"/><stop offset="1" stop-color="#f0e9cb"/></linearGradient><linearGradient id="r" x1="0.002" y1="0.5" x2="1" y2="0.5" xlink:href="#q"/><linearGradient id="s" x1="0.595" y1="0.272" x2="-0.187" y2="2.312" xlink:href="#a"/><linearGradient id="t" x1="0" y1="0.5" x2="0.999" y2="0.5" xlink:href="#q"/><linearGradient id="u" x1="-0.003" y1="0.499" x2="0.996" y2="0.499" xlink:href="#q"/><linearGradient id="v" x1="0.547" y1="0.753" x2="-2.21" y2="-3.148" xlink:href="#a"/><linearGradient id="w" x1="0" y1="0.499" x2="0.999" y2="0.499" xlink:href="#q"/><linearGradient id="x" x1="0.459" y1="0.046" x2="0.664" y2="3.625" xlink:href="#a"/><linearGradient id="y" x1="-0.069" y1="0.929" x2="2.086" y2="-0.679" xlink:href="#a"/><linearGradient id="z" x1="0.002" y1="0.5" x2="1.001" y2="0.5" xlink:href="#q"/><linearGradient id="aa" x1="1.067" y1="0.061" x2="-0.513" y2="1.715" xlink:href="#a"/><linearGradient id="ab" x1="0.765" y1="-0.396" x2="0.045" y2="2.616" xlink:href="#a"/><linearGradient id="ac" x1="1.653" y1="0.479" x2="-16.64" y2="0.856" xlink:href="#a"/><linearGradient id="ad" y1="0.5" x2="1" y2="0.5" gradientUnits="objectBoundingBox"><stop offset="0" stop-color="#fff" stop-opacity="0"/><stop offset="0.95" stop-color="#fff"/></linearGradient><linearGradient id="ae" x1="-6.665" y1="2.576" x2="-5.82" y2="2.576" xlink:href="#ad"/><linearGradient id="af" x1="-13.257" y1="13.837" x2="-12.384" y2="13.837" xlink:href="#ad"/><linearGradient id="ag" x1="0.403" y1="-0.176" x2="0.542" y2="1.309" gradientUnits="objectBoundingBox"><stop offset="0" stop-color="#00629b"/><stop offset="1" stop-color="#003865"/></linearGradient><filter id="ah" x="26" y="262" width="324" height="108" filterUnits="userSpaceOnUse"><feOffset dy="4" input="SourceAlpha"/><feGaussianBlur stdDeviation="10" result="ai"/><feFlood flood-opacity="0.122"/><feComposite operator="in" in2="ai"/><feComposite in="SourceGraphic"/></filter><linearGradient id="aj" x1="0.44" y1="-0.248" x2="0.566" y2="1.259" gradientUnits="objectBoundingBox"><stop offset="0" stop-color="#007d8a"/><stop offset="1" stop-color="#00629b"/></linearGradient><filter id="ak" x="26" y="334" width="324" height="108" filterUnits="userSpaceOnUse"><feOffset dy="4" input="SourceAlpha"/><feGaussianBlur stdDeviation="10" result="al"/><feFlood flood-opacity="0.122"/><feComposite operator="in" in2="al"/><feComposite in="SourceGraphic"/></filter><linearGradient id="am" x1="0.5" x2="0.5" y2="1" gradientUnits="objectBoundingBox"><stop offset="0" stop-color="#f8f8fc"/><stop offset="1" stop-color="#e1e2e8"/></linearGradient><filter id="an" x="8" y="92.001" width="80" height="80" filterUnits="userSpaceOnUse"><feOffset dy="4" input="SourceAlpha"/><feGaussianBlur stdDeviation="8" result="ao"/><feFlood flood-opacity="0.122"/><feComposite operator="in" in2="ao"/><feComposite in="SourceGraphic"/></filter><clipPath id="ap"><circle cx="16" cy="16" r="16" transform="translate(0 0.001)" fill="#9bcbeb"/></clipPath><linearGradient id="aq" x1="-2.152" y1="0.467" x2="1.172" y2="0.515" gradientUnits="objectBoundingBox"><stop offset="0.01"/><stop offset="1" stop-opacity="0"/></linearGradient><linearGradient id="ar" x1="-1.499" y1="1.742" x2="1.059" y2="0.131" xlink:href="#aq"/><linearGradient id="as" x1="0.337" y1="-1.05" x2="0.603" y2="1.481" xlink:href="#aq"/><linearGradient id="at" x1="0.815" y1="0.239" x2="0.092" y2="0.732" gradientUnits="objectBoundingBox"><stop offset="0.02" stop-color="#fff" stop-opacity="0"/><stop offset="0.58" stop-color="#fff" stop-opacity="0.388"/><stop offset="1" stop-color="#fff"/></linearGradient><linearGradient id="au" x1="-0.26" y1="0.481" x2="1.302" y2="0.521" xlink:href="#at"/><linearGradient id="av" x1="0.538" y1="-0.383" x2="0.467" y2="1.403" xlink:href="#aq"/><linearGradient id="aw" x1="0.256" y1="-0.276" x2="0.721" y2="1.203" xlink:href="#aq"/><linearGradient id="ax" x1="0.253" y1="0.258" x2="0.455" y2="0.476" xlink:href="#aq"/><linearGradient id="ay" x1="0.413" y1="0.486" x2="1.01" y2="0.583" xlink:href="#aq"/><linearGradient id="az" x1="0.014" y1="0.352" x2="0.779" y2="0.604" xlink:href="#aq"/><linearGradient id="ba" x1="0.555" y1="1.165" x2="0.461" y2="-0.341" xlink:href="#aq"/><linearGradient id="bb" x1="0.635" y1="0.055" x2="0.348" y2="0.907" gradientUnits="objectBoundingBox"><stop offset="0.02" stop-color="#fff" stop-opacity="0"/><stop offset="0.58" stop-color="#fff" stop-opacity="0.388"/><stop offset="0.68" stop-color="#fff" stop-opacity="0.678"/><stop offset="1" stop-color="#fff"/></linearGradient><linearGradient id="bc" x1="0.185" y1="-0.258" x2="0.961" y2="1.606" xlink:href="#aq"/><clipPath id="be"><rect width="375" height="628"/></clipPath></defs><g id="bd" clip-path="url(#be)"><rect width="375" height="628" fill="#fff"/><text transform="translate(32 49)" font-size="20" font-family="HeroNew-ExtraBold, Hero New" font-weight="800" letter-spacing="0.1em"><tspan x="0" y="0">FOR MORE DETAIL...</tspan></text><path d="M453.822,230.463c-6.458,22.739-41.432,10.379-129.908,13.838s-166.066-.39-224,0-98.3-10.02-94.011-32.891,13.724-45.227,14.205-68.379c.342-16.164-3.7-32.153-4.738-48.3S16.728,61.471,28.315,48.4s30.873-20.23,50.192-23.346S142.96,29.3,162.637,28.3c40.7-2.046,51.484-40.854,125.438-57.9s145.639,1.129,152.318,65.9C440.906,41.658,453.17,196.845,453.822,230.463Z" transform="translate(-45.823 491.629)" fill="#00629b" opacity="0.24" style="isolation:isolate"/><g transform="translate(29.38 -4288.498)"><g transform="translate(66.418 4792)"><path d="M217.41,113.076v85.581a4.778,4.778,0,0,1-1.23,3.209,4.97,4.97,0,0,1-1.275,1.008.035.035,0,0,0-.029.02,4.837,4.837,0,0,1-2.257.558H71.983c-3.434-4.4-5.6-9.628-8.313-14.529V117.76Q71.324,110.65,79,103.543c2.811-2.609,5.626-5.218,8.548-7.7H196.188c5.87,4.634,11.741,9.275,17.513,14C214.951,110.894,216.223,111.941,217.41,113.076Z" transform="translate(-59.453 -91.92)" fill="url(#a)"/><path d="M4.791,0H148.949a4.791,4.791,0,0,1,4.791,4.791v98.036a4.791,4.791,0,0,1-4.791,4.791H4.791A4.791,4.791,0,0,1,0,102.827V4.791A4.791,4.791,0,0,1,4.791,0Z" transform="translate(0)" fill="#00629b"/><path d="M204.49,88.631v98.026a4.794,4.794,0,0,1-4.794,4.791H55.544a4.784,4.784,0,0,1-4.794-4.791V88.631a4.784,4.784,0,0,1,4.791-4.791H199.692a4.794,4.794,0,0,1,4.8,4.791Z" transform="translate(-50.747 -83.833)" fill="url(#b)"/><path d="M204.49,88.631v6.464H50.75V88.631a4.784,4.784,0,0,1,4.791-4.791H199.692a4.794,4.794,0,0,1,4.8,4.791Z" transform="translate(-50.747 -83.833)" fill="#00629b" opacity="0.24" style="isolation:isolate"/><path d="M204.49,88.631v6.464H50.75V88.631a4.784,4.784,0,0,1,4.791-4.791H199.692a4.794,4.794,0,0,1,4.8,4.791Z" transform="translate(-50.747 -83.833)" fill="#00629b"/><path d="M204.49,88.631v6.464H50.75V88.631a4.784,4.784,0,0,1,4.791-4.791H199.692a4.794,4.794,0,0,1,4.8,4.791Z" transform="translate(-50.747 -83.833)" fill="url(#c)"/><path d="M64.792,130.081a4.785,4.785,0,0,1-1.4-3.391V35.427H113v96.054H68.174A4.784,4.784,0,0,1,64.792,130.081Z" transform="translate(-63.386 -23.866)" fill="#fff"/><path d="M3.614,0h22.7a3.614,3.614,0,0,1,3.614,3.614v0A3.614,3.614,0,0,1,26.313,7.23H3.614A3.614,3.614,0,0,1,0,3.617v0A3.614,3.614,0,0,1,3.614,0Z" transform="translate(10.312 30.94)" fill="#8799a4"/><path d="M3.614,0H21.473a3.614,3.614,0,0,1,3.614,3.614v0A3.614,3.614,0,0,1,21.473,7.23H3.614A3.614,3.614,0,0,1,0,3.617v0A3.614,3.614,0,0,1,3.614,0Z" transform="translate(10.312 73.615)" fill="#00629b"/><path d="M3.614,0H21.473a3.614,3.614,0,0,1,3.614,3.614v0A3.614,3.614,0,0,1,21.473,7.23H3.614A3.614,3.614,0,0,1,0,3.617v0A3.614,3.614,0,0,1,3.614,0Z" transform="translate(10.312 73.615)" fill="url(#d)"/><path d="M1.833,0H23.126a1.833,1.833,0,0,1,1.833,1.833v0a1.833,1.833,0,0,1-1.833,1.833H1.833A1.833,1.833,0,0,1,0,1.836v0A1.833,1.833,0,0,1,1.833,0Z" transform="translate(10.312 63.407)" fill="#8799a4"/><path d="M0,0H30.523V5.825H0Z" transform="translate(10.312 44.801)" fill="#c2d9e7"/><path d="M0,0H53.352V5.825H0Z" transform="translate(91.194 37.952)" fill="#8799a4" opacity="0.7"/><path d="M0,0H19.108V3.868H0Z" transform="translate(125.438 46.758)" fill="#8799a4" opacity="0.7"/><path d="M0,0H30.523V5.825H0Z" transform="translate(10.312 52.332)" fill="#c2d9e7"/><g transform="translate(49.612 11.56)" clip-path="url(#e)"><g transform="translate(28.34 50.163)"><g transform="matrix(1, 0, 0, 1, -173.75, -565.23)" filter="url(#f)"><path d="M44.453,68.006,24.548,66.049a4.084,4.084,0,0,1-3.724-3.86V53.645L4.73,55.229a3.47,3.47,0,0,1-3.159-1.288A3.1,3.1,0,0,1,0,51.219V5.926A4.141,4.141,0,0,1,3.78,2.008L23.99.02a3.473,3.473,0,0,1,3.161,1.289,3.1,3.1,0,0,1,1.572,2.723v9.9l16.666,1.64a4.084,4.084,0,0,1,3.724,3.859V64.056a3.05,3.05,0,0,1-1.546,2.682,3.358,3.358,0,0,1-2.72,1.287Q44.653,68.025,44.453,68.006ZM2.75,52.767a1.928,1.928,0,0,1-.245-.952V6.648a2.249,2.249,0,0,1,.357-1.2,2.5,2.5,0,0,1,.209-.295A2.311,2.311,0,0,0,2.5,6.644V51.81a1.926,1.926,0,0,0,.247.956ZM44.37,17.752a2.516,2.516,0,0,1,2.3,2.38v-.009a2.516,2.516,0,0,0-2.3-2.38l-2.152-.2v0Zm-15.076.163,10.7,1.051a1.3,1.3,0,0,0,1.412-.86,1.3,1.3,0,0,1-1.412.86l-10.7-1.051a1.608,1.608,0,0,1-.571-.159A1.608,1.608,0,0,0,29.293,17.916ZM9.113,5.469q.076,0,.154-.008L19.952,4.4l.007,0L9.26,5.459a1.531,1.531,0,0,1-.506-.033A1.5,1.5,0,0,0,9.113,5.469ZM4.831,4.229a2.622,2.622,0,0,0-.783.2l.1-.037a2.543,2.543,0,0,1,.686-.163l1.605-.159ZM24.457,2.29l-2.847.282v.114h0V2.578L23.2,2.423,24.464,2.3a2.311,2.311,0,0,1,1.131.163l0-.008a2.265,2.265,0,0,0-.887-.176Q24.582,2.278,24.457,2.29Z" transform="translate(174.27 565.23)" fill="#00629b"/></g><g transform="translate(0 0)"><path d="M231.072,61.274v45.293a4.141,4.141,0,0,1-3.782,3.915l-20.211,1.989a3.269,3.269,0,0,1-3.78-3.173V64a4.141,4.141,0,0,1,3.78-3.917L227.29,58.1A3.271,3.271,0,0,1,231.072,61.274Zm-1.935.215a2.015,2.015,0,0,0-2.331-1.957l-2.847.282v.267a1.636,1.636,0,0,1-1.492,1.546L211.61,62.7a1.289,1.289,0,0,1-1.49-1.251v-.267l-2.941.288a2.551,2.551,0,0,0-2.331,2.415v45.167a2.013,2.013,0,0,0,2.331,1.954l19.628-1.935a2.549,2.549,0,0,0,2.331-2.415Z" transform="translate(-203.3 -58.079)" fill="#00629b"/><path d="M226.652,65.171v45.293a4.141,4.141,0,0,1-3.782,3.915l-20.211,1.989a3.269,3.269,0,0,1-3.78-3.174V67.9a4.141,4.141,0,0,1,3.78-3.917L222.87,62A3.269,3.269,0,0,1,226.652,65.171Zm-1.935.215a2.015,2.015,0,0,0-2.331-1.957l-2.847.282v.267a1.636,1.636,0,0,1-1.492,1.546L207.19,66.6a1.289,1.289,0,0,1-1.49-1.251V65.08l-2.939.288a2.551,2.551,0,0,0-2.331,2.415V112.95a2.013,2.013,0,0,0,2.331,1.954l19.628-1.935a2.549,2.549,0,0,0,2.331-2.415Z" transform="translate(-197.93 -61.139)" fill="#fff"/><path d="M232.139,70.682v45.164a2.551,2.551,0,0,1-2.331,2.415L210.181,120.2a2.012,2.012,0,0,1-2.331-1.954V73.075a2.553,2.553,0,0,1,2.331-2.415l2.941-.292v.269a1.289,1.289,0,0,0,1.49,1.251l10.858-1.075a1.636,1.636,0,0,0,1.492-1.546v-.26l2.847-.282A2.015,2.015,0,0,1,232.139,70.682Z" transform="translate(-205.345 -66.427)" fill="#d1e2ed"/><path d="M232.139,70.682v45.164a2.551,2.551,0,0,1-2.331,2.415L210.181,120.2a2.012,2.012,0,0,1-2.331-1.954V73.075a2.553,2.553,0,0,1,2.331-2.415l2.941-.292v.269a1.289,1.289,0,0,0,1.49,1.251l10.858-1.075a1.636,1.636,0,0,0,1.492-1.546v-.26l2.847-.282A2.015,2.015,0,0,1,232.139,70.682Z" transform="translate(-205.345 -66.427)" fill="#fff"/><path d="M207.85,73.081v45.162a2.016,2.016,0,0,0,2.331,1.957l19.566-1.935h.062a2.549,2.549,0,0,0,2.331-2.415V70.688a2.012,2.012,0,0,0-2.331-1.954l-2.849.277v.269a1.632,1.632,0,0,1-1.49,1.546l-.215.022-10.641,1.047a1.291,1.291,0,0,1-1.492-1.251v-.271l-2.946.292a2.537,2.537,0,0,0-.686.163A2.494,2.494,0,0,0,207.85,73.081Z" transform="translate(-205.345 -66.433)" fill="#c2d9e7" style="isolation:isolate"/><g transform="translate(20.824 13.594)"><path d="M113.906,29.989l19.9,1.959a4.084,4.084,0,0,1,3.724,3.859V80.432a3.217,3.217,0,0,1-3.724,3.126l-19.9-1.959a4.084,4.084,0,0,1-3.726-3.857V33.118A3.221,3.221,0,0,1,113.906,29.989Zm-1.825,47.848a2.514,2.514,0,0,0,2.294,2.378l19.34,1.9a1.986,1.986,0,0,0,2.3-1.935V35.676a2.514,2.514,0,0,0-2.3-2.378l-2.9-.286v.264a1.271,1.271,0,0,1-1.469,1.234l-10.7-1.038a1.608,1.608,0,0,1-1.471-1.522V31.7l-2.8-.275a1.985,1.985,0,0,0-2.294,1.935Z" transform="translate(-109.245 -29.97)" fill="#00629b"/><path d="M118.254,33.826l19.905,1.959a4.086,4.086,0,0,1,3.724,3.87V84.269a3.217,3.217,0,0,1-3.724,3.126l-19.905-1.957a4.084,4.084,0,0,1-3.724-3.859V36.954A3.226,3.226,0,0,1,118.254,33.826Zm-1.825,47.848a2.514,2.514,0,0,0,2.3,2.378l19.351,1.9a1.986,1.986,0,0,0,2.3-1.935V39.513a2.516,2.516,0,0,0-2.3-2.38l-2.909-.273v.262a1.271,1.271,0,0,1-1.468,1.234L123,37.3a1.613,1.613,0,0,1-1.469-1.52v-.26l-2.806-.277a1.987,1.987,0,0,0-2.3,1.935Z" transform="translate(-114.53 -32.983)" fill="#fff"/><path d="M121.56,42.385V86.891a2.514,2.514,0,0,0,2.3,2.378l19.351,1.9a1.986,1.986,0,0,0,2.3-1.935V44.731a2.516,2.516,0,0,0-2.3-2.38l-2.909-.282v.262a1.271,1.271,0,0,1-1.468,1.234l-10.7-1.051a1.613,1.613,0,0,1-1.468-1.52v-.26l-2.806-.277A1.986,1.986,0,0,0,121.56,42.385Z" transform="translate(-119.661 -38.192)" fill="#00629b"/><path d="M142.07,33.645l3.677.361V33.7l-3.677-.361Z" transform="translate(-129.709 -29.902)" fill="url(#h)"/><ellipse cx="0.411" cy="0.366" rx="0.411" ry="0.366" transform="translate(11.562 3.97) rotate(-149.69)" fill="url(#i)"/></g></g></g></g></g><g transform="translate(234.323 4792.124)"><g transform="translate(0 0)"><path d="M398.14,113.076v85.581a4.778,4.778,0,0,1-1.23,3.209,4.97,4.97,0,0,1-1.275,1.008.035.035,0,0,0-.029.02,4.836,4.836,0,0,1-2.257.558H331.983c-3.434-4.4-5.6-9.628-8.313-14.529V117.76q7.654-7.11,15.328-14.216c2.811-2.609,5.626-5.218,8.548-7.7h29.372c5.87,4.634,11.741,9.275,17.513,14C395.681,110.894,396.953,111.941,398.14,113.076Z" transform="translate(-317.843 -92.043)" fill="url(#j)"/><g transform="translate(0)"><rect width="76.547" height="107.167" rx="4" fill="#fff"/><rect width="25.019" height="2.427" rx="1.213" transform="translate(42.382 16.455)" fill="#00629b"/><rect width="25.019" height="2.427" rx="1.213" transform="translate(42.382 21.775)" fill="#00629b"/><rect width="56.382" height="2.427" rx="1.213" transform="translate(11.015 31.107)" fill="#00629b"/><rect width="56.382" height="2.427" rx="1.213" transform="translate(11.015 36.428)" fill="#00629b"/><g transform="translate(11.686 46.546)"><rect width="7.805" height="12.882" transform="translate(47.191)" fill="#00629b"/><g transform="translate(0 9.818)" opacity="0.41"><rect width="7.805" height="3.064" fill="#00629b"/></g><rect width="7.805" height="5.45" transform="translate(11.794 7.433)" fill="#00629b"/><g transform="translate(23.589 4.919)" opacity="0.5"><rect width="7.805" height="7.964" fill="#00629b"/></g><rect width="7.805" height="10.414" transform="translate(35.396 2.469)" fill="#00629b"/><rect width="7.805" height="12.882" transform="translate(47.191)" fill="url(#k)"/></g></g></g><g transform="translate(13.526 65.967)"><path d="M157.687,51.038a8.85,8.85,0,0,1-8.857,8.857H115.712a8.854,8.854,0,1,1-.434-17.7,8.536,8.536,0,0,1,8.391-7.058H124.8a8.545,8.545,0,0,1,5.428,1.95,10.243,10.243,0,0,1,19.788,3.752,7.671,7.671,0,0,1-.12,1.425A8.846,8.846,0,0,1,157.687,51.038Z" transform="translate(-106.64 -28.884)" fill="#00629b"/><path d="M157.687,51.038a8.85,8.85,0,0,1-8.857,8.857H115.712a8.854,8.854,0,1,1-.434-17.7,8.536,8.536,0,0,1,8.391-7.058H124.8a8.545,8.545,0,0,1,5.428,1.95,10.243,10.243,0,0,1,19.788,3.752,7.671,7.671,0,0,1-.12,1.425A8.846,8.846,0,0,1,157.687,51.038Z" transform="translate(-106.64 -28.884)" fill="url(#l)"/><path d="M159.046,42.765a8.3,8.3,0,0,1-2.574,6,8.938,8.938,0,0,1-6.22,2.488H117.369a8.646,8.646,0,0,1-8.809-8.488,8.319,8.319,0,0,1,2.574-6.007,8.891,8.891,0,0,1,5.8-2.47,8.009,8.009,0,0,1,2.352-4.367,8.6,8.6,0,0,1,5.982-2.4H126.4a8.683,8.683,0,0,1,5.387,1.866,10.133,10.133,0,0,1,9.461-6.233,10,10,0,0,1,10.178,9.825,7.029,7.029,0,0,1-.12,1.357A8.6,8.6,0,0,1,159.046,42.765Z" transform="translate(-108.126 -23.16)" fill="#5796ba"/><path d="M211.26,29.684l2.311,2.391s1.436-8.626,10.485-8.034C224.057,24.041,215.544,21.035,211.26,29.684Z" transform="translate(-187.598 -23.45)" fill="url(#m)"/><path d="M145.6,49.487a3.942,3.942,0,0,1,3.209,1.721s.337-7.69,6.869-7.823c0,0-2.676-1.71-6.405.7A7.962,7.962,0,0,0,145.6,49.487Z" transform="translate(-136.788 -38.354)" fill="url(#n)"/></g><g transform="matrix(1, 0, 0, 1, -263.7, -503.63)" filter="url(#o)"><path d="M6.583.946v1.49a.943.943,0,0,1-.937.949H1.284A1.284,1.284,0,0,0,0,4.669H0v2A1.285,1.285,0,0,0,1.284,7.956H5.726a.943.943,0,0,1,.944.941v1.617a.944.944,0,0,0,.946.94.954.954,0,0,0,.425-.1.442.442,0,0,0,.051-.032L14.32,6.659a.942.942,0,0,0-.01-1.654L8,.133A.279.279,0,0,0,7.939.1.943.943,0,0,0,6.583.949Z" transform="translate(309.44 580.65) rotate(90)" fill="#fff"/></g></g><g transform="matrix(0.996, -0.087, 0.087, 0.996, -1, 4819.163)"><path d="M1.581.12C.8.139-.287.645.07,1.334a1.142,1.142,0,0,0,.448.4,24.849,24.849,0,0,0,8.2,2.7A92.132,92.132,0,0,0,33.867,5.593a3.087,3.087,0,0,0,1.644-.477C38.018,3.177,29.8,2.4,28.822,2.158a46.123,46.123,0,0,0-6.037-1.5A153.2,153.2,0,0,0,1.581.12Z" transform="translate(0 76.732)" fill="#00629b" opacity="0.24" style="isolation:isolate"/><path d="M6.344,0,17.638,1.922l-7.567,11L0,10.13Z" transform="translate(38.142 14.106)" fill="#fff"/><path d="M2.588,20.091C1.55,23.443.267,26.771.02,30.272a2.987,2.987,0,0,0,.06,1.038C.417,32.462,1.82,32.856,3,33.062c.567.1,1.305.118,1.548-.4s-.264-1.1-.766-1.395-1.11-.612-1.193-1.189a1.793,1.793,0,0,1,.305-1.05,36.736,36.736,0,0,0,1.918-4.667L7.7,16.3a33.14,33.14,0,0,0,1.31-4.234A31.421,31.421,0,0,0,9.5,5.352a8.15,8.15,0,0,0-.552-3.565A3.184,3.184,0,0,0,7.193.145c-1.1-.363-1.141-.037-1.245.917-.255,2.133-.3,4.29-.581,6.434a76.9,76.9,0,0,1-2.779,12.6Z" transform="translate(10.366 45.803)" fill="url(#q)"/><path d="M.357.057q.529,15.49-.34,30.985a1.467,1.467,0,0,0,.114.83,1.361,1.361,0,0,0,1.125.513,9.066,9.066,0,0,0,2.551-.137,1.048,1.048,0,0,0,.7-.357.823.823,0,0,0-.33-1.052,5.757,5.757,0,0,0-1.129-.463.909.909,0,0,1-.45-.336,1.111,1.111,0,0,1-.021-.83C4.635,20.453,5.542,11.326,4.135,2.437,3.964,1.366,3.483.042,2.4,0,1.524-.032.914.831.476,1.584" transform="translate(22.24 47.124)" fill="url(#r)"/><path d="M3.892,3.016a5.141,5.141,0,0,0,2.131,1A5.976,5.976,0,0,0,5.544,2.04a1.685,1.685,0,0,1,.4-1.868C6.6-.263,7.49.193,7.986.8A7.866,7.866,0,0,1,9.092,2.931l.936,2.376a2.675,2.675,0,0,1,.247.98A1.833,1.833,0,0,1,9.813,7.4a3.813,3.813,0,0,1-4.032.928A9.364,9.364,0,0,1,2.194,5.878C1.412,5.108-.695,3.08.231,1.852,1.231.525,3.047,2.441,3.892,3.016Z" transform="translate(24.974 17.107)" fill="#00629b"/><path d="M3.892,3.016a5.141,5.141,0,0,0,2.131,1A5.976,5.976,0,0,0,5.544,2.04a1.685,1.685,0,0,1,.4-1.868C6.6-.263,7.49.193,7.986.8A7.866,7.866,0,0,1,9.092,2.931l.936,2.376a2.675,2.675,0,0,1,.247.98A1.833,1.833,0,0,1,9.813,7.4a3.813,3.813,0,0,1-4.032.928A9.364,9.364,0,0,1,2.194,5.878C1.412,5.108-.695,3.08.231,1.852,1.231.525,3.047,2.441,3.892,3.016Z" transform="translate(24.974 17.107)" fill="url(#s)"/><path d="M.033,1.321A2.113,2.113,0,0,0,1.224,2.784a3.556,3.556,0,0,1,.444.208,1.735,1.735,0,0,1,.6.805,3.024,3.024,0,0,0,.5.886.83.83,0,0,0,.924.239.851.851,0,0,0,.334-.34A1.947,1.947,0,0,0,4.18,3.2a6.3,6.3,0,0,0-.511-1.324A4.478,4.478,0,0,0,2.818.5C2.019-.277-.3-.254.033,1.321Z" transform="translate(27.817 13.59)" fill="url(#t)"/><path d="M14.125,1.3A1.019,1.019,0,0,0,13.594.263,2.424,2.424,0,0,0,12.388,0a5.02,5.02,0,0,0-1.66.22A5.351,5.351,0,0,0,8.219,2.27c-.641.886-1.152,1.868-1.8,2.752A7.3,7.3,0,0,1,1.534,8.116,1.693,1.693,0,0,0,.4,8.489a1.341,1.341,0,0,0-.27.67,5.292,5.292,0,0,0,.039,2.472A2.905,2.905,0,0,0,1.7,13.5c.152.066.328.135.386.288a.6.6,0,0,1-.033.382A3,3,0,0,0,2,15.506a3.059,3.059,0,0,0,4.97,1.8,2.881,2.881,0,0,0,4.9-.907c.22-.623.224-1.287.388-1.92.415-1.565,1.706-2.7,2.679-3.993a9.163,9.163,0,0,0,1.718-3.75,14.156,14.156,0,0,0,.208-2.391,4.245,4.245,0,0,0-.367-2.187A3.937,3.937,0,0,0,14.829.771,3.931,3.931,0,0,0,12.413.159" transform="translate(10.979 8.269)" fill="#606161"/><path d="M.061,6.021a9.833,9.833,0,0,0,.05,1.833A3.856,3.856,0,0,0,.565,9.389a1.749,1.749,0,0,0,1.278.886A1.436,1.436,0,0,0,2.989,9.86c.295-.3-1.488-2.874-1.112-2.683C4.16,8.341,4.12,3.279,4.16,2.717A3.186,3.186,0,0,0,3.784.9,1.779,1.779,0,0,0,2.234,0,1.847,1.847,0,0,0,.877.83a4.209,4.209,0,0,0-.6,1.525A11.923,11.923,0,0,0,.02,5.6" transform="translate(22.296 9.91)" fill="url(#u)"/><path d="M3.275.4A1.41,1.41,0,0,0,1.664.216,2.679,2.679,0,0,0,.531,1.488a5.072,5.072,0,0,0-.44,1.361A10.24,10.24,0,0,0,.039,5.105C.112,6.6.172,8.087.128,9.578a6.793,6.793,0,0,0,.124,2.032,3.688,3.688,0,0,0,2.283,2.347,5.871,5.871,0,0,0,3.337.147,1.3,1.3,0,0,0,.469-.174,1.28,1.28,0,0,0,.3-.324,6.525,6.525,0,0,0,.623-1.063,13.008,13.008,0,0,0,.809-2.773A30.048,30.048,0,0,0,8.953,3.52,3.96,3.96,0,0,0,8.587,1.61,2.945,2.945,0,0,0,6.96.309,6.515,6.515,0,0,0,4.862,0,16.7,16.7,0,0,0,2.038.2" transform="translate(18.341 18.031)" fill="#00629b"/><path d="M7.937,7.621s-5.006-.668-5.3-1.077-.99,5.761-.99,5.761S.08,12.6.02,11.431-.016,1.277.877.185s.191,2.98,4.267,3.447S8.111,6.368,8.111,6.368Z" transform="translate(18.795 18.74)" fill="url(#v)"/><path d="M6.327,6.547c2.231.486,9.015.075,9.837-1.038a2.933,2.933,0,0,0,.4-1.332,2.061,2.061,0,0,0-.135-1.129c-.22-.378-.623-.361-.971-.32a44.733,44.733,0,0,1-6.413.232,8.13,8.13,0,0,1-4.209-.919C4.121,1.6,3.478.969,2.774.5S1.149-.3.45.394A1.853,1.853,0,0,0,.242,2.546c.82,1.743,2.7,2.793,4.047,3.441A6.382,6.382,0,0,0,6.327,6.547Z" transform="translate(19.222 18.523)" fill="#00629b"/><path d="M.149,4.336c1.762.623,3.761.019,5.541-.552A2.306,2.306,0,0,0,6.626,3.3c.251-.247.39-.585.623-.849C7.755,1.881,8.6,1.763,9.207,1.3a.475.475,0,0,0,.164-.187.435.435,0,0,0,0-.291A1.245,1.245,0,0,0,8.384.026a2.993,2.993,0,0,0-1.316.12A10.4,10.4,0,0,0,4.092,1.464a9.285,9.285,0,0,1-2.47,1.411c-.55.151-1.216.208-1.511.691C.1,3.566-.159,4.23.149,4.336Z" transform="translate(34.295 19.115)" fill="url(#w)"/><path d="M14.341,17.979a2.773,2.773,0,0,1-.438,1.546,2.851,2.851,0,0,1-1.413.795,25.163,25.163,0,0,1-5.757,1.413A9.229,9.229,0,0,1,2.5,21.162a6.79,6.79,0,0,1-1.424-.768,2.322,2.322,0,0,1-.751-.778,2.92,2.92,0,0,1-.257-1.191C-.3,12.323.834,5.879,4.448,1.009,4.7.662,4.968.33,5.251,0c2,.338,4.117.3,6.145.479A37.892,37.892,0,0,1,14.341,17.979Z" transform="translate(14.099 30.844)" fill="#00629b"/><path d="M4.747,1.375A3.8,3.8,0,0,1,.407,5.131a.272.272,0,0,1-.274-.224,3.642,3.642,0,0,1,.892-3.333A4.136,4.136,0,0,1,2.449.371,4.566,4.566,0,0,1,3.871.018c.291-.031.805-.058.959.259C4.956.539,4.747,1.08,4.747,1.375Z" transform="translate(20.215 9.076)" fill="#606161"/><path d="M11.492,6.145c-.042.241-.28.438-.645.587a12.343,12.343,0,0,1-4.622.488C4.5,7.1,1.941,7.857,1.037,7.8a3.031,3.031,0,0,1-.313-.033c-.662-.1-.87-.388-.623-.951.288-.645,5.153-3.9,5.649-4.8A8.4,8.4,0,0,1,8.163,0S11.667,5.153,11.492,6.145Z" transform="translate(26.243 9.275)" fill="#fff"/><path d="M10.14,1.523a12.343,12.343,0,0,1-4.622.488C3.8,1.895,1.234,2.648.33,2.59a3.039,3.039,0,0,1-.313-.033c-.075-.158.125-.33.3-.415A14.527,14.527,0,0,1,5.2.917c.282-.017.637-.108.662-.38,0-.191-.141-.43.017-.538.025,0,.6.463.679.5a1.1,1.1,0,0,0,.571.141,7.08,7.08,0,0,1,1.463.446c.479.133,1.017,0,1.473.208a.207.207,0,0,1,.106.081A.189.189,0,0,1,10.14,1.523Z" transform="translate(26.959 14.475)" fill="url(#x)"/><path d="M4.151,6.788a2.527,2.527,0,0,1-.818.141A3.508,3.508,0,0,1,.258,4.439,3.756,3.756,0,0,1,.43,1.326,2.467,2.467,0,0,1,1.779.137c1.5-.529,3.242.521,3.9,2.356S5.658,6.251,4.151,6.788Z" transform="translate(32.905 9.036)" fill="#00629b"/><path d="M3.333,5.6A3.508,3.508,0,0,1,.258,3.113,3.756,3.756,0,0,1,.43,0,3.635,3.635,0,0,1,3.458,2.532,3.893,3.893,0,0,1,3.333,5.6Z" transform="translate(32.905 10.362)" fill="url(#y)"/><path d="M1.7,0A1.707,1.707,0,0,0,1.22.074,1.986,1.986,0,0,0,.149,1.128a1.2,1.2,0,0,0-.139.4.471.471,0,0,0,.45.569,1.263,1.263,0,0,0,.394-.042,2.428,2.428,0,0,0,1.09-.519A1.339,1.339,0,0,0,2.416.456.6.6,0,0,0,2.337.19C2.206-.022,1.915,0,1.7,0Z" transform="translate(27.315 13.492)" fill="url(#z)"/><path d="M2.841.026A1.068,1.068,0,0,0,2.31.042c-.326.122-.469.5-.575.83l-1.66,5.3A.83.83,0,0,0,.048,6.8a.805.805,0,0,0,.342.295A10.866,10.866,0,0,0,5.315,8.448,1.073,1.073,0,0,0,6.16,8.2a.915.915,0,0,0,.176-.571,2.951,2.951,0,0,0-.315-1.453c-.247-.49-.623-.9-.9-1.38a3.684,3.684,0,0,1-.187-3.163C5.17,1.047,5.172.9,4.568.588A5.634,5.634,0,0,0,2.841.026Z" transform="translate(9.189 71.681)" fill="#00629b"/><path d="M1.547,0a1.025,1.025,0,0,0-.517.12,1.179,1.179,0,0,0-.4.926l-.6,5.527a.83.83,0,0,0,.1.623.789.789,0,0,0,.392.222,10.9,10.9,0,0,0,5.095.369,1.049,1.049,0,0,0,.782-.4.921.921,0,0,0,.062-.594,2.978,2.978,0,0,0-.594-1.368C5.517,5,5.064,4.665,4.705,4.25a3.69,3.69,0,0,1-.8-3.065C4.018.562,4,.417,3.34.226A5.624,5.624,0,0,0,1.547,0Z" transform="translate(21.495 72.778)" fill="#00629b"/><path d="M2.841.026A1.068,1.068,0,0,0,2.31.042c-.326.122-.469.5-.575.83l-1.66,5.3A.83.83,0,0,0,.048,6.8a.805.805,0,0,0,.342.295A10.866,10.866,0,0,0,5.315,8.448,1.073,1.073,0,0,0,6.16,8.2a.915.915,0,0,0,.176-.571,2.951,2.951,0,0,0-.315-1.453c-.247-.49-.623-.9-.9-1.38a3.684,3.684,0,0,1-.187-3.163C5.17,1.047,5.172.9,4.568.588A5.634,5.634,0,0,0,2.841.026Z" transform="translate(9.189 71.681)" fill="url(#aa)"/><path d="M1.547,0a1.025,1.025,0,0,0-.517.12,1.179,1.179,0,0,0-.4.926l-.6,5.527a.83.83,0,0,0,.1.623.789.789,0,0,0,.392.222,10.9,10.9,0,0,0,5.095.369,1.049,1.049,0,0,0,.782-.4.921.921,0,0,0,.062-.594,2.978,2.978,0,0,0-.594-1.368C5.517,5,5.064,4.665,4.705,4.25a3.69,3.69,0,0,1-.8-3.065C4.018.562,4,.417,3.34.226A5.624,5.624,0,0,0,1.547,0Z" transform="translate(21.495 72.778)" fill="url(#ab)"/><path d="M4.985,3.2A21.53,21.53,0,0,0,3.422,9.541c-.355,3.416-.166,6.849-.313,10.279a.647.647,0,0,1-.124.415.515.515,0,0,1-.347.139.729.729,0,0,1-.141.017,6.788,6.788,0,0,1-1.424-.768,2.322,2.322,0,0,1-.751-.778,2.92,2.92,0,0,1-.257-1.191C-.3,11.552.834,5.108,4.448.237,5.193-.01,6.06-.217,6.3.445,6.49,1,5.218,2.653,4.985,3.2Z" transform="translate(14.101 31.624)" fill="url(#ac)"/><path d="M0,5.971,3.924,0,5.861,1.837l-4.4,5.109Z" transform="translate(39.383 0)" fill="url(#ad)"/><path d="M0,3.271,6.479,0,7.5,2.571.965,4.854Z" transform="translate(40.832 4.08)" fill="url(#ae)"/><path d="M.033,0,7.257.7,6.747,3.422,0,1.853Z" transform="translate(42.062 9.2)" fill="url(#af)"/></g></g><g transform="translate(16 -4360)"><g transform="matrix(1, 0, 0, 1, -16, 4360)" filter="url(#ah)"><rect width="264" height="48" rx="24" transform="translate(56 288)" fill="url(#ag)"/></g><g transform="translate(3)"><text transform="translate(83 4677)" fill="#fff" font-size="16" font-family="HeroNew-Bold, Hero New" font-weight="700"><tspan x="0" y="0">Log in to Tasplan Online</tspan></text><g transform="translate(50.808 4659)"><path d="M32.036,13.3c2.142,0,3.884-2.273,3.884-4.415a3.884,3.884,0,1,0-7.768,0C28.152,11.026,29.895,13.3,32.036,13.3Z" transform="translate(-15.589)" fill="#fff"/><path d="M19.363,51.908a4.461,4.461,0,0,1-2.712.916h-.409a4.461,4.461,0,0,1-2.712-.916,5.17,5.17,0,0,0-4.339,5.1c0,1.413,3.248,2.559,7.255,2.559S23.7,58.423,23.7,57.01A5.17,5.17,0,0,0,19.363,51.908Z" transform="translate(0 -38.569)" fill="#fff"/></g></g></g><g transform="translate(16 -4352)"><g transform="matrix(1, 0, 0, 1, -16, 4352)" filter="url(#ak)"><rect width="264" height="48" rx="24" transform="translate(56 360)" fill="url(#aj)"/></g><g transform="translate(24)"><text transform="translate(83 4741)" fill="#fff" font-size="16" font-family="HeroNew-Bold, Hero New" font-weight="700"><tspan x="0" y="0">Contact us for help</tspan></text><path d="M6.5,16.2a5.788,5.788,0,0,1-.164,2.536.516.516,0,0,0,.723.608,7.763,7.763,0,0,0,3.4-3.077H11.53a6.436,6.436,0,0,0,6.441-6.434h0A6.436,6.436,0,0,0,11.537,3.4h-4.1A6.436,6.436,0,0,0,1,9.836H1A6.436,6.436,0,0,0,6.5,16.2Zm5.577-7.3a.936.936,0,1,1-.936.936A.936.936,0,0,1,12.077,8.9Zm-2.592,0a.936.936,0,1,1-.936.936A.936.936,0,0,1,9.485,8.9Zm-2.592,0a.936.936,0,1,1-.936.936A.936.936,0,0,1,6.893,8.9Z" transform="translate(59 4724.6)" fill="#fff"/></g></g><g transform="translate(0 -335.999)"><path d="M-1022.171-522H-1056l8-7.568V-674a16,16,0,0,1,16-16h256a16,16,0,0,1,16,16v136a16,16,0,0,1-16,16Z" transform="translate(1104 1121.999)" fill="url(#am)"/><g transform="translate(-8 26.999)"><g transform="matrix(1, 0, 0, 1, 8, 309)" filter="url(#an)"><circle cx="16" cy="16" r="16" transform="translate(32 112)" fill="#9bcbeb"/></g><g transform="translate(40 421)" clip-path="url(#ap)"><g transform="translate(1.337 4.284)"><path d="M187.825,265.873a1.527,1.527,0,0,1,.06,1.218,1.554,1.554,0,0,1-.529.5l-1.916,1.3a2.575,2.575,0,0,1-1.2.54.887.887,0,0,1-.98-.694c-.044-.51.49-.858.74-1.305a2.67,2.67,0,0,0-.024-1.962,35.924,35.924,0,0,1-.941-4.979c.393-.161,1.537-.882,1.944-.762.458.139.872,1.42,1.076,1.838A33.288,33.288,0,0,1,187.825,265.873Z" transform="translate(-163.941 -233.218)" fill="#f1af8c"/><path d="M199.424,206.471a20.24,20.24,0,0,0,1.822,4.1.2.2,0,0,1,.043.129.2.2,0,0,1-.078.108,5.6,5.6,0,0,1-2.72,1.584.333.333,0,0,1-.205-.018.339.339,0,0,1-.128-.176,12.056,12.056,0,0,1-.887-4.947,20.363,20.363,0,0,1,.2-2.516c.028-.2.043-1.1.219-1.208.268-.158.562.394.679.568A10.289,10.289,0,0,1,199.424,206.471Z" transform="translate(-179.215 -184.806)" fill="#fff"/><path d="M205.78,205.54s.626.235,1.136,2,1.726,6.037,1.726,6.037-1.881.94-2.352.587S205.78,205.54,205.78,205.54Z" transform="translate(-187.749 -186.566)" fill="url(#aq)"/><path d="M213.956,192.407a10.077,10.077,0,0,0-3.048.3,5.05,5.05,0,0,0-2.57,1.6,5.54,5.54,0,0,0-1.1,3.163,20.789,20.789,0,0,0,.192,3.4,53.867,53.867,0,0,1,.211,7.962c-.031.636-.394,3.956.053,4.41.278.286-.278.572.118.666a24.005,24.005,0,0,0,12.11-.9,3.667,3.667,0,0,0,1.944-1.542c.417-.815-.708-4.046-.843-4.952q-.612-4.15-.883-8.344a27.268,27.268,0,0,0-.242-3.785c-.185-.882-.752-1.122-1.572-1.338A19.777,19.777,0,0,0,213.956,192.407Z" transform="translate(-201.262 -175.249)" fill="#fff"/><path d="M228.14,231.913a3.163,3.163,0,0,0,.632,1.574,2.716,2.716,0,0,0,1.086.664c1.93.728,4.13.614,5.98,1.527a1.29,1.29,0,0,1,.355.232,1.125,1.125,0,0,1-.026,1.388,4.165,4.165,0,0,1-2.956,1.349,25.5,25.5,0,0,1-7.993.33.733.733,0,0,1-.4-.151.719.719,0,0,1-.168-.375c-.6-2.663-.128-5.436-.117-8.165,0-1.574-.139-3.15-.032-4.721a9.579,9.579,0,0,1,.6-2.856c.246-.622.965-2,1.4-.721a30.831,30.831,0,0,1,1.13,6.321C227.769,229.515,227.913,230.72,228.14,231.913Z" transform="translate(-218.107 -200.28)" fill="url(#ar)"/><path d="M245.981,170.381c.46-.074.718-.536.512-1.649-.022-.124-.051-.243-.085-.362a.3.3,0,0,0-.018-.067c-.05-.172-.107-.344-.162-.515a3.758,3.758,0,0,1-.242-1.281,2.3,2.3,0,0,0-.08-.945,1.547,1.547,0,0,0-.515-.623c-.5-.382-1.944-1.1-2.221-.151a4.333,4.333,0,0,0-.028,1.293,3.888,3.888,0,0,1-.319,1.734C242.52,168.421,244.852,170.562,245.981,170.381Z" transform="translate(-230.811 -151.065)" fill="#f1af8c"/><path d="M247.7,176.149s-2.56-.972-3.054-2.509l2.728.893S247.443,175.939,247.7,176.149Z" transform="translate(-232.209 -159.095)" fill="url(#as)"/><path d="M299.865,206.337a17.2,17.2,0,0,1-1.4,8.5.632.632,0,0,1-.171.257.694.694,0,0,1-.417.1,5.11,5.11,0,0,1-3.174-1.019,1.216,1.216,0,0,1-.562-.8,1.308,1.308,0,0,1,.1-.51,56.424,56.424,0,0,1,2.478-6.041,3.438,3.438,0,0,1,1.666-1.9C299.406,204.534,299.794,205.576,299.865,206.337Z" transform="translate(-291.31 -185.959)" fill="#fff"/><path d="M250.925,192.638a13.993,13.993,0,0,1-1.866-2.725,4.5,4.5,0,0,1-.725-1.865.372.372,0,0,1,.035-.224.4.4,0,0,1,.128-.118l1.043-.707a2.1,2.1,0,0,0,1,1.558c.555.394,2.145.826,1.8,1.644A17.094,17.094,0,0,1,250.925,192.638Z" transform="translate(-237.409 -170.6)" fill="#00629b"/><path d="M233.893,191.862a18.308,18.308,0,0,0,1.043,1.792,1.354,1.354,0,0,0,.555.555.153.153,0,0,0,.1.014c.061-.021.075-.1.079-.165a10.931,10.931,0,0,0-.16-3.193,2.945,2.945,0,0,0-.45-1.029,2.85,2.85,0,0,0-.927-.576c.056.171.112.343.162.515a.168.168,0,0,1,.017.051v.015c.033.119.062.239.085.362C234.607,191.326,234.349,191.788,233.893,191.862Z" transform="translate(-218.724 -172.546)" fill="#00629b"/><path d="M250.925,192.638a13.993,13.993,0,0,1-1.866-2.725,4.5,4.5,0,0,1-.725-1.865.372.372,0,0,1,.035-.224.4.4,0,0,1,.128-.118l1.043-.707a2.1,2.1,0,0,0,1,1.558c.555.394,2.145.826,1.8,1.644A17.094,17.094,0,0,1,250.925,192.638Z" transform="translate(-237.409 -170.6)" fill="url(#at)"/><path d="M233.893,191.862a18.308,18.308,0,0,0,1.043,1.792,1.354,1.354,0,0,0,.555.555.153.153,0,0,0,.1.014c.061-.021.075-.1.079-.165a10.931,10.931,0,0,0-.16-3.193,2.945,2.945,0,0,0-.45-1.029,2.85,2.85,0,0,0-.927-.576c.056.171.112.343.162.515a.168.168,0,0,1,.017.051v.015c.033.119.062.239.085.362C234.607,191.326,234.349,191.788,233.893,191.862Z" transform="translate(-218.724 -172.546)" fill="url(#au)"/><path d="M252.273,278.994l-6.081-1.162a2.19,2.19,0,0,1-1.019-.375,1.524,1.524,0,0,1-.471-1.362,4.474,4.474,0,0,1,.5-1.413,46.129,46.129,0,0,1,2.627-4.811,7.683,7.683,0,0,1,2.857.821,1.045,1.045,0,0,1,.386.36c.365.694-.633,1.708-.972,2.235a1.308,1.308,0,0,0-.253.576.95.95,0,0,0,.081.432c.329.808,1.5,1.279,2.221,1.694a7.48,7.48,0,0,0,3.093,1.039,18.274,18.274,0,0,1,2.548.153,3.65,3.65,0,0,1,2.392,1.866,2.21,2.21,0,0,1-1.706-.011,9.986,9.986,0,0,0-3.228-.26C254.543,278.835,252.606,279.648,252.273,278.994Z" transform="translate(-244.69 -241.958)" fill="#f1af8c"/><path d="M236.222,70.622a4.243,4.243,0,0,0-1.3-.584,1.608,1.608,0,0,0-1.429.319,2.974,2.974,0,0,1,2.123,1.12.207.207,0,0,0,.107.092.2.2,0,0,0,.112-.021c.192-.072,1.627.255,1.71.082C237.539,71.63,236.4,70.729,236.222,70.622Z" transform="translate(-220.498 -69.843)" fill="#00629b"/><path d="M236.222,70.622a4.243,4.243,0,0,0-1.3-.584,1.608,1.608,0,0,0-1.429.319,2.974,2.974,0,0,1,2.123,1.12.207.207,0,0,0,.107.092.2.2,0,0,0,.112-.021c.192-.072,1.627.255,1.71.082C237.539,71.63,236.4,70.729,236.222,70.622Z" transform="translate(-220.498 -69.843)" fill="url(#av)"/><ellipse cx="1.686" cy="2.077" rx="1.686" ry="2.077" transform="translate(17.142 7.213)" fill="#00629b"/><ellipse cx="1.559" cy="1.922" rx="1.559" ry="1.922" transform="translate(16.923 7.602)" fill="#00629b"/><ellipse cx="1.559" cy="1.922" rx="1.559" ry="1.922" transform="translate(16.923 7.602)" fill="url(#aw)"/><path d="M227.637,96.19l-.39,7.138a2.873,2.873,0,0,1-2.843,2.72,4.345,4.345,0,0,1-4.671-3.252c-.487-1.419-.927-5.587,0-6.739S225.879,92.068,227.637,96.19Z" transform="translate(-208.606 -90.537)" fill="#f1af8c"/><path d="M216.858,78.716a3.56,3.56,0,0,1,3.268,1.752,2.055,2.055,0,0,1,.039,1.767.742.742,0,0,0-.108.561,1.47,1.47,0,0,1-.6,1.25,3.441,3.441,0,0,0-.665.467l.068-1.329a.278.278,0,0,0-.211-.33l-.846-.394s-.261.19-.293.205a1.063,1.063,0,0,1-.444.085,6.246,6.246,0,0,1-.991-.056,9.365,9.365,0,0,1-2.051-.619.933.933,0,0,0,.253.547l-2.156.417a5.859,5.859,0,0,0-.757,1.413,4.926,4.926,0,0,0-.292,1.223,4.42,4.42,0,0,0,.157,1.692,1.775,1.775,0,0,1-.38-.4,2.184,2.184,0,0,1-.639.3.278.278,0,0,1-.149.013c-.106-.029-.128-.154-.139-.254a11.378,11.378,0,0,0-1.058-2.507,3.771,3.771,0,0,1,.383-3.16,2.547,2.547,0,0,1,.671-.783c.993-.728,2.4-.394,3.536-.775.539-.18.972-.523,1.487-.75A5.343,5.343,0,0,1,216.858,78.716Z" transform="translate(-199.856 -77.349)" fill="#3f3d56"/><path d="M216.858,78.716a3.56,3.56,0,0,1,3.268,1.752,2.055,2.055,0,0,1,.039,1.767.742.742,0,0,0-.108.561,1.47,1.47,0,0,1-.6,1.25,3.441,3.441,0,0,0-.665.467l.068-1.329a.278.278,0,0,0-.211-.33l-.846-.394s-.261.19-.293.205a1.063,1.063,0,0,1-.444.085,6.246,6.246,0,0,1-.991-.056,9.365,9.365,0,0,1-2.051-.619.933.933,0,0,0,.253.547l-2.156.417a5.859,5.859,0,0,0-.757,1.413,4.926,4.926,0,0,0-.292,1.223,4.42,4.42,0,0,0,.157,1.692,1.775,1.775,0,0,1-.38-.4,2.184,2.184,0,0,1-.639.3.278.278,0,0,1-.149.013c-.106-.029-.128-.154-.139-.254a11.378,11.378,0,0,0-1.058-2.507,3.771,3.771,0,0,1,.383-3.16,2.547,2.547,0,0,1,.671-.783c.993-.728,2.4-.394,3.536-.775.539-.18.972-.523,1.487-.75A5.343,5.343,0,0,1,216.858,78.716Z" transform="translate(-199.856 -77.349)" fill="url(#ax)"/><ellipse cx="1.667" cy="2.056" rx="1.667" ry="2.056" transform="translate(7.876 7.49)" fill="#00629b"/><ellipse cx="1.667" cy="2.056" rx="1.667" ry="2.056" transform="translate(7.876 7.49)" fill="url(#ay)"/><ellipse cx="1.667" cy="2.056" rx="1.667" ry="2.056" transform="translate(7.238 7.49)" fill="#00629b"/><path d="M249.75,76.529l.833.089.2.021.833-4.1a4.766,4.766,0,0,1,2.821-3.352,1.5,1.5,0,0,1,.641-.076l.568.051-.278-.074-.555-.147a1.829,1.829,0,0,0-.533-.065,3.929,3.929,0,0,0-3.4,2.963Z" transform="translate(-240.857 -68.876)" fill="#00629b"/><path d="M249.75,76.529l.833.089.2.021.833-4.1a4.766,4.766,0,0,1,2.821-3.352,1.5,1.5,0,0,1,.641-.076l.568.051-.278-.074-.555-.147a1.829,1.829,0,0,0-.533-.065,3.929,3.929,0,0,0-3.4,2.963Z" transform="translate(-240.857 -68.876)" fill="url(#az)"/><path d="M251.75,76.529l.833.089.833-4.11a4.816,4.816,0,0,1,2.85-3.382,1.465,1.465,0,0,1,.648-.078l.453.04-.555-.147a1.828,1.828,0,0,0-.533-.065,3.929,3.929,0,0,0-3.4,2.963Z" transform="translate(-242.857 -68.876)" fill="#00629b"/><path d="M214.792,101.417a1.766,1.766,0,0,0-1.316-.862,5.241,5.241,0,0,0-1.624.075c.521.417,1.974,1.037,2,1.148a3.384,3.384,0,0,1,.007.591c-.019.286-.029.586-.028.872a2.222,2.222,0,0,1,.447-.339,1.111,1.111,0,0,0,.375-.24A1.154,1.154,0,0,0,214.792,101.417Z" transform="translate(-194.864 -96.124)" fill="url(#ba)"/><path d="M251.868,152.128a6.47,6.47,0,0,0,1.847-.308.278.278,0,0,0-.16-.533c-1.43.43-2.506.373-3.193-.169a2.823,2.823,0,0,1-.875-2.148.278.278,0,1,0-.555-.028,3.368,3.368,0,0,0,1.087,2.614A2.9,2.9,0,0,0,251.868,152.128Z" transform="translate(-239.011 -137.598)" fill="#00629b"/><path d="M251.868,152.128a6.47,6.47,0,0,0,1.847-.308.278.278,0,0,0-.16-.533c-1.43.43-2.506.373-3.193-.169a2.823,2.823,0,0,1-.875-2.148.278.278,0,1,0-.555-.028,3.368,3.368,0,0,0,1.087,2.614A2.9,2.9,0,0,0,251.868,152.128Z" transform="translate(-239.011 -137.598)" fill="url(#bb)"/><path d="M238.374,160.465a.736.736,0,0,0-.351.38.659.659,0,0,0,.311.616,1.162,1.162,0,0,0,.576.278,1.337,1.337,0,0,0,.875-.311,1.158,1.158,0,0,0,.364-.351.878.878,0,0,0-.48-1.152C239.214,159.729,238.731,160.23,238.374,160.465Z" transform="translate(-223.816 -147.245)" fill="#00629b"/><path d="M238.374,160.465a.736.736,0,0,0-.351.38.659.659,0,0,0,.311.616,1.162,1.162,0,0,0,.576.278,1.337,1.337,0,0,0,.875-.311,1.158,1.158,0,0,0,.364-.351.878.878,0,0,0-.48-1.152C239.214,159.729,238.731,160.23,238.374,160.465Z" transform="translate(-223.816 -147.245)" fill="url(#bc)"/></g></g></g></g><text transform="translate(80 112.001)" font-size="15" font-family="HeroNew-Regular, Hero New"><tspan x="0" y="16">Your </tspan><tspan y="16" font-family="HeroNew-SemiBold, Hero New" font-weight="600">Tasplan Super member </tspan><tspan x="0" y="41" font-family="HeroNew-SemiBold, Hero New" font-weight="600">statement 2019</tspan><tspan y="41" xml:space="preserve"> is now available </tspan><tspan x="0" y="66">on </tspan><tspan y="66" fill="#00629b" font-family="HeroNew-SemiBold, Hero New" font-weight="600">Tasplan Online</tspan><tspan y="66">.</tspan><tspan x="0" y="101">Lorem ipsum dolor sit amet, </tspan><tspan x="0" y="126">consectetur adipiscing elit.</tspan></text></g></svg>