<svg xmlns="http://www.w3.org/2000/svg" xmlns:xlink="http://www.w3.org/1999/xlink" width="375" height="628" viewBox="0 0 375 628"><defs><linearGradient id="a" x1="1.22" y1="1.736" x2="-0.532" y2="-1.187" gradientUnits="objectBoundingBox"><stop offset="0" stop-color="#010101" stop-opacity="0"/><stop offset="0.95" stop-color="#010101"/></linearGradient><linearGradient id="b" x1="0.5" y1="3.211" x2="0.487" y2="-0.362" gradientUnits="objectBoundingBox"><stop offset="0" stop-color="#fff" stop-opacity="0"/><stop offset="0.13" stop-color="#fff" stop-opacity="0.231"/><stop offset="0.23" stop-color="#fff" stop-opacity="0.412"/><stop offset="0.35" stop-color="#fff" stop-opacity="0.588"/><stop offset="0.48" stop-color="#fff" stop-opacity="0.741"/><stop offset="0.6" stop-color="#fff" stop-opacity="0.851"/><stop offset="0.72" stop-color="#fff" stop-opacity="0.929"/><stop offset="0.84" stop-color="#fff" stop-opacity="0.98"/><stop offset="0.95" stop-color="#fff"/><stop offset="1" stop-color="#fff"/></linearGradient><linearGradient id="c" x1="0.493" y1="-0.188" x2="0.571" y2="9.339" xlink:href="#a"/><linearGradient id="d" x1="0.502" y1="0.004" x2="0.482" y2="4.378" xlink:href="#a"/><clipPath id="e"><path d="M152.11,131.31V35.427H256.241V126.69a4.8,4.8,0,0,1-3.522,4.62Z" transform="translate(-152.11 -35.427)" fill="#fff" stroke="#707070" stroke-width="1"/></clipPath><filter id="f" x="159.272" y="538.841" width="79.113" height="98.025" filterUnits="userSpaceOnUse"><feOffset input="SourceAlpha"/><feGaussianBlur stdDeviation="5" result="g"/><feFlood flood-opacity="0.078"/><feComposite operator="in" in2="g"/><feComposite in="SourceGraphic"/></filter><linearGradient id="h" x1="6.172" y1="66.845" x2="6.177" y2="70.481" gradientUnits="objectBoundingBox"><stop offset="0" stop-color="#fff"/><stop offset="1" stop-color="#cbcbcb"/></linearGradient><linearGradient id="i" x1="-31.853" y1="-57.115" x2="-31.691" y2="-59.541" xlink:href="#h"/><linearGradient id="j" x1="1.193" y1="1.366" x2="-1.881" y2="-1.507" gradientUnits="objectBoundingBox"><stop offset="0" stop-color="#010101" stop-opacity="0"/><stop offset="0.95" stop-color="#010101"/><stop offset="1" stop-color="#010101"/></linearGradient><linearGradient id="k" x1="-2.01" y1="0.014" x2="6.971" y2="1.753" gradientUnits="objectBoundingBox"><stop offset="0.01"/><stop offset="0.08" stop-opacity="0.69"/><stop offset="0.21" stop-opacity="0.322"/><stop offset="1" stop-opacity="0"/></linearGradient><linearGradient id="l" x1="0.5" y1="0.55" x2="0.549" y2="3.974" gradientUnits="objectBoundingBox"><stop offset="0" stop-opacity="0"/><stop offset="0.95"/></linearGradient><linearGradient id="m" x1="0.515" y1="0.374" x2="-1.524" y2="1.983" xlink:href="#l"/><linearGradient id="n" x1="0.654" y1="0.376" x2="-1.527" y2="1.753" xlink:href="#l"/><filter id="o" x="288.989" y="563.264" width="29.453" height="32.807" filterUnits="userSpaceOnUse"><feOffset dy="3" input="SourceAlpha"/><feGaussianBlur stdDeviation="3" result="p"/><feFlood flood-opacity="0.161"/><feComposite operator="in" in2="p"/><feComposite in="SourceGraphic"/></filter><linearGradient id="q" y1="0.5" x2="1" y2="0.5" gradientUnits="objectBoundingBox"><stop offset="0" stop-color="#e5c6d6"/><stop offset="0.42" stop-color="#ead4d0"/><stop offset="1" stop-color="#f0e9cb"/></linearGradient><linearGradient id="r" x1="0.002" y1="0.5" x2="1" y2="0.5" xlink:href="#q"/><linearGradient id="s" x1="0.595" y1="0.272" x2="-0.187" y2="2.312" xlink:href="#a"/><linearGradient id="t" x1="0" y1="0.5" x2="0.999" y2="0.5" xlink:href="#q"/><linearGradient id="u" x1="-0.003" y1="0.499" x2="0.996" y2="0.499" xlink:href="#q"/><linearGradient id="v" x1="0.547" y1="0.753" x2="-2.21" y2="-3.148" xlink:href="#a"/><linearGradient id="w" x1="0" y1="0.499" x2="0.999" y2="0.499" xlink:href="#q"/><linearGradient id="x" x1="0.459" y1="0.046" x2="0.664" y2="3.625" xlink:href="#a"/><linearGradient id="y" x1="-0.069" y1="0.929" x2="2.086" y2="-0.679" xlink:href="#a"/><linearGradient id="z" x1="0.002" y1="0.5" x2="1.001" y2="0.5" xlink:href="#q"/><linearGradient id="aa" x1="1.067" y1="0.061" x2="-0.513" y2="1.715" xlink:href="#a"/><linearGradient id="ab" x1="0.765" y1="-0.396" x2="0.045" y2="2.616" xlink:href="#a"/><linearGradient id="ac" x1="1.653" y1="0.479" x2="-16.64" y2="0.856" xlink:href="#a"/><linearGradient id="ad" y1="0.5" x2="1" y2="0.5" gradientUnits="objectBoundingBox"><stop offset="0" stop-color="#fff" stop-opacity="0"/><stop offset="0.95" stop-color="#fff"/></linearGradient><linearGradient id="ae" x1="-6.665" y1="2.576" x2="-5.82" y2="2.576" xlink:href="#ad"/><linearGradient id="af" x1="-13.257" y1="13.837" x2="-12.384" y2="13.837" xlink:href="#ad"/><linearGradient id="ag" x1="0.403" y1="-0.176" x2="0.542" y2="1.309" gradientUnits="objectBoundingBox"><stop offset="0" stop-color="#00629b"/><stop offset="1" stop-color="#003865"/></linearGradient><filter id="ah" x="26" y="206" width="324" height="108" filterUnits="userSpaceOnUse"><feOffset dy="4" input="SourceAlpha"/><feGaussianBlur stdDeviation="10" result="ai"/><feFlood flood-opacity="0.122"/><feComposite operator="in" in2="ai"/><feComposite in="SourceGraphic"/></filter><linearGradient id="aj" x1="0.44" y1="-0.248" x2="0.566" y2="1.259" gradientUnits="objectBoundingBox"><stop offset="0" stop-color="#007d8a"/><stop offset="1" stop-color="#00629b"/></linearGradient><filter id="ak" x="26" y="278" width="324" height="108" filterUnits="userSpaceOnUse"><feOffset dy="4" input="SourceAlpha"/><feGaussianBlur stdDeviation="10" result="al"/><feFlood flood-opacity="0.122"/><feComposite operator="in" in2="al"/><feComposite in="SourceGraphic"/></filter><clipPath id="an"><rect width="375" height="628"/></clipPath></defs><g id="am" clip-path="url(#an)"><rect width="375" height="628" fill="#fff"/><path d="M1.46,0h3.8V-5.06H10.6V-8.28H5.26V-11.5h5.72v-3.42H1.46ZM22.18.36a7.594,7.594,0,0,0,7.8-7.82,7.583,7.583,0,0,0-7.8-7.82,7.611,7.611,0,0,0-7.82,7.82A7.611,7.611,0,0,0,22.18.36Zm0-3.46a4.056,4.056,0,0,1-4-4.36,4.074,4.074,0,0,1,4-4.38,4.082,4.082,0,0,1,3.98,4.38A4.064,4.064,0,0,1,22.18-3.1Zm19.6-2.28A4.66,4.66,0,0,0,45.22-9.9c0-3.32-2.42-5.02-6.08-5.02H34.12V0h3.8V-4.94h.12L41.46,0h4.5ZM37.92-7.82V-11.5h1.16c1.38,0,2.32.64,2.32,1.84,0,1.18-.9,1.84-2.34,1.84ZM60.34-9.74h.08L63.28,0h3.2L69.4-9.76h.08L70.52,0h3.62l-2.1-14.92H67.72L65-5.76h-.02l-2.8-9.16H57.74L55.66,0h3.58ZM85.16.36a7.594,7.594,0,0,0,7.8-7.82,7.583,7.583,0,0,0-7.8-7.82,7.611,7.611,0,0,0-7.82,7.82A7.611,7.611,0,0,0,85.16.36Zm0-3.46a4.056,4.056,0,0,1-4-4.36,4.074,4.074,0,0,1,4-4.38,4.082,4.082,0,0,1,3.98,4.38A4.064,4.064,0,0,1,85.16-3.1Zm19.6-2.28A4.66,4.66,0,0,0,108.2-9.9c0-3.32-2.42-5.02-6.08-5.02H97.1V0h3.8V-4.94h.12L104.44,0h4.5ZM100.9-7.82V-11.5h1.16c1.38,0,2.32.64,2.32,1.84,0,1.18-.9,1.84-2.34,1.84ZM112.66,0h9.84V-3.38h-6.04v-2.6h5.46V-9.06h-5.46v-2.48h6.04v-3.38h-9.84Zm25.86-14.92H133.8V0h4.72c4.84,0,8.2-2.96,8.2-7.46C146.72-11.94,143.38-14.92,138.52-14.92Zm-.92,3.42h1.06c2.54,0,4.22,1.46,4.22,4.04,0,2.56-1.68,4.02-4.22,4.02H137.6ZM150.88,0h9.84V-3.38h-6.04v-2.6h5.46V-9.06h-5.46v-2.48h6.04v-3.38h-9.84ZM168.4,0h3.78V-11.5h4.24v-3.42H164.14v3.42h4.26Zm24.22,0-5.56-14.92h-4.4L177.18,0h3.94l1.12-3.3h5.26L188.66,0Zm-7.76-11.04,1.62,4.66h-3.24ZM196.06,0h3.8V-14.92h-3.8Zm8.72,0h9.82V-3.44h-6.02V-14.92h-3.8Zm15.04.14a2,2,0,0,0,2.02-2,2.014,2.014,0,0,0-2.02-2.02,2,2,0,0,0-2,2.02A1.981,1.981,0,0,0,219.82.14Zm7.66,0a2,2,0,0,0,2.02-2,2.014,2.014,0,0,0-2.02-2.02,2,2,0,0,0-2,2.02A1.981,1.981,0,0,0,227.48.14Zm7.66,0a2,2,0,0,0,2.02-2,2.014,2.014,0,0,0-2.02-2.02,2,2,0,0,0-2,2.02A1.981,1.981,0,0,0,235.14.14Z" transform="translate(32 49)"/><path d="M3.934,15H5.208V10.59L9.016,4.584H7.574L4.592,9.4H4.578L1.568,4.584H.1L3.934,10.6Zm8.442.168a3.757,3.757,0,0,0,3.752-3.948,3.771,3.771,0,1,0-7.532,0A3.763,3.763,0,0,0,12.376,15.168Zm0-1.2A2.536,2.536,0,0,1,9.9,11.22a2.549,2.549,0,0,1,2.478-2.758A2.547,2.547,0,0,1,14.84,11.22,2.542,2.542,0,0,1,12.376,13.964Zm8.61,1.2a2.918,2.918,0,0,0,3.136-3.08V7.426H22.834v4.69a1.707,1.707,0,0,1-1.848,1.848,1.678,1.678,0,0,1-1.792-1.848V7.426H17.906v4.662A2.881,2.881,0,0,0,20.986,15.168ZM26.376,15h1.288V10.688a1.963,1.963,0,0,1,2.03-2.128,3.259,3.259,0,0,1,.532.056V7.384a2.713,2.713,0,0,0-.5-.042,2.453,2.453,0,0,0-2.17,1.288h-.014l-.14-1.2H26.376Zm11,0h1.96V6.362h3.122V4.57H34.244V6.362H37.38Zm8.092.2a2.987,2.987,0,0,0,2.6-1.456l.2,1.26H49.9V7.3H48.272l-.2,1.26a2.976,2.976,0,0,0-2.6-1.442c-1.75,0-3.444,1.6-3.444,4.046A3.75,3.75,0,0,0,45.472,15.2ZM46,13.432a2.1,2.1,0,0,1-2.03-2.282A2.1,2.1,0,0,1,46,8.868a2.077,2.077,0,0,1,1.988,2.282A2.077,2.077,0,0,1,46,13.432Zm8.638-6.314c-1.89,0-3.024,1.008-3.024,2.394s1.134,1.862,2.38,2.212c1.036.308,1.638.49,1.638,1.036,0,.5-.49.826-1.358.826a3.907,3.907,0,0,1-2.632-1.008v1.834a4.687,4.687,0,0,0,2.716.784c1.988,0,3.15-.966,3.15-2.45,0-1.6-1.344-2.016-2.576-2.338-.938-.252-1.442-.448-1.442-.938,0-.462.434-.756,1.218-.756a4.124,4.124,0,0,1,2.324.714V7.734A4.628,4.628,0,0,0,54.642,7.118ZM59.066,17.94H61V13.81A2.972,2.972,0,0,0,63.5,15.2c1.806,0,3.43-1.582,3.43-4.046s-1.666-4.032-3.472-4.032A2.963,2.963,0,0,0,60.886,8.56l-.2-1.26H59.066Zm3.892-4.508A2.086,2.086,0,0,1,60.97,11.15a2.025,2.025,0,1,1,4.018-.014A2.1,2.1,0,0,1,62.958,13.432ZM68.558,15H70.49V3.772H68.558Zm6.972.2a2.987,2.987,0,0,0,2.6-1.456l.2,1.26h1.624V7.3H78.33l-.2,1.26a2.976,2.976,0,0,0-2.6-1.442c-1.75,0-3.444,1.6-3.444,4.046A3.75,3.75,0,0,0,75.53,15.2Zm.532-1.764a2.1,2.1,0,0,1-2.03-2.282,2.1,2.1,0,0,1,2.03-2.282A2.077,2.077,0,0,1,78.05,11.15,2.077,2.077,0,0,1,76.062,13.432Zm9.982-6.314A2.716,2.716,0,0,0,83.72,8.406h-.042L83.468,7.3h-1.5V15H83.9V10.394a1.467,1.467,0,0,1,1.526-1.512c.924,0,1.4.5,1.4,1.568V15H88.76V9.862A2.53,2.53,0,0,0,86.044,7.118Zm11.62-2.772c-2.1,0-3.556,1.2-3.556,3.024,0,1.792,1.442,2.464,2.814,3.038,1.232.532,1.974.91,1.974,1.694,0,.854-.8,1.372-1.862,1.372A4.464,4.464,0,0,1,94.108,12.3v1.974a5.412,5.412,0,0,0,3.094.952c2.17,0,3.71-1.26,3.71-3.192,0-1.9-1.512-2.562-3.024-3.192-1.2-.5-1.834-.84-1.834-1.554,0-.77.742-1.19,1.708-1.19a4.608,4.608,0,0,1,2.548.8V5.046A5.211,5.211,0,0,0,97.664,4.346ZM105.8,15.2a3.154,3.154,0,0,0,3.416-3.276V7.3h-1.932v4.62a1.364,1.364,0,0,1-1.484,1.512,1.335,1.335,0,0,1-1.442-1.5V7.3h-1.932v4.634A3.117,3.117,0,0,0,105.8,15.2Zm5.334,2.744h1.932V13.81A2.972,2.972,0,0,0,115.57,15.2c1.806,0,3.43-1.582,3.43-4.046s-1.666-4.032-3.472-4.032a2.963,2.963,0,0,0-2.576,1.442l-.2-1.26h-1.624Zm3.892-4.508a2.086,2.086,0,0,1-1.988-2.282,2.025,2.025,0,1,1,4.018-.014A2.1,2.1,0,0,1,115.024,13.432ZM127.47,11.01c0-2.548-1.568-3.892-3.486-3.892a3.819,3.819,0,0,0-3.822,4.06A3.838,3.838,0,0,0,124.32,15.2a5,5,0,0,0,2.674-.756V12.788a4.277,4.277,0,0,1-2.45.84,2.414,2.414,0,0,1-2.534-1.918h5.4A5.067,5.067,0,0,0,127.47,11.01ZM122,10.492a2.056,2.056,0,0,1,1.974-1.82,1.659,1.659,0,0,1,1.652,1.82ZM129.038,15h1.932V11.038a1.807,1.807,0,0,1,1.9-2.016,3.057,3.057,0,0,1,.616.056V7.272a2.3,2.3,0,0,0-.56-.056,2.4,2.4,0,0,0-2.128,1.26h-.028l-.2-1.176h-1.54Zm17.178-7.882A2.49,2.49,0,0,0,144,8.434a2.191,2.191,0,0,0-2.156-1.316,2.342,2.342,0,0,0-2.1,1.274h-.042L139.5,7.3H138V15h1.932V10.3A1.288,1.288,0,0,1,141.2,8.882c.84,0,1.176.462,1.176,1.386V15h1.932V10.212a1.241,1.241,0,0,1,1.274-1.33c.826,0,1.162.462,1.162,1.386V15h1.932V9.89C148.68,8.224,147.9,7.118,146.216,7.118Zm11.3,3.892c0-2.548-1.568-3.892-3.486-3.892a3.819,3.819,0,0,0-3.822,4.06,3.838,3.838,0,0,0,4.158,4.018,5,5,0,0,0,2.674-.756V12.788a4.278,4.278,0,0,1-2.45.84,2.414,2.414,0,0,1-2.534-1.918h5.4A5.067,5.067,0,0,0,157.514,11.01Zm-5.474-.518a2.055,2.055,0,0,1,1.974-1.82,1.659,1.659,0,0,1,1.652,1.82ZM167.3,7.118a2.49,2.49,0,0,0-2.212,1.316,2.191,2.191,0,0,0-2.156-1.316,2.342,2.342,0,0,0-2.1,1.274h-.042L160.58,7.3h-1.5V15h1.932V10.3a1.288,1.288,0,0,1,1.274-1.414c.84,0,1.176.462,1.176,1.386V15H165.4V10.212a1.241,1.241,0,0,1,1.274-1.33c.826,0,1.162.462,1.162,1.386V15h1.932V9.89C169.764,8.224,168.98,7.118,167.3,7.118Zm6.356-3.346h-1.932V15h1.624l.2-1.26A2.975,2.975,0,0,0,176.12,15.2c1.792,0,3.472-1.582,3.472-4.046s-1.61-4.032-3.4-4.032A2.974,2.974,0,0,0,173.656,8.5Zm1.96,5.1a2.1,2.1,0,0,1,2.03,2.3,2.025,2.025,0,1,1-4.018-.014A2.086,2.086,0,0,1,175.616,8.868Zm12.446,2.142c0-2.548-1.568-3.892-3.486-3.892a3.819,3.819,0,0,0-3.822,4.06,3.838,3.838,0,0,0,4.158,4.018,5,5,0,0,0,2.674-.756V12.788a4.278,4.278,0,0,1-2.45.84A2.414,2.414,0,0,1,182.6,11.71h5.4A5.067,5.067,0,0,0,188.062,11.01Zm-5.474-.518a2.055,2.055,0,0,1,1.974-1.82,1.659,1.659,0,0,1,1.652,1.82ZM189.63,15h1.932V11.038a1.807,1.807,0,0,1,1.9-2.016,3.057,3.057,0,0,1,.616.056V7.272a2.3,2.3,0,0,0-.56-.056,2.4,2.4,0,0,0-2.128,1.26h-.028l-.2-1.176h-1.54Zm11.69-7.882c-1.89,0-3.024,1.008-3.024,2.394s1.134,1.862,2.38,2.212c1.036.308,1.638.49,1.638,1.036,0,.5-.49.826-1.358.826a3.907,3.907,0,0,1-2.632-1.008v1.834a4.687,4.687,0,0,0,2.716.784c1.988,0,3.15-.966,3.15-2.45,0-1.6-1.344-2.016-2.576-2.338-.938-.252-1.442-.448-1.442-.938,0-.462.434-.756,1.218-.756a4.124,4.124,0,0,1,2.324.714V7.734A4.628,4.628,0,0,0,201.32,7.118Zm6.692-1.61H206.15V7.3h-1.134V8.91h1.12v3.206a2.769,2.769,0,0,0,3.01,3.038,4.956,4.956,0,0,0,1.106-.112V13.39a4.073,4.073,0,0,1-.686.07c-.9,0-1.554-.406-1.554-1.442V8.91h2.1V7.3h-2.1Zm6.594,9.688a2.987,2.987,0,0,0,2.6-1.456l.2,1.26h1.624V7.3h-1.624l-.2,1.26a2.976,2.976,0,0,0-2.6-1.442c-1.75,0-3.444,1.6-3.444,4.046A3.75,3.75,0,0,0,214.606,15.2Zm.532-1.764a2.1,2.1,0,0,1-2.03-2.282,2.1,2.1,0,0,1,2.03-2.282,2.077,2.077,0,0,1,1.988,2.282A2.077,2.077,0,0,1,215.138,13.432Zm8.218-7.924h-1.862V7.3H220.36V8.91h1.12v3.206a2.769,2.769,0,0,0,3.01,3.038,4.956,4.956,0,0,0,1.106-.112V13.39a4.073,4.073,0,0,1-.686.07c-.9,0-1.554-.406-1.554-1.442V8.91h2.1V7.3h-2.1Zm10.458,5.5c0-2.548-1.568-3.892-3.486-3.892a3.819,3.819,0,0,0-3.822,4.06,3.838,3.838,0,0,0,4.158,4.018,5,5,0,0,0,2.674-.756V12.788a4.278,4.278,0,0,1-2.45.84,2.414,2.414,0,0,1-2.534-1.918h5.4A5.067,5.067,0,0,0,233.814,11.01Zm-5.474-.518a2.055,2.055,0,0,1,1.974-1.82,1.659,1.659,0,0,1,1.652,1.82ZM243.6,7.118a2.49,2.49,0,0,0-2.212,1.316,2.191,2.191,0,0,0-2.156-1.316,2.342,2.342,0,0,0-2.1,1.274h-.042L236.88,7.3h-1.5V15h1.932V10.3a1.288,1.288,0,0,1,1.274-1.414c.84,0,1.176.462,1.176,1.386V15H241.7V10.212a1.241,1.241,0,0,1,1.274-1.33c.826,0,1.162.462,1.162,1.386V15h1.932V9.89C246.064,8.224,245.28,7.118,243.6,7.118Zm11.3,3.892c0-2.548-1.568-3.892-3.486-3.892a3.819,3.819,0,0,0-3.822,4.06,3.838,3.838,0,0,0,4.158,4.018,5,5,0,0,0,2.674-.756V12.788a4.278,4.278,0,0,1-2.45.84,2.414,2.414,0,0,1-2.534-1.918h5.4A5.067,5.067,0,0,0,254.9,11.01Zm-5.474-.518a2.055,2.055,0,0,1,1.974-1.82,1.659,1.659,0,0,1,1.652,1.82ZM260.54,7.118a2.716,2.716,0,0,0-2.324,1.288h-.042l-.21-1.106h-1.5V15H258.4V10.394a1.467,1.467,0,0,1,1.526-1.512c.924,0,1.4.5,1.4,1.568V15h1.932V9.862A2.53,2.53,0,0,0,260.54,7.118Zm6.93-1.61h-1.862V7.3h-1.134V8.91h1.12v3.206a2.769,2.769,0,0,0,3.01,3.038,4.957,4.957,0,0,0,1.106-.112V13.39a4.073,4.073,0,0,1-.686.07c-.9,0-1.554-.406-1.554-1.442V8.91h2.1V7.3h-2.1ZM274.106,15h7.406V13.208H277.7c2.114-2.31,3.388-3.892,3.388-5.46a3.328,3.328,0,0,0-3.57-3.416,4.443,4.443,0,0,0-2.856,1.008V7.356a3.48,3.48,0,0,1,2.534-1.2,1.763,1.763,0,0,1,1.876,1.778C279.076,9.036,278.614,9.82,274.106,15Zm13.02-10.668c-2.3,0-4.144,2.086-4.144,5.46s1.848,5.446,4.144,5.446,4.172-2.086,4.172-5.446S289.436,4.332,287.126,4.332Zm0,1.82c1.232,0,2.24,1.33,2.24,3.64,0,2.282-1.008,3.612-2.24,3.612s-2.184-1.316-2.184-3.612S285.908,6.152,287.126,6.152ZM294.966,15H296.9V4.486h-.154l-4.186,1.652V8.1l2.408-.994ZM303,4.332a3.709,3.709,0,0,0-3.85,3.724,3.422,3.422,0,0,0,3.486,3.4,1.7,1.7,0,0,0,.252-.014L300.048,15h2.324l2.926-3.612a5.342,5.342,0,0,0,1.526-3.4A3.63,3.63,0,0,0,303,4.332Zm1.218,5.446a3.023,3.023,0,0,1-1.092.21,1.934,1.934,0,0,1-2.03-1.974,1.911,1.911,0,1,1,3.822,0A2.764,2.764,0,0,1,304.22,9.778ZM1.848,29.69a.784.784,0,1,0,0-1.568.784.784,0,1,0,0,1.568ZM1.2,39H2.492V31.426H1.2Zm6.048-7.742c-1.68,0-2.73.952-2.73,2.226,0,1.33,1.106,1.736,2.352,2.114,1.092.336,1.806.574,1.806,1.3,0,.672-.588,1.12-1.61,1.12a3.594,3.594,0,0,1-2.576-1.078v1.386a4.186,4.186,0,0,0,2.618.84c1.75,0,2.828-.9,2.828-2.282,0-1.526-1.316-1.9-2.478-2.24-1.022-.294-1.68-.546-1.68-1.218,0-.616.532-1.022,1.484-1.022a3.577,3.577,0,0,1,2.268.784V31.916A3.965,3.965,0,0,0,7.252,31.258Zm11.844,0a2.732,2.732,0,0,0-2.324,1.316H16.73l-.14-1.148H15.6V39h1.288V34.38a1.832,1.832,0,0,1,1.89-1.89c1.134,0,1.736.63,1.736,1.96V39H21.8V33.988A2.543,2.543,0,0,0,19.1,31.258Zm8.26,7.91a3.757,3.757,0,0,0,3.752-3.948,3.771,3.771,0,1,0-7.532,0A3.763,3.763,0,0,0,27.356,39.168Zm0-1.2a2.536,2.536,0,0,1-2.478-2.744,2.486,2.486,0,1,1,4.942,0A2.542,2.542,0,0,1,27.356,37.964ZM39.536,39h1.47l2.128-7.574H41.86l-1.61,6.132h-.042L38.29,31.426H36.946l-1.932,6.132h-.028L33.4,31.426H32.06L34.2,39h1.47l1.918-5.936h.042Zm11.732.168a3.044,3.044,0,0,0,2.7-1.554L54.124,39h1.05V31.426h-1.05l-.154,1.4a3.058,3.058,0,0,0-2.7-1.568,3.664,3.664,0,0,0-3.444,3.962A3.668,3.668,0,0,0,51.268,39.168Zm.266-1.2a2.509,2.509,0,0,1-2.408-2.744,2.423,2.423,0,1,1,4.8-.014A2.521,2.521,0,0,1,51.534,37.964ZM59.444,39h1.4L63.6,31.426h-1.33l-2.086,6.146h-.042l-2.086-6.146H56.686Zm8.358.168a3.044,3.044,0,0,0,2.7-1.554L70.658,39h1.05V31.426h-1.05l-.154,1.4a3.058,3.058,0,0,0-2.7-1.568,3.664,3.664,0,0,0-3.444,3.962A3.668,3.668,0,0,0,67.8,39.168Zm.266-1.2A2.509,2.509,0,0,1,65.66,35.22a2.423,2.423,0,1,1,4.8-.014A2.521,2.521,0,0,1,68.068,37.964Zm6.664-8.274a.784.784,0,1,0-.8-.784A.769.769,0,0,0,74.732,29.69ZM74.088,39h1.288V31.426H74.088Zm3.7,0h1.288V27.8H77.784Zm6.622.168a3.044,3.044,0,0,0,2.7-1.554L87.262,39h1.05V31.426h-1.05l-.154,1.4a3.058,3.058,0,0,0-2.7-1.568,3.664,3.664,0,0,0-3.444,3.962A3.668,3.668,0,0,0,84.406,39.168Zm.266-1.2a2.509,2.509,0,0,1-2.408-2.744,2.423,2.423,0,1,1,4.8-.014A2.521,2.521,0,0,1,84.672,37.964ZM91.952,27.8H90.664V39h1.05l.154-1.386a3.023,3.023,0,0,0,2.688,1.554A3.66,3.66,0,0,0,98,35.22c0-2.436-1.638-3.962-3.416-3.962a2.979,2.979,0,0,0-2.632,1.5ZM94.3,32.462a2.514,2.514,0,0,1,2.408,2.758,2.417,2.417,0,1,1-4.788-.014A2.506,2.506,0,0,1,94.3,32.462ZM99.918,39h1.288V27.8H99.918Zm10.108-3.934c0-2.492-1.47-3.808-3.262-3.808a3.719,3.719,0,0,0-3.654,3.99,3.645,3.645,0,0,0,3.836,3.92,4.413,4.413,0,0,0,2.646-.84V37.054a3.913,3.913,0,0,1-2.548.994,2.582,2.582,0,0,1-2.674-2.408h5.614A3.438,3.438,0,0,0,110.026,35.066Zm-5.656-.392a2.459,2.459,0,0,1,2.38-2.3,2.064,2.064,0,0,1,2.03,2.3Zm14.616,4.494a3.757,3.757,0,0,0,3.752-3.948,3.771,3.771,0,1,0-7.532,0A3.763,3.763,0,0,0,118.986,39.168Zm0-1.2a2.536,2.536,0,0,1-2.478-2.744,2.486,2.486,0,1,1,4.942,0A2.542,2.542,0,0,1,118.986,37.964Zm9.128-6.706a2.732,2.732,0,0,0-2.324,1.316h-.042l-.14-1.148h-.994V39H125.9V34.38a1.832,1.832,0,0,1,1.89-1.89c1.134,0,1.736.63,1.736,1.96V39h1.288V33.988A2.543,2.543,0,0,0,128.114,31.258ZM138.922,39h1.3V29.8H143.5V28.584h-7.868V29.8h3.29Zm7.686.168a3.044,3.044,0,0,0,2.7-1.554L149.464,39h1.05V31.426h-1.05l-.154,1.4a3.058,3.058,0,0,0-2.7-1.568,3.664,3.664,0,0,0-3.444,3.962A3.668,3.668,0,0,0,146.608,39.168Zm.266-1.2a2.509,2.509,0,0,1-2.408-2.744,2.423,2.423,0,1,1,4.8-.014A2.521,2.521,0,0,1,146.874,37.964Zm8.372-6.706c-1.68,0-2.73.952-2.73,2.226,0,1.33,1.106,1.736,2.352,2.114,1.092.336,1.806.574,1.806,1.3,0,.672-.588,1.12-1.61,1.12a3.594,3.594,0,0,1-2.576-1.078v1.386a4.186,4.186,0,0,0,2.618.84c1.75,0,2.828-.9,2.828-2.282,0-1.526-1.316-1.9-2.478-2.24-1.022-.294-1.68-.546-1.68-1.218,0-.616.532-1.022,1.484-1.022a3.577,3.577,0,0,1,2.268.784V31.916A3.965,3.965,0,0,0,155.246,31.258Zm4.522,10.682h1.288V37.684a3.014,3.014,0,0,0,2.618,1.484c1.792,0,3.43-1.526,3.43-3.962a3.651,3.651,0,0,0-3.444-3.948,3.052,3.052,0,0,0-2.688,1.568l-.154-1.4h-1.05Zm3.64-3.976a2.506,2.506,0,0,1-2.38-2.744,2.417,2.417,0,1,1,4.788-.014A2.506,2.506,0,0,1,163.408,37.964ZM169.022,39h1.288V27.8h-1.288Zm6.622.168a3.044,3.044,0,0,0,2.7-1.554L178.5,39h1.05V31.426H178.5l-.154,1.4a3.058,3.058,0,0,0-2.7-1.568A3.664,3.664,0,0,0,172.2,35.22,3.668,3.668,0,0,0,175.644,39.168Zm.266-1.2A2.509,2.509,0,0,1,173.5,35.22a2.423,2.423,0,1,1,4.8-.014A2.521,2.521,0,0,1,175.91,37.964Zm9.492-6.706a2.732,2.732,0,0,0-2.324,1.316h-.042l-.14-1.148H181.9V39h1.288V34.38a1.832,1.832,0,0,1,1.89-1.89c1.134,0,1.736.63,1.736,1.96V39H188.1V33.988A2.543,2.543,0,0,0,185.4,31.258Zm13.552,7.952a5.163,5.163,0,0,0,5.166-5.418,5.179,5.179,0,1,0-10.346,0A5.158,5.158,0,0,0,198.954,39.21Zm0-1.232a3.909,3.909,0,0,1-3.85-4.186,3.857,3.857,0,1,1,7.686,0A3.906,3.906,0,0,1,198.954,37.978Zm10.6-6.72a2.732,2.732,0,0,0-2.324,1.316h-.042l-.14-1.148h-.994V39h1.288V34.38a1.832,1.832,0,0,1,1.89-1.89c1.134,0,1.736.63,1.736,1.96V39h1.288V33.988A2.543,2.543,0,0,0,209.552,31.258Zm5,7.742h1.288V27.8H214.55Zm4.34-9.31a.784.784,0,1,0-.8-.784A.769.769,0,0,0,218.89,29.69ZM218.246,39h1.288V31.426h-1.288Zm7.168-7.742a2.732,2.732,0,0,0-2.324,1.316h-.042l-.14-1.148h-.994V39H223.2V34.38a1.832,1.832,0,0,1,1.89-1.89c1.134,0,1.736.63,1.736,1.96V39h1.288V33.988A2.543,2.543,0,0,0,225.414,31.258Zm11.41,3.808c0-2.492-1.47-3.808-3.262-3.808a3.719,3.719,0,0,0-3.654,3.99,3.645,3.645,0,0,0,3.836,3.92,4.413,4.413,0,0,0,2.646-.84V37.054a3.913,3.913,0,0,1-2.548.994,2.582,2.582,0,0,1-2.674-2.408h5.614A3.438,3.438,0,0,0,236.824,35.066Zm-5.656-.392a2.459,2.459,0,0,1,2.38-2.3,2.064,2.064,0,0,1,2.03,2.3Zm8.092,4.4a.875.875,0,1,0-.868-.868A.855.855,0,0,0,239.26,39.07Zm7.014-.07h5.894V37.782h-4.592v-9.2h-1.3Zm10.43.168a3.757,3.757,0,0,0,3.752-3.948,3.771,3.771,0,1,0-7.532,0A3.763,3.763,0,0,0,256.7,39.168Zm0-1.2a2.536,2.536,0,0,1-2.478-2.744,2.486,2.486,0,1,1,4.942,0A2.542,2.542,0,0,1,256.7,37.964ZM262.332,39h1.288V34.688a1.963,1.963,0,0,1,2.03-2.128,3.259,3.259,0,0,1,.532.056V31.384a2.713,2.713,0,0,0-.5-.042,2.453,2.453,0,0,0-2.17,1.288h-.014l-.14-1.2h-1.022Zm11.438-3.934c0-2.492-1.47-3.808-3.262-3.808a3.719,3.719,0,0,0-3.654,3.99,3.645,3.645,0,0,0,3.836,3.92,4.413,4.413,0,0,0,2.646-.84V37.054a3.913,3.913,0,0,1-2.548.994,2.582,2.582,0,0,1-2.674-2.408h5.614A3.44,3.44,0,0,0,273.77,35.066Zm-5.656-.392a2.459,2.459,0,0,1,2.38-2.3,2.064,2.064,0,0,1,2.03,2.3Zm14.994-3.416a2.422,2.422,0,0,0-2.184,1.33,2.088,2.088,0,0,0-2.1-1.33,2.26,2.26,0,0,0-2.03,1.288h-.042l-.14-1.12h-.994V39h1.288V34.226a1.6,1.6,0,0,1,1.568-1.736c1.008,0,1.442.574,1.442,1.666V39H281.2V34.156a1.573,1.573,0,0,1,1.582-1.666c1.008,0,1.428.574,1.428,1.666V39H285.5V33.946C285.5,32.364,284.76,31.258,283.108,31.258ZM1.848,53.69a.784.784,0,1,0,0-1.568.784.784,0,1,0,0,1.568ZM1.2,63H2.492V55.426H1.2Zm3.668,2.94H6.16V61.684a3.014,3.014,0,0,0,2.618,1.484c1.792,0,3.43-1.526,3.43-3.962a3.651,3.651,0,0,0-3.444-3.948,3.052,3.052,0,0,0-2.688,1.568l-.154-1.4H4.872Zm3.64-3.976a2.78,2.78,0,0,1,0-5.5,2.775,2.775,0,0,1,0,5.5Zm7.966-6.706c-1.68,0-2.73.952-2.73,2.226,0,1.33,1.106,1.736,2.352,2.114,1.092.336,1.806.574,1.806,1.3,0,.672-.588,1.12-1.61,1.12a3.594,3.594,0,0,1-2.576-1.078v1.386a4.186,4.186,0,0,0,2.618.84c1.75,0,2.828-.9,2.828-2.282,0-1.526-1.316-1.9-2.478-2.24-1.022-.294-1.68-.546-1.68-1.218,0-.616.532-1.022,1.484-1.022a3.577,3.577,0,0,1,2.268.784V55.916A3.965,3.965,0,0,0,16.478,55.258Zm7.5,7.91a2.918,2.918,0,0,0,3.136-3.08V55.426H25.83v4.69a1.707,1.707,0,0,1-1.848,1.848,1.678,1.678,0,0,1-1.792-1.848v-4.69H20.9v4.662A2.881,2.881,0,0,0,23.982,63.168Zm12.88-7.91a2.422,2.422,0,0,0-2.184,1.33,2.088,2.088,0,0,0-2.1-1.33,2.26,2.26,0,0,0-2.03,1.288h-.042l-.14-1.12h-.994V63H30.66V58.226a1.6,1.6,0,0,1,1.568-1.736c1.008,0,1.442.574,1.442,1.666V63h1.288V58.156A1.573,1.573,0,0,1,36.54,56.49c1.008,0,1.428.574,1.428,1.666V63h1.288V57.946C39.256,56.364,38.514,55.258,36.862,55.258Zm11.466,7.91a3.06,3.06,0,0,0,2.7-1.554L51.184,63h1.05V51.8H50.946v4.942a2.973,2.973,0,0,0-2.618-1.484c-1.792,0-3.444,1.526-3.444,3.962A3.66,3.66,0,0,0,48.328,63.168Zm.266-1.2a2.78,2.78,0,1,1,2.38-2.758A2.52,2.52,0,0,1,48.594,61.964Zm9.268,1.2a3.959,3.959,0,1,0-3.78-3.948A3.757,3.757,0,0,0,57.862,63.168Zm0-1.2a2.768,2.768,0,1,1,2.464-2.744A2.536,2.536,0,0,1,57.862,61.964ZM63.518,63h1.288V51.8H63.518Zm6.958.168A3.959,3.959,0,1,0,66.7,59.22,3.757,3.757,0,0,0,70.476,63.168Zm0-1.2A2.768,2.768,0,1,1,72.94,59.22,2.536,2.536,0,0,1,70.476,61.964ZM76.1,63h1.288V58.688a1.963,1.963,0,0,1,2.03-2.128,3.259,3.259,0,0,1,.532.056V55.384a2.713,2.713,0,0,0-.5-.042,2.453,2.453,0,0,0-2.17,1.288h-.014l-.14-1.2H76.1Zm11.13-7.742c-1.68,0-2.73.952-2.73,2.226,0,1.33,1.106,1.736,2.352,2.114,1.092.336,1.806.574,1.806,1.3,0,.672-.588,1.12-1.61,1.12a3.594,3.594,0,0,1-2.576-1.078v1.386a4.186,4.186,0,0,0,2.618.84c1.75,0,2.828-.9,2.828-2.282,0-1.526-1.316-1.9-2.478-2.24-1.022-.294-1.68-.546-1.68-1.218,0-.616.532-1.022,1.484-1.022a3.577,3.577,0,0,1,2.268.784V55.916A3.965,3.965,0,0,0,87.234,55.258Zm5.194-1.568a.784.784,0,1,0-.8-.784A.769.769,0,0,0,92.428,53.69ZM91.784,63h1.288V55.426H91.784Zm5.25-9.352H95.8v1.778H94.64v1.12h1.134v3.808a2.506,2.506,0,0,0,2.7,2.744,4.745,4.745,0,0,0,.9-.084v-1.12a3.917,3.917,0,0,1-.672.07A1.5,1.5,0,0,1,97.034,60.3V56.546H99.2v-1.12h-2.17Zm10.654,9.52a3.044,3.044,0,0,0,2.7-1.554L110.544,63h1.05V55.426h-1.05l-.154,1.4a3.058,3.058,0,0,0-2.7-1.568,3.993,3.993,0,0,0,0,7.91Zm.266-1.2a2.778,2.778,0,1,1,2.394-2.758A2.509,2.509,0,0,1,107.954,61.964Zm13.482-6.706a2.422,2.422,0,0,0-2.184,1.33,2.088,2.088,0,0,0-2.1-1.33,2.26,2.26,0,0,0-2.03,1.288h-.042l-.14-1.12h-.994V63h1.288V58.226A1.6,1.6,0,0,1,116.8,56.49c1.008,0,1.442.574,1.442,1.666V63h1.288V58.156a1.573,1.573,0,0,1,1.582-1.666c1.008,0,1.428.574,1.428,1.666V63h1.288V57.946C123.83,56.364,123.088,55.258,121.436,55.258Zm11.116,3.808c0-2.492-1.47-3.808-3.262-3.808a3.719,3.719,0,0,0-3.654,3.99,3.645,3.645,0,0,0,3.836,3.92,4.413,4.413,0,0,0,2.646-.84V61.054a3.913,3.913,0,0,1-2.548.994A2.582,2.582,0,0,1,126.9,59.64h5.614A3.438,3.438,0,0,0,132.552,59.066Zm-5.656-.392a2.459,2.459,0,0,1,2.38-2.3,2.064,2.064,0,0,1,2.03,2.3Zm9-5.026h-1.232v1.778H133.5v1.12h1.134v3.808a2.506,2.506,0,0,0,2.7,2.744,4.744,4.744,0,0,0,.9-.084v-1.12a3.916,3.916,0,0,1-.672.07A1.5,1.5,0,0,1,135.9,60.3V56.546h2.17v-1.12H135.9Zm3.234,11.214h.966a9.345,9.345,0,0,0,.84-3.262v-.574H139.72v.63A10.962,10.962,0,0,1,139.132,64.862Zm8.68-5.656a2.613,2.613,0,0,1,2.59-2.744,3.2,3.2,0,0,1,2.03.644V55.79a3.879,3.879,0,0,0-2.1-.532,3.957,3.957,0,0,0,0,7.91,4.2,4.2,0,0,0,2.1-.518v-1.3a3.241,3.241,0,0,1-2.016.616A2.611,2.611,0,0,1,147.812,59.206Zm9.688,3.962a3.959,3.959,0,1,0-3.78-3.948A3.757,3.757,0,0,0,157.5,63.168Zm0-1.2a2.768,2.768,0,1,1,2.464-2.744A2.536,2.536,0,0,1,157.5,61.964Zm9.128-6.706a2.732,2.732,0,0,0-2.324,1.316h-.042l-.14-1.148h-.994V63h1.288V58.38a1.832,1.832,0,0,1,1.89-1.89c1.134,0,1.736.63,1.736,1.96V63h1.288V57.988A2.543,2.543,0,0,0,166.628,55.258Zm7.35,0c-1.68,0-2.73.952-2.73,2.226,0,1.33,1.106,1.736,2.352,2.114,1.092.336,1.806.574,1.806,1.3,0,.672-.588,1.12-1.61,1.12a3.594,3.594,0,0,1-2.576-1.078v1.386a4.186,4.186,0,0,0,2.618.84c1.75,0,2.828-.9,2.828-2.282,0-1.526-1.316-1.9-2.478-2.24-1.022-.294-1.68-.546-1.68-1.218,0-.616.532-1.022,1.484-1.022a3.577,3.577,0,0,1,2.268.784V55.916A3.965,3.965,0,0,0,173.978,55.258Zm10.962,3.808c0-2.492-1.47-3.808-3.262-3.808a3.719,3.719,0,0,0-3.654,3.99,3.645,3.645,0,0,0,3.836,3.92,4.413,4.413,0,0,0,2.646-.84V61.054a3.913,3.913,0,0,1-2.548.994,2.582,2.582,0,0,1-2.674-2.408H184.9A3.438,3.438,0,0,0,184.94,59.066Zm-5.656-.392a2.459,2.459,0,0,1,2.38-2.3,2.064,2.064,0,0,1,2.03,2.3Zm8.316.532a2.613,2.613,0,0,1,2.59-2.744,3.2,3.2,0,0,1,2.03.644V55.79a3.879,3.879,0,0,0-2.1-.532,3.957,3.957,0,0,0,0,7.91,4.2,4.2,0,0,0,2.1-.518v-1.3a3.241,3.241,0,0,1-2.016.616A2.611,2.611,0,0,1,187.6,59.206Zm8.12-5.558h-1.232v1.778h-1.162v1.12h1.134v3.808a2.506,2.506,0,0,0,2.7,2.744,4.744,4.744,0,0,0,.9-.084v-1.12a3.916,3.916,0,0,1-.672.07A1.5,1.5,0,0,1,195.72,60.3V56.546h2.17v-1.12h-2.17Zm10.248,5.418c0-2.492-1.47-3.808-3.262-3.808a3.719,3.719,0,0,0-3.654,3.99,3.645,3.645,0,0,0,3.836,3.92,4.413,4.413,0,0,0,2.646-.84V61.054a3.913,3.913,0,0,1-2.548.994,2.582,2.582,0,0,1-2.674-2.408h5.614A3.438,3.438,0,0,0,205.968,59.066Zm-5.656-.392a2.459,2.459,0,0,1,2.38-2.3,2.064,2.064,0,0,1,2.03,2.3Zm9-5.026h-1.232v1.778H206.92v1.12h1.134v3.808a2.506,2.506,0,0,0,2.7,2.744,4.744,4.744,0,0,0,.9-.084v-1.12a3.916,3.916,0,0,1-.672.07,1.5,1.5,0,0,1-1.666-1.666V56.546h2.17v-1.12h-2.17Zm6.86,9.52a2.918,2.918,0,0,0,3.136-3.08V55.426h-1.288v4.69a1.707,1.707,0,0,1-1.848,1.848,1.678,1.678,0,0,1-1.792-1.848v-4.69h-1.288v4.662A2.881,2.881,0,0,0,216.174,63.168Zm5.39-.168h1.288V58.688a1.963,1.963,0,0,1,2.03-2.128,3.259,3.259,0,0,1,.532.056V55.384a2.713,2.713,0,0,0-.5-.042,2.453,2.453,0,0,0-2.17,1.288h-.014l-.14-1.2h-1.022Zm11.7.168a3.044,3.044,0,0,0,2.7-1.554L236.124,63h1.05V55.426h-1.05l-.154,1.4a3.058,3.058,0,0,0-2.7-1.568,3.993,3.993,0,0,0,0,7.91Zm.266-1.2a2.778,2.778,0,1,1,2.394-2.758A2.509,2.509,0,0,1,233.534,61.964Zm8.96,1.2a3.06,3.06,0,0,0,2.7-1.554L245.35,63h1.05V51.8h-1.288v4.942a2.973,2.973,0,0,0-2.618-1.484c-1.792,0-3.444,1.526-3.444,3.962A3.66,3.66,0,0,0,242.494,63.168Zm.266-1.2a2.78,2.78,0,1,1,2.38-2.758A2.52,2.52,0,0,1,242.76,61.964Zm6.65-8.274a.784.784,0,1,0-.8-.784A.769.769,0,0,0,249.41,53.69ZM248.766,63h1.288V55.426h-1.288Zm3.668,2.94h1.288V61.684a3.014,3.014,0,0,0,2.618,1.484c1.792,0,3.43-1.526,3.43-3.962a3.651,3.651,0,0,0-3.444-3.948,3.052,3.052,0,0,0-2.688,1.568l-.154-1.4h-1.05Zm3.64-3.976a2.775,2.775,0,1,1,2.408-2.758A2.506,2.506,0,0,1,256.074,61.964Zm6.258-8.274a.784.784,0,1,0-.8-.784A.769.769,0,0,0,262.332,53.69ZM261.688,63h1.288V55.426h-1.288Zm6.048-7.742c-1.68,0-2.73.952-2.73,2.226,0,1.33,1.106,1.736,2.352,2.114,1.092.336,1.806.574,1.806,1.3,0,.672-.588,1.12-1.61,1.12a3.594,3.594,0,0,1-2.576-1.078v1.386a4.186,4.186,0,0,0,2.618.84c1.75,0,2.828-.9,2.828-2.282,0-1.526-1.316-1.9-2.478-2.24-1.022-.294-1.68-.546-1.68-1.218,0-.616.532-1.022,1.484-1.022a3.577,3.577,0,0,1,2.268.784V55.916A3.965,3.965,0,0,0,267.736,55.258Zm5.334,3.948a2.613,2.613,0,0,1,2.59-2.744,3.2,3.2,0,0,1,2.03.644V55.79a3.879,3.879,0,0,0-2.1-.532,3.957,3.957,0,0,0,0,7.91,4.2,4.2,0,0,0,2.1-.518v-1.3a3.241,3.241,0,0,1-2.016.616A2.611,2.611,0,0,1,273.07,59.206Zm7.21-5.516a.784.784,0,1,0-.8-.784A.769.769,0,0,0,280.28,53.69ZM279.636,63h1.288V55.426h-1.288Zm7.168-7.742a2.732,2.732,0,0,0-2.324,1.316h-.042l-.14-1.148H283.3V63h1.288V58.38a1.832,1.832,0,0,1,1.89-1.89c1.134,0,1.736.63,1.736,1.96V63h1.288V57.988A2.543,2.543,0,0,0,286.8,55.258Zm7.924.014a3.82,3.82,0,0,0,0,7.6,3.085,3.085,0,0,0,2.6-1.428v1.148a2.339,2.339,0,0,1-2.492,2.31,4.133,4.133,0,0,1-2.772-1.12V65.17a4.793,4.793,0,0,0,2.828.938,3.537,3.537,0,0,0,3.724-3.724V55.426h-1.05l-.154,1.316A3.107,3.107,0,0,0,294.728,55.272Zm.252,1.19a2.43,2.43,0,0,1,2.394,2.576,2.489,2.489,0,0,1-2.394,2.66,2.628,2.628,0,0,1,0-5.236ZM7.616,83.066c0-2.492-1.47-3.808-3.262-3.808A3.719,3.719,0,0,0,.7,83.248a3.645,3.645,0,0,0,3.836,3.92,4.413,4.413,0,0,0,2.646-.84V85.054a3.913,3.913,0,0,1-2.548.994A2.582,2.582,0,0,1,1.96,83.64H7.574A3.438,3.438,0,0,0,7.616,83.066ZM1.96,82.674a2.459,2.459,0,0,1,2.38-2.3,2.064,2.064,0,0,1,2.03,2.3ZM9.492,87H10.78V75.8H9.492Zm4.34-9.31a.784.784,0,1,0-.8-.784A.769.769,0,0,0,13.832,77.69ZM13.188,87h1.288V79.426H13.188Zm5.25-9.352H17.206v1.778H16.044v1.12h1.134v3.808a2.506,2.506,0,0,0,2.7,2.744,4.745,4.745,0,0,0,.9-.084v-1.12a3.917,3.917,0,0,1-.672.07A1.5,1.5,0,0,1,18.438,84.3V80.546h2.17v-1.12h-2.17ZM22.9,87.07a.875.875,0,1,0-.868-.868A.855.855,0,0,0,22.9,87.07Z" transform="translate(32 96)"/><path d="M453.822,230.463c-6.458,22.739-41.432,10.379-129.908,13.838s-166.066-.39-224,0-98.3-10.02-94.011-32.891,13.724-45.227,14.205-68.379c.342-16.164-3.7-32.153-4.738-48.3S16.728,61.471,28.315,48.4s30.873-20.23,50.192-23.346S142.96,29.3,162.637,28.3c40.7-2.046,51.484-40.854,125.438-57.9s145.639,1.129,152.318,65.9C440.906,41.658,453.17,196.845,453.822,230.463Z" transform="translate(-45.822 480.244)" fill="#00629b" opacity="0.24" style="isolation:isolate"/><g transform="translate(29.38 -4299.883)"><g transform="translate(66.418 4792)"><path d="M217.41,113.076v85.581a4.778,4.778,0,0,1-1.23,3.209,4.97,4.97,0,0,1-1.275,1.008.035.035,0,0,0-.029.02,4.837,4.837,0,0,1-2.257.558H71.983c-3.434-4.4-5.6-9.628-8.313-14.529V117.76Q71.324,110.65,79,103.543c2.811-2.609,5.626-5.218,8.548-7.7H196.188c5.87,4.634,11.741,9.275,17.513,14C214.951,110.894,216.223,111.941,217.41,113.076Z" transform="translate(-59.453 -91.92)" fill="url(#a)"/><path d="M4.791,0H148.949a4.791,4.791,0,0,1,4.791,4.791v98.036a4.791,4.791,0,0,1-4.791,4.791H4.791A4.791,4.791,0,0,1,0,102.827V4.791A4.791,4.791,0,0,1,4.791,0Z" transform="translate(0)" fill="#00629b"/><path d="M204.49,88.631v98.026a4.794,4.794,0,0,1-4.794,4.791H55.544a4.784,4.784,0,0,1-4.794-4.791V88.631a4.784,4.784,0,0,1,4.791-4.791H199.692a4.794,4.794,0,0,1,4.8,4.791Z" transform="translate(-50.747 -83.833)" fill="url(#b)"/><path d="M204.49,88.631v6.464H50.75V88.631a4.784,4.784,0,0,1,4.791-4.791H199.692a4.794,4.794,0,0,1,4.8,4.791Z" transform="translate(-50.747 -83.833)" fill="#00629b" opacity="0.24" style="isolation:isolate"/><path d="M204.49,88.631v6.464H50.75V88.631a4.784,4.784,0,0,1,4.791-4.791H199.692a4.794,4.794,0,0,1,4.8,4.791Z" transform="translate(-50.747 -83.833)" fill="#00629b"/><path d="M204.49,88.631v6.464H50.75V88.631a4.784,4.784,0,0,1,4.791-4.791H199.692a4.794,4.794,0,0,1,4.8,4.791Z" transform="translate(-50.747 -83.833)" fill="url(#c)"/><path d="M64.792,130.081a4.785,4.785,0,0,1-1.4-3.391V35.427H113v96.054H68.174A4.784,4.784,0,0,1,64.792,130.081Z" transform="translate(-63.386 -23.866)" fill="#fff"/><path d="M3.614,0h22.7a3.614,3.614,0,0,1,3.614,3.614v0A3.614,3.614,0,0,1,26.313,7.23H3.614A3.614,3.614,0,0,1,0,3.617v0A3.614,3.614,0,0,1,3.614,0Z" transform="translate(10.312 30.94)" fill="#8799a4"/><path d="M3.614,0H21.473a3.614,3.614,0,0,1,3.614,3.614v0A3.614,3.614,0,0,1,21.473,7.23H3.614A3.614,3.614,0,0,1,0,3.617v0A3.614,3.614,0,0,1,3.614,0Z" transform="translate(10.312 73.615)" fill="#00629b"/><path d="M3.614,0H21.473a3.614,3.614,0,0,1,3.614,3.614v0A3.614,3.614,0,0,1,21.473,7.23H3.614A3.614,3.614,0,0,1,0,3.617v0A3.614,3.614,0,0,1,3.614,0Z" transform="translate(10.312 73.615)" fill="url(#d)"/><path d="M1.833,0H23.126a1.833,1.833,0,0,1,1.833,1.833v0a1.833,1.833,0,0,1-1.833,1.833H1.833A1.833,1.833,0,0,1,0,1.836v0A1.833,1.833,0,0,1,1.833,0Z" transform="translate(10.312 63.407)" fill="#8799a4"/><path d="M0,0H30.523V5.825H0Z" transform="translate(10.312 44.801)" fill="#c2d9e7"/><path d="M0,0H53.352V5.825H0Z" transform="translate(91.194 37.952)" fill="#8799a4" opacity="0.7"/><path d="M0,0H19.108V3.868H0Z" transform="translate(125.438 46.758)" fill="#8799a4" opacity="0.7"/><path d="M0,0H30.523V5.825H0Z" transform="translate(10.312 52.332)" fill="#c2d9e7"/><g transform="translate(49.612 11.56)" clip-path="url(#e)"><g transform="translate(28.34 50.163)"><g transform="matrix(1, 0, 0, 1, -173.75, -553.84)" filter="url(#f)"><path d="M44.453,68.006,24.548,66.049a4.084,4.084,0,0,1-3.724-3.86V53.645L4.73,55.229a3.47,3.47,0,0,1-3.159-1.288A3.1,3.1,0,0,1,0,51.219V5.926A4.141,4.141,0,0,1,3.78,2.008L23.99.02a3.473,3.473,0,0,1,3.161,1.289,3.1,3.1,0,0,1,1.572,2.723v9.9l16.666,1.64a4.084,4.084,0,0,1,3.724,3.859V64.056a3.05,3.05,0,0,1-1.546,2.682,3.358,3.358,0,0,1-2.72,1.287Q44.653,68.025,44.453,68.006ZM2.75,52.767a1.928,1.928,0,0,1-.245-.952V6.648a2.249,2.249,0,0,1,.357-1.2,2.5,2.5,0,0,1,.209-.295A2.311,2.311,0,0,0,2.5,6.644V51.81a1.926,1.926,0,0,0,.247.956ZM44.37,17.752a2.516,2.516,0,0,1,2.3,2.38v-.009a2.516,2.516,0,0,0-2.3-2.38l-2.152-.2v0Zm-15.076.163,10.7,1.051a1.3,1.3,0,0,0,1.412-.86,1.3,1.3,0,0,1-1.412.86l-10.7-1.051a1.608,1.608,0,0,1-.571-.159A1.608,1.608,0,0,0,29.293,17.916ZM9.113,5.469q.076,0,.154-.008L19.952,4.4l.007,0L9.26,5.459a1.531,1.531,0,0,1-.506-.033A1.5,1.5,0,0,0,9.113,5.469ZM4.831,4.229a2.622,2.622,0,0,0-.783.2l.1-.037a2.543,2.543,0,0,1,.686-.163l1.605-.159ZM24.457,2.29l-2.847.282v.114h0V2.578L23.2,2.423,24.464,2.3a2.311,2.311,0,0,1,1.131.163l0-.008a2.265,2.265,0,0,0-.887-.176Q24.582,2.278,24.457,2.29Z" transform="translate(174.27 553.84)" fill="#00629b"/></g><g transform="translate(0 0)"><path d="M231.072,61.274v45.293a4.141,4.141,0,0,1-3.782,3.915l-20.211,1.989a3.269,3.269,0,0,1-3.78-3.173V64a4.141,4.141,0,0,1,3.78-3.917L227.29,58.1A3.271,3.271,0,0,1,231.072,61.274Zm-1.935.215a2.015,2.015,0,0,0-2.331-1.957l-2.847.282v.267a1.636,1.636,0,0,1-1.492,1.546L211.61,62.7a1.289,1.289,0,0,1-1.49-1.251v-.267l-2.941.288a2.551,2.551,0,0,0-2.331,2.415v45.167a2.013,2.013,0,0,0,2.331,1.954l19.628-1.935a2.549,2.549,0,0,0,2.331-2.415Z" transform="translate(-203.3 -58.079)" fill="#00629b"/><path d="M226.652,65.171v45.293a4.141,4.141,0,0,1-3.782,3.915l-20.211,1.989a3.269,3.269,0,0,1-3.78-3.174V67.9a4.141,4.141,0,0,1,3.78-3.917L222.87,62A3.269,3.269,0,0,1,226.652,65.171Zm-1.935.215a2.015,2.015,0,0,0-2.331-1.957l-2.847.282v.267a1.636,1.636,0,0,1-1.492,1.546L207.19,66.6a1.289,1.289,0,0,1-1.49-1.251V65.08l-2.939.288a2.551,2.551,0,0,0-2.331,2.415V112.95a2.013,2.013,0,0,0,2.331,1.954l19.628-1.935a2.549,2.549,0,0,0,2.331-2.415Z" transform="translate(-197.93 -61.139)" fill="#fff"/><path d="M232.139,70.682v45.164a2.551,2.551,0,0,1-2.331,2.415L210.181,120.2a2.012,2.012,0,0,1-2.331-1.954V73.075a2.553,2.553,0,0,1,2.331-2.415l2.941-.292v.269a1.289,1.289,0,0,0,1.49,1.251l10.858-1.075a1.636,1.636,0,0,0,1.492-1.546v-.26l2.847-.282A2.015,2.015,0,0,1,232.139,70.682Z" transform="translate(-205.345 -66.427)" fill="#d1e2ed"/><path d="M232.139,70.682v45.164a2.551,2.551,0,0,1-2.331,2.415L210.181,120.2a2.012,2.012,0,0,1-2.331-1.954V73.075a2.553,2.553,0,0,1,2.331-2.415l2.941-.292v.269a1.289,1.289,0,0,0,1.49,1.251l10.858-1.075a1.636,1.636,0,0,0,1.492-1.546v-.26l2.847-.282A2.015,2.015,0,0,1,232.139,70.682Z" transform="translate(-205.345 -66.427)" fill="#fff"/><path d="M207.85,73.081v45.162a2.016,2.016,0,0,0,2.331,1.957l19.566-1.935h.062a2.549,2.549,0,0,0,2.331-2.415V70.688a2.012,2.012,0,0,0-2.331-1.954l-2.849.277v.269a1.632,1.632,0,0,1-1.49,1.546l-.215.022-10.641,1.047a1.291,1.291,0,0,1-1.492-1.251v-.271l-2.946.292a2.537,2.537,0,0,0-.686.163A2.494,2.494,0,0,0,207.85,73.081Z" transform="translate(-205.345 -66.433)" fill="#c2d9e7" style="isolation:isolate"/><g transform="translate(20.824 13.594)"><path d="M113.906,29.989l19.9,1.959a4.084,4.084,0,0,1,3.724,3.859V80.432a3.217,3.217,0,0,1-3.724,3.126l-19.9-1.959a4.084,4.084,0,0,1-3.726-3.857V33.118A3.221,3.221,0,0,1,113.906,29.989Zm-1.825,47.848a2.514,2.514,0,0,0,2.294,2.378l19.34,1.9a1.986,1.986,0,0,0,2.3-1.935V35.676a2.514,2.514,0,0,0-2.3-2.378l-2.9-.286v.264a1.271,1.271,0,0,1-1.469,1.234l-10.7-1.038a1.608,1.608,0,0,1-1.471-1.522V31.7l-2.8-.275a1.985,1.985,0,0,0-2.294,1.935Z" transform="translate(-109.245 -29.97)" fill="#00629b"/><path d="M118.254,33.826l19.905,1.959a4.086,4.086,0,0,1,3.724,3.87V84.269a3.217,3.217,0,0,1-3.724,3.126l-19.905-1.957a4.084,4.084,0,0,1-3.724-3.859V36.954A3.226,3.226,0,0,1,118.254,33.826Zm-1.825,47.848a2.514,2.514,0,0,0,2.3,2.378l19.351,1.9a1.986,1.986,0,0,0,2.3-1.935V39.513a2.516,2.516,0,0,0-2.3-2.38l-2.909-.273v.262a1.271,1.271,0,0,1-1.468,1.234L123,37.3a1.613,1.613,0,0,1-1.469-1.52v-.26l-2.806-.277a1.987,1.987,0,0,0-2.3,1.935Z" transform="translate(-114.53 -32.983)" fill="#fff"/><path d="M121.56,42.385V86.891a2.514,2.514,0,0,0,2.3,2.378l19.351,1.9a1.986,1.986,0,0,0,2.3-1.935V44.731a2.516,2.516,0,0,0-2.3-2.38l-2.909-.282v.262a1.271,1.271,0,0,1-1.468,1.234l-10.7-1.051a1.613,1.613,0,0,1-1.468-1.52v-.26l-2.806-.277A1.986,1.986,0,0,0,121.56,42.385Z" transform="translate(-119.661 -38.192)" fill="#00629b"/><path d="M142.07,33.645l3.677.361V33.7l-3.677-.361Z" transform="translate(-129.709 -29.902)" fill="url(#h)"/><ellipse cx="0.411" cy="0.366" rx="0.411" ry="0.366" transform="translate(11.562 3.97) rotate(-149.69)" fill="url(#i)"/></g></g></g></g></g><g transform="translate(234.323 4792.124)"><g transform="translate(0 0)"><path d="M398.14,113.076v85.581a4.778,4.778,0,0,1-1.23,3.209,4.97,4.97,0,0,1-1.275,1.008.035.035,0,0,0-.029.02,4.836,4.836,0,0,1-2.257.558H331.983c-3.434-4.4-5.6-9.628-8.313-14.529V117.76q7.654-7.11,15.328-14.216c2.811-2.609,5.626-5.218,8.548-7.7h29.372c5.87,4.634,11.741,9.275,17.513,14C395.681,110.894,396.953,111.941,398.14,113.076Z" transform="translate(-317.843 -92.043)" fill="url(#j)"/><g transform="translate(0)"><rect width="76.547" height="107.167" rx="4" fill="#fff"/><rect width="25.019" height="2.427" rx="1.213" transform="translate(42.382 16.455)" fill="#00629b"/><rect width="25.019" height="2.427" rx="1.213" transform="translate(42.382 21.775)" fill="#00629b"/><rect width="56.382" height="2.427" rx="1.213" transform="translate(11.015 31.107)" fill="#00629b"/><rect width="56.382" height="2.427" rx="1.213" transform="translate(11.015 36.428)" fill="#00629b"/><g transform="translate(11.686 46.546)"><rect width="7.805" height="12.882" transform="translate(47.191)" fill="#00629b"/><g transform="translate(0 9.818)" opacity="0.41"><rect width="7.805" height="3.064" fill="#00629b"/></g><rect width="7.805" height="5.45" transform="translate(11.794 7.433)" fill="#00629b"/><g transform="translate(23.589 4.919)" opacity="0.5"><rect width="7.805" height="7.964" fill="#00629b"/></g><rect width="7.805" height="10.414" transform="translate(35.396 2.469)" fill="#00629b"/><rect width="7.805" height="12.882" transform="translate(47.191)" fill="url(#k)"/></g></g></g><g transform="translate(13.526 65.967)"><path d="M157.687,51.038a8.85,8.85,0,0,1-8.857,8.857H115.712a8.854,8.854,0,1,1-.434-17.7,8.536,8.536,0,0,1,8.391-7.058H124.8a8.545,8.545,0,0,1,5.428,1.95,10.243,10.243,0,0,1,19.788,3.752,7.671,7.671,0,0,1-.12,1.425A8.846,8.846,0,0,1,157.687,51.038Z" transform="translate(-106.64 -28.884)" fill="#00629b"/><path d="M157.687,51.038a8.85,8.85,0,0,1-8.857,8.857H115.712a8.854,8.854,0,1,1-.434-17.7,8.536,8.536,0,0,1,8.391-7.058H124.8a8.545,8.545,0,0,1,5.428,1.95,10.243,10.243,0,0,1,19.788,3.752,7.671,7.671,0,0,1-.12,1.425A8.846,8.846,0,0,1,157.687,51.038Z" transform="translate(-106.64 -28.884)" fill="url(#l)"/><path d="M159.046,42.765a8.3,8.3,0,0,1-2.574,6,8.938,8.938,0,0,1-6.22,2.488H117.369a8.646,8.646,0,0,1-8.809-8.488,8.319,8.319,0,0,1,2.574-6.007,8.891,8.891,0,0,1,5.8-2.47,8.009,8.009,0,0,1,2.352-4.367,8.6,8.6,0,0,1,5.982-2.4H126.4a8.683,8.683,0,0,1,5.387,1.866,10.133,10.133,0,0,1,9.461-6.233,10,10,0,0,1,10.178,9.825,7.029,7.029,0,0,1-.12,1.357A8.6,8.6,0,0,1,159.046,42.765Z" transform="translate(-108.126 -23.16)" fill="#5796ba"/><path d="M211.26,29.684l2.311,2.391s1.436-8.626,10.485-8.034C224.057,24.041,215.544,21.035,211.26,29.684Z" transform="translate(-187.598 -23.45)" fill="url(#m)"/><path d="M145.6,49.487a3.942,3.942,0,0,1,3.209,1.721s.337-7.69,6.869-7.823c0,0-2.676-1.71-6.405.7A7.962,7.962,0,0,0,145.6,49.487Z" transform="translate(-136.788 -38.354)" fill="url(#n)"/></g><g transform="matrix(1, 0, 0, 1, -263.7, -492.24)" filter="url(#o)"><path d="M6.583.946v1.49a.943.943,0,0,1-.937.949H1.284A1.284,1.284,0,0,0,0,4.669H0v2A1.285,1.285,0,0,0,1.284,7.956H5.726a.943.943,0,0,1,.944.941v1.617a.944.944,0,0,0,.946.94.954.954,0,0,0,.425-.1.442.442,0,0,0,.051-.032L14.32,6.659a.942.942,0,0,0-.01-1.654L8,.133A.279.279,0,0,0,7.939.1.943.943,0,0,0,6.583.949Z" transform="translate(309.44 569.26) rotate(90)" fill="#fff"/></g></g><g transform="matrix(0.996, -0.087, 0.087, 0.996, -1, 4819.163)"><path d="M1.581.12C.8.139-.287.645.07,1.334a1.142,1.142,0,0,0,.448.4,24.849,24.849,0,0,0,8.2,2.7A92.132,92.132,0,0,0,33.867,5.593a3.087,3.087,0,0,0,1.644-.477C38.018,3.177,29.8,2.4,28.822,2.158a46.123,46.123,0,0,0-6.037-1.5A153.2,153.2,0,0,0,1.581.12Z" transform="translate(0 76.732)" fill="#00629b" opacity="0.24" style="isolation:isolate"/><path d="M6.344,0,17.638,1.922l-7.567,11L0,10.13Z" transform="translate(38.142 14.106)" fill="#fff"/><path d="M2.588,20.091C1.55,23.443.267,26.771.02,30.272a2.987,2.987,0,0,0,.06,1.038C.417,32.462,1.82,32.856,3,33.062c.567.1,1.305.118,1.548-.4s-.264-1.1-.766-1.395-1.11-.612-1.193-1.189a1.793,1.793,0,0,1,.305-1.05,36.736,36.736,0,0,0,1.918-4.667L7.7,16.3a33.14,33.14,0,0,0,1.31-4.234A31.421,31.421,0,0,0,9.5,5.352a8.15,8.15,0,0,0-.552-3.565A3.184,3.184,0,0,0,7.193.145c-1.1-.363-1.141-.037-1.245.917-.255,2.133-.3,4.29-.581,6.434a76.9,76.9,0,0,1-2.779,12.6Z" transform="translate(10.366 45.803)" fill="url(#q)"/><path d="M.357.057q.529,15.49-.34,30.985a1.467,1.467,0,0,0,.114.83,1.361,1.361,0,0,0,1.125.513,9.066,9.066,0,0,0,2.551-.137,1.048,1.048,0,0,0,.7-.357.823.823,0,0,0-.33-1.052,5.757,5.757,0,0,0-1.129-.463.909.909,0,0,1-.45-.336,1.111,1.111,0,0,1-.021-.83C4.635,20.453,5.542,11.326,4.135,2.437,3.964,1.366,3.483.042,2.4,0,1.524-.032.914.831.476,1.584" transform="translate(22.24 47.124)" fill="url(#r)"/><path d="M3.892,3.016a5.141,5.141,0,0,0,2.131,1A5.976,5.976,0,0,0,5.544,2.04a1.685,1.685,0,0,1,.4-1.868C6.6-.263,7.49.193,7.986.8A7.866,7.866,0,0,1,9.092,2.931l.936,2.376a2.675,2.675,0,0,1,.247.98A1.833,1.833,0,0,1,9.813,7.4a3.813,3.813,0,0,1-4.032.928A9.364,9.364,0,0,1,2.194,5.878C1.412,5.108-.695,3.08.231,1.852,1.231.525,3.047,2.441,3.892,3.016Z" transform="translate(24.974 17.107)" fill="#00629b"/><path d="M3.892,3.016a5.141,5.141,0,0,0,2.131,1A5.976,5.976,0,0,0,5.544,2.04a1.685,1.685,0,0,1,.4-1.868C6.6-.263,7.49.193,7.986.8A7.866,7.866,0,0,1,9.092,2.931l.936,2.376a2.675,2.675,0,0,1,.247.98A1.833,1.833,0,0,1,9.813,7.4a3.813,3.813,0,0,1-4.032.928A9.364,9.364,0,0,1,2.194,5.878C1.412,5.108-.695,3.08.231,1.852,1.231.525,3.047,2.441,3.892,3.016Z" transform="translate(24.974 17.107)" fill="url(#s)"/><path d="M.033,1.321A2.113,2.113,0,0,0,1.224,2.784a3.556,3.556,0,0,1,.444.208,1.735,1.735,0,0,1,.6.805,3.024,3.024,0,0,0,.5.886.83.83,0,0,0,.924.239.851.851,0,0,0,.334-.34A1.947,1.947,0,0,0,4.18,3.2a6.3,6.3,0,0,0-.511-1.324A4.478,4.478,0,0,0,2.818.5C2.019-.277-.3-.254.033,1.321Z" transform="translate(27.817 13.59)" fill="url(#t)"/><path d="M14.125,1.3A1.019,1.019,0,0,0,13.594.263,2.424,2.424,0,0,0,12.388,0a5.02,5.02,0,0,0-1.66.22A5.351,5.351,0,0,0,8.219,2.27c-.641.886-1.152,1.868-1.8,2.752A7.3,7.3,0,0,1,1.534,8.116,1.693,1.693,0,0,0,.4,8.489a1.341,1.341,0,0,0-.27.67,5.292,5.292,0,0,0,.039,2.472A2.905,2.905,0,0,0,1.7,13.5c.152.066.328.135.386.288a.6.6,0,0,1-.033.382A3,3,0,0,0,2,15.506a3.059,3.059,0,0,0,4.97,1.8,2.881,2.881,0,0,0,4.9-.907c.22-.623.224-1.287.388-1.92.415-1.565,1.706-2.7,2.679-3.993a9.163,9.163,0,0,0,1.718-3.75,14.156,14.156,0,0,0,.208-2.391,4.245,4.245,0,0,0-.367-2.187A3.937,3.937,0,0,0,14.829.771,3.931,3.931,0,0,0,12.413.159" transform="translate(10.979 8.269)" fill="#606161"/><path d="M.061,6.021a9.833,9.833,0,0,0,.05,1.833A3.856,3.856,0,0,0,.565,9.389a1.749,1.749,0,0,0,1.278.886A1.436,1.436,0,0,0,2.989,9.86c.295-.3-1.488-2.874-1.112-2.683C4.16,8.341,4.12,3.279,4.16,2.717A3.186,3.186,0,0,0,3.784.9,1.779,1.779,0,0,0,2.234,0,1.847,1.847,0,0,0,.877.83a4.209,4.209,0,0,0-.6,1.525A11.923,11.923,0,0,0,.02,5.6" transform="translate(22.296 9.91)" fill="url(#u)"/><path d="M3.275.4A1.41,1.41,0,0,0,1.664.216,2.679,2.679,0,0,0,.531,1.488a5.072,5.072,0,0,0-.44,1.361A10.24,10.24,0,0,0,.039,5.105C.112,6.6.172,8.087.128,9.578a6.793,6.793,0,0,0,.124,2.032,3.688,3.688,0,0,0,2.283,2.347,5.871,5.871,0,0,0,3.337.147,1.3,1.3,0,0,0,.469-.174,1.28,1.28,0,0,0,.3-.324,6.525,6.525,0,0,0,.623-1.063,13.008,13.008,0,0,0,.809-2.773A30.048,30.048,0,0,0,8.953,3.52,3.96,3.96,0,0,0,8.587,1.61,2.945,2.945,0,0,0,6.96.309,6.515,6.515,0,0,0,4.862,0,16.7,16.7,0,0,0,2.038.2" transform="translate(18.341 18.031)" fill="#00629b"/><path d="M7.937,7.621s-5.006-.668-5.3-1.077-.99,5.761-.99,5.761S.08,12.6.02,11.431-.016,1.277.877.185s.191,2.98,4.267,3.447S8.111,6.368,8.111,6.368Z" transform="translate(18.795 18.74)" fill="url(#v)"/><path d="M6.327,6.547c2.231.486,9.015.075,9.837-1.038a2.933,2.933,0,0,0,.4-1.332,2.061,2.061,0,0,0-.135-1.129c-.22-.378-.623-.361-.971-.32a44.733,44.733,0,0,1-6.413.232,8.13,8.13,0,0,1-4.209-.919C4.121,1.6,3.478.969,2.774.5S1.149-.3.45.394A1.853,1.853,0,0,0,.242,2.546c.82,1.743,2.7,2.793,4.047,3.441A6.382,6.382,0,0,0,6.327,6.547Z" transform="translate(19.222 18.523)" fill="#00629b"/><path d="M.149,4.336c1.762.623,3.761.019,5.541-.552A2.306,2.306,0,0,0,6.626,3.3c.251-.247.39-.585.623-.849C7.755,1.881,8.6,1.763,9.207,1.3a.475.475,0,0,0,.164-.187.435.435,0,0,0,0-.291A1.245,1.245,0,0,0,8.384.026a2.993,2.993,0,0,0-1.316.12A10.4,10.4,0,0,0,4.092,1.464a9.285,9.285,0,0,1-2.47,1.411c-.55.151-1.216.208-1.511.691C.1,3.566-.159,4.23.149,4.336Z" transform="translate(34.295 19.115)" fill="url(#w)"/><path d="M14.341,17.979a2.773,2.773,0,0,1-.438,1.546,2.851,2.851,0,0,1-1.413.795,25.163,25.163,0,0,1-5.757,1.413A9.229,9.229,0,0,1,2.5,21.162a6.79,6.79,0,0,1-1.424-.768,2.322,2.322,0,0,1-.751-.778,2.92,2.92,0,0,1-.257-1.191C-.3,12.323.834,5.879,4.448,1.009,4.7.662,4.968.33,5.251,0c2,.338,4.117.3,6.145.479A37.892,37.892,0,0,1,14.341,17.979Z" transform="translate(14.099 30.844)" fill="#00629b"/><path d="M4.747,1.375A3.8,3.8,0,0,1,.407,5.131a.272.272,0,0,1-.274-.224,3.642,3.642,0,0,1,.892-3.333A4.136,4.136,0,0,1,2.449.371,4.566,4.566,0,0,1,3.871.018c.291-.031.805-.058.959.259C4.956.539,4.747,1.08,4.747,1.375Z" transform="translate(20.215 9.076)" fill="#606161"/><path d="M11.492,6.145c-.042.241-.28.438-.645.587a12.343,12.343,0,0,1-4.622.488C4.5,7.1,1.941,7.857,1.037,7.8a3.031,3.031,0,0,1-.313-.033c-.662-.1-.87-.388-.623-.951.288-.645,5.153-3.9,5.649-4.8A8.4,8.4,0,0,1,8.163,0S11.667,5.153,11.492,6.145Z" transform="translate(26.243 9.275)" fill="#fff"/><path d="M10.14,1.523a12.343,12.343,0,0,1-4.622.488C3.8,1.895,1.234,2.648.33,2.59a3.039,3.039,0,0,1-.313-.033c-.075-.158.125-.33.3-.415A14.527,14.527,0,0,1,5.2.917c.282-.017.637-.108.662-.38,0-.191-.141-.43.017-.538.025,0,.6.463.679.5a1.1,1.1,0,0,0,.571.141,7.08,7.08,0,0,1,1.463.446c.479.133,1.017,0,1.473.208a.207.207,0,0,1,.106.081A.189.189,0,0,1,10.14,1.523Z" transform="translate(26.959 14.475)" fill="url(#x)"/><path d="M4.151,6.788a2.527,2.527,0,0,1-.818.141A3.508,3.508,0,0,1,.258,4.439,3.756,3.756,0,0,1,.43,1.326,2.467,2.467,0,0,1,1.779.137c1.5-.529,3.242.521,3.9,2.356S5.658,6.251,4.151,6.788Z" transform="translate(32.905 9.036)" fill="#00629b"/><path d="M3.333,5.6A3.508,3.508,0,0,1,.258,3.113,3.756,3.756,0,0,1,.43,0,3.635,3.635,0,0,1,3.458,2.532,3.893,3.893,0,0,1,3.333,5.6Z" transform="translate(32.905 10.362)" fill="url(#y)"/><path d="M1.7,0A1.707,1.707,0,0,0,1.22.074,1.986,1.986,0,0,0,.149,1.128a1.2,1.2,0,0,0-.139.4.471.471,0,0,0,.45.569,1.263,1.263,0,0,0,.394-.042,2.428,2.428,0,0,0,1.09-.519A1.339,1.339,0,0,0,2.416.456.6.6,0,0,0,2.337.19C2.206-.022,1.915,0,1.7,0Z" transform="translate(27.315 13.492)" fill="url(#z)"/><path d="M2.841.026A1.068,1.068,0,0,0,2.31.042c-.326.122-.469.5-.575.83l-1.66,5.3A.83.83,0,0,0,.048,6.8a.805.805,0,0,0,.342.295A10.866,10.866,0,0,0,5.315,8.448,1.073,1.073,0,0,0,6.16,8.2a.915.915,0,0,0,.176-.571,2.951,2.951,0,0,0-.315-1.453c-.247-.49-.623-.9-.9-1.38a3.684,3.684,0,0,1-.187-3.163C5.17,1.047,5.172.9,4.568.588A5.634,5.634,0,0,0,2.841.026Z" transform="translate(9.189 71.681)" fill="#00629b"/><path d="M1.547,0a1.025,1.025,0,0,0-.517.12,1.179,1.179,0,0,0-.4.926l-.6,5.527a.83.83,0,0,0,.1.623.789.789,0,0,0,.392.222,10.9,10.9,0,0,0,5.095.369,1.049,1.049,0,0,0,.782-.4.921.921,0,0,0,.062-.594,2.978,2.978,0,0,0-.594-1.368C5.517,5,5.064,4.665,4.705,4.25a3.69,3.69,0,0,1-.8-3.065C4.018.562,4,.417,3.34.226A5.624,5.624,0,0,0,1.547,0Z" transform="translate(21.495 72.778)" fill="#00629b"/><path d="M2.841.026A1.068,1.068,0,0,0,2.31.042c-.326.122-.469.5-.575.83l-1.66,5.3A.83.83,0,0,0,.048,6.8a.805.805,0,0,0,.342.295A10.866,10.866,0,0,0,5.315,8.448,1.073,1.073,0,0,0,6.16,8.2a.915.915,0,0,0,.176-.571,2.951,2.951,0,0,0-.315-1.453c-.247-.49-.623-.9-.9-1.38a3.684,3.684,0,0,1-.187-3.163C5.17,1.047,5.172.9,4.568.588A5.634,5.634,0,0,0,2.841.026Z" transform="translate(9.189 71.681)" fill="url(#aa)"/><path d="M1.547,0a1.025,1.025,0,0,0-.517.12,1.179,1.179,0,0,0-.4.926l-.6,5.527a.83.83,0,0,0,.1.623.789.789,0,0,0,.392.222,10.9,10.9,0,0,0,5.095.369,1.049,1.049,0,0,0,.782-.4.921.921,0,0,0,.062-.594,2.978,2.978,0,0,0-.594-1.368C5.517,5,5.064,4.665,4.705,4.25a3.69,3.69,0,0,1-.8-3.065C4.018.562,4,.417,3.34.226A5.624,5.624,0,0,0,1.547,0Z" transform="translate(21.495 72.778)" fill="url(#ab)"/><path d="M4.985,3.2A21.53,21.53,0,0,0,3.422,9.541c-.355,3.416-.166,6.849-.313,10.279a.647.647,0,0,1-.124.415.515.515,0,0,1-.347.139.729.729,0,0,1-.141.017,6.788,6.788,0,0,1-1.424-.768,2.322,2.322,0,0,1-.751-.778,2.92,2.92,0,0,1-.257-1.191C-.3,11.552.834,5.108,4.448.237,5.193-.01,6.06-.217,6.3.445,6.49,1,5.218,2.653,4.985,3.2Z" transform="translate(14.101 31.624)" fill="url(#ac)"/><path d="M0,5.971,3.924,0,5.861,1.837l-4.4,5.109Z" transform="translate(39.383 0)" fill="url(#ad)"/><path d="M0,3.271,6.479,0,7.5,2.571.965,4.854Z" transform="translate(40.832 4.08)" fill="url(#ae)"/><path d="M.033,0,7.257.7,6.747,3.422,0,1.853Z" transform="translate(42.062 9.2)" fill="url(#af)"/></g></g><g transform="translate(16 -4416)"><g transform="matrix(1, 0, 0, 1, -16, 4416)" filter="url(#ah)"><rect width="264" height="48" rx="24" transform="translate(56 232)" fill="url(#ag)"/></g><g transform="translate(3)"><path d="M1.3,0H8.848V-2.368H3.9v-9.568H1.3ZM14.272.224a4.514,4.514,0,0,0,4.656-4.656,4.5,4.5,0,0,0-4.656-4.656A4.514,4.514,0,0,0,9.616-4.432,4.523,4.523,0,0,0,14.272.224Zm0-2.3a2.149,2.149,0,0,1-2.064-2.352,2.149,2.149,0,0,1,2.064-2.352,2.16,2.16,0,0,1,2.08,2.352A2.17,2.17,0,0,1,14.272-2.08Zm9.792-6.992A4.232,4.232,0,0,0,20.1-4.64,4.177,4.177,0,0,0,24.032-.176a3.239,3.239,0,0,0,2.72-1.472v.816c0,1.3-1.088,2.192-2.656,2.192A5.2,5.2,0,0,1,20.976.144V2.576a5.985,5.985,0,0,0,3.36,1.008c2.9,0,4.976-1.712,4.976-4.7V-8.864h-2.16L26.9-7.536A3.358,3.358,0,0,0,24.064-9.072Zm.672,2.256A2.073,2.073,0,0,1,26.784-4.64a2.091,2.091,0,0,1-2.048,2.208,2.09,2.09,0,0,1-2.064-2.192A2.109,2.109,0,0,1,24.736-6.816ZM36.72-10.08a1.383,1.383,0,0,0,1.392-1.392,1.379,1.379,0,0,0-1.392-1.376,1.373,1.373,0,0,0-1.408,1.376A1.377,1.377,0,0,0,36.72-10.08ZM35.44,0H38V-8.864H35.44ZM45.1-9.088a3.117,3.117,0,0,0-2.672,1.472h-.048l-.256-1.248H40.144V0H42.7V-5.248a1.466,1.466,0,0,1,1.536-1.52c.928,0,1.408.5,1.408,1.584V0h2.56V-5.92A2.893,2.893,0,0,0,45.1-9.088Zm12.064-1.824H54.7v2.048H53.44v2.112h1.248v3.344A3.3,3.3,0,0,0,58.3.192,6.076,6.076,0,0,0,59.7.048V-2.1a5.009,5.009,0,0,1-.8.08c-.992,0-1.728-.432-1.728-1.552V-6.752h2.368V-8.864H57.168ZM65.328.224a4.514,4.514,0,0,0,4.656-4.656,4.5,4.5,0,0,0-4.656-4.656,4.514,4.514,0,0,0-4.656,4.656A4.523,4.523,0,0,0,65.328.224Zm0-2.3a2.149,2.149,0,0,1-2.064-2.352,2.149,2.149,0,0,1,2.064-2.352,2.16,2.16,0,0,1,2.08,2.352A2.17,2.17,0,0,1,65.328-2.08ZM77.936,0h2.592V-9.552h3.488v-2.384H74.432v2.384h3.5Zm9.488.224A3.332,3.332,0,0,0,90.336-1.36L90.592,0h2.16V-8.864h-2.16L90.336-7.5a3.367,3.367,0,0,0-2.912-1.584c-2,0-3.936,1.856-3.936,4.688C83.488-1.632,85.424.224,87.424.224Zm.752-2.3a2.174,2.174,0,0,1-2.112-2.352,2.183,2.183,0,0,1,2.112-2.352A2.148,2.148,0,0,1,90.24-4.432,2.148,2.148,0,0,1,88.176-2.08Zm10-7.008c-2.288,0-3.616,1.2-3.616,2.832,0,1.616,1.312,2.192,2.72,2.592,1.152.32,1.792.5,1.792,1.04,0,.48-.512.768-1.408.768a4.771,4.771,0,0,1-3.056-1.1V-.608a5.838,5.838,0,0,0,3.168.832c2.4,0,3.776-1.12,3.776-2.864,0-1.872-1.552-2.368-3.008-2.72-1.008-.272-1.52-.464-1.52-.944,0-.432.448-.7,1.248-.7a5.139,5.139,0,0,1,2.7.784V-8.4A5.577,5.577,0,0,0,98.176-9.088ZM103.2,3.36h2.56V-1.3a3.275,3.275,0,0,0,2.784,1.52c2.08,0,3.92-1.808,3.92-4.656,0-2.832-1.9-4.656-3.968-4.656A3.4,3.4,0,0,0,105.6-7.5l-.256-1.36H103.2Zm4.576-5.44a2.137,2.137,0,0,1-2.048-2.352,2.139,2.139,0,0,1,2.064-2.352,2.145,2.145,0,0,1,2.08,2.336A2.176,2.176,0,0,1,107.776-2.08ZM114.144,0h2.56V-12.848h-2.56Zm8.16.224a3.332,3.332,0,0,0,2.912-1.584L125.472,0h2.16V-8.864h-2.16l-.256,1.36A3.367,3.367,0,0,0,122.3-9.088c-2,0-3.936,1.856-3.936,4.688C118.368-1.632,120.3.224,122.3.224Zm.752-2.3a2.174,2.174,0,0,1-2.112-2.352,2.183,2.183,0,0,1,2.112-2.352,2.148,2.148,0,0,1,2.064,2.352A2.148,2.148,0,0,1,123.056-2.08ZM134.72-9.088a3.117,3.117,0,0,0-2.672,1.472H132l-.256-1.248H129.76V0h2.56V-5.248a1.466,1.466,0,0,1,1.536-1.52c.928,0,1.408.5,1.408,1.584V0h2.56V-5.92A2.893,2.893,0,0,0,134.72-9.088ZM149.6.272a6.031,6.031,0,0,0,6.144-6.24,6.031,6.031,0,0,0-6.144-6.24,6.057,6.057,0,0,0-6.176,6.24A6.038,6.038,0,0,0,149.6.272Zm0-2.384a3.581,3.581,0,0,1-3.536-3.856,3.576,3.576,0,0,1,3.536-3.84,3.571,3.571,0,0,1,3.5,3.84A3.586,3.586,0,0,1,149.6-2.112Zm12.816-6.976a3.117,3.117,0,0,0-2.672,1.472H159.7l-.256-1.248h-1.984V0h2.56V-5.248a1.466,1.466,0,0,1,1.536-1.52c.928,0,1.408.5,1.408,1.584V0h2.56V-5.92A2.893,2.893,0,0,0,162.416-9.088ZM167.6,0h2.56V-12.848H167.6Zm6-10.08a1.383,1.383,0,0,0,1.392-1.392,1.379,1.379,0,0,0-1.392-1.376,1.373,1.373,0,0,0-1.408,1.376A1.377,1.377,0,0,0,173.6-10.08ZM172.32,0h2.56V-8.864h-2.56Zm9.664-9.088a3.117,3.117,0,0,0-2.672,1.472h-.048l-.256-1.248h-1.984V0h2.56V-5.248a1.466,1.466,0,0,1,1.536-1.52c.928,0,1.408.5,1.408,1.584V0h2.56V-5.92A2.893,2.893,0,0,0,181.984-9.088Zm13.232,4.512c0-2.96-1.84-4.512-4.1-4.512A4.431,4.431,0,0,0,186.672-4.4c0,2.688,1.792,4.624,4.912,4.624a6.083,6.083,0,0,0,3.088-.8v-2.1a5.151,5.151,0,0,1-2.768.88,2.665,2.665,0,0,1-2.784-1.92h6.032A4.755,4.755,0,0,0,195.216-4.576Zm-6.144-.672A2.132,2.132,0,0,1,191.1-7.072a1.671,1.671,0,0,1,1.68,1.824Z" transform="translate(83 4677)" fill="#fff"/><g transform="translate(50.808 4659)"><path d="M32.036,13.3c2.142,0,3.884-2.273,3.884-4.415a3.884,3.884,0,1,0-7.768,0C28.152,11.026,29.895,13.3,32.036,13.3Z" transform="translate(-15.589)" fill="#fff"/><path d="M19.363,51.908a4.461,4.461,0,0,1-2.712.916h-.409a4.461,4.461,0,0,1-2.712-.916,5.17,5.17,0,0,0-4.339,5.1c0,1.413,3.248,2.559,7.255,2.559S23.7,58.423,23.7,57.01A5.17,5.17,0,0,0,19.363,51.908Z" transform="translate(0 -38.569)" fill="#fff"/></g></g></g><g transform="translate(16 -4408)"><g transform="matrix(1, 0, 0, 1, -16, 4408)" filter="url(#ak)"><rect width="264" height="48" rx="24" transform="translate(56 304)" fill="url(#aj)"/></g><g transform="translate(24)"><path d="M10.048-.56V-3.184A5.017,5.017,0,0,1,7.04-2.128a3.728,3.728,0,0,1-3.776-3.84A3.7,3.7,0,0,1,7.04-9.792a5.06,5.06,0,0,1,3.008.992v-2.592a6.826,6.826,0,0,0-3.28-.816A6.048,6.048,0,0,0,.624-5.968,6.048,6.048,0,0,0,6.768.272,6.693,6.693,0,0,0,10.048-.56ZM15.9.224A4.514,4.514,0,0,0,20.56-4.432,4.5,4.5,0,0,0,15.9-9.088a4.514,4.514,0,0,0-4.656,4.656A4.523,4.523,0,0,0,15.9.224Zm0-2.3A2.149,2.149,0,0,1,13.84-4.432,2.149,2.149,0,0,1,15.9-6.784a2.16,2.16,0,0,1,2.08,2.352A2.17,2.17,0,0,1,15.9-2.08ZM27.168-9.088A3.117,3.117,0,0,0,24.5-7.616h-.048l-.256-1.248H22.208V0h2.56V-5.248A1.466,1.466,0,0,1,26.3-6.768c.928,0,1.408.5,1.408,1.584V0h2.56V-5.92A2.893,2.893,0,0,0,27.168-9.088Zm8.144-1.824H32.848v2.048H31.584v2.112h1.248v3.344a3.3,3.3,0,0,0,3.616,3.6A6.076,6.076,0,0,0,37.84.048V-2.1a5.009,5.009,0,0,1-.8.08c-.992,0-1.728-.432-1.728-1.552V-6.752H37.68V-8.864H35.312ZM42.768.224A3.332,3.332,0,0,0,45.68-1.36L45.936,0H48.1V-8.864h-2.16L45.68-7.5a3.367,3.367,0,0,0-2.912-1.584c-2,0-3.936,1.856-3.936,4.688C38.832-1.632,40.768.224,42.768.224Zm.752-2.3a2.174,2.174,0,0,1-2.112-2.352A2.183,2.183,0,0,1,43.52-6.784a2.148,2.148,0,0,1,2.064,2.352A2.148,2.148,0,0,1,43.52-2.08Zm8.8-2.352a2.319,2.319,0,0,1,2.448-2.352,3.886,3.886,0,0,1,2.224.672V-8.464a5.2,5.2,0,0,0-2.608-.624,4.538,4.538,0,0,0-4.656,4.64A4.537,4.537,0,0,0,54.384.224a5.749,5.749,0,0,0,2.608-.608V-2.736a3.685,3.685,0,0,1-2.224.656A2.31,2.31,0,0,1,52.32-4.432Zm9.5-6.48H59.36v2.048H58.1v2.112h1.248v3.344A3.3,3.3,0,0,0,62.96.192,6.076,6.076,0,0,0,64.352.048V-2.1a5.009,5.009,0,0,1-.8.08c-.992,0-1.728-.432-1.728-1.552V-6.752h2.368V-8.864H61.824ZM73.744.224A3.713,3.713,0,0,0,77.808-3.6V-8.864h-2.56v5.248a1.375,1.375,0,0,1-1.5,1.536A1.343,1.343,0,0,1,72.288-3.6V-8.864h-2.56V-3.6A3.682,3.682,0,0,0,73.744.224ZM83.12-9.088c-2.288,0-3.616,1.2-3.616,2.832,0,1.616,1.312,2.192,2.72,2.592,1.152.32,1.792.5,1.792,1.04,0,.48-.512.768-1.408.768a4.771,4.771,0,0,1-3.056-1.1V-.608A5.838,5.838,0,0,0,82.72.224C85.12.224,86.5-.9,86.5-2.64c0-1.872-1.552-2.368-3.008-2.72-1.008-.272-1.52-.464-1.52-.944,0-.432.448-.7,1.248-.7a5.139,5.139,0,0,1,2.7.784V-8.4A5.577,5.577,0,0,0,83.12-9.088ZM92.8,0h2.56V-6.752h2.3V-8.864H95.328v-.688c0-.848.48-1.216,1.408-1.216a4.448,4.448,0,0,1,1.248.192V-12.72a5.533,5.533,0,0,0-1.7-.272A3.231,3.231,0,0,0,92.8-9.76v.9H91.584v2.112H92.8Zm10.112.224a4.514,4.514,0,0,0,4.656-4.656,4.5,4.5,0,0,0-4.656-4.656,4.514,4.514,0,0,0-4.656,4.656A4.523,4.523,0,0,0,102.912.224Zm0-2.3a2.149,2.149,0,0,1-2.064-2.352,2.149,2.149,0,0,1,2.064-2.352,2.16,2.16,0,0,1,2.08,2.352A2.17,2.17,0,0,1,102.912-2.08Zm6.3,2.08h2.56V-4.336a1.98,1.98,0,0,1,2.1-2.24,2.883,2.883,0,0,1,.736.08V-8.9a2.735,2.735,0,0,0-.672-.064,2.713,2.713,0,0,0-2.4,1.424H111.5l-.256-1.328h-2.032Zm12.912-12.848h-2.56V0h2.56V-5.3a1.431,1.431,0,0,1,1.536-1.488c.944,0,1.408.5,1.408,1.584V0h2.56V-5.92a2.89,2.89,0,0,0-3.12-3.168A3.037,3.037,0,0,0,122.144-8h-.016ZM137.76-4.576c0-2.96-1.84-4.512-4.1-4.512A4.431,4.431,0,0,0,129.216-4.4c0,2.688,1.792,4.624,4.912,4.624a6.083,6.083,0,0,0,3.088-.8v-2.1a5.151,5.151,0,0,1-2.768.88,2.665,2.665,0,0,1-2.784-1.92H137.7A4.755,4.755,0,0,0,137.76-4.576Zm-6.144-.672a2.132,2.132,0,0,1,2.032-1.824,1.671,1.671,0,0,1,1.68,1.824ZM139.44,0H142V-12.848h-2.56Zm4.7,3.36h2.56V-1.3a3.275,3.275,0,0,0,2.784,1.52c2.08,0,3.92-1.808,3.92-4.656,0-2.832-1.9-4.656-3.968-4.656a3.4,3.4,0,0,0-2.9,1.584l-.256-1.36h-2.144Zm4.576-5.44a2.137,2.137,0,0,1-2.048-2.352,2.139,2.139,0,0,1,2.064-2.352,2.145,2.145,0,0,1,2.08,2.336A2.176,2.176,0,0,1,148.72-2.08Z" transform="translate(83 4741)" fill="#fff"/><path d="M6.5,16.2a5.788,5.788,0,0,1-.164,2.536.516.516,0,0,0,.723.608,7.763,7.763,0,0,0,3.4-3.077H11.53a6.436,6.436,0,0,0,6.441-6.434h0A6.436,6.436,0,0,0,11.537,3.4h-4.1A6.436,6.436,0,0,0,1,9.836H1A6.436,6.436,0,0,0,6.5,16.2Zm5.577-7.3a.936.936,0,1,1-.936.936A.936.936,0,0,1,12.077,8.9Zm-2.592,0a.936.936,0,1,1-.936.936A.936.936,0,0,1,9.485,8.9Zm-2.592,0a.936.936,0,1,1-.936.936A.936.936,0,0,1,6.893,8.9Z" transform="translate(59 4724.6)" fill="#fff"/></g></g></g></svg>