<svg xmlns="http://www.w3.org/2000/svg" xmlns:xlink="http://www.w3.org/1999/xlink" width="375" height="628" viewBox="0 0 375 628"><defs><linearGradient id="a" x1="0.098" x2="1.187" y2="2.526" gradientUnits="objectBoundingBox"><stop offset="0" stop-color="#003865"/><stop offset="1" stop-color="#0d2d46"/></linearGradient><linearGradient id="b" x1="0.908" y1="6.632" x2="-0.383" y2="5.96" gradientUnits="objectBoundingBox"><stop offset="0" stop-color="#00a0ff"/><stop offset="0.007" stop-color="#00a1ff"/><stop offset="0.26" stop-color="#00beff"/><stop offset="0.512" stop-color="#00d2ff"/><stop offset="0.76" stop-color="#00dfff"/><stop offset="1" stop-color="#00e3ff"/></linearGradient><linearGradient id="c" x1="1.077" y1="17.2" x2="-1.307" y2="17.2" gradientUnits="objectBoundingBox"><stop offset="0" stop-color="#ffe000"/><stop offset="0.409" stop-color="#ffbd00"/><stop offset="0.775" stop-color="orange"/><stop offset="1" stop-color="#ff9c00"/></linearGradient><linearGradient id="d" x1="0.864" y1="10.839" x2="-0.499" y2="9.074" gradientUnits="objectBoundingBox"><stop offset="0" stop-color="#ff3a44"/><stop offset="1" stop-color="#c31162"/></linearGradient><linearGradient id="e" x1="-0.186" y1="13.614" x2="0.423" y2="12.822" gradientUnits="objectBoundingBox"><stop offset="0" stop-color="#32a071"/><stop offset="0.068" stop-color="#2da771"/><stop offset="0.476" stop-color="#15cf74"/><stop offset="0.801" stop-color="#06e775"/><stop offset="1" stop-color="#00f076"/></linearGradient><clipPath id="g"><rect width="375" height="628"/></clipPath></defs><g id="f" clip-path="url(#g)"><rect width="375" height="628" fill="#fff"/><rect width="375" height="628" fill="url(#a)"/><path d="M-581.071-654.145s20.254.344,19.764-4.29c-.246-2.281-4.61-3.506-9.588-3.85-2.893-.2-.246-.049-.246-.049s11.6.245,14.174,3.531c2.512,3.161-6.382,4.8-17.964,4.8C-576.914-654-578.974-654.048-581.071-654.145ZM-546.4-655.3v-5.567h.49v.589a1.45,1.45,0,0,1,.539-.491,1.857,1.857,0,0,1,.785-.171,1.471,1.471,0,0,1,1.177.515,2.183,2.183,0,0,1,.417,1.372,3.049,3.049,0,0,1-.122.859,2,2,0,0,1-.344.687,1.415,1.415,0,0,1-.563.441,1.678,1.678,0,0,1-.711.148,1.39,1.39,0,0,1-.663-.148,1.456,1.456,0,0,1-.515-.441v2.207Zm1.4-5.125a1.166,1.166,0,0,0-.368.147,1.515,1.515,0,0,0-.318.221,1.229,1.229,0,0,0-.246.344v1.594h.025a1.7,1.7,0,0,0,.539.563,1.228,1.228,0,0,0,.663.2,1.118,1.118,0,0,0,.491-.122,1.3,1.3,0,0,0,.392-.343,1.372,1.372,0,0,0,.245-.54,2.866,2.866,0,0,0,.1-.687,1.548,1.548,0,0,0-.318-1.054,1,1,0,0,0-.809-.393A2.6,2.6,0,0,0-545-660.422Zm-3.679,3.507c-.931,0-1.4-.589-1.4-1.742v-2.231h.491v2.133a1.936,1.936,0,0,0,.22,1.055.811.811,0,0,0,.735.318.956.956,0,0,0,.613-.2,1.874,1.874,0,0,0,.491-.563v-2.722h.49v3.875h-.49v-.539a1.342,1.342,0,0,1-1.08.615Zm6.5-.54a1.755,1.755,0,0,1-.344-.637,3.039,3.039,0,0,1-.122-.858,2.784,2.784,0,0,1,.122-.784,1.666,1.666,0,0,1,.368-.638,1.872,1.872,0,0,1,.564-.417,1.641,1.641,0,0,1,.687-.147,1.343,1.343,0,0,1,1.128.515,2.287,2.287,0,0,1,.392,1.374v.221h-2.747a2.568,2.568,0,0,0,.1.588.952.952,0,0,0,.246.465,1.154,1.154,0,0,0,.931.417,1.724,1.724,0,0,0,1.128-.441l.222.393a2.349,2.349,0,0,1-1.447.491A1.516,1.516,0,0,1-542.181-657.455Zm.833-2.991a.968.968,0,0,0-.368.245,1.37,1.37,0,0,0-.245.368,1.635,1.635,0,0,0-.148.49h2.229a1.556,1.556,0,0,0-.291-.859.869.869,0,0,0-.735-.318A1.181,1.181,0,0,0-541.348-660.446Zm-12.211,3.04.319-.393a1.522,1.522,0,0,0,.98.393,1.467,1.467,0,0,0,.883-.22.776.776,0,0,0,.294-.663.9.9,0,0,0-.2-.588,1.546,1.546,0,0,0-.343-.269c-.148-.1-.344-.221-.589-.368a3.324,3.324,0,0,1-1.03-.809,1.318,1.318,0,0,1-.221-.76,1.267,1.267,0,0,1,.466-1.005,1.743,1.743,0,0,1,1.2-.417,2,2,0,0,1,1.25.491l-.319.392a1.521,1.521,0,0,0-.98-.392,1.188,1.188,0,0,0-.81.245.791.791,0,0,0-.294.638,1.446,1.446,0,0,0,.049.343.423.423,0,0,0,.147.246,1.537,1.537,0,0,0,.344.269c.146.122.343.221.564.368.245.147.441.27.613.393a1.929,1.929,0,0,1,.392.368,1.268,1.268,0,0,1,.269.784,1.387,1.387,0,0,1-.441,1.055,1.832,1.832,0,0,1-1.3.393A2,2,0,0,1-553.559-657.406Zm14.762.417v-3.875h.465v.442a1.727,1.727,0,0,1,.466-.392,1.33,1.33,0,0,1,.539-.122.69.69,0,0,1,.222.024.768.768,0,0,1,.22.074v.539h-.025a.832.832,0,0,0-.465-.2,1.027,1.027,0,0,0-.957.687v2.82Zm-40.754-.1s10.25.172,10-2.109c-.123-1.128-2.329-1.741-4.855-1.912-.353-.023-.544-.037-.629-.044-.081.539-.537,1.859-3.073,1.859v-13.952c0-1.618-.049-2.918-.1-4.071h2.7l.146,1.888h.049a4.775,4.775,0,0,1,4.193-2.158c2.8,0,5.125,2.4,5.149,6.2,0,4.414-2.8,6.548-5.566,6.548a4.021,4.021,0,0,1-3.433-1.618h-.048v5.075a1.288,1.288,0,0,1-.016.22c.145.006.507.025.507.025s5.443.049,7.159,1.741c1.559,1.5-3.2,2.377-9.178,2.377C-577.52-657.015-578.531-657.039-579.551-657.087Zm4.635-15.816a4.538,4.538,0,0,0-.1.785v1.888a4.617,4.617,0,0,0,.074.858,2.807,2.807,0,0,0,2.722,2.158c1.961,0,3.114-1.618,3.114-4.071,0-2.133-1.055-3.9-3.041-3.9A2.911,2.911,0,0,0-574.916-672.9Zm-10.593,13.683c-.957-.981,2.648-1.716,6.522-1.52,0,0-5.469.1-5.345,1.422.073.637,1.226,1.054,2.574,1.128.172,0,.172.024.074.024C-581.684-658.166-584.578-658.239-585.509-659.22Zm24.667-9.245c0-3.065,2.723-4.634,7.234-4.61v-.2c0-.809-.319-2.133-2.477-2.133a6.375,6.375,0,0,0-3.286.907l-.613-2.01a8.921,8.921,0,0,1,4.414-1.079c3.9,0,5.027,2.477,5.027,5.174v4.365a17.05,17.05,0,0,0,.2,2.942h-2.77l-.222-1.348h-.073a4.462,4.462,0,0,1-3.6,1.618A3.623,3.623,0,0,1-560.842-668.465Zm3.016-.319a1.635,1.635,0,0,0,1.766,1.766,2.537,2.537,0,0,0,2.427-1.668,2.106,2.106,0,0,0,.074-.687v-1.691h-.172C-555.85-671.064-557.826-670.6-557.826-668.784Zm-41.292.319c0-3.065,2.722-4.634,7.233-4.61v-.2c0-.809-.319-2.133-2.476-2.133a6.376,6.376,0,0,0-3.286.907l-.613-2.01a8.918,8.918,0,0,1,4.414-1.079c3.9,0,5.027,2.477,5.027,5.15v4.389a16.952,16.952,0,0,0,.2,2.942h-2.771l-.22-1.348h-.074a4.462,4.462,0,0,1-3.6,1.618A3.623,3.623,0,0,1-599.118-668.465Zm3.04-.319a1.635,1.635,0,0,0,1.766,1.766,2.537,2.537,0,0,0,2.427-1.668,2.1,2.1,0,0,0,.074-.687v-1.691h-.172C-594.1-671.064-596.078-670.6-596.078-668.784Zm8.288,3.065.613-2.256a6.847,6.847,0,0,0,3.115.907c1.348,0,1.961-.563,1.961-1.373,0-.834-.49-1.227-2.011-1.79-2.379-.809-3.36-2.109-3.36-3.556,0-2.157,1.79-3.8,4.611-3.8a6.894,6.894,0,0,1,3.261.736l-.637,2.157a5.384,5.384,0,0,0-2.575-.711c-1.1,0-1.716.54-1.716,1.3,0,.785.588,1.128,2.133,1.716,2.231.785,3.236,1.912,3.261,3.7,0,2.232-1.742,3.825-4.953,3.825A7.722,7.722,0,0,1-587.79-665.718Zm46.466.613V-672c0-1.765-.661-3.09-2.329-3.09a2.581,2.581,0,0,0-2.4,1.814,2.952,2.952,0,0,0-.147.981v7.185h-3.09v-8.582c0-1.4-.049-2.574-.1-3.629h2.673l.147,1.839h.074a4.464,4.464,0,0,1,3.9-2.109c2.133,0,4.34,1.374,4.34,5.248v7.233Zm-23.638,0V-682h3.09v16.895Zm-39.233,0v-14.32H-609V-682h12.751v2.575H-601.1v14.32Z" transform="translate(760 738)" fill="#fff"/><text transform="translate(108 149)" fill="#fff" font-size="12" font-family="HeroNew-Medium, Hero New" font-weight="500"><tspan x="-48.45" y="0">Tasplan website</tspan></text><text transform="translate(268 149)" fill="#fff" font-size="12" font-family="HeroNew-Medium, Hero New" font-weight="500"><tspan x="-36.906" y="0">Terms of use</tspan></text><text transform="translate(108 181)" fill="#fff" font-size="12" font-family="HeroNew-Medium, Hero New" font-weight="500"><tspan x="-40.686" y="0">Privacy policy</tspan></text><text transform="translate(268 181)" fill="#fff" font-size="12" font-family="HeroNew-Medium, Hero New" font-weight="500"><tspan x="-31.8" y="0">Contact us</tspan></text><text transform="translate(32 360)" fill="#fff" font-size="10" font-family="HeroNew-Regular, Hero New" opacity="0.8"><tspan x="0" y="11">This website contains information or advice that&apos;s intended to </tspan><tspan x="0" y="27">be general in nature and which was prepared without taking </tspan><tspan x="0" y="43">into account your personal objectives, financial situation or </tspan><tspan x="0" y="59">needs. Because of that, before acting on any information or </tspan><tspan x="0" y="75">advice please consider whether it&apos;s appropriate to your </tspan><tspan x="0" y="91">personal circumstances, talk to a financial planner and consider </tspan><tspan x="0" y="107">the relevant Member guide, available on this site or by calling </tspan><tspan x="0" y="123">1800 005 166, before making a decision about whether to </tspan><tspan x="0" y="139">acquire the products.</tspan><tspan x="0" y="163">The trustee of Tasplan Super (ABN 14 602 032 302, USI </tspan><tspan x="0" y="179">TPN0100AU) is Tasplan Pty Ltd (ABN 13 009 563 062). AFSL </tspan><tspan x="0" y="195">235391.</tspan><tspan x="0" y="219">© 2019 Tasplan Pty Ltd. All rights reserved.</tspan></text><g transform="translate(40.999 -16)"><path d="M642.237,140.549a6.73,6.73,0,0,1-1.933.53,3.377,3.377,0,0,0,1.48-1.862,6.73,6.73,0,0,1-2.138.817,3.369,3.369,0,0,0-5.735,3.07,9.556,9.556,0,0,1-6.938-3.517,3.37,3.37,0,0,0,1.042,4.494,3.348,3.348,0,0,1-1.525-.421c0,.014,0,.028,0,.042a3.368,3.368,0,0,0,2.7,3.3,3.389,3.389,0,0,1-1.52.058,3.37,3.37,0,0,0,3.145,2.338,6.757,6.757,0,0,1-4.181,1.441,6.885,6.885,0,0,1-.8-.047,9.573,9.573,0,0,0,14.737-8.065c0-.146,0-.291-.009-.435a6.857,6.857,0,0,0,1.679-1.743" transform="translate(-549.828 103.696)" fill="#fff" opacity="0.996"/><path d="M486.765,233.348c-3.376,0-6.753.258-7.495.776-1.484,1.034-1.484,9.414,0,10.448s13.506,1.034,14.99,0,1.484-9.414,0-10.448c-.742-.517-4.119-.776-7.5-.776Zm-1.712,3.491,4.345,2.509-4.345,2.509Z" transform="translate(-278.157 10.653)" fill="#fff" opacity="0.996"/><path d="M720.183,233.809a1.869,1.869,0,1,1-.027,3.727h-.02a1.869,1.869,0,1,1,.047-3.727Zm10.582,4.952c2.361,0,4.126,1.542,4.126,4.858v6.19H731.3v-5.777c0-1.451-.518-2.443-1.817-2.443a1.972,1.972,0,0,0-1.844,1.318,2.443,2.443,0,0,0-.113.872v6.03h-3.594s.047-9.782,0-10.8h3.594v1.524a3.563,3.563,0,0,1,3.235-1.777Zm-3.235,1.777-.027.04h.027Zm-9.165-1.524h3.587v10.8h-3.587v-10.8Z" transform="translate(-562.153 6.192)" fill="#fff" opacity="0.996"/><path d="M569.651,129.454a3.427,3.427,0,0,0-3.659,3.759v2.1h-2.457v2.845h2.457v7.3h2.937v-7.3h2.45l.368-2.845h-2.818v-1.817c0-.824.229-1.385,1.41-1.385h1.506v-2.544a20.129,20.129,0,0,0-2.194-.112Z" transform="translate(-443.535 110.546)" fill="#fff" opacity="0.996"/></g><g transform="translate(2 -18.001)"><g transform="translate(76 297.601)"><path d="M104.16,32.4H3.76A3.756,3.756,0,0,1,0,28.64V4.16A3.756,3.756,0,0,1,3.76.4h100.4A3.825,3.825,0,0,1,108,4.16v24.4a3.841,3.841,0,0,1-3.84,3.84Z" fill="#a6a6a6"/><path d="M107.38,28.82a3.039,3.039,0,0,1-3.04,3.04H3.94A3.039,3.039,0,0,1,.9,28.82V4.34A3.039,3.039,0,0,1,3.94,1.3h100.4a3.039,3.039,0,0,1,3.04,3.04V28.82Z" transform="translate(-0.18 -0.18)"/><g transform="translate(10.243 5.36)"><path d="M26.641,18.716a4.7,4.7,0,0,1,2.24-3.92,4.7,4.7,0,0,0-3.76-2c-1.6-.16-3.12.96-3.92.96s-2.08-.96-3.36-.88a4.961,4.961,0,0,0-4.16,2.56c-1.84,3.12-.48,7.76,1.28,10.32.88,1.28,1.92,2.64,3.2,2.56s1.76-.8,3.36-.8c1.52,0,2,.8,3.36.8s2.24-1.28,3.12-2.48a9.169,9.169,0,0,0,1.44-2.88A4.824,4.824,0,0,1,26.641,18.716Z" transform="translate(-12.804 -7.836)" fill="#fff"/><path d="M26.133,9.88a4.394,4.394,0,0,0,1.04-3.28,5.263,5.263,0,0,0-3.04,1.52,4.235,4.235,0,0,0-1.04,3.12A3.531,3.531,0,0,0,26.133,9.88Z" transform="translate(-14.856 -6.6)" fill="#fff"/></g><g transform="translate(33.92 14.96)"><path d="M51.36,29.24H49.52l-.96-3.12H45.12l-.96,3.12H42.4L45.84,18.6h2.08Zm-3.12-4.4-.88-2.8c-.08-.32-.24-.96-.56-2h0c-.08.48-.24,1.12-.48,2l-.88,2.8Z" transform="translate(-42.4 -18.6)" fill="#fff"/><path d="M62.78,26.02a4.464,4.464,0,0,1-1.04,3.12,3.286,3.286,0,0,1-2.32,1.04,2.279,2.279,0,0,1-2.16-1.12h0v4.08H55.58V24.82c0-.8,0-1.68-.08-2.56h1.52l.08,1.2h0a2.888,2.888,0,0,1,2.56-1.36,2.728,2.728,0,0,1,2.24,1.04A4.274,4.274,0,0,1,62.78,26.02Zm-1.68.08a3.314,3.314,0,0,0-.48-1.84,1.858,1.858,0,0,0-1.52-.72,1.911,1.911,0,0,0-1.12.4,1.981,1.981,0,0,0-.64,1.12,1.408,1.408,0,0,0-.08.48v1.28a2.234,2.234,0,0,0,.48,1.44,1.648,1.648,0,0,0,1.36.56,1.858,1.858,0,0,0,1.52-.72A4.907,4.907,0,0,0,61.1,26.1Z" transform="translate(-45.02 -19.3)" fill="#fff"/><path d="M73.88,26.02a4.464,4.464,0,0,1-1.04,3.12,3.286,3.286,0,0,1-2.32,1.04,2.279,2.279,0,0,1-2.16-1.12h0v4.08H66.68V24.82c0-.8,0-1.68-.08-2.56h1.52l.08,1.2h0a2.888,2.888,0,0,1,2.56-1.36A2.728,2.728,0,0,1,73,23.14,4.743,4.743,0,0,1,73.88,26.02Zm-1.76.08a3.314,3.314,0,0,0-.48-1.84,1.858,1.858,0,0,0-1.52-.72,1.911,1.911,0,0,0-1.12.4,1.981,1.981,0,0,0-.64,1.12,1.408,1.408,0,0,0-.08.48v1.28a2.234,2.234,0,0,0,.48,1.44,1.648,1.648,0,0,0,1.36.56,1.858,1.858,0,0,0,1.52-.72A3.9,3.9,0,0,0,72.12,26.1Z" transform="translate(-47.24 -19.3)" fill="#fff"/><path d="M86.36,26.28a2.905,2.905,0,0,1-.96,2.24,4.175,4.175,0,0,1-2.88.96,5.255,5.255,0,0,1-2.72-.64l.4-1.44a4.491,4.491,0,0,0,2.48.72,2.846,2.846,0,0,0,1.52-.4,1.564,1.564,0,0,0,.56-1.2,1.579,1.579,0,0,0-.48-1.12,4.009,4.009,0,0,0-1.44-.8c-1.84-.72-2.8-1.68-2.8-3.04A2.739,2.739,0,0,1,81,19.4a3.861,3.861,0,0,1,2.64-.8,5.343,5.343,0,0,1,2.4.48l-.48,1.28a4.337,4.337,0,0,0-2-.48,2.088,2.088,0,0,0-1.44.48,1.077,1.077,0,0,0-.4.96,1.29,1.29,0,0,0,.48,1.04,5.19,5.19,0,0,0,1.52.8,5.751,5.751,0,0,1,2,1.28A2.853,2.853,0,0,1,86.36,26.28Z" transform="translate(-49.88 -18.6)" fill="#fff"/><path d="M93.92,23.1H92.08v3.76q0,1.44.96,1.44a1.776,1.776,0,0,0,.72-.08l.08,1.28a3.331,3.331,0,0,1-1.36.16,2.234,2.234,0,0,1-1.6-.64,2.945,2.945,0,0,1-.56-2.08V23.1H89.2V21.82h1.12V20.38L92,19.9v1.92h1.84A6.882,6.882,0,0,1,93.92,23.1Z" transform="translate(-51.76 -18.86)" fill="#fff"/><path d="M103.8,26.02a3.868,3.868,0,0,1-1.04,2.88,3.631,3.631,0,0,1-2.8,1.2,3.677,3.677,0,0,1-2.72-1.12,3.8,3.8,0,0,1-1.04-2.8,4.189,4.189,0,0,1,1.04-2.96,3.732,3.732,0,0,1,2.8-1.12,3.677,3.677,0,0,1,2.72,1.12A3.8,3.8,0,0,1,103.8,26.02Zm-1.76.08a3.506,3.506,0,0,0-.48-1.84,1.573,1.573,0,0,0-1.52-.88,1.844,1.844,0,0,0-1.6.88,3.314,3.314,0,0,0-.48,1.84,3.506,3.506,0,0,0,.48,1.84,1.717,1.717,0,0,0,3.04-.08A2.455,2.455,0,0,0,102.04,26.1Z" transform="translate(-53.16 -19.3)" fill="#fff"/><path d="M111.58,23.78c-.16,0-.32-.08-.56-.08a1.482,1.482,0,0,0-1.36.72,2.281,2.281,0,0,0-.4,1.52v4h-1.68V24.66a22.5,22.5,0,0,0-.08-2.4h1.52l.08,1.44h.08a2.615,2.615,0,0,1,.88-1.2,2.381,2.381,0,0,1,1.2-.4h.4A12.387,12.387,0,0,0,111.58,23.78Z" transform="translate(-55.42 -19.3)" fill="#fff"/><path d="M120.38,25.82a2.466,2.466,0,0,1-.08.8h-5.12a2.234,2.234,0,0,0,.72,1.76,2.641,2.641,0,0,0,1.68.56,6.009,6.009,0,0,0,2.08-.4l.24,1.2a6.355,6.355,0,0,1-2.56.48,3.567,3.567,0,0,1-2.8-1.04,4.009,4.009,0,0,1-1.04-2.8,4.317,4.317,0,0,1,.96-2.88,3.249,3.249,0,0,1,2.72-1.2,2.8,2.8,0,0,1,2.48,1.2A3.121,3.121,0,0,1,120.38,25.82Zm-1.6-.48a2.181,2.181,0,0,0-.32-1.28,1.482,1.482,0,0,0-1.36-.72,1.572,1.572,0,0,0-1.36.72,2.019,2.019,0,0,0-.48,1.36l3.52-.08Z" transform="translate(-56.62 -19.34)" fill="#fff"/></g><g transform="translate(34.88 5.68)"><path d="M47.92,9.78a2.71,2.71,0,0,1-.88,2.16,3.724,3.724,0,0,1-2.24.64,5.3,5.3,0,0,1-1.2-.08V7.38a8.7,8.7,0,0,1,1.44-.08,3.218,3.218,0,0,1,2.08.56A2.372,2.372,0,0,1,47.92,9.78Zm-.88.08a2.088,2.088,0,0,0-.48-1.44,1.956,1.956,0,0,0-1.44-.48,1.56,1.56,0,0,0-.64.08v3.84h.56a1.992,1.992,0,0,0,1.52-.56A1.768,1.768,0,0,0,47.04,9.86Z" transform="translate(-43.6 -7.06)" fill="#fff"/><path d="M53.98,11.02a2.234,2.234,0,0,1-.48,1.44,1.648,1.648,0,0,1-1.36.56,1.755,1.755,0,0,1-1.36-.56,2.019,2.019,0,0,1-.48-1.36,2.234,2.234,0,0,1,.48-1.44,1.648,1.648,0,0,1,1.36-.56,1.784,1.784,0,0,1,1.84,1.92Zm-.88,0a1.613,1.613,0,0,0-.24-.88.769.769,0,0,0-.72-.48.974.974,0,0,0-.8.48,1.733,1.733,0,0,0,0,1.76.8.8,0,0,0,.8.48.769.769,0,0,0,.72-.48A1.613,1.613,0,0,0,53.1,11.02Z" transform="translate(-44.94 -7.42)" fill="#fff"/><path d="M61.32,9.1l-1.2,3.76h-.8l-.48-1.6a6.665,6.665,0,0,1-.32-1.2h0a6.665,6.665,0,0,1-.32,1.2l-.48,1.6h-.8L55.8,9.1h.96l.4,1.76.24,1.2h0c.08-.32.16-.72.32-1.2l.56-1.76H59l.48,1.76a7.49,7.49,0,0,1,.32,1.28h0c.08-.4.16-.8.24-1.28l.48-1.76Z" transform="translate(-46.04 -7.42)" fill="#fff"/><path d="M67.4,12.84h-.8V10.68q0-.96-.72-.96a.826.826,0,0,0-.88.88v2.24h-.8V9.08h.64v.56h0a2.121,2.121,0,0,1,.4-.48,3.521,3.521,0,0,1,.8-.16,1.2,1.2,0,0,1,.88.32,1.552,1.552,0,0,1,.4,1.28v2.24Z" transform="translate(-47.72 -7.4)" fill="#fff"/><path d="M70.9,12.44h-.8V7h.8Z" transform="translate(-48.9 -7)" fill="#fff"/><path d="M76.28,11a2.234,2.234,0,0,1-.48,1.44,1.648,1.648,0,0,1-1.36.56,1.755,1.755,0,0,1-1.36-.56,2.019,2.019,0,0,1-.48-1.36,2.234,2.234,0,0,1,.48-1.44,1.936,1.936,0,0,1,2.8-.08A2.558,2.558,0,0,1,76.28,11Zm-.88,0a1.613,1.613,0,0,0-.24-.88.769.769,0,0,0-.72-.48.974.974,0,0,0-.8.48,1.733,1.733,0,0,0,0,1.76.8.8,0,0,0,.8.48.769.769,0,0,0,.72-.48A1.145,1.145,0,0,0,75.4,11Z" transform="translate(-49.4 -7.4)" fill="#fff"/><path d="M81.52,12.84H80.8l-.08-.4h0a1.342,1.342,0,0,1-1.12.48,1.2,1.2,0,0,1-.88-.32,1.421,1.421,0,0,1-.32-.8,1.085,1.085,0,0,1,.56-1.04,2.512,2.512,0,0,1,1.6-.32v-.08c0-.48-.24-.72-.8-.72a1.706,1.706,0,0,0-.96.24l-.16-.56A2.181,2.181,0,0,1,79.92,9c.96,0,1.44.48,1.44,1.52v1.36C81.44,12.36,81.52,12.68,81.52,12.84Zm-.88-1.28V11c-.96,0-1.36.24-1.36.72a1.137,1.137,0,0,0,.16.48.611.611,0,0,0,.4.16,1.137,1.137,0,0,0,.48-.16.735.735,0,0,0,.32-.48Z" transform="translate(-50.56 -7.4)" fill="#fff"/><path d="M87.38,12.44h-.72V11.8h0a1.408,1.408,0,0,1-1.36.8,1.3,1.3,0,0,1-1.12-.56,2.019,2.019,0,0,1-.48-1.36,2.307,2.307,0,0,1,.48-1.52,2.059,2.059,0,0,1,1.2-.56,1.1,1.1,0,0,1,1.04.48h0V7h.8v4.48C87.3,11.8,87.3,12.2,87.38,12.44Zm-.88-1.52v-.88a.735.735,0,0,0-.32-.48.726.726,0,0,0-.56-.24.84.84,0,0,0-.72.4,1.706,1.706,0,0,0-.24.96,1.437,1.437,0,0,0,.24.88.84.84,0,0,0,.72.4.728.728,0,0,0,.64-.32A1.29,1.29,0,0,0,86.5,10.92Z" transform="translate(-51.62 -7)" fill="#fff"/><path d="M96.28,11a2.234,2.234,0,0,1-.48,1.44,1.648,1.648,0,0,1-1.36.56,1.755,1.755,0,0,1-1.36-.56,2.019,2.019,0,0,1-.48-1.36,2.234,2.234,0,0,1,.48-1.44,1.936,1.936,0,0,1,2.8-.08A2.558,2.558,0,0,1,96.28,11Zm-.88,0a1.613,1.613,0,0,0-.24-.88.769.769,0,0,0-.72-.48.974.974,0,0,0-.8.48,1.733,1.733,0,0,0,0,1.76.8.8,0,0,0,.8.48.769.769,0,0,0,.72-.48A1.613,1.613,0,0,0,95.4,11Z" transform="translate(-53.4 -7.4)" fill="#fff"/><path d="M102.08,12.82h-.8V10.66c0-.64-.24-.96-.8-.96a.826.826,0,0,0-.88.88v2.24h-.8V9.06h.72v.56h0a2.121,2.121,0,0,1,.4-.48,1.352,1.352,0,0,1,.8-.24,1.2,1.2,0,0,1,.88.32,1.552,1.552,0,0,1,.4,1.28v2.32Z" transform="translate(-54.64 -7.38)" fill="#fff"/><path d="M109.32,9.52h-.96v1.84q0,.72.48.72h.4v.64a1.56,1.56,0,0,1-.64.08,1.027,1.027,0,0,1-.8-.32,1.815,1.815,0,0,1-.24-1.04V9.52H107V8.88h.56V8.24l.8-.24v.96h.96v.56Z" transform="translate(-56.28 -7.2)" fill="#fff"/><path d="M114.72,12.44h-.8V10.28c0-.64-.24-1.04-.72-1.04a.77.77,0,0,0-.8.56v2.56h-.8V7h.8V9.24h0a1.277,1.277,0,0,1,1.12-.64,1.2,1.2,0,0,1,.88.32,1.653,1.653,0,0,1,.4,1.28A20.961,20.961,0,0,0,114.72,12.44Z" transform="translate(-57.2 -7)" fill="#fff"/><path d="M120.38,10.86v.4h-2.56a1.146,1.146,0,0,0,.4.88,1.352,1.352,0,0,0,.8.24,4.053,4.053,0,0,0,1.04-.16l.16.56a3.046,3.046,0,0,1-1.28.24,1.882,1.882,0,0,1-1.36-.48,1.882,1.882,0,0,1-.48-1.36,2.234,2.234,0,0,1,.48-1.44,1.67,1.67,0,0,1,1.28-.64,1.316,1.316,0,0,1,1.2.64A2.071,2.071,0,0,1,120.38,10.86Zm-.8-.24a1.507,1.507,0,0,0-.16-.64.8.8,0,0,0-1.28,0,.908.908,0,0,0-.24.64Z" transform="translate(-58.3 -7.42)" fill="#fff"/></g></g><g transform="translate(188 298.001)"><path d="M104,32H4a3.961,3.961,0,0,1-4-4V4A3.961,3.961,0,0,1,4,0H104a3.961,3.961,0,0,1,4,4V28A3.961,3.961,0,0,1,104,32Z"/><path d="M104,.64A3.38,3.38,0,0,1,107.36,4V28A3.38,3.38,0,0,1,104,31.36H4A3.38,3.38,0,0,1,.64,28V4A3.38,3.38,0,0,1,4,.64H104M104,0H4A4.012,4.012,0,0,0,0,4V28a3.961,3.961,0,0,0,4,4H104a3.961,3.961,0,0,0,4-4V4a4.012,4.012,0,0,0-4-4Z" fill="#a6a6a6"/><g transform="translate(33.12 5.52)"><path d="M46.2,9.54a2.179,2.179,0,0,1-.56,1.6A2.48,2.48,0,0,1,41.4,9.38,2.459,2.459,0,0,1,43.88,6.9a2.13,2.13,0,0,1,.96.24,1.742,1.742,0,0,1,.72.56l-.4.4a1.492,1.492,0,0,0-1.28-.56,1.592,1.592,0,0,0-1.28.56,1.648,1.648,0,0,0-.56,1.36,1.648,1.648,0,0,0,.56,1.36,2.06,2.06,0,0,0,1.28.56,1.755,1.755,0,0,0,1.36-.56,1.325,1.325,0,0,0,.4-.96H43.88V9.22H46.2C46.2,9.3,46.2,9.46,46.2,9.54Z" transform="translate(-41.4 -6.9)" fill="#fff" stroke="#fff" stroke-miterlimit="10" stroke-width="0.2"/><path d="M51.3,7.56H49.14V9.08h2v.56h-2v1.52H51.3v.64H48.5V7h2.8Z" transform="translate(-42.82 -6.92)" fill="#fff" stroke="#fff" stroke-miterlimit="10" stroke-width="0.2"/><path d="M54.8,11.8h-.64V7.56H52.8V7h3.36v.56H54.8Z" transform="translate(-43.68 -6.92)" fill="#fff" stroke="#fff" stroke-miterlimit="10" stroke-width="0.2"/><path d="M59.9,11.8V7h.64v4.8Z" transform="translate(-45.1 -6.92)" fill="#fff" stroke="#fff" stroke-miterlimit="10" stroke-width="0.2"/><path d="M63.6,11.8h-.64V7.56H61.6V7h3.28v.56H63.52V11.8Z" transform="translate(-45.44 -6.92)" fill="#fff" stroke="#fff" stroke-miterlimit="10" stroke-width="0.2"/><path d="M72.54,11.14A2.48,2.48,0,0,1,68.3,9.38a2.48,2.48,0,1,1,4.96,0A2.352,2.352,0,0,1,72.54,11.14Zm-3.04-.4a1.888,1.888,0,0,0,1.28.56,1.592,1.592,0,0,0,1.28-.56,1.93,1.93,0,0,0,.56-1.36,1.648,1.648,0,0,0-.56-1.36,1.888,1.888,0,0,0-1.28-.56,1.592,1.592,0,0,0-1.28.56,1.93,1.93,0,0,0-.56,1.36A1.648,1.648,0,0,0,69.5,10.74Z" transform="translate(-46.78 -6.9)" fill="#fff" stroke="#fff" stroke-miterlimit="10" stroke-width="0.2"/><path d="M75.6,11.8V7h.72l2.32,3.76h0V7h.64v4.8h-.64L76.16,7.88h0V11.8Z" transform="translate(-48.24 -6.92)" fill="#fff" stroke="#fff" stroke-miterlimit="10" stroke-width="0.2"/></g><path d="M62.7,20.86a3.366,3.366,0,0,0-3.44,3.44,3.415,3.415,0,0,0,3.44,3.44,3.366,3.366,0,0,0,3.44-3.44A3.319,3.319,0,0,0,62.7,20.86Zm0,5.44a2.087,2.087,0,0,1,0-4.16,1.938,1.938,0,0,1,1.92,2.08A1.986,1.986,0,0,1,62.7,26.3Zm-7.44-5.44a3.366,3.366,0,0,0-3.44,3.44,3.415,3.415,0,0,0,3.44,3.44A3.366,3.366,0,0,0,58.7,24.3,3.319,3.319,0,0,0,55.26,20.86Zm0,5.44a2.087,2.087,0,0,1,0-4.16,1.938,1.938,0,0,1,1.92,2.08A1.986,1.986,0,0,1,55.26,26.3Zm-8.88-4.4v1.44h3.44a3.025,3.025,0,0,1-.8,1.84,3.541,3.541,0,0,1-2.64,1.04,3.725,3.725,0,0,1-3.76-3.84,3.774,3.774,0,0,1,3.76-3.84,3.967,3.967,0,0,1,2.64,1.04l1.04-1.04a5.126,5.126,0,0,0-3.6-1.44,5.4,5.4,0,0,0-5.36,5.28,5.4,5.4,0,0,0,5.36,5.28,4.6,4.6,0,0,0,3.68-1.52,4.816,4.816,0,0,0,1.28-3.36,3,3,0,0,0-.08-.88ZM82.7,23.02a3.108,3.108,0,0,0-2.88-2.16,3.222,3.222,0,0,0-3.2,3.44,3.348,3.348,0,0,0,3.36,3.44,3.282,3.282,0,0,0,2.8-1.52l-1.12-.8a1.95,1.95,0,0,1-1.68.96,1.736,1.736,0,0,1-1.68-1.04l4.56-1.92Zm-4.64,1.12a1.943,1.943,0,0,1,1.76-2,1.415,1.415,0,0,1,1.28.72ZM74.3,27.42h1.52v-10H74.3Zm-2.4-5.84h0a2.634,2.634,0,0,0-1.84-.8,3.437,3.437,0,0,0-3.28,3.44,3.313,3.313,0,0,0,3.28,3.36,2.3,2.3,0,0,0,1.76-.8h.08v.48a1.819,1.819,0,0,1-3.52.8l-1.28.56a3.3,3.3,0,0,0,3.04,2c1.76,0,3.2-1.04,3.2-3.52V21.02H71.9v.56ZM70.14,26.3a2.087,2.087,0,0,1,0-4.16,1.925,1.925,0,0,1,1.84,2.08A1.925,1.925,0,0,1,70.14,26.3Zm19.52-8.88h-3.6v10h1.52V23.66h2.08a3.124,3.124,0,1,0,0-6.24Zm.08,4.8H87.58V18.78h2.16a1.757,1.757,0,0,1,1.76,1.68A1.831,1.831,0,0,1,89.74,22.22Zm9.2-1.44A2.689,2.689,0,0,0,96.3,22.3l1.36.56a1.413,1.413,0,0,1,1.36-.72,1.5,1.5,0,0,1,1.6,1.28v.08a3.173,3.173,0,0,0-1.52-.4c-1.44,0-2.88.8-2.88,2.24a2.344,2.344,0,0,0,2.48,2.24,2.251,2.251,0,0,0,1.92-.96h.08v.8h1.44V23.58A3.028,3.028,0,0,0,98.94,20.78Zm-.16,5.52c-.48,0-1.2-.24-1.2-.88,0-.8.88-1.04,1.6-1.04a3.094,3.094,0,0,1,1.36.32A1.863,1.863,0,0,1,98.78,26.3Zm8.4-5.28-1.68,4.32h-.08l-1.76-4.32h-1.6l2.64,6.08-1.52,3.36h1.52l4.08-9.44Zm-13.44,6.4h1.52v-10H93.74Z" transform="translate(-8.22 -3.42)" fill="#fff"/><g transform="translate(8 5.718)"><path d="M10.32,7.5A1.564,1.564,0,0,0,10,8.62V26.3a1.583,1.583,0,0,0,.4,1.12l.08.08,9.92-9.92v-.16L10.32,7.5Z" transform="translate(-10 -7.218)" fill="url(#b)"/><path d="M26.18,22.6,22.9,19.32v-.24l3.28-3.28.08.08,3.92,2.24a1.221,1.221,0,0,1,0,2.32l-4,2.16Z" transform="translate(-12.58 -8.878)" fill="url(#c)"/><path d="M23.76,23.36,20.4,20l-10,10c.4.4.96.4,1.68.08l11.68-6.72" transform="translate(-10.08 -9.718)" fill="url(#d)"/><path d="M23.76,14.074,12.08,7.434a1.3,1.3,0,0,0-1.68.08l10,9.92Z" transform="translate(-10.08 -7.152)" fill="url(#e)"/><g transform="translate(0 13.562)"><path d="M23.68,24.1l-11.6,6.56a1.308,1.308,0,0,1-1.6,0h0l-.08.08h0l.08.08h0a1.308,1.308,0,0,0,1.6,0l11.6-6.72Z" transform="translate(-10.08 -24.1)" opacity="0.2"/><path d="M10.32,32.02A1.564,1.564,0,0,1,10,30.9v.08a1.583,1.583,0,0,0,.4,1.12v-.08Z" transform="translate(-10 -25.46)" opacity="0.12"/></g><path d="M31,21.04l-4,2.24.08.08L31,21.12A1.33,1.33,0,0,0,31.8,20h0C31.8,20.4,31.48,20.72,31,21.04Z" transform="translate(-13.4 -9.718)" opacity="0.12"/><path d="M12,7.509l15.6,8.88c.48.32.8.64.8,1.04h0a1.33,1.33,0,0,0-.8-1.12L12,7.429c-1.12-.64-2-.16-2,1.12v.08C10,7.429,10.88,6.869,12,7.509Z" transform="translate(-10 -7.147)" fill="#fff" opacity="0.25"/></g></g></g></g></svg>