<svg xmlns="http://www.w3.org/2000/svg" xmlns:xlink="http://www.w3.org/1999/xlink" width="375" height="628" viewBox="0 0 375 628"><defs><linearGradient id="a" x1="0.173" x2="0.874" y2="1" gradientUnits="objectBoundingBox"><stop offset="0" stop-color="#072640"/><stop offset="1" stop-color="#003865"/></linearGradient><filter id="b" x="-30" y="-26" width="435" height="688" filterUnits="userSpaceOnUse"><feOffset dy="4" input="SourceAlpha"/><feGaussianBlur stdDeviation="10" result="c"/><feFlood flood-opacity="0.122"/><feComposite operator="in" in2="c"/><feComposite in="SourceGraphic"/></filter><clipPath id="e"><rect width="375" height="628"/></clipPath></defs><g id="d" clip-path="url(#e)"><rect width="375" height="628" fill="#fff"/><g transform="matrix(1, 0, 0, 1, 0, 0)" filter="url(#b)"><rect width="375" height="628" fill="url(#a)"/></g><path d="M-581.071-654.145s20.254.344,19.764-4.29c-.246-2.281-4.61-3.506-9.588-3.85-2.893-.2-.246-.049-.246-.049s11.6.245,14.174,3.531c2.512,3.161-6.382,4.8-17.964,4.8C-576.914-654-578.974-654.048-581.071-654.145ZM-546.4-655.3v-5.567h.49v.589a1.45,1.45,0,0,1,.539-.491,1.857,1.857,0,0,1,.785-.171,1.471,1.471,0,0,1,1.177.515,2.183,2.183,0,0,1,.417,1.372,3.049,3.049,0,0,1-.122.859,2,2,0,0,1-.344.687,1.415,1.415,0,0,1-.563.441,1.678,1.678,0,0,1-.711.148,1.39,1.39,0,0,1-.663-.148,1.456,1.456,0,0,1-.515-.441v2.207Zm1.4-5.125a1.166,1.166,0,0,0-.368.147,1.515,1.515,0,0,0-.318.221,1.229,1.229,0,0,0-.246.344v1.594h.025a1.7,1.7,0,0,0,.539.563,1.228,1.228,0,0,0,.663.2,1.118,1.118,0,0,0,.491-.122,1.3,1.3,0,0,0,.392-.343,1.372,1.372,0,0,0,.245-.54,2.866,2.866,0,0,0,.1-.687,1.548,1.548,0,0,0-.318-1.054,1,1,0,0,0-.809-.393A2.6,2.6,0,0,0-545-660.422Zm-3.679,3.507c-.931,0-1.4-.589-1.4-1.742v-2.231h.491v2.133a1.936,1.936,0,0,0,.22,1.055.811.811,0,0,0,.735.318.956.956,0,0,0,.613-.2,1.874,1.874,0,0,0,.491-.563v-2.722h.49v3.875h-.49v-.539a1.342,1.342,0,0,1-1.08.615Zm6.5-.54a1.755,1.755,0,0,1-.344-.637,3.039,3.039,0,0,1-.122-.858,2.784,2.784,0,0,1,.122-.784,1.666,1.666,0,0,1,.368-.638,1.872,1.872,0,0,1,.564-.417,1.641,1.641,0,0,1,.687-.147,1.343,1.343,0,0,1,1.128.515,2.287,2.287,0,0,1,.392,1.374v.221h-2.747a2.568,2.568,0,0,0,.1.588.952.952,0,0,0,.246.465,1.154,1.154,0,0,0,.931.417,1.724,1.724,0,0,0,1.128-.441l.222.393a2.349,2.349,0,0,1-1.447.491A1.516,1.516,0,0,1-542.181-657.455Zm.833-2.991a.968.968,0,0,0-.368.245,1.37,1.37,0,0,0-.245.368,1.635,1.635,0,0,0-.148.49h2.229a1.556,1.556,0,0,0-.291-.859.869.869,0,0,0-.735-.318A1.181,1.181,0,0,0-541.348-660.446Zm-12.211,3.04.319-.393a1.522,1.522,0,0,0,.98.393,1.467,1.467,0,0,0,.883-.22.776.776,0,0,0,.294-.663.9.9,0,0,0-.2-.588,1.546,1.546,0,0,0-.343-.269c-.148-.1-.344-.221-.589-.368a3.324,3.324,0,0,1-1.03-.809,1.318,1.318,0,0,1-.221-.76,1.267,1.267,0,0,1,.466-1.005,1.743,1.743,0,0,1,1.2-.417,2,2,0,0,1,1.25.491l-.319.392a1.521,1.521,0,0,0-.98-.392,1.188,1.188,0,0,0-.81.245.791.791,0,0,0-.294.638,1.446,1.446,0,0,0,.049.343.423.423,0,0,0,.147.246,1.537,1.537,0,0,0,.344.269c.146.122.343.221.564.368.245.147.441.27.613.393a1.929,1.929,0,0,1,.392.368,1.268,1.268,0,0,1,.269.784,1.387,1.387,0,0,1-.441,1.055,1.832,1.832,0,0,1-1.3.393A2,2,0,0,1-553.559-657.406Zm14.762.417v-3.875h.465v.442a1.727,1.727,0,0,1,.466-.392,1.33,1.33,0,0,1,.539-.122.69.69,0,0,1,.222.024.768.768,0,0,1,.22.074v.539h-.025a.832.832,0,0,0-.465-.2,1.027,1.027,0,0,0-.957.687v2.82Zm-40.754-.1s10.25.172,10-2.109c-.123-1.128-2.329-1.741-4.855-1.912-.353-.023-.544-.037-.629-.044-.081.539-.537,1.859-3.073,1.859v-13.952c0-1.618-.049-2.918-.1-4.071h2.7l.146,1.888h.049a4.775,4.775,0,0,1,4.193-2.158c2.8,0,5.125,2.4,5.149,6.2,0,4.414-2.8,6.548-5.566,6.548a4.021,4.021,0,0,1-3.433-1.618h-.048v5.075a1.288,1.288,0,0,1-.016.22c.145.006.507.025.507.025s5.443.049,7.159,1.741c1.559,1.5-3.2,2.377-9.178,2.377C-577.52-657.015-578.531-657.039-579.551-657.087Zm4.635-15.816a4.538,4.538,0,0,0-.1.785v1.888a4.617,4.617,0,0,0,.074.858,2.807,2.807,0,0,0,2.722,2.158c1.961,0,3.114-1.618,3.114-4.071,0-2.133-1.055-3.9-3.041-3.9A2.911,2.911,0,0,0-574.916-672.9Zm-10.593,13.683c-.957-.981,2.648-1.716,6.522-1.52,0,0-5.469.1-5.345,1.422.073.637,1.226,1.054,2.574,1.128.172,0,.172.024.074.024C-581.684-658.166-584.578-658.239-585.509-659.22Zm24.667-9.245c0-3.065,2.723-4.634,7.234-4.61v-.2c0-.809-.319-2.133-2.477-2.133a6.375,6.375,0,0,0-3.286.907l-.613-2.01a8.921,8.921,0,0,1,4.414-1.079c3.9,0,5.027,2.477,5.027,5.174v4.365a17.05,17.05,0,0,0,.2,2.942h-2.77l-.222-1.348h-.073a4.462,4.462,0,0,1-3.6,1.618A3.623,3.623,0,0,1-560.842-668.465Zm3.016-.319a1.635,1.635,0,0,0,1.766,1.766,2.537,2.537,0,0,0,2.427-1.668,2.106,2.106,0,0,0,.074-.687v-1.691h-.172C-555.85-671.064-557.826-670.6-557.826-668.784Zm-41.292.319c0-3.065,2.722-4.634,7.233-4.61v-.2c0-.809-.319-2.133-2.476-2.133a6.376,6.376,0,0,0-3.286.907l-.613-2.01a8.918,8.918,0,0,1,4.414-1.079c3.9,0,5.027,2.477,5.027,5.15v4.389a16.952,16.952,0,0,0,.2,2.942h-2.771l-.22-1.348h-.074a4.462,4.462,0,0,1-3.6,1.618A3.623,3.623,0,0,1-599.118-668.465Zm3.04-.319a1.635,1.635,0,0,0,1.766,1.766,2.537,2.537,0,0,0,2.427-1.668,2.1,2.1,0,0,0,.074-.687v-1.691h-.172C-594.1-671.064-596.078-670.6-596.078-668.784Zm8.288,3.065.613-2.256a6.847,6.847,0,0,0,3.115.907c1.348,0,1.961-.563,1.961-1.373,0-.834-.49-1.227-2.011-1.79-2.379-.809-3.36-2.109-3.36-3.556,0-2.157,1.79-3.8,4.611-3.8a6.894,6.894,0,0,1,3.261.736l-.637,2.157a5.384,5.384,0,0,0-2.575-.711c-1.1,0-1.716.54-1.716,1.3,0,.785.588,1.128,2.133,1.716,2.231.785,3.236,1.912,3.261,3.7,0,2.232-1.742,3.825-4.953,3.825A7.722,7.722,0,0,1-587.79-665.718Zm46.466.613V-672c0-1.765-.661-3.09-2.329-3.09a2.581,2.581,0,0,0-2.4,1.814,2.952,2.952,0,0,0-.147.981v7.185h-3.09v-8.582c0-1.4-.049-2.574-.1-3.629h2.673l.147,1.839h.074a4.464,4.464,0,0,1,3.9-2.109c2.133,0,4.34,1.374,4.34,5.248v7.233Zm-23.638,0V-682h3.09v16.895Zm-39.233,0v-14.32H-609V-682h12.751v2.575H-601.1v14.32Z" transform="translate(641 714)" fill="#fff"/><circle cx="44" cy="44" r="44" transform="translate(144 245)" fill="#fff" opacity="0.1"/><circle cx="22" cy="22" r="22" transform="translate(166 267)" fill="#fff" opacity="0.2"/><path d="M-34.3,0h5.46V-1.548h-3.78V-8.94H-34.3Zm12.84.2a4.5,4.5,0,0,0,4.548-4.68,4.493,4.493,0,0,0-4.548-4.668,4.505,4.505,0,0,0-4.572,4.668A4.508,4.508,0,0,0-21.456.2Zm0-1.56a2.9,2.9,0,0,1-2.856-3.12,2.891,2.891,0,0,1,2.856-3.108,2.9,2.9,0,0,1,2.844,3.108A2.907,2.907,0,0,1-21.456-1.356ZM-5.436,0-8.868-8.94H-10.8L-14.2,0h1.752l.864-2.352h3.5L-7.2,0Zm-4.4-7.164,1.272,3.4H-11.1ZM.564-8.94H-1.92V0H.564C3.432,0,5.4-1.776,5.4-4.476S3.468-8.94.564-8.94ZM-.24-7.4H.648a2.779,2.779,0,0,1,3.036,2.94A2.777,2.777,0,0,1,.636-1.548H-.24ZM9.4,0h1.68V-8.94H9.4ZM23.1-8.94H21.48V-2.8h-.012L17.232-8.94H15.588V0h1.62V-6.264h.012L21.516,0H23.1Zm5.7,4.5a2.97,2.97,0,0,1,3.036-3.108,4.392,4.392,0,0,1,2.508.768V-8.472a5.465,5.465,0,0,0-2.688-.672,4.507,4.507,0,0,0-4.572,4.68A4.5,4.5,0,0,0,31.644.2a5.5,5.5,0,0,0,3.012-.876V-4.824H33.108V-1.68a3.148,3.148,0,0,1-1.44.324A2.894,2.894,0,0,1,28.8-4.44Z" transform="translate(188 380)" fill="#fff"/></g></svg>