<svg xmlns="http://www.w3.org/2000/svg" xmlns:xlink="http://www.w3.org/1999/xlink" width="375" height="628" viewBox="0 0 375 628"><defs><linearGradient id="a" x1="0.173" x2="0.874" y2="1" gradientUnits="objectBoundingBox"><stop offset="0" stop-color="#072640"/><stop offset="1" stop-color="#003865"/></linearGradient><filter id="b" x="-30" y="-26" width="435" height="688" filterUnits="userSpaceOnUse"><feOffset dy="4" input="SourceAlpha"/><feGaussianBlur stdDeviation="10" result="c"/><feFlood flood-opacity="0.122"/><feComposite operator="in" in2="c"/><feComposite in="SourceGraphic"/></filter><filter id="d" x="24" y="268" width="168" height="112" filterUnits="userSpaceOnUse"><feOffset dy="4" input="SourceAlpha"/><feGaussianBlur stdDeviation="8" result="e"/><feFlood flood-opacity="0.122"/><feComposite operator="in" in2="e"/><feComposite in="SourceGraphic"/></filter><filter id="f" x="8" y="284" width="88" height="88" filterUnits="userSpaceOnUse"><feOffset dy="4" input="SourceAlpha"/><feGaussianBlur stdDeviation="8" result="g"/><feFlood flood-opacity="0.122"/><feComposite operator="in" in2="g"/><feComposite in="SourceGraphic"/></filter><clipPath id="h"><circle cx="20" cy="20" r="20" fill="#9bcbeb"/></clipPath><linearGradient id="i" x1="-2.152" y1="0.467" x2="1.172" y2="0.515" gradientUnits="objectBoundingBox"><stop offset="0.01"/><stop offset="1" stop-opacity="0"/></linearGradient><linearGradient id="j" x1="-1.499" y1="1.742" x2="1.059" y2="0.131" xlink:href="#i"/><linearGradient id="k" x1="0.337" y1="-1.05" x2="0.603" y2="1.481" xlink:href="#i"/><linearGradient id="l" x1="0.815" y1="0.239" x2="0.092" y2="0.732" gradientUnits="objectBoundingBox"><stop offset="0.02" stop-color="#fff" stop-opacity="0"/><stop offset="0.58" stop-color="#fff" stop-opacity="0.388"/><stop offset="1" stop-color="#fff"/></linearGradient><linearGradient id="m" x1="-0.26" y1="0.481" x2="1.302" y2="0.521" xlink:href="#l"/><linearGradient id="n" x1="0.538" y1="-0.383" x2="0.467" y2="1.403" xlink:href="#i"/><linearGradient id="o" x1="0.256" y1="-0.276" x2="0.721" y2="1.203" xlink:href="#i"/><linearGradient id="p" x1="0.253" y1="0.258" x2="0.455" y2="0.476" xlink:href="#i"/><linearGradient id="q" x1="0.413" y1="0.486" x2="1.01" y2="0.583" xlink:href="#i"/><linearGradient id="r" x1="0.014" y1="0.352" x2="0.779" y2="0.604" xlink:href="#i"/><linearGradient id="s" x1="0.555" y1="1.165" x2="0.461" y2="-0.341" xlink:href="#i"/><linearGradient id="t" x1="0.635" y1="0.055" x2="0.348" y2="0.907" gradientUnits="objectBoundingBox"><stop offset="0.02" stop-color="#fff" stop-opacity="0"/><stop offset="0.58" stop-color="#fff" stop-opacity="0.388"/><stop offset="0.68" stop-color="#fff" stop-opacity="0.678"/><stop offset="1" stop-color="#fff"/></linearGradient><linearGradient id="u" x1="0.185" y1="-0.258" x2="0.961" y2="1.606" xlink:href="#i"/><clipPath id="w"><rect width="375" height="628"/></clipPath></defs><g id="v" clip-path="url(#w)"><rect width="375" height="628" fill="#fff"/><g transform="matrix(1, 0, 0, 1, 0, 0)" filter="url(#b)"><rect width="375" height="628" fill="url(#a)"/></g><path d="M-581.071-654.145s20.254.344,19.764-4.29c-.246-2.281-4.61-3.506-9.588-3.85-2.893-.2-.246-.049-.246-.049s11.6.245,14.174,3.531c2.512,3.161-6.382,4.8-17.964,4.8C-576.914-654-578.974-654.048-581.071-654.145ZM-546.4-655.3v-5.567h.49v.589a1.45,1.45,0,0,1,.539-.491,1.857,1.857,0,0,1,.785-.171,1.471,1.471,0,0,1,1.177.515,2.183,2.183,0,0,1,.417,1.372,3.049,3.049,0,0,1-.122.859,2,2,0,0,1-.344.687,1.415,1.415,0,0,1-.563.441,1.678,1.678,0,0,1-.711.148,1.39,1.39,0,0,1-.663-.148,1.456,1.456,0,0,1-.515-.441v2.207Zm1.4-5.125a1.166,1.166,0,0,0-.368.147,1.515,1.515,0,0,0-.318.221,1.229,1.229,0,0,0-.246.344v1.594h.025a1.7,1.7,0,0,0,.539.563,1.228,1.228,0,0,0,.663.2,1.118,1.118,0,0,0,.491-.122,1.3,1.3,0,0,0,.392-.343,1.372,1.372,0,0,0,.245-.54,2.866,2.866,0,0,0,.1-.687,1.548,1.548,0,0,0-.318-1.054,1,1,0,0,0-.809-.393A2.6,2.6,0,0,0-545-660.422Zm-3.679,3.507c-.931,0-1.4-.589-1.4-1.742v-2.231h.491v2.133a1.936,1.936,0,0,0,.22,1.055.811.811,0,0,0,.735.318.956.956,0,0,0,.613-.2,1.874,1.874,0,0,0,.491-.563v-2.722h.49v3.875h-.49v-.539a1.342,1.342,0,0,1-1.08.615Zm6.5-.54a1.755,1.755,0,0,1-.344-.637,3.039,3.039,0,0,1-.122-.858,2.784,2.784,0,0,1,.122-.784,1.666,1.666,0,0,1,.368-.638,1.872,1.872,0,0,1,.564-.417,1.641,1.641,0,0,1,.687-.147,1.343,1.343,0,0,1,1.128.515,2.287,2.287,0,0,1,.392,1.374v.221h-2.747a2.568,2.568,0,0,0,.1.588.952.952,0,0,0,.246.465,1.154,1.154,0,0,0,.931.417,1.724,1.724,0,0,0,1.128-.441l.222.393a2.349,2.349,0,0,1-1.447.491A1.516,1.516,0,0,1-542.181-657.455Zm.833-2.991a.968.968,0,0,0-.368.245,1.37,1.37,0,0,0-.245.368,1.635,1.635,0,0,0-.148.49h2.229a1.556,1.556,0,0,0-.291-.859.869.869,0,0,0-.735-.318A1.181,1.181,0,0,0-541.348-660.446Zm-12.211,3.04.319-.393a1.522,1.522,0,0,0,.98.393,1.467,1.467,0,0,0,.883-.22.776.776,0,0,0,.294-.663.9.9,0,0,0-.2-.588,1.546,1.546,0,0,0-.343-.269c-.148-.1-.344-.221-.589-.368a3.324,3.324,0,0,1-1.03-.809,1.318,1.318,0,0,1-.221-.76,1.267,1.267,0,0,1,.466-1.005,1.743,1.743,0,0,1,1.2-.417,2,2,0,0,1,1.25.491l-.319.392a1.521,1.521,0,0,0-.98-.392,1.188,1.188,0,0,0-.81.245.791.791,0,0,0-.294.638,1.446,1.446,0,0,0,.049.343.423.423,0,0,0,.147.246,1.537,1.537,0,0,0,.344.269c.146.122.343.221.564.368.245.147.441.27.613.393a1.929,1.929,0,0,1,.392.368,1.268,1.268,0,0,1,.269.784,1.387,1.387,0,0,1-.441,1.055,1.832,1.832,0,0,1-1.3.393A2,2,0,0,1-553.559-657.406Zm14.762.417v-3.875h.465v.442a1.727,1.727,0,0,1,.466-.392,1.33,1.33,0,0,1,.539-.122.69.69,0,0,1,.222.024.768.768,0,0,1,.22.074v.539h-.025a.832.832,0,0,0-.465-.2,1.027,1.027,0,0,0-.957.687v2.82Zm-40.754-.1s10.25.172,10-2.109c-.123-1.128-2.329-1.741-4.855-1.912-.353-.023-.544-.037-.629-.044-.081.539-.537,1.859-3.073,1.859v-13.952c0-1.618-.049-2.918-.1-4.071h2.7l.146,1.888h.049a4.775,4.775,0,0,1,4.193-2.158c2.8,0,5.125,2.4,5.149,6.2,0,4.414-2.8,6.548-5.566,6.548a4.021,4.021,0,0,1-3.433-1.618h-.048v5.075a1.288,1.288,0,0,1-.016.22c.145.006.507.025.507.025s5.443.049,7.159,1.741c1.559,1.5-3.2,2.377-9.178,2.377C-577.52-657.015-578.531-657.039-579.551-657.087Zm4.635-15.816a4.538,4.538,0,0,0-.1.785v1.888a4.617,4.617,0,0,0,.074.858,2.807,2.807,0,0,0,2.722,2.158c1.961,0,3.114-1.618,3.114-4.071,0-2.133-1.055-3.9-3.041-3.9A2.911,2.911,0,0,0-574.916-672.9Zm-10.593,13.683c-.957-.981,2.648-1.716,6.522-1.52,0,0-5.469.1-5.345,1.422.073.637,1.226,1.054,2.574,1.128.172,0,.172.024.074.024C-581.684-658.166-584.578-658.239-585.509-659.22Zm24.667-9.245c0-3.065,2.723-4.634,7.234-4.61v-.2c0-.809-.319-2.133-2.477-2.133a6.375,6.375,0,0,0-3.286.907l-.613-2.01a8.921,8.921,0,0,1,4.414-1.079c3.9,0,5.027,2.477,5.027,5.174v4.365a17.05,17.05,0,0,0,.2,2.942h-2.77l-.222-1.348h-.073a4.462,4.462,0,0,1-3.6,1.618A3.623,3.623,0,0,1-560.842-668.465Zm3.016-.319a1.635,1.635,0,0,0,1.766,1.766,2.537,2.537,0,0,0,2.427-1.668,2.106,2.106,0,0,0,.074-.687v-1.691h-.172C-555.85-671.064-557.826-670.6-557.826-668.784Zm-41.292.319c0-3.065,2.722-4.634,7.233-4.61v-.2c0-.809-.319-2.133-2.476-2.133a6.376,6.376,0,0,0-3.286.907l-.613-2.01a8.918,8.918,0,0,1,4.414-1.079c3.9,0,5.027,2.477,5.027,5.15v4.389a16.952,16.952,0,0,0,.2,2.942h-2.771l-.22-1.348h-.074a4.462,4.462,0,0,1-3.6,1.618A3.623,3.623,0,0,1-599.118-668.465Zm3.04-.319a1.635,1.635,0,0,0,1.766,1.766,2.537,2.537,0,0,0,2.427-1.668,2.1,2.1,0,0,0,.074-.687v-1.691h-.172C-594.1-671.064-596.078-670.6-596.078-668.784Zm8.288,3.065.613-2.256a6.847,6.847,0,0,0,3.115.907c1.348,0,1.961-.563,1.961-1.373,0-.834-.49-1.227-2.011-1.79-2.379-.809-3.36-2.109-3.36-3.556,0-2.157,1.79-3.8,4.611-3.8a6.894,6.894,0,0,1,3.261.736l-.637,2.157a5.384,5.384,0,0,0-2.575-.711c-1.1,0-1.716.54-1.716,1.3,0,.785.588,1.128,2.133,1.716,2.231.785,3.236,1.912,3.261,3.7,0,2.232-1.742,3.825-4.953,3.825A7.722,7.722,0,0,1-587.79-665.718Zm46.466.613V-672c0-1.765-.661-3.09-2.329-3.09a2.581,2.581,0,0,0-2.4,1.814,2.952,2.952,0,0,0-.147.981v7.185h-3.09v-8.582c0-1.4-.049-2.574-.1-3.629h2.673l.147,1.839h.074a4.464,4.464,0,0,1,3.9-2.109c2.133,0,4.34,1.374,4.34,5.248v7.233Zm-23.638,0V-682h3.09v16.895Zm-39.233,0v-14.32H-609V-682h12.751v2.575H-601.1v14.32Z" transform="translate(641 714)" fill="#fff"/><g transform="translate(0 152)"><g transform="translate(-8 -240.001)"><g transform="matrix(1, 0, 0, 1, 8, 88)" filter="url(#d)"><path d="M-1022.171-570H-1056l16-15.135V-618a16,16,0,0,1,16-16h72a16,16,0,0,1,16,16v32a16,16,0,0,1-16,16Z" transform="translate(1104 922)" opacity="0.3"/></g><g transform="translate(0 -28.999)"><g transform="matrix(1, 0, 0, 1, 8, 117)" filter="url(#f)"><circle cx="20" cy="20" r="20" transform="translate(32 304)" fill="#9bcbeb"/></g><g transform="translate(40 421)" clip-path="url(#h)"><g transform="translate(1.671 5.355)"><path d="M189.022,267.412a1.908,1.908,0,0,1,.075,1.522,1.942,1.942,0,0,1-.661.621l-2.395,1.628a3.219,3.219,0,0,1-1.5.675,1.108,1.108,0,0,1-1.225-.868c-.056-.637.613-1.073.925-1.631a3.337,3.337,0,0,0-.03-2.452,44.9,44.9,0,0,1-1.177-6.223c.491-.2,1.921-1.1,2.43-.953.573.174,1.09,1.775,1.345,2.3A41.611,41.611,0,0,1,189.022,267.412Z" transform="translate(-159.167 -226.595)" fill="#f1af8c"/><path d="M199.963,207.215a25.3,25.3,0,0,0,2.277,5.121.252.252,0,0,1,.054.161.248.248,0,0,1-.1.135,6.994,6.994,0,0,1-3.4,1.98.417.417,0,0,1-.257-.023.424.424,0,0,1-.16-.22,15.07,15.07,0,0,1-1.109-6.183,25.455,25.455,0,0,1,.25-3.145c.035-.253.054-1.378.274-1.51.335-.2.7.493.849.71A12.862,12.862,0,0,1,199.963,207.215Z" transform="translate(-174.702 -180.134)" fill="#fff"/><path d="M205.78,205.54s.783.293,1.42,2.5,2.157,7.546,2.157,7.546-2.352,1.175-2.94.734S205.78,205.54,205.78,205.54Z" transform="translate(-183.242 -181.822)" fill="url(#i)"/><path d="M215.64,192.41a12.6,12.6,0,0,0-3.809.37,6.313,6.313,0,0,0-3.212,2,6.925,6.925,0,0,0-1.378,3.953,25.984,25.984,0,0,0,.24,4.245,67.334,67.334,0,0,1,.264,9.953c-.038.795-.493,4.944.066,5.512.347.358-.347.715.148.833,4.044.972,11.308.495,15.137-1.126a4.584,4.584,0,0,0,2.43-1.928c.521-1.019-.885-5.057-1.053-6.19q-.765-5.187-1.1-10.43a34.086,34.086,0,0,0-.3-4.731c-.231-1.1-.941-1.4-1.965-1.673A24.72,24.72,0,0,0,215.64,192.41Z" transform="translate(-199.773 -170.962)" fill="#fff"/><path d="M229.087,234.524a3.954,3.954,0,0,0,.79,1.968,3.4,3.4,0,0,0,1.357.83c2.412.909,5.163.767,7.475,1.909a1.613,1.613,0,0,1,.444.29,1.406,1.406,0,0,1-.033,1.736c-.786,1.151-2.315,1.473-3.695,1.687a31.867,31.867,0,0,1-9.991.413.916.916,0,0,1-.495-.189.9.9,0,0,1-.21-.469c-.75-3.329-.16-6.794-.146-10.206,0-1.968-.174-3.938-.04-5.9a11.974,11.974,0,0,1,.753-3.57c.307-.777,1.206-2.494,1.746-.9a38.539,38.539,0,0,1,1.413,7.9C228.624,231.527,228.8,233.033,229.087,234.524Z" transform="translate(-216.547 -194.984)" fill="url(#j)"/><path d="M246.777,171.9c.574-.092.9-.67.64-2.062-.028-.154-.064-.3-.106-.453a.373.373,0,0,0-.023-.083c-.062-.215-.134-.43-.2-.644a4.7,4.7,0,0,1-.3-1.6,2.869,2.869,0,0,0-.1-1.182,1.933,1.933,0,0,0-.644-.779c-.62-.477-2.43-1.375-2.777-.189a5.416,5.416,0,0,0-.035,1.616,4.859,4.859,0,0,1-.4,2.168C242.451,169.447,245.366,172.123,246.777,171.9Z" transform="translate(-227.816 -147.753)" fill="#f1af8c"/><path d="M248.468,176.776s-3.2-1.215-3.818-3.136l3.41,1.116S248.142,176.514,248.468,176.776Z" transform="translate(-229.099 -155.458)" fill="url(#k)"/><path d="M301.3,206.713a21.5,21.5,0,0,1-1.749,10.619.79.79,0,0,1-.213.321.867.867,0,0,1-.521.128,6.388,6.388,0,0,1-3.967-1.274,1.52,1.52,0,0,1-.7-1,1.635,1.635,0,0,1,.127-.637,70.538,70.538,0,0,1,3.1-7.551,4.3,4.3,0,0,1,2.083-2.376C300.723,204.458,301.207,205.761,301.3,206.713Z" transform="translate(-290.602 -181.24)" fill="#fff"/><path d="M251.574,194.048a17.49,17.49,0,0,1-2.332-3.407,5.627,5.627,0,0,1-.906-2.331.465.465,0,0,1,.043-.279.5.5,0,0,1,.16-.147l1.3-.883a2.627,2.627,0,0,0,1.253,1.947c.694.493,2.681,1.033,2.256,2.055A21.369,21.369,0,0,1,251.574,194.048Z" transform="translate(-234.679 -166.5)" fill="#00629b"/><path d="M233.893,192.512a22.882,22.882,0,0,0,1.3,2.241,1.693,1.693,0,0,0,.694.694.191.191,0,0,0,.127.017c.076-.026.094-.127.1-.207a13.665,13.665,0,0,0-.2-3.992,3.681,3.681,0,0,0-.562-1.286,3.561,3.561,0,0,0-1.159-.72c.069.213.141.429.2.644a.212.212,0,0,1,.021.064v.019c.042.149.078.3.106.453C234.786,191.842,234.463,192.42,233.893,192.512Z" transform="translate(-214.932 -168.368)" fill="#00629b"/><path d="M251.574,194.048a17.49,17.49,0,0,1-2.332-3.407,5.627,5.627,0,0,1-.906-2.331.465.465,0,0,1,.043-.279.5.5,0,0,1,.16-.147l1.3-.883a2.627,2.627,0,0,0,1.253,1.947c.694.493,2.681,1.033,2.256,2.055A21.369,21.369,0,0,1,251.574,194.048Z" transform="translate(-234.679 -166.5)" fill="url(#l)"/><path d="M233.893,192.512a22.882,22.882,0,0,0,1.3,2.241,1.693,1.693,0,0,0,.694.694.191.191,0,0,0,.127.017c.076-.026.094-.127.1-.207a13.665,13.665,0,0,0-.2-3.992,3.681,3.681,0,0,0-.562-1.286,3.561,3.561,0,0,0-1.159-.72c.069.213.141.429.2.644a.212.212,0,0,1,.021.064v.019c.042.149.078.3.106.453C234.786,191.842,234.463,192.42,233.893,192.512Z" transform="translate(-214.932 -168.368)" fill="url(#m)"/><path d="M254.169,281.277l-7.6-1.453a2.738,2.738,0,0,1-1.274-.469,1.9,1.9,0,0,1-.588-1.7,5.593,5.593,0,0,1,.621-1.767,57.658,57.658,0,0,1,3.284-6.013,9.6,9.6,0,0,1,3.572,1.026,1.306,1.306,0,0,1,.482.45c.456.868-.791,2.135-1.215,2.794a1.635,1.635,0,0,0-.316.72,1.187,1.187,0,0,0,.1.54c.411,1.01,1.876,1.6,2.777,2.117a9.349,9.349,0,0,0,3.867,1.3,22.845,22.845,0,0,1,3.185.191,4.563,4.563,0,0,1,2.99,2.332,2.763,2.763,0,0,1-2.133-.014,12.482,12.482,0,0,0-4.035-.325C257.006,281.077,254.585,282.094,254.169,281.277Z" transform="translate(-244.69 -234.983)" fill="#f1af8c"/><path d="M236.905,70.778a5.3,5.3,0,0,0-1.63-.731,2.01,2.01,0,0,0-1.786.4,3.718,3.718,0,0,1,2.654,1.4.259.259,0,0,0,.134.115.252.252,0,0,0,.141-.026c.24-.09,2.034.319,2.138.1C238.551,72.038,237.126,70.912,236.905,70.778Z" transform="translate(-217.25 -69.804)" fill="#00629b"/><path d="M236.905,70.778a5.3,5.3,0,0,0-1.63-.731,2.01,2.01,0,0,0-1.786.4,3.718,3.718,0,0,1,2.654,1.4.259.259,0,0,0,.134.115.252.252,0,0,0,.141-.026c.24-.09,2.034.319,2.138.1C238.551,72.038,237.126,70.912,236.905,70.778Z" transform="translate(-217.25 -69.804)" fill="url(#n)"/><ellipse cx="2.107" cy="2.596" rx="2.107" ry="2.596" transform="translate(21.428 9.017)" fill="#00629b"/><ellipse cx="1.949" cy="2.402" rx="1.949" ry="2.402" transform="translate(21.153 9.502)" fill="#00629b"/><ellipse cx="1.949" cy="2.402" rx="1.949" ry="2.402" transform="translate(21.153 9.502)" fill="url(#o)"/><path d="M229.749,96.73l-.488,8.922a3.591,3.591,0,0,1-3.554,3.4c-4.009.04-5.229-2.291-5.838-4.064s-1.159-6.984,0-8.424S227.551,91.578,229.749,96.73Z" transform="translate(-205.961 -89.664)" fill="#f1af8c"/><path d="M218.9,78.716a4.45,4.45,0,0,1,4.085,2.19,2.569,2.569,0,0,1,.049,2.209.927.927,0,0,0-.135.7,1.838,1.838,0,0,1-.745,1.562,4.3,4.3,0,0,0-.831.583l.085-1.661a.347.347,0,0,0-.264-.413L220.09,83.4s-.326.238-.366.257a1.33,1.33,0,0,1-.555.106,7.809,7.809,0,0,1-1.239-.069,11.708,11.708,0,0,1-2.563-.774,1.166,1.166,0,0,0,.316.684l-2.7.521a7.324,7.324,0,0,0-.946,1.767,6.157,6.157,0,0,0-.364,1.529,5.524,5.524,0,0,0,.2,2.116,2.22,2.22,0,0,1-.476-.5,2.73,2.73,0,0,1-.8.38.347.347,0,0,1-.186.016c-.132-.036-.16-.193-.174-.318-.108-1.119-.941-2.065-1.322-3.134a4.713,4.713,0,0,1,.479-3.95,3.184,3.184,0,0,1,.838-.979c1.241-.909,3-.493,4.42-.968.673-.226,1.215-.654,1.859-.937A6.679,6.679,0,0,1,218.9,78.716Z" transform="translate(-197.651 -77.008)" fill="#3f3d56"/><path d="M218.9,78.716a4.45,4.45,0,0,1,4.085,2.19,2.569,2.569,0,0,1,.049,2.209.927.927,0,0,0-.135.7,1.838,1.838,0,0,1-.745,1.562,4.3,4.3,0,0,0-.831.583l.085-1.661a.347.347,0,0,0-.264-.413L220.09,83.4s-.326.238-.366.257a1.33,1.33,0,0,1-.555.106,7.809,7.809,0,0,1-1.239-.069,11.708,11.708,0,0,1-2.563-.774,1.166,1.166,0,0,0,.316.684l-2.7.521a7.324,7.324,0,0,0-.946,1.767,6.157,6.157,0,0,0-.364,1.529,5.524,5.524,0,0,0,.2,2.116,2.22,2.22,0,0,1-.476-.5,2.73,2.73,0,0,1-.8.38.347.347,0,0,1-.186.016c-.132-.036-.16-.193-.174-.318-.108-1.119-.941-2.065-1.322-3.134a4.713,4.713,0,0,1,.479-3.95,3.184,3.184,0,0,1,.838-.979c1.241-.909,3-.493,4.42-.968.673-.226,1.215-.654,1.859-.937A6.679,6.679,0,0,1,218.9,78.716Z" transform="translate(-197.651 -77.008)" fill="url(#p)"/><ellipse cx="2.084" cy="2.57" rx="2.084" ry="2.57" transform="translate(9.845 9.362)" fill="#00629b"/><ellipse cx="2.084" cy="2.57" rx="2.084" ry="2.57" transform="translate(9.845 9.362)" fill="url(#q)"/><ellipse cx="2.084" cy="2.57" rx="2.084" ry="2.57" transform="translate(9.047 9.362)" fill="#00629b"/><path d="M249.75,78.442l1.041.111.248.026,1.041-5.125a5.958,5.958,0,0,1,3.527-4.189,1.874,1.874,0,0,1,.8-.1l.71.064-.347-.092-.694-.184a2.286,2.286,0,0,0-.666-.082,4.912,4.912,0,0,0-4.248,3.7Z" transform="translate(-238.634 -68.876)" fill="#00629b"/><path d="M249.75,78.442l1.041.111.248.026,1.041-5.125a5.958,5.958,0,0,1,3.527-4.189,1.874,1.874,0,0,1,.8-.1l.71.064-.347-.092-.694-.184a2.286,2.286,0,0,0-.666-.082,4.912,4.912,0,0,0-4.248,3.7Z" transform="translate(-238.634 -68.876)" fill="url(#r)"/><path d="M251.75,78.442l1.041.111,1.041-5.137a6.02,6.02,0,0,1,3.563-4.228,1.831,1.831,0,0,1,.81-.1l.566.05-.694-.184a2.285,2.285,0,0,0-.666-.082,4.912,4.912,0,0,0-4.248,3.7Z" transform="translate(-240.634 -68.876)" fill="#00629b"/><path d="M215.527,101.642a2.207,2.207,0,0,0-1.645-1.078,6.551,6.551,0,0,0-2.03.094c.651.521,2.468,1.3,2.5,1.435a4.231,4.231,0,0,1,.009.739c-.024.358-.036.732-.035,1.09a2.777,2.777,0,0,1,.559-.423,1.389,1.389,0,0,0,.469-.3A1.442,1.442,0,0,0,215.527,101.642Z" transform="translate(-190.618 -95.026)" fill="url(#s)"/><path d="M252.6,152.991a8.087,8.087,0,0,0,2.308-.385.348.348,0,0,0-.2-.666c-1.788.538-3.133.467-3.992-.212a3.529,3.529,0,0,1-1.093-2.685.348.348,0,1,0-.694-.035,4.21,4.21,0,0,0,1.359,3.268A3.631,3.631,0,0,0,252.6,152.991Z" transform="translate(-236.532 -134.828)" fill="#00629b"/><path d="M252.6,152.991a8.087,8.087,0,0,0,2.308-.385.348.348,0,0,0-.2-.666c-1.788.538-3.133.467-3.992-.212a3.529,3.529,0,0,1-1.093-2.685.348.348,0,1,0-.694-.035,4.21,4.21,0,0,0,1.359,3.268A3.631,3.631,0,0,0,252.6,152.991Z" transform="translate(-236.532 -134.828)" fill="url(#t)"/><path d="M238.465,160.611a.92.92,0,0,0-.439.476.824.824,0,0,0,.389.771,1.452,1.452,0,0,0,.72.347,1.671,1.671,0,0,0,1.093-.389,1.448,1.448,0,0,0,.455-.439,1.1,1.1,0,0,0-.6-1.44C239.515,159.691,238.911,160.318,238.465,160.611Z" transform="translate(-220.267 -144.087)" fill="#00629b"/><path d="M238.465,160.611a.92.92,0,0,0-.439.476.824.824,0,0,0,.389.771,1.452,1.452,0,0,0,.72.347,1.671,1.671,0,0,0,1.093-.389,1.448,1.448,0,0,0,.455-.439,1.1,1.1,0,0,0-.6-1.44C239.515,159.691,238.911,160.318,238.465,160.611Z" transform="translate(-220.267 -144.087)" fill="url(#u)"/></g></g></g></g><circle cx="4" cy="4" r="4" transform="translate(96 163.999)" fill="#fff" opacity="0.8"/><circle cx="4" cy="4" r="4" transform="translate(112 163.999)" fill="#fff" opacity="0.5"/><circle cx="4" cy="4" r="4" transform="translate(128 163.999)" fill="#fff" opacity="0.2"/></g></g></svg>