<svg xmlns="http://www.w3.org/2000/svg" xmlns:xlink="http://www.w3.org/1999/xlink" width="375" height="628" viewBox="0 0 375 628"><defs><linearGradient id="a" x1="0.173" x2="0.874" y2="1" gradientUnits="objectBoundingBox"><stop offset="0" stop-color="#072640"/><stop offset="1" stop-color="#003865"/></linearGradient><filter id="b" x="-30" y="-26" width="435" height="688" filterUnits="userSpaceOnUse"><feOffset dy="4" input="SourceAlpha"/><feGaussianBlur stdDeviation="10" result="c"/><feFlood flood-opacity="0.122"/><feComposite operator="in" in2="c"/><feComposite in="SourceGraphic"/></filter><linearGradient id="d" x1="0.5" y1="0.836" x2="0.554" y2="1.01" gradientUnits="objectBoundingBox"><stop offset="0" stop-color="#010101" stop-opacity="0"/><stop offset="1" stop-color="#010101" stop-opacity="0.302"/></linearGradient><linearGradient id="e" x1="0.5" y1="0.82" x2="0.547" y2="1.034" xlink:href="#d"/><linearGradient id="f" x1="0.571" y1="0.739" x2="0.627" y2="0.88" xlink:href="#d"/><linearGradient id="g" x1="0.467" y1="0.373" x2="0.787" y2="1.302" gradientUnits="objectBoundingBox"><stop offset="0" stop-color="#010101" stop-opacity="0"/><stop offset="0.95" stop-color="#010101"/></linearGradient><linearGradient id="h" x1="1.001" y1="0.501" x2="-0.001" y2="0.501" gradientUnits="objectBoundingBox"><stop offset="0" stop-color="#e5c6d6"/><stop offset="0.42" stop-color="#ead4d0"/><stop offset="1" stop-color="#f0e9cb"/></linearGradient><linearGradient id="i" x1="1" y1="0.499" x2="0" y2="0.499" xlink:href="#g"/><linearGradient id="j" x1="1" y1="0.501" x2="-0.001" y2="0.501" xlink:href="#g"/><linearGradient id="k" x1="1" y1="0.5" x2="0" y2="0.5" xlink:href="#h"/><linearGradient id="l" x1="1" y1="0.501" x2="-0.003" y2="0.501" xlink:href="#h"/><linearGradient id="m" x1="0.556" y1="0.576" x2="-0.137" y2="-0.359" xlink:href="#g"/><linearGradient id="n" x1="-0.052" y1="0.5" x2="1.052" y2="0.5" xlink:href="#g"/><linearGradient id="o" x1="1.201" y1="0.5" x2="0.201" y2="0.5" xlink:href="#g"/><filter id="p" x="295.661" y="382.58" width="32.207" height="37.763" filterUnits="userSpaceOnUse"><feOffset dx="2" dy="2" input="SourceAlpha"/><feGaussianBlur stdDeviation="1.5" result="q"/><feFlood flood-color="#003865" flood-opacity="0.502"/><feComposite operator="in" in2="q"/><feComposite in="SourceGraphic"/></filter><filter id="r" x="243.132" y="348.302" width="43.451" height="64.074" filterUnits="userSpaceOnUse"><feOffset dx="2" dy="2" input="SourceAlpha"/><feGaussianBlur stdDeviation="1.5" result="s"/><feFlood flood-color="#003865" flood-opacity="0.502"/><feComposite operator="in" in2="s"/><feComposite in="SourceGraphic"/></filter><filter id="t" x="232.651" y="432.854" width="17.94" height="26.266" filterUnits="userSpaceOnUse"><feOffset dx="2" dy="2" input="SourceAlpha"/><feGaussianBlur stdDeviation="1.5" result="u"/><feFlood flood-color="#003865" flood-opacity="0.502"/><feComposite operator="in" in2="u"/><feComposite in="SourceGraphic"/></filter><clipPath id="w"><rect width="375" height="628"/></clipPath></defs><g id="v" clip-path="url(#w)"><rect width="375" height="628" fill="#fff"/><g transform="matrix(1, 0, 0, 1, 0, 0)" filter="url(#b)"><rect width="375" height="628" fill="url(#a)"/></g><path d="M-581.071-654.145s20.254.344,19.764-4.29c-.246-2.281-4.61-3.506-9.588-3.85-2.893-.2-.246-.049-.246-.049s11.6.245,14.174,3.531c2.512,3.161-6.382,4.8-17.964,4.8C-576.914-654-578.974-654.048-581.071-654.145ZM-546.4-655.3v-5.567h.49v.589a1.45,1.45,0,0,1,.539-.491,1.857,1.857,0,0,1,.785-.171,1.471,1.471,0,0,1,1.177.515,2.183,2.183,0,0,1,.417,1.372,3.049,3.049,0,0,1-.122.859,2,2,0,0,1-.344.687,1.415,1.415,0,0,1-.563.441,1.678,1.678,0,0,1-.711.148,1.39,1.39,0,0,1-.663-.148,1.456,1.456,0,0,1-.515-.441v2.207Zm1.4-5.125a1.166,1.166,0,0,0-.368.147,1.515,1.515,0,0,0-.318.221,1.229,1.229,0,0,0-.246.344v1.594h.025a1.7,1.7,0,0,0,.539.563,1.228,1.228,0,0,0,.663.2,1.118,1.118,0,0,0,.491-.122,1.3,1.3,0,0,0,.392-.343,1.372,1.372,0,0,0,.245-.54,2.866,2.866,0,0,0,.1-.687,1.548,1.548,0,0,0-.318-1.054,1,1,0,0,0-.809-.393A2.6,2.6,0,0,0-545-660.422Zm-3.679,3.507c-.931,0-1.4-.589-1.4-1.742v-2.231h.491v2.133a1.936,1.936,0,0,0,.22,1.055.811.811,0,0,0,.735.318.956.956,0,0,0,.613-.2,1.874,1.874,0,0,0,.491-.563v-2.722h.49v3.875h-.49v-.539a1.342,1.342,0,0,1-1.08.615Zm6.5-.54a1.755,1.755,0,0,1-.344-.637,3.039,3.039,0,0,1-.122-.858,2.784,2.784,0,0,1,.122-.784,1.666,1.666,0,0,1,.368-.638,1.872,1.872,0,0,1,.564-.417,1.641,1.641,0,0,1,.687-.147,1.343,1.343,0,0,1,1.128.515,2.287,2.287,0,0,1,.392,1.374v.221h-2.747a2.568,2.568,0,0,0,.1.588.952.952,0,0,0,.246.465,1.154,1.154,0,0,0,.931.417,1.724,1.724,0,0,0,1.128-.441l.222.393a2.349,2.349,0,0,1-1.447.491A1.516,1.516,0,0,1-542.181-657.455Zm.833-2.991a.968.968,0,0,0-.368.245,1.37,1.37,0,0,0-.245.368,1.635,1.635,0,0,0-.148.49h2.229a1.556,1.556,0,0,0-.291-.859.869.869,0,0,0-.735-.318A1.181,1.181,0,0,0-541.348-660.446Zm-12.211,3.04.319-.393a1.522,1.522,0,0,0,.98.393,1.467,1.467,0,0,0,.883-.22.776.776,0,0,0,.294-.663.9.9,0,0,0-.2-.588,1.546,1.546,0,0,0-.343-.269c-.148-.1-.344-.221-.589-.368a3.324,3.324,0,0,1-1.03-.809,1.318,1.318,0,0,1-.221-.76,1.267,1.267,0,0,1,.466-1.005,1.743,1.743,0,0,1,1.2-.417,2,2,0,0,1,1.25.491l-.319.392a1.521,1.521,0,0,0-.98-.392,1.188,1.188,0,0,0-.81.245.791.791,0,0,0-.294.638,1.446,1.446,0,0,0,.049.343.423.423,0,0,0,.147.246,1.537,1.537,0,0,0,.344.269c.146.122.343.221.564.368.245.147.441.27.613.393a1.929,1.929,0,0,1,.392.368,1.268,1.268,0,0,1,.269.784,1.387,1.387,0,0,1-.441,1.055,1.832,1.832,0,0,1-1.3.393A2,2,0,0,1-553.559-657.406Zm14.762.417v-3.875h.465v.442a1.727,1.727,0,0,1,.466-.392,1.33,1.33,0,0,1,.539-.122.69.69,0,0,1,.222.024.768.768,0,0,1,.22.074v.539h-.025a.832.832,0,0,0-.465-.2,1.027,1.027,0,0,0-.957.687v2.82Zm-40.754-.1s10.25.172,10-2.109c-.123-1.128-2.329-1.741-4.855-1.912-.353-.023-.544-.037-.629-.044-.081.539-.537,1.859-3.073,1.859v-13.952c0-1.618-.049-2.918-.1-4.071h2.7l.146,1.888h.049a4.775,4.775,0,0,1,4.193-2.158c2.8,0,5.125,2.4,5.149,6.2,0,4.414-2.8,6.548-5.566,6.548a4.021,4.021,0,0,1-3.433-1.618h-.048v5.075a1.288,1.288,0,0,1-.016.22c.145.006.507.025.507.025s5.443.049,7.159,1.741c1.559,1.5-3.2,2.377-9.178,2.377C-577.52-657.015-578.531-657.039-579.551-657.087Zm4.635-15.816a4.538,4.538,0,0,0-.1.785v1.888a4.617,4.617,0,0,0,.074.858,2.807,2.807,0,0,0,2.722,2.158c1.961,0,3.114-1.618,3.114-4.071,0-2.133-1.055-3.9-3.041-3.9A2.911,2.911,0,0,0-574.916-672.9Zm-10.593,13.683c-.957-.981,2.648-1.716,6.522-1.52,0,0-5.469.1-5.345,1.422.073.637,1.226,1.054,2.574,1.128.172,0,.172.024.074.024C-581.684-658.166-584.578-658.239-585.509-659.22Zm24.667-9.245c0-3.065,2.723-4.634,7.234-4.61v-.2c0-.809-.319-2.133-2.477-2.133a6.375,6.375,0,0,0-3.286.907l-.613-2.01a8.921,8.921,0,0,1,4.414-1.079c3.9,0,5.027,2.477,5.027,5.174v4.365a17.05,17.05,0,0,0,.2,2.942h-2.77l-.222-1.348h-.073a4.462,4.462,0,0,1-3.6,1.618A3.623,3.623,0,0,1-560.842-668.465Zm3.016-.319a1.635,1.635,0,0,0,1.766,1.766,2.537,2.537,0,0,0,2.427-1.668,2.106,2.106,0,0,0,.074-.687v-1.691h-.172C-555.85-671.064-557.826-670.6-557.826-668.784Zm-41.292.319c0-3.065,2.722-4.634,7.233-4.61v-.2c0-.809-.319-2.133-2.476-2.133a6.376,6.376,0,0,0-3.286.907l-.613-2.01a8.918,8.918,0,0,1,4.414-1.079c3.9,0,5.027,2.477,5.027,5.15v4.389a16.952,16.952,0,0,0,.2,2.942h-2.771l-.22-1.348h-.074a4.462,4.462,0,0,1-3.6,1.618A3.623,3.623,0,0,1-599.118-668.465Zm3.04-.319a1.635,1.635,0,0,0,1.766,1.766,2.537,2.537,0,0,0,2.427-1.668,2.1,2.1,0,0,0,.074-.687v-1.691h-.172C-594.1-671.064-596.078-670.6-596.078-668.784Zm8.288,3.065.613-2.256a6.847,6.847,0,0,0,3.115.907c1.348,0,1.961-.563,1.961-1.373,0-.834-.49-1.227-2.011-1.79-2.379-.809-3.36-2.109-3.36-3.556,0-2.157,1.79-3.8,4.611-3.8a6.894,6.894,0,0,1,3.261.736l-.637,2.157a5.384,5.384,0,0,0-2.575-.711c-1.1,0-1.716.54-1.716,1.3,0,.785.588,1.128,2.133,1.716,2.231.785,3.236,1.912,3.261,3.7,0,2.232-1.742,3.825-4.953,3.825A7.722,7.722,0,0,1-587.79-665.718Zm46.466.613V-672c0-1.765-.661-3.09-2.329-3.09a2.581,2.581,0,0,0-2.4,1.814,2.952,2.952,0,0,0-.147.981v7.185h-3.09v-8.582c0-1.4-.049-2.574-.1-3.629h2.673l.147,1.839h.074a4.464,4.464,0,0,1,3.9-2.109c2.133,0,4.34,1.374,4.34,5.248v7.233Zm-23.638,0V-682h3.09v16.895Zm-39.233,0v-14.32H-609V-682h12.751v2.575H-601.1v14.32Z" transform="translate(641 714)" fill="#fff"/><g transform="translate(-1524 -1025.261)"><g transform="translate(1572 1371.832)"><g transform="translate(0 15.102)"><g transform="translate(194.795)"><rect width="64.814" height="157.691" fill="#00629b" opacity="0.5"/><rect width="64.814" height="157.691" fill="url(#d)"/></g><g transform="translate(18.67 102.035)"><rect width="64.814" height="161.542" fill="#00629b" opacity="0.5"/><rect width="64.814" height="139.512" fill="url(#e)"/></g><g transform="translate(106.791 37.104)"><rect width="64.814" height="194.795" fill="#00629b" opacity="0.5"/><rect width="64.814" height="194.795" fill="url(#f)"/></g><g transform="translate(0 21.426)"><g transform="translate(0 131.529)"><path d="M98.37,368.937V401.6H376.648V284.23H275.532v44.963H197.71v39.744Z" transform="translate(-98.37 -284.23)" fill="#00629b"/></g><g transform="translate(33.299 0)"><path d="M348.622,147.115a6.282,6.282,0,0,0-3.451-3.543,10.428,10.428,0,0,0-14.239,5.687,42.145,42.145,0,0,0-1.282,5.394,8.325,8.325,0,0,1-2.63,4.8c-1.885,1.474-4.473,1.483-6.843,1.826a17.322,17.322,0,0,0-8.786,3.853,12.849,12.849,0,0,0-4.481,8.376c-.193,2.019.151,4.188-.687,6.014-.745,1.675-2.345,2.831-3.007,4.523a5.285,5.285,0,0,0,.7,4.858,6.969,6.969,0,0,0,4.188,2.664c2.579.553,5.411-.117,7.79,1,1.483.7,2.68,2.035,4.289,2.3a5.436,5.436,0,0,0,3.585-.93A25.537,25.537,0,0,0,329,189.331a28.649,28.649,0,0,0,4.565-5.746A69.017,69.017,0,0,1,337.984,177c1.382-1.993,4.557-1.985,5.729-4.1,2.195-3.962-.754-11.936.226-16.183a7.186,7.186,0,0,1,2.437-4.188C348.011,151.1,349.334,149.31,348.622,147.115Z" transform="translate(-275.168 -129.693)" fill="#606161"/><path d="M348.622,147.115a6.282,6.282,0,0,0-3.451-3.543,10.428,10.428,0,0,0-14.239,5.687,42.145,42.145,0,0,0-1.282,5.394,8.325,8.325,0,0,1-2.63,4.8c-1.885,1.474-4.473,1.483-6.843,1.826a17.322,17.322,0,0,0-8.786,3.853,12.849,12.849,0,0,0-4.481,8.376c-.193,2.019.151,4.188-.687,6.014-.745,1.675-2.345,2.831-3.007,4.523a5.285,5.285,0,0,0,.7,4.858,6.969,6.969,0,0,0,4.188,2.664c2.579.553,5.411-.117,7.79,1,1.483.7,2.68,2.035,4.289,2.3a5.436,5.436,0,0,0,3.585-.93A25.537,25.537,0,0,0,329,189.331a28.649,28.649,0,0,0,4.565-5.746A69.017,69.017,0,0,1,337.984,177c1.382-1.993,4.557-1.985,5.729-4.1,2.195-3.962-.754-11.936.226-16.183a7.186,7.186,0,0,1,2.437-4.188C348.011,151.1,349.334,149.31,348.622,147.115Z" transform="translate(-275.168 -129.693)" fill="url(#g)"/><path d="M292,181.019a13.578,13.578,0,0,0-1.591-4.833q-2.127-4.473-4.188-8.988c-.678-1.5-1.4-3-2.01-4.523a3.5,3.5,0,0,0-.645-1.3c-.469-.469-1.206-.687-1.675-1.131-1.424-1.24-1.583-3.35-1.625-5.243a4.322,4.322,0,0,1,.511-2.689,4.188,4.188,0,0,1,1.876-1.248,4.615,4.615,0,0,1,1.876-.486,3.208,3.208,0,0,1,2.153,1.1,9.338,9.338,0,0,1,1.332,2.077c2.571,4.883,5.26,9.582,8.192,14.239a45.689,45.689,0,0,1,4.774,9.088,15.311,15.311,0,0,1,.31,10.051,8.778,8.778,0,0,1-2.605,3.845,12.162,12.162,0,0,1-5.025,2.153,43.305,43.305,0,0,1-22.716-.838,9.387,9.387,0,0,1-4.665-2.689,7.672,7.672,0,0,1-1.474-4.062c-.352-3.166.9-8.267,4.766-7.656,2.295.36,5.151,2.379,7.262,3.35C279.232,182.384,292.106,182.761,292,181.019Z" transform="translate(-196.363 -130.997)" fill="url(#h)"/><path d="M262.319,364.82l1.508.218.209-5.495s2.58,1.843,3.468,2.705,10.344,4.967,12.958,3.25-9.942-11.475-9.942-11.475l19.667-56.513,14.675-34.861s30.112,4.188,28.395,8.066c-1.541,3.35-2.8,28.889-3.685,35.849h0a7.783,7.783,0,0,1-.335,1.625.256.256,0,0,0,0,.092c-.838.837-2.3,2.153-2.429,3.87s.553,9.214.553,9.214l1.323.276,1.256-6.006s.7.427,4.883,3.351,12.246,4.322,13.259,2.731-6.634-4.908-9.515-8.075,18.168-44.913,13.837-56.187-39.192-20.01-39.192-20.01-23.453-2.454-25.572.126-10.093,20.228-8.468,22.707-4.113,36.067-8.87,42.115-6.475,24.215-6.048,29.375-1.717,19.55-1.717,19.55a11.353,11.353,0,0,0-1.843,3.593C260.476,356.327,262.319,364.82,262.319,364.82Z" transform="translate(-243.963 -144.932)" fill="#606161"/><path d="M352.627,267.2s3.242.754,3.618,1.3a12.272,12.272,0,0,1,0,6.315l-2.1-.7s.536-3.183.05-4.188-3.727-1.457-3.727-1.457a4.682,4.682,0,0,0-6,3.082l-1.943-.436s1.348-4.322,3.786-4.64A20.962,20.962,0,0,1,352.627,267.2Z" transform="translate(-316.187 -149.806)" fill="url(#i)"/><path d="M330.772,193.444a16.572,16.572,0,0,1,1.2,4.875c.125,3.267-1.675,6.249-3.351,9.071-2.89,5.026-5.486,10.395-5.687,16.157-.084,2.513.151,5.352-1.633,7.1a7.744,7.744,0,0,1-4.414,1.675,67.237,67.237,0,0,1-15.73.26c-1.533-.151-3.292-.519-4-1.893a4.755,4.755,0,0,1-.276-2.513l1.859-26.075a45.671,45.671,0,0,1,1.675-10.939c1-3.007,4.263-6.24,6.416-8.56a13.963,13.963,0,0,1,13.72-3.887C328.477,180.553,328.4,186.852,330.772,193.444Z" transform="translate(-253.223 -135.49)" fill="#00629b"/><path d="M304.488,191.129a11.617,11.617,0,0,1,3.585-4.774,24.692,24.692,0,0,0-6.818-4.188c-.838-.352-9.892-3.945-10.7-3.543s6.927,4.582,6.634,5.4a8.083,8.083,0,0,0-.729,4.029,8.978,8.978,0,0,0,1.164,2.722,45.742,45.742,0,0,1,2.161,4.414c.293.687,1.114,4.087,1.776,4.188C302.963,199.614,304.052,192.21,304.488,191.129Z" transform="translate(-224.015 -135.546)" fill="#00629b"/><path d="M341.322,223.62c-.109,2.3-.184,4.724.913,6.7.561,1.03,1.391,1.884,1.977,2.906a3.409,3.409,0,0,1,.268,3.35c-1.039,1.742-3.786,1.357-5.31,2.7a5.244,5.244,0,0,0-1.273,2.035,37.944,37.944,0,0,0-2.337,21.309c.285,1.55.595,3.351-.427,4.54-1.29,1.508-3.677.988-5.637.645-1.834-.318-4.1-.637-4.758-2.387a4.757,4.757,0,0,1,0-2.354c1.239-8.451,1.675-17.012,3.065-25.438s3.811-16.853,8.611-23.914a17.378,17.378,0,0,1,3.208-3.7c1.943-1.617,2.437-1.416,2.32,1.081Z" transform="translate(-289.303 -140.479)" opacity="0.37" fill="url(#j)"/><path d="M346.3,210.132c-1.767,2.379-2.513,5.352-3.2,8.234L334.728,253.2a4.589,4.589,0,0,1-.838,1.943c-.6.7-1.675,1.147-1.725,2.069,0,.352.117.737-.092,1.013a.965.965,0,0,1-.9.235,9.764,9.764,0,0,1-3.476-.729,3.35,3.35,0,0,1-1.993-2.747c0-1.566,1.374-2.714,2.354-3.945,2.421-3.041,2.446-7.262,2.571-11.14.5-14.675,4.305-29.417,12.338-41.713.645-.988,1.575-2.077,2.739-1.9a2.907,2.907,0,0,1,1.583,1.047c1.349,1.466,3.761,4.582,3.711,6.7C350.944,206.371,347.611,208.381,346.3,210.132Z" transform="translate(-296.429 -138.416)" fill="url(#k)"/><path d="M310.764,155.818c.771.444,1.675.921,1.9,1.776a10.176,10.176,0,0,1,.142,1.013c.26,1.541,1.943,2.647,1.935,4.188s-1.491,2.471-2.513,3.543a9.825,9.825,0,0,0-2.421,5.1,33.245,33.245,0,0,0-.352,5.7c0,1.734-.243,3.8-1.784,4.6a3.955,3.955,0,0,1-2.312.268,4.942,4.942,0,0,1-2.513-.988,4.632,4.632,0,0,1-1.457-3.267,21.441,21.441,0,0,1,.226-3.66,24.652,24.652,0,0,0,.05-3.853,3.694,3.694,0,0,0-.98-2.664,5.478,5.478,0,0,0-1.993-.838,4.473,4.473,0,0,1-2.647-1.868,2.513,2.513,0,0,1,.327-3.041c.729-.662,2-.838,2.245-1.792a2.513,2.513,0,0,0,0-.8,9.1,9.1,0,0,1,2.01-6.232c1.089-1.34,3.35-2.747,5.068-1.675a19.081,19.081,0,0,1,2.077,2.186A17.379,17.379,0,0,0,310.764,155.818Z" transform="translate(-235.031 -131.058)" fill="url(#l)"/><path d="M315.483,150.808a2.321,2.321,0,0,0-.612,1.818,19.325,19.325,0,0,0,.268,1.96,2.648,2.648,0,0,1-.4,1.893c-.6.787-1.868,1.072-2.052,2.044a1.935,1.935,0,0,0,.729,1.633,4.918,4.918,0,0,1,1.215,1.39.7.7,0,0,1,.059.5c-.1.285-.444.385-.746.419a3.107,3.107,0,0,1-1.273-.075,6.475,6.475,0,0,1-1.583-.98,6.592,6.592,0,0,0-2.831-1.089,1.951,1.951,0,0,1-1.256-.436,1.28,1.28,0,0,1-.268-.67,4.715,4.715,0,0,1,.578-2.588,34.651,34.651,0,0,1,2.446-4.389,5.533,5.533,0,0,1,1.047-1.323,4.9,4.9,0,0,1,2.253-.9c1.055-.209,3.1-.461,3.853.519A1.532,1.532,0,0,0,315.483,150.808Z" transform="translate(-246.443 -130.873)" fill="#606161"/><path d="M296.972,135.124c2.781,5.026,4.046,9.607,2.831,10.286a6.03,6.03,0,0,1-1.859.754c-1.516-.528-3.057-4.414-5.377-8.594s-5.143-7.731-4.774-9.289c.067-.3,1.742-.888,1.935-1C290.941,126.605,294.2,130.115,296.972,135.124Z" transform="translate(-213.919 -127.2)" fill="#00629b"/><path d="M293.244,138.461c2.764,5.026,6.014,8.535,7.245,7.857a.955.955,0,0,0,.427-.712c.3-1.6-.955-5.436-3.258-9.574s-4.758-7.095-6.324-7.8a1.1,1.1,0,0,0-.921-.059C289.19,128.854,290.455,133.461,293.244,138.461Z" transform="translate(-216.448 -127.346)"/><path d="M293.255,137.844c2.245,4.054,4.791,7.153,6.357,7.8.3-1.6-.955-5.436-3.258-9.574s-4.758-7.094-6.324-7.8C289.7,129.861,290.952,133.731,293.255,137.844Z" transform="translate(-215.169 -127.374)" fill="#fff"/><path d="M252.7,147.71l.745,1.734-.955.477-.812-1.725Z" transform="translate(-167.17 -129.375)" fill="#00629b"/><path d="M281.662,159.034l2.873,5.4a.963.963,0,0,1-.645,1.223c-.938.36-1.365.067-1.365.067l-2.881-5.4S280.288,158.381,281.662,159.034Z" transform="translate(-191.439 -132.348)"/><rect width="48.602" height="33.411" rx="5.071" transform="translate(49.869 162.285) rotate(-164.995)" fill="#606161"/><rect width="48.602" height="33.411" rx="5.071" transform="translate(49.869 162.285) rotate(-164.995)" fill="url(#m)"/><rect width="48.397" height="33.27" rx="5.05" transform="matrix(-0.967, -0.256, 0.256, -0.967, 46.789, 161.181)" fill="#606161"/><rect width="48.397" height="33.27" rx="5.05" transform="matrix(-0.967, -0.256, 0.256, -0.967, 46.789, 161.181)" fill="url(#n)"/><path d="M305.72,274.633c-1.541,3.35-2.8,28.889-3.685,35.849,1.5-6.96,7.061-32.533,8.376-34.191,1.533-1.96,1.315-6.935.209-8.87s-15.588-6.9-23.126-6.9a11.023,11.023,0,0,0-10.16,6.048S307.437,270.738,305.72,274.633Z" transform="translate(-216.427 -148.849)" opacity="0.37" fill="url(#o)"/></g></g></g><g transform="translate(208.089 0) rotate(20)"><g transform="matrix(0.94, -0.34, 0.34, 0.94, -359.18, -238.08)" filter="url(#p)"><path d="M7.659,25.676V22.443c3.453-.565,5.3-2.919,5.3-5.587,0-2.794-1.569-4.489-5.085-5.807-2.668-1.067-3.8-1.789-3.8-3.076,0-1.067.785-2.2,2.982-2.2a9.33,9.33,0,0,1,4.269,1.067l.848-2.888A10.038,10.038,0,0,0,7.847,2.919V0H5.273V3.076C2.1,3.641.22,5.713.22,8.412c0,2.919,2.134,4.426,5.43,5.619,2.323.848,3.421,1.758,3.421,3.17,0,1.507-1.35,2.48-3.327,2.48A9.9,9.9,0,0,1,.848,18.3L0,21.25a10.5,10.5,0,0,0,5.085,1.381v3.045Z" transform="matrix(0.89, 0.45, -0.45, 0.89, 309.82, 385.08)" fill="#fff"/></g><g transform="matrix(0.94, -0.34, 0.34, 0.94, -359.18, -238.08)" filter="url(#r)"><path d="M15.318,51.352V44.886c6.906-1.13,10.609-5.838,10.609-11.174,0-5.587-3.139-8.977-10.17-11.614-5.336-2.134-7.6-3.578-7.6-6.152,0-2.134,1.569-4.394,5.964-4.394a18.66,18.66,0,0,1,8.538,2.134l1.7-5.776a20.076,20.076,0,0,0-8.663-2.072V0H10.547V6.152C4.206,7.282.439,11.426.439,16.825c0,5.838,4.269,8.852,10.861,11.237,4.646,1.7,6.843,3.516,6.843,6.341,0,3.013-2.7,4.959-6.654,4.959A19.8,19.8,0,0,1,1.7,36.6L0,42.5a21,21,0,0,0,10.17,2.762v6.089Z" transform="translate(254.55 350.8) rotate(10)" fill="#fff"/></g><g transform="matrix(0.94, -0.34, 0.34, 0.94, -359.18, -238.08)" filter="url(#t)"><path d="M5.106,17.117V14.962a3.815,3.815,0,0,0,3.536-3.725c0-1.862-1.046-2.992-3.39-3.871C3.474,6.654,2.72,6.173,2.72,5.315c0-.711.523-1.465,1.988-1.465a6.22,6.22,0,0,1,2.846.711l.565-1.925a6.692,6.692,0,0,0-2.888-.691V0H3.516V2.051C1.4,2.427.146,3.809.146,5.608c0,1.946,1.423,2.951,3.62,3.746,1.549.565,2.281,1.172,2.281,2.114,0,1-.9,1.653-2.218,1.653A6.6,6.6,0,0,1,.565,12.2L0,14.167a7,7,0,0,0,3.39.921v2.03Z" transform="matrix(1, 0.02, -0.02, 1, 235.45, 435.35)" fill="#fff"/></g></g></g></g><path d="M.888,0H12.744V-2.112H5.232C9.7-6.984,12.1-9.912,12.1-12.744A5.258,5.258,0,0,0,6.5-18.216a7.169,7.169,0,0,0-4.752,1.752v2.5A6.208,6.208,0,0,1,6.312-16.1a3.388,3.388,0,0,1,3.528,3.48C9.84-10.536,8.832-8.88.888,0Zm21.84-18.216c-3.7,0-6.672,3.5-6.672,9.312C16.056-3.12,19.032.36,22.728.36s6.7-3.48,6.7-9.264C29.424-14.712,26.424-18.216,22.728-18.216Zm0,2.112c2.448,0,4.464,2.64,4.464,7.2,0,4.536-2.016,7.152-4.464,7.152-2.472,0-4.416-2.592-4.416-7.152S20.256-16.1,22.728-16.1ZM36.744,0h2.208V-17.928h-.216L32.3-15.264v2.328l4.44-1.9ZM50.016-18.216a6,6,0,0,0-6.144,6.072,5.8,5.8,0,0,0,5.88,5.712,7.31,7.31,0,0,0,.984-.072L45.48,0h2.688l5.448-6.768c1.68-1.992,2.472-3.7,2.472-5.5A5.833,5.833,0,0,0,50.016-18.216Zm2.472,9.5a5.8,5.8,0,0,1-2.28.48,3.949,3.949,0,0,1-4.1-4.008,3.857,3.857,0,0,1,3.912-3.936,3.809,3.809,0,0,1,3.864,3.96A5.439,5.439,0,0,1,52.488-8.712Zm4.944,11.9h2.136l8.04-24.216h-2.16ZM69.816,0H81.672V-2.112H74.16c4.464-4.872,6.864-7.8,6.864-10.632a5.258,5.258,0,0,0-5.592-5.472,7.169,7.169,0,0,0-4.752,1.752v2.5A6.208,6.208,0,0,1,75.24-16.1a3.388,3.388,0,0,1,3.528,3.48C78.768-10.536,77.76-8.88,69.816,0Zm21.84-18.216c-3.7,0-6.672,3.5-6.672,9.312C84.984-3.12,87.96.36,91.656.36s6.7-3.48,6.7-9.264C98.352-14.712,95.352-18.216,91.656-18.216Zm0,2.112c2.448,0,4.464,2.64,4.464,7.2,0,4.536-2.016,7.152-4.464,7.152-2.472,0-4.416-2.592-4.416-7.152S89.184-16.1,91.656-16.1ZM109.16,0h1.472V-7.376h2.48v-1.28h-2.5v-1.1c0-1.216.592-1.744,1.664-1.744a3.717,3.717,0,0,1,1.264.224v-1.36a4.766,4.766,0,0,0-1.44-.24,2.8,2.8,0,0,0-2.944,2.928v1.3h-1.248v1.28h1.248Zm6.656-10.64a.879.879,0,0,0,.912-.9.879.879,0,0,0-.912-.9.879.879,0,0,0-.912.9A.879.879,0,0,0,115.816-10.64ZM115.08,0h1.472V-8.656H115.08Zm8.512-8.848a3.122,3.122,0,0,0-2.656,1.5h-.048l-.16-1.312h-1.136V0h1.472V-5.28a2.093,2.093,0,0,1,2.16-2.16c1.3,0,1.984.72,1.984,2.24V0h1.472V-5.728A2.906,2.906,0,0,0,123.592-8.848Zm9.376,9.04a3.479,3.479,0,0,0,3.088-1.776L136.232,0h1.2V-8.656h-1.2l-.176,1.6a3.5,3.5,0,0,0-3.088-1.792c-2.032,0-3.936,1.76-3.936,4.528C129.032-1.584,130.936.192,132.968.192Zm.3-1.376A2.868,2.868,0,0,1,130.52-4.32a2.873,2.873,0,0,1,2.752-3.152,2.875,2.875,0,0,1,2.736,3.136A2.881,2.881,0,0,1,133.272-1.184ZM144.44-8.848a3.122,3.122,0,0,0-2.656,1.5h-.048l-.16-1.312H140.44V0h1.472V-5.28a2.093,2.093,0,0,1,2.16-2.16c1.3,0,1.984.72,1.984,2.24V0h1.472V-5.728A2.906,2.906,0,0,0,144.44-8.848Zm6.928,4.512a2.986,2.986,0,0,1,2.96-3.136,3.653,3.653,0,0,1,2.32.736v-1.5a4.433,4.433,0,0,0-2.4-.608,4.348,4.348,0,0,0-4.368,4.512A4.343,4.343,0,0,0,154.248.192a4.8,4.8,0,0,0,2.4-.592V-1.888a3.7,3.7,0,0,1-2.3.7A2.984,2.984,0,0,1,151.368-4.336Zm8.56-6.3a.879.879,0,0,0,.912-.9.879.879,0,0,0-.912-.9.879.879,0,0,0-.912.9A.879.879,0,0,0,159.928-10.64ZM159.192,0h1.472V-8.656h-1.472Zm7.888.192a3.479,3.479,0,0,0,3.088-1.776L170.344,0h1.2V-8.656h-1.2l-.176,1.6a3.5,3.5,0,0,0-3.088-1.792c-2.032,0-3.936,1.76-3.936,4.528C163.144-1.584,165.048.192,167.08.192Zm.3-1.376a2.868,2.868,0,0,1-2.752-3.136,2.873,2.873,0,0,1,2.752-3.152,2.875,2.875,0,0,1,2.736,3.136A2.881,2.881,0,0,1,167.384-1.184ZM174.584,0h1.472V-12.8h-1.472Zm15.792-8.656H188.84l-2.384,6.592h-.032L184.04-8.656h-1.6L185.672-.3,184.184,3.36h1.5Zm9.088,4.16c0-2.848-1.68-4.352-3.728-4.352a4.25,4.25,0,0,0-4.176,4.56,4.166,4.166,0,0,0,4.384,4.48,5.043,5.043,0,0,0,3.024-.96V-2.224a4.472,4.472,0,0,1-2.912,1.136A2.95,2.95,0,0,1,193-3.84h6.416A3.93,3.93,0,0,0,199.464-4.5ZM193-4.944a2.81,2.81,0,0,1,2.72-2.624,2.358,2.358,0,0,1,2.32,2.624ZM205.272.192a3.479,3.479,0,0,0,3.088-1.776L208.536,0h1.2V-8.656h-1.2l-.176,1.6a3.5,3.5,0,0,0-3.088-1.792c-2.032,0-3.936,1.76-3.936,4.528C201.336-1.584,203.24.192,205.272.192Zm.3-1.376a2.868,2.868,0,0,1-2.752-3.136,2.873,2.873,0,0,1,2.752-3.152,2.875,2.875,0,0,1,2.736,3.136A2.881,2.881,0,0,1,205.576-1.184ZM212.744,0h1.472V-4.928a2.243,2.243,0,0,1,2.32-2.432,3.725,3.725,0,0,1,.608.064V-8.7a3.1,3.1,0,0,0-.576-.048,2.8,2.8,0,0,0-2.48,1.472h-.016l-.16-1.376h-1.168Z" transform="translate(32 297)" fill="#fff"/><path d="M11.664-27.432c-6.192,0-9.9,3.564-9.9,8.28,0,5,4.248,6.8,7.38,7.992,2.556,1.008,4.428,1.728,4.428,3.312,0,1.44-1.476,2.484-4,2.484a12.454,12.454,0,0,1-7.668-2.88V-1.8A15.242,15.242,0,0,0,10.3.576c6.336,0,10.224-3.564,10.224-8.64,0-5.4-4.5-7.128-8.208-8.5C9.828-17.532,8.5-18.108,8.5-19.368c0-1.3,1.368-2.124,3.636-2.124A12.77,12.77,0,0,1,18.9-19.476V-25.6A14.728,14.728,0,0,0,11.664-27.432ZM42.768.648c7.2,0,11.592-4.752,11.592-11.412V-26.856H47.52V-10.8c0,3.384-1.8,5.22-4.752,5.22-2.88,0-4.608-1.836-4.608-5.184V-26.856H31.32v16.092C31.32-4.1,35.64.648,42.768.648ZM66.528,0h6.84V-7.02h2.016c7.7,0,11.736-4.716,11.736-10.152,0-5.9-4.356-9.684-12.168-9.684H66.528Zm9.18-13.068h-2.34V-20.7h2.3c2.628,0,4.572,1.3,4.572,3.78S78.3-13.068,75.708-13.068ZM97.776,0h17.712V-6.084H104.616v-4.68h9.828v-5.544h-9.828v-4.464h10.872v-6.084H97.776Zm43.2-9.684c4.788-1.62,6.192-5.292,6.192-8.136,0-5.976-4.356-9.036-10.944-9.036h-9.036V0h6.84V-8.892h.216L140.4,0h8.1Zm-6.948-4.392V-20.7h2.088c2.484,0,4.176,1.152,4.176,3.312,0,2.124-1.62,3.312-4.212,3.312ZM11.664,20.568c-6.192,0-9.9,3.564-9.9,8.28,0,5,4.248,6.8,7.38,7.992,2.556,1.008,4.428,1.728,4.428,3.312,0,1.44-1.476,2.484-4,2.484a12.454,12.454,0,0,1-7.668-2.88V46.2A15.242,15.242,0,0,0,10.3,48.576c6.336,0,10.224-3.564,10.224-8.64,0-5.4-4.5-7.128-8.208-8.5C9.828,30.468,8.5,29.892,8.5,28.632c0-1.3,1.368-2.124,3.636-2.124A12.77,12.77,0,0,1,18.9,28.524V22.4A14.728,14.728,0,0,0,11.664,20.568Zm43.884.576H49.032V36.876H49L38.2,21.144H31.644V48H38.16V31.98H38.2L49.068,48h6.48ZM93.2,48,83.2,21.144h-7.92L65.412,48H72.5l2.016-5.94h9.468L86.076,48ZM79.236,28.128l2.916,8.388H76.32ZM103,48h6.84V40.98h2.016c7.7,0,11.736-4.716,11.736-10.152,0-5.9-4.356-9.684-12.168-9.684H103Zm9.18-13.068h-2.34V27.3h2.3c2.628,0,4.572,1.3,4.572,3.78S114.768,34.932,112.176,34.932Zm31.1-14.364c-6.192,0-9.9,3.564-9.9,8.28,0,5,4.248,6.8,7.38,7.992,2.556,1.008,4.428,1.728,4.428,3.312,0,1.44-1.476,2.484-4,2.484a12.454,12.454,0,0,1-7.668-2.88V46.2a15.242,15.242,0,0,0,8.388,2.376c6.336,0,10.224-3.564,10.224-8.64,0-5.4-4.5-7.128-8.208-8.5-2.484-.972-3.816-1.548-3.816-2.808,0-1.3,1.368-2.124,3.636-2.124a12.77,12.77,0,0,1,6.768,2.016V22.4A14.728,14.728,0,0,0,143.28,20.568ZM179.82,48h6.84V21.144h-6.84v10.4H170.1v-10.4h-6.84V48h6.84V37.74h9.72Zm31.968.648a13.67,13.67,0,0,0,14.04-14.076,14.058,14.058,0,1,0-28.116,0A13.7,13.7,0,0,0,211.788,48.648Zm0-6.228c-3.708,0-7.2-2.844-7.2-7.848s3.492-7.884,7.2-7.884c3.636,0,7.164,2.88,7.164,7.884S215.424,42.42,211.788,42.42ZM241.74,48h6.8V27.3h7.632V21.144h-22.1V27.3h7.668Z" transform="translate(32 182)" fill="#fff"/><path d="M-714,270l6,6,6-6" transform="translate(895.5 332)" fill="none" stroke="#fff" stroke-width="2" opacity="0.5"/></g></svg>