<svg xmlns="http://www.w3.org/2000/svg" xmlns:xlink="http://www.w3.org/1999/xlink" width="375" height="628" viewBox="0 0 375 628"><defs><linearGradient id="a" x1="0.581" y1="1.071" x2="0.387" y2="-0.139" gradientUnits="objectBoundingBox"><stop offset="0" stop-color="#e1e2e8"/><stop offset="1" stop-color="#f8f8fc"/></linearGradient><filter id="b" x="22.336" y="233.341" width="327.324" height="109.324" filterUnits="userSpaceOnUse"><feOffset dy="3" input="SourceAlpha"/><feGaussianBlur stdDeviation="3" result="c"/><feFlood flood-color="#0057b8" flood-opacity="0.2"/><feComposite operator="in" in2="c"/><feComposite in="SourceGraphic"/></filter><linearGradient id="d" x1="0.208" x2="0.683" y2="1" gradientUnits="objectBoundingBox"><stop offset="0" stop-color="#ffc400"/><stop offset="1" stop-color="#ffa300"/></linearGradient><filter id="e" x="14" y="410" width="59.06" height="60" filterUnits="userSpaceOnUse"><feOffset dy="4" input="SourceAlpha"/><feGaussianBlur stdDeviation="6" result="f"/><feFlood flood-color="#ffa300" flood-opacity="0.2"/><feComposite operator="in" in2="f"/><feComposite in="SourceGraphic"/></filter><clipPath id="h"><rect width="375" height="628"/></clipPath></defs><g id="g" clip-path="url(#h)"><rect width="375" height="628" fill="#fff"/><path d="M3.72.15A2.757,2.757,0,0,0,6.59-2.82V-7.44H5.66v4.66A1.863,1.863,0,0,1,3.72-.73,1.809,1.809,0,0,1,1.86-2.76V-7.44H.93v4.63A2.7,2.7,0,0,0,3.72.15ZM8.36,2.1h.92V-.94A2.153,2.153,0,0,0,11.15.12,2.6,2.6,0,0,0,13.6-2.71a2.608,2.608,0,0,0-2.46-2.82A2.18,2.18,0,0,0,9.22-4.41l-.11-1H8.36Zm2.6-2.84A1.79,1.79,0,0,1,9.26-2.7a1.793,1.793,0,0,1,1.7-1.97,1.792,1.792,0,0,1,1.72,1.96A1.79,1.79,0,0,1,10.96-.74Zm6.11.86A2.186,2.186,0,0,0,19-.99l.11.99h.75V-8h-.92v3.53a2.123,2.123,0,0,0-1.87-1.06A2.605,2.605,0,0,0,14.61-2.7,2.614,2.614,0,0,0,17.07.12Zm.19-.86A1.8,1.8,0,0,1,15.53-2.7a1.8,1.8,0,0,1,1.73-1.97,1.79,1.79,0,0,1,1.7,1.96A1.793,1.793,0,0,1,17.26-.74Zm6.38.86A2.175,2.175,0,0,0,25.57-.99l.11.99h.75V-5.41h-.75l-.11,1a2.184,2.184,0,0,0-1.93-1.12A2.617,2.617,0,0,0,21.18-2.7,2.62,2.62,0,0,0,23.64.12Zm.19-.86A1.792,1.792,0,0,1,22.11-2.7a1.8,1.8,0,0,1,1.72-1.97,1.8,1.8,0,0,1,1.71,1.96A1.8,1.8,0,0,1,23.83-.74Zm5.41-5.94h-.88v1.27h-.83v.8h.81v2.72A1.79,1.79,0,0,0,30.27.07a3.389,3.389,0,0,0,.64-.06v-.8a2.8,2.8,0,0,1-.48.05,1.074,1.074,0,0,1-1.19-1.19V-4.61h1.55v-.8H29.24Zm7.32,3.87c0-1.78-1.05-2.72-2.33-2.72a2.656,2.656,0,0,0-2.61,2.85A2.6,2.6,0,0,0,34.36.12a3.152,3.152,0,0,0,1.89-.6v-.91a2.8,2.8,0,0,1-1.82.71A1.844,1.844,0,0,1,32.52-2.4h4.01A2.456,2.456,0,0,0,36.56-2.81Zm-4.04-.28a1.756,1.756,0,0,1,1.7-1.64,1.474,1.474,0,0,1,1.45,1.64ZM40,.12A2.186,2.186,0,0,0,41.93-.99l.11.99h.75V-8h-.92v3.53A2.123,2.123,0,0,0,40-5.53,2.605,2.605,0,0,0,37.54-2.7,2.614,2.614,0,0,0,40,.12Zm.19-.86A1.8,1.8,0,0,1,38.46-2.7a1.8,1.8,0,0,1,1.73-1.97,1.79,1.79,0,0,1,1.7,1.96A1.793,1.793,0,0,1,40.19-.74Zm4.78-2.6a.613.613,0,0,0,.62-.63.611.611,0,0,0-.62-.62.6.6,0,0,0-.62.62A.607.607,0,0,0,44.97-3.34Zm0,3.39a.611.611,0,0,0,.62-.62.613.613,0,0,0-.62-.63.607.607,0,0,0-.62.63A.6.6,0,0,0,44.97.05ZM49.42,0h4.94V-.88H51.23c1.86-2.03,2.86-3.25,2.86-4.43a2.191,2.191,0,0,0-2.33-2.28,2.987,2.987,0,0,0-1.98.73v1.04a2.587,2.587,0,0,1,1.9-.89,1.411,1.411,0,0,1,1.47,1.45C53.15-4.39,52.73-3.7,49.42,0Zm5.86,0h4.94V-.88H57.09c1.86-2.03,2.86-3.25,2.86-4.43a2.191,2.191,0,0,0-2.33-2.28,2.987,2.987,0,0,0-1.98.73v1.04a2.587,2.587,0,0,1,1.9-.89,1.411,1.411,0,0,1,1.47,1.45C59.01-4.39,58.59-3.7,55.28,0Zm5.84,1.33h.89L65.36-8.76h-.9ZM66.29,0h.99l3.89-7.44H66.23v.87h3.52Zm4.62,1.33h.89L75.15-8.76h-.9ZM75.87,0h4.94V-.88H77.68c1.86-2.03,2.86-3.25,2.86-4.43a2.191,2.191,0,0,0-2.33-2.28,2.987,2.987,0,0,0-1.98.73v1.04a2.587,2.587,0,0,1,1.9-.89A1.411,1.411,0,0,1,79.6-5.26C79.6-4.39,79.18-3.7,75.87,0Zm8.9-7.59c-1.54,0-2.78,1.46-2.78,3.88S83.23.15,84.77.15s2.79-1.45,2.79-3.86S86.31-7.59,84.77-7.59Zm0,.88c1.02,0,1.86,1.1,1.86,3S85.79-.73,84.77-.73s-1.84-1.08-1.84-2.98S83.74-6.71,84.77-6.71ZM88.55,0h4.94V-.88H90.36c1.86-2.03,2.86-3.25,2.86-4.43a2.191,2.191,0,0,0-2.33-2.28,2.987,2.987,0,0,0-1.98.73v1.04a2.587,2.587,0,0,1,1.9-.89,1.411,1.411,0,0,1,1.47,1.45C92.28-4.39,91.86-3.7,88.55,0Zm8.9-7.59c-1.54,0-2.78,1.46-2.78,3.88S95.91.15,97.45.15s2.79-1.45,2.79-3.86S98.99-7.59,97.45-7.59Zm0,.88c1.02,0,1.86,1.1,1.86,3S98.47-.73,97.45-.73s-1.84-1.08-1.84-2.98S96.42-6.71,97.45-6.71Z" transform="translate(32 71)"/><path d="M0,0H375V184H0Z" transform="translate(0 208)" opacity="0.6" fill="url(#a)"/><g transform="matrix(1, 0, 0, 1, 0, 0)" filter="url(#b)"><path d="M2587,2694.178c1.621-.77,12.025-6.037,25.876-13.354,7.492-3.959,12.193-14.22,30.623-16.122,14.781-1.526,19.552,5.1,31.2,5.507a38.413,38.413,0,0,0,9.709-1.062c19.612-4.418,20.432-18.455,45.307-26.038s35.567-1.593,54.193-4.292,25.424-14.164,36.705-14.249,20.312,18.415,37.139,18.54S2891,2608.178,2891,2608.178" transform="translate(-2553 -2366.18)" fill="none" stroke="#00629b" stroke-linecap="round" stroke-linejoin="round" stroke-width="4"/></g><path d="M0,0H312V1H0Z" transform="translate(32 352)"/><path d="M.29-1.4V-.39A2.121,2.121,0,0,0,1.68.12,1.978,1.978,0,0,0,3.71-2.04v-5.4H2.78v5.27c0,.94-.47,1.41-1.2,1.41A1.739,1.739,0,0,1,.29-1.4ZM7.63.12a2.084,2.084,0,0,0,2.24-2.2V-5.41H8.95v3.35A1.219,1.219,0,0,1,7.63-.74,1.2,1.2,0,0,1,6.35-2.06V-5.41H5.43v3.33A2.058,2.058,0,0,0,7.63.12ZM11.5,0h.92V-8H11.5Zm4.88,0h4.94V-.88H18.19c1.86-2.03,2.86-3.25,2.86-4.43a2.191,2.191,0,0,0-2.33-2.28,2.987,2.987,0,0,0-1.98.73v1.04a2.587,2.587,0,0,1,1.9-.89,1.412,1.412,0,0,1,1.47,1.45C20.11-4.39,19.69-3.7,16.38,0Zm8.9-7.59c-1.54,0-2.78,1.46-2.78,3.88S23.74.15,25.28.15s2.79-1.45,2.79-3.86S26.82-7.59,25.28-7.59Zm0,.88c1.02,0,1.86,1.1,1.86,3S26.3-.73,25.28-.73s-1.84-1.08-1.84-2.98S24.25-6.71,25.28-6.71ZM30.92,0h.92V-7.47h-.09L29.07-6.36v.97l1.85-.79Zm7.15-7.44H34.85l-.67,3.86.12.1a2.913,2.913,0,0,1,1.35-.35,1.593,1.593,0,0,1,1.8,1.57A1.538,1.538,0,0,1,35.74-.74a2.663,2.663,0,0,1-1.97-.89V-.55a3.061,3.061,0,0,0,1.98.7A2.421,2.421,0,0,0,38.4-2.3a2.33,2.33,0,0,0-2.48-2.32,2.6,2.6,0,0,0-.81.15l.41-2.1h2.55Z" transform="translate(32 369)"/><path d="M-41.16-7.6a2.1,2.1,0,0,0-2.35,2.03c0,1.18.88,1.63,1.97,2.12,1.04.47,1.59.81,1.59,1.5,0,.8-.72,1.24-1.55,1.24a2.961,2.961,0,0,1-2.04-.86V-.53a3.5,3.5,0,0,0,2.08.69,2.236,2.236,0,0,0,2.47-2.17c0-1.21-.91-1.69-2.04-2.19-1.02-.46-1.54-.77-1.54-1.42,0-.74.66-1.11,1.42-1.11a3.16,3.16,0,0,1,1.76.58v-.96A3.485,3.485,0,0,0-41.16-7.6Zm8.1,4.79c0-1.78-1.05-2.72-2.33-2.72A2.656,2.656,0,0,0-38-2.68,2.6,2.6,0,0,0-35.26.12a3.152,3.152,0,0,0,1.89-.6v-.91a2.8,2.8,0,0,1-1.82.71A1.844,1.844,0,0,1-37.1-2.4h4.01A2.456,2.456,0,0,0-33.06-2.81Zm-4.04-.28a1.756,1.756,0,0,1,1.7-1.64,1.474,1.474,0,0,1,1.45,1.64Zm5.36,5.19h.92V-.94A2.153,2.153,0,0,0-28.95.12,2.6,2.6,0,0,0-26.5-2.71a2.608,2.608,0,0,0-2.46-2.82,2.18,2.18,0,0,0-1.92,1.12l-.11-1h-.75Zm2.6-2.84a1.79,1.79,0,0,1-1.7-1.96,1.793,1.793,0,0,1,1.7-1.97,1.792,1.792,0,0,1,1.72,1.96A1.79,1.79,0,0,1-29.14-.74Zm6.25.74h4.94V-.88h-3.13c1.86-2.03,2.86-3.25,2.86-4.43a2.191,2.191,0,0,0-2.33-2.28,2.987,2.987,0,0,0-1.98.73v1.04a2.587,2.587,0,0,1,1.9-.89,1.412,1.412,0,0,1,1.47,1.45C-19.16-4.39-19.58-3.7-22.89,0Zm8.9-7.59c-1.54,0-2.78,1.46-2.78,3.88S-15.53.15-13.99.15-11.2-1.3-11.2-3.71-12.45-7.59-13.99-7.59Zm0,.88c1.02,0,1.86,1.1,1.86,3s-.84,2.98-1.86,2.98-1.84-1.08-1.84-2.98S-15.02-6.71-13.99-6.71ZM-8.35,0h.92V-7.47h-.09L-10.2-6.36v.97l1.85-.79Zm5.33-7.59A2.5,2.5,0,0,0-5.58-5.06,2.415,2.415,0,0,0-3.13-2.68a3.046,3.046,0,0,0,.41-.03L-4.91,0h1.12l2.27-2.82A3.546,3.546,0,0,0-.49-5.11,2.431,2.431,0,0,0-3.02-7.59Zm1.03,3.96a2.417,2.417,0,0,1-.95.2A1.645,1.645,0,0,1-4.65-5.1,1.607,1.607,0,0,1-3.02-6.74,1.587,1.587,0,0,1-1.41-5.09,2.266,2.266,0,0,1-1.99-3.63Z" transform="translate(344 369)"/><path d="M12,0A12,12,0,1,1,0,12,12,12,0,0,1,12,0Z" transform="translate(326 230)" fill="#00629b" opacity="0.2"/><path d="M6,0A6,6,0,1,1,0,6,6,6,0,0,1,6,0Z" transform="translate(332 236)" fill="#00629b"/><path d="M17.248-7.168c0-4.384-3.3-5.856-6.56-6.976-2.048-.7-3.68-1.376-3.68-2.816,0-1.216,1.216-2.208,3.264-2.208a9.932,9.932,0,0,1,5.6,1.888V-22.3a12.721,12.721,0,0,0-4.48-1.376v-2.368H7.232v2.624C3.9-22.56,1.76-20.064,1.76-16.96c0,4.224,3.168,5.7,6.4,6.816,2.208.736,3.808,1.44,3.808,3.008s-1.536,2.56-3.776,2.56A9.255,9.255,0,0,1,1.824-7.264v5.376A12.943,12.943,0,0,0,7.232-.064V2.3h4.16V-.288C14.944-1.184,17.248-3.872,17.248-7.168ZM24.96,0h5.12V-24.1H29.7l-10.016,3.9v5.152l5.28-2.144Zm9.6,0H52.032V-4.672h-8.1c4.352-4.7,7.1-8.192,7.1-11.712,0-4.7-3.36-8.032-8.512-8.032A10.493,10.493,0,0,0,35.9-22.144v5.216a7.855,7.855,0,0,1,5.7-2.688,3.781,3.781,0,0,1,4.064,3.776C45.664-13.44,44.736-11.808,34.56,0ZM74.4-9.344H70.592V-23.872H66.08L54.464-8.128V-5.12h11.3V0h4.832V-5.12H74.4Zm-14.592,0v-.032l5.952-8.16v8.192ZM76.192,4.288H79.84A21.911,21.911,0,0,0,82.048-4.1V-5.472H77.472v1.76A28.123,28.123,0,0,1,76.192,4.288Zm24.128-28.16H88.48l-1.92,12.96.8.544a9.366,9.366,0,0,1,3.968-.864c3.2,0,4.768,1.568,4.768,3.52,0,1.92-1.536,3.424-4.32,3.424a8.915,8.915,0,0,1-6.144-2.5V-1.44A11.357,11.357,0,0,0,92.32.544c6.176,0,9.184-4.16,9.184-8.288,0-3.9-2.88-7.456-8.192-7.456a8.317,8.317,0,0,0-1.984.256l.768-4.224h8.224Zm18.976,0h-11.84l-1.92,12.96.8.544a9.366,9.366,0,0,1,3.968-.864c3.2,0,4.768,1.568,4.768,3.52,0,1.92-1.536,3.424-4.32,3.424a8.915,8.915,0,0,1-6.144-2.5V-1.44A11.357,11.357,0,0,0,111.3.544c6.176,0,9.184-4.16,9.184-8.288,0-3.9-2.88-7.456-8.192-7.456a8.317,8.317,0,0,0-1.984.256l.768-4.224H119.3ZM128.224,0h5.12V-24.1h-.384l-10.016,3.9v5.152l5.28-2.144Z" transform="translate(32 150)"/><path d="M7.44-.432V-1.62a4.057,4.057,0,0,1-2.316.732A3.41,3.41,0,0,1,1.788-4.464,3.4,3.4,0,0,1,5.124-8.04a4.049,4.049,0,0,1,2.316.72V-8.5a4.552,4.552,0,0,0-2.364-.612A4.429,4.429,0,0,0,.648-4.476,4.443,4.443,0,0,0,5.076.18,4.586,4.586,0,0,0,7.44-.432Zm4.044.576A2.5,2.5,0,0,0,14.172-2.5v-4h-1.1v4.02A1.463,1.463,0,0,1,11.484-.888,1.438,1.438,0,0,1,9.948-2.472v-4.02h-1.1v4A2.469,2.469,0,0,0,11.484.144ZM16.1,0h1.1V-3.7a1.682,1.682,0,0,1,1.74-1.824,2.793,2.793,0,0,1,.456.048V-6.528a2.325,2.325,0,0,0-.432-.036,2.1,2.1,0,0,0-1.86,1.1H17.1l-.12-1.032H16.1Zm4.512,0h1.1V-3.7A1.682,1.682,0,0,1,23.46-5.52a2.793,2.793,0,0,1,.456.048V-6.528a2.325,2.325,0,0,0-.432-.036,2.1,2.1,0,0,0-1.86,1.1h-.012l-.12-1.032h-.876Zm9.8-3.372c0-2.136-1.26-3.264-2.8-3.264a3.188,3.188,0,0,0-3.132,3.42A3.125,3.125,0,0,0,27.78.144a3.782,3.782,0,0,0,2.268-.72V-1.668a3.354,3.354,0,0,1-2.184.852A2.213,2.213,0,0,1,25.572-2.88h4.812A2.947,2.947,0,0,0,30.42-3.372Zm-4.848-.336a2.108,2.108,0,0,1,2.04-1.968,1.769,1.769,0,0,1,1.74,1.968ZM35-6.636a2.342,2.342,0,0,0-1.992,1.128h-.036l-.12-.984H32V0h1.1V-3.96a1.57,1.57,0,0,1,1.62-1.62c.972,0,1.488.54,1.488,1.68V0h1.1V-4.3A2.18,2.18,0,0,0,35-6.636Zm5.568-1.38H39.516v1.524h-1v.96h.972v3.264A2.148,2.148,0,0,0,41.808.084a4.067,4.067,0,0,0,.768-.072v-.96A3.357,3.357,0,0,1,42-.888a1.289,1.289,0,0,1-1.428-1.428V-5.532h1.86v-.96h-1.86Zm7.7-1.584h-1.1V0h.9L48.2-1.188a2.591,2.591,0,0,0,2.3,1.332A3.137,3.137,0,0,0,53.46-3.24a3.116,3.116,0,0,0-2.928-3.4,2.554,2.554,0,0,0-2.256,1.284Zm2.016,4A2.155,2.155,0,0,1,52.356-3.24,2.151,2.151,0,0,1,50.292-.888a2.152,2.152,0,0,1-2.04-2.364A2.148,2.148,0,0,1,50.292-5.6ZM57.612.144a2.61,2.61,0,0,0,2.316-1.332L60.06,0h.9V-6.492h-.9l-.132,1.2a2.621,2.621,0,0,0-2.316-1.344,3.141,3.141,0,0,0-2.952,3.4A3.144,3.144,0,0,0,57.612.144ZM57.84-.888A2.151,2.151,0,0,1,55.776-3.24,2.155,2.155,0,0,1,57.84-5.6a2.157,2.157,0,0,1,2.052,2.352A2.161,2.161,0,0,1,57.84-.888ZM63,0h1.1V-9.6H63Zm5.676.144a2.61,2.61,0,0,0,2.316-1.332L71.124,0h.9V-6.492h-.9l-.132,1.2a2.621,2.621,0,0,0-2.316-1.344,3.141,3.141,0,0,0-2.952,3.4A3.144,3.144,0,0,0,68.676.144ZM68.9-.888A2.151,2.151,0,0,1,66.84-3.24,2.155,2.155,0,0,1,68.9-5.6a2.157,2.157,0,0,1,2.052,2.352A2.161,2.161,0,0,1,68.9-.888ZM77.04-6.636a2.342,2.342,0,0,0-1.992,1.128h-.036l-.12-.984H74.04V0h1.1V-3.96a1.57,1.57,0,0,1,1.62-1.62c.972,0,1.488.54,1.488,1.68V0h1.1V-4.3A2.18,2.18,0,0,0,77.04-6.636ZM82-3.252A2.239,2.239,0,0,1,84.216-5.6a2.74,2.74,0,0,1,1.74.552V-6.18a3.325,3.325,0,0,0-1.8-.456A3.261,3.261,0,0,0,80.88-3.252a3.257,3.257,0,0,0,3.276,3.4,3.6,3.6,0,0,0,1.8-.444V-1.416a2.778,2.778,0,0,1-1.728.528A2.238,2.238,0,0,1,82-3.252Zm11-.12c0-2.136-1.26-3.264-2.8-3.264a3.188,3.188,0,0,0-3.132,3.42A3.125,3.125,0,0,0,90.36.144a3.782,3.782,0,0,0,2.268-.72V-1.668a3.354,3.354,0,0,1-2.184.852A2.213,2.213,0,0,1,88.152-2.88h4.812A2.947,2.947,0,0,0,93-3.372Zm-4.848-.336a2.108,2.108,0,0,1,2.04-1.968,1.769,1.769,0,0,1,1.74,1.968Z" transform="translate(32 177)"/><path d="M.444,0H6.372V-1.056H2.616c2.232-2.436,3.432-3.9,3.432-5.316a2.629,2.629,0,0,0-2.8-2.736,3.585,3.585,0,0,0-2.376.876v1.248a3.1,3.1,0,0,1,2.28-1.068A1.694,1.694,0,0,1,4.92-6.312C4.92-5.268,4.416-4.44.444,0Zm10.68-9.108c-1.848,0-3.336,1.752-3.336,4.656S9.276.18,11.124.18s3.348-1.74,3.348-4.632S12.972-9.108,11.124-9.108Zm0,1.056c1.224,0,2.232,1.32,2.232,3.6S12.348-.876,11.124-.876s-2.208-1.3-2.208-3.576S9.888-8.052,11.124-8.052ZM17.892,0H19V-8.964h-.108L15.672-7.632v1.164l2.22-.948Zm6.4-9.108a3,3,0,0,0-3.072,3.036,2.9,2.9,0,0,0,2.94,2.856,3.655,3.655,0,0,0,.492-.036L22.02,0h1.344l2.724-3.384a4.256,4.256,0,0,0,1.236-2.748A2.917,2.917,0,0,0,24.288-9.108Zm1.236,4.752a2.9,2.9,0,0,1-1.14.24,1.974,1.974,0,0,1-2.052-2,1.929,1.929,0,0,1,1.956-1.968,1.9,1.9,0,0,1,1.932,1.98A2.719,2.719,0,0,1,25.524-4.356ZM27.756,1.6h1.068l4.02-12.108h-1.08ZM33.708,0h5.928V-1.056H35.88c2.232-2.436,3.432-3.9,3.432-5.316a2.629,2.629,0,0,0-2.8-2.736,3.585,3.585,0,0,0-2.376.876v1.248a3.1,3.1,0,0,1,2.28-1.068,1.694,1.694,0,0,1,1.764,1.74C38.184-5.268,37.68-4.44,33.708,0Zm10.68-9.108c-1.848,0-3.336,1.752-3.336,4.656S42.54.18,44.388.18s3.348-1.74,3.348-4.632S46.236-9.108,44.388-9.108Zm0,1.056c1.224,0,2.232,1.32,2.232,3.6S45.612-.876,44.388-.876s-2.208-1.3-2.208-3.576S43.152-8.052,44.388-8.052ZM53.112,0h1.1V-5.532h1.86v-.96H54.2V-7.32c0-.912.444-1.308,1.248-1.308a2.787,2.787,0,0,1,.948.168V-9.48a3.574,3.574,0,0,0-1.08-.18,2.1,2.1,0,0,0-2.208,2.2v.972h-.936v.96h.936Zm4.752-7.98a.659.659,0,0,0,.684-.672.659.659,0,0,0-.684-.672.659.659,0,0,0-.684.672A.659.659,0,0,0,57.864-7.98ZM57.312,0h1.1V-6.492h-1.1Zm6.144-6.636a2.342,2.342,0,0,0-1.992,1.128h-.036l-.12-.984h-.852V0h1.1V-3.96a1.57,1.57,0,0,1,1.62-1.62c.972,0,1.488.54,1.488,1.68V0h1.1V-4.3A2.18,2.18,0,0,0,63.456-6.636ZM70.248.144a2.61,2.61,0,0,0,2.316-1.332L72.7,0h.9V-6.492h-.9l-.132,1.2a2.621,2.621,0,0,0-2.316-1.344A3.141,3.141,0,0,0,67.3-3.24,3.144,3.144,0,0,0,70.248.144Zm.228-1.032A2.151,2.151,0,0,1,68.412-3.24,2.155,2.155,0,0,1,70.476-5.6a2.157,2.157,0,0,1,2.052,2.352A2.161,2.161,0,0,1,70.476-.888Zm8.136-5.748A2.342,2.342,0,0,0,76.62-5.508h-.036l-.12-.984h-.852V0h1.1V-3.96a1.57,1.57,0,0,1,1.62-1.62c.972,0,1.488.54,1.488,1.68V0h1.1V-4.3A2.18,2.18,0,0,0,78.612-6.636Zm4.956,3.384A2.239,2.239,0,0,1,85.788-5.6a2.74,2.74,0,0,1,1.74.552V-6.18a3.325,3.325,0,0,0-1.8-.456,3.261,3.261,0,0,0-3.276,3.384,3.257,3.257,0,0,0,3.276,3.4,3.6,3.6,0,0,0,1.8-.444V-1.416A2.778,2.778,0,0,1,85.8-.888,2.238,2.238,0,0,1,83.568-3.252Zm6.18-4.728a.659.659,0,0,0,.684-.672.659.659,0,0,0-.684-.672.659.659,0,0,0-.684.672A.659.659,0,0,0,89.748-7.98ZM89.2,0h1.1V-6.492H89.2Zm5.676.144a2.61,2.61,0,0,0,2.316-1.332L97.32,0h.9V-6.492h-.9l-.132,1.2a2.621,2.621,0,0,0-2.316-1.344,3.141,3.141,0,0,0-2.952,3.4A3.144,3.144,0,0,0,94.872.144ZM95.1-.888A2.151,2.151,0,0,1,93.036-3.24,2.155,2.155,0,0,1,95.1-5.6a2.157,2.157,0,0,1,2.052,2.352A2.161,2.161,0,0,1,95.1-.888ZM100.26,0h1.1V-9.6h-1.1Zm11.364-6.492h-1.152l-1.788,4.944h-.024l-1.788-4.944h-1.2L108.1-.228,106.98,2.52h1.128Zm6.576,3.12c0-2.136-1.26-3.264-2.8-3.264a3.188,3.188,0,0,0-3.132,3.42A3.125,3.125,0,0,0,115.56.144a3.782,3.782,0,0,0,2.268-.72V-1.668a3.354,3.354,0,0,1-2.184.852,2.213,2.213,0,0,1-2.292-2.064h4.812A2.947,2.947,0,0,0,118.2-3.372Zm-4.848-.336a2.108,2.108,0,0,1,2.04-1.968,1.769,1.769,0,0,1,1.74,1.968ZM122.316.144a2.61,2.61,0,0,0,2.316-1.332L124.764,0h.9V-6.492h-.9l-.132,1.2a2.621,2.621,0,0,0-2.316-1.344,3.141,3.141,0,0,0-2.952,3.4A3.144,3.144,0,0,0,122.316.144Zm.228-1.032A2.151,2.151,0,0,1,120.48-3.24,2.155,2.155,0,0,1,122.544-5.6,2.157,2.157,0,0,1,124.6-3.252,2.161,2.161,0,0,1,122.544-.888ZM127.68,0h1.1V-3.7a1.682,1.682,0,0,1,1.74-1.824,2.793,2.793,0,0,1,.456.048V-6.528a2.325,2.325,0,0,0-.432-.036,2.1,2.1,0,0,0-1.86,1.1h-.012l-.12-1.032h-.876Z" transform="translate(200 177)"/><path d="M-937,658l10-10" transform="translate(1227 -510)" fill="none" stroke="#00629b" stroke-width="3"/><path d="M-897,672h10v10" transform="translate(1187 -534)" fill="none" stroke="#00629b" stroke-width="3"/><path d="M8.08-13.4H5.42v4.68H.88v2.54H5.42v4.7H8.08v-4.7h4.68V-8.72H8.08ZM24.42-4.48c0-2.74-2.06-3.66-4.1-4.36-1.28-.44-2.3-.86-2.3-1.76,0-.76.76-1.38,2.04-1.38a6.208,6.208,0,0,1,3.5,1.18v-3.14a7.951,7.951,0,0,0-2.8-.86v-1.48h-2.6v1.64a4.21,4.21,0,0,0-3.42,4.04c0,2.64,1.98,3.56,4,4.26,1.38.46,2.38.9,2.38,1.88s-.96,1.6-2.36,1.6a5.784,5.784,0,0,1-3.98-1.68v3.36A8.089,8.089,0,0,0,18.16-.04V1.44h2.6V-.18A4.486,4.486,0,0,0,24.42-4.48Zm7.22-10.78a5.447,5.447,0,0,0-5.7,5.44,4.913,4.913,0,0,0,5.04,4.9h.14L27.2,0h3.86l4-4.94a7.775,7.775,0,0,0,2.22-4.98A5.329,5.329,0,0,0,31.64-15.26Zm1.58,7.72a3.776,3.776,0,0,1-1.4.26,2.532,2.532,0,0,1-2.66-2.58,2.484,2.484,0,0,1,2.5-2.54,2.456,2.456,0,0,1,2.48,2.54A3.665,3.665,0,0,1,33.22-7.54ZM37.44,2.68h2.28A13.694,13.694,0,0,0,41.1-2.56v-.86H38.24v1.1A17.576,17.576,0,0,1,37.44,2.68ZM49.66-9.98a1.94,1.94,0,0,0-.34.02l3.98-4.96H49.44L45.46-10A7.769,7.769,0,0,0,43.2-5.02,5.414,5.414,0,0,0,48.92.34,5.446,5.446,0,0,0,54.66-5.1,4.989,4.989,0,0,0,49.66-9.98ZM48.9-2.5a2.518,2.518,0,0,1-2.52-2.56,3.525,3.525,0,0,1,.88-2.3,3.778,3.778,0,0,1,1.38-.28,2.589,2.589,0,0,1,2.78,2.6A2.513,2.513,0,0,1,48.9-2.5ZM59.24,0h3.2V-15.06H62.2l-6.26,2.44V-9.4l3.3-1.34ZM77.76-5.84H75.38v-9.08H72.56L65.3-5.08V-3.2h7.06V0h3.02V-3.2h2.38Zm-9.12,0v-.02l3.72-5.1v5.12Z" transform="translate(200 150)" fill="#00629b"/><path d="M1.46,0H7.7c3.68,0,5.4-1.96,5.4-4.2a3.454,3.454,0,0,0-2.56-3.44v-.02a3.344,3.344,0,0,0,2.18-3.22c0-2.24-1.8-4.04-5.28-4.04H1.46ZM5.22-8.86v-2.9h2.1c1.22,0,1.84.64,1.84,1.44S8.54-8.86,7.28-8.86Zm0,5.68V-6.26h2.2c1.24,0,1.98.62,1.98,1.54,0,.88-.68,1.54-2.02,1.54ZM30.96,0,25.4-14.92H21L15.52,0h3.94l1.12-3.3h5.26L27,0ZM23.2-11.04l1.62,4.66H21.58ZM34.4,0h9.82V-3.44H38.2V-14.92H34.4ZM62.08,0,56.52-14.92h-4.4L46.64,0h3.94L51.7-3.3h5.26L58.12,0ZM54.32-11.04l1.62,4.66H52.7ZM78.8-14.92H75.18v8.74h-.02l-6-8.74H65.52V0h3.62V-8.9h.02L75.2,0h3.6ZM94.88-.68V-4.46a6.187,6.187,0,0,1-3.72,1.34,4.263,4.263,0,0,1-4.4-4.34,4.235,4.235,0,0,1,4.4-4.32,6.163,6.163,0,0,1,3.72,1.24v-3.72a8.98,8.98,0,0,0-4.16-1.02,7.612,7.612,0,0,0-7.78,7.82A7.607,7.607,0,0,0,90.72.34,8.98,8.98,0,0,0,94.88-.68ZM99.2,0h9.84V-3.38H103v-2.6h5.46V-9.06H103v-2.48h6.04v-3.38H99.2Z" transform="translate(32 49)"/><path d="M-714,270l6,6,6-6" transform="translate(895.5 332)" fill="none" stroke="#c1c6c8" stroke-width="2"/><path d="M8.232,15h1.3V4.584h-1.3V9.106H2.73V4.584h-1.3V15h1.3V10.324h5.5Zm7.126.168A3.757,3.757,0,0,0,19.11,11.22a3.771,3.771,0,1,0-7.532,0A3.763,3.763,0,0,0,15.358,15.168Zm0-1.2A2.536,2.536,0,0,1,12.88,11.22a2.486,2.486,0,1,1,4.942,0A2.542,2.542,0,0,1,15.358,13.964ZM27.538,15h1.47l2.128-7.574H29.862l-1.61,6.132H28.21L26.292,7.426H24.948l-1.932,6.132h-.028L21.406,7.426H20.062L22.2,15h1.47l1.918-5.936h.042Zm11.746.168a3.06,3.06,0,0,0,2.7-1.554L42.14,15h1.05V3.8H41.9V8.742a2.973,2.973,0,0,0-2.618-1.484c-1.792,0-3.444,1.526-3.444,3.962A3.66,3.66,0,0,0,39.284,15.168Zm.266-1.2a2.52,2.52,0,0,1-2.422-2.744,2.423,2.423,0,1,1,4.8-.014A2.511,2.511,0,0,1,39.55,13.964Zm9.268,1.2A3.757,3.757,0,0,0,52.57,11.22a3.771,3.771,0,1,0-7.532,0A3.763,3.763,0,0,0,48.818,15.168Zm0-1.2A2.536,2.536,0,0,1,46.34,11.22a2.486,2.486,0,1,1,4.942,0A2.542,2.542,0,0,1,48.818,13.964Zm12.068-2.9c0-2.492-1.47-3.808-3.262-3.808a3.719,3.719,0,0,0-3.654,3.99,3.645,3.645,0,0,0,3.836,3.92,4.413,4.413,0,0,0,2.646-.84V13.054a3.913,3.913,0,0,1-2.548.994A2.582,2.582,0,0,1,55.23,11.64h5.614A3.438,3.438,0,0,0,60.886,11.066Zm-5.656-.392a2.459,2.459,0,0,1,2.38-2.3,2.064,2.064,0,0,1,2.03,2.3Zm9.884-3.416c-1.68,0-2.73.952-2.73,2.226,0,1.33,1.106,1.736,2.352,2.114,1.092.336,1.806.574,1.806,1.3,0,.672-.588,1.12-1.61,1.12a3.594,3.594,0,0,1-2.576-1.078v1.386a4.186,4.186,0,0,0,2.618.84c1.75,0,2.828-.9,2.828-2.282,0-1.526-1.316-1.9-2.478-2.24-1.022-.294-1.68-.546-1.68-1.218,0-.616.532-1.022,1.484-1.022A3.577,3.577,0,0,1,67.4,9.19V7.916A3.965,3.965,0,0,0,65.114,7.258Zm14.112.168H77.882L75.8,13.194h-.028L73.682,7.426h-1.4l2.828,7.308-1.3,3.206h1.316Zm4.522,7.742A3.757,3.757,0,0,0,87.5,11.22a3.771,3.771,0,1,0-7.532,0A3.763,3.763,0,0,0,83.748,15.168Zm0-1.2A2.536,2.536,0,0,1,81.27,11.22a2.486,2.486,0,1,1,4.942,0A2.542,2.542,0,0,1,83.748,13.964Zm8.61,1.2a2.918,2.918,0,0,0,3.136-3.08V7.426H94.206v4.69a1.707,1.707,0,0,1-1.848,1.848,1.678,1.678,0,0,1-1.792-1.848V7.426H89.278v4.662A2.881,2.881,0,0,0,92.358,15.168ZM97.748,15h1.288V10.688a1.963,1.963,0,0,1,2.03-2.128,3.259,3.259,0,0,1,.532.056V7.384a2.713,2.713,0,0,0-.5-.042,2.453,2.453,0,0,0-2.17,1.288H98.91l-.14-1.2H97.748Zm11.13-7.742c-1.68,0-2.73.952-2.73,2.226,0,1.33,1.106,1.736,2.352,2.114,1.092.336,1.806.574,1.806,1.3,0,.672-.588,1.12-1.61,1.12a3.594,3.594,0,0,1-2.576-1.078v1.386a4.186,4.186,0,0,0,2.618.84c1.75,0,2.828-.9,2.828-2.282,0-1.526-1.316-1.9-2.478-2.24-1.022-.294-1.68-.546-1.68-1.218,0-.616.532-1.022,1.484-1.022a3.577,3.577,0,0,1,2.268.784V7.916A3.965,3.965,0,0,0,108.878,7.258Zm7.5,7.91a2.918,2.918,0,0,0,3.136-3.08V7.426H118.23v4.69a1.707,1.707,0,0,1-1.848,1.848,1.678,1.678,0,0,1-1.792-1.848V7.426H113.3v4.662A2.881,2.881,0,0,0,116.382,15.168Zm5.39,2.772h1.288V13.684a3.014,3.014,0,0,0,2.618,1.484c1.792,0,3.43-1.526,3.43-3.962a3.651,3.651,0,0,0-3.444-3.948,3.052,3.052,0,0,0-2.688,1.568l-.154-1.4h-1.05Zm3.64-3.976a2.506,2.506,0,0,1-2.38-2.744,2.417,2.417,0,1,1,4.788-.014A2.506,2.506,0,0,1,125.412,13.964Zm12.026-2.9c0-2.492-1.47-3.808-3.262-3.808a3.719,3.719,0,0,0-3.654,3.99,3.645,3.645,0,0,0,3.836,3.92,4.413,4.413,0,0,0,2.646-.84V13.054a3.913,3.913,0,0,1-2.548.994,2.582,2.582,0,0,1-2.674-2.408H137.4A3.438,3.438,0,0,0,137.438,11.066Zm-5.656-.392a2.459,2.459,0,0,1,2.38-2.3,2.064,2.064,0,0,1,2.03,2.3Zm7.5,4.326h1.288V10.688A1.963,1.963,0,0,1,142.6,8.56a3.259,3.259,0,0,1,.532.056V7.384a2.713,2.713,0,0,0-.5-.042,2.453,2.453,0,0,0-2.17,1.288h-.014l-.14-1.2h-1.022Zm9.562-3.794a2.613,2.613,0,0,1,2.59-2.744,3.2,3.2,0,0,1,2.03.644V7.79a3.879,3.879,0,0,0-2.1-.532,3.8,3.8,0,0,0-3.822,3.948,3.8,3.8,0,0,0,3.822,3.962,4.2,4.2,0,0,0,2.1-.518v-1.3a3.241,3.241,0,0,1-2.016.616A2.611,2.611,0,0,1,148.848,11.206Zm9.688,3.962a3.757,3.757,0,0,0,3.752-3.948,3.771,3.771,0,1,0-7.532,0A3.763,3.763,0,0,0,158.536,15.168Zm0-1.2a2.536,2.536,0,0,1-2.478-2.744,2.486,2.486,0,1,1,4.942,0A2.542,2.542,0,0,1,158.536,13.964Zm13.118-6.706a2.422,2.422,0,0,0-2.184,1.33,2.088,2.088,0,0,0-2.1-1.33,2.26,2.26,0,0,0-2.03,1.288H165.3l-.14-1.12h-.994V15h1.288V10.226A1.6,1.6,0,0,1,167.02,8.49c1.008,0,1.442.574,1.442,1.666V15h1.288V10.156a1.573,1.573,0,0,1,1.582-1.666c1.008,0,1.428.574,1.428,1.666V15h1.288V9.946C174.048,8.364,173.306,7.258,171.654,7.258ZM176.33,17.94h1.288V13.684a3.014,3.014,0,0,0,2.618,1.484c1.792,0,3.43-1.526,3.43-3.962a3.651,3.651,0,0,0-3.444-3.948,3.052,3.052,0,0,0-2.688,1.568l-.154-1.4h-1.05Zm3.64-3.976a2.506,2.506,0,0,1-2.38-2.744,2.417,2.417,0,1,1,4.788-.014A2.506,2.506,0,0,1,179.97,13.964Zm8.54,1.2a3.044,3.044,0,0,0,2.7-1.554L191.366,15h1.05V7.426h-1.05l-.154,1.4a3.058,3.058,0,0,0-2.7-1.568,3.664,3.664,0,0,0-3.444,3.962A3.668,3.668,0,0,0,188.51,15.168Zm.266-1.2a2.509,2.509,0,0,1-2.408-2.744,2.423,2.423,0,1,1,4.8-.014A2.521,2.521,0,0,1,188.776,13.964ZM194.768,15h1.288V10.688a1.963,1.963,0,0,1,2.03-2.128,3.259,3.259,0,0,1,.532.056V7.384a2.713,2.713,0,0,0-.5-.042,2.453,2.453,0,0,0-2.17,1.288h-.014l-.14-1.2h-1.022Zm11.438-3.934c0-2.492-1.47-3.808-3.262-3.808a3.719,3.719,0,0,0-3.654,3.99,3.645,3.645,0,0,0,3.836,3.92,4.413,4.413,0,0,0,2.646-.84V13.054a3.913,3.913,0,0,1-2.548.994,2.582,2.582,0,0,1-2.674-2.408h5.614A3.438,3.438,0,0,0,206.206,11.066Zm-5.656-.392a2.459,2.459,0,0,1,2.38-2.3,2.064,2.064,0,0,1,2.03,2.3Zm9.31-6.3a3.835,3.835,0,0,0-2.646,1.078V6.908a3.412,3.412,0,0,1,2.422-1.274,1.819,1.819,0,0,1,1.918,1.9c0,1.134-.938,2-2.562,3.864h1.386c1.554-1.722,2.52-2.73,2.52-4.088A2.92,2.92,0,0,0,209.86,4.374Zm-.112,8.946a.875.875,0,1,0,.882.882A.858.858,0,0,0,209.748,13.32Z" transform="translate(72 424)"/><g transform="matrix(1, 0, 0, 1, 0, 0)" filter="url(#e)"><path d="M18.7,12.03a.661.661,0,0,1,.662-.662H21.7a.662.662,0,1,1,0,1.324H19.362A.685.685,0,0,1,18.7,12.03Zm19.367,0a.661.661,0,0,0,.662.662H41.1a.662.662,0,0,0,0-1.324H38.764A.649.649,0,0,0,38.067,12.03Zm.313,8.116a.7.7,0,0,0,0-.94l-1.637-1.637a.665.665,0,0,0-.94.94l1.637,1.637a.688.688,0,0,0,.488.209A.674.674,0,0,0,38.381,20.146Zm-10.206.662a.661.661,0,0,0-.662.662v.7a1.155,1.155,0,0,0,.94,1.115l.174.627a.816.816,0,0,0,.766.592H31.1a.816.816,0,0,0,.766-.592l.174-.627a1.127,1.127,0,0,0,.94-1.115v-.7a.661.661,0,0,0-.662-.662Zm-4.424-3.239-1.637,1.637a.7.7,0,0,0,0,.94.673.673,0,0,0,.975,0l1.637-1.637a.7.7,0,0,0,0-.94A.672.672,0,0,0,23.751,17.568Zm0-11.112a.673.673,0,0,0,.975,0,.7.7,0,0,0,0-.94L23.089,3.879a.665.665,0,0,0-.94.94Zm.557,5.608a5.922,5.922,0,1,1,11.843-.07,5.852,5.852,0,0,1-1.672,4.11,5.554,5.554,0,0,0-1.463,2.961.977.977,0,0,1-.975.836H28.384a.977.977,0,0,1-.975-.836,5.554,5.554,0,0,0-1.463-2.961A6.13,6.13,0,0,1,24.308,12.065Zm1.672-.035a.661.661,0,0,0,.662.662.685.685,0,0,0,.662-.662A2.944,2.944,0,0,1,30.23,9.1a.661.661,0,0,0,.662-.662.685.685,0,0,0-.662-.662A4.267,4.267,0,0,0,25.98,12.03ZM36.256,6.665a.688.688,0,0,0,.488-.209l1.637-1.637a.665.665,0,1,0-.94-.94L35.8,5.516a.7.7,0,0,0,0,.94A.562.562,0,0,0,36.256,6.665ZM30.23,4.157a.661.661,0,0,0,.662-.662V1.162a.662.662,0,0,0-1.324,0V3.5A.661.661,0,0,0,30.23,4.157Z" transform="translate(13.3 423.5)" fill="url(#d)"/></g><path d="M2,0H270a2,2,0,0,1,0,4H2A2,2,0,0,1,2,0Z" transform="translate(72 552)" fill="#ffa300"/><path d="M2,0H270a2,2,0,0,1,0,4H2A2,2,0,0,1,2,0Z" transform="translate(72 496)" fill="#c1c6c8" opacity="0.3"/><path d="M2,0H190a2,2,0,0,1,0,4H2A2,2,0,0,1,2,0Z" transform="translate(72 496)" fill="#00629b"/><path d="M3.312,0H5.256V-3.576l3.3-5.376H6.468L4.356-5.316H4.32L2.184-8.952h-2.2L3.312-3.564Zm8,.168a3.386,3.386,0,0,0,3.492-3.492,3.372,3.372,0,0,0-3.492-3.492A3.386,3.386,0,0,0,7.824-3.324,3.393,3.393,0,0,0,11.316.168Zm0-1.728A1.612,1.612,0,0,1,9.768-3.324a1.612,1.612,0,0,1,1.548-1.764,1.62,1.62,0,0,1,1.56,1.764A1.628,1.628,0,0,1,11.316-1.56ZM18.972.168A2.785,2.785,0,0,0,22.02-2.7V-6.648H20.1v3.936A1.031,1.031,0,0,1,18.972-1.56,1.007,1.007,0,0,1,17.88-2.7V-6.648H15.96V-2.7A2.761,2.761,0,0,0,18.972.168ZM23.532,0h1.92V-3.252a1.485,1.485,0,0,1,1.572-1.68,2.162,2.162,0,0,1,.552.06v-1.8a2.051,2.051,0,0,0-.5-.048,2.035,2.035,0,0,0-1.8,1.068h-.024l-.192-1H23.532Zm9.684-9.636H31.3V0H32.9L33.1-1.02A2.5,2.5,0,0,0,35.256.168a3.214,3.214,0,0,0,2.988-3.492c0-2.124-1.368-3.492-2.916-3.492a2.5,2.5,0,0,0-2.112,1.14Zm1.512,4.548A1.632,1.632,0,0,1,36.3-3.312,1.609,1.609,0,0,1,34.74-1.56a1.6,1.6,0,0,1-1.548-1.764A1.6,1.6,0,0,1,34.728-5.088ZM42.084.168A2.5,2.5,0,0,0,44.268-1.02L44.46,0h1.62V-6.648H44.46l-.192,1.02a2.525,2.525,0,0,0-2.184-1.188A3.242,3.242,0,0,0,39.132-3.3,3.226,3.226,0,0,0,42.084.168Zm.564-1.728a1.63,1.63,0,0,1-1.584-1.764,1.637,1.637,0,0,1,1.584-1.764A1.611,1.611,0,0,1,44.2-3.324,1.611,1.611,0,0,1,42.648-1.56ZM47.688,0h1.92V-9.636h-1.92Zm6.12.168A2.5,2.5,0,0,0,55.992-1.02L56.184,0H57.8V-6.648h-1.62l-.192,1.02a2.525,2.525,0,0,0-2.184-1.188A3.242,3.242,0,0,0,50.856-3.3,3.226,3.226,0,0,0,53.808.168Zm.564-1.728a1.63,1.63,0,0,1-1.584-1.764,1.637,1.637,0,0,1,1.584-1.764A1.611,1.611,0,0,1,55.92-3.324,1.611,1.611,0,0,1,54.372-1.56ZM63.12-6.816a2.338,2.338,0,0,0-2,1.1H61.08l-.192-.936H59.4V0h1.92V-3.936a1.1,1.1,0,0,1,1.152-1.14c.7,0,1.056.372,1.056,1.188V0h1.92V-4.44A2.17,2.17,0,0,0,63.12-6.816Zm5.448,3.492A1.739,1.739,0,0,1,70.4-5.088a2.915,2.915,0,0,1,1.668.5V-6.348a3.9,3.9,0,0,0-1.956-.468,3.4,3.4,0,0,0-3.492,3.48,3.4,3.4,0,0,0,3.492,3.5,4.311,4.311,0,0,0,1.956-.456V-2.052A2.764,2.764,0,0,1,70.4-1.56,1.732,1.732,0,0,1,68.568-3.324ZM79.4-3.432c0-2.22-1.38-3.384-3.072-3.384A3.323,3.323,0,0,0,73-3.3,3.35,3.35,0,0,0,76.68.168,4.562,4.562,0,0,0,79-.432V-2a3.863,3.863,0,0,1-2.076.66,2,2,0,0,1-2.088-1.44h4.524A3.566,3.566,0,0,0,79.4-3.432Zm-4.608-.5A1.6,1.6,0,0,1,76.32-5.3a1.253,1.253,0,0,1,1.26,1.368Z" transform="translate(72 481)"/><path d="M-44.292-2.568c0-1.6-1.26-2.064-2.448-2.472-.924-.324-1.74-.624-1.74-1.44,0-.708.624-1.26,1.644-1.26a3.5,3.5,0,0,1,2.016.66V-8.268a4.378,4.378,0,0,0-1.728-.5v-1h-.984v1.032A2.319,2.319,0,0,0-49.608-6.5c0,1.524,1.224,1.992,2.4,2.412.936.336,1.776.636,1.776,1.488,0,.876-.816,1.452-1.848,1.452a3.267,3.267,0,0,1-2.352-1V-.84a4.069,4.069,0,0,0,2.1.72V.864h.984V-.168A2.556,2.556,0,0,0-44.292-2.568ZM-41.04,0h1.1V-8.964h-.108L-43.26-7.632v1.164l2.22-.948Zm10.152-3.108h-1.536v-5.82h-.924L-37.836-2.8v.672h4.356V0h1.056V-2.124h1.536Zm-5.628,0V-3.12l3.036-4.152v4.164Zm13.488,0h-1.536v-5.82h-.924L-29.976-2.8v.672h4.356V0h1.056V-2.124h1.536Zm-5.628,0V-3.12l3.036-4.152v4.164Zm6.36,4.7h.828a8.01,8.01,0,0,0,.72-2.8v-.492h-1.044v.54A9.4,9.4,0,0,1-22.3,1.6Zm2.9-1.6h5.928V-1.056H-17.22c2.232-2.436,3.432-3.9,3.432-5.316a2.629,2.629,0,0,0-2.8-2.736,3.585,3.585,0,0,0-2.376.876v1.248a3.1,3.1,0,0,1,2.28-1.068,1.694,1.694,0,0,1,1.764,1.74C-14.916-5.268-15.42-4.44-19.392,0Zm9.264,0h1.1V-8.964h-.108l-3.216,1.332v1.164l2.22-.948ZM-3.5-5.724a3.078,3.078,0,0,0-.6.06l2.616-3.264H-2.82L-5.484-5.6A4.282,4.282,0,0,0-6.732-2.832,2.989,2.989,0,0,0-3.636.18,2.983,2.983,0,0,0-.54-2.868,2.929,2.929,0,0,0-3.5-5.724ZM-3.636-.84a2,2,0,0,1-2-1.992A2.66,2.66,0,0,1-4.968-4.56,2.663,2.663,0,0,1-3.84-4.812a2.03,2.03,0,0,1,2.2,2A1.974,1.974,0,0,1-3.636-.84Z" transform="translate(344 537)"/><path d="M-42.66-2.568c0-1.6-1.26-2.064-2.448-2.472-.924-.324-1.74-.624-1.74-1.44,0-.708.624-1.26,1.644-1.26a3.5,3.5,0,0,1,2.016.66V-8.268a4.378,4.378,0,0,0-1.728-.5v-1H-45.9v1.032A2.319,2.319,0,0,0-47.976-6.5c0,1.524,1.224,1.992,2.4,2.412.936.336,1.776.636,1.776,1.488,0,.876-.816,1.452-1.848,1.452a3.267,3.267,0,0,1-2.352-1V-.84a4.069,4.069,0,0,0,2.1.72V.864h.984V-.168A2.556,2.556,0,0,0-42.66-2.568ZM-39.408,0h1.1V-8.964h-.108l-3.216,1.332v1.164l2.22-.948Zm3.228,0h5.928V-1.056h-3.756c2.232-2.436,3.432-3.9,3.432-5.316a2.629,2.629,0,0,0-2.8-2.736,3.585,3.585,0,0,0-2.376.876v1.248a3.1,3.1,0,0,1,2.28-1.068A1.694,1.694,0,0,1-31.7-6.312C-31.7-5.268-32.208-4.44-36.18,0Zm13.956-3.108H-23.76v-5.82h-.924L-29.172-2.8v.672h4.356V0h1.056V-2.124h1.536Zm-5.628,0V-3.12l3.036-4.152v4.164Zm6.36,4.7h.828a8.01,8.01,0,0,0,.72-2.8v-.492h-1.044v.54A9.4,9.4,0,0,1-21.492,1.6Zm8.256-10.524H-17.1L-17.9-4.3l.144.12a3.5,3.5,0,0,1,1.62-.42,1.912,1.912,0,0,1,2.16,1.884A1.845,1.845,0,0,1-16.032-.888,3.2,3.2,0,0,1-18.4-1.956v1.3A3.674,3.674,0,0,0-16.02.18a2.9,2.9,0,0,0,3.18-2.94,2.8,2.8,0,0,0-2.976-2.784,3.12,3.12,0,0,0-.972.18l.492-2.52h3.06Zm6.852,0h-3.864l-.8,4.632.144.12a3.5,3.5,0,0,1,1.62-.42,1.912,1.912,0,0,1,2.16,1.884A1.845,1.845,0,0,1-9.18-.888a3.2,3.2,0,0,1-2.364-1.068v1.3A3.674,3.674,0,0,0-9.168.18a2.9,2.9,0,0,0,3.18-2.94A2.8,2.8,0,0,0-8.964-5.544a3.12,3.12,0,0,0-.972.18l.492-2.52h3.06ZM-2.784,0h1.1V-8.964h-.108L-5-7.632v1.164l2.22-.948Z" transform="translate(344 481)"/><path d="M9.048,0l-3.4-8.952H3.4L.048,0h2.04l.768-2.184H6.2L7,0ZM4.524-6.912l1.128,3.12H3.4ZM11.2,0h2.04L15.66-6.648H13.7L12.276-2.016H12.24L10.824-6.648H8.772ZM22.38-3.432c0-2.22-1.38-3.384-3.072-3.384A3.323,3.323,0,0,0,15.972-3.3,3.35,3.35,0,0,0,19.656.168a4.562,4.562,0,0,0,2.316-.6V-2a3.863,3.863,0,0,1-2.076.66,2,2,0,0,1-2.088-1.44h4.524A3.565,3.565,0,0,0,22.38-3.432Zm-4.608-.5A1.6,1.6,0,0,1,19.3-5.3a1.253,1.253,0,0,1,1.26,1.368ZM23.628,0h1.92V-3.252a1.485,1.485,0,0,1,1.572-1.68,2.162,2.162,0,0,1,.552.06v-1.8a2.051,2.051,0,0,0-.5-.048,2.035,2.035,0,0,0-1.8,1.068h-.024l-.192-1H23.628ZM31.1.168A2.5,2.5,0,0,0,33.288-1.02L33.48,0H35.1V-6.648H33.48l-.192,1.02A2.525,2.525,0,0,0,31.1-6.816,3.242,3.242,0,0,0,28.152-3.3,3.226,3.226,0,0,0,31.1.168Zm.564-1.728a1.63,1.63,0,0,1-1.584-1.764,1.637,1.637,0,0,1,1.584-1.764,1.611,1.611,0,0,1,1.548,1.764A1.611,1.611,0,0,1,31.668-1.56ZM39.312-6.8A3.174,3.174,0,0,0,36.336-3.48,3.132,3.132,0,0,0,39.288-.132a2.43,2.43,0,0,0,2.04-1.1v.612c0,.972-.816,1.644-1.992,1.644A3.9,3.9,0,0,1,37,.108V1.932a4.489,4.489,0,0,0,2.52.756A3.4,3.4,0,0,0,43.248-.84V-6.648h-1.62l-.192,1A2.519,2.519,0,0,0,39.312-6.8Zm.5,1.692A1.555,1.555,0,0,1,41.352-3.48a1.568,1.568,0,0,1-1.536,1.656,1.568,1.568,0,0,1-1.548-1.644A1.582,1.582,0,0,1,39.816-5.112Zm11.076,1.68c0-2.22-1.38-3.384-3.072-3.384A3.323,3.323,0,0,0,44.484-3.3,3.35,3.35,0,0,0,48.168.168a4.562,4.562,0,0,0,2.316-.6V-2a3.863,3.863,0,0,1-2.076.66,2,2,0,0,1-2.088-1.44h4.524A3.565,3.565,0,0,0,50.892-3.432Zm-4.608-.5A1.6,1.6,0,0,1,47.808-5.3a1.253,1.253,0,0,1,1.26,1.368Zm12.3-4.992H57.36A7.622,7.622,0,0,0,55.248-3.7,7.607,7.607,0,0,0,57.36,1.548h1.224A7.323,7.323,0,0,1,56.3-3.7,7.269,7.269,0,0,1,58.584-8.928Zm7.272,2.292A2.076,2.076,0,0,0,63.984-5.5a1.79,1.79,0,0,0-1.8-1.14,1.938,1.938,0,0,0-1.74,1.1h-.036l-.12-.96h-.852V0h1.1V-4.092A1.369,1.369,0,0,1,61.884-5.58c.864,0,1.236.492,1.236,1.428V0h1.1V-4.152A1.348,1.348,0,0,1,65.58-5.58c.864,0,1.224.492,1.224,1.428V0h1.1V-4.332C67.908-5.688,67.272-6.636,65.856-6.636ZM72.4.144a2.61,2.61,0,0,0,2.316-1.332L74.844,0h.9V-6.492h-.9l-.132,1.2A2.621,2.621,0,0,0,72.4-6.636a3.141,3.141,0,0,0-2.952,3.4A3.144,3.144,0,0,0,72.4.144Zm.228-1.032A2.151,2.151,0,0,1,70.56-3.24,2.155,2.155,0,0,1,72.624-5.6a2.157,2.157,0,0,1,2.052,2.352A2.161,2.161,0,0,1,72.624-.888ZM77.784,0h1.1V-9.6h-1.1Zm8.664-3.372c0-2.136-1.26-3.264-2.8-3.264a3.188,3.188,0,0,0-3.132,3.42A3.125,3.125,0,0,0,83.808.144a3.782,3.782,0,0,0,2.268-.72V-1.668a3.354,3.354,0,0,1-2.184.852A2.213,2.213,0,0,1,81.6-2.88h4.812A2.947,2.947,0,0,0,86.448-3.372ZM81.6-3.708a2.108,2.108,0,0,1,2.04-1.968,1.769,1.769,0,0,1,1.74,1.968Zm5.88,5.3h.828a8.01,8.01,0,0,0,.72-2.8v-.492H87.984v.54A9.4,9.4,0,0,1,87.48,1.6ZM96.756.144a2.61,2.61,0,0,0,2.316-1.332L99.2,0h.9V-6.492h-.9l-.132,1.2a2.621,2.621,0,0,0-2.316-1.344A3.141,3.141,0,0,0,93.8-3.24,3.144,3.144,0,0,0,96.756.144Zm.228-1.032A2.151,2.151,0,0,1,94.92-3.24,2.155,2.155,0,0,1,96.984-5.6a2.157,2.157,0,0,1,2.052,2.352A2.161,2.161,0,0,1,96.984-.888Zm7.668-5.736A3.107,3.107,0,0,0,101.7-3.36a3.08,3.08,0,0,0,2.952,3.252,2.644,2.644,0,0,0,2.232-1.224v.984a2.005,2.005,0,0,1-2.136,1.98,3.543,3.543,0,0,1-2.376-.96V1.86a4.108,4.108,0,0,0,2.424.8,3.032,3.032,0,0,0,3.192-3.192V-6.492h-.9l-.132,1.128A2.663,2.663,0,0,0,104.652-6.624Zm.216,1.02A2.083,2.083,0,0,1,106.92-3.4a2.133,2.133,0,0,1-2.052,2.28,2.112,2.112,0,0,1-2.052-2.232A2.119,2.119,0,0,1,104.868-5.6Zm10.656,2.232c0-2.136-1.26-3.264-2.8-3.264a3.188,3.188,0,0,0-3.132,3.42,3.125,3.125,0,0,0,3.288,3.36,3.782,3.782,0,0,0,2.268-.72V-1.668a3.354,3.354,0,0,1-2.184.852,2.213,2.213,0,0,1-2.292-2.064h4.812A2.947,2.947,0,0,0,115.524-3.372Zm-4.848-.336a2.108,2.108,0,0,1,2.04-1.968,1.769,1.769,0,0,1,1.74,1.968Zm16.068.6h-1.536v-5.82h-.924L119.8-2.8v.672h4.356V0h1.056V-2.124h1.536Zm-5.628,0V-3.12l3.036-4.152v4.164Zm11.916-5.82h-3.864l-.8,4.632.144.12a3.5,3.5,0,0,1,1.62-.42,1.912,1.912,0,0,1,2.16,1.884,1.845,1.845,0,0,1-2.052,1.824,3.2,3.2,0,0,1-2.364-1.068v1.3a3.674,3.674,0,0,0,2.376.84,2.9,2.9,0,0,0,3.18-2.94,2.8,2.8,0,0,0-2.976-2.784,3.12,3.12,0,0,0-.972.18l.492-2.52h3.06Zm1.944,5.58h3.108v-.96h-3.108Zm11.364.24H144.8v-5.82h-.924L139.392-2.8v.672h4.356V0H144.8V-2.124h1.536Zm-5.628,0V-3.12l3.036-4.152v4.164Zm9.732-6a3,3,0,0,0-3.072,3.036,2.9,2.9,0,0,0,2.94,2.856,3.655,3.655,0,0,0,.492-.036L148.176,0h1.344l2.724-3.384a4.256,4.256,0,0,0,1.236-2.748A2.917,2.917,0,0,0,150.444-9.108Zm1.236,4.752a2.9,2.9,0,0,1-1.14.24,1.974,1.974,0,0,1-2.052-2,1.929,1.929,0,0,1,1.956-1.968,1.9,1.9,0,0,1,1.932,1.98A2.719,2.719,0,0,1,151.68-4.356Zm2.46-4.572A7.269,7.269,0,0,1,156.42-3.7a7.323,7.323,0,0,1-2.28,5.244h1.224A7.607,7.607,0,0,0,157.476-3.7a7.622,7.622,0,0,0-2.112-5.232Z" transform="translate(72 536)"/><path d="M-6592,10a5.006,5.006,0,0,1-5-5,5.006,5.006,0,0,1,5-5,5,5,0,0,1,5,5A5,5,0,0,1-6592,10Zm0-6.071a.716.716,0,0,0-.713.717V7.5a.707.707,0,0,0,.713.717.716.716,0,0,0,.714-.717V4.645A.708.708,0,0,0-6592,3.929Zm0-2.143a.715.715,0,0,0-.713.714.715.715,0,0,0,.713.714.714.714,0,0,0,.714-.714A.714.714,0,0,0-6592,1.786Z" transform="translate(6832.001 526.5)" fill="#c1c6c8"/></g></svg>