<svg xmlns="http://www.w3.org/2000/svg" xmlns:xlink="http://www.w3.org/1999/xlink" width="375" height="628" viewBox="0 0 375 628"><defs><filter id="a" x="22.258" y="187.427" width="327.315" height="131.315" filterUnits="userSpaceOnUse"><feOffset dy="3" input="SourceAlpha"/><feGaussianBlur stdDeviation="3" result="b"/><feFlood flood-color="#0057b8" flood-opacity="0.2"/><feComposite operator="in" in2="b"/><feComposite in="SourceGraphic"/></filter><linearGradient id="c" x1="0.5" x2="0.5" y2="1" gradientUnits="objectBoundingBox"><stop offset="0" stop-color="#f8f8fc"/><stop offset="1" stop-color="#e1e2e8"/></linearGradient><filter id="e" x="8" y="404" width="80" height="80" filterUnits="userSpaceOnUse"><feOffset dy="4" input="SourceAlpha"/><feGaussianBlur stdDeviation="8" result="f"/><feFlood flood-opacity="0.122"/><feComposite operator="in" in2="f"/><feComposite in="SourceGraphic"/></filter><clipPath id="g"><circle cx="16" cy="16" r="16" transform="translate(0 0.001)" fill="#9bcbeb"/></clipPath><linearGradient id="h" x1="-2.152" y1="0.467" x2="1.172" y2="0.515" gradientUnits="objectBoundingBox"><stop offset="0.01"/><stop offset="1" stop-opacity="0"/></linearGradient><linearGradient id="i" x1="-1.499" y1="1.742" x2="1.059" y2="0.131" xlink:href="#h"/><linearGradient id="j" x1="0.337" y1="-1.05" x2="0.603" y2="1.481" xlink:href="#h"/><linearGradient id="k" x1="0.815" y1="0.239" x2="0.092" y2="0.732" gradientUnits="objectBoundingBox"><stop offset="0.02" stop-color="#fff" stop-opacity="0"/><stop offset="0.58" stop-color="#fff" stop-opacity="0.388"/><stop offset="1" stop-color="#fff"/></linearGradient><linearGradient id="l" x1="-0.26" y1="0.481" x2="1.302" y2="0.521" xlink:href="#k"/><linearGradient id="m" x1="0.538" y1="-0.383" x2="0.467" y2="1.403" xlink:href="#h"/><linearGradient id="n" x1="0.256" y1="-0.276" x2="0.721" y2="1.203" xlink:href="#h"/><linearGradient id="o" x1="0.253" y1="0.258" x2="0.455" y2="0.476" xlink:href="#h"/><linearGradient id="p" x1="0.413" y1="0.486" x2="1.01" y2="0.583" xlink:href="#h"/><linearGradient id="q" x1="0.014" y1="0.352" x2="0.779" y2="0.604" xlink:href="#h"/><linearGradient id="r" x1="0.555" y1="1.165" x2="0.461" y2="-0.341" xlink:href="#h"/><linearGradient id="s" x1="0.635" y1="0.055" x2="0.348" y2="0.907" gradientUnits="objectBoundingBox"><stop offset="0.02" stop-color="#fff" stop-opacity="0"/><stop offset="0.58" stop-color="#fff" stop-opacity="0.388"/><stop offset="0.68" stop-color="#fff" stop-opacity="0.678"/><stop offset="1" stop-color="#fff"/></linearGradient><linearGradient id="t" x1="0.185" y1="-0.258" x2="0.961" y2="1.606" xlink:href="#h"/><clipPath id="v"><rect width="375" height="628"/></clipPath></defs><g id="u" clip-path="url(#v)"><rect width="375" height="628" fill="#fff"/><path d="M3.72.15A2.757,2.757,0,0,0,6.59-2.82V-7.44H5.66v4.66A1.863,1.863,0,0,1,3.72-.73,1.809,1.809,0,0,1,1.86-2.76V-7.44H.93v4.63A2.7,2.7,0,0,0,3.72.15ZM8.36,2.1h.92V-.94A2.153,2.153,0,0,0,11.15.12,2.6,2.6,0,0,0,13.6-2.71a2.608,2.608,0,0,0-2.46-2.82A2.18,2.18,0,0,0,9.22-4.41l-.11-1H8.36Zm2.6-2.84A1.79,1.79,0,0,1,9.26-2.7a1.793,1.793,0,0,1,1.7-1.97,1.792,1.792,0,0,1,1.72,1.96A1.79,1.79,0,0,1,10.96-.74Zm6.11.86A2.186,2.186,0,0,0,19-.99l.11.99h.75V-8h-.92v3.53a2.123,2.123,0,0,0-1.87-1.06A2.605,2.605,0,0,0,14.61-2.7,2.614,2.614,0,0,0,17.07.12Zm.19-.86A1.8,1.8,0,0,1,15.53-2.7a1.8,1.8,0,0,1,1.73-1.97,1.79,1.79,0,0,1,1.7,1.96A1.793,1.793,0,0,1,17.26-.74Zm6.38.86A2.175,2.175,0,0,0,25.57-.99l.11.99h.75V-5.41h-.75l-.11,1a2.184,2.184,0,0,0-1.93-1.12A2.617,2.617,0,0,0,21.18-2.7,2.62,2.62,0,0,0,23.64.12Zm.19-.86A1.792,1.792,0,0,1,22.11-2.7a1.8,1.8,0,0,1,1.72-1.97,1.8,1.8,0,0,1,1.71,1.96A1.8,1.8,0,0,1,23.83-.74Zm5.41-5.94h-.88v1.27h-.83v.8h.81v2.72A1.79,1.79,0,0,0,30.27.07a3.389,3.389,0,0,0,.64-.06v-.8a2.8,2.8,0,0,1-.48.05,1.074,1.074,0,0,1-1.19-1.19V-4.61h1.55v-.8H29.24Zm7.32,3.87c0-1.78-1.05-2.72-2.33-2.72a2.656,2.656,0,0,0-2.61,2.85A2.6,2.6,0,0,0,34.36.12a3.152,3.152,0,0,0,1.89-.6v-.91a2.8,2.8,0,0,1-1.82.71A1.844,1.844,0,0,1,32.52-2.4h4.01A2.456,2.456,0,0,0,36.56-2.81Zm-4.04-.28a1.756,1.756,0,0,1,1.7-1.64,1.474,1.474,0,0,1,1.45,1.64ZM40,.12A2.186,2.186,0,0,0,41.93-.99l.11.99h.75V-8h-.92v3.53A2.123,2.123,0,0,0,40-5.53,2.605,2.605,0,0,0,37.54-2.7,2.614,2.614,0,0,0,40,.12Zm.19-.86A1.8,1.8,0,0,1,38.46-2.7a1.8,1.8,0,0,1,1.73-1.97,1.79,1.79,0,0,1,1.7,1.96A1.793,1.793,0,0,1,40.19-.74Zm4.78-2.6a.613.613,0,0,0,.62-.63.611.611,0,0,0-.62-.62.6.6,0,0,0-.62.62A.607.607,0,0,0,44.97-3.34Zm0,3.39a.611.611,0,0,0,.62-.62.613.613,0,0,0-.62-.63.607.607,0,0,0-.62.63A.6.6,0,0,0,44.97.05ZM49.42,0h4.94V-.88H51.23c1.86-2.03,2.86-3.25,2.86-4.43a2.191,2.191,0,0,0-2.33-2.28,2.987,2.987,0,0,0-1.98.73v1.04a2.587,2.587,0,0,1,1.9-.89,1.411,1.411,0,0,1,1.47,1.45C53.15-4.39,52.73-3.7,49.42,0Zm5.86,0h4.94V-.88H57.09c1.86-2.03,2.86-3.25,2.86-4.43a2.191,2.191,0,0,0-2.33-2.28,2.987,2.987,0,0,0-1.98.73v1.04a2.587,2.587,0,0,1,1.9-.89,1.411,1.411,0,0,1,1.47,1.45C59.01-4.39,58.59-3.7,55.28,0Zm5.84,1.33h.89L65.36-8.76h-.9ZM66.29,0h.99l3.89-7.44H66.23v.87h3.52Zm4.62,1.33h.89L75.15-8.76h-.9ZM75.87,0h4.94V-.88H77.68c1.86-2.03,2.86-3.25,2.86-4.43a2.191,2.191,0,0,0-2.33-2.28,2.987,2.987,0,0,0-1.98.73v1.04a2.587,2.587,0,0,1,1.9-.89A1.411,1.411,0,0,1,79.6-5.26C79.6-4.39,79.18-3.7,75.87,0Zm8.9-7.59c-1.54,0-2.78,1.46-2.78,3.88S83.23.15,84.77.15s2.79-1.45,2.79-3.86S86.31-7.59,84.77-7.59Zm0,.88c1.02,0,1.86,1.1,1.86,3S85.79-.73,84.77-.73s-1.84-1.08-1.84-2.98S83.74-6.71,84.77-6.71ZM88.55,0h4.94V-.88H90.36c1.86-2.03,2.86-3.25,2.86-4.43a2.191,2.191,0,0,0-2.33-2.28,2.987,2.987,0,0,0-1.98.73v1.04a2.587,2.587,0,0,1,1.9-.89,1.411,1.411,0,0,1,1.47,1.45C92.28-4.39,91.86-3.7,88.55,0Zm8.9-7.59c-1.54,0-2.78,1.46-2.78,3.88S95.91.15,97.45.15s2.79-1.45,2.79-3.86S98.99-7.59,97.45-7.59Zm0,.88c1.02,0,1.86,1.1,1.86,3S98.47-.73,97.45-.73s-1.84-1.08-1.84-2.98S96.42-6.71,97.45-6.71Z" transform="translate(243 43)" fill="#5b6770"/><g transform="matrix(1, 0, 0, 1, 0, 0)" filter="url(#a)"><path d="M2587,2716.178c1.621-.967,12.025-7.581,25.876-16.771,7.492-4.972,12.193-17.857,30.623-20.246,14.781-1.916,19.552,6.4,31.2,6.916a30.95,30.95,0,0,0,9.709-1.334c19.612-5.548,20.432-23.176,45.307-32.7s35.567-2,54.193-5.389,25.424-17.787,36.705-17.894,20.312,23.126,37.139,23.283S2891,2608.178,2891,2608.178" transform="translate(-2553 -2412.18)" fill="none" stroke="#00629b" stroke-linecap="round" stroke-linejoin="round" stroke-width="4"/></g><rect width="312" height="1" transform="translate(32 336)"/><path d="M.29-1.4V-.39A2.121,2.121,0,0,0,1.68.12,1.978,1.978,0,0,0,3.71-2.04v-5.4H2.78v5.27c0,.94-.47,1.41-1.2,1.41A1.739,1.739,0,0,1,.29-1.4ZM7.63.12a2.084,2.084,0,0,0,2.24-2.2V-5.41H8.95v3.35A1.219,1.219,0,0,1,7.63-.74,1.2,1.2,0,0,1,6.35-2.06V-5.41H5.43v3.33A2.058,2.058,0,0,0,7.63.12ZM11.5,0h.92V-8H11.5Zm4.88,0h4.94V-.88H18.19c1.86-2.03,2.86-3.25,2.86-4.43a2.191,2.191,0,0,0-2.33-2.28,2.987,2.987,0,0,0-1.98.73v1.04a2.587,2.587,0,0,1,1.9-.89,1.412,1.412,0,0,1,1.47,1.45C20.11-4.39,19.69-3.7,16.38,0Zm8.9-7.59c-1.54,0-2.78,1.46-2.78,3.88S23.74.15,25.28.15s2.79-1.45,2.79-3.86S26.82-7.59,25.28-7.59Zm0,.88c1.02,0,1.86,1.1,1.86,3S26.3-.73,25.28-.73s-1.84-1.08-1.84-2.98S24.25-6.71,25.28-6.71ZM30.92,0h.92V-7.47h-.09L29.07-6.36v.97l1.85-.79Zm7.15-7.44H34.85l-.67,3.86.12.1a2.913,2.913,0,0,1,1.35-.35,1.593,1.593,0,0,1,1.8,1.57A1.538,1.538,0,0,1,35.74-.74a2.663,2.663,0,0,1-1.97-.89V-.55a3.061,3.061,0,0,0,1.98.7A2.421,2.421,0,0,0,38.4-2.3a2.33,2.33,0,0,0-2.48-2.32,2.6,2.6,0,0,0-.81.15l.41-2.1h2.55Z" transform="translate(32 353)"/><path d="M-41.16-7.6a2.1,2.1,0,0,0-2.35,2.03c0,1.18.88,1.63,1.97,2.12,1.04.47,1.59.81,1.59,1.5,0,.8-.72,1.24-1.55,1.24a2.961,2.961,0,0,1-2.04-.86V-.53a3.5,3.5,0,0,0,2.08.69,2.236,2.236,0,0,0,2.47-2.17c0-1.21-.91-1.69-2.04-2.19-1.02-.46-1.54-.77-1.54-1.42,0-.74.66-1.11,1.42-1.11a3.16,3.16,0,0,1,1.76.58v-.96A3.485,3.485,0,0,0-41.16-7.6Zm8.1,4.79c0-1.78-1.05-2.72-2.33-2.72A2.656,2.656,0,0,0-38-2.68,2.6,2.6,0,0,0-35.26.12a3.152,3.152,0,0,0,1.89-.6v-.91a2.8,2.8,0,0,1-1.82.71A1.844,1.844,0,0,1-37.1-2.4h4.01A2.456,2.456,0,0,0-33.06-2.81Zm-4.04-.28a1.756,1.756,0,0,1,1.7-1.64,1.474,1.474,0,0,1,1.45,1.64Zm5.36,5.19h.92V-.94A2.153,2.153,0,0,0-28.95.12,2.6,2.6,0,0,0-26.5-2.71a2.608,2.608,0,0,0-2.46-2.82,2.18,2.18,0,0,0-1.92,1.12l-.11-1h-.75Zm2.6-2.84a1.79,1.79,0,0,1-1.7-1.96,1.793,1.793,0,0,1,1.7-1.97,1.792,1.792,0,0,1,1.72,1.96A1.79,1.79,0,0,1-29.14-.74Zm6.25.74h4.94V-.88h-3.13c1.86-2.03,2.86-3.25,2.86-4.43a2.191,2.191,0,0,0-2.33-2.28,2.987,2.987,0,0,0-1.98.73v1.04a2.587,2.587,0,0,1,1.9-.89,1.412,1.412,0,0,1,1.47,1.45C-19.16-4.39-19.58-3.7-22.89,0Zm8.9-7.59c-1.54,0-2.78,1.46-2.78,3.88S-15.53.15-13.99.15-11.2-1.3-11.2-3.71-12.45-7.59-13.99-7.59Zm0,.88c1.02,0,1.86,1.1,1.86,3s-.84,2.98-1.86,2.98-1.84-1.08-1.84-2.98S-15.02-6.71-13.99-6.71ZM-8.35,0h.92V-7.47h-.09L-10.2-6.36v.97l1.85-.79Zm5.33-7.59A2.5,2.5,0,0,0-5.58-5.06,2.415,2.415,0,0,0-3.13-2.68a3.046,3.046,0,0,0,.41-.03L-4.91,0h1.12l2.27-2.82A3.546,3.546,0,0,0-.49-5.11,2.431,2.431,0,0,0-3.02-7.59Zm1.03,3.96a2.417,2.417,0,0,1-.95.2A1.645,1.645,0,0,1-4.65-5.1,1.607,1.607,0,0,1-3.02-6.74,1.587,1.587,0,0,1-1.41-5.09,2.266,2.266,0,0,1-1.99-3.63Z" transform="translate(344 353)"/><circle cx="12" cy="12" r="12" transform="translate(326 184)" fill="#00629b" opacity="0.2"/><circle cx="6" cy="6" r="6" transform="translate(332 190)" fill="#00629b"/><path d="M17.248-7.168c0-4.384-3.3-5.856-6.56-6.976-2.048-.7-3.68-1.376-3.68-2.816,0-1.216,1.216-2.208,3.264-2.208a9.932,9.932,0,0,1,5.6,1.888V-22.3a12.721,12.721,0,0,0-4.48-1.376v-2.368H7.232v2.624C3.9-22.56,1.76-20.064,1.76-16.96c0,4.224,3.168,5.7,6.4,6.816,2.208.736,3.808,1.44,3.808,3.008s-1.536,2.56-3.776,2.56A9.255,9.255,0,0,1,1.824-7.264v5.376A12.943,12.943,0,0,0,7.232-.064V2.3h4.16V-.288C14.944-1.184,17.248-3.872,17.248-7.168ZM24.96,0h5.12V-24.1H29.7l-10.016,3.9v5.152l5.28-2.144Zm9.6,0H52.032V-4.672h-8.1c4.352-4.7,7.1-8.192,7.1-11.712,0-4.7-3.36-8.032-8.512-8.032A10.493,10.493,0,0,0,35.9-22.144v5.216a7.855,7.855,0,0,1,5.7-2.688,3.781,3.781,0,0,1,4.064,3.776C45.664-13.44,44.736-11.808,34.56,0ZM74.4-9.344H70.592V-23.872H66.08L54.464-8.128V-5.12h11.3V0h4.832V-5.12H74.4Zm-14.592,0v-.032l5.952-8.16v8.192ZM76.192,4.288H79.84A21.911,21.911,0,0,0,82.048-4.1V-5.472H77.472v1.76A28.123,28.123,0,0,1,76.192,4.288Zm24.128-28.16H88.48l-1.92,12.96.8.544a9.366,9.366,0,0,1,3.968-.864c3.2,0,4.768,1.568,4.768,3.52,0,1.92-1.536,3.424-4.32,3.424a8.915,8.915,0,0,1-6.144-2.5V-1.44A11.357,11.357,0,0,0,92.32.544c6.176,0,9.184-4.16,9.184-8.288,0-3.9-2.88-7.456-8.192-7.456a8.317,8.317,0,0,0-1.984.256l.768-4.224h8.224Zm18.976,0h-11.84l-1.92,12.96.8.544a9.366,9.366,0,0,1,3.968-.864c3.2,0,4.768,1.568,4.768,3.52,0,1.92-1.536,3.424-4.32,3.424a8.915,8.915,0,0,1-6.144-2.5V-1.44A11.357,11.357,0,0,0,111.3.544c6.176,0,9.184-4.16,9.184-8.288,0-3.9-2.88-7.456-8.192-7.456a8.317,8.317,0,0,0-1.984.256l.768-4.224H119.3ZM128.224,0h5.12V-24.1h-.384l-10.016,3.9v5.152l5.28-2.144Z" transform="translate(32 134)"/><path d="M7.44-.432V-1.62a4.057,4.057,0,0,1-2.316.732A3.41,3.41,0,0,1,1.788-4.464,3.4,3.4,0,0,1,5.124-8.04a4.049,4.049,0,0,1,2.316.72V-8.5a4.552,4.552,0,0,0-2.364-.612A4.429,4.429,0,0,0,.648-4.476,4.443,4.443,0,0,0,5.076.18,4.586,4.586,0,0,0,7.44-.432Zm4.044.576A2.5,2.5,0,0,0,14.172-2.5v-4h-1.1v4.02A1.463,1.463,0,0,1,11.484-.888,1.438,1.438,0,0,1,9.948-2.472v-4.02h-1.1v4A2.469,2.469,0,0,0,11.484.144ZM16.1,0h1.1V-3.7a1.682,1.682,0,0,1,1.74-1.824,2.793,2.793,0,0,1,.456.048V-6.528a2.325,2.325,0,0,0-.432-.036,2.1,2.1,0,0,0-1.86,1.1H17.1l-.12-1.032H16.1Zm4.512,0h1.1V-3.7A1.682,1.682,0,0,1,23.46-5.52a2.793,2.793,0,0,1,.456.048V-6.528a2.325,2.325,0,0,0-.432-.036,2.1,2.1,0,0,0-1.86,1.1h-.012l-.12-1.032h-.876Zm9.8-3.372c0-2.136-1.26-3.264-2.8-3.264a3.188,3.188,0,0,0-3.132,3.42A3.125,3.125,0,0,0,27.78.144a3.782,3.782,0,0,0,2.268-.72V-1.668a3.354,3.354,0,0,1-2.184.852A2.213,2.213,0,0,1,25.572-2.88h4.812A2.947,2.947,0,0,0,30.42-3.372Zm-4.848-.336a2.108,2.108,0,0,1,2.04-1.968,1.769,1.769,0,0,1,1.74,1.968ZM35-6.636a2.342,2.342,0,0,0-1.992,1.128h-.036l-.12-.984H32V0h1.1V-3.96a1.57,1.57,0,0,1,1.62-1.62c.972,0,1.488.54,1.488,1.68V0h1.1V-4.3A2.18,2.18,0,0,0,35-6.636Zm5.568-1.38H39.516v1.524h-1v.96h.972v3.264A2.148,2.148,0,0,0,41.808.084a4.067,4.067,0,0,0,.768-.072v-.96A3.357,3.357,0,0,1,42-.888a1.289,1.289,0,0,1-1.428-1.428V-5.532h1.86v-.96h-1.86Zm7.7-1.584h-1.1V0h.9L48.2-1.188a2.591,2.591,0,0,0,2.3,1.332A3.137,3.137,0,0,0,53.46-3.24a3.116,3.116,0,0,0-2.928-3.4,2.554,2.554,0,0,0-2.256,1.284Zm2.016,4A2.155,2.155,0,0,1,52.356-3.24,2.151,2.151,0,0,1,50.292-.888a2.152,2.152,0,0,1-2.04-2.364A2.148,2.148,0,0,1,50.292-5.6ZM57.612.144a2.61,2.61,0,0,0,2.316-1.332L60.06,0h.9V-6.492h-.9l-.132,1.2a2.621,2.621,0,0,0-2.316-1.344,3.141,3.141,0,0,0-2.952,3.4A3.144,3.144,0,0,0,57.612.144ZM57.84-.888A2.151,2.151,0,0,1,55.776-3.24,2.155,2.155,0,0,1,57.84-5.6a2.157,2.157,0,0,1,2.052,2.352A2.161,2.161,0,0,1,57.84-.888ZM63,0h1.1V-9.6H63Zm5.676.144a2.61,2.61,0,0,0,2.316-1.332L71.124,0h.9V-6.492h-.9l-.132,1.2a2.621,2.621,0,0,0-2.316-1.344,3.141,3.141,0,0,0-2.952,3.4A3.144,3.144,0,0,0,68.676.144ZM68.9-.888A2.151,2.151,0,0,1,66.84-3.24,2.155,2.155,0,0,1,68.9-5.6a2.157,2.157,0,0,1,2.052,2.352A2.161,2.161,0,0,1,68.9-.888ZM77.04-6.636a2.342,2.342,0,0,0-1.992,1.128h-.036l-.12-.984H74.04V0h1.1V-3.96a1.57,1.57,0,0,1,1.62-1.62c.972,0,1.488.54,1.488,1.68V0h1.1V-4.3A2.18,2.18,0,0,0,77.04-6.636ZM82-3.252A2.239,2.239,0,0,1,84.216-5.6a2.74,2.74,0,0,1,1.74.552V-6.18a3.325,3.325,0,0,0-1.8-.456A3.261,3.261,0,0,0,80.88-3.252a3.257,3.257,0,0,0,3.276,3.4,3.6,3.6,0,0,0,1.8-.444V-1.416a2.778,2.778,0,0,1-1.728.528A2.238,2.238,0,0,1,82-3.252Zm11-.12c0-2.136-1.26-3.264-2.8-3.264a3.188,3.188,0,0,0-3.132,3.42A3.125,3.125,0,0,0,90.36.144a3.782,3.782,0,0,0,2.268-.72V-1.668a3.354,3.354,0,0,1-2.184.852A2.213,2.213,0,0,1,88.152-2.88h4.812A2.947,2.947,0,0,0,93-3.372Zm-4.848-.336a2.108,2.108,0,0,1,2.04-1.968,1.769,1.769,0,0,1,1.74,1.968Z" transform="translate(32 161)"/><path d="M.444,0H6.372V-1.056H2.616c2.232-2.436,3.432-3.9,3.432-5.316a2.629,2.629,0,0,0-2.8-2.736,3.585,3.585,0,0,0-2.376.876v1.248a3.1,3.1,0,0,1,2.28-1.068A1.694,1.694,0,0,1,4.92-6.312C4.92-5.268,4.416-4.44.444,0Zm10.68-9.108c-1.848,0-3.336,1.752-3.336,4.656S9.276.18,11.124.18s3.348-1.74,3.348-4.632S12.972-9.108,11.124-9.108Zm0,1.056c1.224,0,2.232,1.32,2.232,3.6S12.348-.876,11.124-.876s-2.208-1.3-2.208-3.576S9.888-8.052,11.124-8.052ZM17.892,0H19V-8.964h-.108L15.672-7.632v1.164l2.22-.948Zm6.4-9.108a3,3,0,0,0-3.072,3.036,2.9,2.9,0,0,0,2.94,2.856,3.655,3.655,0,0,0,.492-.036L22.02,0h1.344l2.724-3.384a4.256,4.256,0,0,0,1.236-2.748A2.917,2.917,0,0,0,24.288-9.108Zm1.236,4.752a2.9,2.9,0,0,1-1.14.24,1.974,1.974,0,0,1-2.052-2,1.929,1.929,0,0,1,1.956-1.968,1.9,1.9,0,0,1,1.932,1.98A2.719,2.719,0,0,1,25.524-4.356ZM27.756,1.6h1.068l4.02-12.108h-1.08ZM33.708,0h5.928V-1.056H35.88c2.232-2.436,3.432-3.9,3.432-5.316a2.629,2.629,0,0,0-2.8-2.736,3.585,3.585,0,0,0-2.376.876v1.248a3.1,3.1,0,0,1,2.28-1.068,1.694,1.694,0,0,1,1.764,1.74C38.184-5.268,37.68-4.44,33.708,0Zm10.68-9.108c-1.848,0-3.336,1.752-3.336,4.656S42.54.18,44.388.18s3.348-1.74,3.348-4.632S46.236-9.108,44.388-9.108Zm0,1.056c1.224,0,2.232,1.32,2.232,3.6S45.612-.876,44.388-.876s-2.208-1.3-2.208-3.576S43.152-8.052,44.388-8.052ZM53.112,0h1.1V-5.532h1.86v-.96H54.2V-7.32c0-.912.444-1.308,1.248-1.308a2.787,2.787,0,0,1,.948.168V-9.48a3.574,3.574,0,0,0-1.08-.18,2.1,2.1,0,0,0-2.208,2.2v.972h-.936v.96h.936Zm4.752-7.98a.659.659,0,0,0,.684-.672.659.659,0,0,0-.684-.672.659.659,0,0,0-.684.672A.659.659,0,0,0,57.864-7.98ZM57.312,0h1.1V-6.492h-1.1Zm6.144-6.636a2.342,2.342,0,0,0-1.992,1.128h-.036l-.12-.984h-.852V0h1.1V-3.96a1.57,1.57,0,0,1,1.62-1.62c.972,0,1.488.54,1.488,1.68V0h1.1V-4.3A2.18,2.18,0,0,0,63.456-6.636ZM70.248.144a2.61,2.61,0,0,0,2.316-1.332L72.7,0h.9V-6.492h-.9l-.132,1.2a2.621,2.621,0,0,0-2.316-1.344A3.141,3.141,0,0,0,67.3-3.24,3.144,3.144,0,0,0,70.248.144Zm.228-1.032A2.151,2.151,0,0,1,68.412-3.24,2.155,2.155,0,0,1,70.476-5.6a2.157,2.157,0,0,1,2.052,2.352A2.161,2.161,0,0,1,70.476-.888Zm8.136-5.748A2.342,2.342,0,0,0,76.62-5.508h-.036l-.12-.984h-.852V0h1.1V-3.96a1.57,1.57,0,0,1,1.62-1.62c.972,0,1.488.54,1.488,1.68V0h1.1V-4.3A2.18,2.18,0,0,0,78.612-6.636Zm4.956,3.384A2.239,2.239,0,0,1,85.788-5.6a2.74,2.74,0,0,1,1.74.552V-6.18a3.325,3.325,0,0,0-1.8-.456,3.261,3.261,0,0,0-3.276,3.384,3.257,3.257,0,0,0,3.276,3.4,3.6,3.6,0,0,0,1.8-.444V-1.416A2.778,2.778,0,0,1,85.8-.888,2.238,2.238,0,0,1,83.568-3.252Zm6.18-4.728a.659.659,0,0,0,.684-.672.659.659,0,0,0-.684-.672.659.659,0,0,0-.684.672A.659.659,0,0,0,89.748-7.98ZM89.2,0h1.1V-6.492H89.2Zm5.676.144a2.61,2.61,0,0,0,2.316-1.332L97.32,0h.9V-6.492h-.9l-.132,1.2a2.621,2.621,0,0,0-2.316-1.344,3.141,3.141,0,0,0-2.952,3.4A3.144,3.144,0,0,0,94.872.144ZM95.1-.888A2.151,2.151,0,0,1,93.036-3.24,2.155,2.155,0,0,1,95.1-5.6a2.157,2.157,0,0,1,2.052,2.352A2.161,2.161,0,0,1,95.1-.888ZM100.26,0h1.1V-9.6h-1.1Zm11.364-6.492h-1.152l-1.788,4.944h-.024l-1.788-4.944h-1.2L108.1-.228,106.98,2.52h1.128Zm6.576,3.12c0-2.136-1.26-3.264-2.8-3.264a3.188,3.188,0,0,0-3.132,3.42A3.125,3.125,0,0,0,115.56.144a3.782,3.782,0,0,0,2.268-.72V-1.668a3.354,3.354,0,0,1-2.184.852,2.213,2.213,0,0,1-2.292-2.064h4.812A2.947,2.947,0,0,0,118.2-3.372Zm-4.848-.336a2.108,2.108,0,0,1,2.04-1.968,1.769,1.769,0,0,1,1.74,1.968ZM122.316.144a2.61,2.61,0,0,0,2.316-1.332L124.764,0h.9V-6.492h-.9l-.132,1.2a2.621,2.621,0,0,0-2.316-1.344,3.141,3.141,0,0,0-2.952,3.4A3.144,3.144,0,0,0,122.316.144Zm.228-1.032A2.151,2.151,0,0,1,120.48-3.24,2.155,2.155,0,0,1,122.544-5.6,2.157,2.157,0,0,1,124.6-3.252,2.161,2.161,0,0,1,122.544-.888ZM127.68,0h1.1V-3.7a1.682,1.682,0,0,1,1.74-1.824,2.793,2.793,0,0,1,.456.048V-6.528a2.325,2.325,0,0,0-.432-.036,2.1,2.1,0,0,0-1.86,1.1h-.012l-.12-1.032h-.876Z" transform="translate(200 161)"/><path d="M-937,658l10-10" transform="translate(1227 -526)" fill="none" stroke="#00629b" stroke-width="3"/><path d="M-897,672h10v10" transform="translate(1187 -550)" fill="none" stroke="#00629b" stroke-width="3"/><path d="M8.08-13.4H5.42v4.68H.88v2.54H5.42v4.7H8.08v-4.7h4.68V-8.72H8.08ZM24.42-4.48c0-2.74-2.06-3.66-4.1-4.36-1.28-.44-2.3-.86-2.3-1.76,0-.76.76-1.38,2.04-1.38a6.208,6.208,0,0,1,3.5,1.18v-3.14a7.951,7.951,0,0,0-2.8-.86v-1.48h-2.6v1.64a4.21,4.21,0,0,0-3.42,4.04c0,2.64,1.98,3.56,4,4.26,1.38.46,2.38.9,2.38,1.88s-.96,1.6-2.36,1.6a5.784,5.784,0,0,1-3.98-1.68v3.36A8.089,8.089,0,0,0,18.16-.04V1.44h2.6V-.18A4.486,4.486,0,0,0,24.42-4.48Zm7.22-10.78a5.447,5.447,0,0,0-5.7,5.44,4.913,4.913,0,0,0,5.04,4.9h.14L27.2,0h3.86l4-4.94a7.775,7.775,0,0,0,2.22-4.98A5.329,5.329,0,0,0,31.64-15.26Zm1.58,7.72a3.776,3.776,0,0,1-1.4.26,2.532,2.532,0,0,1-2.66-2.58,2.484,2.484,0,0,1,2.5-2.54,2.456,2.456,0,0,1,2.48,2.54A3.665,3.665,0,0,1,33.22-7.54ZM37.44,2.68h2.28A13.694,13.694,0,0,0,41.1-2.56v-.86H38.24v1.1A17.576,17.576,0,0,1,37.44,2.68ZM49.66-9.98a1.94,1.94,0,0,0-.34.02l3.98-4.96H49.44L45.46-10A7.769,7.769,0,0,0,43.2-5.02,5.414,5.414,0,0,0,48.92.34,5.446,5.446,0,0,0,54.66-5.1,4.989,4.989,0,0,0,49.66-9.98ZM48.9-2.5a2.518,2.518,0,0,1-2.52-2.56,3.525,3.525,0,0,1,.88-2.3,3.778,3.778,0,0,1,1.38-.28,2.589,2.589,0,0,1,2.78,2.6A2.513,2.513,0,0,1,48.9-2.5ZM59.24,0h3.2V-15.06H62.2l-6.26,2.44V-9.4l3.3-1.34ZM77.76-5.84H75.38v-9.08H72.56L65.3-5.08V-3.2h7.06V0h3.02V-3.2h2.38Zm-9.12,0v-.02l3.72-5.1v5.12Z" transform="translate(200 134)" fill="#00629b"/><path d="M1.46,0H7.7c3.68,0,5.4-1.96,5.4-4.2a3.454,3.454,0,0,0-2.56-3.44v-.02a3.344,3.344,0,0,0,2.18-3.22c0-2.24-1.8-4.04-5.28-4.04H1.46ZM5.22-8.86v-2.9h2.1c1.22,0,1.84.64,1.84,1.44S8.54-8.86,7.28-8.86Zm0,5.68V-6.26h2.2c1.24,0,1.98.62,1.98,1.54,0,.88-.68,1.54-2.02,1.54ZM29.96,0,24.4-14.92H20L14.52,0h3.94l1.12-3.3h5.26L26,0ZM22.2-11.04l1.62,4.66H20.58ZM32.4,0h9.82V-3.44H36.2V-14.92H32.4ZM59.08,0,53.52-14.92h-4.4L43.64,0h3.94L48.7-3.3h5.26L55.12,0ZM51.32-11.04l1.62,4.66H49.7ZM74.8-14.92H71.18v8.74h-.02l-6-8.74H61.52V0h3.62V-8.9h.02L71.2,0h3.6ZM89.88-.68V-4.46a6.187,6.187,0,0,1-3.72,1.34,4.263,4.263,0,0,1-4.4-4.34,4.235,4.235,0,0,1,4.4-4.32,6.163,6.163,0,0,1,3.72,1.24v-3.72a8.98,8.98,0,0,0-4.16-1.02,7.612,7.612,0,0,0-7.78,7.82A7.607,7.607,0,0,0,85.72.34,8.98,8.98,0,0,0,89.88-.68ZM93.2,0h9.84V-3.38H97v-2.6h5.46V-9.06H97v-2.48h6.04v-3.38H93.2Z" transform="translate(32 49)"/><path d="M-714,270l6,6,6-6" transform="translate(895.5 338)" fill="none" stroke="#c1c6c8" stroke-width="2"/><path d="M16,0H272a16,16,0,0,1,16,16V136a16,16,0,0,1-16,16H0V16A16,16,0,0,1,16,0Z" transform="translate(56 407.999)" fill="url(#c)"/><path d="M1100,1114l33.828-32v32Z" transform="translate(-1052 -554)" fill="url(#c)"/><path d="M8.82,16h1.4V4.84H8.82V9.685H2.925V4.84H1.53V16H2.925V10.99H8.82Zm8.085.18a4.026,4.026,0,0,0,4.02-4.23,4.04,4.04,0,1,0-8.07,0A4.032,4.032,0,0,0,16.9,16.18Zm0-1.29a2.717,2.717,0,0,1-2.655-2.94,2.664,2.664,0,1,1,5.3,0A2.724,2.724,0,0,1,16.9,14.89ZM30.405,16H31.98l2.28-8.115H32.9l-1.725,6.57h-.045L29.07,7.885H27.63l-2.07,6.57h-.03l-1.695-6.57H22.4L24.69,16h1.575L28.32,9.64h.045Zm13.485.18a3.279,3.279,0,0,0,2.9-1.665L46.95,16h1.125V4h-1.38V9.3A3.185,3.185,0,0,0,43.89,7.7c-1.92,0-3.69,1.635-3.69,4.245A3.921,3.921,0,0,0,43.89,16.18Zm.285-1.29a2.7,2.7,0,0,1-2.595-2.94,2.6,2.6,0,1,1,5.145-.015A2.69,2.69,0,0,1,44.175,14.89Zm10.38,1.29a4.026,4.026,0,0,0,4.02-4.23,4.04,4.04,0,1,0-8.07,0A4.032,4.032,0,0,0,54.555,16.18Zm0-1.29A2.717,2.717,0,0,1,51.9,11.95a2.663,2.663,0,1,1,5.295,0A2.724,2.724,0,0,1,54.555,14.89Zm13.38-3.105c0-2.67-1.575-4.08-3.5-4.08a3.985,3.985,0,0,0-3.915,4.275,3.906,3.906,0,0,0,4.11,4.2,4.728,4.728,0,0,0,2.835-.9V13.915a4.193,4.193,0,0,1-2.73,1.065,2.766,2.766,0,0,1-2.865-2.58H67.89A3.684,3.684,0,0,0,67.935,11.785Zm-6.06-.42a2.635,2.635,0,0,1,2.55-2.46,2.211,2.211,0,0,1,2.175,2.46ZM72.915,7.7c-1.8,0-2.925,1.02-2.925,2.385,0,1.425,1.185,1.86,2.52,2.265,1.17.36,1.935.615,1.935,1.4,0,.72-.63,1.2-1.725,1.2A3.851,3.851,0,0,1,69.96,13.8V15.28a4.485,4.485,0,0,0,2.805.9c1.875,0,3.03-.96,3.03-2.445,0-1.635-1.41-2.04-2.655-2.4-1.095-.315-1.8-.585-1.8-1.305,0-.66.57-1.095,1.59-1.095a3.832,3.832,0,0,1,2.43.84V8.41A4.249,4.249,0,0,0,72.915,7.7ZM84.24,5.98H82.92v1.9H81.675v1.2H82.89v4.08a2.685,2.685,0,0,0,2.895,2.94,5.083,5.083,0,0,0,.96-.09v-1.2a4.2,4.2,0,0,1-.72.075A1.611,1.611,0,0,1,84.24,13.1V9.085h2.325v-1.2H84.24ZM90.225,4h-1.38V16h1.38V10.975a1.875,1.875,0,0,1,2.025-1.98c1.245,0,1.86.69,1.86,2.115V16h1.38V10.63A2.675,2.675,0,0,0,92.565,7.7,2.793,2.793,0,0,0,90.24,8.86h-.015Zm8.88,2.025a.84.84,0,1,0-.855-.84A.824.824,0,0,0,99.105,6.025ZM98.415,16h1.38V7.885h-1.38Zm6.93-8.3c-1.8,0-2.925,1.02-2.925,2.385,0,1.425,1.185,1.86,2.52,2.265,1.17.36,1.935.615,1.935,1.4,0,.72-.63,1.2-1.725,1.2a3.851,3.851,0,0,1-2.76-1.155V15.28a4.485,4.485,0,0,0,2.805.9c1.875,0,3.03-.96,3.03-2.445,0-1.635-1.41-2.04-2.655-2.4-1.1-.315-1.8-.585-1.8-1.305,0-.66.57-1.095,1.59-1.095a3.832,3.832,0,0,1,2.43.84V8.41A4.249,4.249,0,0,0,105.345,7.7Zm10.71,4.23a2.8,2.8,0,0,1,2.775-2.94,3.424,3.424,0,0,1,2.175.69V8.275a4.156,4.156,0,0,0-2.25-.57,4.076,4.076,0,0,0-4.1,4.23,4.071,4.071,0,0,0,4.1,4.245,4.5,4.5,0,0,0,2.25-.555v-1.4a3.473,3.473,0,0,1-2.16.66A2.8,2.8,0,0,1,116.055,11.935Zm10.83,4.245a4.026,4.026,0,0,0,4.02-4.23,4.04,4.04,0,1,0-8.07,0A4.032,4.032,0,0,0,126.885,16.18Zm0-1.29a2.717,2.717,0,0,1-2.655-2.94,2.663,2.663,0,1,1,5.295,0A2.724,2.724,0,0,1,126.885,14.89ZM141.39,7.7a2.6,2.6,0,0,0-2.34,1.425A2.237,2.237,0,0,0,136.8,7.7a2.422,2.422,0,0,0-2.175,1.38h-.045l-.15-1.2h-1.065V16h1.38V10.885a1.711,1.711,0,0,1,1.68-1.86c1.08,0,1.545.615,1.545,1.785V16h1.38V10.81a1.685,1.685,0,0,1,1.7-1.785c1.08,0,1.53.615,1.53,1.785V16h1.38V10.585C143.955,8.89,143.16,7.7,141.39,7.7Zm5.46,11.445h1.38V14.59a3.23,3.23,0,0,0,2.805,1.59c1.92,0,3.675-1.635,3.675-4.245,0-2.58-1.77-4.23-3.69-4.23a3.27,3.27,0,0,0-2.88,1.68l-.165-1.5H146.85Zm3.9-4.26a2.685,2.685,0,0,1-2.55-2.94,2.59,2.59,0,1,1,5.13-.015A2.685,2.685,0,0,1,150.75,14.89Zm9.6,1.29a3.262,3.262,0,0,0,2.9-1.665L163.41,16h1.125V7.885H163.41l-.165,1.5a3.276,3.276,0,0,0-2.9-1.68c-1.9,0-3.69,1.65-3.69,4.245A3.93,3.93,0,0,0,160.35,16.18Zm.285-1.29a2.689,2.689,0,0,1-2.58-2.94,2.6,2.6,0,1,1,5.145-.015A2.7,2.7,0,0,1,160.635,14.89ZM167.5,16h1.38V11.38A2.1,2.1,0,0,1,171.06,9.1a3.492,3.492,0,0,1,.57.06V7.84a2.906,2.906,0,0,0-.54-.045,2.628,2.628,0,0,0-2.325,1.38h-.015l-.15-1.29h-1.1Zm12.705-4.215c0-2.67-1.575-4.08-3.5-4.08A3.985,3.985,0,0,0,172.8,11.98a3.906,3.906,0,0,0,4.11,4.2,4.728,4.728,0,0,0,2.835-.9V13.915a4.193,4.193,0,0,1-2.73,1.065,2.766,2.766,0,0,1-2.865-2.58h6.015A3.684,3.684,0,0,0,180.21,11.785Zm-6.06-.42a2.635,2.635,0,0,1,2.55-2.46,2.211,2.211,0,0,1,2.175,2.46Zm10.425-6.75A4.109,4.109,0,0,0,181.74,5.77V7.33a3.656,3.656,0,0,1,2.6-1.365,1.949,1.949,0,0,1,2.055,2.04c0,1.215-1,2.145-2.745,4.14h1.485c1.665-1.845,2.7-2.925,2.7-4.38A3.129,3.129,0,0,0,184.575,4.615Zm-.12,9.585a.938.938,0,1,0,.945.945A.919.919,0,0,0,184.455,14.2Z" transform="translate(80 424)"/><g transform="matrix(1, 0, 0, 1, 0, 0)" filter="url(#e)"><circle cx="16" cy="16" r="16" transform="translate(32 424)" fill="#9bcbeb"/></g><g transform="translate(32 423.999)" clip-path="url(#g)"><g transform="translate(1.337 4.284)"><path d="M187.825,265.873a1.527,1.527,0,0,1,.06,1.218,1.554,1.554,0,0,1-.529.5l-1.916,1.3a2.575,2.575,0,0,1-1.2.54.887.887,0,0,1-.98-.694c-.044-.51.49-.858.74-1.305a2.67,2.67,0,0,0-.024-1.962,35.924,35.924,0,0,1-.941-4.979c.393-.161,1.537-.882,1.944-.762.458.139.872,1.42,1.076,1.838A33.288,33.288,0,0,1,187.825,265.873Z" transform="translate(-163.941 -233.218)" fill="#f1af8c"/><path d="M199.424,206.471a20.24,20.24,0,0,0,1.822,4.1.2.2,0,0,1,.043.129.2.2,0,0,1-.078.108,5.6,5.6,0,0,1-2.72,1.584.333.333,0,0,1-.205-.018.339.339,0,0,1-.128-.176,12.056,12.056,0,0,1-.887-4.947,20.363,20.363,0,0,1,.2-2.516c.028-.2.043-1.1.219-1.208.268-.158.562.394.679.568A10.289,10.289,0,0,1,199.424,206.471Z" transform="translate(-179.215 -184.806)" fill="#fff"/><path d="M205.78,205.54s.626.235,1.136,2,1.726,6.037,1.726,6.037-1.881.94-2.352.587S205.78,205.54,205.78,205.54Z" transform="translate(-187.749 -186.566)" fill="url(#h)"/><path d="M213.956,192.407a10.077,10.077,0,0,0-3.048.3,5.05,5.05,0,0,0-2.57,1.6,5.54,5.54,0,0,0-1.1,3.163,20.789,20.789,0,0,0,.192,3.4,53.867,53.867,0,0,1,.211,7.962c-.031.636-.394,3.956.053,4.41.278.286-.278.572.118.666a24.005,24.005,0,0,0,12.11-.9,3.667,3.667,0,0,0,1.944-1.542c.417-.815-.708-4.046-.843-4.952q-.612-4.15-.883-8.344a27.268,27.268,0,0,0-.242-3.785c-.185-.882-.752-1.122-1.572-1.338A19.777,19.777,0,0,0,213.956,192.407Z" transform="translate(-201.262 -175.249)" fill="#fff"/><path d="M228.14,231.913a3.163,3.163,0,0,0,.632,1.574,2.716,2.716,0,0,0,1.086.664c1.93.728,4.13.614,5.98,1.527a1.29,1.29,0,0,1,.355.232,1.125,1.125,0,0,1-.026,1.388,4.165,4.165,0,0,1-2.956,1.349,25.5,25.5,0,0,1-7.993.33.733.733,0,0,1-.4-.151.719.719,0,0,1-.168-.375c-.6-2.663-.128-5.436-.117-8.165,0-1.574-.139-3.15-.032-4.721a9.579,9.579,0,0,1,.6-2.856c.246-.622.965-2,1.4-.721a30.831,30.831,0,0,1,1.13,6.321C227.769,229.515,227.913,230.72,228.14,231.913Z" transform="translate(-218.107 -200.28)" fill="url(#i)"/><path d="M245.981,170.381c.46-.074.718-.536.512-1.649-.022-.124-.051-.243-.085-.362a.3.3,0,0,0-.018-.067c-.05-.172-.107-.344-.162-.515a3.758,3.758,0,0,1-.242-1.281,2.3,2.3,0,0,0-.08-.945,1.547,1.547,0,0,0-.515-.623c-.5-.382-1.944-1.1-2.221-.151a4.333,4.333,0,0,0-.028,1.293,3.888,3.888,0,0,1-.319,1.734C242.52,168.421,244.852,170.562,245.981,170.381Z" transform="translate(-230.811 -151.065)" fill="#f1af8c"/><path d="M247.7,176.149s-2.56-.972-3.054-2.509l2.728.893S247.443,175.939,247.7,176.149Z" transform="translate(-232.209 -159.095)" fill="url(#j)"/><path d="M299.865,206.337a17.2,17.2,0,0,1-1.4,8.5.632.632,0,0,1-.171.257.694.694,0,0,1-.417.1,5.11,5.11,0,0,1-3.174-1.019,1.216,1.216,0,0,1-.562-.8,1.308,1.308,0,0,1,.1-.51,56.424,56.424,0,0,1,2.478-6.041,3.438,3.438,0,0,1,1.666-1.9C299.406,204.534,299.794,205.576,299.865,206.337Z" transform="translate(-291.31 -185.959)" fill="#fff"/><path d="M250.925,192.638a13.993,13.993,0,0,1-1.866-2.725,4.5,4.5,0,0,1-.725-1.865.372.372,0,0,1,.035-.224.4.4,0,0,1,.128-.118l1.043-.707a2.1,2.1,0,0,0,1,1.558c.555.394,2.145.826,1.8,1.644A17.094,17.094,0,0,1,250.925,192.638Z" transform="translate(-237.409 -170.6)" fill="#00629b"/><path d="M233.893,191.862a18.308,18.308,0,0,0,1.043,1.792,1.354,1.354,0,0,0,.555.555.153.153,0,0,0,.1.014c.061-.021.075-.1.079-.165a10.931,10.931,0,0,0-.16-3.193,2.945,2.945,0,0,0-.45-1.029,2.85,2.85,0,0,0-.927-.576c.056.171.112.343.162.515a.168.168,0,0,1,.017.051v.015c.033.119.062.239.085.362C234.607,191.326,234.349,191.788,233.893,191.862Z" transform="translate(-218.724 -172.546)" fill="#00629b"/><path d="M250.925,192.638a13.993,13.993,0,0,1-1.866-2.725,4.5,4.5,0,0,1-.725-1.865.372.372,0,0,1,.035-.224.4.4,0,0,1,.128-.118l1.043-.707a2.1,2.1,0,0,0,1,1.558c.555.394,2.145.826,1.8,1.644A17.094,17.094,0,0,1,250.925,192.638Z" transform="translate(-237.409 -170.6)" fill="url(#k)"/><path d="M233.893,191.862a18.308,18.308,0,0,0,1.043,1.792,1.354,1.354,0,0,0,.555.555.153.153,0,0,0,.1.014c.061-.021.075-.1.079-.165a10.931,10.931,0,0,0-.16-3.193,2.945,2.945,0,0,0-.45-1.029,2.85,2.85,0,0,0-.927-.576c.056.171.112.343.162.515a.168.168,0,0,1,.017.051v.015c.033.119.062.239.085.362C234.607,191.326,234.349,191.788,233.893,191.862Z" transform="translate(-218.724 -172.546)" fill="url(#l)"/><path d="M252.273,278.994l-6.081-1.162a2.19,2.19,0,0,1-1.019-.375,1.524,1.524,0,0,1-.471-1.362,4.474,4.474,0,0,1,.5-1.413,46.129,46.129,0,0,1,2.627-4.811,7.683,7.683,0,0,1,2.857.821,1.045,1.045,0,0,1,.386.36c.365.694-.633,1.708-.972,2.235a1.308,1.308,0,0,0-.253.576.95.95,0,0,0,.081.432c.329.808,1.5,1.279,2.221,1.694a7.48,7.48,0,0,0,3.093,1.039,18.274,18.274,0,0,1,2.548.153,3.65,3.65,0,0,1,2.392,1.866,2.21,2.21,0,0,1-1.706-.011,9.986,9.986,0,0,0-3.228-.26C254.543,278.835,252.606,279.648,252.273,278.994Z" transform="translate(-244.69 -241.958)" fill="#f1af8c"/><path d="M236.222,70.622a4.243,4.243,0,0,0-1.3-.584,1.608,1.608,0,0,0-1.429.319,2.974,2.974,0,0,1,2.123,1.12.207.207,0,0,0,.107.092.2.2,0,0,0,.112-.021c.192-.072,1.627.255,1.71.082C237.539,71.63,236.4,70.729,236.222,70.622Z" transform="translate(-220.498 -69.843)" fill="#00629b"/><path d="M236.222,70.622a4.243,4.243,0,0,0-1.3-.584,1.608,1.608,0,0,0-1.429.319,2.974,2.974,0,0,1,2.123,1.12.207.207,0,0,0,.107.092.2.2,0,0,0,.112-.021c.192-.072,1.627.255,1.71.082C237.539,71.63,236.4,70.729,236.222,70.622Z" transform="translate(-220.498 -69.843)" fill="url(#m)"/><ellipse cx="1.686" cy="2.077" rx="1.686" ry="2.077" transform="translate(17.142 7.213)" fill="#00629b"/><ellipse cx="1.559" cy="1.922" rx="1.559" ry="1.922" transform="translate(16.923 7.602)" fill="#00629b"/><ellipse cx="1.559" cy="1.922" rx="1.559" ry="1.922" transform="translate(16.923 7.602)" fill="url(#n)"/><path d="M227.637,96.19l-.39,7.138a2.873,2.873,0,0,1-2.843,2.72,4.345,4.345,0,0,1-4.671-3.252c-.487-1.419-.927-5.587,0-6.739S225.879,92.068,227.637,96.19Z" transform="translate(-208.606 -90.537)" fill="#f1af8c"/><path d="M216.858,78.716a3.56,3.56,0,0,1,3.268,1.752,2.055,2.055,0,0,1,.039,1.767.742.742,0,0,0-.108.561,1.47,1.47,0,0,1-.6,1.25,3.441,3.441,0,0,0-.665.467l.068-1.329a.278.278,0,0,0-.211-.33l-.846-.394s-.261.19-.293.205a1.063,1.063,0,0,1-.444.085,6.246,6.246,0,0,1-.991-.056,9.365,9.365,0,0,1-2.051-.619.933.933,0,0,0,.253.547l-2.156.417a5.859,5.859,0,0,0-.757,1.413,4.926,4.926,0,0,0-.292,1.223,4.42,4.42,0,0,0,.157,1.692,1.775,1.775,0,0,1-.38-.4,2.184,2.184,0,0,1-.639.3.278.278,0,0,1-.149.013c-.106-.029-.128-.154-.139-.254a11.378,11.378,0,0,0-1.058-2.507,3.771,3.771,0,0,1,.383-3.16,2.547,2.547,0,0,1,.671-.783c.993-.728,2.4-.394,3.536-.775.539-.18.972-.523,1.487-.75A5.343,5.343,0,0,1,216.858,78.716Z" transform="translate(-199.856 -77.349)" fill="#3f3d56"/><path d="M216.858,78.716a3.56,3.56,0,0,1,3.268,1.752,2.055,2.055,0,0,1,.039,1.767.742.742,0,0,0-.108.561,1.47,1.47,0,0,1-.6,1.25,3.441,3.441,0,0,0-.665.467l.068-1.329a.278.278,0,0,0-.211-.33l-.846-.394s-.261.19-.293.205a1.063,1.063,0,0,1-.444.085,6.246,6.246,0,0,1-.991-.056,9.365,9.365,0,0,1-2.051-.619.933.933,0,0,0,.253.547l-2.156.417a5.859,5.859,0,0,0-.757,1.413,4.926,4.926,0,0,0-.292,1.223,4.42,4.42,0,0,0,.157,1.692,1.775,1.775,0,0,1-.38-.4,2.184,2.184,0,0,1-.639.3.278.278,0,0,1-.149.013c-.106-.029-.128-.154-.139-.254a11.378,11.378,0,0,0-1.058-2.507,3.771,3.771,0,0,1,.383-3.16,2.547,2.547,0,0,1,.671-.783c.993-.728,2.4-.394,3.536-.775.539-.18.972-.523,1.487-.75A5.343,5.343,0,0,1,216.858,78.716Z" transform="translate(-199.856 -77.349)" fill="url(#o)"/><ellipse cx="1.667" cy="2.056" rx="1.667" ry="2.056" transform="translate(7.876 7.49)" fill="#00629b"/><ellipse cx="1.667" cy="2.056" rx="1.667" ry="2.056" transform="translate(7.876 7.49)" fill="url(#p)"/><ellipse cx="1.667" cy="2.056" rx="1.667" ry="2.056" transform="translate(7.238 7.49)" fill="#00629b"/><path d="M249.75,76.529l.833.089.2.021.833-4.1a4.766,4.766,0,0,1,2.821-3.352,1.5,1.5,0,0,1,.641-.076l.568.051-.278-.074-.555-.147a1.829,1.829,0,0,0-.533-.065,3.929,3.929,0,0,0-3.4,2.963Z" transform="translate(-240.857 -68.876)" fill="#00629b"/><path d="M249.75,76.529l.833.089.2.021.833-4.1a4.766,4.766,0,0,1,2.821-3.352,1.5,1.5,0,0,1,.641-.076l.568.051-.278-.074-.555-.147a1.829,1.829,0,0,0-.533-.065,3.929,3.929,0,0,0-3.4,2.963Z" transform="translate(-240.857 -68.876)" fill="url(#q)"/><path d="M251.75,76.529l.833.089.833-4.11a4.816,4.816,0,0,1,2.85-3.382,1.465,1.465,0,0,1,.648-.078l.453.04-.555-.147a1.828,1.828,0,0,0-.533-.065,3.929,3.929,0,0,0-3.4,2.963Z" transform="translate(-242.857 -68.876)" fill="#00629b"/><path d="M214.792,101.417a1.766,1.766,0,0,0-1.316-.862,5.241,5.241,0,0,0-1.624.075c.521.417,1.974,1.037,2,1.148a3.384,3.384,0,0,1,.007.591c-.019.286-.029.586-.028.872a2.222,2.222,0,0,1,.447-.339,1.111,1.111,0,0,0,.375-.24A1.154,1.154,0,0,0,214.792,101.417Z" transform="translate(-194.864 -96.124)" fill="url(#r)"/><path d="M251.868,152.128a6.47,6.47,0,0,0,1.847-.308.278.278,0,0,0-.16-.533c-1.43.43-2.506.373-3.193-.169a2.823,2.823,0,0,1-.875-2.148.278.278,0,1,0-.555-.028,3.368,3.368,0,0,0,1.087,2.614A2.9,2.9,0,0,0,251.868,152.128Z" transform="translate(-239.011 -137.598)" fill="#00629b"/><path d="M251.868,152.128a6.47,6.47,0,0,0,1.847-.308.278.278,0,0,0-.16-.533c-1.43.43-2.506.373-3.193-.169a2.823,2.823,0,0,1-.875-2.148.278.278,0,1,0-.555-.028,3.368,3.368,0,0,0,1.087,2.614A2.9,2.9,0,0,0,251.868,152.128Z" transform="translate(-239.011 -137.598)" fill="url(#s)"/><path d="M238.374,160.465a.736.736,0,0,0-.351.38.659.659,0,0,0,.311.616,1.162,1.162,0,0,0,.576.278,1.337,1.337,0,0,0,.875-.311,1.158,1.158,0,0,0,.364-.351.878.878,0,0,0-.48-1.152C239.214,159.729,238.731,160.23,238.374,160.465Z" transform="translate(-223.816 -147.245)" fill="#00629b"/><path d="M238.374,160.465a.736.736,0,0,0-.351.38.659.659,0,0,0,.311.616,1.162,1.162,0,0,0,.576.278,1.337,1.337,0,0,0,.875-.311,1.158,1.158,0,0,0,.364-.351.878.878,0,0,0-.48-1.152C239.214,159.729,238.731,160.23,238.374,160.465Z" transform="translate(-223.816 -147.245)" fill="url(#t)"/></g></g><path d="M10.556,0,6.594-10.444H3.962L.056,0h2.38l.9-2.548H7.238L8.162,0ZM5.278-8.064l1.316,3.64H3.962Zm10.3,8.3a4.115,4.115,0,0,0,4.382-4.354v-6.328h-2.3v6.328a2,2,0,0,1-2.086,2.268c-1.26,0-2.016-.826-2.016-2.254v-6.342H11.284v6.328A4.064,4.064,0,0,0,15.582.238ZM28.42.2A2.916,2.916,0,0,0,30.968-1.19L31.192,0h1.89V-7.756h-1.89l-.224,1.19A2.946,2.946,0,0,0,28.42-7.952c-1.75,0-3.444,1.624-3.444,4.1A3.763,3.763,0,0,0,28.42.2Zm.658-2.016A1.9,1.9,0,0,1,27.23-3.878a1.91,1.91,0,0,1,1.848-2.058,1.88,1.88,0,0,1,1.806,2.058A1.88,1.88,0,0,1,29.078-1.82ZM36.988,0h2.38L42.2-7.756H39.914l-1.666,5.4h-.042l-1.652-5.4H34.16ZM50.036-4c0-2.59-1.61-3.948-3.584-3.948a3.877,3.877,0,0,0-3.892,4.1C42.56-1.5,44.128.2,46.858.2a5.323,5.323,0,0,0,2.7-.7V-2.338a4.507,4.507,0,0,1-2.422.77A2.332,2.332,0,0,1,44.7-3.248H49.98A4.16,4.16,0,0,0,50.036-4ZM44.66-4.592a1.866,1.866,0,0,1,1.778-1.6,1.462,1.462,0,0,1,1.47,1.6ZM51.492,0h2.24V-3.794a1.732,1.732,0,0,1,1.834-1.96,2.523,2.523,0,0,1,.644.07v-2.1a2.393,2.393,0,0,0-.588-.056,2.374,2.374,0,0,0-2.1,1.246h-.028L53.27-7.756H51.492Zm8.722.2A2.916,2.916,0,0,0,62.762-1.19L62.986,0h1.89V-7.756h-1.89l-.224,1.19a2.946,2.946,0,0,0-2.548-1.386c-1.75,0-3.444,1.624-3.444,4.1A3.763,3.763,0,0,0,60.214.2Zm.658-2.016a1.9,1.9,0,0,1-1.848-2.058,1.91,1.91,0,0,1,1.848-2.058,1.88,1.88,0,0,1,1.806,2.058A1.88,1.88,0,0,1,60.872-1.82ZM69.79-7.938A3.7,3.7,0,0,0,66.318-4.06,3.654,3.654,0,0,0,69.762-.154a2.834,2.834,0,0,0,2.38-1.288v.714c0,1.134-.952,1.918-2.324,1.918A4.549,4.549,0,0,1,67.088.126V2.254a5.237,5.237,0,0,0,2.94.882c2.534,0,4.354-1.5,4.354-4.116V-7.756h-1.89l-.224,1.162A2.938,2.938,0,0,0,69.79-7.938Zm.588,1.974a1.814,1.814,0,0,1,1.792,1.9,1.83,1.83,0,0,1-1.792,1.932,1.829,1.829,0,0,1-1.806-1.918A1.846,1.846,0,0,1,70.378-5.964ZM83.3-4c0-2.59-1.61-3.948-3.584-3.948a3.877,3.877,0,0,0-3.892,4.1C75.824-1.5,77.392.2,80.122.2a5.323,5.323,0,0,0,2.7-.7V-2.338a4.507,4.507,0,0,1-2.422.77,2.332,2.332,0,0,1-2.436-1.68h5.278A4.16,4.16,0,0,0,83.3-4Zm-5.376-.588a1.866,1.866,0,0,1,1.778-1.6,1.462,1.462,0,0,1,1.47,1.6Z" transform="translate(80 511)"/><path d="M-36.91-2.14c0-1.33-1.05-1.72-2.04-2.06-.77-.27-1.45-.52-1.45-1.2,0-.59.52-1.05,1.37-1.05a2.914,2.914,0,0,1,1.68.55v-.99a3.649,3.649,0,0,0-1.44-.42v-.83h-.82v.86a1.933,1.933,0,0,0-1.73,1.86c0,1.27,1.02,1.66,2,2.01.78.28,1.48.53,1.48,1.24,0,.73-.68,1.21-1.54,1.21a2.722,2.722,0,0,1-1.96-.83V-.7a3.39,3.39,0,0,0,1.75.6V.72h.82V-.14A2.13,2.13,0,0,0-36.91-2.14ZM-34.2,0h.92V-7.47h-.09l-2.68,1.11v.97l1.85-.79Zm8.46-2.59h-1.28V-7.44h-.77l-3.74,5.11v.56h3.63V0h.88V-1.77h1.28Zm-4.69,0V-2.6l2.53-3.46v3.47Zm11.24,0h-1.28V-7.44h-.77l-3.74,5.11v.56h3.63V0h.88V-1.77h1.28Zm-4.69,0V-2.6l2.53-3.46v3.47Zm5.3,3.92h.69A6.675,6.675,0,0,0-17.29-1v-.41h-.87v.45A7.83,7.83,0,0,1-18.58,1.33ZM-16.16,0h4.94V-.88h-3.13c1.86-2.03,2.86-3.25,2.86-4.43a2.191,2.191,0,0,0-2.33-2.28,2.987,2.987,0,0,0-1.98.73v1.04a2.587,2.587,0,0,1,1.9-.89,1.412,1.412,0,0,1,1.47,1.45C-12.43-4.39-12.85-3.7-16.16,0Zm7.72,0h.92V-7.47h-.09l-2.68,1.11v.97l1.85-.79Zm5.52-4.77a2.565,2.565,0,0,0-.5.05l2.18-2.72H-2.35L-4.57-4.67A3.568,3.568,0,0,0-5.61-2.36,2.491,2.491,0,0,0-3.03.15,2.486,2.486,0,0,0-.45-2.39,2.441,2.441,0,0,0-2.92-4.77ZM-3.03-.7A1.664,1.664,0,0,1-4.7-2.36,2.217,2.217,0,0,1-4.14-3.8a2.22,2.22,0,0,1,.94-.21A1.692,1.692,0,0,1-1.37-2.34,1.645,1.645,0,0,1-3.03-.7Z" transform="translate(320 528)"/><path d="M3.31-7.44H2.29A6.352,6.352,0,0,0,.53-3.08,6.339,6.339,0,0,0,2.29,1.29H3.31a6.1,6.1,0,0,1-1.9-4.37A6.058,6.058,0,0,1,3.31-7.44ZM9.37-5.53a1.73,1.73,0,0,0-1.56.95,1.491,1.491,0,0,0-1.5-.95,1.615,1.615,0,0,0-1.45.92H4.83l-.1-.8H4.02V0h.92V-3.41A1.141,1.141,0,0,1,6.06-4.65c.72,0,1.03.41,1.03,1.19V0h.92V-3.46A1.124,1.124,0,0,1,9.14-4.65c.72,0,1.02.41,1.02,1.19V0h.92V-3.61C11.08-4.74,10.55-5.53,9.37-5.53ZM14.82.12A2.175,2.175,0,0,0,16.75-.99l.11.99h.75V-5.41h-.75l-.11,1a2.184,2.184,0,0,0-1.93-1.12A2.617,2.617,0,0,0,12.36-2.7,2.62,2.62,0,0,0,14.82.12Zm.19-.86A1.792,1.792,0,0,1,13.29-2.7a1.8,1.8,0,0,1,1.72-1.97,1.8,1.8,0,0,1,1.71,1.96A1.8,1.8,0,0,1,15.01-.74Zm4.3.74h.92V-8h-.92Zm7.22-2.81c0-1.78-1.05-2.72-2.33-2.72a2.656,2.656,0,0,0-2.61,2.85A2.6,2.6,0,0,0,24.33.12a3.152,3.152,0,0,0,1.89-.6v-.91a2.8,2.8,0,0,1-1.82.71A1.844,1.844,0,0,1,22.49-2.4H26.5A2.456,2.456,0,0,0,26.53-2.81Zm-4.04-.28a1.756,1.756,0,0,1,1.7-1.64,1.474,1.474,0,0,1,1.45,1.64Zm4.9,4.42h.69A6.675,6.675,0,0,0,28.68-1v-.41h-.87v.45A7.83,7.83,0,0,1,27.39,1.33ZM35.12.12A2.175,2.175,0,0,0,37.05-.99l.11.99h.75V-5.41h-.75l-.11,1a2.184,2.184,0,0,0-1.93-1.12A2.617,2.617,0,0,0,32.66-2.7,2.62,2.62,0,0,0,35.12.12Zm.19-.86A1.792,1.792,0,0,1,33.59-2.7a1.8,1.8,0,0,1,1.72-1.97,1.8,1.8,0,0,1,1.71,1.96A1.8,1.8,0,0,1,35.31-.74ZM41.7-5.52A2.589,2.589,0,0,0,39.24-2.8,2.567,2.567,0,0,0,41.7-.09a2.2,2.2,0,0,0,1.86-1.02v.82a1.671,1.671,0,0,1-1.78,1.65A2.952,2.952,0,0,1,39.8.56v.99a3.423,3.423,0,0,0,2.02.67A2.527,2.527,0,0,0,44.48-.44V-5.41h-.75l-.11.94A2.219,2.219,0,0,0,41.7-5.52Zm.18.85a1.736,1.736,0,0,1,1.71,1.84,1.778,1.778,0,0,1-1.71,1.9,1.76,1.76,0,0,1-1.71-1.86A1.766,1.766,0,0,1,41.88-4.67Zm8.88,1.86c0-1.78-1.05-2.72-2.33-2.72a2.656,2.656,0,0,0-2.61,2.85A2.6,2.6,0,0,0,48.56.12a3.152,3.152,0,0,0,1.89-.6v-.91a2.8,2.8,0,0,1-1.82.71A1.844,1.844,0,0,1,46.72-2.4h4.01A2.456,2.456,0,0,0,50.76-2.81Zm-4.04-.28a1.756,1.756,0,0,1,1.7-1.64,1.474,1.474,0,0,1,1.45,1.64Zm13.39.5H58.83V-7.44h-.77L54.32-2.33v.56h3.63V0h.88V-1.77h1.28Zm-4.69,0V-2.6l2.53-3.46v3.47Zm9.93-4.85H62.13l-.67,3.86.12.1a2.913,2.913,0,0,1,1.35-.35,1.593,1.593,0,0,1,1.8,1.57A1.538,1.538,0,0,1,63.02-.74a2.663,2.663,0,0,1-1.97-.89V-.55a3.061,3.061,0,0,0,1.98.7A2.421,2.421,0,0,0,65.68-2.3,2.33,2.33,0,0,0,63.2-4.62a2.6,2.6,0,0,0-.81.15l.41-2.1h2.55Zm1.62,4.65h2.59v-.8H66.97Zm9.47.2H75.16V-7.44h-.77L70.65-2.33v.56h3.63V0h.88V-1.77h1.28Zm-4.69,0V-2.6l2.53-3.46v3.47Zm8.11-5A2.5,2.5,0,0,0,77.3-5.06a2.415,2.415,0,0,0,2.45,2.38,3.046,3.046,0,0,0,.41-.03L77.97,0h1.12l2.27-2.82a3.546,3.546,0,0,0,1.03-2.29A2.431,2.431,0,0,0,79.86-7.59Zm1.03,3.96a2.417,2.417,0,0,1-.95.2A1.645,1.645,0,0,1,78.23-5.1a1.607,1.607,0,0,1,1.63-1.64,1.587,1.587,0,0,1,1.61,1.65A2.266,2.266,0,0,1,80.89-3.63Zm2.05-3.81a6.058,6.058,0,0,1,1.9,4.36,6.1,6.1,0,0,1-1.9,4.37h1.02a6.339,6.339,0,0,0,1.76-4.37,6.352,6.352,0,0,0-1.76-4.36Z" transform="translate(80 528)"/><path d="M3.864,0H6.132V-4.172l3.85-6.272H7.546L5.082-6.2H5.04L2.548-10.444H-.014L3.864-4.158ZM13.2.2a3.95,3.95,0,0,0,4.074-4.074A3.934,3.934,0,0,0,13.2-7.952,3.95,3.95,0,0,0,9.128-3.878,3.958,3.958,0,0,0,13.2.2Zm0-2.016A1.88,1.88,0,0,1,11.4-3.878,1.88,1.88,0,0,1,13.2-5.936a1.89,1.89,0,0,1,1.82,2.058A1.9,1.9,0,0,1,13.2-1.82ZM22.134.2A3.249,3.249,0,0,0,25.69-3.15V-7.756H23.45v4.592A1.2,1.2,0,0,1,22.134-1.82,1.175,1.175,0,0,1,20.86-3.15V-7.756H18.62V-3.15A3.222,3.222,0,0,0,22.134.2Zm5.32-.2h2.24V-3.794a1.732,1.732,0,0,1,1.834-1.96,2.523,2.523,0,0,1,.644.07v-2.1a2.393,2.393,0,0,0-.588-.056,2.374,2.374,0,0,0-2.1,1.246h-.028l-.224-1.162H27.454Zm11.3-11.242h-2.24V0h1.876l.224-1.19A2.92,2.92,0,0,0,41.132.2c1.806,0,3.486-1.6,3.486-4.074s-1.6-4.074-3.4-4.074a2.914,2.914,0,0,0-2.464,1.33Zm1.764,5.306A1.9,1.9,0,0,1,42.35-3.864,1.877,1.877,0,0,1,40.53-1.82a1.864,1.864,0,0,1-1.806-2.058A1.87,1.87,0,0,1,40.516-5.936ZM49.1.2A2.916,2.916,0,0,0,51.646-1.19L51.87,0h1.89V-7.756H51.87l-.224,1.19A2.946,2.946,0,0,0,49.1-7.952c-1.75,0-3.444,1.624-3.444,4.1A3.763,3.763,0,0,0,49.1.2Zm.658-2.016a1.9,1.9,0,0,1-1.848-2.058,1.91,1.91,0,0,1,1.848-2.058,1.88,1.88,0,0,1,1.806,2.058A1.88,1.88,0,0,1,49.756-1.82ZM55.636,0h2.24V-11.242h-2.24Zm7.14.2A2.916,2.916,0,0,0,65.324-1.19L65.548,0h1.89V-7.756h-1.89l-.224,1.19a2.946,2.946,0,0,0-2.548-1.386c-1.75,0-3.444,1.624-3.444,4.1A3.763,3.763,0,0,0,62.776.2Zm.658-2.016a1.9,1.9,0,0,1-1.848-2.058,1.91,1.91,0,0,1,1.848-2.058A1.88,1.88,0,0,1,65.24-3.878,1.88,1.88,0,0,1,63.434-1.82ZM73.64-7.952A2.728,2.728,0,0,0,71.3-6.664H71.26l-.224-1.092H69.3V0h2.24V-4.592a1.283,1.283,0,0,1,1.344-1.33c.812,0,1.232.434,1.232,1.386V0h2.24V-5.18A2.531,2.531,0,0,0,73.64-7.952ZM80-3.878a2.029,2.029,0,0,1,2.142-2.058,3.4,3.4,0,0,1,1.946.588V-7.406A4.547,4.547,0,0,0,81.8-7.952a3.971,3.971,0,0,0-4.074,4.06A3.97,3.97,0,0,0,81.8.2a5.03,5.03,0,0,0,2.282-.532V-2.394a3.224,3.224,0,0,1-1.946.574A2.021,2.021,0,0,1,80-3.878ZM92.638-4c0-2.59-1.61-3.948-3.584-3.948a3.877,3.877,0,0,0-3.892,4.1C85.162-1.5,86.73.2,89.46.2a5.323,5.323,0,0,0,2.7-.7V-2.338a4.507,4.507,0,0,1-2.422.77A2.332,2.332,0,0,1,87.3-3.248h5.278A4.16,4.16,0,0,0,92.638-4Zm-5.376-.588a1.866,1.866,0,0,1,1.778-1.6,1.462,1.462,0,0,1,1.47,1.6Z" transform="translate(80 479)"/><path d="M4,0H120a4,4,0,0,1,0,8H4A4,4,0,0,1,4,0Z" transform="translate(196 471)" fill="#fff"/><path d="M4,0H120a4,4,0,0,1,0,8H4A4,4,0,0,1,4,0Z" transform="translate(196 503)" fill="#ffa300"/><path d="M-6592,10a5.006,5.006,0,0,1-5-5,5.006,5.006,0,0,1,5-5,5,5,0,0,1,5,5A5,5,0,0,1-6592,10Zm0-6.071a.716.716,0,0,0-.713.717V7.5a.707.707,0,0,0,.713.717.716.716,0,0,0,.714-.717V4.645A.708.708,0,0,0-6592,3.929Zm0-2.143a.715.715,0,0,0-.713.714.715.715,0,0,0,.713.714.714.714,0,0,0,.714-.714A.714.714,0,0,0-6592,1.786Z" transform="translate(6766.501 501)" fill="#5b6770" opacity="0.5"/><path d="M4,0H86a4,4,0,0,1,0,8H4A4,4,0,0,1,4,0Z" transform="translate(196 471)" fill="#00629b"/></g></svg>