<svg xmlns="http://www.w3.org/2000/svg" xmlns:xlink="http://www.w3.org/1999/xlink" width="375" height="628" viewBox="0 0 375 628"><defs><linearGradient id="a" x1="0.581" y1="1.071" x2="0.387" y2="-0.139" gradientUnits="objectBoundingBox"><stop offset="0" stop-color="#e1e2e8"/><stop offset="1" stop-color="#f8f8fc"/></linearGradient><linearGradient id="b" x1="0.208" x2="0.683" y2="1" gradientUnits="objectBoundingBox"><stop offset="0" stop-color="#ffc400"/><stop offset="1" stop-color="#ffa300"/></linearGradient><clipPath id="d"><rect width="375" height="628"/></clipPath></defs><g id="c" clip-path="url(#d)"><rect width="375" height="628" fill="#fff"/><path d="M2.23,0h.92V-7.47H3.06L.38-6.36v.97l1.85-.79ZM4.9,1.33h.89L9.14-8.76h-.9ZM10.07,0h.99l3.89-7.44H10.01v.87h3.52Zm4.62,1.33h.89L18.93-8.76h-.9ZM19.65,0h4.94V-.88H21.46c1.86-2.03,2.86-3.25,2.86-4.43a2.191,2.191,0,0,0-2.33-2.28,2.987,2.987,0,0,0-1.98.73v1.04a2.587,2.587,0,0,1,1.9-.89,1.412,1.412,0,0,1,1.47,1.45C23.38-4.39,22.96-3.7,19.65,0Zm8.9-7.59c-1.54,0-2.78,1.46-2.78,3.88S27.01.15,28.55.15s2.79-1.45,2.79-3.86S30.09-7.59,28.55-7.59Zm0,.88c1.02,0,1.86,1.1,1.86,3S29.57-.73,28.55-.73s-1.84-1.08-1.84-2.98S27.52-6.71,28.55-6.71ZM34.19,0h.92V-7.47h-.09L32.34-6.36v.97l1.85-.79Zm5.33-7.59a2.5,2.5,0,0,0-2.56,2.53,2.415,2.415,0,0,0,2.45,2.38,3.046,3.046,0,0,0,.41-.03L37.63,0h1.12l2.27-2.82a3.546,3.546,0,0,0,1.03-2.29A2.431,2.431,0,0,0,39.52-7.59Zm1.03,3.96a2.417,2.417,0,0,1-.95.2A1.645,1.645,0,0,1,37.89-5.1a1.607,1.607,0,0,1,1.63-1.64,1.587,1.587,0,0,1,1.61,1.65A2.266,2.266,0,0,1,40.55-3.63Zm5.46.84H48.6v-.8H46.01Zm6.87-4.13v.99a2.3,2.3,0,0,1,1.73-.79,1.272,1.272,0,0,1,1.43,1.24c0,.75-.56,1.28-1.69,1.28h-.72v.79h.93c1.08,0,1.72.55,1.72,1.33S55.65-.73,54.64-.73a2.543,2.543,0,0,1-1.96-.91V-.6a2.958,2.958,0,0,0,2.04.73A2.231,2.231,0,0,0,57.21-2a1.928,1.928,0,0,0-1.36-1.87v-.02A1.811,1.811,0,0,0,56.96-5.6a2.067,2.067,0,0,0-2.25-1.99A2.67,2.67,0,0,0,52.88-6.92Zm8.36-.67c-1.54,0-2.78,1.46-2.78,3.88S59.7.15,61.24.15s2.79-1.45,2.79-3.86S62.78-7.59,61.24-7.59Zm0,.88c1.02,0,1.86,1.1,1.86,3S62.26-.73,61.24-.73,59.4-1.81,59.4-3.71,60.21-6.71,61.24-6.71Zm3.54,8.04h.89L69.02-8.76h-.9Zm7.31-6.1a2.565,2.565,0,0,0-.5.05l2.18-2.72H72.66L70.44-4.67A3.568,3.568,0,0,0,69.4-2.36,2.491,2.491,0,0,0,71.98.15a2.486,2.486,0,0,0,2.58-2.54A2.441,2.441,0,0,0,72.09-4.77ZM71.98-.7a1.664,1.664,0,0,1-1.67-1.66,2.217,2.217,0,0,1,.56-1.44,2.22,2.22,0,0,1,.94-.21,1.692,1.692,0,0,1,1.83,1.67A1.645,1.645,0,0,1,71.98-.7Zm3.35,2.03h.89L79.57-8.76h-.9ZM80.29,0h4.94V-.88H82.1c1.86-2.03,2.86-3.25,2.86-4.43a2.191,2.191,0,0,0-2.33-2.28,2.987,2.987,0,0,0-1.98.73v1.04a2.587,2.587,0,0,1,1.9-.89,1.411,1.411,0,0,1,1.47,1.45C84.02-4.39,83.6-3.7,80.29,0Zm8.9-7.59c-1.54,0-2.78,1.46-2.78,3.88S87.65.15,89.19.15s2.79-1.45,2.79-3.86S90.73-7.59,89.19-7.59Zm0,.88c1.02,0,1.86,1.1,1.86,3S90.21-.73,89.19-.73s-1.84-1.08-1.84-2.98S88.16-6.71,89.19-6.71ZM92.97,0h4.94V-.88H94.78c1.86-2.03,2.86-3.25,2.86-4.43a2.191,2.191,0,0,0-2.33-2.28,2.987,2.987,0,0,0-1.98.73v1.04a2.587,2.587,0,0,1,1.9-.89A1.411,1.411,0,0,1,96.7-5.26C96.7-4.39,96.28-3.7,92.97,0Zm8.9-7.59c-1.54,0-2.78,1.46-2.78,3.88S100.33.15,101.87.15s2.79-1.45,2.79-3.86S103.41-7.59,101.87-7.59Zm0,.88c1.02,0,1.86,1.1,1.86,3s-.84,2.98-1.86,2.98-1.84-1.08-1.84-2.98S100.84-6.71,101.87-6.71Z" transform="translate(32 71)"/><path d="M12.62-.68V-4.46A6.187,6.187,0,0,1,8.9-3.12,4.263,4.263,0,0,1,4.5-7.46a4.235,4.235,0,0,1,4.4-4.32,6.163,6.163,0,0,1,3.72,1.24v-3.72a8.98,8.98,0,0,0-4.16-1.02A7.612,7.612,0,0,0,.68-7.46,7.607,7.607,0,0,0,8.46.34,8.98,8.98,0,0,0,12.62-.68ZM23.82.36a7.594,7.594,0,0,0,7.8-7.82,7.583,7.583,0,0,0-7.8-7.82A7.611,7.611,0,0,0,16-7.46,7.611,7.611,0,0,0,23.82.36Zm0-3.46a4.056,4.056,0,0,1-4-4.36,4.074,4.074,0,0,1,4-4.38A4.082,4.082,0,0,1,27.8-7.46,4.064,4.064,0,0,1,23.82-3.1ZM49.04-14.92H45.42v8.74H45.4l-6-8.74H35.76V0h3.62V-8.9h.02L45.44,0h3.6ZM57.14,0h3.78V-11.5h4.24v-3.42H52.88v3.42h4.26ZM76.66-5.38A4.66,4.66,0,0,0,80.1-9.9c0-3.32-2.42-5.02-6.08-5.02H69V0h3.8V-4.94h.12L76.34,0h4.5ZM72.8-7.82V-11.5h1.16c1.38,0,2.32.64,2.32,1.84,0,1.18-.9,1.84-2.34,1.84ZM84.56,0h3.8V-14.92h-3.8Zm8.72,0h6.24c3.68,0,5.4-1.96,5.4-4.2a3.454,3.454,0,0,0-2.56-3.44v-.02a3.344,3.344,0,0,0,2.18-3.22c0-2.24-1.8-4.04-5.28-4.04H93.28Zm3.76-8.86v-2.9h2.1c1.22,0,1.84.64,1.84,1.44s-.62,1.46-1.88,1.46Zm0,5.68V-6.26h2.2c1.24,0,1.98.62,1.98,1.54,0,.88-.68,1.54-2.02,1.54ZM115.28.36a6.021,6.021,0,0,0,6.44-6.34v-8.94h-3.8V-6c0,1.88-1,2.9-2.64,2.9-1.6,0-2.56-1.02-2.56-2.88v-8.94h-3.8v8.94A5.978,5.978,0,0,0,115.28.36ZM129.66,0h3.78V-11.5h4.24v-3.42H125.4v3.42h4.26Zm11.86,0h3.8V-14.92h-3.8Zm15.76.36a7.594,7.594,0,0,0,7.8-7.82,7.583,7.583,0,0,0-7.8-7.82,7.611,7.611,0,0,0-7.82,7.82A7.611,7.611,0,0,0,157.28.36Zm0-3.46a4.056,4.056,0,0,1-4-4.36,4.074,4.074,0,0,1,4-4.38,4.082,4.082,0,0,1,3.98,4.38A4.064,4.064,0,0,1,157.28-3.1ZM182.5-14.92h-3.62v8.74h-.02l-6-8.74h-3.64V0h3.62V-8.9h.02L178.9,0h3.6Zm9.94-.32c-3.44,0-5.5,1.98-5.5,4.6,0,2.78,2.36,3.78,4.1,4.44,1.42.56,2.46.96,2.46,1.84,0,.8-.82,1.38-2.22,1.38a6.919,6.919,0,0,1-4.26-1.6V-1A8.468,8.468,0,0,0,191.68.32c3.52,0,5.68-1.98,5.68-4.8,0-3-2.5-3.96-4.56-4.72-1.38-.54-2.12-.86-2.12-1.56,0-.72.76-1.18,2.02-1.18a7.094,7.094,0,0,1,3.76,1.12v-3.4A8.182,8.182,0,0,0,192.44-15.24Z" transform="translate(32 49)"/><path d="M-714,270l6,6,6-6" transform="translate(895.5 332)" fill="none" stroke="#c1c6c8" stroke-width="2"/><path d="M7.536-.42V-2.388A3.763,3.763,0,0,1,5.28-1.6a2.8,2.8,0,0,1-2.832-2.88A2.778,2.778,0,0,1,5.28-7.344,3.8,3.8,0,0,1,7.536-6.6V-8.544a5.119,5.119,0,0,0-2.46-.612A4.536,4.536,0,0,0,.468-4.476,4.536,4.536,0,0,0,5.076.2,5.019,5.019,0,0,0,7.536-.42Zm4.392.588A3.386,3.386,0,0,0,15.42-3.324a3.372,3.372,0,0,0-3.492-3.492A3.386,3.386,0,0,0,8.436-3.324,3.393,3.393,0,0,0,11.928.168Zm0-1.728A1.612,1.612,0,0,1,10.38-3.324a1.612,1.612,0,0,1,1.548-1.764,1.62,1.62,0,0,1,1.56,1.764A1.628,1.628,0,0,1,11.928-1.56Zm8.448-5.256a2.338,2.338,0,0,0-2,1.1h-.036l-.192-.936H16.656V0h1.92V-3.936a1.1,1.1,0,0,1,1.152-1.14c.7,0,1.056.372,1.056,1.188V0H22.7V-4.44A2.17,2.17,0,0,0,20.376-6.816Zm6.108-1.368H24.636v1.536h-.948v1.584h.936v2.508a2.472,2.472,0,0,0,2.712,2.7A4.557,4.557,0,0,0,28.38.036V-1.572a3.756,3.756,0,0,1-.6.06c-.744,0-1.3-.324-1.3-1.164V-5.064H28.26V-6.648H26.484ZM29.508,0h1.92V-3.252A1.485,1.485,0,0,1,33-4.932a2.162,2.162,0,0,1,.552.06v-1.8a2.051,2.051,0,0,0-.5-.048,2.035,2.035,0,0,0-1.8,1.068h-.024l-.192-1H29.508ZM35.52-7.56A1.037,1.037,0,0,0,36.564-8.6,1.035,1.035,0,0,0,35.52-9.636,1.03,1.03,0,0,0,34.464-8.6,1.033,1.033,0,0,0,35.52-7.56ZM34.56,0h1.92V-6.648H34.56Zm5.448-9.636h-1.92V0H39.7l.192-1.02A2.5,2.5,0,0,0,42.048.168a3.214,3.214,0,0,0,2.988-3.492c0-2.124-1.368-3.492-2.916-3.492a2.5,2.5,0,0,0-2.112,1.14ZM41.52-5.088a1.632,1.632,0,0,1,1.572,1.776,1.609,1.609,0,0,1-1.56,1.752,1.6,1.6,0,0,1-1.548-1.764A1.6,1.6,0,0,1,41.52-5.088ZM49.212.168A2.785,2.785,0,0,0,52.26-2.7V-6.648H50.34v3.936A1.031,1.031,0,0,1,49.212-1.56,1.007,1.007,0,0,1,48.12-2.7V-6.648H46.2V-2.7A2.761,2.761,0,0,0,49.212.168Zm6.816-8.352H54.18v1.536h-.948v1.584h.936v2.508A2.472,2.472,0,0,0,56.88.144,4.557,4.557,0,0,0,57.924.036V-1.572a3.756,3.756,0,0,1-.6.06c-.744,0-1.3-.324-1.3-1.164V-5.064H57.8V-6.648H56.028Zm4,.624A1.037,1.037,0,0,0,61.068-8.6a1.035,1.035,0,0,0-1.044-1.032A1.03,1.03,0,0,0,58.968-8.6,1.033,1.033,0,0,0,60.024-7.56ZM59.064,0h1.92V-6.648h-1.92Zm6.648.168A3.386,3.386,0,0,0,69.2-3.324a3.372,3.372,0,0,0-3.492-3.492A3.386,3.386,0,0,0,62.22-3.324,3.393,3.393,0,0,0,65.712.168Zm0-1.728a1.612,1.612,0,0,1-1.548-1.764,1.612,1.612,0,0,1,1.548-1.764,1.62,1.62,0,0,1,1.56,1.764A1.628,1.628,0,0,1,65.712-1.56ZM74.16-6.816a2.338,2.338,0,0,0-2,1.1H72.12l-.192-.936H70.44V0h1.92V-3.936a1.1,1.1,0,0,1,1.152-1.14c.7,0,1.056.372,1.056,1.188V0h1.92V-4.44A2.17,2.17,0,0,0,74.16-6.816Zm6.348,0c-1.716,0-2.712.9-2.712,2.124s.984,1.644,2.04,1.944c.864.24,1.344.372,1.344.78,0,.36-.384.576-1.056.576a3.578,3.578,0,0,1-2.292-.828V-.456a4.378,4.378,0,0,0,2.376.624c1.8,0,2.832-.84,2.832-2.148,0-1.4-1.164-1.776-2.256-2.04-.756-.2-1.14-.348-1.14-.708,0-.324.336-.528.936-.528a3.855,3.855,0,0,1,2.028.588V-6.3A4.183,4.183,0,0,0,80.508-6.816Zm8.676-2.82h-1.92V0h1.608l.192-1.02A2.5,2.5,0,0,0,91.224.168a3.214,3.214,0,0,0,2.988-3.492c0-2.124-1.368-3.492-2.916-3.492a2.5,2.5,0,0,0-2.112,1.14ZM90.7-5.088a1.632,1.632,0,0,1,1.572,1.776,1.609,1.609,0,0,1-1.56,1.752A1.6,1.6,0,0,1,89.16-3.324,1.6,1.6,0,0,1,90.7-5.088Zm10.776-1.56H99.5l-1.428,4.38h-.048L96.6-6.648H94.548L97.056-.18l-1.128,2.7h1.908Z" transform="translate(32 133)"/><path d="M1.224,0h4.9V-1.032H2.34V-4.056h3.5V-5.04H2.34V-7.884H6.12V-8.928h-4.9Zm13.14-6.636A2.076,2.076,0,0,0,12.492-5.5a1.79,1.79,0,0,0-1.8-1.14,1.938,1.938,0,0,0-1.74,1.1H8.916l-.12-.96H7.944V0h1.1V-4.092A1.369,1.369,0,0,1,10.392-5.58c.864,0,1.236.492,1.236,1.428V0h1.1V-4.152A1.348,1.348,0,0,1,14.088-5.58c.864,0,1.224.492,1.224,1.428V0h1.1V-4.332C16.416-5.688,15.78-6.636,14.364-6.636ZM18.372,2.52h1.1V-1.128A2.584,2.584,0,0,0,21.72.144a3.118,3.118,0,0,0,2.94-3.4,3.129,3.129,0,0,0-2.952-3.384,2.616,2.616,0,0,0-2.3,1.344l-.132-1.2h-.9Zm3.12-3.408a2.148,2.148,0,0,1-2.04-2.352A2.152,2.152,0,0,1,21.492-5.6a2.151,2.151,0,0,1,2.064,2.352A2.148,2.148,0,0,1,21.492-.888ZM26.3,0h1.1V-9.6H26.3Zm5.964.144A3.22,3.22,0,0,0,35.484-3.24a3.224,3.224,0,0,0-3.216-3.4,3.236,3.236,0,0,0-3.24,3.4A3.225,3.225,0,0,0,32.268.144Zm0-1.032A2.174,2.174,0,0,1,30.144-3.24,2.185,2.185,0,0,1,32.268-5.6,2.183,2.183,0,0,1,34.38-3.24,2.179,2.179,0,0,1,32.268-.888Zm9.816-5.6H40.932L39.144-1.548H39.12L37.332-6.492h-1.2L38.556-.228,37.44,2.52h1.128Zm6.576,3.12c0-2.136-1.26-3.264-2.8-3.264a3.188,3.188,0,0,0-3.132,3.42A3.125,3.125,0,0,0,46.02.144a3.782,3.782,0,0,0,2.268-.72V-1.668A3.354,3.354,0,0,1,46.1-.816,2.213,2.213,0,0,1,43.812-2.88h4.812A2.947,2.947,0,0,0,48.66-3.372Zm-4.848-.336a2.108,2.108,0,0,1,2.04-1.968,1.769,1.769,0,0,1,1.74,1.968ZM50.244,0h1.1V-3.7a1.682,1.682,0,0,1,1.74-1.824,2.793,2.793,0,0,1,.456.048V-6.528a2.325,2.325,0,0,0-.432-.036,2.1,2.1,0,0,0-1.86,1.1H51.24l-.12-1.032h-.876Z" transform="translate(32 230)"/><path d="M3.372,0H4.464V-3.78L7.728-8.928H6.492L3.936-4.8H3.924L1.344-8.928H.084l3.288,5.16Zm7.236.144A3.22,3.22,0,0,0,13.824-3.24a3.224,3.224,0,0,0-3.216-3.4,3.236,3.236,0,0,0-3.24,3.4A3.225,3.225,0,0,0,10.608.144Zm0-1.032A2.174,2.174,0,0,1,8.484-3.24,2.185,2.185,0,0,1,10.608-5.6,2.183,2.183,0,0,1,12.72-3.24,2.179,2.179,0,0,1,10.608-.888ZM17.988.144A2.5,2.5,0,0,0,20.676-2.5v-4h-1.1v4.02A1.463,1.463,0,0,1,17.988-.888a1.438,1.438,0,0,1-1.536-1.584v-4.02h-1.1v4A2.469,2.469,0,0,0,17.988.144ZM22.608,0h1.1V-3.7a1.682,1.682,0,0,1,1.74-1.824,2.793,2.793,0,0,1,.456.048V-6.528a2.325,2.325,0,0,0-.432-.036,2.1,2.1,0,0,0-1.86,1.1H23.6l-.12-1.032h-.876ZM29.1-6.636c-1.44,0-2.34.816-2.34,1.908,0,1.14.948,1.488,2.016,1.812.936.288,1.548.492,1.548,1.116,0,.576-.5.96-1.38.96a3.081,3.081,0,0,1-2.208-.924V-.576a3.588,3.588,0,0,0,2.244.72c1.5,0,2.424-.768,2.424-1.956,0-1.308-1.128-1.632-2.124-1.92-.876-.252-1.44-.468-1.44-1.044,0-.528.456-.876,1.272-.876a3.066,3.066,0,0,1,1.944.672V-6.072A3.4,3.4,0,0,0,29.1-6.636Zm9.4,3.264c0-2.136-1.26-3.264-2.8-3.264a3.188,3.188,0,0,0-3.132,3.42A3.125,3.125,0,0,0,35.856.144a3.782,3.782,0,0,0,2.268-.72V-1.668a3.354,3.354,0,0,1-2.184.852A2.213,2.213,0,0,1,33.648-2.88H38.46A2.947,2.947,0,0,0,38.5-3.372Zm-4.848-.336a2.108,2.108,0,0,1,2.04-1.968,1.769,1.769,0,0,1,1.74,1.968ZM40.1,0h1.1V-9.6H40.1ZM43.6,0h1.1V-5.532h1.86v-.96H44.688V-7.32c0-.912.444-1.308,1.248-1.308a2.787,2.787,0,0,1,.948.168V-9.48a3.574,3.574,0,0,0-1.08-.18,2.1,2.1,0,0,0-2.208,2.2v.972H42.66v.96H43.6Z" transform="translate(152 230)"/><path d="M5.088.18A4.426,4.426,0,0,0,9.516-4.464,4.44,4.44,0,0,0,5.088-9.108,4.442,4.442,0,0,0,.648-4.464,4.421,4.421,0,0,0,5.088.18Zm0-1.056a3.35,3.35,0,0,1-3.3-3.588,3.344,3.344,0,0,1,3.3-3.588A3.348,3.348,0,0,1,8.376-4.464,3.348,3.348,0,0,1,5.088-.876Zm7.44-7.14H11.472v1.524h-1v.96h.972v3.264A2.148,2.148,0,0,0,13.764.084a4.067,4.067,0,0,0,.768-.072v-.96a3.357,3.357,0,0,1-.576.06,1.289,1.289,0,0,1-1.428-1.428V-5.532h1.86v-.96h-1.86ZM16.956-9.6h-1.1V0h1.1V-4.02A1.5,1.5,0,0,1,18.576-5.6c1,0,1.488.552,1.488,1.692V0h1.1V-4.3a2.14,2.14,0,0,0-2.34-2.34,2.234,2.234,0,0,0-1.86.924h-.012ZM28.644-3.372c0-2.136-1.26-3.264-2.8-3.264a3.188,3.188,0,0,0-3.132,3.42A3.125,3.125,0,0,0,26,.144a3.782,3.782,0,0,0,2.268-.72V-1.668a3.354,3.354,0,0,1-2.184.852A2.213,2.213,0,0,1,23.8-2.88h4.812A2.947,2.947,0,0,0,28.644-3.372ZM23.8-3.708a2.108,2.108,0,0,1,2.04-1.968,1.769,1.769,0,0,1,1.74,1.968ZM30.228,0h1.1V-3.7a1.682,1.682,0,0,1,1.74-1.824,2.793,2.793,0,0,1,.456.048V-6.528a2.325,2.325,0,0,0-.432-.036,2.1,2.1,0,0,0-1.86,1.1h-.012L31.1-6.492h-.876ZM36.72-6.636c-1.44,0-2.34.816-2.34,1.908,0,1.14.948,1.488,2.016,1.812.936.288,1.548.492,1.548,1.116,0,.576-.5.96-1.38.96a3.081,3.081,0,0,1-2.208-.924V-.576A3.588,3.588,0,0,0,36.6.144c1.5,0,2.424-.768,2.424-1.956,0-1.308-1.128-1.632-2.124-1.92-.876-.252-1.44-.468-1.44-1.044,0-.528.456-.876,1.272-.876a3.066,3.066,0,0,1,1.944.672V-6.072A3.4,3.4,0,0,0,36.72-6.636Z" transform="translate(272 230)"/><path d="M10.78-4.48c0-2.74-2.06-3.66-4.1-4.36-1.28-.44-2.3-.86-2.3-1.76,0-.76.76-1.38,2.04-1.38a6.208,6.208,0,0,1,3.5,1.18v-3.14a7.951,7.951,0,0,0-2.8-.86v-1.48H4.52v1.64A4.21,4.21,0,0,0,1.1-10.6c0,2.64,1.98,3.56,4,4.26,1.38.46,2.38.9,2.38,1.88s-.96,1.6-2.36,1.6A5.784,5.784,0,0,1,1.14-4.54v3.36A8.089,8.089,0,0,0,4.52-.04V1.44h2.6V-.18A4.486,4.486,0,0,0,10.78-4.48ZM12.52,0h3.42l7.64-14.92H12.54v2.94h6.3Zm9.9,2.68H24.7a13.694,13.694,0,0,0,1.38-5.24v-.86H23.22v1.1A17.576,17.576,0,0,1,22.42,2.68ZM27.84,0H38.76V-2.92H33.7c2.72-2.94,4.44-5.12,4.44-7.32,0-2.94-2.1-5.02-5.32-5.02a6.558,6.558,0,0,0-4.14,1.42v3.26a4.909,4.909,0,0,1,3.56-1.68A2.363,2.363,0,0,1,34.78-9.9C34.78-8.4,34.2-7.38,27.84,0ZM43.7,0h3.2V-15.06h-.24L40.4-12.62V-9.4l3.3-1.34ZM62.22-5.84H59.84v-9.08H57.02L49.76-5.08V-3.2h7.06V0h3.02V-3.2h2.38Zm-9.12,0v-.02l3.72-5.1v5.12Z" transform="translate(32 205)"/><path d="M10.78-4.48c0-2.74-2.06-3.66-4.1-4.36-1.28-.44-2.3-.86-2.3-1.76,0-.76.76-1.38,2.04-1.38a6.208,6.208,0,0,1,3.5,1.18v-3.14a7.951,7.951,0,0,0-2.8-.86v-1.48H4.52v1.64A4.21,4.21,0,0,0,1.1-10.6c0,2.64,1.98,3.56,4,4.26,1.38.46,2.38.9,2.38,1.88s-.96,1.6-2.36,1.6A5.784,5.784,0,0,1,1.14-4.54v3.36A8.089,8.089,0,0,0,4.52-.04V1.44h2.6V-.18A4.486,4.486,0,0,0,10.78-4.48ZM15.6,0h3.2V-15.06h-.24L12.3-12.62V-9.4l3.3-1.34Zm5.9,2.68h2.28a13.694,13.694,0,0,0,1.38-5.24v-.86H22.3v1.1A17.576,17.576,0,0,1,21.5,2.68ZM26.92,0H37.84V-2.92H32.78c2.72-2.94,4.44-5.12,4.44-7.32,0-2.94-2.1-5.02-5.32-5.02a6.558,6.558,0,0,0-4.14,1.42v3.26a4.909,4.909,0,0,1,3.56-1.68A2.363,2.363,0,0,1,33.86-9.9C33.86-8.4,33.28-7.38,26.92,0ZM45.9-15.26c-3.4,0-6.1,3-6.1,7.82,0,4.78,2.7,7.78,6.1,7.78,3.38,0,6.12-3,6.12-7.78C52.02-12.26,49.28-15.26,45.9-15.26Zm0,3c1.6,0,2.94,1.76,2.94,4.82,0,3.02-1.34,4.78-2.94,4.78s-2.86-1.76-2.86-4.78C43.04-10.5,44.3-12.26,45.9-12.26Zm14.26-3c-3.4,0-6.1,3-6.1,7.82,0,4.78,2.7,7.78,6.1,7.78,3.38,0,6.12-3,6.12-7.78C66.28-12.26,63.54-15.26,60.16-15.26Zm0,3c1.6,0,2.94,1.76,2.94,4.82,0,3.02-1.34,4.78-2.94,4.78S57.3-4.42,57.3-7.44C57.3-10.5,58.56-12.26,60.16-12.26Z" transform="translate(152 205)"/><path d="M10.78-4.48c0-2.74-2.06-3.66-4.1-4.36-1.28-.44-2.3-.86-2.3-1.76,0-.76.76-1.38,2.04-1.38a6.208,6.208,0,0,1,3.5,1.18v-3.14a7.951,7.951,0,0,0-2.8-.86v-1.48H4.52v1.64A4.21,4.21,0,0,0,1.1-10.6c0,2.64,1.98,3.56,4,4.26,1.38.46,2.38.9,2.38,1.88s-.96,1.6-2.36,1.6A5.784,5.784,0,0,1,1.14-4.54v3.36A8.089,8.089,0,0,0,4.52-.04V1.44h2.6V-.18A4.486,4.486,0,0,0,10.78-4.48ZM12.12,0H23.04V-2.92H17.98c2.72-2.94,4.44-5.12,4.44-7.32,0-2.94-2.1-5.02-5.32-5.02a6.558,6.558,0,0,0-4.14,1.42v3.26a4.909,4.909,0,0,1,3.56-1.68A2.363,2.363,0,0,1,19.06-9.9C19.06-8.4,18.48-7.38,12.12,0ZM31.1-15.26c-3.4,0-6.1,3-6.1,7.82C25-2.66,27.7.34,31.1.34c3.38,0,6.12-3,6.12-7.78C37.22-12.26,34.48-15.26,31.1-15.26Zm0,3c1.6,0,2.94,1.76,2.94,4.82,0,3.02-1.34,4.78-2.94,4.78s-2.86-1.76-2.86-4.78C28.24-10.5,29.5-12.26,31.1-12.26Zm14.26-3c-3.4,0-6.1,3-6.1,7.82,0,4.78,2.7,7.78,6.1,7.78,3.38,0,6.12-3,6.12-7.78C51.48-12.26,48.74-15.26,45.36-15.26Zm0,3c1.6,0,2.94,1.76,2.94,4.82,0,3.02-1.34,4.78-2.94,4.78S42.5-4.42,42.5-7.44C42.5-10.5,43.76-12.26,45.36-12.26Z" transform="translate(272 205)"/><path d="M6,0A6,6,0,1,1,0,6,6,6,0,0,1,6,0Z" transform="translate(32 160)" fill="#00629b"/><path d="M6,0A6,6,0,1,1,0,6,6,6,0,0,1,6,0Z" transform="translate(152 160)" fill="#00a7b5"/><path d="M6,0A6,6,0,1,1,0,6,6,6,0,0,1,6,0Z" transform="translate(272 160)" fill="#66b0db"/><rect width="375" height="184" transform="translate(0 256)" opacity="0.6" fill="url(#a)"/><g transform="translate(-8 104)"><text transform="translate(40 299)" font-size="10" font-family="HeroNew-Regular, Hero New"><tspan x="0" y="0">Jul</tspan></text><text transform="translate(40 312)" font-size="10" font-family="HeroNew-Regular, Hero New"><tspan x="0" y="0">2019</tspan></text></g><g transform="translate(1 104)"><text transform="translate(197 299)" font-size="10" font-family="HeroNew-Regular, Hero New"><tspan x="0" y="0">Jan</tspan></text><text transform="translate(197 312)" font-size="10" font-family="HeroNew-Regular, Hero New"><tspan x="0" y="0">2020</tspan></text></g><g transform="translate(0 -16)"><rect width="8" height="72" rx="4" transform="translate(32 328)" fill="#00629b"/><rect width="8" height="72" rx="4" transform="translate(198 328)" fill="#00629b"/><rect width="8" height="72" rx="4" transform="translate(87 328)" fill="#00629b"/><rect width="8" height="80" rx="4" transform="translate(253 320)" fill="#00629b"/><rect width="8" height="72" rx="4" transform="translate(115 328)" fill="#00629b"/><rect width="8" height="72" rx="4" transform="translate(143 328)" fill="#00629b"/><rect width="8" height="27" rx="4" transform="translate(170 312)" fill="#00a7b5"/><rect width="8" height="72" rx="4" transform="translate(170 328)" fill="#00629b"/><rect width="8" height="27" rx="4" transform="translate(60 312)" fill="#00a7b5"/><rect width="8" height="72" rx="4" transform="translate(60 328)" fill="#00629b"/><rect width="8" height="47" rx="4" transform="translate(225 312)" fill="#66b0db"/><rect width="8" height="72" rx="4" transform="translate(225 328)" fill="#00629b"/><rect width="8" height="35" rx="4" transform="translate(281 296)" fill="#00a7b5"/><rect width="8" height="80" rx="4" transform="translate(281 320)" fill="#00629b"/><rect width="8" height="80" rx="4" transform="translate(308 320)" fill="#00629b"/><rect width="8" height="80" rx="4" transform="translate(336 320)" fill="#00629b"/></g><path d="M3.934,15H5.208V10.59L9.016,4.584H7.574L4.592,9.4H4.578L1.568,4.584H.1L3.934,10.6Zm8.442.168a3.757,3.757,0,0,0,3.752-3.948,3.771,3.771,0,1,0-7.532,0A3.763,3.763,0,0,0,12.376,15.168Zm0-1.2A2.536,2.536,0,0,1,9.9,11.22a2.549,2.549,0,0,1,2.478-2.758A2.547,2.547,0,0,1,14.84,11.22,2.542,2.542,0,0,1,12.376,13.964Zm8.61,1.2a2.918,2.918,0,0,0,3.136-3.08V7.426H22.834v4.69a1.707,1.707,0,0,1-1.848,1.848,1.678,1.678,0,0,1-1.792-1.848V7.426H17.906v4.662A2.881,2.881,0,0,0,20.986,15.168ZM31.01,11.206A2.613,2.613,0,0,1,33.6,8.462a3.2,3.2,0,0,1,2.03.644V7.79a3.879,3.879,0,0,0-2.1-.532,3.8,3.8,0,0,0-3.822,3.948,3.8,3.8,0,0,0,3.822,3.962,4.2,4.2,0,0,0,2.1-.518v-1.3a3.241,3.241,0,0,1-2.016.616A2.611,2.611,0,0,1,31.01,11.206Zm9.352,3.962a3.044,3.044,0,0,0,2.7-1.554L43.218,15h1.05V7.426h-1.05l-.154,1.4a3.058,3.058,0,0,0-2.7-1.568,3.664,3.664,0,0,0-3.444,3.962A3.668,3.668,0,0,0,40.362,15.168Zm.266-1.2A2.509,2.509,0,0,1,38.22,11.22a2.423,2.423,0,1,1,4.8-.014A2.521,2.521,0,0,1,40.628,13.964ZM50.12,7.258A2.732,2.732,0,0,0,47.8,8.574h-.042l-.14-1.148H46.62V15h1.288V10.38A1.832,1.832,0,0,1,49.8,8.49c1.134,0,1.736.63,1.736,1.96V15h1.288V9.988A2.543,2.543,0,0,0,50.12,7.258ZM58.912,17.94H60.2V13.684a3.014,3.014,0,0,0,2.618,1.484c1.792,0,3.43-1.526,3.43-3.962A3.651,3.651,0,0,0,62.8,7.258a3.052,3.052,0,0,0-2.688,1.568l-.154-1.4h-1.05Zm3.64-3.976a2.506,2.506,0,0,1-2.38-2.744,2.417,2.417,0,1,1,4.788-.014A2.506,2.506,0,0,1,62.552,13.964Zm12.026-2.9c0-2.492-1.47-3.808-3.262-3.808a3.719,3.719,0,0,0-3.654,3.99,3.645,3.645,0,0,0,3.836,3.92,4.413,4.413,0,0,0,2.646-.84V13.054a3.913,3.913,0,0,1-2.548.994,2.582,2.582,0,0,1-2.674-2.408h5.614A3.438,3.438,0,0,0,74.578,11.066Zm-5.656-.392a2.459,2.459,0,0,1,2.38-2.3,2.064,2.064,0,0,1,2.03,2.3ZM76.426,15h1.288V10.688a1.963,1.963,0,0,1,2.03-2.128,3.259,3.259,0,0,1,.532.056V7.384a2.713,2.713,0,0,0-.5-.042A2.453,2.453,0,0,0,77.6,8.63h-.014l-.14-1.2H76.426ZM84,7.258c-1.68,0-2.73.952-2.73,2.226,0,1.33,1.106,1.736,2.352,2.114,1.092.336,1.806.574,1.806,1.3,0,.672-.588,1.12-1.61,1.12a3.594,3.594,0,0,1-2.576-1.078v1.386a4.186,4.186,0,0,0,2.618.84c1.75,0,2.828-.9,2.828-2.282,0-1.526-1.316-1.9-2.478-2.24-1.022-.294-1.68-.546-1.68-1.218,0-.616.532-1.022,1.484-1.022a3.577,3.577,0,0,1,2.268.784V7.916A3.965,3.965,0,0,0,84,7.258Zm7.812,7.91a3.757,3.757,0,0,0,3.752-3.948,3.771,3.771,0,1,0-7.532,0A3.763,3.763,0,0,0,91.812,15.168Zm0-1.2a2.536,2.536,0,0,1-2.478-2.744,2.486,2.486,0,1,1,4.942,0A2.542,2.542,0,0,1,91.812,13.964Zm9.128-6.706a2.732,2.732,0,0,0-2.324,1.316h-.042l-.14-1.148H97.44V15h1.288V10.38a1.832,1.832,0,0,1,1.89-1.89c1.134,0,1.736.63,1.736,1.96V15h1.288V9.988A2.543,2.543,0,0,0,100.94,7.258Zm7.924,7.91a3.044,3.044,0,0,0,2.7-1.554L111.72,15h1.05V7.426h-1.05l-.154,1.4a3.058,3.058,0,0,0-2.7-1.568,3.664,3.664,0,0,0-3.444,3.962A3.668,3.668,0,0,0,108.864,15.168Zm.266-1.2a2.509,2.509,0,0,1-2.408-2.744,2.423,2.423,0,1,1,4.8-.014A2.521,2.521,0,0,1,109.13,13.964ZM115.15,15h1.288V3.8H115.15Zm3.7,0h1.288V3.8h-1.288ZM128.6,7.426H127.26l-2.086,5.768h-.028L123.06,7.426h-1.4l2.828,7.308-1.3,3.206H124.5ZM134.862,3.8h-1.288V15h1.05l.154-1.386a3.023,3.023,0,0,0,2.688,1.554,3.66,3.66,0,0,0,3.444-3.948c0-2.436-1.638-3.962-3.416-3.962a2.979,2.979,0,0,0-2.632,1.5Zm2.352,4.662a2.514,2.514,0,0,1,2.408,2.758,2.417,2.417,0,1,1-4.788-.014A2.506,2.506,0,0,1,137.214,8.462Zm8.876,6.706a3.757,3.757,0,0,0,3.752-3.948,3.771,3.771,0,1,0-7.532,0A3.763,3.763,0,0,0,146.09,15.168Zm0-1.2a2.536,2.536,0,0,1-2.478-2.744,2.486,2.486,0,1,1,4.942,0A2.542,2.542,0,0,1,146.09,13.964Zm8.918,1.2a3.757,3.757,0,0,0,3.752-3.948,3.771,3.771,0,1,0-7.532,0A3.763,3.763,0,0,0,155.008,15.168Zm0-1.2a2.536,2.536,0,0,1-2.478-2.744,2.486,2.486,0,1,1,4.942,0A2.542,2.542,0,0,1,155.008,13.964Zm8.008-6.706c-1.68,0-2.73.952-2.73,2.226,0,1.33,1.106,1.736,2.352,2.114,1.092.336,1.806.574,1.806,1.3,0,.672-.588,1.12-1.61,1.12a3.594,3.594,0,0,1-2.576-1.078v1.386a4.186,4.186,0,0,0,2.618.84c1.75,0,2.828-.9,2.828-2.282,0-1.526-1.316-1.9-2.478-2.24-1.022-.294-1.68-.546-1.68-1.218,0-.616.532-1.022,1.484-1.022a3.577,3.577,0,0,1,2.268.784V7.916A3.965,3.965,0,0,0,163.016,7.258Zm6.09-1.61h-1.232V7.426h-1.162v1.12h1.134v3.808a2.506,2.506,0,0,0,2.7,2.744,4.744,4.744,0,0,0,.9-.084v-1.12a3.916,3.916,0,0,1-.672.07,1.5,1.5,0,0,1-1.666-1.666V8.546h2.17V7.426h-2.17Zm13.468,1.778H181.23l-2.086,5.768h-.028L177.03,7.426h-1.4l2.828,7.308-1.3,3.206h1.316Zm4.522,7.742a3.757,3.757,0,0,0,3.752-3.948,3.771,3.771,0,1,0-7.532,0A3.763,3.763,0,0,0,187.1,15.168Zm0-1.2a2.536,2.536,0,0,1-2.478-2.744,2.486,2.486,0,1,1,4.942,0A2.542,2.542,0,0,1,187.1,13.964Zm8.61,1.2a2.918,2.918,0,0,0,3.136-3.08V7.426h-1.288v4.69a1.707,1.707,0,0,1-1.848,1.848,1.678,1.678,0,0,1-1.792-1.848V7.426h-1.288v4.662A2.881,2.881,0,0,0,195.706,15.168ZM201.1,15h1.288V10.688a1.963,1.963,0,0,1,2.03-2.128,3.259,3.259,0,0,1,.532.056V7.384a2.713,2.713,0,0,0-.5-.042,2.453,2.453,0,0,0-2.17,1.288h-.014l-.14-1.2H201.1Zm11.13-7.742c-1.68,0-2.73.952-2.73,2.226,0,1.33,1.106,1.736,2.352,2.114,1.092.336,1.806.574,1.806,1.3,0,.672-.588,1.12-1.61,1.12a3.594,3.594,0,0,1-2.576-1.078v1.386a4.186,4.186,0,0,0,2.618.84c1.75,0,2.828-.9,2.828-2.282,0-1.526-1.316-1.9-2.478-2.24-1.022-.294-1.68-.546-1.68-1.218,0-.616.532-1.022,1.484-1.022a3.577,3.577,0,0,1,2.268.784V7.916A3.965,3.965,0,0,0,212.226,7.258Zm7.5,7.91a2.918,2.918,0,0,0,3.136-3.08V7.426h-1.288v4.69a1.707,1.707,0,0,1-1.848,1.848,1.678,1.678,0,0,1-1.792-1.848V7.426H216.65v4.662A2.881,2.881,0,0,0,219.73,15.168Zm5.39,2.772h1.288V13.684a3.014,3.014,0,0,0,2.618,1.484c1.792,0,3.43-1.526,3.43-3.962a3.651,3.651,0,0,0-3.444-3.948,3.052,3.052,0,0,0-2.688,1.568l-.154-1.4h-1.05Zm3.64-3.976a2.506,2.506,0,0,1-2.38-2.744,2.417,2.417,0,1,1,4.788-.014A2.506,2.506,0,0,1,228.76,13.964Zm12.026-2.9c0-2.492-1.47-3.808-3.262-3.808a3.719,3.719,0,0,0-3.654,3.99,3.645,3.645,0,0,0,3.836,3.92,4.413,4.413,0,0,0,2.646-.84V13.054a3.913,3.913,0,0,1-2.548.994,2.582,2.582,0,0,1-2.674-2.408h5.614A3.438,3.438,0,0,0,240.786,11.066Zm-5.656-.392a2.459,2.459,0,0,1,2.38-2.3,2.064,2.064,0,0,1,2.03,2.3Zm7.5,4.326h1.288V10.688a1.963,1.963,0,0,1,2.03-2.128,3.259,3.259,0,0,1,.532.056V7.384a2.713,2.713,0,0,0-.5-.042,2.453,2.453,0,0,0-2.17,1.288H243.8l-.14-1.2h-1.022ZM2.464,27.8H1.176V39h1.05l.154-1.386a3.023,3.023,0,0,0,2.688,1.554A3.66,3.66,0,0,0,8.512,35.22c0-2.436-1.638-3.962-3.416-3.962a2.979,2.979,0,0,0-2.632,1.5Zm2.352,4.662A2.514,2.514,0,0,1,7.224,35.22a2.509,2.509,0,0,1-2.408,2.744,2.511,2.511,0,0,1-2.38-2.758A2.506,2.506,0,0,1,4.816,32.462Zm12.026,2.6c0-2.492-1.47-3.808-3.262-3.808a3.719,3.719,0,0,0-3.654,3.99,3.645,3.645,0,0,0,3.836,3.92,4.413,4.413,0,0,0,2.646-.84V37.054a3.913,3.913,0,0,1-2.548.994,2.582,2.582,0,0,1-2.674-2.408H16.8A3.438,3.438,0,0,0,16.842,35.066Zm-5.656-.392a2.459,2.459,0,0,1,2.38-2.3,2.064,2.064,0,0,1,2.03,2.3Zm13.342-3.248H23.184L21.1,37.194H21.07l-2.086-5.768h-1.4l2.828,7.308-1.3,3.206h1.316Zm4.522,7.742A3.757,3.757,0,0,0,32.8,35.22a3.771,3.771,0,1,0-7.532,0A3.763,3.763,0,0,0,29.05,39.168Zm0-1.2a2.536,2.536,0,0,1-2.478-2.744,2.486,2.486,0,1,1,4.942,0A2.542,2.542,0,0,1,29.05,37.964Zm9.128-6.706a2.732,2.732,0,0,0-2.324,1.316h-.042l-.14-1.148h-.994V39h1.288V34.38a1.832,1.832,0,0,1,1.89-1.89c1.134,0,1.736.63,1.736,1.96V39H40.88V33.988A2.543,2.543,0,0,0,38.178,31.258Zm7.938,7.91a3.06,3.06,0,0,0,2.7-1.554L48.972,39h1.05V27.8H48.734v4.942a2.973,2.973,0,0,0-2.618-1.484c-1.792,0-3.444,1.526-3.444,3.962A3.66,3.66,0,0,0,46.116,39.168Zm.266-1.2A2.52,2.52,0,0,1,43.96,35.22a2.423,2.423,0,1,1,4.8-.014A2.511,2.511,0,0,1,46.382,37.964Zm16.24-2.9c0-2.492-1.47-3.808-3.262-3.808a3.719,3.719,0,0,0-3.654,3.99,3.645,3.645,0,0,0,3.836,3.92,4.413,4.413,0,0,0,2.646-.84V37.054a3.913,3.913,0,0,1-2.548.994,2.582,2.582,0,0,1-2.674-2.408H62.58A3.438,3.438,0,0,0,62.622,35.066Zm-5.656-.392a2.459,2.459,0,0,1,2.38-2.3,2.064,2.064,0,0,1,2.03,2.3ZM71.96,31.258a2.422,2.422,0,0,0-2.184,1.33,2.088,2.088,0,0,0-2.1-1.33,2.26,2.26,0,0,0-2.03,1.288H65.6l-.14-1.12H64.47V39h1.288V34.226a1.6,1.6,0,0,1,1.568-1.736c1.008,0,1.442.574,1.442,1.666V39h1.288V34.156a1.573,1.573,0,0,1,1.582-1.666c1.008,0,1.428.574,1.428,1.666V39h1.288V33.946C74.354,32.364,73.612,31.258,71.96,31.258ZM76.636,41.94h1.288V37.684a3.014,3.014,0,0,0,2.618,1.484c1.792,0,3.43-1.526,3.43-3.962a3.651,3.651,0,0,0-3.444-3.948,3.052,3.052,0,0,0-2.688,1.568l-.154-1.4h-1.05Zm3.64-3.976A2.506,2.506,0,0,1,77.9,35.22a2.417,2.417,0,1,1,4.788-.014A2.506,2.506,0,0,1,80.276,37.964ZM85.89,39h1.288V27.8H85.89Zm6.958.168A3.757,3.757,0,0,0,96.6,35.22a3.771,3.771,0,1,0-7.532,0A3.763,3.763,0,0,0,92.848,39.168Zm0-1.2A2.536,2.536,0,0,1,90.37,35.22a2.486,2.486,0,1,1,4.942,0A2.542,2.542,0,0,1,92.848,37.964ZM104.3,31.426h-1.344l-2.086,5.768h-.028l-2.086-5.768h-1.4l2.828,7.308-1.3,3.206H100.2Zm7.672,3.64c0-2.492-1.47-3.808-3.262-3.808a3.719,3.719,0,0,0-3.654,3.99,3.645,3.645,0,0,0,3.836,3.92,4.413,4.413,0,0,0,2.646-.84V37.054a3.913,3.913,0,0,1-2.548.994,2.582,2.582,0,0,1-2.674-2.408h5.614A3.438,3.438,0,0,0,111.972,35.066Zm-5.656-.392a2.459,2.459,0,0,1,2.38-2.3,2.064,2.064,0,0,1,2.03,2.3ZM113.82,39h1.288V34.688a1.963,1.963,0,0,1,2.03-2.128,3.259,3.259,0,0,1,.532.056V31.384a2.713,2.713,0,0,0-.5-.042A2.453,2.453,0,0,0,115,32.63h-.014l-.14-1.2H113.82Zm9.562-3.794a2.613,2.613,0,0,1,2.59-2.744,3.2,3.2,0,0,1,2.03.644V31.79a3.879,3.879,0,0,0-2.1-.532,3.957,3.957,0,0,0,0,7.91,4.2,4.2,0,0,0,2.1-.518v-1.3a3.241,3.241,0,0,1-2.016.616A2.611,2.611,0,0,1,123.382,35.206Zm9.688,3.962a3.757,3.757,0,0,0,3.752-3.948,3.771,3.771,0,1,0-7.532,0A3.763,3.763,0,0,0,133.07,39.168Zm0-1.2a2.536,2.536,0,0,1-2.478-2.744,2.486,2.486,0,1,1,4.942,0A2.542,2.542,0,0,1,133.07,37.964Zm9.128-6.706a2.732,2.732,0,0,0-2.324,1.316h-.042l-.14-1.148H138.7V39h1.288V34.38a1.832,1.832,0,0,1,1.89-1.89c1.134,0,1.736.63,1.736,1.96V39H144.9V33.988A2.543,2.543,0,0,0,142.2,31.258Zm6.5-1.61h-1.232v1.778H146.3v1.12h1.134v3.808a2.506,2.506,0,0,0,2.7,2.744,4.744,4.744,0,0,0,.9-.084v-1.12a3.916,3.916,0,0,1-.672.07,1.5,1.5,0,0,1-1.666-1.666V32.546h2.17v-1.12h-2.17ZM152.572,39h1.288V34.688a1.963,1.963,0,0,1,2.03-2.128,3.259,3.259,0,0,1,.532.056V31.384a2.713,2.713,0,0,0-.5-.042,2.453,2.453,0,0,0-2.17,1.288h-.014l-.14-1.2h-1.022Zm5.936-9.31a.784.784,0,1,0-.8-.784A.769.769,0,0,0,158.508,29.69ZM157.864,39h1.288V31.426h-1.288Zm4.956-11.2h-1.288V39h1.05l.154-1.386a3.023,3.023,0,0,0,2.688,1.554,3.66,3.66,0,0,0,3.444-3.948c0-2.436-1.638-3.962-3.416-3.962a2.979,2.979,0,0,0-2.632,1.5Zm2.352,4.662a2.514,2.514,0,0,1,2.408,2.758,2.417,2.417,0,1,1-4.788-.014A2.506,2.506,0,0,1,165.172,32.462Zm8.568,6.706a2.918,2.918,0,0,0,3.136-3.08V31.426h-1.288v4.69a1.707,1.707,0,0,1-1.848,1.848,1.678,1.678,0,0,1-1.792-1.848v-4.69H170.66v4.662A2.881,2.881,0,0,0,173.74,39.168Zm6.972-9.52H179.48v1.778h-1.162v1.12h1.134v3.808a2.506,2.506,0,0,0,2.7,2.744,4.744,4.744,0,0,0,.9-.084v-1.12a3.916,3.916,0,0,1-.672.07,1.5,1.5,0,0,1-1.666-1.666V32.546h2.17v-1.12h-2.17Zm4.55.042a.784.784,0,1,0-.8-.784A.769.769,0,0,0,185.262,29.69ZM184.618,39h1.288V31.426h-1.288Zm6.958.168a3.757,3.757,0,0,0,3.752-3.948,3.771,3.771,0,1,0-7.532,0A3.763,3.763,0,0,0,191.576,39.168Zm0-1.2A2.536,2.536,0,0,1,189.1,35.22a2.486,2.486,0,1,1,4.942,0A2.542,2.542,0,0,1,191.576,37.964Zm9.128-6.706a2.732,2.732,0,0,0-2.324,1.316h-.042l-.14-1.148H197.2V39h1.288V34.38a1.832,1.832,0,0,1,1.89-1.89c1.134,0,1.736.63,1.736,1.96V39h1.288V33.988A2.543,2.543,0,0,0,200.7,31.258Zm7.35,0c-1.68,0-2.73.952-2.73,2.226,0,1.33,1.106,1.736,2.352,2.114,1.092.336,1.806.574,1.806,1.3,0,.672-.588,1.12-1.61,1.12a3.594,3.594,0,0,1-2.576-1.078v1.386a4.186,4.186,0,0,0,2.618.84c1.75,0,2.828-.9,2.828-2.282,0-1.526-1.316-1.9-2.478-2.24-1.022-.294-1.68-.546-1.68-1.218,0-.616.532-1.022,1.484-1.022a3.577,3.577,0,0,1,2.268.784V31.916A3.965,3.965,0,0,0,208.054,31.258Zm5.11,7.812a.875.875,0,1,0-.868-.868A.855.855,0,0,0,213.164,39.07Zm7.014-.07h1.3V28.584h-1.3Zm5.488-9.352h-1.232v1.778h-1.162v1.12h1.134v3.808a2.506,2.506,0,0,0,2.7,2.744,4.744,4.744,0,0,0,.9-.084v-1.12a3.916,3.916,0,0,1-.672.07,1.5,1.5,0,0,1-1.666-1.666V32.546h2.17v-1.12h-2.17Zm8.512,5.558a2.613,2.613,0,0,1,2.59-2.744,3.2,3.2,0,0,1,2.03.644V31.79a3.879,3.879,0,0,0-2.1-.532,3.957,3.957,0,0,0,0,7.91,4.2,4.2,0,0,0,2.1-.518v-1.3a3.241,3.241,0,0,1-2.016.616A2.611,2.611,0,0,1,234.178,35.206Zm9.352,3.962a3.044,3.044,0,0,0,2.7-1.554L246.386,39h1.05V31.426h-1.05l-.154,1.4a3.058,3.058,0,0,0-2.7-1.568,3.664,3.664,0,0,0-3.444,3.962A3.668,3.668,0,0,0,243.53,39.168Zm.266-1.2a2.509,2.509,0,0,1-2.408-2.744,2.423,2.423,0,1,1,4.8-.014A2.521,2.521,0,0,1,243.8,37.964Zm9.492-6.706a2.732,2.732,0,0,0-2.324,1.316h-.042l-.14-1.148h-.994V39h1.288V34.38a1.832,1.832,0,0,1,1.89-1.89c1.134,0,1.736.63,1.736,1.96V39h1.288V33.988A2.543,2.543,0,0,0,253.288,31.258ZM7.616,59.066c0-2.492-1.47-3.808-3.262-3.808A3.719,3.719,0,0,0,.7,59.248a3.645,3.645,0,0,0,3.836,3.92,4.413,4.413,0,0,0,2.646-.84V61.054a3.913,3.913,0,0,1-2.548.994A2.582,2.582,0,0,1,1.96,59.64H7.574A3.438,3.438,0,0,0,7.616,59.066ZM1.96,58.674a2.459,2.459,0,0,1,2.38-2.3,2.064,2.064,0,0,1,2.03,2.3ZM11.13,63h1.4l2.758-7.574h-1.33l-2.086,6.146H11.83L9.744,55.426H8.372Zm11.844-3.934c0-2.492-1.47-3.808-3.262-3.808a3.719,3.719,0,0,0-3.654,3.99,3.645,3.645,0,0,0,3.836,3.92,4.413,4.413,0,0,0,2.646-.84V61.054a3.913,3.913,0,0,1-2.548.994,2.582,2.582,0,0,1-2.674-2.408h5.614A3.438,3.438,0,0,0,22.974,59.066Zm-5.656-.392a2.459,2.459,0,0,1,2.38-2.3,2.064,2.064,0,0,1,2.03,2.3Zm11-3.416A2.732,2.732,0,0,0,26,56.574h-.042l-.14-1.148h-.994V63H26.11V58.38A1.832,1.832,0,0,1,28,56.49c1.134,0,1.736.63,1.736,1.96V63h1.288V57.988A2.543,2.543,0,0,0,28.322,55.258ZM37.114,63H38.4V58.688a1.963,1.963,0,0,1,2.03-2.128,3.259,3.259,0,0,1,.532.056V55.384a2.713,2.713,0,0,0-.5-.042,2.453,2.453,0,0,0-2.17,1.288h-.014l-.14-1.2H37.114Zm11.438-3.934c0-2.492-1.47-3.808-3.262-3.808a3.719,3.719,0,0,0-3.654,3.99,3.645,3.645,0,0,0,3.836,3.92,4.413,4.413,0,0,0,2.646-.84V61.054a3.913,3.913,0,0,1-2.548.994A2.582,2.582,0,0,1,42.9,59.64H48.51A3.438,3.438,0,0,0,48.552,59.066ZM42.9,58.674a2.459,2.459,0,0,1,2.38-2.3,2.064,2.064,0,0,1,2.03,2.3Zm10.472,4.494a3.06,3.06,0,0,0,2.7-1.554L56.224,63h1.05V51.8H55.986v4.942a2.973,2.973,0,0,0-2.618-1.484c-1.792,0-3.444,1.526-3.444,3.962A3.66,3.66,0,0,0,53.368,63.168Zm.266-1.2a2.78,2.78,0,1,1,2.38-2.758A2.52,2.52,0,0,1,53.634,61.964Zm8.96,1.2a2.918,2.918,0,0,0,3.136-3.08V55.426H64.442v4.69a1.707,1.707,0,0,1-1.848,1.848A1.678,1.678,0,0,1,60.8,60.116v-4.69H59.514v4.662A2.881,2.881,0,0,0,62.594,63.168Zm6.2-3.962a2.613,2.613,0,0,1,2.59-2.744,3.2,3.2,0,0,1,2.03.644V55.79a3.879,3.879,0,0,0-2.1-.532,3.957,3.957,0,0,0,0,7.91,4.2,4.2,0,0,0,2.1-.518v-1.3a3.241,3.241,0,0,1-2.016.616A2.611,2.611,0,0,1,68.8,59.206Zm12.838-.14c0-2.492-1.47-3.808-3.262-3.808a3.719,3.719,0,0,0-3.654,3.99,3.645,3.645,0,0,0,3.836,3.92,4.413,4.413,0,0,0,2.646-.84V61.054a3.913,3.913,0,0,1-2.548.994,2.582,2.582,0,0,1-2.674-2.408h5.614A3.438,3.438,0,0,0,81.634,59.066Zm-5.656-.392a2.459,2.459,0,0,1,2.38-2.3,2.064,2.064,0,0,1,2.03,2.3Zm17.094-3.248H91.728l-2.086,5.768h-.028l-2.086-5.768h-1.4l2.828,7.308-1.3,3.206H88.97Zm4.522,7.742a3.959,3.959,0,1,0-3.78-3.948A3.757,3.757,0,0,0,97.594,63.168Zm0-1.2a2.768,2.768,0,1,1,2.464-2.744A2.536,2.536,0,0,1,97.594,61.964Zm8.61,1.2a2.918,2.918,0,0,0,3.136-3.08V55.426h-1.288v4.69a1.707,1.707,0,0,1-1.848,1.848,1.678,1.678,0,0,1-1.792-1.848v-4.69h-1.288v4.662A2.881,2.881,0,0,0,106.2,63.168Zm5.39-.168h1.288V58.688a1.963,1.963,0,0,1,2.03-2.128,3.259,3.259,0,0,1,.532.056V55.384a2.713,2.713,0,0,0-.5-.042,2.453,2.453,0,0,0-2.17,1.288h-.014l-.14-1.2h-1.022Zm10.136-9.352H120.5v1.778h-1.162v1.12h1.134v3.808a2.506,2.506,0,0,0,2.7,2.744,4.745,4.745,0,0,0,.9-.084v-1.12a3.917,3.917,0,0,1-.672.07A1.5,1.5,0,0,1,121.73,60.3V56.546h2.17v-1.12h-2.17Zm6.762,9.52a3.044,3.044,0,0,0,2.7-1.554L131.348,63h1.05V55.426h-1.05l-.154,1.4a3.058,3.058,0,0,0-2.7-1.568,3.993,3.993,0,0,0,0,7.91Zm.266-1.2a2.778,2.778,0,1,1,2.394-2.758A2.509,2.509,0,0,1,128.758,61.964ZM140.6,55.426h-1.4l-1.9,2.856h-.028l-1.9-2.856h-1.442l2.6,3.78L133.9,63h1.428l1.946-2.9h.014L139.23,63h1.47l-2.674-3.85Zm2.156,7.644a.875.875,0,1,0-.868-.868A.855.855,0,0,0,142.758,63.07Zm6.818-.07h6.37V61.194h-4.41V52.57h-1.96Zm14.392-3.99c0-2.548-1.568-3.892-3.486-3.892a4.043,4.043,0,0,0,.336,8.078,5,5,0,0,0,2.674-.756V60.788a4.278,4.278,0,0,1-2.45.84,2.414,2.414,0,0,1-2.534-1.918h5.4A5.067,5.067,0,0,0,163.968,59.01Zm-5.474-.518a2.055,2.055,0,0,1,1.974-1.82,1.659,1.659,0,0,1,1.652,1.82Zm10.052,4.7a2.987,2.987,0,0,0,2.6-1.456l.2,1.26h1.624V55.3h-1.624l-.2,1.26a2.976,2.976,0,0,0-2.6-1.442c-1.75,0-3.444,1.6-3.444,4.046A3.75,3.75,0,0,0,168.546,63.2Zm.532-1.764a2.3,2.3,0,0,1,0-4.564,2.3,2.3,0,0,1,0,4.564ZM174.986,63h1.932V59.038a1.807,1.807,0,0,1,1.9-2.016,3.057,3.057,0,0,1,.616.056V55.272a2.3,2.3,0,0,0-.56-.056,2.4,2.4,0,0,0-2.128,1.26h-.028l-.2-1.176h-1.54Zm9.758-7.882a2.716,2.716,0,0,0-2.324,1.288h-.042l-.21-1.106h-1.5V63H182.6V58.394a1.467,1.467,0,0,1,1.526-1.512c.924,0,1.4.5,1.4,1.568V63h1.932V57.862A2.53,2.53,0,0,0,184.744,55.118Zm16.478,0a2.49,2.49,0,0,0-2.212,1.316,2.191,2.191,0,0,0-2.156-1.316,2.342,2.342,0,0,0-2.1,1.274h-.042L194.5,55.3H193V63h1.932V58.3a1.288,1.288,0,0,1,1.274-1.414c.84,0,1.176.462,1.176,1.386V63h1.932V58.212a1.241,1.241,0,0,1,1.274-1.33c.826,0,1.162.462,1.162,1.386V63h1.932V57.89C203.686,56.224,202.9,55.118,201.222,55.118Zm7.966,8.078a4.039,4.039,0,1,0-3.976-4.046A3.893,3.893,0,0,0,209.188,63.2Zm0-1.764A2.3,2.3,0,1,1,211.2,59.15,2.1,2.1,0,0,1,209.188,61.432ZM214.732,63h1.932V59.038a1.807,1.807,0,0,1,1.9-2.016,3.057,3.057,0,0,1,.616.056V55.272a2.3,2.3,0,0,0-.56-.056,2.4,2.4,0,0,0-2.128,1.26h-.028l-.2-1.176h-1.54Zm12.348-3.99c0-2.548-1.568-3.892-3.486-3.892a4.043,4.043,0,0,0,.336,8.078,5,5,0,0,0,2.674-.756V60.788a4.278,4.278,0,0,1-2.45.84,2.414,2.414,0,0,1-2.534-1.918h5.4A5.067,5.067,0,0,0,227.08,59.01Zm-5.474-.518a2.055,2.055,0,0,1,1.974-1.82,1.659,1.659,0,0,1,1.652,1.82Zm7.8,4.578a.875.875,0,1,0-.868-.868A.855.855,0,0,0,229.4,63.07Z" transform="translate(72 472)"/><path d="M18.7,12.03a.661.661,0,0,1,.662-.662H21.7a.662.662,0,1,1,0,1.324H19.362A.685.685,0,0,1,18.7,12.03Zm19.367,0a.661.661,0,0,0,.662.662H41.1a.662.662,0,0,0,0-1.324H38.764A.649.649,0,0,0,38.067,12.03Zm.313,8.116a.7.7,0,0,0,0-.94l-1.637-1.637a.665.665,0,0,0-.94.94l1.637,1.637a.688.688,0,0,0,.488.209A.674.674,0,0,0,38.381,20.146Zm-10.206.662a.661.661,0,0,0-.662.662v.7a1.155,1.155,0,0,0,.94,1.115l.174.627a.816.816,0,0,0,.766.592H31.1a.816.816,0,0,0,.766-.592l.174-.627a1.127,1.127,0,0,0,.94-1.115v-.7a.661.661,0,0,0-.662-.662Zm-4.424-3.239-1.637,1.637a.7.7,0,0,0,0,.94.673.673,0,0,0,.975,0l1.637-1.637a.7.7,0,0,0,0-.94A.672.672,0,0,0,23.751,17.568Zm0-11.112a.673.673,0,0,0,.975,0,.7.7,0,0,0,0-.94L23.089,3.879a.665.665,0,0,0-.94.94Zm.557,5.608a5.922,5.922,0,1,1,11.843-.07,5.852,5.852,0,0,1-1.672,4.11,5.554,5.554,0,0,0-1.463,2.961.977.977,0,0,1-.975.836H28.384a.977.977,0,0,1-.975-.836,5.554,5.554,0,0,0-1.463-2.961A6.13,6.13,0,0,1,24.308,12.065Zm1.672-.035a.661.661,0,0,0,.662.662.685.685,0,0,0,.662-.662A2.944,2.944,0,0,1,30.23,9.1a.661.661,0,0,0,.662-.662.685.685,0,0,0-.662-.662A4.267,4.267,0,0,0,25.98,12.03ZM36.256,6.665a.688.688,0,0,0,.488-.209l1.637-1.637a.665.665,0,1,0-.94-.94L35.8,5.516a.7.7,0,0,0,0,.94A.562.562,0,0,0,36.256,6.665ZM30.23,4.157a.661.661,0,0,0,.662-.662V1.162a.662.662,0,0,0-1.324,0V3.5A.661.661,0,0,0,30.23,4.157Z" transform="translate(13.3 471.5)" fill="url(#b)"/><path d="M-6592,10a5.006,5.006,0,0,1-5-5,5.006,5.006,0,0,1,5-5,5,5,0,0,1,5,5A5,5,0,0,1-6592,10Zm0-6.071a.716.716,0,0,0-.713.717V7.5a.707.707,0,0,0,.713.717.716.716,0,0,0,.714-.717V4.645A.708.708,0,0,0-6592,3.929Zm0-2.143a.715.715,0,0,0-.713.714.715.715,0,0,0,.713.714.714.714,0,0,0,.714-.714A.714.714,0,0,0-6592,1.786Z" transform="translate(6688.001 220)" fill="#c1c6c8"/><path d="M-6592,10a5.006,5.006,0,0,1-5-5,5.006,5.006,0,0,1,5-5,5,5,0,0,1,5,5A5,5,0,0,1-6592,10Zm0-6.071a.716.716,0,0,0-.713.717V7.5a.707.707,0,0,0,.713.717.716.716,0,0,0,.714-.717V4.645A.708.708,0,0,0-6592,3.929Zm0-2.143a.715.715,0,0,0-.713.714.715.715,0,0,0,.713.714.714.714,0,0,0,.714-.714A.714.714,0,0,0-6592,1.786Z" transform="translate(6801.001 220)" fill="#c1c6c8"/><path d="M-6592,10a5.006,5.006,0,0,1-5-5,5.006,5.006,0,0,1,5-5,5,5,0,0,1,5,5A5,5,0,0,1-6592,10Zm0-6.071a.716.716,0,0,0-.713.717V7.5a.707.707,0,0,0,.713.717.716.716,0,0,0,.714-.717V4.645A.708.708,0,0,0-6592,3.929Zm0-2.143a.715.715,0,0,0-.713.714.715.715,0,0,0,.713.714.714.714,0,0,0,.714-.714A.714.714,0,0,0-6592,1.786Z" transform="translate(6914.001 220)" fill="#c1c6c8"/><path d="M6.874-5.376a2.334,2.334,0,0,0,1.568-2.3c0-1.554-1.218-2.758-3.542-2.758H1.232V0H5.068C7.546,0,8.736-1.344,8.736-2.912A2.482,2.482,0,0,0,6.874-5.376ZM3.178-8.75H4.9c1.064,0,1.666.532,1.666,1.344,0,.77-.6,1.372-1.722,1.372H3.178ZM4.942-1.694H3.178v-2.9H5c1.078,0,1.806.546,1.806,1.442C6.8-2.31,6.16-1.694,4.942-1.694ZM13.93.2A3.893,3.893,0,0,0,17.892-3.85,3.873,3.873,0,0,0,13.93-7.882,3.893,3.893,0,0,0,9.954-3.85,3.9,3.9,0,0,0,13.93.2Zm0-1.764A2.1,2.1,0,0,1,11.9-3.85a2.1,2.1,0,0,1,2.03-2.282A2.09,2.09,0,0,1,15.946-3.85,2.1,2.1,0,0,1,13.93-1.568ZM23.016.2A3.893,3.893,0,0,0,26.978-3.85a3.873,3.873,0,0,0-3.962-4.032A3.893,3.893,0,0,0,19.04-3.85,3.9,3.9,0,0,0,23.016.2Zm0-1.764a2.1,2.1,0,0,1-2.03-2.282,2.1,2.1,0,0,1,2.03-2.282A2.09,2.09,0,0,1,25.032-3.85,2.1,2.1,0,0,1,23.016-1.568ZM31.29-7.882c-1.89,0-3.024,1.008-3.024,2.394s1.134,1.862,2.38,2.212c1.036.308,1.638.49,1.638,1.036,0,.5-.49.826-1.358.826a3.907,3.907,0,0,1-2.632-1.008V-.588A4.687,4.687,0,0,0,31.01.2C33,.2,34.16-.77,34.16-2.254c0-1.6-1.344-2.016-2.576-2.338-.938-.252-1.442-.448-1.442-.938,0-.462.434-.756,1.218-.756a4.124,4.124,0,0,1,2.324.714V-7.266A4.628,4.628,0,0,0,31.29-7.882Zm6.692-1.61H36.12V-7.7H34.986v1.61h1.12v3.206A2.769,2.769,0,0,0,39.116.154,4.956,4.956,0,0,0,40.222.042V-1.61a4.073,4.073,0,0,1-.686.07c-.9,0-1.554-.406-1.554-1.442V-6.09h2.1V-7.7h-2.1Zm4.62.5a1.058,1.058,0,0,0,1.078-1.064A1.07,1.07,0,0,0,42.6-11.13a1.073,1.073,0,0,0-1.092,1.078A1.061,1.061,0,0,0,42.6-8.988ZM41.636,0h1.932V-7.7H41.636Zm8.036-7.882a2.716,2.716,0,0,0-2.324,1.288h-.042L47.1-7.7H45.6V0H47.53V-4.606a1.467,1.467,0,0,1,1.526-1.512c.924,0,1.4.5,1.4,1.568V0h1.932V-5.138A2.53,2.53,0,0,0,49.672-7.882Zm7.7.014A3.676,3.676,0,0,0,53.9-4.018,3.624,3.624,0,0,0,57.344-.154a2.882,2.882,0,0,0,2.45-1.33V-.63a2.138,2.138,0,0,1-2.366,2.058A4.362,4.362,0,0,1,54.684.336v1.89a5.018,5.018,0,0,0,2.9.91,3.828,3.828,0,0,0,4.144-4V-7.7h-1.61l-.21,1.2A2.986,2.986,0,0,0,57.372-7.868Zm.476,1.722a2.009,2.009,0,0,1,1.988,2.114,2.05,2.05,0,0,1-1.988,2.17,2.036,2.036,0,0,1-2-2.142A2.036,2.036,0,0,1,57.848-6.146ZM73.906-7.7H71.918L70.112-2.38H70.07L68.278-7.7H66.192l2.9,7.462L67.774,2.94H69.72ZM78.358.2A3.893,3.893,0,0,0,82.32-3.85a3.873,3.873,0,0,0-3.962-4.032A3.893,3.893,0,0,0,74.382-3.85,3.9,3.9,0,0,0,78.358.2Zm0-1.764a2.1,2.1,0,0,1-2.03-2.282,2.1,2.1,0,0,1,2.03-2.282A2.09,2.09,0,0,1,80.374-3.85,2.1,2.1,0,0,1,78.358-1.568ZM87.192.2A3.154,3.154,0,0,0,90.608-3.08V-7.7H88.676v4.62a1.364,1.364,0,0,1-1.484,1.512,1.335,1.335,0,0,1-1.442-1.5V-7.7H83.818v4.634A3.117,3.117,0,0,0,87.192.2ZM92.526,0h1.932V-3.962a1.807,1.807,0,0,1,1.9-2.016,3.057,3.057,0,0,1,.616.056V-7.728a2.3,2.3,0,0,0-.56-.056,2.4,2.4,0,0,0-2.128,1.26h-.028l-.2-1.176h-1.54Zm11.69-7.882c-1.89,0-3.024,1.008-3.024,2.394s1.134,1.862,2.38,2.212c1.036.308,1.638.49,1.638,1.036,0,.5-.49.826-1.358.826a3.907,3.907,0,0,1-2.632-1.008V-.588A4.688,4.688,0,0,0,103.936.2c1.988,0,3.15-.966,3.15-2.45,0-1.6-1.344-2.016-2.576-2.338-.938-.252-1.442-.448-1.442-.938,0-.462.434-.756,1.218-.756a4.124,4.124,0,0,1,2.324.714V-7.266A4.628,4.628,0,0,0,104.216-7.882ZM111.93.2a3.154,3.154,0,0,0,3.416-3.276V-7.7h-1.932v4.62a1.364,1.364,0,0,1-1.484,1.512,1.335,1.335,0,0,1-1.442-1.5V-7.7h-1.932v4.634A3.117,3.117,0,0,0,111.93.2Zm5.334,2.744H119.2V-1.19A2.972,2.972,0,0,0,121.7.2c1.806,0,3.43-1.582,3.43-4.046s-1.666-4.032-3.472-4.032a2.963,2.963,0,0,0-2.576,1.442l-.2-1.26h-1.624Zm3.892-4.508a2.086,2.086,0,0,1-1.988-2.282,2.088,2.088,0,0,1,2-2.282,2.085,2.085,0,0,1,2.016,2.268A2.1,2.1,0,0,1,121.156-1.568ZM133.6-3.99c0-2.548-1.568-3.892-3.486-3.892a3.819,3.819,0,0,0-3.822,4.06A3.838,3.838,0,0,0,130.452.2a5,5,0,0,0,2.674-.756V-2.212a4.278,4.278,0,0,1-2.45.84,2.414,2.414,0,0,1-2.534-1.918h5.4A5.067,5.067,0,0,0,133.6-3.99Zm-5.474-.518a2.055,2.055,0,0,1,1.974-1.82,1.659,1.659,0,0,1,1.652,1.82ZM135.17,0H137.1V-3.962a1.807,1.807,0,0,1,1.9-2.016,3.057,3.057,0,0,1,.616.056V-7.728a2.3,2.3,0,0,0-.56-.056,2.4,2.4,0,0,0-2.128,1.26h-.028l-.2-1.176h-1.54Z" transform="translate(72 571)" fill="#00629b"/><path d="M6274,1336l4,4-4,4" transform="translate(-6050 -773.5)" fill="none" stroke="#00629b" stroke-linecap="square" stroke-width="2"/></g></svg>