<svg xmlns="http://www.w3.org/2000/svg" xmlns:xlink="http://www.w3.org/1999/xlink" width="375" height="628" viewBox="0 0 375 628"><defs><linearGradient id="a" x1="0.5" x2="0.5" y2="1" gradientUnits="objectBoundingBox"><stop offset="0" stop-color="#f8f8fc"/><stop offset="1" stop-color="#e1e2e8"/></linearGradient><filter id="b" x="8" y="420" width="80" height="80" filterUnits="userSpaceOnUse"><feOffset dy="4" input="SourceAlpha"/><feGaussianBlur stdDeviation="8" result="c"/><feFlood flood-opacity="0.122"/><feComposite operator="in" in2="c"/><feComposite in="SourceGraphic"/></filter><clipPath id="d"><circle cx="16" cy="16" r="16" transform="translate(0 0.001)" fill="#9bcbeb"/></clipPath><linearGradient id="e" x1="-2.152" y1="0.467" x2="1.172" y2="0.515" gradientUnits="objectBoundingBox"><stop offset="0.01"/><stop offset="1" stop-opacity="0"/></linearGradient><linearGradient id="f" x1="-1.499" y1="1.742" x2="1.059" y2="0.131" xlink:href="#e"/><linearGradient id="g" x1="0.337" y1="-1.05" x2="0.603" y2="1.481" xlink:href="#e"/><linearGradient id="h" x1="0.815" y1="0.239" x2="0.092" y2="0.732" gradientUnits="objectBoundingBox"><stop offset="0.02" stop-color="#fff" stop-opacity="0"/><stop offset="0.58" stop-color="#fff" stop-opacity="0.388"/><stop offset="1" stop-color="#fff"/></linearGradient><linearGradient id="i" x1="-0.26" y1="0.481" x2="1.302" y2="0.521" xlink:href="#h"/><linearGradient id="j" x1="0.538" y1="-0.383" x2="0.467" y2="1.403" xlink:href="#e"/><linearGradient id="k" x1="0.256" y1="-0.276" x2="0.721" y2="1.203" xlink:href="#e"/><linearGradient id="l" x1="0.253" y1="0.258" x2="0.455" y2="0.476" xlink:href="#e"/><linearGradient id="m" x1="0.413" y1="0.486" x2="1.01" y2="0.583" xlink:href="#e"/><linearGradient id="n" x1="0.014" y1="0.352" x2="0.779" y2="0.604" xlink:href="#e"/><linearGradient id="o" x1="0.555" y1="1.165" x2="0.461" y2="-0.341" xlink:href="#e"/><linearGradient id="p" x1="0.635" y1="0.055" x2="0.348" y2="0.907" gradientUnits="objectBoundingBox"><stop offset="0.02" stop-color="#fff" stop-opacity="0"/><stop offset="0.58" stop-color="#fff" stop-opacity="0.388"/><stop offset="0.68" stop-color="#fff" stop-opacity="0.678"/><stop offset="1" stop-color="#fff"/></linearGradient><linearGradient id="q" x1="0.185" y1="-0.258" x2="0.961" y2="1.606" xlink:href="#e"/><clipPath id="s"><rect width="375" height="628"/></clipPath></defs><g id="r" clip-path="url(#s)"><rect width="375" height="628" fill="#fff"/><path d="M-1056-554l8-7.568V-674a16,16,0,0,1,16-16h256a16,16,0,0,1,16,16v104a16,16,0,0,1-16,16h-280Z" transform="translate(1104 1114)" fill="url(#a)"/><g transform="translate(-8 18.999)"><g transform="matrix(1, 0, 0, 1, 8, -19)" filter="url(#b)"><circle cx="16" cy="16" r="16" transform="translate(32 440)" fill="#9bcbeb"/></g><g transform="translate(40 421)" clip-path="url(#d)"><g transform="translate(1.337 4.284)"><path d="M187.825,265.873a1.527,1.527,0,0,1,.06,1.218,1.554,1.554,0,0,1-.529.5l-1.916,1.3a2.575,2.575,0,0,1-1.2.54.887.887,0,0,1-.98-.694c-.044-.51.49-.858.74-1.305a2.67,2.67,0,0,0-.024-1.962,35.924,35.924,0,0,1-.941-4.979c.393-.161,1.537-.882,1.944-.762.458.139.872,1.42,1.076,1.838A33.288,33.288,0,0,1,187.825,265.873Z" transform="translate(-163.941 -233.218)" fill="#f1af8c"/><path d="M199.424,206.471a20.24,20.24,0,0,0,1.822,4.1.2.2,0,0,1,.043.129.2.2,0,0,1-.078.108,5.6,5.6,0,0,1-2.72,1.584.333.333,0,0,1-.205-.018.339.339,0,0,1-.128-.176,12.056,12.056,0,0,1-.887-4.947,20.363,20.363,0,0,1,.2-2.516c.028-.2.043-1.1.219-1.208.268-.158.562.394.679.568A10.289,10.289,0,0,1,199.424,206.471Z" transform="translate(-179.215 -184.806)" fill="#fff"/><path d="M205.78,205.54s.626.235,1.136,2,1.726,6.037,1.726,6.037-1.881.94-2.352.587S205.78,205.54,205.78,205.54Z" transform="translate(-187.749 -186.566)" fill="url(#e)"/><path d="M213.956,192.407a10.077,10.077,0,0,0-3.048.3,5.05,5.05,0,0,0-2.57,1.6,5.54,5.54,0,0,0-1.1,3.163,20.789,20.789,0,0,0,.192,3.4,53.867,53.867,0,0,1,.211,7.962c-.031.636-.394,3.956.053,4.41.278.286-.278.572.118.666a24.005,24.005,0,0,0,12.11-.9,3.667,3.667,0,0,0,1.944-1.542c.417-.815-.708-4.046-.843-4.952q-.612-4.15-.883-8.344a27.268,27.268,0,0,0-.242-3.785c-.185-.882-.752-1.122-1.572-1.338A19.777,19.777,0,0,0,213.956,192.407Z" transform="translate(-201.262 -175.249)" fill="#fff"/><path d="M228.14,231.913a3.163,3.163,0,0,0,.632,1.574,2.716,2.716,0,0,0,1.086.664c1.93.728,4.13.614,5.98,1.527a1.29,1.29,0,0,1,.355.232,1.125,1.125,0,0,1-.026,1.388,4.165,4.165,0,0,1-2.956,1.349,25.5,25.5,0,0,1-7.993.33.733.733,0,0,1-.4-.151.719.719,0,0,1-.168-.375c-.6-2.663-.128-5.436-.117-8.165,0-1.574-.139-3.15-.032-4.721a9.579,9.579,0,0,1,.6-2.856c.246-.622.965-2,1.4-.721a30.831,30.831,0,0,1,1.13,6.321C227.769,229.515,227.913,230.72,228.14,231.913Z" transform="translate(-218.107 -200.28)" fill="url(#f)"/><path d="M245.981,170.381c.46-.074.718-.536.512-1.649-.022-.124-.051-.243-.085-.362a.3.3,0,0,0-.018-.067c-.05-.172-.107-.344-.162-.515a3.758,3.758,0,0,1-.242-1.281,2.3,2.3,0,0,0-.08-.945,1.547,1.547,0,0,0-.515-.623c-.5-.382-1.944-1.1-2.221-.151a4.333,4.333,0,0,0-.028,1.293,3.888,3.888,0,0,1-.319,1.734C242.52,168.421,244.852,170.562,245.981,170.381Z" transform="translate(-230.811 -151.065)" fill="#f1af8c"/><path d="M247.7,176.149s-2.56-.972-3.054-2.509l2.728.893S247.443,175.939,247.7,176.149Z" transform="translate(-232.209 -159.095)" fill="url(#g)"/><path d="M299.865,206.337a17.2,17.2,0,0,1-1.4,8.5.632.632,0,0,1-.171.257.694.694,0,0,1-.417.1,5.11,5.11,0,0,1-3.174-1.019,1.216,1.216,0,0,1-.562-.8,1.308,1.308,0,0,1,.1-.51,56.424,56.424,0,0,1,2.478-6.041,3.438,3.438,0,0,1,1.666-1.9C299.406,204.534,299.794,205.576,299.865,206.337Z" transform="translate(-291.31 -185.959)" fill="#fff"/><path d="M250.925,192.638a13.993,13.993,0,0,1-1.866-2.725,4.5,4.5,0,0,1-.725-1.865.372.372,0,0,1,.035-.224.4.4,0,0,1,.128-.118l1.043-.707a2.1,2.1,0,0,0,1,1.558c.555.394,2.145.826,1.8,1.644A17.094,17.094,0,0,1,250.925,192.638Z" transform="translate(-237.409 -170.6)" fill="#00629b"/><path d="M233.893,191.862a18.308,18.308,0,0,0,1.043,1.792,1.354,1.354,0,0,0,.555.555.153.153,0,0,0,.1.014c.061-.021.075-.1.079-.165a10.931,10.931,0,0,0-.16-3.193,2.945,2.945,0,0,0-.45-1.029,2.85,2.85,0,0,0-.927-.576c.056.171.112.343.162.515a.168.168,0,0,1,.017.051v.015c.033.119.062.239.085.362C234.607,191.326,234.349,191.788,233.893,191.862Z" transform="translate(-218.724 -172.546)" fill="#00629b"/><path d="M250.925,192.638a13.993,13.993,0,0,1-1.866-2.725,4.5,4.5,0,0,1-.725-1.865.372.372,0,0,1,.035-.224.4.4,0,0,1,.128-.118l1.043-.707a2.1,2.1,0,0,0,1,1.558c.555.394,2.145.826,1.8,1.644A17.094,17.094,0,0,1,250.925,192.638Z" transform="translate(-237.409 -170.6)" fill="url(#h)"/><path d="M233.893,191.862a18.308,18.308,0,0,0,1.043,1.792,1.354,1.354,0,0,0,.555.555.153.153,0,0,0,.1.014c.061-.021.075-.1.079-.165a10.931,10.931,0,0,0-.16-3.193,2.945,2.945,0,0,0-.45-1.029,2.85,2.85,0,0,0-.927-.576c.056.171.112.343.162.515a.168.168,0,0,1,.017.051v.015c.033.119.062.239.085.362C234.607,191.326,234.349,191.788,233.893,191.862Z" transform="translate(-218.724 -172.546)" fill="url(#i)"/><path d="M252.273,278.994l-6.081-1.162a2.19,2.19,0,0,1-1.019-.375,1.524,1.524,0,0,1-.471-1.362,4.474,4.474,0,0,1,.5-1.413,46.129,46.129,0,0,1,2.627-4.811,7.683,7.683,0,0,1,2.857.821,1.045,1.045,0,0,1,.386.36c.365.694-.633,1.708-.972,2.235a1.308,1.308,0,0,0-.253.576.95.95,0,0,0,.081.432c.329.808,1.5,1.279,2.221,1.694a7.48,7.48,0,0,0,3.093,1.039,18.274,18.274,0,0,1,2.548.153,3.65,3.65,0,0,1,2.392,1.866,2.21,2.21,0,0,1-1.706-.011,9.986,9.986,0,0,0-3.228-.26C254.543,278.835,252.606,279.648,252.273,278.994Z" transform="translate(-244.69 -241.958)" fill="#f1af8c"/><path d="M236.222,70.622a4.243,4.243,0,0,0-1.3-.584,1.608,1.608,0,0,0-1.429.319,2.974,2.974,0,0,1,2.123,1.12.207.207,0,0,0,.107.092.2.2,0,0,0,.112-.021c.192-.072,1.627.255,1.71.082C237.539,71.63,236.4,70.729,236.222,70.622Z" transform="translate(-220.498 -69.843)" fill="#00629b"/><path d="M236.222,70.622a4.243,4.243,0,0,0-1.3-.584,1.608,1.608,0,0,0-1.429.319,2.974,2.974,0,0,1,2.123,1.12.207.207,0,0,0,.107.092.2.2,0,0,0,.112-.021c.192-.072,1.627.255,1.71.082C237.539,71.63,236.4,70.729,236.222,70.622Z" transform="translate(-220.498 -69.843)" fill="url(#j)"/><ellipse cx="1.686" cy="2.077" rx="1.686" ry="2.077" transform="translate(17.142 7.213)" fill="#00629b"/><ellipse cx="1.559" cy="1.922" rx="1.559" ry="1.922" transform="translate(16.923 7.602)" fill="#00629b"/><ellipse cx="1.559" cy="1.922" rx="1.559" ry="1.922" transform="translate(16.923 7.602)" fill="url(#k)"/><path d="M227.637,96.19l-.39,7.138a2.873,2.873,0,0,1-2.843,2.72,4.345,4.345,0,0,1-4.671-3.252c-.487-1.419-.927-5.587,0-6.739S225.879,92.068,227.637,96.19Z" transform="translate(-208.606 -90.537)" fill="#f1af8c"/><path d="M216.858,78.716a3.56,3.56,0,0,1,3.268,1.752,2.055,2.055,0,0,1,.039,1.767.742.742,0,0,0-.108.561,1.47,1.47,0,0,1-.6,1.25,3.441,3.441,0,0,0-.665.467l.068-1.329a.278.278,0,0,0-.211-.33l-.846-.394s-.261.19-.293.205a1.063,1.063,0,0,1-.444.085,6.246,6.246,0,0,1-.991-.056,9.365,9.365,0,0,1-2.051-.619.933.933,0,0,0,.253.547l-2.156.417a5.859,5.859,0,0,0-.757,1.413,4.926,4.926,0,0,0-.292,1.223,4.42,4.42,0,0,0,.157,1.692,1.775,1.775,0,0,1-.38-.4,2.184,2.184,0,0,1-.639.3.278.278,0,0,1-.149.013c-.106-.029-.128-.154-.139-.254a11.378,11.378,0,0,0-1.058-2.507,3.771,3.771,0,0,1,.383-3.16,2.547,2.547,0,0,1,.671-.783c.993-.728,2.4-.394,3.536-.775.539-.18.972-.523,1.487-.75A5.343,5.343,0,0,1,216.858,78.716Z" transform="translate(-199.856 -77.349)" fill="#3f3d56"/><path d="M216.858,78.716a3.56,3.56,0,0,1,3.268,1.752,2.055,2.055,0,0,1,.039,1.767.742.742,0,0,0-.108.561,1.47,1.47,0,0,1-.6,1.25,3.441,3.441,0,0,0-.665.467l.068-1.329a.278.278,0,0,0-.211-.33l-.846-.394s-.261.19-.293.205a1.063,1.063,0,0,1-.444.085,6.246,6.246,0,0,1-.991-.056,9.365,9.365,0,0,1-2.051-.619.933.933,0,0,0,.253.547l-2.156.417a5.859,5.859,0,0,0-.757,1.413,4.926,4.926,0,0,0-.292,1.223,4.42,4.42,0,0,0,.157,1.692,1.775,1.775,0,0,1-.38-.4,2.184,2.184,0,0,1-.639.3.278.278,0,0,1-.149.013c-.106-.029-.128-.154-.139-.254a11.378,11.378,0,0,0-1.058-2.507,3.771,3.771,0,0,1,.383-3.16,2.547,2.547,0,0,1,.671-.783c.993-.728,2.4-.394,3.536-.775.539-.18.972-.523,1.487-.75A5.343,5.343,0,0,1,216.858,78.716Z" transform="translate(-199.856 -77.349)" fill="url(#l)"/><ellipse cx="1.667" cy="2.056" rx="1.667" ry="2.056" transform="translate(7.876 7.49)" fill="#00629b"/><ellipse cx="1.667" cy="2.056" rx="1.667" ry="2.056" transform="translate(7.876 7.49)" fill="url(#m)"/><ellipse cx="1.667" cy="2.056" rx="1.667" ry="2.056" transform="translate(7.238 7.49)" fill="#00629b"/><path d="M249.75,76.529l.833.089.2.021.833-4.1a4.766,4.766,0,0,1,2.821-3.352,1.5,1.5,0,0,1,.641-.076l.568.051-.278-.074-.555-.147a1.829,1.829,0,0,0-.533-.065,3.929,3.929,0,0,0-3.4,2.963Z" transform="translate(-240.857 -68.876)" fill="#00629b"/><path d="M249.75,76.529l.833.089.2.021.833-4.1a4.766,4.766,0,0,1,2.821-3.352,1.5,1.5,0,0,1,.641-.076l.568.051-.278-.074-.555-.147a1.829,1.829,0,0,0-.533-.065,3.929,3.929,0,0,0-3.4,2.963Z" transform="translate(-240.857 -68.876)" fill="url(#n)"/><path d="M251.75,76.529l.833.089.833-4.11a4.816,4.816,0,0,1,2.85-3.382,1.465,1.465,0,0,1,.648-.078l.453.04-.555-.147a1.828,1.828,0,0,0-.533-.065,3.929,3.929,0,0,0-3.4,2.963Z" transform="translate(-242.857 -68.876)" fill="#00629b"/><path d="M214.792,101.417a1.766,1.766,0,0,0-1.316-.862,5.241,5.241,0,0,0-1.624.075c.521.417,1.974,1.037,2,1.148a3.384,3.384,0,0,1,.007.591c-.019.286-.029.586-.028.872a2.222,2.222,0,0,1,.447-.339,1.111,1.111,0,0,0,.375-.24A1.154,1.154,0,0,0,214.792,101.417Z" transform="translate(-194.864 -96.124)" fill="url(#o)"/><path d="M251.868,152.128a6.47,6.47,0,0,0,1.847-.308.278.278,0,0,0-.16-.533c-1.43.43-2.506.373-3.193-.169a2.823,2.823,0,0,1-.875-2.148.278.278,0,1,0-.555-.028,3.368,3.368,0,0,0,1.087,2.614A2.9,2.9,0,0,0,251.868,152.128Z" transform="translate(-239.011 -137.598)" fill="#00629b"/><path d="M251.868,152.128a6.47,6.47,0,0,0,1.847-.308.278.278,0,0,0-.16-.533c-1.43.43-2.506.373-3.193-.169a2.823,2.823,0,0,1-.875-2.148.278.278,0,1,0-.555-.028,3.368,3.368,0,0,0,1.087,2.614A2.9,2.9,0,0,0,251.868,152.128Z" transform="translate(-239.011 -137.598)" fill="url(#p)"/><path d="M238.374,160.465a.736.736,0,0,0-.351.38.659.659,0,0,0,.311.616,1.162,1.162,0,0,0,.576.278,1.337,1.337,0,0,0,.875-.311,1.158,1.158,0,0,0,.364-.351.878.878,0,0,0-.48-1.152C239.214,159.729,238.731,160.23,238.374,160.465Z" transform="translate(-223.816 -147.245)" fill="#00629b"/><path d="M238.374,160.465a.736.736,0,0,0-.351.38.659.659,0,0,0,.311.616,1.162,1.162,0,0,0,.576.278,1.337,1.337,0,0,0,.875-.311,1.158,1.158,0,0,0,.364-.351.878.878,0,0,0-.48-1.152C239.214,159.729,238.731,160.23,238.374,160.465Z" transform="translate(-223.816 -147.245)" fill="url(#q)"/></g></g></g><path d="M12.62-.68V-4.46A6.187,6.187,0,0,1,8.9-3.12,4.263,4.263,0,0,1,4.5-7.46a4.235,4.235,0,0,1,4.4-4.32,6.163,6.163,0,0,1,3.72,1.24v-3.72a8.98,8.98,0,0,0-4.16-1.02A7.612,7.612,0,0,0,.68-7.46,7.607,7.607,0,0,0,8.46.34,8.98,8.98,0,0,0,12.62-.68ZM22.82.36a7.594,7.594,0,0,0,7.8-7.82,7.583,7.583,0,0,0-7.8-7.82A7.611,7.611,0,0,0,15-7.46,7.611,7.611,0,0,0,22.82.36Zm0-3.46a4.056,4.056,0,0,1-4-4.36,4.074,4.074,0,0,1,4-4.38A4.082,4.082,0,0,1,26.8-7.46,4.064,4.064,0,0,1,22.82-3.1ZM47.04-14.92H43.42v8.74H43.4l-6-8.74H33.76V0h3.62V-8.9h.02L43.44,0h3.6ZM54.14,0h3.78V-11.5h4.24v-3.42H49.88v3.42h4.26ZM72.66-5.38A4.66,4.66,0,0,0,76.1-9.9c0-3.32-2.42-5.02-6.08-5.02H65V0h3.8V-4.94h.12L72.34,0h4.5ZM68.8-7.82V-11.5h1.16c1.38,0,2.32.64,2.32,1.84,0,1.18-.9,1.84-2.34,1.84ZM79.56,0h3.8V-14.92h-3.8Zm7.72,0h6.24c3.68,0,5.4-1.96,5.4-4.2a3.454,3.454,0,0,0-2.56-3.44v-.02a3.344,3.344,0,0,0,2.18-3.22c0-2.24-1.8-4.04-5.28-4.04H87.28Zm3.76-8.86v-2.9h2.1c1.22,0,1.84.64,1.84,1.44s-.62,1.46-1.88,1.46Zm0,5.68V-6.26h2.2c1.24,0,1.98.62,1.98,1.54,0,.88-.68,1.54-2.02,1.54ZM108.28.36a6.021,6.021,0,0,0,6.44-6.34v-8.94h-3.8V-6c0,1.88-1,2.9-2.64,2.9-1.6,0-2.56-1.02-2.56-2.88v-8.94h-3.8v8.94A5.978,5.978,0,0,0,108.28.36ZM121.66,0h3.78V-11.5h4.24v-3.42H117.4v3.42h4.26Zm10.86,0h3.8V-14.92h-3.8Zm14.76.36a7.594,7.594,0,0,0,7.8-7.82,7.583,7.583,0,0,0-7.8-7.82,7.611,7.611,0,0,0-7.82,7.82A7.611,7.611,0,0,0,147.28.36Zm0-3.46a4.056,4.056,0,0,1-4-4.36,4.074,4.074,0,0,1,4-4.38,4.082,4.082,0,0,1,3.98,4.38A4.064,4.064,0,0,1,147.28-3.1ZM171.5-14.92h-3.62v8.74h-.02l-6-8.74h-3.64V0h3.62V-8.9h.02L167.9,0h3.6Zm8.94-.32c-3.44,0-5.5,1.98-5.5,4.6,0,2.78,2.36,3.78,4.1,4.44,1.42.56,2.46.96,2.46,1.84,0,.8-.82,1.38-2.22,1.38a6.919,6.919,0,0,1-4.26-1.6V-1A8.468,8.468,0,0,0,179.68.32c3.52,0,5.68-1.98,5.68-4.8,0-3-2.5-3.96-4.56-4.72-1.38-.54-2.12-.86-2.12-1.56,0-.72.76-1.18,2.02-1.18a7.094,7.094,0,0,1,3.76,1.12v-3.4A8.182,8.182,0,0,0,180.44-15.24Z" transform="translate(32 49)"/><path d="M-714,270l6,6,6-6" transform="translate(895.5 338)" fill="none" stroke="#c1c6c8" stroke-width="2"/><path d="M7.536-.42V-2.388A3.763,3.763,0,0,1,5.28-1.6a2.8,2.8,0,0,1-2.832-2.88A2.778,2.778,0,0,1,5.28-7.344,3.8,3.8,0,0,1,7.536-6.6V-8.544a5.119,5.119,0,0,0-2.46-.612A4.536,4.536,0,0,0,.468-4.476,4.536,4.536,0,0,0,5.076.2,5.019,5.019,0,0,0,7.536-.42Zm4.392.588A3.386,3.386,0,0,0,15.42-3.324a3.372,3.372,0,0,0-3.492-3.492A3.386,3.386,0,0,0,8.436-3.324,3.393,3.393,0,0,0,11.928.168Zm0-1.728A1.612,1.612,0,0,1,10.38-3.324a1.612,1.612,0,0,1,1.548-1.764,1.62,1.62,0,0,1,1.56,1.764A1.628,1.628,0,0,1,11.928-1.56Zm8.448-5.256a2.338,2.338,0,0,0-2,1.1h-.036l-.192-.936H16.656V0h1.92V-3.936a1.1,1.1,0,0,1,1.152-1.14c.7,0,1.056.372,1.056,1.188V0H22.7V-4.44A2.17,2.17,0,0,0,20.376-6.816Zm6.108-1.368H24.636v1.536h-.948v1.584h.936v2.508a2.472,2.472,0,0,0,2.712,2.7A4.557,4.557,0,0,0,28.38.036V-1.572a3.756,3.756,0,0,1-.6.06c-.744,0-1.3-.324-1.3-1.164V-5.064H28.26V-6.648H26.484ZM29.508,0h1.92V-3.252A1.485,1.485,0,0,1,33-4.932a2.162,2.162,0,0,1,.552.06v-1.8a2.051,2.051,0,0,0-.5-.048,2.035,2.035,0,0,0-1.8,1.068h-.024l-.192-1H29.508ZM35.52-7.56A1.037,1.037,0,0,0,36.564-8.6,1.035,1.035,0,0,0,35.52-9.636,1.03,1.03,0,0,0,34.464-8.6,1.033,1.033,0,0,0,35.52-7.56ZM34.56,0h1.92V-6.648H34.56Zm5.448-9.636h-1.92V0H39.7l.192-1.02A2.5,2.5,0,0,0,42.048.168a3.214,3.214,0,0,0,2.988-3.492c0-2.124-1.368-3.492-2.916-3.492a2.5,2.5,0,0,0-2.112,1.14ZM41.52-5.088a1.632,1.632,0,0,1,1.572,1.776,1.609,1.609,0,0,1-1.56,1.752,1.6,1.6,0,0,1-1.548-1.764A1.6,1.6,0,0,1,41.52-5.088ZM49.212.168A2.785,2.785,0,0,0,52.26-2.7V-6.648H50.34v3.936A1.031,1.031,0,0,1,49.212-1.56,1.007,1.007,0,0,1,48.12-2.7V-6.648H46.2V-2.7A2.761,2.761,0,0,0,49.212.168Zm6.816-8.352H54.18v1.536h-.948v1.584h.936v2.508A2.472,2.472,0,0,0,56.88.144,4.557,4.557,0,0,0,57.924.036V-1.572a3.756,3.756,0,0,1-.6.06c-.744,0-1.3-.324-1.3-1.164V-5.064H57.8V-6.648H56.028Zm4,.624A1.037,1.037,0,0,0,61.068-8.6a1.035,1.035,0,0,0-1.044-1.032A1.03,1.03,0,0,0,58.968-8.6,1.033,1.033,0,0,0,60.024-7.56ZM59.064,0h1.92V-6.648h-1.92Zm6.648.168A3.386,3.386,0,0,0,69.2-3.324a3.372,3.372,0,0,0-3.492-3.492A3.386,3.386,0,0,0,62.22-3.324,3.393,3.393,0,0,0,65.712.168Zm0-1.728a1.612,1.612,0,0,1-1.548-1.764,1.612,1.612,0,0,1,1.548-1.764,1.62,1.62,0,0,1,1.56,1.764A1.628,1.628,0,0,1,65.712-1.56ZM74.16-6.816a2.338,2.338,0,0,0-2,1.1H72.12l-.192-.936H70.44V0h1.92V-3.936a1.1,1.1,0,0,1,1.152-1.14c.7,0,1.056.372,1.056,1.188V0h1.92V-4.44A2.17,2.17,0,0,0,74.16-6.816Zm6.348,0c-1.716,0-2.712.9-2.712,2.124s.984,1.644,2.04,1.944c.864.24,1.344.372,1.344.78,0,.36-.384.576-1.056.576a3.578,3.578,0,0,1-2.292-.828V-.456a4.378,4.378,0,0,0,2.376.624c1.8,0,2.832-.84,2.832-2.148,0-1.4-1.164-1.776-2.256-2.04-.756-.2-1.14-.348-1.14-.708,0-.324.336-.528.936-.528a3.855,3.855,0,0,1,2.028.588V-6.3A4.183,4.183,0,0,0,80.508-6.816Zm8.676-2.82h-1.92V0h1.608l.192-1.02A2.5,2.5,0,0,0,91.224.168a3.214,3.214,0,0,0,2.988-3.492c0-2.124-1.368-3.492-2.916-3.492a2.5,2.5,0,0,0-2.112,1.14ZM90.7-5.088a1.632,1.632,0,0,1,1.572,1.776,1.609,1.609,0,0,1-1.56,1.752A1.6,1.6,0,0,1,89.16-3.324,1.6,1.6,0,0,1,90.7-5.088Zm10.776-1.56H99.5l-1.428,4.38h-.048L96.6-6.648H94.548L97.056-.18l-1.128,2.7h1.908Z" transform="translate(32 117)"/><path d="M12.936-5.376c0-3.288-2.472-4.392-4.92-5.232-1.536-.528-2.76-1.032-2.76-2.112,0-.912.912-1.656,2.448-1.656a7.449,7.449,0,0,1,4.2,1.416v-3.768a9.541,9.541,0,0,0-3.36-1.032v-1.776H5.424v1.968a5.052,5.052,0,0,0-4.1,4.848c0,3.168,2.376,4.272,4.8,5.112,1.656.552,2.856,1.08,2.856,2.256s-1.152,1.92-2.832,1.92A6.941,6.941,0,0,1,1.368-5.448v4.032A9.707,9.707,0,0,0,5.424-.048V1.728h3.12V-.216A5.383,5.383,0,0,0,12.936-5.376ZM15.024,0h4.1L28.3-17.9H15.048v3.528h7.56ZM26.9,3.216H29.64A16.433,16.433,0,0,0,31.3-3.072V-4.1H27.864v1.32A21.092,21.092,0,0,1,26.9,3.216ZM33.408,0h13.1V-3.5H40.44c3.264-3.528,5.328-6.144,5.328-8.784,0-3.528-2.52-6.024-6.384-6.024a7.87,7.87,0,0,0-4.968,1.7V-12.7a5.891,5.891,0,0,1,4.272-2.016,2.835,2.835,0,0,1,3.048,2.832C41.736-10.08,41.04-8.856,33.408,0ZM52.44,0h3.84V-18.072h-.288L48.48-15.144v3.864l3.96-1.608ZM74.664-7.008H71.808V-17.9H68.424L59.712-6.1V-3.84h8.472V0h3.624V-3.84h2.856Zm-10.944,0v-.024l4.464-6.12v6.144Z" transform="translate(32 195)"/><path d="M12.936-5.376c0-3.288-2.472-4.392-4.92-5.232-1.536-.528-2.76-1.032-2.76-2.112,0-.912.912-1.656,2.448-1.656a7.449,7.449,0,0,1,4.2,1.416v-3.768a9.541,9.541,0,0,0-3.36-1.032v-1.776H5.424v1.968a5.052,5.052,0,0,0-4.1,4.848c0,3.168,2.376,4.272,4.8,5.112,1.656.552,2.856,1.08,2.856,2.256s-1.152,1.92-2.832,1.92A6.941,6.941,0,0,1,1.368-5.448v4.032A9.707,9.707,0,0,0,5.424-.048V1.728h3.12V-.216A5.383,5.383,0,0,0,12.936-5.376ZM18.72,0h3.84V-18.072h-.288L14.76-15.144v3.864l3.96-1.608ZM25.8,3.216h2.736a16.433,16.433,0,0,0,1.656-6.288V-4.1H26.76v1.32A21.092,21.092,0,0,1,25.8,3.216ZM32.3,0h13.1V-3.5H39.336c3.264-3.528,5.328-6.144,5.328-8.784,0-3.528-2.52-6.024-6.384-6.024a7.87,7.87,0,0,0-4.968,1.7V-12.7a5.891,5.891,0,0,1,4.272-2.016,2.835,2.835,0,0,1,3.048,2.832C40.632-10.08,39.936-8.856,32.3,0ZM55.08-18.312c-4.08,0-7.32,3.6-7.32,9.384C47.76-3.192,51,.408,55.08.408c4.056,0,7.344-3.6,7.344-9.336C62.424-14.712,59.136-18.312,55.08-18.312Zm0,3.6c1.92,0,3.528,2.112,3.528,5.784C58.608-5.3,57-3.192,55.08-3.192S51.648-5.3,51.648-8.928C51.648-12.6,53.16-14.712,55.08-14.712Zm17.112-3.6c-4.08,0-7.32,3.6-7.32,9.384,0,5.736,3.24,9.336,7.32,9.336,4.056,0,7.344-3.6,7.344-9.336C79.536-14.712,76.248-18.312,72.192-18.312Zm0,3.6c1.92,0,3.528,2.112,3.528,5.784,0,3.624-1.608,5.736-3.528,5.736S68.76-5.3,68.76-8.928C68.76-12.6,70.272-14.712,72.192-14.712Z" transform="translate(152 195)"/><path d="M12.936-5.376c0-3.288-2.472-4.392-4.92-5.232-1.536-.528-2.76-1.032-2.76-2.112,0-.912.912-1.656,2.448-1.656a7.449,7.449,0,0,1,4.2,1.416v-3.768a9.541,9.541,0,0,0-3.36-1.032v-1.776H5.424v1.968a5.052,5.052,0,0,0-4.1,4.848c0,3.168,2.376,4.272,4.8,5.112,1.656.552,2.856,1.08,2.856,2.256s-1.152,1.92-2.832,1.92A6.941,6.941,0,0,1,1.368-5.448v4.032A9.707,9.707,0,0,0,5.424-.048V1.728h3.12V-.216A5.383,5.383,0,0,0,12.936-5.376ZM14.544,0h13.1V-3.5H21.576C24.84-7.032,26.9-9.648,26.9-12.288c0-3.528-2.52-6.024-6.384-6.024a7.87,7.87,0,0,0-4.968,1.7V-12.7a5.891,5.891,0,0,1,4.272-2.016,2.835,2.835,0,0,1,3.048,2.832C22.872-10.08,22.176-8.856,14.544,0ZM37.32-18.312c-4.08,0-7.32,3.6-7.32,9.384C30-3.192,33.24.408,37.32.408c4.056,0,7.344-3.6,7.344-9.336C44.664-14.712,41.376-18.312,37.32-18.312Zm0,3.6c1.92,0,3.528,2.112,3.528,5.784,0,3.624-1.608,5.736-3.528,5.736S33.888-5.3,33.888-8.928C33.888-12.6,35.4-14.712,37.32-14.712Zm17.112-3.6c-4.08,0-7.32,3.6-7.32,9.384,0,5.736,3.24,9.336,7.32,9.336,4.056,0,7.344-3.6,7.344-9.336C61.776-14.712,58.488-18.312,54.432-18.312Zm0,3.6c1.92,0,3.528,2.112,3.528,5.784,0,3.624-1.608,5.736-3.528,5.736S51-5.3,51-8.928C51-12.6,52.512-14.712,54.432-14.712Z" transform="translate(272 195)"/><path d="M6,0A6,6,0,1,1,0,6,6,6,0,0,1,6,0Z" transform="translate(32 144)" fill="#00629b"/><path d="M6,0A6,6,0,1,1,0,6,6,6,0,0,1,6,0Z" transform="translate(152 144)" fill="#00a7b5"/><path d="M6,0A6,6,0,1,1,0,6,6,6,0,0,1,6,0Z" transform="translate(272 144)" fill="#66b0db"/><path d="M.29-1.4V-.39A2.121,2.121,0,0,0,1.68.12,1.978,1.978,0,0,0,3.71-2.04v-5.4H2.78v5.27c0,.94-.47,1.41-1.2,1.41A1.739,1.739,0,0,1,.29-1.4ZM7.63.12a2.084,2.084,0,0,0,2.24-2.2V-5.41H8.95v3.35A1.219,1.219,0,0,1,7.63-.74,1.2,1.2,0,0,1,6.35-2.06V-5.41H5.43v3.33A2.058,2.058,0,0,0,7.63.12ZM11.5,0h.92V-8H11.5Z" transform="translate(32 371)"/><path d="M.37,0H5.31V-.88H2.18C4.04-2.91,5.04-4.13,5.04-5.31A2.191,2.191,0,0,0,2.71-7.59a2.987,2.987,0,0,0-1.98.73v1.04a2.587,2.587,0,0,1,1.9-.89A1.412,1.412,0,0,1,4.1-5.26C4.1-4.39,3.68-3.7.37,0Zm8.9-7.59c-1.54,0-2.78,1.46-2.78,3.88S7.73.15,9.27.15s2.79-1.45,2.79-3.86S10.81-7.59,9.27-7.59Zm0,.88c1.02,0,1.86,1.1,1.86,3S10.29-.73,9.27-.73,7.43-1.81,7.43-3.71,8.24-6.71,9.27-6.71ZM14.91,0h.92V-7.47h-.09L13.06-6.36v.97l1.85-.79Zm5.33-7.59a2.5,2.5,0,0,0-2.56,2.53,2.415,2.415,0,0,0,2.45,2.38,3.046,3.046,0,0,0,.41-.03L18.35,0h1.12l2.27-2.82a3.546,3.546,0,0,0,1.03-2.29A2.431,2.431,0,0,0,20.24-7.59Zm1.03,3.96a2.417,2.417,0,0,1-.95.2A1.645,1.645,0,0,1,18.61-5.1a1.607,1.607,0,0,1,1.63-1.64,1.587,1.587,0,0,1,1.61,1.65A2.266,2.266,0,0,1,21.27-3.63Z" transform="translate(32 384)"/><path d="M.29-1.4V-.39A2.121,2.121,0,0,0,1.68.12,1.978,1.978,0,0,0,3.71-2.04v-5.4H2.78v5.27c0,.94-.47,1.41-1.2,1.41A1.739,1.739,0,0,1,.29-1.4ZM7.57.12A2.175,2.175,0,0,0,9.5-.99L9.61,0h.75V-5.41H9.61l-.11,1A2.184,2.184,0,0,0,7.57-5.53,2.617,2.617,0,0,0,5.11-2.7,2.62,2.62,0,0,0,7.57.12Zm.19-.86A1.792,1.792,0,0,1,6.04-2.7,1.8,1.8,0,0,1,7.76-4.67,1.8,1.8,0,0,1,9.47-2.71,1.8,1.8,0,0,1,7.76-.74Zm6.78-4.79a1.951,1.951,0,0,0-1.66.94h-.03l-.1-.82h-.71V0h.92V-3.3a1.308,1.308,0,0,1,1.35-1.35c.81,0,1.24.45,1.24,1.4V0h.92V-3.58A1.817,1.817,0,0,0,14.54-5.53Z" transform="translate(198 371)"/><path d="M.37,0H5.31V-.88H2.18C4.04-2.91,5.04-4.13,5.04-5.31A2.191,2.191,0,0,0,2.71-7.59a2.987,2.987,0,0,0-1.98.73v1.04a2.587,2.587,0,0,1,1.9-.89A1.412,1.412,0,0,1,4.1-5.26C4.1-4.39,3.68-3.7.37,0Zm8.9-7.59c-1.54,0-2.78,1.46-2.78,3.88S7.73.15,9.27.15s2.79-1.45,2.79-3.86S10.81-7.59,9.27-7.59Zm0,.88c1.02,0,1.86,1.1,1.86,3S10.29-.73,9.27-.73,7.43-1.81,7.43-3.71,8.24-6.71,9.27-6.71ZM13.05,0h4.94V-.88H14.86c1.86-2.03,2.86-3.25,2.86-4.43a2.191,2.191,0,0,0-2.33-2.28,2.987,2.987,0,0,0-1.98.73v1.04a2.587,2.587,0,0,1,1.9-.89,1.412,1.412,0,0,1,1.47,1.45C16.78-4.39,16.36-3.7,13.05,0Zm8.9-7.59c-1.54,0-2.78,1.46-2.78,3.88S20.41.15,21.95.15s2.79-1.45,2.79-3.86S23.49-7.59,21.95-7.59Zm0,.88c1.02,0,1.86,1.1,1.86,3S22.97-.73,21.95-.73s-1.84-1.08-1.84-2.98S20.92-6.71,21.95-6.71Z" transform="translate(198 384)"/><path d="M4,0A4,4,0,0,1,8,4V68a4,4,0,0,1-8,0V4A4,4,0,0,1,4,0Z" transform="translate(32 280)" fill="#00629b"/><path d="M4,0A4,4,0,0,1,8,4V68a4,4,0,0,1-8,0V4A4,4,0,0,1,4,0Z" transform="translate(198 280)" fill="#00629b"/><path d="M4,0A4,4,0,0,1,8,4V68a4,4,0,0,1-8,0V4A4,4,0,0,1,4,0Z" transform="translate(87 280)" fill="#00629b"/><path d="M4,0A4,4,0,0,1,8,4V76a4,4,0,0,1-8,0V4A4,4,0,0,1,4,0Z" transform="translate(253 272)" fill="#00629b"/><path d="M4,0A4,4,0,0,1,8,4V68a4,4,0,0,1-8,0V4A4,4,0,0,1,4,0Z" transform="translate(115 280)" fill="#00629b"/><path d="M4,0A4,4,0,0,1,8,4V68a4,4,0,0,1-8,0V4A4,4,0,0,1,4,0Z" transform="translate(143 280)" fill="#00629b"/><path d="M4,0A4,4,0,0,1,8,4V23a4,4,0,0,1-8,0V4A4,4,0,0,1,4,0Z" transform="translate(170 264)" fill="#00a7b5"/><path d="M4,0A4,4,0,0,1,8,4V68a4,4,0,0,1-8,0V4A4,4,0,0,1,4,0Z" transform="translate(170 280)" fill="#00629b"/><path d="M4,0A4,4,0,0,1,8,4V23a4,4,0,0,1-8,0V4A4,4,0,0,1,4,0Z" transform="translate(60 264)" fill="#00a7b5"/><path d="M4,0A4,4,0,0,1,8,4V68a4,4,0,0,1-8,0V4A4,4,0,0,1,4,0Z" transform="translate(60 280)" fill="#00629b"/><path d="M4,0A4,4,0,0,1,8,4V43a4,4,0,0,1-8,0V4A4,4,0,0,1,4,0Z" transform="translate(225 264)" fill="#66b0db"/><path d="M4,0A4,4,0,0,1,8,4V68a4,4,0,0,1-8,0V4A4,4,0,0,1,4,0Z" transform="translate(225 280)" fill="#00629b"/><path d="M4,0A4,4,0,0,1,8,4V31a4,4,0,0,1-8,0V4A4,4,0,0,1,4,0Z" transform="translate(281 248)" fill="#00a7b5"/><path d="M4,0A4,4,0,0,1,8,4V76a4,4,0,0,1-8,0V4A4,4,0,0,1,4,0Z" transform="translate(281 272)" fill="#00629b"/><path d="M4,0A4,4,0,0,1,8,4V76a4,4,0,0,1-8,0V4A4,4,0,0,1,4,0Z" transform="translate(308 272)" fill="#00629b"/><path d="M4,0A4,4,0,0,1,8,4V76a4,4,0,0,1-8,0V4A4,4,0,0,1,4,0Z" transform="translate(336 272)" fill="#00629b"/><path d="M4.17,16H6.255V11.44l4.11-6.615H8.1L5.28,9.565H5.235l-2.85-4.74H.03l4.14,6.63Zm9.7.21a4.171,4.171,0,0,0,4.245-4.335,4.15,4.15,0,0,0-4.245-4.32,4.171,4.171,0,0,0-4.26,4.32A4.174,4.174,0,0,0,13.875,16.21Zm0-1.89A2.25,2.25,0,0,1,11.7,11.875a2.183,2.183,0,1,1,4.335,0A2.248,2.248,0,0,1,13.875,14.32Zm9.465,1.89A3.38,3.38,0,0,0,27,12.7V7.75H24.93V12.7a1.461,1.461,0,0,1-1.59,1.62,1.431,1.431,0,0,1-1.545-1.6V7.75h-2.07v4.965A3.34,3.34,0,0,0,23.34,16.21Zm11.19-4.335A2.371,2.371,0,0,1,36.975,9.43a3.592,3.592,0,0,1,2.13.645V8.125a4.754,4.754,0,0,0-2.385-.57,4.188,4.188,0,0,0-4.275,4.305,4.2,4.2,0,0,0,4.275,4.35,5.053,5.053,0,0,0,2.385-.585V13.69a3.561,3.561,0,0,1-2.115.63A2.366,2.366,0,0,1,34.53,11.875Zm9.465,4.335a3.2,3.2,0,0,0,2.79-1.56l.21,1.35h1.74V7.75h-1.74l-.21,1.35a3.188,3.188,0,0,0-2.79-1.545c-1.875,0-3.69,1.71-3.69,4.335C40.305,14.485,42.12,16.21,43.995,16.21Zm.57-1.89a2.25,2.25,0,0,1-2.175-2.445A2.25,2.25,0,0,1,44.565,9.43a2.226,2.226,0,0,1,2.13,2.445A2.226,2.226,0,0,1,44.565,14.32ZM55.26,7.555a2.91,2.91,0,0,0-2.49,1.38h-.045L52.5,7.75H50.895V16h2.07V11.065A1.572,1.572,0,0,1,54.6,9.445c.99,0,1.5.54,1.5,1.68V16h2.07V10.495A2.711,2.711,0,0,0,55.26,7.555Zm8.85,11.6h2.07V14.725a3.184,3.184,0,0,0,2.685,1.485c1.935,0,3.675-1.695,3.675-4.335s-1.785-4.32-3.72-4.32A3.174,3.174,0,0,0,66.06,9.1l-.21-1.35H64.11Zm4.17-4.83a2.235,2.235,0,0,1-2.13-2.445,2.169,2.169,0,1,1,4.305-.015A2.254,2.254,0,0,1,68.28,14.32Zm13.335-2.595c0-2.73-1.68-4.17-3.735-4.17a4.092,4.092,0,0,0-4.1,4.35,4.112,4.112,0,0,0,4.455,4.3A5.359,5.359,0,0,0,81.1,15.4V13.63a4.583,4.583,0,0,1-2.625.9,2.587,2.587,0,0,1-2.715-2.055h5.79A5.429,5.429,0,0,0,81.615,11.725ZM75.75,11.17a2.2,2.2,0,0,1,2.115-1.95,1.777,1.777,0,0,1,1.77,1.95ZM83.295,16h2.07V11.755A1.936,1.936,0,0,1,87.4,9.6a3.275,3.275,0,0,1,.66.06V7.72a2.464,2.464,0,0,0-.6-.06,2.574,2.574,0,0,0-2.28,1.35h-.03l-.21-1.26h-1.65Zm8.97-8.445c-2.025,0-3.24,1.08-3.24,2.565s1.215,1.995,2.55,2.37c1.11.33,1.755.525,1.755,1.11,0,.54-.525.885-1.455.885a4.186,4.186,0,0,1-2.82-1.08V15.37a5.022,5.022,0,0,0,2.91.84c2.13,0,3.375-1.035,3.375-2.625,0-1.71-1.44-2.16-2.76-2.505-1-.27-1.545-.48-1.545-1.005,0-.495.465-.81,1.305-.81a4.418,4.418,0,0,1,2.49.765V8.215A4.959,4.959,0,0,0,92.265,7.555ZM100.8,16.21a4.171,4.171,0,0,0,4.245-4.335,4.253,4.253,0,1,0-8.505,0A4.174,4.174,0,0,0,100.8,16.21Zm0-1.89a2.25,2.25,0,0,1-2.175-2.445,2.183,2.183,0,1,1,4.335,0A2.248,2.248,0,0,1,100.8,14.32Zm10.305-6.765a2.91,2.91,0,0,0-2.49,1.38h-.045l-.225-1.185h-1.6V16h2.07V11.065a1.572,1.572,0,0,1,1.635-1.62c.99,0,1.5.54,1.5,1.68V16h2.07V10.495A2.711,2.711,0,0,0,111.105,7.555Zm8.22,8.655a3.2,3.2,0,0,0,2.79-1.56l.21,1.35h1.74V7.75h-1.74l-.21,1.35a3.188,3.188,0,0,0-2.79-1.545c-1.875,0-3.69,1.71-3.69,4.335C115.635,14.485,117.45,16.21,119.325,16.21Zm.57-1.89a2.25,2.25,0,0,1-2.175-2.445,2.25,2.25,0,0,1,2.175-2.445,2.226,2.226,0,0,1,2.13,2.445A2.226,2.226,0,0,1,119.895,14.32Zm6.36,1.68h2.07V3.97h-2.07Zm4.275,0h2.07V3.97h-2.07Zm11.64-8.25h-2.13l-1.935,5.7h-.045l-1.92-5.7h-2.235l3.1,7.995-1.41,3.4h2.085Zm7.095-1.92H147.27V7.75h-1.215V9.475h1.2V12.91a2.967,2.967,0,0,0,3.225,3.255,5.31,5.31,0,0,0,1.185-.12v-1.77a4.364,4.364,0,0,1-.735.075c-.96,0-1.665-.435-1.665-1.545V9.475h2.25V7.75h-2.25ZM156.9,16.21a4.171,4.171,0,0,0,4.245-4.335,4.253,4.253,0,1,0-8.5,0A4.174,4.174,0,0,0,156.9,16.21Zm0-1.89a2.25,2.25,0,0,1-2.175-2.445,2.183,2.183,0,1,1,4.335,0A2.248,2.248,0,0,1,156.9,14.32Zm5.94,4.83h2.07V14.725A3.184,3.184,0,0,0,167.6,16.21c1.935,0,3.675-1.695,3.675-4.335s-1.785-4.32-3.72-4.32A3.174,3.174,0,0,0,164.79,9.1l-.21-1.35h-1.74Zm4.17-4.83a2.235,2.235,0,0,1-2.13-2.445,2.169,2.169,0,1,1,4.305-.015A2.254,2.254,0,0,1,167.01,14.32Zm5.9-2.3h4.215v-1.62H172.9Zm9.81,4.185a3.38,3.38,0,0,0,3.66-3.51V7.75H184.3V12.7a1.461,1.461,0,0,1-1.59,1.62,1.431,1.431,0,0,1-1.545-1.6V7.75H179.1v4.965A3.34,3.34,0,0,0,182.715,16.21Zm5.715,2.94h2.07V14.725a3.184,3.184,0,0,0,2.685,1.485c1.935,0,3.675-1.695,3.675-4.335s-1.785-4.32-3.72-4.32A3.174,3.174,0,0,0,190.38,9.1l-.21-1.35h-1.74Zm4.17-4.83a2.235,2.235,0,0,1-2.13-2.445,2.169,2.169,0,1,1,4.305-.015A2.254,2.254,0,0,1,192.6,14.32Zm16.425-6.435h-1.44l-2.235,6.18h-.03l-2.235-6.18h-1.5l3.03,7.83-1.4,3.435h1.41Zm4.845,8.3a4.026,4.026,0,0,0,4.02-4.23,4.04,4.04,0,1,0-8.07,0A4.032,4.032,0,0,0,213.87,16.18Zm0-1.29a2.717,2.717,0,0,1-2.655-2.94,2.663,2.663,0,1,1,5.295,0A2.724,2.724,0,0,1,213.87,14.89Zm9.225,1.29a3.126,3.126,0,0,0,3.36-3.3V7.885h-1.38V12.91a1.829,1.829,0,0,1-1.98,1.98,1.8,1.8,0,0,1-1.92-1.98V7.885h-1.38V12.88A3.087,3.087,0,0,0,223.1,16.18ZM228.87,16h1.38V11.38a2.1,2.1,0,0,1,2.175-2.28,3.492,3.492,0,0,1,.57.06V7.84a2.906,2.906,0,0,0-.54-.045,2.628,2.628,0,0,0-2.325,1.38h-.015l-.15-1.29h-1.1ZM3.81,32.705c-1.8,0-2.925,1.02-2.925,2.385,0,1.425,1.185,1.86,2.52,2.265,1.17.36,1.935.615,1.935,1.4,0,.72-.63,1.2-1.725,1.2a3.851,3.851,0,0,1-2.76-1.155V40.28a4.485,4.485,0,0,0,2.805.9c1.875,0,3.03-.96,3.03-2.445,0-1.635-1.41-2.04-2.655-2.4-1.1-.315-1.8-.585-1.8-1.305,0-.66.57-1.095,1.59-1.095a3.832,3.832,0,0,1,2.43.84V33.41A4.249,4.249,0,0,0,3.81,32.705Zm8.04,8.475a3.126,3.126,0,0,0,3.36-3.3V32.885H13.83V37.91a1.829,1.829,0,0,1-1.98,1.98,1.8,1.8,0,0,1-1.92-1.98V32.885H8.55V37.88A3.087,3.087,0,0,0,11.85,41.18Zm5.775,2.97H19V39.59a3.23,3.23,0,0,0,2.805,1.59c1.92,0,3.675-1.635,3.675-4.245,0-2.58-1.77-4.23-3.69-4.23a3.27,3.27,0,0,0-2.88,1.68l-.165-1.5H17.625Zm3.9-4.26a2.685,2.685,0,0,1-2.55-2.94,2.69,2.69,0,0,1,2.55-2.955,2.689,2.689,0,0,1,2.58,2.94A2.685,2.685,0,0,1,21.525,39.89Zm12.885-3.1c0-2.67-1.575-4.08-3.495-4.08A3.985,3.985,0,0,0,27,36.98a3.906,3.906,0,0,0,4.11,4.2,4.728,4.728,0,0,0,2.835-.9V38.915a4.193,4.193,0,0,1-2.73,1.065A2.766,2.766,0,0,1,28.35,37.4h6.015A3.684,3.684,0,0,0,34.41,36.785Zm-6.06-.42A2.635,2.635,0,0,1,30.9,33.9a2.211,2.211,0,0,1,2.175,2.46ZM36.39,41h1.38V36.38a2.1,2.1,0,0,1,2.175-2.28,3.492,3.492,0,0,1,.57.06V32.84a2.906,2.906,0,0,0-.54-.045,2.628,2.628,0,0,0-2.325,1.38h-.015l-.15-1.29h-1.1ZM47.145,29h-1.38V41H46.89l.165-1.485a3.239,3.239,0,0,0,2.88,1.665,3.921,3.921,0,0,0,3.69-4.23c0-2.61-1.755-4.245-3.66-4.245a3.192,3.192,0,0,0-2.82,1.6Zm2.52,4.995a2.694,2.694,0,0,1,2.58,2.955,2.59,2.59,0,1,1-5.13-.015A2.685,2.685,0,0,1,49.665,33.995Zm12.885,2.79c0-2.67-1.575-4.08-3.495-4.08A3.985,3.985,0,0,0,55.14,36.98a3.906,3.906,0,0,0,4.11,4.2,4.728,4.728,0,0,0,2.835-.9V38.915a4.193,4.193,0,0,1-2.73,1.065A2.766,2.766,0,0,1,56.49,37.4H62.5A3.684,3.684,0,0,0,62.55,36.785Zm-6.06-.42a2.635,2.635,0,0,1,2.55-2.46,2.211,2.211,0,0,1,2.175,2.46Zm14.3-3.48h-1.44l-2.235,6.18h-.03l-2.235-6.18h-1.5l3.03,7.83L64.98,44.15h1.41ZM75.63,41.18a4.026,4.026,0,0,0,4.02-4.23,4.04,4.04,0,1,0-8.07,0A4.032,4.032,0,0,0,75.63,41.18Zm0-1.29a2.717,2.717,0,0,1-2.655-2.94,2.664,2.664,0,1,1,5.3,0A2.724,2.724,0,0,1,75.63,39.89Zm9.78-7.185a2.927,2.927,0,0,0-2.49,1.41h-.045l-.15-1.23H81.66V41h1.38V36.05a1.962,1.962,0,0,1,2.025-2.025c1.215,0,1.86.675,1.86,2.1V41h1.38V35.63A2.725,2.725,0,0,0,85.41,32.705Zm8.5,8.475a3.279,3.279,0,0,0,2.895-1.665L96.975,41H98.1V29H96.72v5.295a3.185,3.185,0,0,0-2.805-1.59c-1.92,0-3.69,1.635-3.69,4.245A3.921,3.921,0,0,0,93.915,41.18Zm.285-1.29a2.7,2.7,0,0,1-2.6-2.94,2.6,2.6,0,1,1,5.145-.015A2.69,2.69,0,0,1,94.2,39.89Zm17.4-3.1c0-2.67-1.575-4.08-3.5-4.08a3.985,3.985,0,0,0-3.915,4.275,3.906,3.906,0,0,0,4.11,4.2,4.728,4.728,0,0,0,2.835-.9V38.915a4.193,4.193,0,0,1-2.73,1.065,2.766,2.766,0,0,1-2.865-2.58h6.015A3.684,3.684,0,0,0,111.6,36.785Zm-6.06-.42a2.635,2.635,0,0,1,2.55-2.46,2.211,2.211,0,0,1,2.175,2.46Zm16.065-3.66a2.6,2.6,0,0,0-2.34,1.425,2.237,2.237,0,0,0-2.25-1.425,2.422,2.422,0,0,0-2.175,1.38h-.045l-.15-1.2H113.58V41h1.38V35.885a1.711,1.711,0,0,1,1.68-1.86c1.08,0,1.545.615,1.545,1.785V41h1.38V35.81a1.685,1.685,0,0,1,1.695-1.785c1.08,0,1.53.615,1.53,1.785V41h1.38V35.585C124.17,33.89,123.375,32.705,121.6,32.705Zm5.01,11.445H128V39.59a3.23,3.23,0,0,0,2.805,1.59c1.92,0,3.675-1.635,3.675-4.245,0-2.58-1.77-4.23-3.69-4.23a3.27,3.27,0,0,0-2.88,1.68l-.165-1.5h-1.125Zm3.9-4.26a2.685,2.685,0,0,1-2.55-2.94,2.59,2.59,0,1,1,5.13-.015A2.685,2.685,0,0,1,130.515,39.89ZM136.53,41h1.38V29h-1.38Zm7.455.18a4.026,4.026,0,0,0,4.02-4.23,4.04,4.04,0,1,0-8.07,0A4.032,4.032,0,0,0,143.985,41.18Zm0-1.29a2.717,2.717,0,0,1-2.655-2.94,2.663,2.663,0,1,1,5.295,0A2.724,2.724,0,0,1,143.985,39.89Zm12.27-7h-1.44l-2.235,6.18h-.03l-2.235-6.18h-1.5l3.03,7.83-1.4,3.435h1.41Zm8.22,3.9c0-2.67-1.575-4.08-3.5-4.08a3.985,3.985,0,0,0-3.915,4.275,3.906,3.906,0,0,0,4.11,4.2,4.728,4.728,0,0,0,2.835-.9V38.915a4.193,4.193,0,0,1-2.73,1.065,2.766,2.766,0,0,1-2.865-2.58h6.015A3.684,3.684,0,0,0,164.475,36.785Zm-6.06-.42a2.635,2.635,0,0,1,2.55-2.46,2.211,2.211,0,0,1,2.175,2.46ZM166.455,41h1.38V36.38a2.1,2.1,0,0,1,2.175-2.28,3.492,3.492,0,0,1,.57.06V32.84a2.906,2.906,0,0,0-.54-.045,2.628,2.628,0,0,0-2.325,1.38H167.7l-.15-1.29h-1.1ZM2.13,61.935A2.8,2.8,0,0,1,4.9,58.995a3.424,3.424,0,0,1,2.175.69v-1.41a4.156,4.156,0,0,0-2.25-.57,4.24,4.24,0,0,0,0,8.475,4.5,4.5,0,0,0,2.25-.555V64.23a3.473,3.473,0,0,1-2.16.66A2.8,2.8,0,0,1,2.13,61.935ZM12.51,66.18a4.242,4.242,0,1,0-4.05-4.23A4.026,4.026,0,0,0,12.51,66.18Zm0-1.29a2.964,2.964,0,0,1,0-5.9,2.965,2.965,0,0,1,0,5.9Zm9.78-7.185a2.927,2.927,0,0,0-2.49,1.41h-.045l-.15-1.23H18.54V66h1.38V61.05a1.962,1.962,0,0,1,2.025-2.025c1.215,0,1.86.675,1.86,2.1V66h1.38V60.63A2.725,2.725,0,0,0,22.29,57.705Zm6.96-1.725H27.93v1.905H26.685v1.2H27.9v4.08a2.685,2.685,0,0,0,2.9,2.94,5.083,5.083,0,0,0,.96-.09v-1.2a4.2,4.2,0,0,1-.72.075A1.611,1.611,0,0,1,29.25,63.1v-4.02h2.325v-1.2H29.25ZM33.4,66h1.38V61.38A2.1,2.1,0,0,1,36.96,59.1a3.492,3.492,0,0,1,.57.06V57.84a2.906,2.906,0,0,0-.54-.045,2.628,2.628,0,0,0-2.325,1.38H34.65l-.15-1.29H33.4Zm6.36-9.975a.84.84,0,1,0-.855-.84A.824.824,0,0,0,39.765,56.025ZM39.075,66h1.38V57.885h-1.38Zm5.31-12H43V66H44.13l.165-1.485a3.239,3.239,0,0,0,2.88,1.665,3.921,3.921,0,0,0,3.69-4.23c0-2.61-1.755-4.245-3.66-4.245a3.192,3.192,0,0,0-2.82,1.6Zm2.52,4.995a2.978,2.978,0,1,1-2.55,2.94A2.694,2.694,0,0,1,46.9,58.995Zm9.18,7.185a3.126,3.126,0,0,0,3.36-3.3V57.885h-1.38V62.91a1.829,1.829,0,0,1-1.98,1.98,1.8,1.8,0,0,1-1.92-1.98V57.885h-1.38V62.88A3.087,3.087,0,0,0,56.085,66.18Zm7.47-10.2h-1.32v1.905H60.99v1.2H62.2v4.08a2.685,2.685,0,0,0,2.9,2.94,5.083,5.083,0,0,0,.96-.09v-1.2a4.2,4.2,0,0,1-.72.075A1.611,1.611,0,0,1,63.555,63.1v-4.02H65.88v-1.2H63.555Zm4.875.045a.84.84,0,1,0-.855-.84A.824.824,0,0,0,68.43,56.025ZM67.74,66h1.38V57.885H67.74Zm7.455.18a4.242,4.242,0,1,0-4.05-4.23A4.026,4.026,0,0,0,75.2,66.18Zm0-1.29a2.965,2.965,0,1,1,2.64-2.94A2.717,2.717,0,0,1,75.2,64.89Zm9.78-7.185a2.927,2.927,0,0,0-2.49,1.41H82.44l-.15-1.23H81.225V66H82.6V61.05a1.962,1.962,0,0,1,2.025-2.025c1.215,0,1.86.675,1.86,2.1V66h1.38V60.63A2.725,2.725,0,0,0,84.975,57.705Zm7.875,0c-1.8,0-2.925,1.02-2.925,2.385,0,1.425,1.185,1.86,2.52,2.265,1.17.36,1.935.615,1.935,1.4,0,.72-.63,1.2-1.725,1.2a3.851,3.851,0,0,1-2.76-1.155V65.28a4.485,4.485,0,0,0,2.805.9c1.875,0,3.03-.96,3.03-2.445,0-1.635-1.41-2.04-2.655-2.4-1.095-.315-1.8-.585-1.8-1.305,0-.66.57-1.095,1.59-1.095a3.832,3.832,0,0,1,2.43.84V58.41A4.249,4.249,0,0,0,92.85,57.705Zm5.475,8.37a.938.938,0,1,0-.93-.93A.916.916,0,0,0,98.325,66.075ZM107.73,66h1.395V56.145h3.51V54.84h-8.43v1.305h3.525ZM115.6,54h-1.38V66h1.38V60.975a1.875,1.875,0,0,1,2.025-1.98c1.245,0,1.86.69,1.86,2.115V66h1.38V60.63a2.675,2.675,0,0,0-2.925-2.925,2.793,2.793,0,0,0-2.325,1.155H115.6Zm8.43,2.025a.84.84,0,1,0-.855-.84A.824.824,0,0,0,124.035,56.025ZM123.345,66h1.38V57.885h-1.38Zm6.48-8.295c-1.8,0-2.925,1.02-2.925,2.385,0,1.425,1.185,1.86,2.52,2.265,1.17.36,1.935.615,1.935,1.4,0,.72-.63,1.2-1.725,1.2a3.851,3.851,0,0,1-2.76-1.155V65.28a4.485,4.485,0,0,0,2.805.9c1.875,0,3.03-.96,3.03-2.445,0-1.635-1.41-2.04-2.655-2.4-1.1-.315-1.8-.585-1.8-1.305,0-.66.57-1.095,1.59-1.095a3.832,3.832,0,0,1,2.43.84V58.41A4.249,4.249,0,0,0,129.825,57.705Zm9.81,4.23a2.8,2.8,0,0,1,2.775-2.94,3.424,3.424,0,0,1,2.175.69v-1.41a4.156,4.156,0,0,0-2.25-.57,4.24,4.24,0,0,0,0,8.475,4.5,4.5,0,0,0,2.25-.555V64.23a3.473,3.473,0,0,1-2.16.66A2.8,2.8,0,0,1,139.635,61.935Zm10.38,4.245a4.242,4.242,0,1,0-4.05-4.23A4.026,4.026,0,0,0,150.015,66.18Zm0-1.29a2.965,2.965,0,1,1,2.64-2.94A2.717,2.717,0,0,1,150.015,64.89Zm9.225,1.29a3.126,3.126,0,0,0,3.36-3.3V57.885h-1.38V62.91a1.829,1.829,0,0,1-1.98,1.98,1.8,1.8,0,0,1-1.92-1.98V57.885h-1.38V62.88A3.087,3.087,0,0,0,159.24,66.18Zm5.8-.18h1.38V54h-1.38Zm7.11.18a3.279,3.279,0,0,0,2.9-1.665L175.215,66h1.125V54h-1.38v5.295a3.185,3.185,0,0,0-2.8-1.59c-1.92,0-3.69,1.635-3.69,4.245A3.921,3.921,0,0,0,172.155,66.18Zm.285-1.29a2.978,2.978,0,1,1,2.55-2.955A2.7,2.7,0,0,1,172.44,64.89Zm17.4-3.1c0-2.67-1.575-4.08-3.5-4.08a3.985,3.985,0,0,0-3.915,4.275,3.906,3.906,0,0,0,4.11,4.2,4.728,4.728,0,0,0,2.835-.9V63.915a4.193,4.193,0,0,1-2.73,1.065,2.766,2.766,0,0,1-2.865-2.58h6.015A3.684,3.684,0,0,0,189.84,61.785Zm-6.06-.42a2.635,2.635,0,0,1,2.55-2.46,2.211,2.211,0,0,1,2.175,2.46ZM193.6,66h1.5l2.955-8.115h-1.425L194.4,64.47h-.045l-2.235-6.585h-1.47Zm12.69-4.215c0-2.67-1.575-4.08-3.5-4.08a3.985,3.985,0,0,0-3.915,4.275,3.906,3.906,0,0,0,4.11,4.2,4.728,4.728,0,0,0,2.835-.9V63.915a4.193,4.193,0,0,1-2.73,1.065,2.766,2.766,0,0,1-2.865-2.58h6.015A3.684,3.684,0,0,0,206.295,61.785Zm-6.06-.42a2.635,2.635,0,0,1,2.55-2.46,2.211,2.211,0,0,1,2.175,2.46Zm11.79-3.66a2.927,2.927,0,0,0-2.49,1.41h-.045l-.15-1.23h-1.065V66h1.38V61.05a1.962,1.962,0,0,1,2.025-2.025c1.215,0,1.86.675,1.86,2.1V66h1.38V60.63A2.725,2.725,0,0,0,212.025,57.705ZM1.08,91H3.15V86.755A1.936,1.936,0,0,1,5.19,84.6a3.275,3.275,0,0,1,.66.06V82.72a2.464,2.464,0,0,0-.6-.06,2.574,2.574,0,0,0-2.28,1.35H2.94l-.21-1.26H1.08Zm13.23-4.275c0-2.73-1.68-4.17-3.735-4.17a4.332,4.332,0,0,0,.36,8.655A5.359,5.359,0,0,0,13.8,90.4V88.63a4.583,4.583,0,0,1-2.625.9A2.587,2.587,0,0,1,8.46,87.475h5.79A5.428,5.428,0,0,0,14.31,86.725ZM8.445,86.17a2.2,2.2,0,0,1,2.115-1.95,1.777,1.777,0,0,1,1.77,1.95Zm10.8,5.04A3.188,3.188,0,0,0,22,89.65l.21,1.35h1.74V78.97h-2.07v5.055a3.049,3.049,0,0,0-2.655-1.47c-1.935,0-3.7,1.68-3.7,4.32S17.325,91.21,19.245,91.21Zm.54-1.89a2.462,2.462,0,0,1,0-4.89,2.468,2.468,0,0,1,0,4.89Zm9.855,1.89A3.38,3.38,0,0,0,33.3,87.7V82.75H31.23V87.7a1.461,1.461,0,0,1-1.59,1.62,1.431,1.431,0,0,1-1.545-1.605V82.75h-2.07v4.965A3.34,3.34,0,0,0,29.64,91.21Zm7.335-4.335A2.371,2.371,0,0,1,39.42,84.43a3.592,3.592,0,0,1,2.13.645v-1.95a4.754,4.754,0,0,0-2.385-.57,4.328,4.328,0,0,0,0,8.655,5.053,5.053,0,0,0,2.385-.585V88.69a3.561,3.561,0,0,1-2.115.63A2.366,2.366,0,0,1,36.975,86.875Zm13.6-.15c0-2.73-1.68-4.17-3.735-4.17a4.332,4.332,0,0,0,.36,8.655,5.359,5.359,0,0,0,2.865-.81V88.63a4.583,4.583,0,0,1-2.625.9,2.587,2.587,0,0,1-2.715-2.055h5.79A5.428,5.428,0,0,0,50.58,86.725Zm-5.865-.555a2.2,2.2,0,0,1,2.115-1.95,1.777,1.777,0,0,1,1.77,1.95ZM63.15,82.75H61.02l-1.935,5.7H59.04l-1.92-5.7H54.885l3.1,8-1.41,3.4h2.085Zm4.77,8.46a4.328,4.328,0,1,0-4.26-4.335A4.171,4.171,0,0,0,67.92,91.21Zm0-1.89a2.464,2.464,0,1,1,2.16-2.445A2.25,2.25,0,0,1,67.92,89.32Zm9.465,1.89a3.38,3.38,0,0,0,3.66-3.51V82.75h-2.07V87.7a1.461,1.461,0,0,1-1.59,1.62,1.431,1.431,0,0,1-1.545-1.605V82.75H73.77v4.965A3.34,3.34,0,0,0,77.385,91.21ZM83.1,91h2.07V86.755a1.936,1.936,0,0,1,2.04-2.16,3.275,3.275,0,0,1,.66.06V82.72a2.464,2.464,0,0,0-.6-.06,2.574,2.574,0,0,0-2.28,1.35h-.03l-.21-1.26H83.1ZM95.04,80.83h-2v1.92H91.83v1.725h1.2V87.91a2.967,2.967,0,0,0,3.225,3.255,5.31,5.31,0,0,0,1.185-.12v-1.77a4.364,4.364,0,0,1-.735.075c-.96,0-1.665-.435-1.665-1.545v-3.33h2.25V82.75H95.04Zm7.065,10.38a3.2,3.2,0,0,0,2.79-1.56l.21,1.35h1.74V82.75h-1.74l-.21,1.35a3.188,3.188,0,0,0-2.79-1.545c-1.875,0-3.69,1.71-3.69,4.335C98.415,89.485,100.23,91.21,102.105,91.21Zm.57-1.89a2.462,2.462,0,0,1,0-4.89,2.468,2.468,0,0,1,0,4.89Zm13.485-6.57h-2.235L112.2,85.5h-.015l-1.74-2.745H108.18l2.79,4.125L108.15,91h2.235l1.755-2.775h.03L113.925,91h2.34L113.4,86.8Zm2.175,8.325a.938.938,0,1,0-.93-.93A.916.916,0,0,0,118.335,91.075Zm11.4-.075h6.825V89.065h-4.725v-9.24h-2.1Zm15.42-4.275c0-2.73-1.68-4.17-3.735-4.17a4.332,4.332,0,0,0,.36,8.655,5.359,5.359,0,0,0,2.865-.81V88.63a4.583,4.583,0,0,1-2.625.9,2.587,2.587,0,0,1-2.715-2.055h5.79A5.428,5.428,0,0,0,145.155,86.725Zm-5.865-.555a2.2,2.2,0,0,1,2.115-1.95,1.777,1.777,0,0,1,1.77,1.95Zm10.77,5.04a3.2,3.2,0,0,0,2.79-1.56l.21,1.35h1.74V82.75h-1.74l-.21,1.35a3.188,3.188,0,0,0-2.79-1.545c-1.875,0-3.69,1.71-3.69,4.335C146.37,89.485,148.185,91.21,150.06,91.21Zm.57-1.89a2.462,2.462,0,0,1,0-4.89,2.468,2.468,0,0,1,0,4.89ZM156.96,91h2.07V86.755a1.936,1.936,0,0,1,2.04-2.16,3.275,3.275,0,0,1,.66.06V82.72a2.464,2.464,0,0,0-.6-.06,2.574,2.574,0,0,0-2.28,1.35h-.03l-.21-1.26h-1.65Zm10.455-8.445a2.91,2.91,0,0,0-2.49,1.38h-.045l-.225-1.185h-1.6V91h2.07V86.065a1.572,1.572,0,0,1,1.635-1.62c.99,0,1.5.54,1.5,1.68V91h2.07V85.5A2.711,2.711,0,0,0,167.415,82.555Zm17.655,0a2.668,2.668,0,0,0-2.37,1.41,2.348,2.348,0,0,0-2.31-1.41,2.509,2.509,0,0,0-2.25,1.365H178.1l-.225-1.17h-1.6V91h2.07V85.96a1.38,1.38,0,0,1,1.365-1.515c.9,0,1.26.5,1.26,1.485V91h2.07V85.87a1.33,1.33,0,0,1,1.365-1.425c.885,0,1.245.5,1.245,1.485V91h2.07V85.525C187.71,83.74,186.87,82.555,185.07,82.555ZM193.6,91.21a4.328,4.328,0,1,0-4.26-4.335A4.171,4.171,0,0,0,193.6,91.21Zm0-1.89a2.464,2.464,0,1,1,2.16-2.445A2.25,2.25,0,0,1,193.6,89.32Zm5.94,1.68h2.07V86.755a1.936,1.936,0,0,1,2.04-2.16,3.275,3.275,0,0,1,.66.06V82.72a2.464,2.464,0,0,0-.6-.06,2.574,2.574,0,0,0-2.28,1.35h-.03l-.21-1.26h-1.65Zm13.23-4.275c0-2.73-1.68-4.17-3.735-4.17a4.332,4.332,0,0,0,.36,8.655,5.359,5.359,0,0,0,2.865-.81V88.63a4.583,4.583,0,0,1-2.625.9,2.587,2.587,0,0,1-2.715-2.055h5.79A5.428,5.428,0,0,0,212.775,86.725Zm-5.865-.555a2.2,2.2,0,0,1,2.115-1.95,1.777,1.777,0,0,1,1.77,1.95Zm8.355,4.9a.938.938,0,1,0-.93-.93A.916.916,0,0,0,215.265,91.075Z" transform="translate(80 440)"/><path d="M2.23,0h.92V-7.47H3.06L.38-6.36v.97l1.85-.79ZM4.9,1.33h.89L9.14-8.76h-.9ZM10.07,0h.99l3.89-7.44H10.01v.87h3.52Zm4.62,1.33h.89L18.93-8.76h-.9ZM19.65,0h4.94V-.88H21.46c1.86-2.03,2.86-3.25,2.86-4.43a2.191,2.191,0,0,0-2.33-2.28,2.987,2.987,0,0,0-1.98.73v1.04a2.587,2.587,0,0,1,1.9-.89,1.412,1.412,0,0,1,1.47,1.45C23.38-4.39,22.96-3.7,19.65,0Zm8.9-7.59c-1.54,0-2.78,1.46-2.78,3.88S27.01.15,28.55.15s2.79-1.45,2.79-3.86S30.09-7.59,28.55-7.59Zm0,.88c1.02,0,1.86,1.1,1.86,3S29.57-.73,28.55-.73s-1.84-1.08-1.84-2.98S27.52-6.71,28.55-6.71ZM34.19,0h.92V-7.47h-.09L32.34-6.36v.97l1.85-.79Zm5.33-7.59a2.5,2.5,0,0,0-2.56,2.53,2.415,2.415,0,0,0,2.45,2.38,3.046,3.046,0,0,0,.41-.03L37.63,0h1.12l2.27-2.82a3.546,3.546,0,0,0,1.03-2.29A2.431,2.431,0,0,0,39.52-7.59Zm1.03,3.96a2.417,2.417,0,0,1-.95.2A1.645,1.645,0,0,1,37.89-5.1a1.607,1.607,0,0,1,1.63-1.64,1.587,1.587,0,0,1,1.61,1.65A2.266,2.266,0,0,1,40.55-3.63Zm5.46.84H48.6v-.8H46.01Zm6.87-4.13v.99a2.3,2.3,0,0,1,1.73-.79,1.272,1.272,0,0,1,1.43,1.24c0,.75-.56,1.28-1.69,1.28h-.72v.79h.93c1.08,0,1.72.55,1.72,1.33S55.65-.73,54.64-.73a2.543,2.543,0,0,1-1.96-.91V-.6a2.958,2.958,0,0,0,2.04.73A2.231,2.231,0,0,0,57.21-2a1.928,1.928,0,0,0-1.36-1.87v-.02A1.811,1.811,0,0,0,56.96-5.6a2.067,2.067,0,0,0-2.25-1.99A2.67,2.67,0,0,0,52.88-6.92Zm8.36-.67c-1.54,0-2.78,1.46-2.78,3.88S59.7.15,61.24.15s2.79-1.45,2.79-3.86S62.78-7.59,61.24-7.59Zm0,.88c1.02,0,1.86,1.1,1.86,3S62.26-.73,61.24-.73,59.4-1.81,59.4-3.71,60.21-6.71,61.24-6.71Zm3.54,8.04h.89L69.02-8.76h-.9Zm7.31-6.1a2.565,2.565,0,0,0-.5.05l2.18-2.72H72.66L70.44-4.67A3.568,3.568,0,0,0,69.4-2.36,2.491,2.491,0,0,0,71.98.15a2.486,2.486,0,0,0,2.58-2.54A2.441,2.441,0,0,0,72.09-4.77ZM71.98-.7a1.664,1.664,0,0,1-1.67-1.66,2.217,2.217,0,0,1,.56-1.44,2.22,2.22,0,0,1,.94-.21,1.692,1.692,0,0,1,1.83,1.67A1.645,1.645,0,0,1,71.98-.7Zm3.35,2.03h.89L79.57-8.76h-.9ZM80.29,0h4.94V-.88H82.1c1.86-2.03,2.86-3.25,2.86-4.43a2.191,2.191,0,0,0-2.33-2.28,2.987,2.987,0,0,0-1.98.73v1.04a2.587,2.587,0,0,1,1.9-.89,1.411,1.411,0,0,1,1.47,1.45C84.02-4.39,83.6-3.7,80.29,0Zm8.9-7.59c-1.54,0-2.78,1.46-2.78,3.88S87.65.15,89.19.15s2.79-1.45,2.79-3.86S90.73-7.59,89.19-7.59Zm0,.88c1.02,0,1.86,1.1,1.86,3S90.21-.73,89.19-.73s-1.84-1.08-1.84-2.98S88.16-6.71,89.19-6.71ZM92.97,0h4.94V-.88H94.78c1.86-2.03,2.86-3.25,2.86-4.43a2.191,2.191,0,0,0-2.33-2.28,2.987,2.987,0,0,0-1.98.73v1.04a2.587,2.587,0,0,1,1.9-.89A1.411,1.411,0,0,1,96.7-5.26C96.7-4.39,96.28-3.7,92.97,0Zm8.9-7.59c-1.54,0-2.78,1.46-2.78,3.88S100.33.15,101.87.15s2.79-1.45,2.79-3.86S103.41-7.59,101.87-7.59Zm0,.88c1.02,0,1.86,1.1,1.86,3s-.84,2.98-1.86,2.98-1.84-1.08-1.84-2.98S100.84-6.71,101.87-6.71Z" transform="translate(243 43)" fill="#5b6770"/><path d="M1.224,0h4.9V-1.032H2.34V-4.056h3.5V-5.04H2.34V-7.884H6.12V-8.928h-4.9Zm13.14-6.636A2.076,2.076,0,0,0,12.492-5.5a1.79,1.79,0,0,0-1.8-1.14,1.938,1.938,0,0,0-1.74,1.1H8.916l-.12-.96H7.944V0h1.1V-4.092A1.369,1.369,0,0,1,10.392-5.58c.864,0,1.236.492,1.236,1.428V0h1.1V-4.152A1.348,1.348,0,0,1,14.088-5.58c.864,0,1.224.492,1.224,1.428V0h1.1V-4.332C16.416-5.688,15.78-6.636,14.364-6.636ZM18.372,2.52h1.1V-1.128A2.584,2.584,0,0,0,21.72.144a3.118,3.118,0,0,0,2.94-3.4,3.129,3.129,0,0,0-2.952-3.384,2.616,2.616,0,0,0-2.3,1.344l-.132-1.2h-.9Zm3.12-3.408a2.148,2.148,0,0,1-2.04-2.352A2.152,2.152,0,0,1,21.492-5.6a2.151,2.151,0,0,1,2.064,2.352A2.148,2.148,0,0,1,21.492-.888ZM26.3,0h1.1V-9.6H26.3Zm5.964.144A3.22,3.22,0,0,0,35.484-3.24a3.224,3.224,0,0,0-3.216-3.4,3.236,3.236,0,0,0-3.24,3.4A3.225,3.225,0,0,0,32.268.144Zm0-1.032A2.174,2.174,0,0,1,30.144-3.24,2.185,2.185,0,0,1,32.268-5.6,2.183,2.183,0,0,1,34.38-3.24,2.179,2.179,0,0,1,32.268-.888Zm9.816-5.6H40.932L39.144-1.548H39.12L37.332-6.492h-1.2L38.556-.228,37.44,2.52h1.128Zm6.576,3.12c0-2.136-1.26-3.264-2.8-3.264a3.188,3.188,0,0,0-3.132,3.42A3.125,3.125,0,0,0,46.02.144a3.782,3.782,0,0,0,2.268-.72V-1.668A3.354,3.354,0,0,1,46.1-.816,2.213,2.213,0,0,1,43.812-2.88h4.812A2.947,2.947,0,0,0,48.66-3.372Zm-4.848-.336a2.108,2.108,0,0,1,2.04-1.968,1.769,1.769,0,0,1,1.74,1.968ZM50.244,0h1.1V-3.7a1.682,1.682,0,0,1,1.74-1.824,2.793,2.793,0,0,1,.456.048V-6.528a2.325,2.325,0,0,0-.432-.036,2.1,2.1,0,0,0-1.86,1.1H51.24l-.12-1.032h-.876Z" transform="translate(32 221)"/><path d="M3.372,0H4.464V-3.78L7.728-8.928H6.492L3.936-4.8H3.924L1.344-8.928H.084l3.288,5.16Zm7.236.144A3.22,3.22,0,0,0,13.824-3.24a3.224,3.224,0,0,0-3.216-3.4,3.236,3.236,0,0,0-3.24,3.4A3.225,3.225,0,0,0,10.608.144Zm0-1.032A2.174,2.174,0,0,1,8.484-3.24,2.185,2.185,0,0,1,10.608-5.6,2.183,2.183,0,0,1,12.72-3.24,2.179,2.179,0,0,1,10.608-.888ZM17.988.144A2.5,2.5,0,0,0,20.676-2.5v-4h-1.1v4.02A1.463,1.463,0,0,1,17.988-.888a1.438,1.438,0,0,1-1.536-1.584v-4.02h-1.1v4A2.469,2.469,0,0,0,17.988.144ZM22.608,0h1.1V-3.7a1.682,1.682,0,0,1,1.74-1.824,2.793,2.793,0,0,1,.456.048V-6.528a2.325,2.325,0,0,0-.432-.036,2.1,2.1,0,0,0-1.86,1.1H23.6l-.12-1.032h-.876ZM29.1-6.636c-1.44,0-2.34.816-2.34,1.908,0,1.14.948,1.488,2.016,1.812.936.288,1.548.492,1.548,1.116,0,.576-.5.96-1.38.96a3.081,3.081,0,0,1-2.208-.924V-.576a3.588,3.588,0,0,0,2.244.72c1.5,0,2.424-.768,2.424-1.956,0-1.308-1.128-1.632-2.124-1.92-.876-.252-1.44-.468-1.44-1.044,0-.528.456-.876,1.272-.876a3.066,3.066,0,0,1,1.944.672V-6.072A3.4,3.4,0,0,0,29.1-6.636Zm9.4,3.264c0-2.136-1.26-3.264-2.8-3.264a3.188,3.188,0,0,0-3.132,3.42A3.125,3.125,0,0,0,35.856.144a3.782,3.782,0,0,0,2.268-.72V-1.668a3.354,3.354,0,0,1-2.184.852A2.213,2.213,0,0,1,33.648-2.88H38.46A2.947,2.947,0,0,0,38.5-3.372Zm-4.848-.336a2.108,2.108,0,0,1,2.04-1.968,1.769,1.769,0,0,1,1.74,1.968ZM40.1,0h1.1V-9.6H40.1ZM43.6,0h1.1V-5.532h1.86v-.96H44.688V-7.32c0-.912.444-1.308,1.248-1.308a2.787,2.787,0,0,1,.948.168V-9.48a3.574,3.574,0,0,0-1.08-.18,2.1,2.1,0,0,0-2.208,2.2v.972H42.66v.96H43.6Z" transform="translate(152 221)"/><path d="M5.088.18A4.426,4.426,0,0,0,9.516-4.464,4.44,4.44,0,0,0,5.088-9.108,4.442,4.442,0,0,0,.648-4.464,4.421,4.421,0,0,0,5.088.18Zm0-1.056a3.35,3.35,0,0,1-3.3-3.588,3.344,3.344,0,0,1,3.3-3.588A3.348,3.348,0,0,1,8.376-4.464,3.348,3.348,0,0,1,5.088-.876Zm7.44-7.14H11.472v1.524h-1v.96h.972v3.264A2.148,2.148,0,0,0,13.764.084a4.067,4.067,0,0,0,.768-.072v-.96a3.357,3.357,0,0,1-.576.06,1.289,1.289,0,0,1-1.428-1.428V-5.532h1.86v-.96h-1.86ZM16.956-9.6h-1.1V0h1.1V-4.02A1.5,1.5,0,0,1,18.576-5.6c1,0,1.488.552,1.488,1.692V0h1.1V-4.3a2.14,2.14,0,0,0-2.34-2.34,2.234,2.234,0,0,0-1.86.924h-.012ZM28.644-3.372c0-2.136-1.26-3.264-2.8-3.264a3.188,3.188,0,0,0-3.132,3.42A3.125,3.125,0,0,0,26,.144a3.782,3.782,0,0,0,2.268-.72V-1.668a3.354,3.354,0,0,1-2.184.852A2.213,2.213,0,0,1,23.8-2.88h4.812A2.947,2.947,0,0,0,28.644-3.372ZM23.8-3.708a2.108,2.108,0,0,1,2.04-1.968,1.769,1.769,0,0,1,1.74,1.968ZM30.228,0h1.1V-3.7a1.682,1.682,0,0,1,1.74-1.824,2.793,2.793,0,0,1,.456.048V-6.528a2.325,2.325,0,0,0-.432-.036,2.1,2.1,0,0,0-1.86,1.1h-.012L31.1-6.492h-.876ZM36.72-6.636c-1.44,0-2.34.816-2.34,1.908,0,1.14.948,1.488,2.016,1.812.936.288,1.548.492,1.548,1.116,0,.576-.5.96-1.38.96a3.081,3.081,0,0,1-2.208-.924V-.576A3.588,3.588,0,0,0,36.6.144c1.5,0,2.424-.768,2.424-1.956,0-1.308-1.128-1.632-2.124-1.92-.876-.252-1.44-.468-1.44-1.044,0-.528.456-.876,1.272-.876a3.066,3.066,0,0,1,1.944.672V-6.072A3.4,3.4,0,0,0,36.72-6.636Z" transform="translate(272 221)"/><path d="M-6592,10a5.006,5.006,0,0,1-5-5,5.006,5.006,0,0,1,5-5,5,5,0,0,1,5,5A5,5,0,0,1-6592,10Zm0-6.071a.716.716,0,0,0-.713.717V7.5a.707.707,0,0,0,.713.717.716.716,0,0,0,.714-.717V4.645A.708.708,0,0,0-6592,3.929Zm0-2.143a.715.715,0,0,0-.713.714.715.715,0,0,0,.713.714.714.714,0,0,0,.714-.714A.714.714,0,0,0-6592,1.786Z" transform="translate(6688.001 211)" fill="#c1c6c8"/><path d="M-6592,10a5.006,5.006,0,0,1-5-5,5.006,5.006,0,0,1,5-5,5,5,0,0,1,5,5A5,5,0,0,1-6592,10Zm0-6.071a.716.716,0,0,0-.713.717V7.5a.707.707,0,0,0,.713.717.716.716,0,0,0,.714-.717V4.645A.708.708,0,0,0-6592,3.929Zm0-2.143a.715.715,0,0,0-.713.714.715.715,0,0,0,.713.714.714.714,0,0,0,.714-.714A.714.714,0,0,0-6592,1.786Z" transform="translate(6801.001 211)" fill="#c1c6c8"/><path d="M-6592,10a5.006,5.006,0,0,1-5-5,5.006,5.006,0,0,1,5-5,5,5,0,0,1,5,5A5,5,0,0,1-6592,10Zm0-6.071a.716.716,0,0,0-.713.717V7.5a.707.707,0,0,0,.713.717.716.716,0,0,0,.714-.717V4.645A.708.708,0,0,0-6592,3.929Zm0-2.143a.715.715,0,0,0-.713.714.715.715,0,0,0,.713.714.714.714,0,0,0,.714-.714A.714.714,0,0,0-6592,1.786Z" transform="translate(6914.001 211)" fill="#c1c6c8"/></g></svg>