<svg xmlns="http://www.w3.org/2000/svg" xmlns:xlink="http://www.w3.org/1999/xlink" width="375" height="628" viewBox="0 0 375 628"><defs><linearGradient id="a" x1="0.5" x2="0.5" y2="1" gradientUnits="objectBoundingBox"><stop offset="0" stop-color="#f8f8fc"/><stop offset="1" stop-color="#e1e2e8"/></linearGradient><filter id="b" x="8" y="372" width="80" height="80" filterUnits="userSpaceOnUse"><feOffset dy="4" input="SourceAlpha"/><feGaussianBlur stdDeviation="8" result="c"/><feFlood flood-opacity="0.122"/><feComposite operator="in" in2="c"/><feComposite in="SourceGraphic"/></filter><clipPath id="d"><circle cx="16" cy="16" r="16" transform="translate(0 0.001)" fill="#9bcbeb"/></clipPath><linearGradient id="e" x1="-2.152" y1="0.467" x2="1.172" y2="0.515" gradientUnits="objectBoundingBox"><stop offset="0.01"/><stop offset="1" stop-opacity="0"/></linearGradient><linearGradient id="f" x1="-1.499" y1="1.742" x2="1.059" y2="0.131" xlink:href="#e"/><linearGradient id="g" x1="0.337" y1="-1.05" x2="0.603" y2="1.481" xlink:href="#e"/><linearGradient id="h" x1="0.815" y1="0.239" x2="0.092" y2="0.732" gradientUnits="objectBoundingBox"><stop offset="0.02" stop-color="#fff" stop-opacity="0"/><stop offset="0.58" stop-color="#fff" stop-opacity="0.388"/><stop offset="1" stop-color="#fff"/></linearGradient><linearGradient id="i" x1="-0.26" y1="0.481" x2="1.302" y2="0.521" xlink:href="#h"/><linearGradient id="j" x1="0.538" y1="-0.383" x2="0.467" y2="1.403" xlink:href="#e"/><linearGradient id="k" x1="0.256" y1="-0.276" x2="0.721" y2="1.203" xlink:href="#e"/><linearGradient id="l" x1="0.253" y1="0.258" x2="0.455" y2="0.476" xlink:href="#e"/><linearGradient id="m" x1="0.413" y1="0.486" x2="1.01" y2="0.583" xlink:href="#e"/><linearGradient id="n" x1="0.014" y1="0.352" x2="0.779" y2="0.604" xlink:href="#e"/><linearGradient id="o" x1="0.555" y1="1.165" x2="0.461" y2="-0.341" xlink:href="#e"/><linearGradient id="p" x1="0.635" y1="0.055" x2="0.348" y2="0.907" gradientUnits="objectBoundingBox"><stop offset="0.02" stop-color="#fff" stop-opacity="0"/><stop offset="0.58" stop-color="#fff" stop-opacity="0.388"/><stop offset="0.68" stop-color="#fff" stop-opacity="0.678"/><stop offset="1" stop-color="#fff"/></linearGradient><linearGradient id="q" x1="0.185" y1="-0.258" x2="0.961" y2="1.606" xlink:href="#e"/><linearGradient id="r" x1="0.581" y1="1.071" x2="0.387" y2="-0.139" gradientUnits="objectBoundingBox"><stop offset="0" stop-color="#e1e2e8"/><stop offset="1" stop-color="#f8f8fc"/></linearGradient><filter id="s" x="20" y="150" width="176" height="184" filterUnits="userSpaceOnUse"><feOffset dy="2" input="SourceAlpha"/><feGaussianBlur stdDeviation="4" result="t"/><feFlood flood-opacity="0.031"/><feComposite operator="in" in2="t"/><feComposite in="SourceGraphic"/></filter><filter id="u" x="180" y="150" width="176" height="184" filterUnits="userSpaceOnUse"><feOffset dy="2" input="SourceAlpha"/><feGaussianBlur stdDeviation="4" result="v"/><feFlood flood-opacity="0.031"/><feComposite operator="in" in2="v"/><feComposite in="SourceGraphic"/></filter><clipPath id="x"><rect width="375" height="628"/></clipPath></defs><g id="w" clip-path="url(#x)"><rect width="375" height="628" fill="#fff"/><g transform="translate(0 -56)"><path d="M-1022.171-498H-1056l8-7.568V-674a16,16,0,0,1,16-16h256a16,16,0,0,1,16,16v160a16,16,0,0,1-16,16Z" transform="translate(1104 1121.999)" fill="url(#a)"/><g transform="translate(-8 26.999)"><g transform="matrix(1, 0, 0, 1, 8, 29)" filter="url(#b)"><circle cx="16" cy="16" r="16" transform="translate(32 392)" fill="#9bcbeb"/></g><g transform="translate(40 421)" clip-path="url(#d)"><g transform="translate(1.337 4.284)"><path d="M187.825,265.873a1.527,1.527,0,0,1,.06,1.218,1.554,1.554,0,0,1-.529.5l-1.916,1.3a2.575,2.575,0,0,1-1.2.54.887.887,0,0,1-.98-.694c-.044-.51.49-.858.74-1.305a2.67,2.67,0,0,0-.024-1.962,35.924,35.924,0,0,1-.941-4.979c.393-.161,1.537-.882,1.944-.762.458.139.872,1.42,1.076,1.838A33.288,33.288,0,0,1,187.825,265.873Z" transform="translate(-163.941 -233.218)" fill="#f1af8c"/><path d="M199.424,206.471a20.24,20.24,0,0,0,1.822,4.1.2.2,0,0,1,.043.129.2.2,0,0,1-.078.108,5.6,5.6,0,0,1-2.72,1.584.333.333,0,0,1-.205-.018.339.339,0,0,1-.128-.176,12.056,12.056,0,0,1-.887-4.947,20.363,20.363,0,0,1,.2-2.516c.028-.2.043-1.1.219-1.208.268-.158.562.394.679.568A10.289,10.289,0,0,1,199.424,206.471Z" transform="translate(-179.215 -184.806)" fill="#fff"/><path d="M205.78,205.54s.626.235,1.136,2,1.726,6.037,1.726,6.037-1.881.94-2.352.587S205.78,205.54,205.78,205.54Z" transform="translate(-187.749 -186.566)" fill="url(#e)"/><path d="M213.956,192.407a10.077,10.077,0,0,0-3.048.3,5.05,5.05,0,0,0-2.57,1.6,5.54,5.54,0,0,0-1.1,3.163,20.789,20.789,0,0,0,.192,3.4,53.867,53.867,0,0,1,.211,7.962c-.031.636-.394,3.956.053,4.41.278.286-.278.572.118.666a24.005,24.005,0,0,0,12.11-.9,3.667,3.667,0,0,0,1.944-1.542c.417-.815-.708-4.046-.843-4.952q-.612-4.15-.883-8.344a27.268,27.268,0,0,0-.242-3.785c-.185-.882-.752-1.122-1.572-1.338A19.777,19.777,0,0,0,213.956,192.407Z" transform="translate(-201.262 -175.249)" fill="#fff"/><path d="M228.14,231.913a3.163,3.163,0,0,0,.632,1.574,2.716,2.716,0,0,0,1.086.664c1.93.728,4.13.614,5.98,1.527a1.29,1.29,0,0,1,.355.232,1.125,1.125,0,0,1-.026,1.388,4.165,4.165,0,0,1-2.956,1.349,25.5,25.5,0,0,1-7.993.33.733.733,0,0,1-.4-.151.719.719,0,0,1-.168-.375c-.6-2.663-.128-5.436-.117-8.165,0-1.574-.139-3.15-.032-4.721a9.579,9.579,0,0,1,.6-2.856c.246-.622.965-2,1.4-.721a30.831,30.831,0,0,1,1.13,6.321C227.769,229.515,227.913,230.72,228.14,231.913Z" transform="translate(-218.107 -200.28)" fill="url(#f)"/><path d="M245.981,170.381c.46-.074.718-.536.512-1.649-.022-.124-.051-.243-.085-.362a.3.3,0,0,0-.018-.067c-.05-.172-.107-.344-.162-.515a3.758,3.758,0,0,1-.242-1.281,2.3,2.3,0,0,0-.08-.945,1.547,1.547,0,0,0-.515-.623c-.5-.382-1.944-1.1-2.221-.151a4.333,4.333,0,0,0-.028,1.293,3.888,3.888,0,0,1-.319,1.734C242.52,168.421,244.852,170.562,245.981,170.381Z" transform="translate(-230.811 -151.065)" fill="#f1af8c"/><path d="M247.7,176.149s-2.56-.972-3.054-2.509l2.728.893S247.443,175.939,247.7,176.149Z" transform="translate(-232.209 -159.095)" fill="url(#g)"/><path d="M299.865,206.337a17.2,17.2,0,0,1-1.4,8.5.632.632,0,0,1-.171.257.694.694,0,0,1-.417.1,5.11,5.11,0,0,1-3.174-1.019,1.216,1.216,0,0,1-.562-.8,1.308,1.308,0,0,1,.1-.51,56.424,56.424,0,0,1,2.478-6.041,3.438,3.438,0,0,1,1.666-1.9C299.406,204.534,299.794,205.576,299.865,206.337Z" transform="translate(-291.31 -185.959)" fill="#fff"/><path d="M250.925,192.638a13.993,13.993,0,0,1-1.866-2.725,4.5,4.5,0,0,1-.725-1.865.372.372,0,0,1,.035-.224.4.4,0,0,1,.128-.118l1.043-.707a2.1,2.1,0,0,0,1,1.558c.555.394,2.145.826,1.8,1.644A17.094,17.094,0,0,1,250.925,192.638Z" transform="translate(-237.409 -170.6)" fill="#00629b"/><path d="M233.893,191.862a18.308,18.308,0,0,0,1.043,1.792,1.354,1.354,0,0,0,.555.555.153.153,0,0,0,.1.014c.061-.021.075-.1.079-.165a10.931,10.931,0,0,0-.16-3.193,2.945,2.945,0,0,0-.45-1.029,2.85,2.85,0,0,0-.927-.576c.056.171.112.343.162.515a.168.168,0,0,1,.017.051v.015c.033.119.062.239.085.362C234.607,191.326,234.349,191.788,233.893,191.862Z" transform="translate(-218.724 -172.546)" fill="#00629b"/><path d="M250.925,192.638a13.993,13.993,0,0,1-1.866-2.725,4.5,4.5,0,0,1-.725-1.865.372.372,0,0,1,.035-.224.4.4,0,0,1,.128-.118l1.043-.707a2.1,2.1,0,0,0,1,1.558c.555.394,2.145.826,1.8,1.644A17.094,17.094,0,0,1,250.925,192.638Z" transform="translate(-237.409 -170.6)" fill="url(#h)"/><path d="M233.893,191.862a18.308,18.308,0,0,0,1.043,1.792,1.354,1.354,0,0,0,.555.555.153.153,0,0,0,.1.014c.061-.021.075-.1.079-.165a10.931,10.931,0,0,0-.16-3.193,2.945,2.945,0,0,0-.45-1.029,2.85,2.85,0,0,0-.927-.576c.056.171.112.343.162.515a.168.168,0,0,1,.017.051v.015c.033.119.062.239.085.362C234.607,191.326,234.349,191.788,233.893,191.862Z" transform="translate(-218.724 -172.546)" fill="url(#i)"/><path d="M252.273,278.994l-6.081-1.162a2.19,2.19,0,0,1-1.019-.375,1.524,1.524,0,0,1-.471-1.362,4.474,4.474,0,0,1,.5-1.413,46.129,46.129,0,0,1,2.627-4.811,7.683,7.683,0,0,1,2.857.821,1.045,1.045,0,0,1,.386.36c.365.694-.633,1.708-.972,2.235a1.308,1.308,0,0,0-.253.576.95.95,0,0,0,.081.432c.329.808,1.5,1.279,2.221,1.694a7.48,7.48,0,0,0,3.093,1.039,18.274,18.274,0,0,1,2.548.153,3.65,3.65,0,0,1,2.392,1.866,2.21,2.21,0,0,1-1.706-.011,9.986,9.986,0,0,0-3.228-.26C254.543,278.835,252.606,279.648,252.273,278.994Z" transform="translate(-244.69 -241.958)" fill="#f1af8c"/><path d="M236.222,70.622a4.243,4.243,0,0,0-1.3-.584,1.608,1.608,0,0,0-1.429.319,2.974,2.974,0,0,1,2.123,1.12.207.207,0,0,0,.107.092.2.2,0,0,0,.112-.021c.192-.072,1.627.255,1.71.082C237.539,71.63,236.4,70.729,236.222,70.622Z" transform="translate(-220.498 -69.843)" fill="#00629b"/><path d="M236.222,70.622a4.243,4.243,0,0,0-1.3-.584,1.608,1.608,0,0,0-1.429.319,2.974,2.974,0,0,1,2.123,1.12.207.207,0,0,0,.107.092.2.2,0,0,0,.112-.021c.192-.072,1.627.255,1.71.082C237.539,71.63,236.4,70.729,236.222,70.622Z" transform="translate(-220.498 -69.843)" fill="url(#j)"/><ellipse cx="1.686" cy="2.077" rx="1.686" ry="2.077" transform="translate(17.142 7.213)" fill="#00629b"/><ellipse cx="1.559" cy="1.922" rx="1.559" ry="1.922" transform="translate(16.923 7.602)" fill="#00629b"/><ellipse cx="1.559" cy="1.922" rx="1.559" ry="1.922" transform="translate(16.923 7.602)" fill="url(#k)"/><path d="M227.637,96.19l-.39,7.138a2.873,2.873,0,0,1-2.843,2.72,4.345,4.345,0,0,1-4.671-3.252c-.487-1.419-.927-5.587,0-6.739S225.879,92.068,227.637,96.19Z" transform="translate(-208.606 -90.537)" fill="#f1af8c"/><path d="M216.858,78.716a3.56,3.56,0,0,1,3.268,1.752,2.055,2.055,0,0,1,.039,1.767.742.742,0,0,0-.108.561,1.47,1.47,0,0,1-.6,1.25,3.441,3.441,0,0,0-.665.467l.068-1.329a.278.278,0,0,0-.211-.33l-.846-.394s-.261.19-.293.205a1.063,1.063,0,0,1-.444.085,6.246,6.246,0,0,1-.991-.056,9.365,9.365,0,0,1-2.051-.619.933.933,0,0,0,.253.547l-2.156.417a5.859,5.859,0,0,0-.757,1.413,4.926,4.926,0,0,0-.292,1.223,4.42,4.42,0,0,0,.157,1.692,1.775,1.775,0,0,1-.38-.4,2.184,2.184,0,0,1-.639.3.278.278,0,0,1-.149.013c-.106-.029-.128-.154-.139-.254a11.378,11.378,0,0,0-1.058-2.507,3.771,3.771,0,0,1,.383-3.16,2.547,2.547,0,0,1,.671-.783c.993-.728,2.4-.394,3.536-.775.539-.18.972-.523,1.487-.75A5.343,5.343,0,0,1,216.858,78.716Z" transform="translate(-199.856 -77.349)" fill="#3f3d56"/><path d="M216.858,78.716a3.56,3.56,0,0,1,3.268,1.752,2.055,2.055,0,0,1,.039,1.767.742.742,0,0,0-.108.561,1.47,1.47,0,0,1-.6,1.25,3.441,3.441,0,0,0-.665.467l.068-1.329a.278.278,0,0,0-.211-.33l-.846-.394s-.261.19-.293.205a1.063,1.063,0,0,1-.444.085,6.246,6.246,0,0,1-.991-.056,9.365,9.365,0,0,1-2.051-.619.933.933,0,0,0,.253.547l-2.156.417a5.859,5.859,0,0,0-.757,1.413,4.926,4.926,0,0,0-.292,1.223,4.42,4.42,0,0,0,.157,1.692,1.775,1.775,0,0,1-.38-.4,2.184,2.184,0,0,1-.639.3.278.278,0,0,1-.149.013c-.106-.029-.128-.154-.139-.254a11.378,11.378,0,0,0-1.058-2.507,3.771,3.771,0,0,1,.383-3.16,2.547,2.547,0,0,1,.671-.783c.993-.728,2.4-.394,3.536-.775.539-.18.972-.523,1.487-.75A5.343,5.343,0,0,1,216.858,78.716Z" transform="translate(-199.856 -77.349)" fill="url(#l)"/><ellipse cx="1.667" cy="2.056" rx="1.667" ry="2.056" transform="translate(7.876 7.49)" fill="#00629b"/><ellipse cx="1.667" cy="2.056" rx="1.667" ry="2.056" transform="translate(7.876 7.49)" fill="url(#m)"/><ellipse cx="1.667" cy="2.056" rx="1.667" ry="2.056" transform="translate(7.238 7.49)" fill="#00629b"/><path d="M249.75,76.529l.833.089.2.021.833-4.1a4.766,4.766,0,0,1,2.821-3.352,1.5,1.5,0,0,1,.641-.076l.568.051-.278-.074-.555-.147a1.829,1.829,0,0,0-.533-.065,3.929,3.929,0,0,0-3.4,2.963Z" transform="translate(-240.857 -68.876)" fill="#00629b"/><path d="M249.75,76.529l.833.089.2.021.833-4.1a4.766,4.766,0,0,1,2.821-3.352,1.5,1.5,0,0,1,.641-.076l.568.051-.278-.074-.555-.147a1.829,1.829,0,0,0-.533-.065,3.929,3.929,0,0,0-3.4,2.963Z" transform="translate(-240.857 -68.876)" fill="url(#n)"/><path d="M251.75,76.529l.833.089.833-4.11a4.816,4.816,0,0,1,2.85-3.382,1.465,1.465,0,0,1,.648-.078l.453.04-.555-.147a1.828,1.828,0,0,0-.533-.065,3.929,3.929,0,0,0-3.4,2.963Z" transform="translate(-242.857 -68.876)" fill="#00629b"/><path d="M214.792,101.417a1.766,1.766,0,0,0-1.316-.862,5.241,5.241,0,0,0-1.624.075c.521.417,1.974,1.037,2,1.148a3.384,3.384,0,0,1,.007.591c-.019.286-.029.586-.028.872a2.222,2.222,0,0,1,.447-.339,1.111,1.111,0,0,0,.375-.24A1.154,1.154,0,0,0,214.792,101.417Z" transform="translate(-194.864 -96.124)" fill="url(#o)"/><path d="M251.868,152.128a6.47,6.47,0,0,0,1.847-.308.278.278,0,0,0-.16-.533c-1.43.43-2.506.373-3.193-.169a2.823,2.823,0,0,1-.875-2.148.278.278,0,1,0-.555-.028,3.368,3.368,0,0,0,1.087,2.614A2.9,2.9,0,0,0,251.868,152.128Z" transform="translate(-239.011 -137.598)" fill="#00629b"/><path d="M251.868,152.128a6.47,6.47,0,0,0,1.847-.308.278.278,0,0,0-.16-.533c-1.43.43-2.506.373-3.193-.169a2.823,2.823,0,0,1-.875-2.148.278.278,0,1,0-.555-.028,3.368,3.368,0,0,0,1.087,2.614A2.9,2.9,0,0,0,251.868,152.128Z" transform="translate(-239.011 -137.598)" fill="url(#p)"/><path d="M238.374,160.465a.736.736,0,0,0-.351.38.659.659,0,0,0,.311.616,1.162,1.162,0,0,0,.576.278,1.337,1.337,0,0,0,.875-.311,1.158,1.158,0,0,0,.364-.351.878.878,0,0,0-.48-1.152C239.214,159.729,238.731,160.23,238.374,160.465Z" transform="translate(-223.816 -147.245)" fill="#00629b"/><path d="M238.374,160.465a.736.736,0,0,0-.351.38.659.659,0,0,0,.311.616,1.162,1.162,0,0,0,.576.278,1.337,1.337,0,0,0,.875-.311,1.158,1.158,0,0,0,.364-.351.878.878,0,0,0-.48-1.152C239.214,159.729,238.731,160.23,238.374,160.465Z" transform="translate(-223.816 -147.245)" fill="url(#q)"/></g></g></g></g><path d="M-714,270l6,6,6-6" transform="translate(895.5 338)" fill="none" stroke="#c1c6c8" stroke-width="2"/><text transform="translate(80 392.001)" font-size="15" font-family="HeroNew-Regular, Hero New"><tspan x="0" y="16">Review </tspan><tspan y="16" font-family="HeroNew-SemiBold, Hero New" font-weight="600">where you want your </tspan><tspan x="0" y="41" font-family="HeroNew-SemiBold, Hero New" font-weight="600">money to go</tspan><tspan y="41">, should you pass </tspan><tspan x="0" y="66">away.</tspan><tspan x="0" y="101">Remember binding nominations </tspan><tspan x="0" y="126">need renewal, or expire </tspan><tspan y="126" font-family="HeroNew-SemiBold, Hero New" font-weight="600">every 3 </tspan><tspan x="0" y="151" font-family="HeroNew-SemiBold, Hero New" font-weight="600">years</tspan><tspan y="151">.</tspan></text><text transform="translate(32 49)" font-size="20" font-family="HeroNew-ExtraBold, Hero New" font-weight="800" letter-spacing="0.05em"><tspan x="0" y="0">BENEFICIARIES</tspan></text><rect width="375" height="240" transform="translate(0 104)" opacity="0.6" fill="url(#r)"/><g transform="matrix(1, 0, 0, 1, 0, 0)" filter="url(#s)"><rect width="152" height="160" rx="8" transform="translate(32 160)" fill="#fff"/></g><g transform="matrix(1, 0, 0, 1, 0, 0)" filter="url(#u)"><rect width="152" height="160" rx="8" transform="translate(192 160)" fill="#fff"/></g><text transform="translate(32 141)" font-size="12" font-family="HeroNew-Bold, Hero New" font-weight="700"><tspan x="0" y="0">Your nominations</tspan></text><text transform="translate(48 191)" font-size="14" font-family="HeroNew-Bold, Hero New" font-weight="700"><tspan x="0" y="0">Binding</tspan></text><text transform="translate(208 191)" font-size="14" font-family="HeroNew-Bold, Hero New" font-weight="700"><tspan x="0" y="0">Non-binding</tspan></text><g transform="translate(559 -26)" fill="#aa0061"><path d="M -430.0002746582031 330.7500915527344 C -431.9555969238281 330.7500915527344 -433.804931640625 330.4676818847656 -435.2076416015625 329.9548950195312 C -437.309326171875 329.1865234375 -437.75048828125 328.1637573242188 -437.75048828125 327.4410705566406 C -437.75048828125 326.0312805175781 -437.2619018554688 324.6656799316406 -436.3746948242188 323.5959167480469 C -435.5102233886719 322.5535278320312 -434.3212585449219 321.8519592285156 -433.0190734863281 321.6139526367188 C -433.0912780761719 321.5349731445312 -433.1620483398438 321.4528198242188 -433.2310791015625 321.3677673339844 C -434.0359802246094 320.3762817382812 -434.497802734375 319.106689453125 -434.4981384277344 317.8846130371094 C -434.4981384277344 315.3290405273438 -432.4804077148438 313.2500915527344 -430.0002746582031 313.2500915527344 C -427.5203552246094 313.2500915527344 -425.5028076171875 315.3290405273438 -425.5028076171875 317.8843994140625 C -425.5028076171875 319.1065979003906 -425.96435546875 320.376220703125 -426.7691345214844 321.3677368164062 C -426.8381958007812 321.4528503417969 -426.908935546875 321.5349426269531 -426.981201171875 321.614013671875 C -425.6792907714844 321.8520202636719 -424.4905090332031 322.5535888671875 -423.6261596679688 323.595947265625 C -422.7390441894531 324.6657409667969 -422.25048828125 326.0313110351562 -422.25048828125 327.4410705566406 C -422.25048828125 328.1637573242188 -422.6915893554688 329.1865539550781 -424.7930603027344 329.9548645019531 C -426.1956176757812 330.4676818847656 -428.044921875 330.7500915527344 -430.0002746582031 330.7500915527344 Z" stroke="none"/><path d="M -430.0002746582031 330.0000915527344 C -426.1341857910156 330.0000915527344 -423.00048828125 328.8541259765625 -423.00048828125 327.4410705566406 C -423.00048828125 324.8690490722656 -424.8130798339844 322.7366027832031 -427.1866455078125 322.3394165039062 C -427.9137268066406 322.9130554199219 -428.8209838867188 323.2549743652344 -429.8034362792969 323.2549743652344 L -430.1976623535156 323.2549743652344 C -431.1801147460938 323.2549743652344 -432.087158203125 322.9130554199219 -432.8138122558594 322.3394165039062 C -435.1878051757812 322.7366027832031 -437.00048828125 324.8690490722656 -437.00048828125 327.4410705566406 C -437.00048828125 328.8541259765625 -433.8662109375 330.0000915527344 -430.0002746582031 330.0000915527344 M -430.0002746582031 322.2992553710938 C -427.9333801269531 322.2992553710938 -426.2528076171875 320.0264282226562 -426.2528076171875 317.8843994140625 C -426.2528076171875 315.7424621582031 -427.9333801269531 314.0000915527344 -430.0002746582031 314.0000915527344 C -432.0669860839844 314.0000915527344 -433.7481384277344 315.7424621582031 -433.7481384277344 317.8843994140625 C -433.74755859375 320.0264282226562 -432.0664367675781 322.2992553710938 -430.0002746582031 322.2992553710938 M -430.0002746582031 331.5000915527344 C -432.0412292480469 331.5000915527344 -433.9820251464844 331.2014770507812 -435.4651489257812 330.6592712402344 C -436.2792053222656 330.3616638183594 -436.940673828125 329.995849609375 -437.43115234375 329.5719604492188 C -438.3149719238281 328.8081665039062 -438.50048828125 327.9915771484375 -438.50048828125 327.4410705566406 C -438.50048828125 325.8568115234375 -437.9505615234375 324.3211975097656 -436.9519958496094 323.1171264648438 C -436.2294616699219 322.2459106445312 -435.30517578125 321.5851135253906 -434.2760009765625 321.1909484863281 C -434.8995056152344 320.1891174316406 -435.2478332519531 319.0201110839844 -435.2481384277344 317.8848266601562 C -435.2481384277344 314.9154663085938 -432.8939514160156 312.5000915527344 -430.0002746582031 312.5000915527344 C -427.1068115234375 312.5000915527344 -424.7528076171875 314.9154663085938 -424.7528076171875 317.8843994140625 C -424.7528076171875 319.0198974609375 -425.1009216308594 320.1890869140625 -425.7243957519531 321.1910400390625 C -424.6953430175781 321.585205078125 -423.7713012695312 322.2459411621094 -423.048828125 323.1171875 C -422.0503540039062 324.3212890625 -421.50048828125 325.8568725585938 -421.50048828125 327.4410705566406 C -421.50048828125 327.9915466308594 -421.6859741210938 328.80810546875 -422.5696411132812 329.5718688964844 C -423.0600891113281 329.9957885742188 -423.7214965820312 330.3616638183594 -424.5355224609375 330.6592712402344 C -426.0185241699219 331.2014770507812 -427.9592895507812 331.5000915527344 -430.0002746582031 331.5000915527344 Z" stroke="none" fill="#fff"/></g><g transform="translate(505 -26)" fill="#00629b"><path d="M -430.0002746582031 330.7500915527344 C -431.9555969238281 330.7500915527344 -433.804931640625 330.4676818847656 -435.2076416015625 329.9548950195312 C -437.309326171875 329.1865234375 -437.75048828125 328.1637573242188 -437.75048828125 327.4410705566406 C -437.75048828125 326.0312805175781 -437.2619018554688 324.6656799316406 -436.3746948242188 323.5959167480469 C -435.5102233886719 322.5535278320312 -434.3212585449219 321.8519592285156 -433.0190734863281 321.6139526367188 C -433.0912780761719 321.5349731445312 -433.1620483398438 321.4528198242188 -433.2310791015625 321.3677673339844 C -434.0359802246094 320.3762817382812 -434.497802734375 319.106689453125 -434.4981384277344 317.8846130371094 C -434.4981384277344 315.3290405273438 -432.4804077148438 313.2500915527344 -430.0002746582031 313.2500915527344 C -427.5203552246094 313.2500915527344 -425.5028076171875 315.3290405273438 -425.5028076171875 317.8843994140625 C -425.5028076171875 319.1065979003906 -425.96435546875 320.376220703125 -426.7691345214844 321.3677368164062 C -426.8381958007812 321.4528503417969 -426.908935546875 321.5349426269531 -426.981201171875 321.614013671875 C -425.6792907714844 321.8520202636719 -424.4905090332031 322.5535888671875 -423.6261596679688 323.595947265625 C -422.7390441894531 324.6657409667969 -422.25048828125 326.0313110351562 -422.25048828125 327.4410705566406 C -422.25048828125 328.1637573242188 -422.6915893554688 329.1865539550781 -424.7930603027344 329.9548645019531 C -426.1956176757812 330.4676818847656 -428.044921875 330.7500915527344 -430.0002746582031 330.7500915527344 Z" stroke="none"/><path d="M -430.0002746582031 330.0000915527344 C -426.1341857910156 330.0000915527344 -423.00048828125 328.8541259765625 -423.00048828125 327.4410705566406 C -423.00048828125 324.8690490722656 -424.8130798339844 322.7366027832031 -427.1866455078125 322.3394165039062 C -427.9137268066406 322.9130554199219 -428.8209838867188 323.2549743652344 -429.8034362792969 323.2549743652344 L -430.1976623535156 323.2549743652344 C -431.1801147460938 323.2549743652344 -432.087158203125 322.9130554199219 -432.8138122558594 322.3394165039062 C -435.1878051757812 322.7366027832031 -437.00048828125 324.8690490722656 -437.00048828125 327.4410705566406 C -437.00048828125 328.8541259765625 -433.8662109375 330.0000915527344 -430.0002746582031 330.0000915527344 M -430.0002746582031 322.2992553710938 C -427.9333801269531 322.2992553710938 -426.2528076171875 320.0264282226562 -426.2528076171875 317.8843994140625 C -426.2528076171875 315.7424621582031 -427.9333801269531 314.0000915527344 -430.0002746582031 314.0000915527344 C -432.0669860839844 314.0000915527344 -433.7481384277344 315.7424621582031 -433.7481384277344 317.8843994140625 C -433.74755859375 320.0264282226562 -432.0664367675781 322.2992553710938 -430.0002746582031 322.2992553710938 M -430.0002746582031 331.5000915527344 C -432.0412292480469 331.5000915527344 -433.9820251464844 331.2014770507812 -435.4651489257812 330.6592712402344 C -436.2792053222656 330.3616638183594 -436.940673828125 329.995849609375 -437.43115234375 329.5719604492188 C -438.3149719238281 328.8081665039062 -438.50048828125 327.9915771484375 -438.50048828125 327.4410705566406 C -438.50048828125 325.8568115234375 -437.9505615234375 324.3211975097656 -436.9519958496094 323.1171264648438 C -436.2294616699219 322.2459106445312 -435.30517578125 321.5851135253906 -434.2760009765625 321.1909484863281 C -434.8995056152344 320.1891174316406 -435.2478332519531 319.0201110839844 -435.2481384277344 317.8848266601562 C -435.2481384277344 314.9154663085938 -432.8939514160156 312.5000915527344 -430.0002746582031 312.5000915527344 C -427.1068115234375 312.5000915527344 -424.7528076171875 314.9154663085938 -424.7528076171875 317.8843994140625 C -424.7528076171875 319.0198974609375 -425.1009216308594 320.1890869140625 -425.7243957519531 321.1910400390625 C -424.6953430175781 321.585205078125 -423.7713012695312 322.2459411621094 -423.048828125 323.1171875 C -422.0503540039062 324.3212890625 -421.50048828125 325.8568725585938 -421.50048828125 327.4410705566406 C -421.50048828125 327.9915466308594 -421.6859741210938 328.80810546875 -422.5696411132812 329.5718688964844 C -423.0600891113281 329.9957885742188 -423.7214965820312 330.3616638183594 -424.5355224609375 330.6592712402344 C -426.0185241699219 331.2014770507812 -427.9592895507812 331.5000915527344 -430.0002746582031 331.5000915527344 Z" stroke="none" fill="#fff"/></g><text transform="translate(112 275)" fill="#aa0061" font-size="12" font-family="HeroNew-Medium, Hero New" font-weight="500"><tspan x="0" y="0">Expired</tspan></text><text transform="translate(208 250)" font-size="40" font-family="HeroNew-Bold, Hero New" font-weight="700"><tspan x="0" y="0">0</tspan></text><text transform="translate(48 250)" font-size="40" font-family="HeroNew-Bold, Hero New" font-weight="700"><tspan x="0" y="0">3</tspan></text><text transform="translate(112 250)" fill="#aa0061" font-size="40" font-family="HeroNew-Bold, Hero New" font-weight="700"><tspan x="0" y="0">2</tspan></text><path d="M-6592,10a5.006,5.006,0,0,1-5-5,5.006,5.006,0,0,1,5-5,5,5,0,0,1,5,5A5,5,0,0,1-6592,10Zm0-6.071a.716.716,0,0,0-.713.717V7.5a.707.707,0,0,0,.713.717.716.716,0,0,0,.714-.717V4.645A.708.708,0,0,0-6592,3.929Zm0-2.143a.715.715,0,0,0-.713.714.715.715,0,0,0,.713.714.714.714,0,0,0,.714-.714A.714.714,0,0,0-6592,1.786Z" transform="translate(6755.001 176)" fill="#c1c6c8"/><path d="M-6592,10a5.006,5.006,0,0,1-5-5,5.006,5.006,0,0,1,5-5,5,5,0,0,1,5,5A5,5,0,0,1-6592,10Zm0-6.071a.716.716,0,0,0-.713.717V7.5a.707.707,0,0,0,.713.717.716.716,0,0,0,.714-.717V4.645A.708.708,0,0,0-6592,3.929Zm0-2.143a.715.715,0,0,0-.713.714.715.715,0,0,0,.713.714.714.714,0,0,0,.714-.714A.714.714,0,0,0-6592,1.786Z" transform="translate(6915.001 176)" fill="#c1c6c8"/><text transform="translate(48 275)" font-size="12" font-family="HeroNew-Medium, Hero New" font-weight="500"><tspan x="0" y="0">Valid</tspan></text><text transform="translate(208 276)" font-size="12" font-family="HeroNew-Medium, Hero New" font-weight="500"><tspan x="0" y="0">Valid</tspan></text><g transform="translate(495 -26)" fill="#00629b"><path d="M -430.0002746582031 330.7500915527344 C -431.9555969238281 330.7500915527344 -433.804931640625 330.4676818847656 -435.2076416015625 329.9548950195312 C -437.309326171875 329.1865234375 -437.75048828125 328.1637573242188 -437.75048828125 327.4410705566406 C -437.75048828125 326.0312805175781 -437.2619018554688 324.6656799316406 -436.3746948242188 323.5959167480469 C -435.5102233886719 322.5535278320312 -434.3212585449219 321.8519592285156 -433.0190734863281 321.6139526367188 C -433.0912780761719 321.5349731445312 -433.1620483398438 321.4528198242188 -433.2310791015625 321.3677673339844 C -434.0359802246094 320.3762817382812 -434.497802734375 319.106689453125 -434.4981384277344 317.8846130371094 C -434.4981384277344 315.3290405273438 -432.4804077148438 313.2500915527344 -430.0002746582031 313.2500915527344 C -427.5203552246094 313.2500915527344 -425.5028076171875 315.3290405273438 -425.5028076171875 317.8843994140625 C -425.5028076171875 319.1065979003906 -425.96435546875 320.376220703125 -426.7691345214844 321.3677368164062 C -426.8381958007812 321.4528503417969 -426.908935546875 321.5349426269531 -426.981201171875 321.614013671875 C -425.6792907714844 321.8520202636719 -424.4905090332031 322.5535888671875 -423.6261596679688 323.595947265625 C -422.7390441894531 324.6657409667969 -422.25048828125 326.0313110351562 -422.25048828125 327.4410705566406 C -422.25048828125 328.1637573242188 -422.6915893554688 329.1865539550781 -424.7930603027344 329.9548645019531 C -426.1956176757812 330.4676818847656 -428.044921875 330.7500915527344 -430.0002746582031 330.7500915527344 Z" stroke="none"/><path d="M -430.0002746582031 330.0000915527344 C -426.1341857910156 330.0000915527344 -423.00048828125 328.8541259765625 -423.00048828125 327.4410705566406 C -423.00048828125 324.8690490722656 -424.8130798339844 322.7366027832031 -427.1866455078125 322.3394165039062 C -427.9137268066406 322.9130554199219 -428.8209838867188 323.2549743652344 -429.8034362792969 323.2549743652344 L -430.1976623535156 323.2549743652344 C -431.1801147460938 323.2549743652344 -432.087158203125 322.9130554199219 -432.8138122558594 322.3394165039062 C -435.1878051757812 322.7366027832031 -437.00048828125 324.8690490722656 -437.00048828125 327.4410705566406 C -437.00048828125 328.8541259765625 -433.8662109375 330.0000915527344 -430.0002746582031 330.0000915527344 M -430.0002746582031 322.2992553710938 C -427.9333801269531 322.2992553710938 -426.2528076171875 320.0264282226562 -426.2528076171875 317.8843994140625 C -426.2528076171875 315.7424621582031 -427.9333801269531 314.0000915527344 -430.0002746582031 314.0000915527344 C -432.0669860839844 314.0000915527344 -433.7481384277344 315.7424621582031 -433.7481384277344 317.8843994140625 C -433.74755859375 320.0264282226562 -432.0664367675781 322.2992553710938 -430.0002746582031 322.2992553710938 M -430.0002746582031 331.5000915527344 C -432.0412292480469 331.5000915527344 -433.9820251464844 331.2014770507812 -435.4651489257812 330.6592712402344 C -436.2792053222656 330.3616638183594 -436.940673828125 329.995849609375 -437.43115234375 329.5719604492188 C -438.3149719238281 328.8081665039062 -438.50048828125 327.9915771484375 -438.50048828125 327.4410705566406 C -438.50048828125 325.8568115234375 -437.9505615234375 324.3211975097656 -436.9519958496094 323.1171264648438 C -436.2294616699219 322.2459106445312 -435.30517578125 321.5851135253906 -434.2760009765625 321.1909484863281 C -434.8995056152344 320.1891174316406 -435.2478332519531 319.0201110839844 -435.2481384277344 317.8848266601562 C -435.2481384277344 314.9154663085938 -432.8939514160156 312.5000915527344 -430.0002746582031 312.5000915527344 C -427.1068115234375 312.5000915527344 -424.7528076171875 314.9154663085938 -424.7528076171875 317.8843994140625 C -424.7528076171875 319.0198974609375 -425.1009216308594 320.1890869140625 -425.7243957519531 321.1910400390625 C -424.6953430175781 321.585205078125 -423.7713012695312 322.2459411621094 -423.048828125 323.1171875 C -422.0503540039062 324.3212890625 -421.50048828125 325.8568725585938 -421.50048828125 327.4410705566406 C -421.50048828125 327.9915466308594 -421.6859741210938 328.80810546875 -422.5696411132812 329.5718688964844 C -423.0600891113281 329.9957885742188 -423.7214965820312 330.3616638183594 -424.5355224609375 330.6592712402344 C -426.0185241699219 331.2014770507812 -427.9592895507812 331.5000915527344 -430.0002746582031 331.5000915527344 Z" stroke="none" fill="#fff"/></g><g transform="translate(485 -26)" fill="#00629b"><path d="M -430.0002746582031 330.7500915527344 C -431.9555969238281 330.7500915527344 -433.804931640625 330.4676818847656 -435.2076416015625 329.9548950195312 C -437.309326171875 329.1865234375 -437.75048828125 328.1637573242188 -437.75048828125 327.4410705566406 C -437.75048828125 326.0312805175781 -437.2619018554688 324.6656799316406 -436.3746948242188 323.5959167480469 C -435.5102233886719 322.5535278320312 -434.3212585449219 321.8519592285156 -433.0190734863281 321.6139526367188 C -433.0912780761719 321.5349731445312 -433.1620483398438 321.4528198242188 -433.2310791015625 321.3677673339844 C -434.0359802246094 320.3762817382812 -434.497802734375 319.106689453125 -434.4981384277344 317.8846130371094 C -434.4981384277344 315.3290405273438 -432.4804077148438 313.2500915527344 -430.0002746582031 313.2500915527344 C -427.5203552246094 313.2500915527344 -425.5028076171875 315.3290405273438 -425.5028076171875 317.8843994140625 C -425.5028076171875 319.1065979003906 -425.96435546875 320.376220703125 -426.7691345214844 321.3677368164062 C -426.8381958007812 321.4528503417969 -426.908935546875 321.5349426269531 -426.981201171875 321.614013671875 C -425.6792907714844 321.8520202636719 -424.4905090332031 322.5535888671875 -423.6261596679688 323.595947265625 C -422.7390441894531 324.6657409667969 -422.25048828125 326.0313110351562 -422.25048828125 327.4410705566406 C -422.25048828125 328.1637573242188 -422.6915893554688 329.1865539550781 -424.7930603027344 329.9548645019531 C -426.1956176757812 330.4676818847656 -428.044921875 330.7500915527344 -430.0002746582031 330.7500915527344 Z" stroke="none"/><path d="M -430.0002746582031 330.0000915527344 C -426.1341857910156 330.0000915527344 -423.00048828125 328.8541259765625 -423.00048828125 327.4410705566406 C -423.00048828125 324.8690490722656 -424.8130798339844 322.7366027832031 -427.1866455078125 322.3394165039062 C -427.9137268066406 322.9130554199219 -428.8209838867188 323.2549743652344 -429.8034362792969 323.2549743652344 L -430.1976623535156 323.2549743652344 C -431.1801147460938 323.2549743652344 -432.087158203125 322.9130554199219 -432.8138122558594 322.3394165039062 C -435.1878051757812 322.7366027832031 -437.00048828125 324.8690490722656 -437.00048828125 327.4410705566406 C -437.00048828125 328.8541259765625 -433.8662109375 330.0000915527344 -430.0002746582031 330.0000915527344 M -430.0002746582031 322.2992553710938 C -427.9333801269531 322.2992553710938 -426.2528076171875 320.0264282226562 -426.2528076171875 317.8843994140625 C -426.2528076171875 315.7424621582031 -427.9333801269531 314.0000915527344 -430.0002746582031 314.0000915527344 C -432.0669860839844 314.0000915527344 -433.7481384277344 315.7424621582031 -433.7481384277344 317.8843994140625 C -433.74755859375 320.0264282226562 -432.0664367675781 322.2992553710938 -430.0002746582031 322.2992553710938 M -430.0002746582031 331.5000915527344 C -432.0412292480469 331.5000915527344 -433.9820251464844 331.2014770507812 -435.4651489257812 330.6592712402344 C -436.2792053222656 330.3616638183594 -436.940673828125 329.995849609375 -437.43115234375 329.5719604492188 C -438.3149719238281 328.8081665039062 -438.50048828125 327.9915771484375 -438.50048828125 327.4410705566406 C -438.50048828125 325.8568115234375 -437.9505615234375 324.3211975097656 -436.9519958496094 323.1171264648438 C -436.2294616699219 322.2459106445312 -435.30517578125 321.5851135253906 -434.2760009765625 321.1909484863281 C -434.8995056152344 320.1891174316406 -435.2478332519531 319.0201110839844 -435.2481384277344 317.8848266601562 C -435.2481384277344 314.9154663085938 -432.8939514160156 312.5000915527344 -430.0002746582031 312.5000915527344 C -427.1068115234375 312.5000915527344 -424.7528076171875 314.9154663085938 -424.7528076171875 317.8843994140625 C -424.7528076171875 319.0198974609375 -425.1009216308594 320.1890869140625 -425.7243957519531 321.1910400390625 C -424.6953430175781 321.585205078125 -423.7713012695312 322.2459411621094 -423.048828125 323.1171875 C -422.0503540039062 324.3212890625 -421.50048828125 325.8568725585938 -421.50048828125 327.4410705566406 C -421.50048828125 327.9915466308594 -421.6859741210938 328.80810546875 -422.5696411132812 329.5718688964844 C -423.0600891113281 329.9957885742188 -423.7214965820312 330.3616638183594 -424.5355224609375 330.6592712402344 C -426.0185241699219 331.2014770507812 -427.9592895507812 331.5000915527344 -430.0002746582031 331.5000915527344 Z" stroke="none" fill="#fff"/></g><g transform="translate(645 -26)" fill="#e1e2e8"><path d="M -430.0002746582031 330.7500915527344 C -431.9555969238281 330.7500915527344 -433.804931640625 330.4676818847656 -435.2076416015625 329.9548950195312 C -437.309326171875 329.1865234375 -437.75048828125 328.1637573242188 -437.75048828125 327.4410705566406 C -437.75048828125 326.0312805175781 -437.2619018554688 324.6656799316406 -436.3746948242188 323.5959167480469 C -435.5102233886719 322.5535278320312 -434.3212585449219 321.8519592285156 -433.0190734863281 321.6139526367188 C -433.0912780761719 321.5349731445312 -433.1620483398438 321.4528198242188 -433.2310791015625 321.3677673339844 C -434.0359802246094 320.3762817382812 -434.497802734375 319.106689453125 -434.4981384277344 317.8846130371094 C -434.4981384277344 315.3290405273438 -432.4804077148438 313.2500915527344 -430.0002746582031 313.2500915527344 C -427.5203552246094 313.2500915527344 -425.5028076171875 315.3290405273438 -425.5028076171875 317.8843994140625 C -425.5028076171875 319.1065979003906 -425.96435546875 320.376220703125 -426.7691345214844 321.3677368164062 C -426.8381958007812 321.4528503417969 -426.908935546875 321.5349426269531 -426.981201171875 321.614013671875 C -425.6792907714844 321.8520202636719 -424.4905090332031 322.5535888671875 -423.6261596679688 323.595947265625 C -422.7390441894531 324.6657409667969 -422.25048828125 326.0313110351562 -422.25048828125 327.4410705566406 C -422.25048828125 328.1637573242188 -422.6915893554688 329.1865539550781 -424.7930603027344 329.9548645019531 C -426.1956176757812 330.4676818847656 -428.044921875 330.7500915527344 -430.0002746582031 330.7500915527344 Z" stroke="none"/><path d="M -430.0002746582031 330.0000915527344 C -426.1341857910156 330.0000915527344 -423.00048828125 328.8541259765625 -423.00048828125 327.4410705566406 C -423.00048828125 324.8690490722656 -424.8130798339844 322.7366027832031 -427.1866455078125 322.3394165039062 C -427.9137268066406 322.9130554199219 -428.8209838867188 323.2549743652344 -429.8034362792969 323.2549743652344 L -430.1976623535156 323.2549743652344 C -431.1801147460938 323.2549743652344 -432.087158203125 322.9130554199219 -432.8138122558594 322.3394165039062 C -435.1878051757812 322.7366027832031 -437.00048828125 324.8690490722656 -437.00048828125 327.4410705566406 C -437.00048828125 328.8541259765625 -433.8662109375 330.0000915527344 -430.0002746582031 330.0000915527344 M -430.0002746582031 322.2992553710938 C -427.9333801269531 322.2992553710938 -426.2528076171875 320.0264282226562 -426.2528076171875 317.8843994140625 C -426.2528076171875 315.7424621582031 -427.9333801269531 314.0000915527344 -430.0002746582031 314.0000915527344 C -432.0669860839844 314.0000915527344 -433.7481384277344 315.7424621582031 -433.7481384277344 317.8843994140625 C -433.74755859375 320.0264282226562 -432.0664367675781 322.2992553710938 -430.0002746582031 322.2992553710938 M -430.0002746582031 331.5000915527344 C -432.0412292480469 331.5000915527344 -433.9820251464844 331.2014770507812 -435.4651489257812 330.6592712402344 C -436.2792053222656 330.3616638183594 -436.940673828125 329.995849609375 -437.43115234375 329.5719604492188 C -438.3149719238281 328.8081665039062 -438.50048828125 327.9915771484375 -438.50048828125 327.4410705566406 C -438.50048828125 325.8568115234375 -437.9505615234375 324.3211975097656 -436.9519958496094 323.1171264648438 C -436.2294616699219 322.2459106445312 -435.30517578125 321.5851135253906 -434.2760009765625 321.1909484863281 C -434.8995056152344 320.1891174316406 -435.2478332519531 319.0201110839844 -435.2481384277344 317.8848266601562 C -435.2481384277344 314.9154663085938 -432.8939514160156 312.5000915527344 -430.0002746582031 312.5000915527344 C -427.1068115234375 312.5000915527344 -424.7528076171875 314.9154663085938 -424.7528076171875 317.8843994140625 C -424.7528076171875 319.0198974609375 -425.1009216308594 320.1890869140625 -425.7243957519531 321.1910400390625 C -424.6953430175781 321.585205078125 -423.7713012695312 322.2459411621094 -423.048828125 323.1171875 C -422.0503540039062 324.3212890625 -421.50048828125 325.8568725585938 -421.50048828125 327.4410705566406 C -421.50048828125 327.9915466308594 -421.6859741210938 328.80810546875 -422.5696411132812 329.5718688964844 C -423.0600891113281 329.9957885742188 -423.7214965820312 330.3616638183594 -424.5355224609375 330.6592712402344 C -426.0185241699219 331.2014770507812 -427.9592895507812 331.5000915527344 -430.0002746582031 331.5000915527344 Z" stroke="none" fill="#fff"/></g><g transform="translate(549 -26)" fill="#aa0061"><path d="M -430.0002746582031 330.7500915527344 C -431.9555969238281 330.7500915527344 -433.804931640625 330.4676818847656 -435.2076416015625 329.9548950195312 C -437.309326171875 329.1865234375 -437.75048828125 328.1637573242188 -437.75048828125 327.4410705566406 C -437.75048828125 326.0312805175781 -437.2619018554688 324.6656799316406 -436.3746948242188 323.5959167480469 C -435.5102233886719 322.5535278320312 -434.3212585449219 321.8519592285156 -433.0190734863281 321.6139526367188 C -433.0912780761719 321.5349731445312 -433.1620483398438 321.4528198242188 -433.2310791015625 321.3677673339844 C -434.0359802246094 320.3762817382812 -434.497802734375 319.106689453125 -434.4981384277344 317.8846130371094 C -434.4981384277344 315.3290405273438 -432.4804077148438 313.2500915527344 -430.0002746582031 313.2500915527344 C -427.5203552246094 313.2500915527344 -425.5028076171875 315.3290405273438 -425.5028076171875 317.8843994140625 C -425.5028076171875 319.1065979003906 -425.96435546875 320.376220703125 -426.7691345214844 321.3677368164062 C -426.8381958007812 321.4528503417969 -426.908935546875 321.5349426269531 -426.981201171875 321.614013671875 C -425.6792907714844 321.8520202636719 -424.4905090332031 322.5535888671875 -423.6261596679688 323.595947265625 C -422.7390441894531 324.6657409667969 -422.25048828125 326.0313110351562 -422.25048828125 327.4410705566406 C -422.25048828125 328.1637573242188 -422.6915893554688 329.1865539550781 -424.7930603027344 329.9548645019531 C -426.1956176757812 330.4676818847656 -428.044921875 330.7500915527344 -430.0002746582031 330.7500915527344 Z" stroke="none"/><path d="M -430.0002746582031 330.0000915527344 C -426.1341857910156 330.0000915527344 -423.00048828125 328.8541259765625 -423.00048828125 327.4410705566406 C -423.00048828125 324.8690490722656 -424.8130798339844 322.7366027832031 -427.1866455078125 322.3394165039062 C -427.9137268066406 322.9130554199219 -428.8209838867188 323.2549743652344 -429.8034362792969 323.2549743652344 L -430.1976623535156 323.2549743652344 C -431.1801147460938 323.2549743652344 -432.087158203125 322.9130554199219 -432.8138122558594 322.3394165039062 C -435.1878051757812 322.7366027832031 -437.00048828125 324.8690490722656 -437.00048828125 327.4410705566406 C -437.00048828125 328.8541259765625 -433.8662109375 330.0000915527344 -430.0002746582031 330.0000915527344 M -430.0002746582031 322.2992553710938 C -427.9333801269531 322.2992553710938 -426.2528076171875 320.0264282226562 -426.2528076171875 317.8843994140625 C -426.2528076171875 315.7424621582031 -427.9333801269531 314.0000915527344 -430.0002746582031 314.0000915527344 C -432.0669860839844 314.0000915527344 -433.7481384277344 315.7424621582031 -433.7481384277344 317.8843994140625 C -433.74755859375 320.0264282226562 -432.0664367675781 322.2992553710938 -430.0002746582031 322.2992553710938 M -430.0002746582031 331.5000915527344 C -432.0412292480469 331.5000915527344 -433.9820251464844 331.2014770507812 -435.4651489257812 330.6592712402344 C -436.2792053222656 330.3616638183594 -436.940673828125 329.995849609375 -437.43115234375 329.5719604492188 C -438.3149719238281 328.8081665039062 -438.50048828125 327.9915771484375 -438.50048828125 327.4410705566406 C -438.50048828125 325.8568115234375 -437.9505615234375 324.3211975097656 -436.9519958496094 323.1171264648438 C -436.2294616699219 322.2459106445312 -435.30517578125 321.5851135253906 -434.2760009765625 321.1909484863281 C -434.8995056152344 320.1891174316406 -435.2478332519531 319.0201110839844 -435.2481384277344 317.8848266601562 C -435.2481384277344 314.9154663085938 -432.8939514160156 312.5000915527344 -430.0002746582031 312.5000915527344 C -427.1068115234375 312.5000915527344 -424.7528076171875 314.9154663085938 -424.7528076171875 317.8843994140625 C -424.7528076171875 319.0198974609375 -425.1009216308594 320.1890869140625 -425.7243957519531 321.1910400390625 C -424.6953430175781 321.585205078125 -423.7713012695312 322.2459411621094 -423.048828125 323.1171875 C -422.0503540039062 324.3212890625 -421.50048828125 325.8568725585938 -421.50048828125 327.4410705566406 C -421.50048828125 327.9915466308594 -421.6859741210938 328.80810546875 -422.5696411132812 329.5718688964844 C -423.0600891113281 329.9957885742188 -423.7214965820312 330.3616638183594 -424.5355224609375 330.6592712402344 C -426.0185241699219 331.2014770507812 -427.9592895507812 331.5000915527344 -430.0002746582031 331.5000915527344 Z" stroke="none" fill="#fff"/></g><text transform="translate(243 43)" fill="#5b6770" font-size="10" font-family="HeroNew-Regular, Hero New"><tspan x="0" y="0">Updated: 22/7/2020</tspan></text></g></svg>