<svg xmlns="http://www.w3.org/2000/svg" xmlns:xlink="http://www.w3.org/1999/xlink" width="375" height="628" viewBox="0 0 375 628"><defs><linearGradient id="a" x1="0.5" x2="0.5" y2="1" gradientUnits="objectBoundingBox"><stop offset="0" stop-color="#f8f8fc"/><stop offset="1" stop-color="#e1e2e8"/></linearGradient><filter id="b" x="8" y="372" width="80" height="80" filterUnits="userSpaceOnUse"><feOffset dy="4" input="SourceAlpha"/><feGaussianBlur stdDeviation="8" result="c"/><feFlood flood-opacity="0.122"/><feComposite operator="in" in2="c"/><feComposite in="SourceGraphic"/></filter><clipPath id="d"><circle cx="16" cy="16" r="16" transform="translate(0 0.001)" fill="#9bcbeb"/></clipPath><linearGradient id="e" x1="-2.152" y1="0.467" x2="1.172" y2="0.515" gradientUnits="objectBoundingBox"><stop offset="0.01"/><stop offset="1" stop-opacity="0"/></linearGradient><linearGradient id="f" x1="-1.499" y1="1.742" x2="1.059" y2="0.131" xlink:href="#e"/><linearGradient id="g" x1="0.337" y1="-1.05" x2="0.603" y2="1.481" xlink:href="#e"/><linearGradient id="h" x1="0.815" y1="0.239" x2="0.092" y2="0.732" gradientUnits="objectBoundingBox"><stop offset="0.02" stop-color="#fff" stop-opacity="0"/><stop offset="0.58" stop-color="#fff" stop-opacity="0.388"/><stop offset="1" stop-color="#fff"/></linearGradient><linearGradient id="i" x1="-0.26" y1="0.481" x2="1.302" y2="0.521" xlink:href="#h"/><linearGradient id="j" x1="0.538" y1="-0.383" x2="0.467" y2="1.403" xlink:href="#e"/><linearGradient id="k" x1="0.256" y1="-0.276" x2="0.721" y2="1.203" xlink:href="#e"/><linearGradient id="l" x1="0.253" y1="0.258" x2="0.455" y2="0.476" xlink:href="#e"/><linearGradient id="m" x1="0.413" y1="0.486" x2="1.01" y2="0.583" xlink:href="#e"/><linearGradient id="n" x1="0.014" y1="0.352" x2="0.779" y2="0.604" xlink:href="#e"/><linearGradient id="o" x1="0.555" y1="1.165" x2="0.461" y2="-0.341" xlink:href="#e"/><linearGradient id="p" x1="0.635" y1="0.055" x2="0.348" y2="0.907" gradientUnits="objectBoundingBox"><stop offset="0.02" stop-color="#fff" stop-opacity="0"/><stop offset="0.58" stop-color="#fff" stop-opacity="0.388"/><stop offset="0.68" stop-color="#fff" stop-opacity="0.678"/><stop offset="1" stop-color="#fff"/></linearGradient><linearGradient id="q" x1="0.185" y1="-0.258" x2="0.961" y2="1.606" xlink:href="#e"/><linearGradient id="r" x1="0.581" y1="1.071" x2="0.387" y2="-0.139" gradientUnits="objectBoundingBox"><stop offset="0" stop-color="#e1e2e8"/><stop offset="1" stop-color="#f8f8fc"/></linearGradient><filter id="s" x="20" y="150" width="176" height="184" filterUnits="userSpaceOnUse"><feOffset dy="2" input="SourceAlpha"/><feGaussianBlur stdDeviation="4" result="t"/><feFlood flood-opacity="0.031"/><feComposite operator="in" in2="t"/><feComposite in="SourceGraphic"/></filter><filter id="u" x="180" y="150" width="176" height="184" filterUnits="userSpaceOnUse"><feOffset dy="2" input="SourceAlpha"/><feGaussianBlur stdDeviation="4" result="v"/><feFlood flood-opacity="0.031"/><feComposite operator="in" in2="v"/><feComposite in="SourceGraphic"/></filter><clipPath id="x"><rect width="375" height="628"/></clipPath></defs><g id="w" clip-path="url(#x)"><rect width="375" height="628" fill="#fff"/><path d="M-1022.171-498H-1056l8-7.568V-674a16,16,0,0,1,16-16h256a16,16,0,0,1,16,16v160a16,16,0,0,1-16,16Z" transform="translate(1104 1066)" fill="url(#a)"/><g transform="translate(-8 -29)"><g transform="matrix(1, 0, 0, 1, 8, 29)" filter="url(#b)"><circle cx="16" cy="16" r="16" transform="translate(32 392)" fill="#9bcbeb"/></g><g transform="translate(40 421)" clip-path="url(#d)"><g transform="translate(1.337 4.284)"><path d="M187.825,265.873a1.527,1.527,0,0,1,.06,1.218,1.554,1.554,0,0,1-.529.5l-1.916,1.3a2.575,2.575,0,0,1-1.2.54.887.887,0,0,1-.98-.694c-.044-.51.49-.858.74-1.305a2.67,2.67,0,0,0-.024-1.962,35.924,35.924,0,0,1-.941-4.979c.393-.161,1.537-.882,1.944-.762.458.139.872,1.42,1.076,1.838A33.288,33.288,0,0,1,187.825,265.873Z" transform="translate(-163.941 -233.218)" fill="#f1af8c"/><path d="M199.424,206.471a20.24,20.24,0,0,0,1.822,4.1.2.2,0,0,1,.043.129.2.2,0,0,1-.078.108,5.6,5.6,0,0,1-2.72,1.584.333.333,0,0,1-.205-.018.339.339,0,0,1-.128-.176,12.056,12.056,0,0,1-.887-4.947,20.363,20.363,0,0,1,.2-2.516c.028-.2.043-1.1.219-1.208.268-.158.562.394.679.568A10.289,10.289,0,0,1,199.424,206.471Z" transform="translate(-179.215 -184.806)" fill="#fff"/><path d="M205.78,205.54s.626.235,1.136,2,1.726,6.037,1.726,6.037-1.881.94-2.352.587S205.78,205.54,205.78,205.54Z" transform="translate(-187.749 -186.566)" fill="url(#e)"/><path d="M213.956,192.407a10.077,10.077,0,0,0-3.048.3,5.05,5.05,0,0,0-2.57,1.6,5.54,5.54,0,0,0-1.1,3.163,20.789,20.789,0,0,0,.192,3.4,53.867,53.867,0,0,1,.211,7.962c-.031.636-.394,3.956.053,4.41.278.286-.278.572.118.666a24.005,24.005,0,0,0,12.11-.9,3.667,3.667,0,0,0,1.944-1.542c.417-.815-.708-4.046-.843-4.952q-.612-4.15-.883-8.344a27.268,27.268,0,0,0-.242-3.785c-.185-.882-.752-1.122-1.572-1.338A19.777,19.777,0,0,0,213.956,192.407Z" transform="translate(-201.262 -175.249)" fill="#fff"/><path d="M228.14,231.913a3.163,3.163,0,0,0,.632,1.574,2.716,2.716,0,0,0,1.086.664c1.93.728,4.13.614,5.98,1.527a1.29,1.29,0,0,1,.355.232,1.125,1.125,0,0,1-.026,1.388,4.165,4.165,0,0,1-2.956,1.349,25.5,25.5,0,0,1-7.993.33.733.733,0,0,1-.4-.151.719.719,0,0,1-.168-.375c-.6-2.663-.128-5.436-.117-8.165,0-1.574-.139-3.15-.032-4.721a9.579,9.579,0,0,1,.6-2.856c.246-.622.965-2,1.4-.721a30.831,30.831,0,0,1,1.13,6.321C227.769,229.515,227.913,230.72,228.14,231.913Z" transform="translate(-218.107 -200.28)" fill="url(#f)"/><path d="M245.981,170.381c.46-.074.718-.536.512-1.649-.022-.124-.051-.243-.085-.362a.3.3,0,0,0-.018-.067c-.05-.172-.107-.344-.162-.515a3.758,3.758,0,0,1-.242-1.281,2.3,2.3,0,0,0-.08-.945,1.547,1.547,0,0,0-.515-.623c-.5-.382-1.944-1.1-2.221-.151a4.333,4.333,0,0,0-.028,1.293,3.888,3.888,0,0,1-.319,1.734C242.52,168.421,244.852,170.562,245.981,170.381Z" transform="translate(-230.811 -151.065)" fill="#f1af8c"/><path d="M247.7,176.149s-2.56-.972-3.054-2.509l2.728.893S247.443,175.939,247.7,176.149Z" transform="translate(-232.209 -159.095)" fill="url(#g)"/><path d="M299.865,206.337a17.2,17.2,0,0,1-1.4,8.5.632.632,0,0,1-.171.257.694.694,0,0,1-.417.1,5.11,5.11,0,0,1-3.174-1.019,1.216,1.216,0,0,1-.562-.8,1.308,1.308,0,0,1,.1-.51,56.424,56.424,0,0,1,2.478-6.041,3.438,3.438,0,0,1,1.666-1.9C299.406,204.534,299.794,205.576,299.865,206.337Z" transform="translate(-291.31 -185.959)" fill="#fff"/><path d="M250.925,192.638a13.993,13.993,0,0,1-1.866-2.725,4.5,4.5,0,0,1-.725-1.865.372.372,0,0,1,.035-.224.4.4,0,0,1,.128-.118l1.043-.707a2.1,2.1,0,0,0,1,1.558c.555.394,2.145.826,1.8,1.644A17.094,17.094,0,0,1,250.925,192.638Z" transform="translate(-237.409 -170.6)" fill="#00629b"/><path d="M233.893,191.862a18.308,18.308,0,0,0,1.043,1.792,1.354,1.354,0,0,0,.555.555.153.153,0,0,0,.1.014c.061-.021.075-.1.079-.165a10.931,10.931,0,0,0-.16-3.193,2.945,2.945,0,0,0-.45-1.029,2.85,2.85,0,0,0-.927-.576c.056.171.112.343.162.515a.168.168,0,0,1,.017.051v.015c.033.119.062.239.085.362C234.607,191.326,234.349,191.788,233.893,191.862Z" transform="translate(-218.724 -172.546)" fill="#00629b"/><path d="M250.925,192.638a13.993,13.993,0,0,1-1.866-2.725,4.5,4.5,0,0,1-.725-1.865.372.372,0,0,1,.035-.224.4.4,0,0,1,.128-.118l1.043-.707a2.1,2.1,0,0,0,1,1.558c.555.394,2.145.826,1.8,1.644A17.094,17.094,0,0,1,250.925,192.638Z" transform="translate(-237.409 -170.6)" fill="url(#h)"/><path d="M233.893,191.862a18.308,18.308,0,0,0,1.043,1.792,1.354,1.354,0,0,0,.555.555.153.153,0,0,0,.1.014c.061-.021.075-.1.079-.165a10.931,10.931,0,0,0-.16-3.193,2.945,2.945,0,0,0-.45-1.029,2.85,2.85,0,0,0-.927-.576c.056.171.112.343.162.515a.168.168,0,0,1,.017.051v.015c.033.119.062.239.085.362C234.607,191.326,234.349,191.788,233.893,191.862Z" transform="translate(-218.724 -172.546)" fill="url(#i)"/><path d="M252.273,278.994l-6.081-1.162a2.19,2.19,0,0,1-1.019-.375,1.524,1.524,0,0,1-.471-1.362,4.474,4.474,0,0,1,.5-1.413,46.129,46.129,0,0,1,2.627-4.811,7.683,7.683,0,0,1,2.857.821,1.045,1.045,0,0,1,.386.36c.365.694-.633,1.708-.972,2.235a1.308,1.308,0,0,0-.253.576.95.95,0,0,0,.081.432c.329.808,1.5,1.279,2.221,1.694a7.48,7.48,0,0,0,3.093,1.039,18.274,18.274,0,0,1,2.548.153,3.65,3.65,0,0,1,2.392,1.866,2.21,2.21,0,0,1-1.706-.011,9.986,9.986,0,0,0-3.228-.26C254.543,278.835,252.606,279.648,252.273,278.994Z" transform="translate(-244.69 -241.958)" fill="#f1af8c"/><path d="M236.222,70.622a4.243,4.243,0,0,0-1.3-.584,1.608,1.608,0,0,0-1.429.319,2.974,2.974,0,0,1,2.123,1.12.207.207,0,0,0,.107.092.2.2,0,0,0,.112-.021c.192-.072,1.627.255,1.71.082C237.539,71.63,236.4,70.729,236.222,70.622Z" transform="translate(-220.498 -69.843)" fill="#00629b"/><path d="M236.222,70.622a4.243,4.243,0,0,0-1.3-.584,1.608,1.608,0,0,0-1.429.319,2.974,2.974,0,0,1,2.123,1.12.207.207,0,0,0,.107.092.2.2,0,0,0,.112-.021c.192-.072,1.627.255,1.71.082C237.539,71.63,236.4,70.729,236.222,70.622Z" transform="translate(-220.498 -69.843)" fill="url(#j)"/><ellipse cx="1.686" cy="2.077" rx="1.686" ry="2.077" transform="translate(17.142 7.213)" fill="#00629b"/><ellipse cx="1.559" cy="1.922" rx="1.559" ry="1.922" transform="translate(16.923 7.602)" fill="#00629b"/><ellipse cx="1.559" cy="1.922" rx="1.559" ry="1.922" transform="translate(16.923 7.602)" fill="url(#k)"/><path d="M227.637,96.19l-.39,7.138a2.873,2.873,0,0,1-2.843,2.72,4.345,4.345,0,0,1-4.671-3.252c-.487-1.419-.927-5.587,0-6.739S225.879,92.068,227.637,96.19Z" transform="translate(-208.606 -90.537)" fill="#f1af8c"/><path d="M216.858,78.716a3.56,3.56,0,0,1,3.268,1.752,2.055,2.055,0,0,1,.039,1.767.742.742,0,0,0-.108.561,1.47,1.47,0,0,1-.6,1.25,3.441,3.441,0,0,0-.665.467l.068-1.329a.278.278,0,0,0-.211-.33l-.846-.394s-.261.19-.293.205a1.063,1.063,0,0,1-.444.085,6.246,6.246,0,0,1-.991-.056,9.365,9.365,0,0,1-2.051-.619.933.933,0,0,0,.253.547l-2.156.417a5.859,5.859,0,0,0-.757,1.413,4.926,4.926,0,0,0-.292,1.223,4.42,4.42,0,0,0,.157,1.692,1.775,1.775,0,0,1-.38-.4,2.184,2.184,0,0,1-.639.3.278.278,0,0,1-.149.013c-.106-.029-.128-.154-.139-.254a11.378,11.378,0,0,0-1.058-2.507,3.771,3.771,0,0,1,.383-3.16,2.547,2.547,0,0,1,.671-.783c.993-.728,2.4-.394,3.536-.775.539-.18.972-.523,1.487-.75A5.343,5.343,0,0,1,216.858,78.716Z" transform="translate(-199.856 -77.349)" fill="#3f3d56"/><path d="M216.858,78.716a3.56,3.56,0,0,1,3.268,1.752,2.055,2.055,0,0,1,.039,1.767.742.742,0,0,0-.108.561,1.47,1.47,0,0,1-.6,1.25,3.441,3.441,0,0,0-.665.467l.068-1.329a.278.278,0,0,0-.211-.33l-.846-.394s-.261.19-.293.205a1.063,1.063,0,0,1-.444.085,6.246,6.246,0,0,1-.991-.056,9.365,9.365,0,0,1-2.051-.619.933.933,0,0,0,.253.547l-2.156.417a5.859,5.859,0,0,0-.757,1.413,4.926,4.926,0,0,0-.292,1.223,4.42,4.42,0,0,0,.157,1.692,1.775,1.775,0,0,1-.38-.4,2.184,2.184,0,0,1-.639.3.278.278,0,0,1-.149.013c-.106-.029-.128-.154-.139-.254a11.378,11.378,0,0,0-1.058-2.507,3.771,3.771,0,0,1,.383-3.16,2.547,2.547,0,0,1,.671-.783c.993-.728,2.4-.394,3.536-.775.539-.18.972-.523,1.487-.75A5.343,5.343,0,0,1,216.858,78.716Z" transform="translate(-199.856 -77.349)" fill="url(#l)"/><ellipse cx="1.667" cy="2.056" rx="1.667" ry="2.056" transform="translate(7.876 7.49)" fill="#00629b"/><ellipse cx="1.667" cy="2.056" rx="1.667" ry="2.056" transform="translate(7.876 7.49)" fill="url(#m)"/><ellipse cx="1.667" cy="2.056" rx="1.667" ry="2.056" transform="translate(7.238 7.49)" fill="#00629b"/><path d="M249.75,76.529l.833.089.2.021.833-4.1a4.766,4.766,0,0,1,2.821-3.352,1.5,1.5,0,0,1,.641-.076l.568.051-.278-.074-.555-.147a1.829,1.829,0,0,0-.533-.065,3.929,3.929,0,0,0-3.4,2.963Z" transform="translate(-240.857 -68.876)" fill="#00629b"/><path d="M249.75,76.529l.833.089.2.021.833-4.1a4.766,4.766,0,0,1,2.821-3.352,1.5,1.5,0,0,1,.641-.076l.568.051-.278-.074-.555-.147a1.829,1.829,0,0,0-.533-.065,3.929,3.929,0,0,0-3.4,2.963Z" transform="translate(-240.857 -68.876)" fill="url(#n)"/><path d="M251.75,76.529l.833.089.833-4.11a4.816,4.816,0,0,1,2.85-3.382,1.465,1.465,0,0,1,.648-.078l.453.04-.555-.147a1.828,1.828,0,0,0-.533-.065,3.929,3.929,0,0,0-3.4,2.963Z" transform="translate(-242.857 -68.876)" fill="#00629b"/><path d="M214.792,101.417a1.766,1.766,0,0,0-1.316-.862,5.241,5.241,0,0,0-1.624.075c.521.417,1.974,1.037,2,1.148a3.384,3.384,0,0,1,.007.591c-.019.286-.029.586-.028.872a2.222,2.222,0,0,1,.447-.339,1.111,1.111,0,0,0,.375-.24A1.154,1.154,0,0,0,214.792,101.417Z" transform="translate(-194.864 -96.124)" fill="url(#o)"/><path d="M251.868,152.128a6.47,6.47,0,0,0,1.847-.308.278.278,0,0,0-.16-.533c-1.43.43-2.506.373-3.193-.169a2.823,2.823,0,0,1-.875-2.148.278.278,0,1,0-.555-.028,3.368,3.368,0,0,0,1.087,2.614A2.9,2.9,0,0,0,251.868,152.128Z" transform="translate(-239.011 -137.598)" fill="#00629b"/><path d="M251.868,152.128a6.47,6.47,0,0,0,1.847-.308.278.278,0,0,0-.16-.533c-1.43.43-2.506.373-3.193-.169a2.823,2.823,0,0,1-.875-2.148.278.278,0,1,0-.555-.028,3.368,3.368,0,0,0,1.087,2.614A2.9,2.9,0,0,0,251.868,152.128Z" transform="translate(-239.011 -137.598)" fill="url(#p)"/><path d="M238.374,160.465a.736.736,0,0,0-.351.38.659.659,0,0,0,.311.616,1.162,1.162,0,0,0,.576.278,1.337,1.337,0,0,0,.875-.311,1.158,1.158,0,0,0,.364-.351.878.878,0,0,0-.48-1.152C239.214,159.729,238.731,160.23,238.374,160.465Z" transform="translate(-223.816 -147.245)" fill="#00629b"/><path d="M238.374,160.465a.736.736,0,0,0-.351.38.659.659,0,0,0,.311.616,1.162,1.162,0,0,0,.576.278,1.337,1.337,0,0,0,.875-.311,1.158,1.158,0,0,0,.364-.351.878.878,0,0,0-.48-1.152C239.214,159.729,238.731,160.23,238.374,160.465Z" transform="translate(-223.816 -147.245)" fill="url(#q)"/></g></g></g><path d="M-714,270l6,6,6-6" transform="translate(895.5 338)" fill="none" stroke="#c1c6c8" stroke-width="2"/><path d="M4.755,11.47c2.43-.15,3.66-1.5,3.66-3.315,0-1.95-1.35-3.315-3.93-3.315H1.53V16H2.925V11.47h.15L7.095,16H8.88ZM2.925,10.3V6.145h1.47c1.695,0,2.595.78,2.595,2.055,0,1.26-.78,2.1-2.715,2.1ZM17.3,11.785c0-2.67-1.575-4.08-3.5-4.08A3.985,3.985,0,0,0,9.885,11.98,3.906,3.906,0,0,0,14,16.18a4.728,4.728,0,0,0,2.835-.9V13.915A4.193,4.193,0,0,1,14.1,14.98a2.766,2.766,0,0,1-2.865-2.58H17.25A3.684,3.684,0,0,0,17.3,11.785Zm-6.06-.42a2.635,2.635,0,0,1,2.55-2.46,2.211,2.211,0,0,1,2.175,2.46ZM21.06,16h1.5l2.955-8.115H24.09L21.855,14.47H21.81L19.575,7.885h-1.47Zm6.765-9.975a.84.84,0,1,0-.855-.84A.824.824,0,0,0,27.825,6.025ZM27.135,16h1.38V7.885h-1.38Zm10.83-4.215c0-2.67-1.575-4.08-3.495-4.08a3.985,3.985,0,0,0-3.915,4.275,3.906,3.906,0,0,0,4.11,4.2,4.728,4.728,0,0,0,2.835-.9V13.915a4.193,4.193,0,0,1-2.73,1.065,2.766,2.766,0,0,1-2.865-2.58H37.92A3.684,3.684,0,0,0,37.965,11.785Zm-6.06-.42a2.635,2.635,0,0,1,2.55-2.46,2.211,2.211,0,0,1,2.175,2.46ZM46.935,16H48.51l2.28-8.115H49.425L47.7,14.455h-.045L45.6,7.885H44.16l-2.07,6.57h-.03l-1.7-6.57h-1.44L41.22,16h1.575L44.85,9.64H44.9ZM63.48,16h2.355L68.07,7.75H66.03l-1.44,6.03h-.045l-1.71-6.03H60.78l-1.74,6.03H59l-1.38-6.03H55.44L57.69,16h2.37l1.695-5.715H61.8Zm8.1-12.03H69.51V16h2.07V11.02a1.519,1.519,0,0,1,1.65-1.59c.99,0,1.485.54,1.485,1.68V16h2.07V10.51A2.691,2.691,0,0,0,73.86,7.555,2.817,2.817,0,0,0,71.61,8.6h-.03Zm14.67,7.755c0-2.73-1.68-4.17-3.735-4.17a4.092,4.092,0,0,0-4.1,4.35,4.112,4.112,0,0,0,4.455,4.3,5.359,5.359,0,0,0,2.865-.81V13.63a4.583,4.583,0,0,1-2.625.9A2.587,2.587,0,0,1,80.4,12.475h5.79A5.429,5.429,0,0,0,86.25,11.725Zm-5.865-.555A2.2,2.2,0,0,1,82.5,9.22a1.777,1.777,0,0,1,1.77,1.95ZM87.93,16H90V11.755A1.936,1.936,0,0,1,92.04,9.6a3.275,3.275,0,0,1,.66.06V7.72a2.464,2.464,0,0,0-.6-.06,2.574,2.574,0,0,0-2.28,1.35h-.03l-.21-1.26H87.93Zm13.23-4.275c0-2.73-1.68-4.17-3.735-4.17a4.092,4.092,0,0,0-4.1,4.35,4.112,4.112,0,0,0,4.455,4.3,5.359,5.359,0,0,0,2.865-.81V13.63a4.583,4.583,0,0,1-2.625.9,2.587,2.587,0,0,1-2.715-2.055h5.79A5.429,5.429,0,0,0,101.16,11.725Zm-5.865-.555A2.2,2.2,0,0,1,97.41,9.22a1.777,1.777,0,0,1,1.77,1.95ZM113.73,7.75H111.6l-1.935,5.7h-.045l-1.92-5.7h-2.235l3.105,7.995-1.41,3.4h2.085Zm4.77,8.46a4.171,4.171,0,0,0,4.245-4.335,4.253,4.253,0,1,0-8.505,0A4.174,4.174,0,0,0,118.5,16.21Zm0-1.89a2.25,2.25,0,0,1-2.175-2.445,2.183,2.183,0,1,1,4.335,0A2.248,2.248,0,0,1,118.5,14.32Zm9.465,1.89a3.38,3.38,0,0,0,3.66-3.51V7.75h-2.07V12.7a1.461,1.461,0,0,1-1.59,1.62,1.431,1.431,0,0,1-1.545-1.6V7.75h-2.07v4.965A3.34,3.34,0,0,0,127.965,16.21Zm16.59-.21h2.355l2.235-8.25H147.1l-1.44,6.03h-.045l-1.71-6.03h-2.055l-1.74,6.03h-.045l-1.38-6.03h-2.175l2.25,8.25h2.37l1.7-5.715h.045Zm9.03.21a3.2,3.2,0,0,0,2.79-1.56l.21,1.35h1.74V7.75h-1.74l-.21,1.35a3.188,3.188,0,0,0-2.79-1.545c-1.875,0-3.69,1.71-3.69,4.335C149.9,14.485,151.71,16.21,153.585,16.21Zm.57-1.89a2.25,2.25,0,0,1-2.175-2.445,2.25,2.25,0,0,1,2.175-2.445,2.226,2.226,0,0,1,2.13,2.445A2.226,2.226,0,0,1,154.155,14.32Zm10.7-6.765a2.91,2.91,0,0,0-2.49,1.38h-.045L162.09,7.75h-1.6V16h2.07V11.065a1.572,1.572,0,0,1,1.635-1.62c.99,0,1.5.54,1.5,1.68V16h2.07V10.495A2.711,2.711,0,0,0,164.85,7.555Zm7.425-1.725H170.28V7.75h-1.215V9.475h1.2V12.91a2.967,2.967,0,0,0,3.225,3.255,5.31,5.31,0,0,0,1.185-.12v-1.77a4.364,4.364,0,0,1-.735.075c-.96,0-1.665-.435-1.665-1.545V9.475h2.25V7.75h-2.25ZM187.05,7.75h-2.13l-1.935,5.7h-.045l-1.92-5.7h-2.235l3.1,7.995-1.41,3.4h2.085Zm4.77,8.46a4.171,4.171,0,0,0,4.245-4.335,4.253,4.253,0,1,0-8.5,0A4.174,4.174,0,0,0,191.82,16.21Zm0-1.89a2.25,2.25,0,0,1-2.175-2.445,2.183,2.183,0,1,1,4.335,0A2.248,2.248,0,0,1,191.82,14.32Zm9.465,1.89a3.38,3.38,0,0,0,3.66-3.51V7.75h-2.07V12.7a1.461,1.461,0,0,1-1.59,1.62,1.431,1.431,0,0,1-1.545-1.6V7.75h-2.07v4.965A3.34,3.34,0,0,0,201.285,16.21ZM207,16h2.07V11.755a1.936,1.936,0,0,1,2.04-2.16,3.275,3.275,0,0,1,.66.06V7.72a2.464,2.464,0,0,0-.6-.06,2.574,2.574,0,0,0-2.28,1.35h-.03l-.21-1.26H207ZM9.885,32.555a2.668,2.668,0,0,0-2.37,1.41,2.348,2.348,0,0,0-2.31-1.41,2.509,2.509,0,0,0-2.25,1.365H2.91l-.225-1.17H1.08V41H3.15V35.96a1.38,1.38,0,0,1,1.365-1.515c.9,0,1.26.495,1.26,1.485V41h2.07V35.87A1.33,1.33,0,0,1,9.21,34.445c.885,0,1.245.495,1.245,1.485V41h2.07V35.525C12.525,33.74,11.685,32.555,9.885,32.555ZM18.42,41.21a4.328,4.328,0,1,0-4.26-4.335A4.171,4.171,0,0,0,18.42,41.21Zm0-1.89a2.25,2.25,0,0,1-2.175-2.445,2.183,2.183,0,1,1,4.335,0A2.248,2.248,0,0,1,18.42,39.32Zm10.305-6.765a2.91,2.91,0,0,0-2.49,1.38H26.19l-.225-1.185h-1.6V41h2.07V36.065a1.572,1.572,0,0,1,1.635-1.62c.99,0,1.5.54,1.5,1.68V41h2.07V35.495A2.711,2.711,0,0,0,28.725,32.555Zm12.36,4.17c0-2.73-1.68-4.17-3.735-4.17a4.092,4.092,0,0,0-4.095,4.35A4.112,4.112,0,0,0,37.71,41.21a5.359,5.359,0,0,0,2.865-.81V38.63a4.583,4.583,0,0,1-2.625.9,2.587,2.587,0,0,1-2.715-2.055h5.79A5.429,5.429,0,0,0,41.085,36.725ZM35.22,36.17a2.2,2.2,0,0,1,2.115-1.95,1.777,1.777,0,0,1,1.77,1.95Zm14.655-3.42h-2.13l-1.935,5.7h-.045l-1.92-5.7H41.61l3.1,7.995-1.41,3.405H45.39Zm7.1-1.92H54.975v1.92H53.76v1.725h1.2V37.91a2.967,2.967,0,0,0,3.225,3.255,5.31,5.31,0,0,0,1.185-.12v-1.77a4.364,4.364,0,0,1-.735.075c-.96,0-1.665-.435-1.665-1.545v-3.33h2.25V32.75H56.97ZM64.6,41.21a4.328,4.328,0,1,0-4.26-4.335A4.171,4.171,0,0,0,64.6,41.21Zm0-1.89a2.25,2.25,0,0,1-2.175-2.445,2.183,2.183,0,1,1,4.335,0A2.248,2.248,0,0,1,64.6,39.32Zm13.05-6.75a3.939,3.939,0,0,0-3.72,4.125,3.883,3.883,0,0,0,3.69,4.14A3.088,3.088,0,0,0,80.25,39.41v.915a2.291,2.291,0,0,1-2.535,2.2,4.673,4.673,0,0,1-2.94-1.17v2.025a5.377,5.377,0,0,0,3.1.975,4.1,4.1,0,0,0,4.44-4.29V32.75H80.6l-.225,1.29A3.2,3.2,0,0,0,77.655,32.57Zm.51,1.845a2.153,2.153,0,0,1,2.13,2.265,2.142,2.142,0,1,1-2.13-2.265Zm10.11,6.795a4.328,4.328,0,1,0-4.26-4.335A4.171,4.171,0,0,0,88.275,41.21Zm0-1.89A2.25,2.25,0,0,1,86.1,36.875a2.183,2.183,0,1,1,4.335,0A2.248,2.248,0,0,1,88.275,39.32Zm5.43,3.675H94.74a10.013,10.013,0,0,0,.9-3.495v-.615H94.335v.675A11.745,11.745,0,0,1,93.705,42.995Zm10.98-10.29c-1.8,0-2.925,1.02-2.925,2.385,0,1.425,1.185,1.86,2.52,2.265,1.17.36,1.935.615,1.935,1.4,0,.72-.63,1.2-1.725,1.2a3.851,3.851,0,0,1-2.76-1.155V40.28a4.485,4.485,0,0,0,2.805.9c1.875,0,3.03-.96,3.03-2.445,0-1.635-1.41-2.04-2.655-2.4-1.1-.315-1.8-.585-1.8-1.305,0-.66.57-1.095,1.59-1.095a3.832,3.832,0,0,1,2.43.84V33.41A4.249,4.249,0,0,0,104.685,32.705ZM110.91,29h-1.38V41h1.38V35.975a1.875,1.875,0,0,1,2.025-1.98c1.245,0,1.86.69,1.86,2.115V41h1.38V35.63a2.675,2.675,0,0,0-2.925-2.925,2.793,2.793,0,0,0-2.325,1.155h-.015Zm11.235,12.18a4.026,4.026,0,0,0,4.02-4.23,4.04,4.04,0,1,0-8.07,0A4.032,4.032,0,0,0,122.145,41.18Zm0-1.29a2.717,2.717,0,0,1-2.655-2.94,2.664,2.664,0,1,1,5.3,0A2.724,2.724,0,0,1,122.145,39.89Zm9.225,1.29a3.126,3.126,0,0,0,3.36-3.3V32.885h-1.38V37.91a1.829,1.829,0,0,1-1.98,1.98,1.8,1.8,0,0,1-1.92-1.98V32.885h-1.38V37.88A3.087,3.087,0,0,0,131.37,41.18Zm5.8-.18h1.38V29h-1.38Zm7.11.18a3.279,3.279,0,0,0,2.9-1.665L147.345,41h1.125V29h-1.38v5.295a3.185,3.185,0,0,0-2.8-1.59c-1.92,0-3.69,1.635-3.69,4.245A3.921,3.921,0,0,0,144.285,41.18Zm.285-1.29a2.7,2.7,0,0,1-2.6-2.94,2.6,2.6,0,1,1,5.145-.015A2.69,2.69,0,0,1,144.57,39.89Zm16.68-7h-1.44l-2.235,6.18h-.03l-2.235-6.18h-1.5l3.03,7.83-1.4,3.435h1.41ZM166.1,41.18a4.026,4.026,0,0,0,4.02-4.23,4.04,4.04,0,1,0-8.07,0A4.032,4.032,0,0,0,166.1,41.18Zm0-1.29a2.717,2.717,0,0,1-2.655-2.94,2.663,2.663,0,1,1,5.295,0A2.724,2.724,0,0,1,166.1,39.89Zm9.225,1.29a3.126,3.126,0,0,0,3.36-3.3V32.885H177.3V37.91a1.829,1.829,0,0,1-1.98,1.98,1.8,1.8,0,0,1-1.92-1.98V32.885h-1.38V37.88A3.087,3.087,0,0,0,175.32,41.18Zm9.87,2.97h1.38V39.59a3.23,3.23,0,0,0,2.805,1.59c1.92,0,3.675-1.635,3.675-4.245,0-2.58-1.77-4.23-3.69-4.23a3.27,3.27,0,0,0-2.88,1.68l-.165-1.5H185.19Zm3.9-4.26a2.685,2.685,0,0,1-2.55-2.94,2.59,2.59,0,1,1,5.13-.015A2.685,2.685,0,0,1,189.09,39.89Zm9.15,1.29a3.262,3.262,0,0,0,2.9-1.665L201.3,41h1.125V32.885H201.3l-.165,1.5a3.276,3.276,0,0,0-2.9-1.68c-1.9,0-3.69,1.65-3.69,4.245A3.93,3.93,0,0,0,198.24,41.18Zm.285-1.29a2.689,2.689,0,0,1-2.58-2.94,2.6,2.6,0,1,1,5.145-.015A2.7,2.7,0,0,1,198.525,39.89Zm8.97-7.185c-1.8,0-2.925,1.02-2.925,2.385,0,1.425,1.185,1.86,2.52,2.265,1.17.36,1.935.615,1.935,1.4,0,.72-.63,1.2-1.725,1.2a3.851,3.851,0,0,1-2.76-1.155V40.28a4.485,4.485,0,0,0,2.805.9c1.875,0,3.03-.96,3.03-2.445,0-1.635-1.41-2.04-2.655-2.4-1.1-.315-1.8-.585-1.8-1.305,0-.66.57-1.095,1.59-1.095a3.832,3.832,0,0,1,2.43.84V33.41A4.249,4.249,0,0,0,207.495,32.705Zm7.4,0c-1.8,0-2.925,1.02-2.925,2.385,0,1.425,1.185,1.86,2.52,2.265,1.17.36,1.935.615,1.935,1.4,0,.72-.63,1.2-1.725,1.2a3.851,3.851,0,0,1-2.76-1.155V40.28a4.485,4.485,0,0,0,2.805.9c1.875,0,3.03-.96,3.03-2.445,0-1.635-1.41-2.04-2.655-2.4-1.1-.315-1.8-.585-1.8-1.305,0-.66.57-1.095,1.59-1.095a3.832,3.832,0,0,1,2.43.84V33.41A4.249,4.249,0,0,0,214.89,32.705ZM4.425,66.18a3.262,3.262,0,0,0,2.9-1.665L7.485,66H8.61V57.885H7.485l-.165,1.5a3.276,3.276,0,0,0-2.9-1.68c-1.9,0-3.69,1.65-3.69,4.245A3.93,3.93,0,0,0,4.425,66.18Zm.285-1.29a2.974,2.974,0,0,1,0-5.9,2.976,2.976,0,0,1,0,5.9ZM18.36,66h1.575l2.28-8.115H20.85l-1.725,6.57H19.08l-2.055-6.57h-1.44l-2.07,6.57h-.03l-1.695-6.57H10.35L12.645,66H14.22l2.055-6.36h.045Zm8.565.18a3.262,3.262,0,0,0,2.9-1.665L29.985,66H31.11V57.885H29.985l-.165,1.5a3.276,3.276,0,0,0-2.9-1.68c-1.9,0-3.69,1.65-3.69,4.245A3.93,3.93,0,0,0,26.925,66.18Zm.285-1.29a2.976,2.976,0,1,1,2.565-2.955A2.689,2.689,0,0,1,27.21,64.89Zm12.945-7h-1.44l-2.235,6.18h-.03l-2.235-6.18h-1.5l3.03,7.83-1.4,3.435h1.41Zm1.41,8.19a.938.938,0,1,0-.93-.93A.916.916,0,0,0,41.565,66.075ZM4.755,96.47c2.43-.15,3.66-1.5,3.66-3.315,0-1.95-1.35-3.315-3.93-3.315H1.53V101H2.925V96.47h.15L7.095,101H8.88ZM2.925,95.3V91.145h1.47c1.695,0,2.595.78,2.595,2.055s-.78,2.1-2.715,2.1ZM17.3,96.785c0-2.67-1.575-4.08-3.5-4.08A3.985,3.985,0,0,0,9.885,96.98a3.906,3.906,0,0,0,4.11,4.2,4.728,4.728,0,0,0,2.835-.9V98.915A4.193,4.193,0,0,1,14.1,99.98a2.766,2.766,0,0,1-2.865-2.58H17.25A3.684,3.684,0,0,0,17.3,96.785Zm-6.06-.42a2.635,2.635,0,0,1,2.55-2.46,2.211,2.211,0,0,1,2.175,2.46ZM27.3,92.705a2.6,2.6,0,0,0-2.34,1.425,2.237,2.237,0,0,0-2.25-1.425,2.422,2.422,0,0,0-2.175,1.38H20.49l-.15-1.2H19.275V101h1.38V95.885a1.711,1.711,0,0,1,1.68-1.86c1.08,0,1.545.615,1.545,1.785V101h1.38V95.81a1.685,1.685,0,0,1,1.695-1.785c1.08,0,1.53.615,1.53,1.785V101h1.38V95.585C29.865,93.89,29.07,92.705,27.3,92.705Zm11.91,4.08c0-2.67-1.575-4.08-3.495-4.08A3.985,3.985,0,0,0,31.8,96.98a3.906,3.906,0,0,0,4.11,4.2,4.728,4.728,0,0,0,2.835-.9V98.915a4.193,4.193,0,0,1-2.73,1.065A2.766,2.766,0,0,1,33.15,97.4h6.015A3.684,3.684,0,0,0,39.21,96.785Zm-6.06-.42A2.635,2.635,0,0,1,35.7,93.9a2.211,2.211,0,0,1,2.175,2.46Zm16.065-3.66a2.6,2.6,0,0,0-2.34,1.425,2.237,2.237,0,0,0-2.25-1.425,2.422,2.422,0,0,0-2.175,1.38H42.4l-.15-1.2H41.19V101h1.38V95.885a1.711,1.711,0,0,1,1.68-1.86c1.08,0,1.545.615,1.545,1.785V101h1.38V95.81a1.685,1.685,0,0,1,1.7-1.785c1.08,0,1.53.615,1.53,1.785V101h1.38V95.585C51.78,93.89,50.985,92.705,49.215,92.705ZM55.6,89h-1.38v12H55.35l.165-1.485a3.239,3.239,0,0,0,2.88,1.665,3.921,3.921,0,0,0,3.69-4.23c0-2.61-1.755-4.245-3.66-4.245a3.192,3.192,0,0,0-2.82,1.6Zm2.52,5a2.978,2.978,0,1,1-2.55,2.94A2.694,2.694,0,0,1,58.125,94Zm12.885,2.79c0-2.67-1.575-4.08-3.5-4.08A3.985,3.985,0,0,0,63.6,96.98a3.906,3.906,0,0,0,4.11,4.2,4.728,4.728,0,0,0,2.835-.9V98.915a4.193,4.193,0,0,1-2.73,1.065A2.766,2.766,0,0,1,64.95,97.4h6.015A3.684,3.684,0,0,0,71.01,96.785Zm-6.06-.42A2.635,2.635,0,0,1,67.5,93.9a2.211,2.211,0,0,1,2.175,2.46ZM72.99,101h1.38V96.38a2.1,2.1,0,0,1,2.175-2.28,3.491,3.491,0,0,1,.57.06V92.84a2.907,2.907,0,0,0-.54-.045,2.628,2.628,0,0,0-2.325,1.38h-.015l-.15-1.29h-1.1ZM83.745,89h-1.38v12H83.49l.165-1.485a3.239,3.239,0,0,0,2.88,1.665,3.921,3.921,0,0,0,3.69-4.23c0-2.61-1.755-4.245-3.66-4.245a3.192,3.192,0,0,0-2.82,1.6Zm2.52,5a2.978,2.978,0,1,1-2.55,2.94A2.694,2.694,0,0,1,86.265,94Zm6.7-2.97a.84.84,0,1,0-.855-.84A.824.824,0,0,0,92.97,91.025ZM92.28,101h1.38V92.885H92.28Zm7.68-8.295a2.927,2.927,0,0,0-2.49,1.41h-.045l-.15-1.23H96.21V101h1.38V96.05a1.962,1.962,0,0,1,2.025-2.025c1.215,0,1.86.675,1.86,2.1V101h1.38V95.63A2.725,2.725,0,0,0,99.96,92.705Zm8.505,8.475a3.279,3.279,0,0,0,2.895-1.665l.165,1.485h1.125V89h-1.38v5.295a3.185,3.185,0,0,0-2.805-1.59c-1.92,0-3.69,1.635-3.69,4.245A3.921,3.921,0,0,0,108.465,101.18Zm.285-1.29a2.978,2.978,0,1,1,2.55-2.955A2.7,2.7,0,0,1,108.75,99.89Zm7.125-8.865a.84.84,0,1,0-.855-.84A.824.824,0,0,0,115.875,91.025Zm-.69,9.975h1.38V92.885h-1.38Zm7.68-8.295a2.927,2.927,0,0,0-2.49,1.41h-.045l-.15-1.23h-1.065V101h1.38V96.05a1.962,1.962,0,0,1,2.025-2.025c1.215,0,1.86.675,1.86,2.1V101h1.38V95.63A2.725,2.725,0,0,0,122.865,92.705Zm8.49.015a4.092,4.092,0,0,0,0,8.145,3.305,3.305,0,0,0,2.79-1.53v1.23a2.506,2.506,0,0,1-2.67,2.475,4.429,4.429,0,0,1-2.97-1.2v1.485a5.135,5.135,0,0,0,3.03,1.005,3.79,3.79,0,0,0,3.99-3.99V92.885H134.4l-.165,1.41A3.329,3.329,0,0,0,131.355,92.72Zm.27,1.275a2.6,2.6,0,0,1,2.565,2.76,2.666,2.666,0,0,1-2.565,2.85,2.816,2.816,0,0,1,0-5.61Zm14.265-1.29a2.927,2.927,0,0,0-2.49,1.41h-.045l-.15-1.23H142.14V101h1.38V96.05a1.962,1.962,0,0,1,2.025-2.025c1.215,0,1.86.675,1.86,2.1V101h1.38V95.63A2.725,2.725,0,0,0,145.89,92.705Zm8.85,8.475a4.242,4.242,0,1,0-4.05-4.23A4.026,4.026,0,0,0,154.74,101.18Zm0-1.29a2.965,2.965,0,1,1,2.64-2.94A2.717,2.717,0,0,1,154.74,99.89Zm14.055-7.185a2.6,2.6,0,0,0-2.34,1.425,2.237,2.237,0,0,0-2.25-1.425,2.422,2.422,0,0,0-2.175,1.38h-.045l-.15-1.2H160.77V101h1.38V95.885a1.711,1.711,0,0,1,1.68-1.86c1.08,0,1.545.615,1.545,1.785V101h1.38V95.81a1.685,1.685,0,0,1,1.7-1.785c1.08,0,1.53.615,1.53,1.785V101h1.38V95.585C171.36,93.89,170.565,92.705,168.795,92.705Zm5.73-1.68a.84.84,0,1,0-.855-.84A.824.824,0,0,0,174.525,91.025Zm-.69,9.975h1.38V92.885h-1.38Zm7.68-8.295a2.927,2.927,0,0,0-2.49,1.41h-.045l-.15-1.23h-1.065V101h1.38V96.05a1.962,1.962,0,0,1,2.025-2.025c1.215,0,1.86.675,1.86,2.1V101h1.38V95.63A2.725,2.725,0,0,0,181.515,92.705Zm8.49,8.475a3.262,3.262,0,0,0,2.9-1.665l.165,1.485h1.125V92.885h-1.125l-.165,1.5a3.276,3.276,0,0,0-2.9-1.68c-1.9,0-3.69,1.65-3.69,4.245A3.93,3.93,0,0,0,190.005,101.18Zm.285-1.29a2.976,2.976,0,1,1,2.565-2.955A2.689,2.689,0,0,1,190.29,99.89Zm8.115-8.91h-1.32v1.9H195.84v1.2h1.215v4.08a2.685,2.685,0,0,0,2.9,2.94,5.084,5.084,0,0,0,.96-.09v-1.2a4.2,4.2,0,0,1-.72.075,1.611,1.611,0,0,1-1.785-1.785v-4.02h2.325v-1.2H198.4Zm4.875.045a.84.84,0,1,0-.855-.84A.824.824,0,0,0,203.28,91.025ZM202.59,101h1.38V92.885h-1.38Zm7.455.18a4.242,4.242,0,1,0-4.05-4.23A4.026,4.026,0,0,0,210.045,101.18Zm0-1.29a2.965,2.965,0,1,1,2.64-2.94A2.717,2.717,0,0,1,210.045,99.89Zm9.78-7.185a2.927,2.927,0,0,0-2.49,1.41h-.045l-.15-1.23h-1.065V101h1.38V96.05a1.962,1.962,0,0,1,2.025-2.025c1.215,0,1.86.675,1.86,2.1V101h1.38V95.63A2.725,2.725,0,0,0,219.825,92.705Zm7.875,0c-1.8,0-2.925,1.02-2.925,2.385,0,1.425,1.185,1.86,2.52,2.265,1.17.36,1.935.615,1.935,1.395,0,.72-.63,1.2-1.725,1.2a3.851,3.851,0,0,1-2.76-1.155v1.485a4.485,4.485,0,0,0,2.805.9c1.875,0,3.03-.96,3.03-2.445,0-1.635-1.41-2.04-2.655-2.4-1.1-.315-1.8-.585-1.8-1.305,0-.66.57-1.1,1.59-1.1a3.832,3.832,0,0,1,2.43.84V93.41A4.249,4.249,0,0,0,227.7,92.705Zm-222.69,25a2.927,2.927,0,0,0-2.49,1.41H2.475l-.15-1.23H1.26V126H2.64v-4.95a1.962,1.962,0,0,1,2.025-2.025c1.215,0,1.86.675,1.86,2.1V126h1.38v-5.37A2.725,2.725,0,0,0,5.01,117.705Zm12.225,4.08c0-2.67-1.575-4.08-3.5-4.08a3.985,3.985,0,0,0-3.915,4.275,3.906,3.906,0,0,0,4.11,4.2,4.728,4.728,0,0,0,2.835-.9v-1.365a4.193,4.193,0,0,1-2.73,1.065,2.766,2.766,0,0,1-2.865-2.58H17.19A3.684,3.684,0,0,0,17.235,121.785Zm-6.06-.42a2.635,2.635,0,0,1,2.55-2.46,2.211,2.211,0,0,1,2.175,2.46Zm14.94.42c0-2.67-1.575-4.08-3.5-4.08A3.985,3.985,0,0,0,18.7,121.98a3.906,3.906,0,0,0,4.11,4.2,4.728,4.728,0,0,0,2.835-.9v-1.365a4.193,4.193,0,0,1-2.73,1.065,2.766,2.766,0,0,1-2.865-2.58H26.07A3.684,3.684,0,0,0,26.115,121.785Zm-6.06-.42a2.635,2.635,0,0,1,2.55-2.46,2.211,2.211,0,0,1,2.175,2.46Zm11.22,4.815a3.279,3.279,0,0,0,2.895-1.665L34.335,126H35.46V114H34.08v5.295a3.185,3.185,0,0,0-2.8-1.59c-1.92,0-3.69,1.635-3.69,4.245A3.921,3.921,0,0,0,31.275,126.18Zm.285-1.29a2.978,2.978,0,1,1,2.55-2.955A2.7,2.7,0,0,1,31.56,124.89ZM42.06,126h1.38v-4.62a2.1,2.1,0,0,1,2.175-2.28,3.491,3.491,0,0,1,.57.06v-1.32a2.906,2.906,0,0,0-.54-.045,2.628,2.628,0,0,0-2.325,1.38h-.015l-.15-1.29h-1.1Zm12.255-4.215c0-2.67-1.575-4.08-3.495-4.08A3.985,3.985,0,0,0,46.9,121.98a3.906,3.906,0,0,0,4.11,4.2,4.728,4.728,0,0,0,2.835-.9v-1.365a4.193,4.193,0,0,1-2.73,1.065,2.766,2.766,0,0,1-2.865-2.58H54.27A3.684,3.684,0,0,0,54.315,121.785Zm-6.06-.42a2.635,2.635,0,0,1,2.55-2.46,2.211,2.211,0,0,1,2.175,2.46Zm11.79-3.66a2.927,2.927,0,0,0-2.49,1.41H57.51l-.15-1.23H56.295V126h1.38v-4.95a1.962,1.962,0,0,1,2.025-2.025c1.215,0,1.86.675,1.86,2.1V126h1.38v-5.37A2.725,2.725,0,0,0,60.045,117.705Zm12.225,4.08c0-2.67-1.575-4.08-3.5-4.08a3.985,3.985,0,0,0-3.915,4.275,3.906,3.906,0,0,0,4.11,4.2,4.728,4.728,0,0,0,2.835-.9v-1.365a4.193,4.193,0,0,1-2.73,1.065,2.766,2.766,0,0,1-2.865-2.58h6.015A3.684,3.684,0,0,0,72.27,121.785Zm-6.06-.42a2.635,2.635,0,0,1,2.55-2.46,2.211,2.211,0,0,1,2.175,2.46ZM81.24,126h1.575l2.28-8.115H83.73L82,124.455H81.96l-2.055-6.57h-1.44l-2.07,6.57h-.03l-1.695-6.57H73.23L75.525,126H77.1l2.055-6.36H79.2Zm8.565.18a3.262,3.262,0,0,0,2.895-1.665L92.865,126H93.99v-8.115H92.865l-.165,1.5a3.276,3.276,0,0,0-2.895-1.68c-1.905,0-3.69,1.65-3.69,4.245A3.93,3.93,0,0,0,89.805,126.18Zm.285-1.29a2.976,2.976,0,1,1,2.565-2.955A2.689,2.689,0,0,1,90.09,124.89ZM96.54,126h1.38V114H96.54Zm3.24,2h1.035a10.013,10.013,0,0,0,.9-3.5v-.615H100.41v.675A11.745,11.745,0,0,1,99.78,128Zm11.955-1.815a4.242,4.242,0,1,0-4.05-4.23A4.026,4.026,0,0,0,111.735,126.18Zm0-1.29a2.965,2.965,0,1,1,2.64-2.94A2.717,2.717,0,0,1,111.735,124.89Zm6.03,1.11h1.38v-4.62a2.1,2.1,0,0,1,2.175-2.28,3.491,3.491,0,0,1,.57.06v-1.32a2.907,2.907,0,0,0-.54-.045,2.628,2.628,0,0,0-2.325,1.38h-.015l-.15-1.29h-1.1Zm16.275-4.215c0-2.67-1.575-4.08-3.495-4.08a3.985,3.985,0,0,0-3.915,4.275,3.906,3.906,0,0,0,4.11,4.2,4.728,4.728,0,0,0,2.835-.9v-1.365a4.193,4.193,0,0,1-2.73,1.065,2.766,2.766,0,0,1-2.865-2.58h6.015A3.684,3.684,0,0,0,134.04,121.785Zm-6.06-.42a2.635,2.635,0,0,1,2.55-2.46,2.211,2.211,0,0,1,2.175,2.46Zm14.145-3.48h-1.5l-2.04,3.06h-.03l-2.04-3.06H134.97l2.79,4.05L134.94,126h1.53l2.085-3.105h.015L140.655,126h1.575l-2.865-4.125Zm1.68,11.265h1.38v-4.56a3.23,3.23,0,0,0,2.805,1.59c1.92,0,3.675-1.635,3.675-4.245,0-2.58-1.77-4.23-3.69-4.23a3.27,3.27,0,0,0-2.88,1.68l-.165-1.5H143.8Zm3.9-4.26a2.974,2.974,0,1,1,2.58-2.955A2.685,2.685,0,0,1,147.705,124.89Zm6.7-8.865a.84.84,0,1,0-.855-.84A.824.824,0,0,0,154.41,116.025ZM153.72,126h1.38v-8.115h-1.38Zm3.93,0h1.38v-4.62a2.1,2.1,0,0,1,2.175-2.28,3.491,3.491,0,0,1,.57.06v-1.32a2.906,2.906,0,0,0-.54-.045,2.628,2.628,0,0,0-2.325,1.38H158.9l-.15-1.29h-1.1Zm12.255-4.215c0-2.67-1.575-4.08-3.5-4.08a3.985,3.985,0,0,0-3.915,4.275,3.906,3.906,0,0,0,4.11,4.2,4.728,4.728,0,0,0,2.835-.9v-1.365a4.193,4.193,0,0,1-2.73,1.065,2.766,2.766,0,0,1-2.865-2.58h6.015A3.684,3.684,0,0,0,169.9,121.785Zm-6.06-.42a2.635,2.635,0,0,1,2.55-2.46,2.211,2.211,0,0,1,2.175,2.46Zm19.32.36c0-2.73-1.68-4.17-3.735-4.17a4.332,4.332,0,0,0,.36,8.655,5.359,5.359,0,0,0,2.865-.81v-1.77a4.583,4.583,0,0,1-2.625.9,2.587,2.587,0,0,1-2.715-2.055h5.79A5.428,5.428,0,0,0,183.165,121.725Zm-5.865-.555a2.2,2.2,0,0,1,2.115-1.95,1.777,1.777,0,0,1,1.77,1.95Zm9.42,4.83h2.205l3.015-8.25h-2.13l-1.92,6.045h-.045l-1.92-6.045H183.72Zm13.575-4.275c0-2.73-1.68-4.17-3.735-4.17a4.332,4.332,0,0,0,.36,8.655,5.359,5.359,0,0,0,2.865-.81v-1.77a4.583,4.583,0,0,1-2.625.9,2.587,2.587,0,0,1-2.715-2.055h5.79A5.428,5.428,0,0,0,200.3,121.725Zm-5.865-.555a2.2,2.2,0,0,1,2.115-1.95,1.777,1.777,0,0,1,1.77,1.95Zm7.545,4.83h2.07v-4.245a1.936,1.936,0,0,1,2.04-2.16,3.275,3.275,0,0,1,.66.06V117.72a2.464,2.464,0,0,0-.6-.06,2.574,2.574,0,0,0-2.28,1.35h-.03l-.21-1.26h-1.65Zm13.485-8.25h-2.13l-1.935,5.7h-.045l-1.92-5.7H207.2l3.1,8-1.41,3.4h2.085Zm4.785-2.19v1.98a3.618,3.618,0,0,1,2.625-1.08c1.26,0,1.935.66,1.935,1.485,0,.885-.705,1.545-2.235,1.545h-1.14v1.635h1.41c1.47,0,2.25.66,2.25,1.59,0,.96-.885,1.635-2.19,1.635a3.913,3.913,0,0,1-2.91-1.29v2.115a4.987,4.987,0,0,0,3.21,1.065c2.61,0,4.02-1.6,4.02-3.3a2.89,2.89,0,0,0-1.935-2.745v-.045a2.738,2.738,0,0,0,1.575-2.52c0-1.62-1.305-3.06-3.645-3.06A4.612,4.612,0,0,0,220.245,115.56ZM8.475,142.75H6.345l-1.935,5.7H4.365l-1.92-5.7H.21l3.105,7.995-1.41,3.4H3.99Zm8.34,3.975c0-2.73-1.68-4.17-3.735-4.17a4.332,4.332,0,0,0,.36,8.655,5.359,5.359,0,0,0,2.865-.81v-1.77a4.583,4.583,0,0,1-2.625.9,2.587,2.587,0,0,1-2.715-2.055h5.79A5.429,5.429,0,0,0,16.815,146.725Zm-5.865-.555a2.2,2.2,0,0,1,2.115-1.95,1.777,1.777,0,0,1,1.77,1.95Zm10.77,5.04a3.2,3.2,0,0,0,2.79-1.56l.21,1.35h1.74v-8.25H24.72l-.21,1.35a3.188,3.188,0,0,0-2.79-1.545c-1.875,0-3.69,1.71-3.69,4.335C18.03,149.485,19.845,151.21,21.72,151.21Zm.57-1.89a2.462,2.462,0,0,1,0-4.89,2.468,2.468,0,0,1,0,4.89ZM28.62,151h2.07v-4.245a1.936,1.936,0,0,1,2.04-2.16,3.275,3.275,0,0,1,.66.06V142.72a2.464,2.464,0,0,0-.6-.06,2.574,2.574,0,0,0-2.28,1.35h-.03l-.21-1.26H28.62Zm8.97-8.445c-2.025,0-3.24,1.08-3.24,2.565s1.215,2,2.55,2.37c1.11.33,1.755.525,1.755,1.11,0,.54-.525.885-1.455.885a4.186,4.186,0,0,1-2.82-1.08v1.965a5.022,5.022,0,0,0,2.91.84c2.13,0,3.375-1.035,3.375-2.625,0-1.71-1.44-2.16-2.76-2.505-1.005-.27-1.545-.48-1.545-1.005,0-.495.465-.81,1.305-.81a4.418,4.418,0,0,1,2.49.765v-1.815A4.959,4.959,0,0,0,37.59,142.555Zm5.55,8.52a.938.938,0,1,0-.93-.93A.916.916,0,0,0,43.14,151.075Z" transform="translate(80 392.001)"/><path d="M1.46,0H7.7c3.68,0,5.4-1.96,5.4-4.2a3.454,3.454,0,0,0-2.56-3.44v-.02a3.344,3.344,0,0,0,2.18-3.22c0-2.24-1.8-4.04-5.28-4.04H1.46ZM5.22-8.86v-2.9h2.1c1.22,0,1.84.64,1.84,1.44S8.54-8.86,7.28-8.86Zm0,5.68V-6.26h2.2c1.24,0,1.98.62,1.98,1.54,0,.88-.68,1.54-2.02,1.54ZM16.28,0h9.84V-3.38H20.08v-2.6h5.46V-9.06H20.08v-2.48h6.04v-3.38H16.28ZM42.9-14.92H39.28v8.74h-.02l-6-8.74H29.62V0h3.62V-8.9h.02L39.3,0h3.6ZM46.82,0h9.84V-3.38H50.62v-2.6h5.46V-9.06H50.62v-2.48h6.04v-3.38H46.82ZM60.16,0h3.8V-5.06H69.3V-8.28H63.96V-11.5h5.72v-3.42H60.16ZM73,0h3.8V-14.92H73ZM91.88-.68V-4.46a6.187,6.187,0,0,1-3.72,1.34,4.263,4.263,0,0,1-4.4-4.34,4.235,4.235,0,0,1,4.4-4.32,6.163,6.163,0,0,1,3.72,1.24v-3.72a8.98,8.98,0,0,0-4.16-1.02,7.612,7.612,0,0,0-7.78,7.82A7.607,7.607,0,0,0,87.72.34,8.98,8.98,0,0,0,91.88-.68ZM95.2,0H99V-14.92H95.2Zm21.72,0-5.56-14.92h-4.4L101.48,0h3.94l1.12-3.3h5.26L112.96,0Zm-7.76-11.04,1.62,4.66h-3.24Zm17.86,5.66a4.66,4.66,0,0,0,3.44-4.52c0-3.32-2.42-5.02-6.08-5.02h-5.02V0h3.8V-4.94h.12L126.7,0h4.5Zm-3.86-2.44V-11.5h1.16c1.38,0,2.32.64,2.32,1.84,0,1.18-.9,1.84-2.34,1.84ZM133.92,0h3.8V-14.92h-3.8Zm7.72,0h9.84V-3.38h-6.04v-2.6h5.46V-9.06h-5.46v-2.48h6.04v-3.38h-9.84ZM160-15.24c-3.44,0-5.5,1.98-5.5,4.6,0,2.78,2.36,3.78,4.1,4.44,1.42.56,2.46.96,2.46,1.84,0,.8-.82,1.38-2.22,1.38a6.919,6.919,0,0,1-4.26-1.6V-1A8.468,8.468,0,0,0,159.24.32c3.52,0,5.68-1.98,5.68-4.8,0-3-2.5-3.96-4.56-4.72-1.38-.54-2.12-.86-2.12-1.56,0-.72.76-1.18,2.02-1.18a7.094,7.094,0,0,1,3.76,1.12v-3.4A8.182,8.182,0,0,0,160-15.24Z" transform="translate(32 49)"/><path d="M0,0H375V240H0Z" transform="translate(0 104)" opacity="0.6" fill="url(#r)"/><g transform="matrix(1, 0, 0, 1, 0, 0)" filter="url(#s)"><path d="M8,0H144a8,8,0,0,1,8,8V152a8,8,0,0,1-8,8H8a8,8,0,0,1-8-8V8A8,8,0,0,1,8,0Z" transform="translate(32 160)" fill="#fff"/></g><g transform="matrix(1, 0, 0, 1, 0, 0)" filter="url(#u)"><path d="M8,0H144a8,8,0,0,1,8,8V152a8,8,0,0,1-8,8H8a8,8,0,0,1-8-8V8A8,8,0,0,1,8,0Z" transform="translate(192 160)" fill="#fff"/></g><path d="M3.312,0H5.256V-3.576l3.3-5.376H6.468L4.356-5.316H4.32L2.184-8.952h-2.2L3.312-3.564Zm8,.168a3.386,3.386,0,0,0,3.492-3.492,3.372,3.372,0,0,0-3.492-3.492A3.386,3.386,0,0,0,7.824-3.324,3.393,3.393,0,0,0,11.316.168Zm0-1.728A1.612,1.612,0,0,1,9.768-3.324a1.612,1.612,0,0,1,1.548-1.764,1.62,1.62,0,0,1,1.56,1.764A1.628,1.628,0,0,1,11.316-1.56ZM18.972.168A2.785,2.785,0,0,0,22.02-2.7V-6.648H20.1v3.936A1.031,1.031,0,0,1,18.972-1.56,1.007,1.007,0,0,1,17.88-2.7V-6.648H15.96V-2.7A2.761,2.761,0,0,0,18.972.168ZM23.532,0h1.92V-3.252a1.485,1.485,0,0,1,1.572-1.68,2.162,2.162,0,0,1,.552.06v-1.8a2.051,2.051,0,0,0-.5-.048,2.035,2.035,0,0,0-1.8,1.068h-.024l-.192-1H23.532ZM35.016-6.816a2.338,2.338,0,0,0-2,1.1h-.036l-.192-.936H31.3V0h1.92V-3.936a1.1,1.1,0,0,1,1.152-1.14c.7,0,1.056.372,1.056,1.188V0h1.92V-4.44A2.17,2.17,0,0,0,35.016-6.816Zm7,6.984A3.386,3.386,0,0,0,45.5-3.324a3.372,3.372,0,0,0-3.492-3.492A3.386,3.386,0,0,0,38.52-3.324,3.393,3.393,0,0,0,42.012.168Zm0-1.728a1.612,1.612,0,0,1-1.548-1.764,1.612,1.612,0,0,1,1.548-1.764,1.62,1.62,0,0,1,1.56,1.764A1.628,1.628,0,0,1,42.012-1.56Zm12.06-5.256a2.181,2.181,0,0,0-1.908,1.128A1.924,1.924,0,0,0,50.3-6.816a2.064,2.064,0,0,0-1.848,1.092H48.42l-.192-.924H46.74V0h1.92V-4a.965.965,0,0,1,.96-1.08c.648,0,.888.348.888,1.068V0h1.92V-4.08a.938.938,0,0,1,.972-1c.648,0,.888.348.888,1.068V0h1.92V-4.4C56.208-5.856,55.524-6.816,54.072-6.816ZM58.74-7.56A1.037,1.037,0,0,0,59.784-8.6,1.035,1.035,0,0,0,58.74-9.636,1.03,1.03,0,0,0,57.684-8.6,1.033,1.033,0,0,0,58.74-7.56ZM57.78,0H59.7V-6.648H57.78Zm7.248-6.816a2.338,2.338,0,0,0-2,1.1h-.036L62.8-6.648H61.308V0h1.92V-3.936a1.1,1.1,0,0,1,1.152-1.14c.7,0,1.056.372,1.056,1.188V0h1.92V-4.44A2.17,2.17,0,0,0,65.028-6.816ZM71.5.168A2.5,2.5,0,0,0,73.68-1.02L73.872,0h1.62V-6.648h-1.62l-.192,1.02A2.525,2.525,0,0,0,71.5-6.816,3.242,3.242,0,0,0,68.544-3.3,3.226,3.226,0,0,0,71.5.168ZM72.06-1.56a1.63,1.63,0,0,1-1.584-1.764A1.637,1.637,0,0,1,72.06-5.088a1.611,1.611,0,0,1,1.548,1.764A1.611,1.611,0,0,1,72.06-1.56Zm7.284-6.624H77.5v1.536h-.948v1.584h.936v2.508A2.472,2.472,0,0,0,80.2.144,4.557,4.557,0,0,0,81.24.036V-1.572a3.756,3.756,0,0,1-.6.06c-.744,0-1.3-.324-1.3-1.164V-5.064H81.12V-6.648H79.344Zm4,.624A1.037,1.037,0,0,0,84.384-8.6,1.035,1.035,0,0,0,83.34-9.636,1.03,1.03,0,0,0,82.284-8.6,1.033,1.033,0,0,0,83.34-7.56ZM82.38,0H84.3V-6.648H82.38Zm6.648.168A3.386,3.386,0,0,0,92.52-3.324a3.372,3.372,0,0,0-3.492-3.492,3.386,3.386,0,0,0-3.492,3.492A3.393,3.393,0,0,0,89.028.168Zm0-1.728A1.612,1.612,0,0,1,87.48-3.324a1.612,1.612,0,0,1,1.548-1.764,1.62,1.62,0,0,1,1.56,1.764A1.628,1.628,0,0,1,89.028-1.56Zm8.448-5.256a2.338,2.338,0,0,0-2,1.1h-.036l-.192-.936H93.756V0h1.92V-3.936a1.1,1.1,0,0,1,1.152-1.14c.7,0,1.056.372,1.056,1.188V0H99.8V-4.44A2.17,2.17,0,0,0,97.476-6.816Zm6.348,0c-1.716,0-2.712.9-2.712,2.124s.984,1.644,2.04,1.944c.864.24,1.344.372,1.344.78,0,.36-.384.576-1.056.576a3.578,3.578,0,0,1-2.292-.828V-.456a4.378,4.378,0,0,0,2.376.624c1.8,0,2.832-.84,2.832-2.148,0-1.4-1.164-1.776-2.256-2.04-.756-.2-1.14-.348-1.14-.708,0-.324.336-.528.936-.528a3.855,3.855,0,0,1,2.028.588V-6.3A4.183,4.183,0,0,0,103.824-6.816Z" transform="translate(32 141)"/><path d="M7.112-5.362a2.349,2.349,0,0,0,1.54-2.282c0-1.554-1.246-2.8-3.612-2.8H1.134V0H5.208c2.52,0,3.724-1.358,3.724-2.926A2.459,2.459,0,0,0,7.112-5.362ZM3.4-8.512H5c.966,0,1.5.5,1.5,1.19S5.978-6.1,4.956-6.1H3.4ZM5.04-1.932H3.4V-4.494h1.68c.98,0,1.624.5,1.624,1.274C6.706-2.478,6.132-1.932,5.04-1.932ZM11.578-8.82A1.21,1.21,0,0,0,12.8-10.038a1.207,1.207,0,0,0-1.218-1.2,1.2,1.2,0,0,0-1.232,1.2A1.2,1.2,0,0,0,11.578-8.82ZM10.458,0H12.7V-7.756h-2.24Zm8.456-7.952a2.728,2.728,0,0,0-2.338,1.288h-.042L16.31-7.756H14.574V0h2.24V-4.592a1.283,1.283,0,0,1,1.344-1.33c.812,0,1.232.434,1.232,1.386V0h2.24V-5.18A2.531,2.531,0,0,0,18.914-7.952ZM26.5.2A2.913,2.913,0,0,0,29.008-1.19L29.232,0h1.89V-11.242h-2.24v4.62a2.765,2.765,0,0,0-2.408-1.33c-1.806,0-3.458,1.6-3.458,4.074S24.7.2,26.5.2Zm.6-2.016A1.9,1.9,0,0,1,25.27-3.878,1.908,1.908,0,0,1,27.1-5.936,1.88,1.88,0,0,1,28.91-3.878,1.88,1.88,0,0,1,27.1-1.82Zm7.014-7a1.21,1.21,0,0,0,1.218-1.218,1.207,1.207,0,0,0-1.218-1.2,1.2,1.2,0,0,0-1.232,1.2A1.2,1.2,0,0,0,34.118-8.82ZM33,0h2.24V-7.756H33Zm8.456-7.952a2.728,2.728,0,0,0-2.338,1.288h-.042L38.85-7.756H37.114V0h2.24V-4.592A1.283,1.283,0,0,1,40.7-5.922c.812,0,1.232.434,1.232,1.386V0h2.24V-5.18A2.531,2.531,0,0,0,41.454-7.952Zm7.574.014A3.7,3.7,0,0,0,45.556-4.06,3.654,3.654,0,0,0,49-.154a2.834,2.834,0,0,0,2.38-1.288v.714c0,1.134-.952,1.918-2.324,1.918A4.549,4.549,0,0,1,46.326.126V2.254a5.237,5.237,0,0,0,2.94.882c2.534,0,4.354-1.5,4.354-4.116V-7.756H51.73l-.224,1.162A2.938,2.938,0,0,0,49.028-7.938Zm.588,1.974a1.814,1.814,0,0,1,1.792,1.9,1.83,1.83,0,0,1-1.792,1.932A1.829,1.829,0,0,1,47.81-4.046,1.846,1.846,0,0,1,49.616-5.964Z" transform="translate(48 191)"/><path d="M10.136-10.444H7.966v6.706H7.952L3.346-10.444H1.134V0H3.318V-6.818h.014L7.98,0h2.156ZM15.82.2a3.95,3.95,0,0,0,4.074-4.074A3.934,3.934,0,0,0,15.82-7.952a3.95,3.95,0,0,0-4.074,4.074A3.958,3.958,0,0,0,15.82.2Zm0-2.016a1.88,1.88,0,0,1-1.806-2.058A1.88,1.88,0,0,1,15.82-5.936a1.89,1.89,0,0,1,1.82,2.058A1.9,1.9,0,0,1,15.82-1.82Zm9.856-6.132a2.728,2.728,0,0,0-2.338,1.288H23.3l-.224-1.092H21.336V0h2.24V-4.592a1.283,1.283,0,0,1,1.344-1.33c.812,0,1.232.434,1.232,1.386V0h2.24V-5.18A2.531,2.531,0,0,0,25.676-7.952ZM30.142-3.6h4.074V-5.32H30.142Zm8.134-7.644h-2.24V0h1.876l.224-1.19A2.92,2.92,0,0,0,40.656.2c1.806,0,3.486-1.6,3.486-4.074s-1.6-4.074-3.4-4.074a2.914,2.914,0,0,0-2.464,1.33ZM40.04-5.936a1.9,1.9,0,0,1,1.834,2.072,1.877,1.877,0,0,1-1.82,2.044,1.864,1.864,0,0,1-1.806-2.058A1.87,1.87,0,0,1,40.04-5.936ZM46.732-8.82a1.21,1.21,0,0,0,1.218-1.218,1.207,1.207,0,0,0-1.218-1.2,1.2,1.2,0,0,0-1.232,1.2A1.2,1.2,0,0,0,46.732-8.82ZM45.612,0h2.24V-7.756h-2.24Zm8.456-7.952A2.728,2.728,0,0,0,51.73-6.664h-.042l-.224-1.092H49.728V0h2.24V-4.592a1.283,1.283,0,0,1,1.344-1.33c.812,0,1.232.434,1.232,1.386V0h2.24V-5.18A2.531,2.531,0,0,0,54.068-7.952ZM61.656.2A2.913,2.913,0,0,0,64.162-1.19L64.386,0h1.89V-11.242h-2.24v4.62a2.765,2.765,0,0,0-2.408-1.33c-1.806,0-3.458,1.6-3.458,4.074S59.85.2,61.656.2Zm.6-2.016a1.9,1.9,0,0,1-1.834-2.058,1.908,1.908,0,0,1,1.834-2.058,1.88,1.88,0,0,1,1.806,2.058A1.88,1.88,0,0,1,62.258-1.82Zm7.014-7a1.21,1.21,0,0,0,1.218-1.218,1.207,1.207,0,0,0-1.218-1.2,1.2,1.2,0,0,0-1.232,1.2A1.2,1.2,0,0,0,69.272-8.82ZM68.152,0h2.24V-7.756h-2.24Zm8.456-7.952A2.728,2.728,0,0,0,74.27-6.664h-.042L74-7.756H72.268V0h2.24V-4.592a1.283,1.283,0,0,1,1.344-1.33c.812,0,1.232.434,1.232,1.386V0h2.24V-5.18A2.531,2.531,0,0,0,76.608-7.952Zm7.574.014A3.7,3.7,0,0,0,80.71-4.06,3.654,3.654,0,0,0,84.154-.154a2.834,2.834,0,0,0,2.38-1.288v.714c0,1.134-.952,1.918-2.324,1.918A4.549,4.549,0,0,1,81.48.126V2.254a5.237,5.237,0,0,0,2.94.882c2.534,0,4.354-1.5,4.354-4.116V-7.756h-1.89L86.66-6.594A2.938,2.938,0,0,0,84.182-7.938Zm.588,1.974a1.814,1.814,0,0,1,1.792,1.9A1.83,1.83,0,0,1,84.77-2.128a1.829,1.829,0,0,1-1.806-1.918A1.846,1.846,0,0,1,84.77-5.964Z" transform="translate(208 191)"/><g transform="translate(114 1683)" fill="#aa0061"><path d="M 15.00030136108398 -1378.249877929688 C 13.04476165771484 -1378.249877929688 11.19537162780762 -1378.5322265625 9.792811393737793 -1379.044921875 C 7.691241264343262 -1379.813110351562 7.250101089477539 -1380.8359375 7.250101089477539 -1381.55859375 C 7.250101089477539 -1382.968383789062 7.738641262054443 -1384.333862304688 8.625720977783203 -1385.403686523438 C 9.490030288696289 -1386.446044921875 10.67895698547363 -1387.147827148438 11.98092651367188 -1387.386108398438 C 11.90875339508057 -1387.465087890625 11.83818435668945 -1387.546997070312 11.76919078826904 -1387.631958007812 C 10.96426105499268 -1388.62353515625 10.50231075286865 -1389.893188476562 10.50180149078369 -1391.115234375 C 10.50180149078369 -1393.671020507812 12.51982116699219 -1395.75 15.00030136108398 -1395.75 C 17.48029136657715 -1395.75 19.49790191650391 -1393.671020507812 19.49790191650391 -1391.115600585938 C 19.49790191650391 -1389.893432617188 19.0362606048584 -1388.623779296875 18.2313404083252 -1387.632080078125 C 18.16230392456055 -1387.546997070312 18.09170722961426 -1387.464965820312 18.01948356628418 -1387.385986328125 C 19.32116889953613 -1387.147583007812 20.50983428955078 -1386.445922851562 21.37398147583008 -1385.403686523438 C 22.26106071472168 -1384.333862304688 22.74960136413574 -1382.968383789062 22.74960136413574 -1381.55859375 C 22.74960136413574 -1380.8359375 22.30849075317383 -1379.813110351562 20.20702171325684 -1379.044921875 C 18.8045711517334 -1378.5322265625 16.9554615020752 -1378.249877929688 15.00030136108398 -1378.249877929688 Z" stroke="none"/><path d="M 15.00030136108398 -1378.999877929688 C 18.86580085754395 -1378.999877929688 21.99960136413574 -1380.1455078125 21.99960136413574 -1381.55859375 C 21.99960136413574 -1384.130737304688 20.1870002746582 -1386.262817382812 17.81370162963867 -1386.66064453125 C 17.08650207519531 -1386.08642578125 16.17930030822754 -1385.745361328125 15.19740104675293 -1385.745361328125 L 14.80230140686035 -1385.745361328125 C 13.82040119171143 -1385.745361328125 12.91320133209229 -1386.08642578125 12.18600082397461 -1386.66064453125 C 9.812701225280762 -1386.262817382812 8.000101089477539 -1384.130737304688 8.000101089477539 -1381.55859375 C 8.000101089477539 -1380.1455078125 11.13390159606934 -1378.999877929688 15.00030136108398 -1378.999877929688 M 15.00030136108398 -1386.7001953125 C 17.06670188903809 -1386.7001953125 18.74790191650391 -1388.9736328125 18.74790191650391 -1391.115600585938 C 18.74790191650391 -1393.257690429688 17.06670188903809 -1395 15.00030136108398 -1395 C 12.93300151824951 -1395 11.25180149078369 -1393.257690429688 11.25180149078369 -1391.115600585938 C 11.25270080566406 -1388.9736328125 12.93390083312988 -1386.7001953125 15.00030136108398 -1386.7001953125 M 15.00030136108398 -1377.499877929688 C 12.95914077758789 -1377.499877929688 11.01830101013184 -1377.798461914062 9.535321235656738 -1378.340454101562 C 8.721271514892578 -1378.638061523438 8.059821128845215 -1379.00390625 7.569351196289062 -1379.427734375 C 6.685601234436035 -1380.191528320312 6.500101089477539 -1381.008056640625 6.500101089477539 -1381.55859375 C 6.500101089477539 -1383.142822265625 7.049961090087891 -1384.678344726562 8.048380851745605 -1385.882446289062 C 8.770835876464844 -1386.753662109375 9.695085525512695 -1387.414672851562 10.72419834136963 -1387.808959960938 C 10.10073661804199 -1388.810791015625 9.752274513244629 -1389.979736328125 9.751801490783691 -1391.114990234375 C 9.751801490783691 -1394.084594726562 12.1062707901001 -1396.5 15.00030136108398 -1396.5 C 17.89384078979492 -1396.5 20.24790191650391 -1394.084594726562 20.24790191650391 -1391.115600585938 C 20.24790191650391 -1389.980102539062 19.89964294433594 -1388.810791015625 19.27607727050781 -1387.808715820312 C 20.30498123168945 -1387.414428710938 21.22898864746094 -1386.753540039062 21.95132064819336 -1385.882446289062 C 22.94974136352539 -1384.678344726562 23.49960136413574 -1383.142822265625 23.49960136413574 -1381.55859375 C 23.49960136413574 -1381.008056640625 23.31410217285156 -1380.191528320312 22.43039131164551 -1379.427734375 C 21.93994140625 -1379.00390625 21.27853202819824 -1378.638061523438 20.46453094482422 -1378.340576171875 C 18.98165130615234 -1377.798461914062 17.04109191894531 -1377.499877929688 15.00030136108398 -1377.499877929688 Z" stroke="none" fill="#fff"/></g><g transform="translate(60 1683)" fill="#00629b"><path d="M 15.00030136108398 -1378.249877929688 C 13.04476165771484 -1378.249877929688 11.19537162780762 -1378.5322265625 9.792811393737793 -1379.044921875 C 7.691241264343262 -1379.813110351562 7.250101089477539 -1380.8359375 7.250101089477539 -1381.55859375 C 7.250101089477539 -1382.968383789062 7.738641262054443 -1384.333862304688 8.625720977783203 -1385.403686523438 C 9.490030288696289 -1386.446044921875 10.67895698547363 -1387.147827148438 11.98092651367188 -1387.386108398438 C 11.90875339508057 -1387.465087890625 11.83818435668945 -1387.546997070312 11.76919078826904 -1387.631958007812 C 10.96426105499268 -1388.62353515625 10.50231075286865 -1389.893188476562 10.50180149078369 -1391.115234375 C 10.50180149078369 -1393.671020507812 12.51982116699219 -1395.75 15.00030136108398 -1395.75 C 17.48029136657715 -1395.75 19.49790191650391 -1393.671020507812 19.49790191650391 -1391.115600585938 C 19.49790191650391 -1389.893432617188 19.0362606048584 -1388.623779296875 18.2313404083252 -1387.632080078125 C 18.16230392456055 -1387.546997070312 18.09170722961426 -1387.464965820312 18.01948356628418 -1387.385986328125 C 19.32116889953613 -1387.147583007812 20.50983428955078 -1386.445922851562 21.37398147583008 -1385.403686523438 C 22.26106071472168 -1384.333862304688 22.74960136413574 -1382.968383789062 22.74960136413574 -1381.55859375 C 22.74960136413574 -1380.8359375 22.30849075317383 -1379.813110351562 20.20702171325684 -1379.044921875 C 18.8045711517334 -1378.5322265625 16.9554615020752 -1378.249877929688 15.00030136108398 -1378.249877929688 Z" stroke="none"/><path d="M 15.00030136108398 -1378.999877929688 C 18.86580085754395 -1378.999877929688 21.99960136413574 -1380.1455078125 21.99960136413574 -1381.55859375 C 21.99960136413574 -1384.130737304688 20.1870002746582 -1386.262817382812 17.81370162963867 -1386.66064453125 C 17.08650207519531 -1386.08642578125 16.17930030822754 -1385.745361328125 15.19740104675293 -1385.745361328125 L 14.80230140686035 -1385.745361328125 C 13.82040119171143 -1385.745361328125 12.91320133209229 -1386.08642578125 12.18600082397461 -1386.66064453125 C 9.812701225280762 -1386.262817382812 8.000101089477539 -1384.130737304688 8.000101089477539 -1381.55859375 C 8.000101089477539 -1380.1455078125 11.13390159606934 -1378.999877929688 15.00030136108398 -1378.999877929688 M 15.00030136108398 -1386.7001953125 C 17.06670188903809 -1386.7001953125 18.74790191650391 -1388.9736328125 18.74790191650391 -1391.115600585938 C 18.74790191650391 -1393.257690429688 17.06670188903809 -1395 15.00030136108398 -1395 C 12.93300151824951 -1395 11.25180149078369 -1393.257690429688 11.25180149078369 -1391.115600585938 C 11.25270080566406 -1388.9736328125 12.93390083312988 -1386.7001953125 15.00030136108398 -1386.7001953125 M 15.00030136108398 -1377.499877929688 C 12.95914077758789 -1377.499877929688 11.01830101013184 -1377.798461914062 9.535321235656738 -1378.340454101562 C 8.721271514892578 -1378.638061523438 8.059821128845215 -1379.00390625 7.569351196289062 -1379.427734375 C 6.685601234436035 -1380.191528320312 6.500101089477539 -1381.008056640625 6.500101089477539 -1381.55859375 C 6.500101089477539 -1383.142822265625 7.049961090087891 -1384.678344726562 8.048380851745605 -1385.882446289062 C 8.770835876464844 -1386.753662109375 9.695085525512695 -1387.414672851562 10.72419834136963 -1387.808959960938 C 10.10073661804199 -1388.810791015625 9.752274513244629 -1389.979736328125 9.751801490783691 -1391.114990234375 C 9.751801490783691 -1394.084594726562 12.1062707901001 -1396.5 15.00030136108398 -1396.5 C 17.89384078979492 -1396.5 20.24790191650391 -1394.084594726562 20.24790191650391 -1391.115600585938 C 20.24790191650391 -1389.980102539062 19.89964294433594 -1388.810791015625 19.27607727050781 -1387.808715820312 C 20.30498123168945 -1387.414428710938 21.22898864746094 -1386.753540039062 21.95132064819336 -1385.882446289062 C 22.94974136352539 -1384.678344726562 23.49960136413574 -1383.142822265625 23.49960136413574 -1381.55859375 C 23.49960136413574 -1381.008056640625 23.31410217285156 -1380.191528320312 22.43039131164551 -1379.427734375 C 21.93994140625 -1379.00390625 21.27853202819824 -1378.638061523438 20.46453094482422 -1378.340576171875 C 18.98165130615234 -1377.798461914062 17.04109191894531 -1377.499877929688 15.00030136108398 -1377.499877929688 Z" stroke="none" fill="#fff"/></g><path d="M1.128,0H6.3V-1.308H2.568V-3.924H6V-5.16H2.568V-7.62H6.3V-8.928H1.128ZM13.416-6.552H11.88L10.392-4.236h-.024L8.88-6.552H7.308L9.552-3.276,7.284,0H8.832l1.524-2.328h.012L11.88,0h1.608L11.2-3.336ZM14.6,2.52H16.02V-1.068a2.553,2.553,0,0,0,2.2,1.224,3.144,3.144,0,0,0,2.94-3.432A3.17,3.17,0,0,0,18.18-6.708a2.569,2.569,0,0,0-2.244,1.284L15.78-6.552H14.6Zm3.24-3.66A1.944,1.944,0,0,1,16-3.276a1.946,1.946,0,0,1,1.86-2.136,1.951,1.951,0,0,1,1.872,2.124A1.96,1.96,0,0,1,17.844-1.14Zm5.508-6.684a.8.8,0,0,0,.828-.8.8.8,0,0,0-.828-.816.8.8,0,0,0-.828.816A.8.8,0,0,0,23.352-7.824ZM22.644,0H24.06V-6.552H22.644Zm3.288,0h1.416V-3.528a1.607,1.607,0,0,1,1.68-1.764,2.208,2.208,0,0,1,.492.048V-6.588a2.509,2.509,0,0,0-.456-.036,2.066,2.066,0,0,0-1.836,1.092H27.2l-.144-1.02H25.932ZM36.168-3.4c0-2.172-1.308-3.312-2.892-3.312A3.241,3.241,0,0,0,30.06-3.252,3.21,3.21,0,0,0,33.5.156a3.985,3.985,0,0,0,2.28-.684V-1.8a3.45,3.45,0,0,1-2.136.78,2.116,2.116,0,0,1-2.22-1.824h4.7A3.876,3.876,0,0,0,36.168-3.4Zm-4.752-.4a1.9,1.9,0,0,1,1.848-1.74,1.584,1.584,0,0,1,1.56,1.74ZM40.2.156a2.555,2.555,0,0,0,2.244-1.284L42.612,0h1.176V-9.612H42.372v4.128a2.479,2.479,0,0,0-2.184-1.224,3.153,3.153,0,0,0-2.952,3.432A3.162,3.162,0,0,0,40.2.156Zm.336-1.3a1.948,1.948,0,0,1-1.872-2.136,1.954,1.954,0,0,1,1.872-2.136A1.96,1.96,0,0,1,42.4-3.276,1.953,1.953,0,0,1,40.536-1.14Z" transform="translate(112 275)" fill="#aa0061"/><path d="M14.24-30.52c-6.8,0-12.2,6-12.2,15.64C2.04-5.32,7.44.68,14.24.68c6.76,0,12.24-6,12.24-15.56C26.48-24.52,21-30.52,14.24-30.52Zm0,6c3.2,0,5.88,3.52,5.88,9.64,0,6.04-2.68,9.56-5.88,9.56S8.52-8.84,8.52-14.88C8.52-21,11.04-24.52,14.24-24.52Z" transform="translate(208 250)"/><path d="M2.8-27.88V-22a10.074,10.074,0,0,1,7.04-2.76c3.2,0,4.88,1.56,4.88,3.52,0,2.04-1.72,3.6-5.56,3.6H6.08v4.96H9.84c3.72,0,5.6,1.56,5.6,3.72,0,2.32-2.32,3.84-5.56,3.84A10.369,10.369,0,0,1,2.2-8.44v6.36A14.178,14.178,0,0,0,10.92.68C18.12.68,22-3.68,22-8.24a7.621,7.621,0,0,0-5.04-7.24v-.12a7.282,7.282,0,0,0,4.12-6.68c0-4.36-3.52-8.24-10.04-8.24A13.166,13.166,0,0,0,2.8-27.88Z" transform="translate(48 250)"/><path d="M1.04,0H22.88V-5.84H12.76c5.44-5.88,8.88-10.24,8.88-14.64,0-5.88-4.2-10.04-10.64-10.04a13.117,13.117,0,0,0-8.28,2.84v6.52a9.819,9.819,0,0,1,7.12-3.36,4.726,4.726,0,0,1,5.08,4.72C14.92-16.8,13.76-14.76,1.04,0Z" transform="translate(112 250)" fill="#aa0061"/><path d="M-6592,10a5.006,5.006,0,0,1-5-5,5.006,5.006,0,0,1,5-5,5,5,0,0,1,5,5A5,5,0,0,1-6592,10Zm0-6.071a.716.716,0,0,0-.713.717V7.5a.707.707,0,0,0,.713.717.716.716,0,0,0,.714-.717V4.645A.708.708,0,0,0-6592,3.929Zm0-2.143a.715.715,0,0,0-.713.714.715.715,0,0,0,.713.714.714.714,0,0,0,.714-.714A.714.714,0,0,0-6592,1.786Z" transform="translate(6755.001 176)" fill="#c1c6c8"/><path d="M-6592,10a5.006,5.006,0,0,1-5-5,5.006,5.006,0,0,1,5-5,5,5,0,0,1,5,5A5,5,0,0,1-6592,10Zm0-6.071a.716.716,0,0,0-.713.717V7.5a.707.707,0,0,0,.713.717.716.716,0,0,0,.714-.717V4.645A.708.708,0,0,0-6592,3.929Zm0-2.143a.715.715,0,0,0-.713.714.715.715,0,0,0,.713.714.714.714,0,0,0,.714-.714A.714.714,0,0,0-6592,1.786Z" transform="translate(6915.001 176)" fill="#c1c6c8"/><path d="M8.616-8.928h-1.5L4.368-1.56,1.6-8.928H.072L3.588,0H5.136ZM11.52.156a2.58,2.58,0,0,0,2.268-1.284L13.944,0H15.12V-6.552H13.944l-.156,1.128A2.58,2.58,0,0,0,11.52-6.708,3.186,3.186,0,0,0,8.58-3.264,3.178,3.178,0,0,0,11.52.156Zm.36-1.3A1.956,1.956,0,0,1,10-3.276,1.963,1.963,0,0,1,11.88-5.412a1.96,1.96,0,0,1,1.86,2.136A1.953,1.953,0,0,1,11.88-1.14ZM16.992,0h1.416V-9.612H16.992Zm4.02-7.824a.8.8,0,0,0,.828-.8.8.8,0,0,0-.828-.816.8.8,0,0,0-.828.816A.8.8,0,0,0,21.012-7.824ZM20.3,0H21.72V-6.552H20.3Zm5.868.156a2.555,2.555,0,0,0,2.244-1.284L28.584,0H29.76V-9.612H28.344v4.128A2.479,2.479,0,0,0,26.16-6.708a3.153,3.153,0,0,0-2.952,3.432A3.162,3.162,0,0,0,26.172.156Zm.336-1.3a1.948,1.948,0,0,1-1.872-2.136,1.954,1.954,0,0,1,1.872-2.136,1.96,1.96,0,0,1,1.86,2.136A1.953,1.953,0,0,1,26.508-1.14Z" transform="translate(48 275)"/><path d="M8.616-8.928h-1.5L4.368-1.56,1.6-8.928H.072L3.588,0H5.136ZM11.52.156a2.58,2.58,0,0,0,2.268-1.284L13.944,0H15.12V-6.552H13.944l-.156,1.128A2.58,2.58,0,0,0,11.52-6.708,3.186,3.186,0,0,0,8.58-3.264,3.178,3.178,0,0,0,11.52.156Zm.36-1.3A1.956,1.956,0,0,1,10-3.276,1.963,1.963,0,0,1,11.88-5.412a1.96,1.96,0,0,1,1.86,2.136A1.953,1.953,0,0,1,11.88-1.14ZM16.992,0h1.416V-9.612H16.992Zm4.02-7.824a.8.8,0,0,0,.828-.8.8.8,0,0,0-.828-.816.8.8,0,0,0-.828.816A.8.8,0,0,0,21.012-7.824ZM20.3,0H21.72V-6.552H20.3Zm5.868.156a2.555,2.555,0,0,0,2.244-1.284L28.584,0H29.76V-9.612H28.344v4.128A2.479,2.479,0,0,0,26.16-6.708a3.153,3.153,0,0,0-2.952,3.432A3.162,3.162,0,0,0,26.172.156Zm.336-1.3a1.948,1.948,0,0,1-1.872-2.136,1.954,1.954,0,0,1,1.872-2.136,1.96,1.96,0,0,1,1.86,2.136A1.953,1.953,0,0,1,26.508-1.14Z" transform="translate(208 276)"/><g transform="translate(50 1683)" fill="#00629b"><path d="M 15.00030136108398 -1378.249877929688 C 13.04476165771484 -1378.249877929688 11.19537162780762 -1378.5322265625 9.792811393737793 -1379.044921875 C 7.691241264343262 -1379.813110351562 7.250101089477539 -1380.8359375 7.250101089477539 -1381.55859375 C 7.250101089477539 -1382.968383789062 7.738641262054443 -1384.333862304688 8.625720977783203 -1385.403686523438 C 9.490030288696289 -1386.446044921875 10.67895698547363 -1387.147827148438 11.98092651367188 -1387.386108398438 C 11.90875339508057 -1387.465087890625 11.83818435668945 -1387.546997070312 11.76919078826904 -1387.631958007812 C 10.96426105499268 -1388.62353515625 10.50231075286865 -1389.893188476562 10.50180149078369 -1391.115234375 C 10.50180149078369 -1393.671020507812 12.51982116699219 -1395.75 15.00030136108398 -1395.75 C 17.48029136657715 -1395.75 19.49790191650391 -1393.671020507812 19.49790191650391 -1391.115600585938 C 19.49790191650391 -1389.893432617188 19.0362606048584 -1388.623779296875 18.2313404083252 -1387.632080078125 C 18.16230392456055 -1387.546997070312 18.09170722961426 -1387.464965820312 18.01948356628418 -1387.385986328125 C 19.32116889953613 -1387.147583007812 20.50983428955078 -1386.445922851562 21.37398147583008 -1385.403686523438 C 22.26106071472168 -1384.333862304688 22.74960136413574 -1382.968383789062 22.74960136413574 -1381.55859375 C 22.74960136413574 -1380.8359375 22.30849075317383 -1379.813110351562 20.20702171325684 -1379.044921875 C 18.8045711517334 -1378.5322265625 16.9554615020752 -1378.249877929688 15.00030136108398 -1378.249877929688 Z" stroke="none"/><path d="M 15.00030136108398 -1378.999877929688 C 18.86580085754395 -1378.999877929688 21.99960136413574 -1380.1455078125 21.99960136413574 -1381.55859375 C 21.99960136413574 -1384.130737304688 20.1870002746582 -1386.262817382812 17.81370162963867 -1386.66064453125 C 17.08650207519531 -1386.08642578125 16.17930030822754 -1385.745361328125 15.19740104675293 -1385.745361328125 L 14.80230140686035 -1385.745361328125 C 13.82040119171143 -1385.745361328125 12.91320133209229 -1386.08642578125 12.18600082397461 -1386.66064453125 C 9.812701225280762 -1386.262817382812 8.000101089477539 -1384.130737304688 8.000101089477539 -1381.55859375 C 8.000101089477539 -1380.1455078125 11.13390159606934 -1378.999877929688 15.00030136108398 -1378.999877929688 M 15.00030136108398 -1386.7001953125 C 17.06670188903809 -1386.7001953125 18.74790191650391 -1388.9736328125 18.74790191650391 -1391.115600585938 C 18.74790191650391 -1393.257690429688 17.06670188903809 -1395 15.00030136108398 -1395 C 12.93300151824951 -1395 11.25180149078369 -1393.257690429688 11.25180149078369 -1391.115600585938 C 11.25270080566406 -1388.9736328125 12.93390083312988 -1386.7001953125 15.00030136108398 -1386.7001953125 M 15.00030136108398 -1377.499877929688 C 12.95914077758789 -1377.499877929688 11.01830101013184 -1377.798461914062 9.535321235656738 -1378.340454101562 C 8.721271514892578 -1378.638061523438 8.059821128845215 -1379.00390625 7.569351196289062 -1379.427734375 C 6.685601234436035 -1380.191528320312 6.500101089477539 -1381.008056640625 6.500101089477539 -1381.55859375 C 6.500101089477539 -1383.142822265625 7.049961090087891 -1384.678344726562 8.048380851745605 -1385.882446289062 C 8.770835876464844 -1386.753662109375 9.695085525512695 -1387.414672851562 10.72419834136963 -1387.808959960938 C 10.10073661804199 -1388.810791015625 9.752274513244629 -1389.979736328125 9.751801490783691 -1391.114990234375 C 9.751801490783691 -1394.084594726562 12.1062707901001 -1396.5 15.00030136108398 -1396.5 C 17.89384078979492 -1396.5 20.24790191650391 -1394.084594726562 20.24790191650391 -1391.115600585938 C 20.24790191650391 -1389.980102539062 19.89964294433594 -1388.810791015625 19.27607727050781 -1387.808715820312 C 20.30498123168945 -1387.414428710938 21.22898864746094 -1386.753540039062 21.95132064819336 -1385.882446289062 C 22.94974136352539 -1384.678344726562 23.49960136413574 -1383.142822265625 23.49960136413574 -1381.55859375 C 23.49960136413574 -1381.008056640625 23.31410217285156 -1380.191528320312 22.43039131164551 -1379.427734375 C 21.93994140625 -1379.00390625 21.27853202819824 -1378.638061523438 20.46453094482422 -1378.340576171875 C 18.98165130615234 -1377.798461914062 17.04109191894531 -1377.499877929688 15.00030136108398 -1377.499877929688 Z" stroke="none" fill="#fff"/></g><g transform="translate(40 1683)" fill="#00629b"><path d="M 15.00030136108398 -1378.249877929688 C 13.04476165771484 -1378.249877929688 11.19537162780762 -1378.5322265625 9.792811393737793 -1379.044921875 C 7.691241264343262 -1379.813110351562 7.250101089477539 -1380.8359375 7.250101089477539 -1381.55859375 C 7.250101089477539 -1382.968383789062 7.738641262054443 -1384.333862304688 8.625720977783203 -1385.403686523438 C 9.490030288696289 -1386.446044921875 10.67895698547363 -1387.147827148438 11.98092651367188 -1387.386108398438 C 11.90875339508057 -1387.465087890625 11.83818435668945 -1387.546997070312 11.76919078826904 -1387.631958007812 C 10.96426105499268 -1388.62353515625 10.50231075286865 -1389.893188476562 10.50180149078369 -1391.115234375 C 10.50180149078369 -1393.671020507812 12.51982116699219 -1395.75 15.00030136108398 -1395.75 C 17.48029136657715 -1395.75 19.49790191650391 -1393.671020507812 19.49790191650391 -1391.115600585938 C 19.49790191650391 -1389.893432617188 19.0362606048584 -1388.623779296875 18.2313404083252 -1387.632080078125 C 18.16230392456055 -1387.546997070312 18.09170722961426 -1387.464965820312 18.01948356628418 -1387.385986328125 C 19.32116889953613 -1387.147583007812 20.50983428955078 -1386.445922851562 21.37398147583008 -1385.403686523438 C 22.26106071472168 -1384.333862304688 22.74960136413574 -1382.968383789062 22.74960136413574 -1381.55859375 C 22.74960136413574 -1380.8359375 22.30849075317383 -1379.813110351562 20.20702171325684 -1379.044921875 C 18.8045711517334 -1378.5322265625 16.9554615020752 -1378.249877929688 15.00030136108398 -1378.249877929688 Z" stroke="none"/><path d="M 15.00030136108398 -1378.999877929688 C 18.86580085754395 -1378.999877929688 21.99960136413574 -1380.1455078125 21.99960136413574 -1381.55859375 C 21.99960136413574 -1384.130737304688 20.1870002746582 -1386.262817382812 17.81370162963867 -1386.66064453125 C 17.08650207519531 -1386.08642578125 16.17930030822754 -1385.745361328125 15.19740104675293 -1385.745361328125 L 14.80230140686035 -1385.745361328125 C 13.82040119171143 -1385.745361328125 12.91320133209229 -1386.08642578125 12.18600082397461 -1386.66064453125 C 9.812701225280762 -1386.262817382812 8.000101089477539 -1384.130737304688 8.000101089477539 -1381.55859375 C 8.000101089477539 -1380.1455078125 11.13390159606934 -1378.999877929688 15.00030136108398 -1378.999877929688 M 15.00030136108398 -1386.7001953125 C 17.06670188903809 -1386.7001953125 18.74790191650391 -1388.9736328125 18.74790191650391 -1391.115600585938 C 18.74790191650391 -1393.257690429688 17.06670188903809 -1395 15.00030136108398 -1395 C 12.93300151824951 -1395 11.25180149078369 -1393.257690429688 11.25180149078369 -1391.115600585938 C 11.25270080566406 -1388.9736328125 12.93390083312988 -1386.7001953125 15.00030136108398 -1386.7001953125 M 15.00030136108398 -1377.499877929688 C 12.95914077758789 -1377.499877929688 11.01830101013184 -1377.798461914062 9.535321235656738 -1378.340454101562 C 8.721271514892578 -1378.638061523438 8.059821128845215 -1379.00390625 7.569351196289062 -1379.427734375 C 6.685601234436035 -1380.191528320312 6.500101089477539 -1381.008056640625 6.500101089477539 -1381.55859375 C 6.500101089477539 -1383.142822265625 7.049961090087891 -1384.678344726562 8.048380851745605 -1385.882446289062 C 8.770835876464844 -1386.753662109375 9.695085525512695 -1387.414672851562 10.72419834136963 -1387.808959960938 C 10.10073661804199 -1388.810791015625 9.752274513244629 -1389.979736328125 9.751801490783691 -1391.114990234375 C 9.751801490783691 -1394.084594726562 12.1062707901001 -1396.5 15.00030136108398 -1396.5 C 17.89384078979492 -1396.5 20.24790191650391 -1394.084594726562 20.24790191650391 -1391.115600585938 C 20.24790191650391 -1389.980102539062 19.89964294433594 -1388.810791015625 19.27607727050781 -1387.808715820312 C 20.30498123168945 -1387.414428710938 21.22898864746094 -1386.753540039062 21.95132064819336 -1385.882446289062 C 22.94974136352539 -1384.678344726562 23.49960136413574 -1383.142822265625 23.49960136413574 -1381.55859375 C 23.49960136413574 -1381.008056640625 23.31410217285156 -1380.191528320312 22.43039131164551 -1379.427734375 C 21.93994140625 -1379.00390625 21.27853202819824 -1378.638061523438 20.46453094482422 -1378.340576171875 C 18.98165130615234 -1377.798461914062 17.04109191894531 -1377.499877929688 15.00030136108398 -1377.499877929688 Z" stroke="none" fill="#fff"/></g><g transform="translate(200 1683)" fill="#e1e2e8"><path d="M 15.00030136108398 -1378.249877929688 C 13.04476165771484 -1378.249877929688 11.19537162780762 -1378.5322265625 9.792811393737793 -1379.044921875 C 7.691241264343262 -1379.813110351562 7.250101089477539 -1380.8359375 7.250101089477539 -1381.55859375 C 7.250101089477539 -1382.968383789062 7.738641262054443 -1384.333862304688 8.625720977783203 -1385.403686523438 C 9.490030288696289 -1386.446044921875 10.67895698547363 -1387.147827148438 11.98092651367188 -1387.386108398438 C 11.90875339508057 -1387.465087890625 11.83818435668945 -1387.546997070312 11.76919078826904 -1387.631958007812 C 10.96426105499268 -1388.62353515625 10.50231075286865 -1389.893188476562 10.50180149078369 -1391.115234375 C 10.50180149078369 -1393.671020507812 12.51982116699219 -1395.75 15.00030136108398 -1395.75 C 17.48029136657715 -1395.75 19.49790191650391 -1393.671020507812 19.49790191650391 -1391.115600585938 C 19.49790191650391 -1389.893432617188 19.0362606048584 -1388.623779296875 18.2313404083252 -1387.632080078125 C 18.16230392456055 -1387.546997070312 18.09170722961426 -1387.464965820312 18.01948356628418 -1387.385986328125 C 19.32116889953613 -1387.147583007812 20.50983428955078 -1386.445922851562 21.37398147583008 -1385.403686523438 C 22.26106071472168 -1384.333862304688 22.74960136413574 -1382.968383789062 22.74960136413574 -1381.55859375 C 22.74960136413574 -1380.8359375 22.30849075317383 -1379.813110351562 20.20702171325684 -1379.044921875 C 18.8045711517334 -1378.5322265625 16.9554615020752 -1378.249877929688 15.00030136108398 -1378.249877929688 Z" stroke="none"/><path d="M 15.00030136108398 -1378.999877929688 C 18.86580085754395 -1378.999877929688 21.99960136413574 -1380.1455078125 21.99960136413574 -1381.55859375 C 21.99960136413574 -1384.130737304688 20.1870002746582 -1386.262817382812 17.81370162963867 -1386.66064453125 C 17.08650207519531 -1386.08642578125 16.17930030822754 -1385.745361328125 15.19740104675293 -1385.745361328125 L 14.80230140686035 -1385.745361328125 C 13.82040119171143 -1385.745361328125 12.91320133209229 -1386.08642578125 12.18600082397461 -1386.66064453125 C 9.812701225280762 -1386.262817382812 8.000101089477539 -1384.130737304688 8.000101089477539 -1381.55859375 C 8.000101089477539 -1380.1455078125 11.13390159606934 -1378.999877929688 15.00030136108398 -1378.999877929688 M 15.00030136108398 -1386.7001953125 C 17.06670188903809 -1386.7001953125 18.74790191650391 -1388.9736328125 18.74790191650391 -1391.115600585938 C 18.74790191650391 -1393.257690429688 17.06670188903809 -1395 15.00030136108398 -1395 C 12.93300151824951 -1395 11.25180149078369 -1393.257690429688 11.25180149078369 -1391.115600585938 C 11.25270080566406 -1388.9736328125 12.93390083312988 -1386.7001953125 15.00030136108398 -1386.7001953125 M 15.00030136108398 -1377.499877929688 C 12.95914077758789 -1377.499877929688 11.01830101013184 -1377.798461914062 9.535321235656738 -1378.340454101562 C 8.721271514892578 -1378.638061523438 8.059821128845215 -1379.00390625 7.569351196289062 -1379.427734375 C 6.685601234436035 -1380.191528320312 6.500101089477539 -1381.008056640625 6.500101089477539 -1381.55859375 C 6.500101089477539 -1383.142822265625 7.049961090087891 -1384.678344726562 8.048380851745605 -1385.882446289062 C 8.770835876464844 -1386.753662109375 9.695085525512695 -1387.414672851562 10.72419834136963 -1387.808959960938 C 10.10073661804199 -1388.810791015625 9.752274513244629 -1389.979736328125 9.751801490783691 -1391.114990234375 C 9.751801490783691 -1394.084594726562 12.1062707901001 -1396.5 15.00030136108398 -1396.5 C 17.89384078979492 -1396.5 20.24790191650391 -1394.084594726562 20.24790191650391 -1391.115600585938 C 20.24790191650391 -1389.980102539062 19.89964294433594 -1388.810791015625 19.27607727050781 -1387.808715820312 C 20.30498123168945 -1387.414428710938 21.22898864746094 -1386.753540039062 21.95132064819336 -1385.882446289062 C 22.94974136352539 -1384.678344726562 23.49960136413574 -1383.142822265625 23.49960136413574 -1381.55859375 C 23.49960136413574 -1381.008056640625 23.31410217285156 -1380.191528320312 22.43039131164551 -1379.427734375 C 21.93994140625 -1379.00390625 21.27853202819824 -1378.638061523438 20.46453094482422 -1378.340576171875 C 18.98165130615234 -1377.798461914062 17.04109191894531 -1377.499877929688 15.00030136108398 -1377.499877929688 Z" stroke="none" fill="#fff"/></g><g transform="translate(104 1683)" fill="#aa0061"><path d="M 15.00030136108398 -1378.249877929688 C 13.04476165771484 -1378.249877929688 11.19537162780762 -1378.5322265625 9.792811393737793 -1379.044921875 C 7.691241264343262 -1379.813110351562 7.250101089477539 -1380.8359375 7.250101089477539 -1381.55859375 C 7.250101089477539 -1382.968383789062 7.738641262054443 -1384.333862304688 8.625720977783203 -1385.403686523438 C 9.490030288696289 -1386.446044921875 10.67895698547363 -1387.147827148438 11.98092651367188 -1387.386108398438 C 11.90875339508057 -1387.465087890625 11.83818435668945 -1387.546997070312 11.76919078826904 -1387.631958007812 C 10.96426105499268 -1388.62353515625 10.50231075286865 -1389.893188476562 10.50180149078369 -1391.115234375 C 10.50180149078369 -1393.671020507812 12.51982116699219 -1395.75 15.00030136108398 -1395.75 C 17.48029136657715 -1395.75 19.49790191650391 -1393.671020507812 19.49790191650391 -1391.115600585938 C 19.49790191650391 -1389.893432617188 19.0362606048584 -1388.623779296875 18.2313404083252 -1387.632080078125 C 18.16230392456055 -1387.546997070312 18.09170722961426 -1387.464965820312 18.01948356628418 -1387.385986328125 C 19.32116889953613 -1387.147583007812 20.50983428955078 -1386.445922851562 21.37398147583008 -1385.403686523438 C 22.26106071472168 -1384.333862304688 22.74960136413574 -1382.968383789062 22.74960136413574 -1381.55859375 C 22.74960136413574 -1380.8359375 22.30849075317383 -1379.813110351562 20.20702171325684 -1379.044921875 C 18.8045711517334 -1378.5322265625 16.9554615020752 -1378.249877929688 15.00030136108398 -1378.249877929688 Z" stroke="none"/><path d="M 15.00030136108398 -1378.999877929688 C 18.86580085754395 -1378.999877929688 21.99960136413574 -1380.1455078125 21.99960136413574 -1381.55859375 C 21.99960136413574 -1384.130737304688 20.1870002746582 -1386.262817382812 17.81370162963867 -1386.66064453125 C 17.08650207519531 -1386.08642578125 16.17930030822754 -1385.745361328125 15.19740104675293 -1385.745361328125 L 14.80230140686035 -1385.745361328125 C 13.82040119171143 -1385.745361328125 12.91320133209229 -1386.08642578125 12.18600082397461 -1386.66064453125 C 9.812701225280762 -1386.262817382812 8.000101089477539 -1384.130737304688 8.000101089477539 -1381.55859375 C 8.000101089477539 -1380.1455078125 11.13390159606934 -1378.999877929688 15.00030136108398 -1378.999877929688 M 15.00030136108398 -1386.7001953125 C 17.06670188903809 -1386.7001953125 18.74790191650391 -1388.9736328125 18.74790191650391 -1391.115600585938 C 18.74790191650391 -1393.257690429688 17.06670188903809 -1395 15.00030136108398 -1395 C 12.93300151824951 -1395 11.25180149078369 -1393.257690429688 11.25180149078369 -1391.115600585938 C 11.25270080566406 -1388.9736328125 12.93390083312988 -1386.7001953125 15.00030136108398 -1386.7001953125 M 15.00030136108398 -1377.499877929688 C 12.95914077758789 -1377.499877929688 11.01830101013184 -1377.798461914062 9.535321235656738 -1378.340454101562 C 8.721271514892578 -1378.638061523438 8.059821128845215 -1379.00390625 7.569351196289062 -1379.427734375 C 6.685601234436035 -1380.191528320312 6.500101089477539 -1381.008056640625 6.500101089477539 -1381.55859375 C 6.500101089477539 -1383.142822265625 7.049961090087891 -1384.678344726562 8.048380851745605 -1385.882446289062 C 8.770835876464844 -1386.753662109375 9.695085525512695 -1387.414672851562 10.72419834136963 -1387.808959960938 C 10.10073661804199 -1388.810791015625 9.752274513244629 -1389.979736328125 9.751801490783691 -1391.114990234375 C 9.751801490783691 -1394.084594726562 12.1062707901001 -1396.5 15.00030136108398 -1396.5 C 17.89384078979492 -1396.5 20.24790191650391 -1394.084594726562 20.24790191650391 -1391.115600585938 C 20.24790191650391 -1389.980102539062 19.89964294433594 -1388.810791015625 19.27607727050781 -1387.808715820312 C 20.30498123168945 -1387.414428710938 21.22898864746094 -1386.753540039062 21.95132064819336 -1385.882446289062 C 22.94974136352539 -1384.678344726562 23.49960136413574 -1383.142822265625 23.49960136413574 -1381.55859375 C 23.49960136413574 -1381.008056640625 23.31410217285156 -1380.191528320312 22.43039131164551 -1379.427734375 C 21.93994140625 -1379.00390625 21.27853202819824 -1378.638061523438 20.46453094482422 -1378.340576171875 C 18.98165130615234 -1377.798461914062 17.04109191894531 -1377.499877929688 15.00030136108398 -1377.499877929688 Z" stroke="none" fill="#fff"/></g><path d="M3.72.15A2.757,2.757,0,0,0,6.59-2.82V-7.44H5.66v4.66A1.863,1.863,0,0,1,3.72-.73,1.809,1.809,0,0,1,1.86-2.76V-7.44H.93v4.63A2.7,2.7,0,0,0,3.72.15ZM8.36,2.1h.92V-.94A2.153,2.153,0,0,0,11.15.12,2.6,2.6,0,0,0,13.6-2.71a2.608,2.608,0,0,0-2.46-2.82A2.18,2.18,0,0,0,9.22-4.41l-.11-1H8.36Zm2.6-2.84A1.79,1.79,0,0,1,9.26-2.7a1.793,1.793,0,0,1,1.7-1.97,1.792,1.792,0,0,1,1.72,1.96A1.79,1.79,0,0,1,10.96-.74Zm6.11.86A2.186,2.186,0,0,0,19-.99l.11.99h.75V-8h-.92v3.53a2.123,2.123,0,0,0-1.87-1.06A2.605,2.605,0,0,0,14.61-2.7,2.614,2.614,0,0,0,17.07.12Zm.19-.86A1.8,1.8,0,0,1,15.53-2.7a1.8,1.8,0,0,1,1.73-1.97,1.79,1.79,0,0,1,1.7,1.96A1.793,1.793,0,0,1,17.26-.74Zm6.38.86A2.175,2.175,0,0,0,25.57-.99l.11.99h.75V-5.41h-.75l-.11,1a2.184,2.184,0,0,0-1.93-1.12A2.617,2.617,0,0,0,21.18-2.7,2.62,2.62,0,0,0,23.64.12Zm.19-.86A1.792,1.792,0,0,1,22.11-2.7a1.8,1.8,0,0,1,1.72-1.97,1.8,1.8,0,0,1,1.71,1.96A1.8,1.8,0,0,1,23.83-.74Zm5.41-5.94h-.88v1.27h-.83v.8h.81v2.72A1.79,1.79,0,0,0,30.27.07a3.389,3.389,0,0,0,.64-.06v-.8a2.8,2.8,0,0,1-.48.05,1.074,1.074,0,0,1-1.19-1.19V-4.61h1.55v-.8H29.24Zm7.32,3.87c0-1.78-1.05-2.72-2.33-2.72a2.656,2.656,0,0,0-2.61,2.85A2.6,2.6,0,0,0,34.36.12a3.152,3.152,0,0,0,1.89-.6v-.91a2.8,2.8,0,0,1-1.82.71A1.844,1.844,0,0,1,32.52-2.4h4.01A2.456,2.456,0,0,0,36.56-2.81Zm-4.04-.28a1.756,1.756,0,0,1,1.7-1.64,1.474,1.474,0,0,1,1.45,1.64ZM40,.12A2.186,2.186,0,0,0,41.93-.99l.11.99h.75V-8h-.92v3.53A2.123,2.123,0,0,0,40-5.53,2.605,2.605,0,0,0,37.54-2.7,2.614,2.614,0,0,0,40,.12Zm.19-.86A1.8,1.8,0,0,1,38.46-2.7a1.8,1.8,0,0,1,1.73-1.97,1.79,1.79,0,0,1,1.7,1.96A1.793,1.793,0,0,1,40.19-.74Zm4.78-2.6a.613.613,0,0,0,.62-.63.611.611,0,0,0-.62-.62.6.6,0,0,0-.62.62A.607.607,0,0,0,44.97-3.34Zm0,3.39a.611.611,0,0,0,.62-.62.613.613,0,0,0-.62-.63.607.607,0,0,0-.62.63A.6.6,0,0,0,44.97.05ZM49.42,0h4.94V-.88H51.23c1.86-2.03,2.86-3.25,2.86-4.43a2.191,2.191,0,0,0-2.33-2.28,2.987,2.987,0,0,0-1.98.73v1.04a2.587,2.587,0,0,1,1.9-.89,1.411,1.411,0,0,1,1.47,1.45C53.15-4.39,52.73-3.7,49.42,0Zm5.86,0h4.94V-.88H57.09c1.86-2.03,2.86-3.25,2.86-4.43a2.191,2.191,0,0,0-2.33-2.28,2.987,2.987,0,0,0-1.98.73v1.04a2.587,2.587,0,0,1,1.9-.89,1.411,1.411,0,0,1,1.47,1.45C59.01-4.39,58.59-3.7,55.28,0Zm5.84,1.33h.89L65.36-8.76h-.9ZM66.29,0h.99l3.89-7.44H66.23v.87h3.52Zm4.62,1.33h.89L75.15-8.76h-.9ZM75.87,0h4.94V-.88H77.68c1.86-2.03,2.86-3.25,2.86-4.43a2.191,2.191,0,0,0-2.33-2.28,2.987,2.987,0,0,0-1.98.73v1.04a2.587,2.587,0,0,1,1.9-.89A1.411,1.411,0,0,1,79.6-5.26C79.6-4.39,79.18-3.7,75.87,0Zm8.9-7.59c-1.54,0-2.78,1.46-2.78,3.88S83.23.15,84.77.15s2.79-1.45,2.79-3.86S86.31-7.59,84.77-7.59Zm0,.88c1.02,0,1.86,1.1,1.86,3S85.79-.73,84.77-.73s-1.84-1.08-1.84-2.98S83.74-6.71,84.77-6.71ZM88.55,0h4.94V-.88H90.36c1.86-2.03,2.86-3.25,2.86-4.43a2.191,2.191,0,0,0-2.33-2.28,2.987,2.987,0,0,0-1.98.73v1.04a2.587,2.587,0,0,1,1.9-.89,1.411,1.411,0,0,1,1.47,1.45C92.28-4.39,91.86-3.7,88.55,0Zm8.9-7.59c-1.54,0-2.78,1.46-2.78,3.88S95.91.15,97.45.15s2.79-1.45,2.79-3.86S98.99-7.59,97.45-7.59Zm0,.88c1.02,0,1.86,1.1,1.86,3S98.47-.73,97.45-.73s-1.84-1.08-1.84-2.98S96.42-6.71,97.45-6.71Z" transform="translate(243 43)" fill="#5b6770"/></g></svg>