<svg xmlns="http://www.w3.org/2000/svg" xmlns:xlink="http://www.w3.org/1999/xlink" width="375" height="628" viewBox="0 0 375 628"><defs><linearGradient id="a" x1="0.581" y1="1.071" x2="0.387" y2="-0.139" gradientUnits="objectBoundingBox"><stop offset="0" stop-color="#e1e2e8"/><stop offset="1" stop-color="#f8f8fc"/></linearGradient><filter id="b" x="20" y="166" width="176" height="184" filterUnits="userSpaceOnUse"><feOffset dy="2" input="SourceAlpha"/><feGaussianBlur stdDeviation="4" result="c"/><feFlood flood-opacity="0.031"/><feComposite operator="in" in2="c"/><feComposite in="SourceGraphic"/></filter><filter id="d" x="180" y="166" width="176" height="184" filterUnits="userSpaceOnUse"><feOffset dy="2" input="SourceAlpha"/><feGaussianBlur stdDeviation="4" result="e"/><feFlood flood-opacity="0.031"/><feComposite operator="in" in2="e"/><feComposite in="SourceGraphic"/></filter><linearGradient id="f" x1="0.208" x2="0.683" y2="1" gradientUnits="objectBoundingBox"><stop offset="0" stop-color="#ffc400"/><stop offset="1" stop-color="#ffa300"/></linearGradient><filter id="g" x="14" y="379" width="59.06" height="60" filterUnits="userSpaceOnUse"><feOffset dy="4" input="SourceAlpha"/><feGaussianBlur stdDeviation="6" result="h"/><feFlood flood-color="#ffa300" flood-opacity="0.2"/><feComposite operator="in" in2="h"/><feComposite in="SourceGraphic"/></filter><clipPath id="j"><rect width="375" height="628"/></clipPath></defs><g id="i" clip-path="url(#j)"><rect width="375" height="628" fill="#fff"/><path d="M3.72.15A2.757,2.757,0,0,0,6.59-2.82V-7.44H5.66v4.66A1.863,1.863,0,0,1,3.72-.73,1.809,1.809,0,0,1,1.86-2.76V-7.44H.93v4.63A2.7,2.7,0,0,0,3.72.15ZM8.36,2.1h.92V-.94A2.153,2.153,0,0,0,11.15.12,2.6,2.6,0,0,0,13.6-2.71a2.608,2.608,0,0,0-2.46-2.82A2.18,2.18,0,0,0,9.22-4.41l-.11-1H8.36Zm2.6-2.84A1.79,1.79,0,0,1,9.26-2.7a1.793,1.793,0,0,1,1.7-1.97,1.792,1.792,0,0,1,1.72,1.96A1.79,1.79,0,0,1,10.96-.74Zm6.11.86A2.186,2.186,0,0,0,19-.99l.11.99h.75V-8h-.92v3.53a2.123,2.123,0,0,0-1.87-1.06A2.605,2.605,0,0,0,14.61-2.7,2.614,2.614,0,0,0,17.07.12Zm.19-.86A1.8,1.8,0,0,1,15.53-2.7a1.8,1.8,0,0,1,1.73-1.97,1.79,1.79,0,0,1,1.7,1.96A1.793,1.793,0,0,1,17.26-.74Zm6.38.86A2.175,2.175,0,0,0,25.57-.99l.11.99h.75V-5.41h-.75l-.11,1a2.184,2.184,0,0,0-1.93-1.12A2.617,2.617,0,0,0,21.18-2.7,2.62,2.62,0,0,0,23.64.12Zm.19-.86A1.792,1.792,0,0,1,22.11-2.7a1.8,1.8,0,0,1,1.72-1.97,1.8,1.8,0,0,1,1.71,1.96A1.8,1.8,0,0,1,23.83-.74Zm5.41-5.94h-.88v1.27h-.83v.8h.81v2.72A1.79,1.79,0,0,0,30.27.07a3.389,3.389,0,0,0,.64-.06v-.8a2.8,2.8,0,0,1-.48.05,1.074,1.074,0,0,1-1.19-1.19V-4.61h1.55v-.8H29.24Zm7.32,3.87c0-1.78-1.05-2.72-2.33-2.72a2.656,2.656,0,0,0-2.61,2.85A2.6,2.6,0,0,0,34.36.12a3.152,3.152,0,0,0,1.89-.6v-.91a2.8,2.8,0,0,1-1.82.71A1.844,1.844,0,0,1,32.52-2.4h4.01A2.456,2.456,0,0,0,36.56-2.81Zm-4.04-.28a1.756,1.756,0,0,1,1.7-1.64,1.474,1.474,0,0,1,1.45,1.64ZM40,.12A2.186,2.186,0,0,0,41.93-.99l.11.99h.75V-8h-.92v3.53A2.123,2.123,0,0,0,40-5.53,2.605,2.605,0,0,0,37.54-2.7,2.614,2.614,0,0,0,40,.12Zm.19-.86A1.8,1.8,0,0,1,38.46-2.7a1.8,1.8,0,0,1,1.73-1.97,1.79,1.79,0,0,1,1.7,1.96A1.793,1.793,0,0,1,40.19-.74Zm4.78-2.6a.613.613,0,0,0,.62-.63.611.611,0,0,0-.62-.62.6.6,0,0,0-.62.62A.607.607,0,0,0,44.97-3.34Zm0,3.39a.611.611,0,0,0,.62-.62.613.613,0,0,0-.62-.63.607.607,0,0,0-.62.63A.6.6,0,0,0,44.97.05ZM49.42,0h4.94V-.88H51.23c1.86-2.03,2.86-3.25,2.86-4.43a2.191,2.191,0,0,0-2.33-2.28,2.987,2.987,0,0,0-1.98.73v1.04a2.587,2.587,0,0,1,1.9-.89,1.411,1.411,0,0,1,1.47,1.45C53.15-4.39,52.73-3.7,49.42,0Zm5.86,0h4.94V-.88H57.09c1.86-2.03,2.86-3.25,2.86-4.43a2.191,2.191,0,0,0-2.33-2.28,2.987,2.987,0,0,0-1.98.73v1.04a2.587,2.587,0,0,1,1.9-.89,1.411,1.411,0,0,1,1.47,1.45C59.01-4.39,58.59-3.7,55.28,0Zm5.84,1.33h.89L65.36-8.76h-.9ZM66.29,0h.99l3.89-7.44H66.23v.87h3.52Zm4.62,1.33h.89L75.15-8.76h-.9ZM75.87,0h4.94V-.88H77.68c1.86-2.03,2.86-3.25,2.86-4.43a2.191,2.191,0,0,0-2.33-2.28,2.987,2.987,0,0,0-1.98.73v1.04a2.587,2.587,0,0,1,1.9-.89A1.411,1.411,0,0,1,79.6-5.26C79.6-4.39,79.18-3.7,75.87,0Zm8.9-7.59c-1.54,0-2.78,1.46-2.78,3.88S83.23.15,84.77.15s2.79-1.45,2.79-3.86S86.31-7.59,84.77-7.59Zm0,.88c1.02,0,1.86,1.1,1.86,3S85.79-.73,84.77-.73s-1.84-1.08-1.84-2.98S83.74-6.71,84.77-6.71ZM88.55,0h4.94V-.88H90.36c1.86-2.03,2.86-3.25,2.86-4.43a2.191,2.191,0,0,0-2.33-2.28,2.987,2.987,0,0,0-1.98.73v1.04a2.587,2.587,0,0,1,1.9-.89,1.411,1.411,0,0,1,1.47,1.45C92.28-4.39,91.86-3.7,88.55,0Zm8.9-7.59c-1.54,0-2.78,1.46-2.78,3.88S95.91.15,97.45.15s2.79-1.45,2.79-3.86S98.99-7.59,97.45-7.59Zm0,.88c1.02,0,1.86,1.1,1.86,3S98.47-.73,97.45-.73s-1.84-1.08-1.84-2.98S96.42-6.71,97.45-6.71Z" transform="translate(32 71)"/><path d="M1.46,0H7.7c3.68,0,5.4-1.96,5.4-4.2a3.454,3.454,0,0,0-2.56-3.44v-.02a3.344,3.344,0,0,0,2.18-3.22c0-2.24-1.8-4.04-5.28-4.04H1.46ZM5.22-8.86v-2.9h2.1c1.22,0,1.84.64,1.84,1.44S8.54-8.86,7.28-8.86Zm0,5.68V-6.26h2.2c1.24,0,1.98.62,1.98,1.54,0,.88-.68,1.54-2.02,1.54ZM17.28,0h9.84V-3.38H21.08v-2.6h5.46V-9.06H21.08v-2.48h6.04v-3.38H17.28ZM44.9-14.92H41.28v8.74h-.02l-6-8.74H31.62V0h3.62V-8.9h.02L41.3,0h3.6ZM49.82,0h9.84V-3.38H53.62v-2.6h5.46V-9.06H53.62v-2.48h6.04v-3.38H49.82ZM64.16,0h3.8V-5.06H73.3V-8.28H67.96V-11.5h5.72v-3.42H64.16ZM78,0h3.8V-14.92H78ZM97.88-.68V-4.46a6.187,6.187,0,0,1-3.72,1.34,4.263,4.263,0,0,1-4.4-4.34,4.235,4.235,0,0,1,4.4-4.32,6.163,6.163,0,0,1,3.72,1.24v-3.72a8.98,8.98,0,0,0-4.16-1.02,7.612,7.612,0,0,0-7.78,7.82A7.607,7.607,0,0,0,93.72.34,8.98,8.98,0,0,0,97.88-.68ZM102.2,0H106V-14.92h-3.8Zm22.72,0-5.56-14.92h-4.4L109.48,0h3.94l1.12-3.3h5.26L120.96,0Zm-7.76-11.04,1.62,4.66h-3.24Zm18.86,5.66a4.66,4.66,0,0,0,3.44-4.52c0-3.32-2.42-5.02-6.08-5.02h-5.02V0h3.8V-4.94h.12L135.7,0h4.5Zm-3.86-2.44V-11.5h1.16c1.38,0,2.32.64,2.32,1.84,0,1.18-.9,1.84-2.34,1.84ZM143.92,0h3.8V-14.92h-3.8Zm8.72,0h9.84V-3.38h-6.04v-2.6h5.46V-9.06h-5.46v-2.48h6.04v-3.38h-9.84ZM172-15.24c-3.44,0-5.5,1.98-5.5,4.6,0,2.78,2.36,3.78,4.1,4.44,1.42.56,2.46.96,2.46,1.84,0,.8-.82,1.38-2.22,1.38a6.919,6.919,0,0,1-4.26-1.6V-1A8.468,8.468,0,0,0,171.24.32c3.52,0,5.68-1.98,5.68-4.8,0-3-2.5-3.96-4.56-4.72-1.38-.54-2.12-.86-2.12-1.56,0-.72.76-1.18,2.02-1.18a7.094,7.094,0,0,1,3.76,1.12v-3.4A8.182,8.182,0,0,0,172-15.24Z" transform="translate(32 49)"/><rect width="375" height="240" transform="translate(0 120)" opacity="0.6" fill="url(#a)"/><g transform="matrix(1, 0, 0, 1, 0, 0)" filter="url(#b)"><rect width="152" height="160" rx="8" transform="translate(32 176)" fill="#fff"/></g><g transform="matrix(1, 0, 0, 1, 0, 0)" filter="url(#d)"><rect width="152" height="160" rx="8" transform="translate(192 176)" fill="#fff"/></g><path d="M3.312,0H5.256V-3.576l3.3-5.376H6.468L4.356-5.316H4.32L2.184-8.952h-2.2L3.312-3.564Zm8,.168a3.386,3.386,0,0,0,3.492-3.492,3.372,3.372,0,0,0-3.492-3.492A3.386,3.386,0,0,0,7.824-3.324,3.393,3.393,0,0,0,11.316.168Zm0-1.728A1.612,1.612,0,0,1,9.768-3.324a1.612,1.612,0,0,1,1.548-1.764,1.62,1.62,0,0,1,1.56,1.764A1.628,1.628,0,0,1,11.316-1.56ZM18.972.168A2.785,2.785,0,0,0,22.02-2.7V-6.648H20.1v3.936A1.031,1.031,0,0,1,18.972-1.56,1.007,1.007,0,0,1,17.88-2.7V-6.648H15.96V-2.7A2.761,2.761,0,0,0,18.972.168ZM23.532,0h1.92V-3.252a1.485,1.485,0,0,1,1.572-1.68,2.162,2.162,0,0,1,.552.06v-1.8a2.051,2.051,0,0,0-.5-.048,2.035,2.035,0,0,0-1.8,1.068h-.024l-.192-1H23.532ZM35.016-6.816a2.338,2.338,0,0,0-2,1.1h-.036l-.192-.936H31.3V0h1.92V-3.936a1.1,1.1,0,0,1,1.152-1.14c.7,0,1.056.372,1.056,1.188V0h1.92V-4.44A2.17,2.17,0,0,0,35.016-6.816Zm7,6.984A3.386,3.386,0,0,0,45.5-3.324a3.372,3.372,0,0,0-3.492-3.492A3.386,3.386,0,0,0,38.52-3.324,3.393,3.393,0,0,0,42.012.168Zm0-1.728a1.612,1.612,0,0,1-1.548-1.764,1.612,1.612,0,0,1,1.548-1.764,1.62,1.62,0,0,1,1.56,1.764A1.628,1.628,0,0,1,42.012-1.56Zm12.06-5.256a2.181,2.181,0,0,0-1.908,1.128A1.924,1.924,0,0,0,50.3-6.816a2.064,2.064,0,0,0-1.848,1.092H48.42l-.192-.924H46.74V0h1.92V-4a.965.965,0,0,1,.96-1.08c.648,0,.888.348.888,1.068V0h1.92V-4.08a.938.938,0,0,1,.972-1c.648,0,.888.348.888,1.068V0h1.92V-4.4C56.208-5.856,55.524-6.816,54.072-6.816ZM58.74-7.56A1.037,1.037,0,0,0,59.784-8.6,1.035,1.035,0,0,0,58.74-9.636,1.03,1.03,0,0,0,57.684-8.6,1.033,1.033,0,0,0,58.74-7.56ZM57.78,0H59.7V-6.648H57.78Zm7.248-6.816a2.338,2.338,0,0,0-2,1.1h-.036L62.8-6.648H61.308V0h1.92V-3.936a1.1,1.1,0,0,1,1.152-1.14c.7,0,1.056.372,1.056,1.188V0h1.92V-4.44A2.17,2.17,0,0,0,65.028-6.816ZM71.5.168A2.5,2.5,0,0,0,73.68-1.02L73.872,0h1.62V-6.648h-1.62l-.192,1.02A2.525,2.525,0,0,0,71.5-6.816,3.242,3.242,0,0,0,68.544-3.3,3.226,3.226,0,0,0,71.5.168ZM72.06-1.56a1.63,1.63,0,0,1-1.584-1.764A1.637,1.637,0,0,1,72.06-5.088a1.611,1.611,0,0,1,1.548,1.764A1.611,1.611,0,0,1,72.06-1.56Zm7.284-6.624H77.5v1.536h-.948v1.584h.936v2.508A2.472,2.472,0,0,0,80.2.144,4.557,4.557,0,0,0,81.24.036V-1.572a3.756,3.756,0,0,1-.6.06c-.744,0-1.3-.324-1.3-1.164V-5.064H81.12V-6.648H79.344Zm4,.624A1.037,1.037,0,0,0,84.384-8.6,1.035,1.035,0,0,0,83.34-9.636,1.03,1.03,0,0,0,82.284-8.6,1.033,1.033,0,0,0,83.34-7.56ZM82.38,0H84.3V-6.648H82.38Zm6.648.168A3.386,3.386,0,0,0,92.52-3.324a3.372,3.372,0,0,0-3.492-3.492,3.386,3.386,0,0,0-3.492,3.492A3.393,3.393,0,0,0,89.028.168Zm0-1.728A1.612,1.612,0,0,1,87.48-3.324a1.612,1.612,0,0,1,1.548-1.764,1.62,1.62,0,0,1,1.56,1.764A1.628,1.628,0,0,1,89.028-1.56Zm8.448-5.256a2.338,2.338,0,0,0-2,1.1h-.036l-.192-.936H93.756V0h1.92V-3.936a1.1,1.1,0,0,1,1.152-1.14c.7,0,1.056.372,1.056,1.188V0H99.8V-4.44A2.17,2.17,0,0,0,97.476-6.816Zm6.348,0c-1.716,0-2.712.9-2.712,2.124s.984,1.644,2.04,1.944c.864.24,1.344.372,1.344.78,0,.36-.384.576-1.056.576a3.578,3.578,0,0,1-2.292-.828V-.456a4.378,4.378,0,0,0,2.376.624c1.8,0,2.832-.84,2.832-2.148,0-1.4-1.164-1.776-2.256-2.04-.756-.2-1.14-.348-1.14-.708,0-.324.336-.528.936-.528a3.855,3.855,0,0,1,2.028.588V-6.3A4.183,4.183,0,0,0,103.824-6.816Z" transform="translate(32 157)"/><path d="M7.112-5.362a2.349,2.349,0,0,0,1.54-2.282c0-1.554-1.246-2.8-3.612-2.8H1.134V0H5.208c2.52,0,3.724-1.358,3.724-2.926A2.459,2.459,0,0,0,7.112-5.362ZM3.4-8.512H5c.966,0,1.5.5,1.5,1.19S5.978-6.1,4.956-6.1H3.4ZM5.04-1.932H3.4V-4.494h1.68c.98,0,1.624.5,1.624,1.274C6.706-2.478,6.132-1.932,5.04-1.932ZM11.578-8.82A1.21,1.21,0,0,0,12.8-10.038a1.207,1.207,0,0,0-1.218-1.2,1.2,1.2,0,0,0-1.232,1.2A1.2,1.2,0,0,0,11.578-8.82ZM10.458,0H12.7V-7.756h-2.24Zm8.456-7.952a2.728,2.728,0,0,0-2.338,1.288h-.042L16.31-7.756H14.574V0h2.24V-4.592a1.283,1.283,0,0,1,1.344-1.33c.812,0,1.232.434,1.232,1.386V0h2.24V-5.18A2.531,2.531,0,0,0,18.914-7.952ZM26.5.2A2.913,2.913,0,0,0,29.008-1.19L29.232,0h1.89V-11.242h-2.24v4.62a2.765,2.765,0,0,0-2.408-1.33c-1.806,0-3.458,1.6-3.458,4.074S24.7.2,26.5.2Zm.6-2.016A1.9,1.9,0,0,1,25.27-3.878,1.908,1.908,0,0,1,27.1-5.936,1.88,1.88,0,0,1,28.91-3.878,1.88,1.88,0,0,1,27.1-1.82Zm7.014-7a1.21,1.21,0,0,0,1.218-1.218,1.207,1.207,0,0,0-1.218-1.2,1.2,1.2,0,0,0-1.232,1.2A1.2,1.2,0,0,0,34.118-8.82ZM33,0h2.24V-7.756H33Zm8.456-7.952a2.728,2.728,0,0,0-2.338,1.288h-.042L38.85-7.756H37.114V0h2.24V-4.592A1.283,1.283,0,0,1,40.7-5.922c.812,0,1.232.434,1.232,1.386V0h2.24V-5.18A2.531,2.531,0,0,0,41.454-7.952Zm7.574.014A3.7,3.7,0,0,0,45.556-4.06,3.654,3.654,0,0,0,49-.154a2.834,2.834,0,0,0,2.38-1.288v.714c0,1.134-.952,1.918-2.324,1.918A4.549,4.549,0,0,1,46.326.126V2.254a5.237,5.237,0,0,0,2.94.882c2.534,0,4.354-1.5,4.354-4.116V-7.756H51.73l-.224,1.162A2.938,2.938,0,0,0,49.028-7.938Zm.588,1.974a1.814,1.814,0,0,1,1.792,1.9,1.83,1.83,0,0,1-1.792,1.932A1.829,1.829,0,0,1,47.81-4.046,1.846,1.846,0,0,1,49.616-5.964Z" transform="translate(48 207)"/><path d="M10.136-10.444H7.966v6.706H7.952L3.346-10.444H1.134V0H3.318V-6.818h.014L7.98,0h2.156ZM15.82.2a3.95,3.95,0,0,0,4.074-4.074A3.934,3.934,0,0,0,15.82-7.952a3.95,3.95,0,0,0-4.074,4.074A3.958,3.958,0,0,0,15.82.2Zm0-2.016a1.88,1.88,0,0,1-1.806-2.058A1.88,1.88,0,0,1,15.82-5.936a1.89,1.89,0,0,1,1.82,2.058A1.9,1.9,0,0,1,15.82-1.82Zm9.856-6.132a2.728,2.728,0,0,0-2.338,1.288H23.3l-.224-1.092H21.336V0h2.24V-4.592a1.283,1.283,0,0,1,1.344-1.33c.812,0,1.232.434,1.232,1.386V0h2.24V-5.18A2.531,2.531,0,0,0,25.676-7.952ZM30.142-3.6h4.074V-5.32H30.142Zm8.134-7.644h-2.24V0h1.876l.224-1.19A2.92,2.92,0,0,0,40.656.2c1.806,0,3.486-1.6,3.486-4.074s-1.6-4.074-3.4-4.074a2.914,2.914,0,0,0-2.464,1.33ZM40.04-5.936a1.9,1.9,0,0,1,1.834,2.072,1.877,1.877,0,0,1-1.82,2.044,1.864,1.864,0,0,1-1.806-2.058A1.87,1.87,0,0,1,40.04-5.936ZM46.732-8.82a1.21,1.21,0,0,0,1.218-1.218,1.207,1.207,0,0,0-1.218-1.2,1.2,1.2,0,0,0-1.232,1.2A1.2,1.2,0,0,0,46.732-8.82ZM45.612,0h2.24V-7.756h-2.24Zm8.456-7.952A2.728,2.728,0,0,0,51.73-6.664h-.042l-.224-1.092H49.728V0h2.24V-4.592a1.283,1.283,0,0,1,1.344-1.33c.812,0,1.232.434,1.232,1.386V0h2.24V-5.18A2.531,2.531,0,0,0,54.068-7.952ZM61.656.2A2.913,2.913,0,0,0,64.162-1.19L64.386,0h1.89V-11.242h-2.24v4.62a2.765,2.765,0,0,0-2.408-1.33c-1.806,0-3.458,1.6-3.458,4.074S59.85.2,61.656.2Zm.6-2.016a1.9,1.9,0,0,1-1.834-2.058,1.908,1.908,0,0,1,1.834-2.058,1.88,1.88,0,0,1,1.806,2.058A1.88,1.88,0,0,1,62.258-1.82Zm7.014-7a1.21,1.21,0,0,0,1.218-1.218,1.207,1.207,0,0,0-1.218-1.2,1.2,1.2,0,0,0-1.232,1.2A1.2,1.2,0,0,0,69.272-8.82ZM68.152,0h2.24V-7.756h-2.24Zm8.456-7.952A2.728,2.728,0,0,0,74.27-6.664h-.042L74-7.756H72.268V0h2.24V-4.592a1.283,1.283,0,0,1,1.344-1.33c.812,0,1.232.434,1.232,1.386V0h2.24V-5.18A2.531,2.531,0,0,0,76.608-7.952Zm7.574.014A3.7,3.7,0,0,0,80.71-4.06,3.654,3.654,0,0,0,84.154-.154a2.834,2.834,0,0,0,2.38-1.288v.714c0,1.134-.952,1.918-2.324,1.918A4.549,4.549,0,0,1,81.48.126V2.254a5.237,5.237,0,0,0,2.94.882c2.534,0,4.354-1.5,4.354-4.116V-7.756h-1.89L86.66-6.594A2.938,2.938,0,0,0,84.182-7.938Zm.588,1.974a1.814,1.814,0,0,1,1.792,1.9A1.83,1.83,0,0,1,84.77-2.128a1.829,1.829,0,0,1-1.806-1.918A1.846,1.846,0,0,1,84.77-5.964Z" transform="translate(208 207)"/><g transform="translate(559 -10)" fill="#aa0061"><path d="M -430.0002746582031 330.7500915527344 C -431.9555969238281 330.7500915527344 -433.804931640625 330.4676818847656 -435.2076416015625 329.9548950195312 C -437.309326171875 329.1865234375 -437.75048828125 328.1637573242188 -437.75048828125 327.4410705566406 C -437.75048828125 326.0312805175781 -437.2619018554688 324.6656799316406 -436.3746948242188 323.5959167480469 C -435.5102233886719 322.5535278320312 -434.3212585449219 321.8519592285156 -433.0190734863281 321.6139526367188 C -433.0912780761719 321.5349731445312 -433.1620483398438 321.4528198242188 -433.2310791015625 321.3677673339844 C -434.0359802246094 320.3762817382812 -434.497802734375 319.106689453125 -434.4981384277344 317.8846130371094 C -434.4981384277344 315.3290405273438 -432.4804077148438 313.2500915527344 -430.0002746582031 313.2500915527344 C -427.5203552246094 313.2500915527344 -425.5028076171875 315.3290405273438 -425.5028076171875 317.8843994140625 C -425.5028076171875 319.1065979003906 -425.96435546875 320.376220703125 -426.7691345214844 321.3677368164062 C -426.8381958007812 321.4528503417969 -426.908935546875 321.5349426269531 -426.981201171875 321.614013671875 C -425.6792907714844 321.8520202636719 -424.4905090332031 322.5535888671875 -423.6261596679688 323.595947265625 C -422.7390441894531 324.6657409667969 -422.25048828125 326.0313110351562 -422.25048828125 327.4410705566406 C -422.25048828125 328.1637573242188 -422.6915893554688 329.1865539550781 -424.7930603027344 329.9548645019531 C -426.1956176757812 330.4676818847656 -428.044921875 330.7500915527344 -430.0002746582031 330.7500915527344 Z" stroke="none"/><path d="M -430.0002746582031 330.0000915527344 C -426.1341857910156 330.0000915527344 -423.00048828125 328.8541259765625 -423.00048828125 327.4410705566406 C -423.00048828125 324.8690490722656 -424.8130798339844 322.7366027832031 -427.1866455078125 322.3394165039062 C -427.9137268066406 322.9130554199219 -428.8209838867188 323.2549743652344 -429.8034362792969 323.2549743652344 L -430.1976623535156 323.2549743652344 C -431.1801147460938 323.2549743652344 -432.087158203125 322.9130554199219 -432.8138122558594 322.3394165039062 C -435.1878051757812 322.7366027832031 -437.00048828125 324.8690490722656 -437.00048828125 327.4410705566406 C -437.00048828125 328.8541259765625 -433.8662109375 330.0000915527344 -430.0002746582031 330.0000915527344 M -430.0002746582031 322.2992553710938 C -427.9333801269531 322.2992553710938 -426.2528076171875 320.0264282226562 -426.2528076171875 317.8843994140625 C -426.2528076171875 315.7424621582031 -427.9333801269531 314.0000915527344 -430.0002746582031 314.0000915527344 C -432.0669860839844 314.0000915527344 -433.7481384277344 315.7424621582031 -433.7481384277344 317.8843994140625 C -433.74755859375 320.0264282226562 -432.0664367675781 322.2992553710938 -430.0002746582031 322.2992553710938 M -430.0002746582031 331.5000915527344 C -432.0412292480469 331.5000915527344 -433.9820251464844 331.2014770507812 -435.4651489257812 330.6592712402344 C -436.2792053222656 330.3616638183594 -436.940673828125 329.995849609375 -437.43115234375 329.5719604492188 C -438.3149719238281 328.8081665039062 -438.50048828125 327.9915771484375 -438.50048828125 327.4410705566406 C -438.50048828125 325.8568115234375 -437.9505615234375 324.3211975097656 -436.9519958496094 323.1171264648438 C -436.2294616699219 322.2459106445312 -435.30517578125 321.5851135253906 -434.2760009765625 321.1909484863281 C -434.8995056152344 320.1891174316406 -435.2478332519531 319.0201110839844 -435.2481384277344 317.8848266601562 C -435.2481384277344 314.9154663085938 -432.8939514160156 312.5000915527344 -430.0002746582031 312.5000915527344 C -427.1068115234375 312.5000915527344 -424.7528076171875 314.9154663085938 -424.7528076171875 317.8843994140625 C -424.7528076171875 319.0198974609375 -425.1009216308594 320.1890869140625 -425.7243957519531 321.1910400390625 C -424.6953430175781 321.585205078125 -423.7713012695312 322.2459411621094 -423.048828125 323.1171875 C -422.0503540039062 324.3212890625 -421.50048828125 325.8568725585938 -421.50048828125 327.4410705566406 C -421.50048828125 327.9915466308594 -421.6859741210938 328.80810546875 -422.5696411132812 329.5718688964844 C -423.0600891113281 329.9957885742188 -423.7214965820312 330.3616638183594 -424.5355224609375 330.6592712402344 C -426.0185241699219 331.2014770507812 -427.9592895507812 331.5000915527344 -430.0002746582031 331.5000915527344 Z" stroke="none" fill="#fff"/></g><g transform="translate(505 -10)" fill="#00629b"><path d="M -430.0002746582031 330.7500915527344 C -431.9555969238281 330.7500915527344 -433.804931640625 330.4676818847656 -435.2076416015625 329.9548950195312 C -437.309326171875 329.1865234375 -437.75048828125 328.1637573242188 -437.75048828125 327.4410705566406 C -437.75048828125 326.0312805175781 -437.2619018554688 324.6656799316406 -436.3746948242188 323.5959167480469 C -435.5102233886719 322.5535278320312 -434.3212585449219 321.8519592285156 -433.0190734863281 321.6139526367188 C -433.0912780761719 321.5349731445312 -433.1620483398438 321.4528198242188 -433.2310791015625 321.3677673339844 C -434.0359802246094 320.3762817382812 -434.497802734375 319.106689453125 -434.4981384277344 317.8846130371094 C -434.4981384277344 315.3290405273438 -432.4804077148438 313.2500915527344 -430.0002746582031 313.2500915527344 C -427.5203552246094 313.2500915527344 -425.5028076171875 315.3290405273438 -425.5028076171875 317.8843994140625 C -425.5028076171875 319.1065979003906 -425.96435546875 320.376220703125 -426.7691345214844 321.3677368164062 C -426.8381958007812 321.4528503417969 -426.908935546875 321.5349426269531 -426.981201171875 321.614013671875 C -425.6792907714844 321.8520202636719 -424.4905090332031 322.5535888671875 -423.6261596679688 323.595947265625 C -422.7390441894531 324.6657409667969 -422.25048828125 326.0313110351562 -422.25048828125 327.4410705566406 C -422.25048828125 328.1637573242188 -422.6915893554688 329.1865539550781 -424.7930603027344 329.9548645019531 C -426.1956176757812 330.4676818847656 -428.044921875 330.7500915527344 -430.0002746582031 330.7500915527344 Z" stroke="none"/><path d="M -430.0002746582031 330.0000915527344 C -426.1341857910156 330.0000915527344 -423.00048828125 328.8541259765625 -423.00048828125 327.4410705566406 C -423.00048828125 324.8690490722656 -424.8130798339844 322.7366027832031 -427.1866455078125 322.3394165039062 C -427.9137268066406 322.9130554199219 -428.8209838867188 323.2549743652344 -429.8034362792969 323.2549743652344 L -430.1976623535156 323.2549743652344 C -431.1801147460938 323.2549743652344 -432.087158203125 322.9130554199219 -432.8138122558594 322.3394165039062 C -435.1878051757812 322.7366027832031 -437.00048828125 324.8690490722656 -437.00048828125 327.4410705566406 C -437.00048828125 328.8541259765625 -433.8662109375 330.0000915527344 -430.0002746582031 330.0000915527344 M -430.0002746582031 322.2992553710938 C -427.9333801269531 322.2992553710938 -426.2528076171875 320.0264282226562 -426.2528076171875 317.8843994140625 C -426.2528076171875 315.7424621582031 -427.9333801269531 314.0000915527344 -430.0002746582031 314.0000915527344 C -432.0669860839844 314.0000915527344 -433.7481384277344 315.7424621582031 -433.7481384277344 317.8843994140625 C -433.74755859375 320.0264282226562 -432.0664367675781 322.2992553710938 -430.0002746582031 322.2992553710938 M -430.0002746582031 331.5000915527344 C -432.0412292480469 331.5000915527344 -433.9820251464844 331.2014770507812 -435.4651489257812 330.6592712402344 C -436.2792053222656 330.3616638183594 -436.940673828125 329.995849609375 -437.43115234375 329.5719604492188 C -438.3149719238281 328.8081665039062 -438.50048828125 327.9915771484375 -438.50048828125 327.4410705566406 C -438.50048828125 325.8568115234375 -437.9505615234375 324.3211975097656 -436.9519958496094 323.1171264648438 C -436.2294616699219 322.2459106445312 -435.30517578125 321.5851135253906 -434.2760009765625 321.1909484863281 C -434.8995056152344 320.1891174316406 -435.2478332519531 319.0201110839844 -435.2481384277344 317.8848266601562 C -435.2481384277344 314.9154663085938 -432.8939514160156 312.5000915527344 -430.0002746582031 312.5000915527344 C -427.1068115234375 312.5000915527344 -424.7528076171875 314.9154663085938 -424.7528076171875 317.8843994140625 C -424.7528076171875 319.0198974609375 -425.1009216308594 320.1890869140625 -425.7243957519531 321.1910400390625 C -424.6953430175781 321.585205078125 -423.7713012695312 322.2459411621094 -423.048828125 323.1171875 C -422.0503540039062 324.3212890625 -421.50048828125 325.8568725585938 -421.50048828125 327.4410705566406 C -421.50048828125 327.9915466308594 -421.6859741210938 328.80810546875 -422.5696411132812 329.5718688964844 C -423.0600891113281 329.9957885742188 -423.7214965820312 330.3616638183594 -424.5355224609375 330.6592712402344 C -426.0185241699219 331.2014770507812 -427.9592895507812 331.5000915527344 -430.0002746582031 331.5000915527344 Z" stroke="none" fill="#fff"/></g><path d="M1.128,0H6.3V-1.308H2.568V-3.924H6V-5.16H2.568V-7.62H6.3V-8.928H1.128ZM13.416-6.552H11.88L10.392-4.236h-.024L8.88-6.552H7.308L9.552-3.276,7.284,0H8.832l1.524-2.328h.012L11.88,0h1.608L11.2-3.336ZM14.6,2.52H16.02V-1.068a2.553,2.553,0,0,0,2.2,1.224,3.144,3.144,0,0,0,2.94-3.432A3.17,3.17,0,0,0,18.18-6.708a2.569,2.569,0,0,0-2.244,1.284L15.78-6.552H14.6Zm3.24-3.66A1.944,1.944,0,0,1,16-3.276a1.946,1.946,0,0,1,1.86-2.136,1.951,1.951,0,0,1,1.872,2.124A1.96,1.96,0,0,1,17.844-1.14Zm5.508-6.684a.8.8,0,0,0,.828-.8.8.8,0,0,0-.828-.816.8.8,0,0,0-.828.816A.8.8,0,0,0,23.352-7.824ZM22.644,0H24.06V-6.552H22.644Zm3.288,0h1.416V-3.528a1.607,1.607,0,0,1,1.68-1.764,2.208,2.208,0,0,1,.492.048V-6.588a2.509,2.509,0,0,0-.456-.036,2.066,2.066,0,0,0-1.836,1.092H27.2l-.144-1.02H25.932ZM36.168-3.4c0-2.172-1.308-3.312-2.892-3.312A3.241,3.241,0,0,0,30.06-3.252,3.21,3.21,0,0,0,33.5.156a3.985,3.985,0,0,0,2.28-.684V-1.8a3.45,3.45,0,0,1-2.136.78,2.116,2.116,0,0,1-2.22-1.824h4.7A3.876,3.876,0,0,0,36.168-3.4Zm-4.752-.4a1.9,1.9,0,0,1,1.848-1.74,1.584,1.584,0,0,1,1.56,1.74ZM40.2.156a2.555,2.555,0,0,0,2.244-1.284L42.612,0h1.176V-9.612H42.372v4.128a2.479,2.479,0,0,0-2.184-1.224,3.153,3.153,0,0,0-2.952,3.432A3.162,3.162,0,0,0,40.2.156Zm.336-1.3a1.948,1.948,0,0,1-1.872-2.136,1.954,1.954,0,0,1,1.872-2.136A1.96,1.96,0,0,1,42.4-3.276,1.953,1.953,0,0,1,40.536-1.14Z" transform="translate(112 291)" fill="#aa0061"/><path d="M14.24-30.52c-6.8,0-12.2,6-12.2,15.64C2.04-5.32,7.44.68,14.24.68c6.76,0,12.24-6,12.24-15.56C26.48-24.52,21-30.52,14.24-30.52Zm0,6c3.2,0,5.88,3.52,5.88,9.64,0,6.04-2.68,9.56-5.88,9.56S8.52-8.84,8.52-14.88C8.52-21,11.04-24.52,14.24-24.52Z" transform="translate(208 266)"/><path d="M2.8-27.88V-22a10.074,10.074,0,0,1,7.04-2.76c3.2,0,4.88,1.56,4.88,3.52,0,2.04-1.72,3.6-5.56,3.6H6.08v4.96H9.84c3.72,0,5.6,1.56,5.6,3.72,0,2.32-2.32,3.84-5.56,3.84A10.369,10.369,0,0,1,2.2-8.44v6.36A14.178,14.178,0,0,0,10.92.68C18.12.68,22-3.68,22-8.24a7.621,7.621,0,0,0-5.04-7.24v-.12a7.282,7.282,0,0,0,4.12-6.68c0-4.36-3.52-8.24-10.04-8.24A13.166,13.166,0,0,0,2.8-27.88Z" transform="translate(48 266)"/><path d="M1.04,0H22.88V-5.84H12.76c5.44-5.88,8.88-10.24,8.88-14.64,0-5.88-4.2-10.04-10.64-10.04a13.117,13.117,0,0,0-8.28,2.84v6.52a9.819,9.819,0,0,1,7.12-3.36,4.726,4.726,0,0,1,5.08,4.72C14.92-16.8,13.76-14.76,1.04,0Z" transform="translate(112 266)" fill="#aa0061"/><path d="M-6592,10a5.006,5.006,0,0,1-5-5,5.006,5.006,0,0,1,5-5,5,5,0,0,1,5,5A5,5,0,0,1-6592,10Zm0-6.071a.716.716,0,0,0-.713.717V7.5a.707.707,0,0,0,.713.717.716.716,0,0,0,.714-.717V4.645A.708.708,0,0,0-6592,3.929Zm0-2.143a.715.715,0,0,0-.713.714.715.715,0,0,0,.713.714.714.714,0,0,0,.714-.714A.714.714,0,0,0-6592,1.786Z" transform="translate(6747.001 192)" fill="#c1c6c8"/><path d="M-6592,10a5.006,5.006,0,0,1-5-5,5.006,5.006,0,0,1,5-5,5,5,0,0,1,5,5A5,5,0,0,1-6592,10Zm0-6.071a.716.716,0,0,0-.713.717V7.5a.707.707,0,0,0,.713.717.716.716,0,0,0,.714-.717V4.645A.708.708,0,0,0-6592,3.929Zm0-2.143a.715.715,0,0,0-.713.714.715.715,0,0,0,.713.714.714.714,0,0,0,.714-.714A.714.714,0,0,0-6592,1.786Z" transform="translate(6915.001 192)" fill="#c1c6c8"/><path d="M8.616-8.928h-1.5L4.368-1.56,1.6-8.928H.072L3.588,0H5.136ZM11.52.156a2.58,2.58,0,0,0,2.268-1.284L13.944,0H15.12V-6.552H13.944l-.156,1.128A2.58,2.58,0,0,0,11.52-6.708,3.186,3.186,0,0,0,8.58-3.264,3.178,3.178,0,0,0,11.52.156Zm.36-1.3A1.956,1.956,0,0,1,10-3.276,1.963,1.963,0,0,1,11.88-5.412a1.96,1.96,0,0,1,1.86,2.136A1.953,1.953,0,0,1,11.88-1.14ZM16.992,0h1.416V-9.612H16.992Zm4.02-7.824a.8.8,0,0,0,.828-.8.8.8,0,0,0-.828-.816.8.8,0,0,0-.828.816A.8.8,0,0,0,21.012-7.824ZM20.3,0H21.72V-6.552H20.3Zm5.868.156a2.555,2.555,0,0,0,2.244-1.284L28.584,0H29.76V-9.612H28.344v4.128A2.479,2.479,0,0,0,26.16-6.708a3.153,3.153,0,0,0-2.952,3.432A3.162,3.162,0,0,0,26.172.156Zm.336-1.3a1.948,1.948,0,0,1-1.872-2.136,1.954,1.954,0,0,1,1.872-2.136,1.96,1.96,0,0,1,1.86,2.136A1.953,1.953,0,0,1,26.508-1.14Z" transform="translate(48 291)"/><path d="M8.616-8.928h-1.5L4.368-1.56,1.6-8.928H.072L3.588,0H5.136ZM11.52.156a2.58,2.58,0,0,0,2.268-1.284L13.944,0H15.12V-6.552H13.944l-.156,1.128A2.58,2.58,0,0,0,11.52-6.708,3.186,3.186,0,0,0,8.58-3.264,3.178,3.178,0,0,0,11.52.156Zm.36-1.3A1.956,1.956,0,0,1,10-3.276,1.963,1.963,0,0,1,11.88-5.412a1.96,1.96,0,0,1,1.86,2.136A1.953,1.953,0,0,1,11.88-1.14ZM16.992,0h1.416V-9.612H16.992Zm4.02-7.824a.8.8,0,0,0,.828-.8.8.8,0,0,0-.828-.816.8.8,0,0,0-.828.816A.8.8,0,0,0,21.012-7.824ZM20.3,0H21.72V-6.552H20.3Zm5.868.156a2.555,2.555,0,0,0,2.244-1.284L28.584,0H29.76V-9.612H28.344v4.128A2.479,2.479,0,0,0,26.16-6.708a3.153,3.153,0,0,0-2.952,3.432A3.162,3.162,0,0,0,26.172.156Zm.336-1.3a1.948,1.948,0,0,1-1.872-2.136,1.954,1.954,0,0,1,1.872-2.136,1.96,1.96,0,0,1,1.86,2.136A1.953,1.953,0,0,1,26.508-1.14Z" transform="translate(208 292)"/><path d="M4.438,10.772c2.268-.14,3.416-1.4,3.416-3.094,0-1.82-1.26-3.094-3.668-3.094H1.428V15h1.3V10.772h.14L6.622,15H8.288ZM2.73,9.68V5.8H4.1c1.582,0,2.422.728,2.422,1.918S5.8,9.68,3.99,9.68Zm13.412,1.386c0-2.492-1.47-3.808-3.262-3.808a3.719,3.719,0,0,0-3.654,3.99,3.645,3.645,0,0,0,3.836,3.92,4.413,4.413,0,0,0,2.646-.84V13.054a3.913,3.913,0,0,1-2.548.994,2.582,2.582,0,0,1-2.674-2.408H16.1A3.438,3.438,0,0,0,16.142,11.066Zm-5.656-.392a2.459,2.459,0,0,1,2.38-2.3,2.064,2.064,0,0,1,2.03,2.3ZM19.656,15h1.4l2.758-7.574h-1.33L20.4,13.572h-.042L18.27,7.426H16.9ZM25.97,5.69a.784.784,0,1,0-.8-.784A.769.769,0,0,0,25.97,5.69ZM25.326,15h1.288V7.426H25.326Zm10.108-3.934c0-2.492-1.47-3.808-3.262-3.808a3.719,3.719,0,0,0-3.654,3.99,3.645,3.645,0,0,0,3.836,3.92A4.413,4.413,0,0,0,35,14.328V13.054a3.913,3.913,0,0,1-2.548.994,2.582,2.582,0,0,1-2.674-2.408h5.614A3.438,3.438,0,0,0,35.434,11.066Zm-5.656-.392a2.459,2.459,0,0,1,2.38-2.3,2.064,2.064,0,0,1,2.03,2.3ZM43.806,15h1.47L47.4,7.426H46.13l-1.61,6.132h-.042L42.56,7.426H41.216l-1.932,6.132h-.028L37.674,7.426H36.33L38.472,15h1.47L41.86,9.064H41.9Zm15.26,0h1.47l2.128-7.574H61.39l-1.61,6.132h-.042L57.82,7.426H56.476l-1.932,6.132h-.028L52.934,7.426H51.59L53.732,15H55.2L57.12,9.064h.042Zm6.51-11.2H64.288V15h1.288V10.31a1.75,1.75,0,0,1,1.89-1.848c1.162,0,1.736.644,1.736,1.974V15H70.49V9.988a2.5,2.5,0,0,0-2.73-2.73,2.607,2.607,0,0,0-2.17,1.078h-.014Zm13.636,7.266c0-2.492-1.47-3.808-3.262-3.808a3.719,3.719,0,0,0-3.654,3.99,3.645,3.645,0,0,0,3.836,3.92,4.413,4.413,0,0,0,2.646-.84V13.054a3.913,3.913,0,0,1-2.548.994,2.582,2.582,0,0,1-2.674-2.408H79.17A3.438,3.438,0,0,0,79.212,11.066Zm-5.656-.392a2.459,2.459,0,0,1,2.38-2.3,2.064,2.064,0,0,1,2.03,2.3ZM81.06,15h1.288V10.688a1.963,1.963,0,0,1,2.03-2.128,3.259,3.259,0,0,1,.532.056V7.384a2.713,2.713,0,0,0-.5-.042,2.453,2.453,0,0,0-2.17,1.288h-.014l-.14-1.2H81.06ZM92.5,11.066c0-2.492-1.47-3.808-3.262-3.808a3.719,3.719,0,0,0-3.654,3.99,3.645,3.645,0,0,0,3.836,3.92,4.413,4.413,0,0,0,2.646-.84V13.054a3.913,3.913,0,0,1-2.548.994,2.582,2.582,0,0,1-2.674-2.408h5.614A3.438,3.438,0,0,0,92.5,11.066Zm-5.656-.392a2.459,2.459,0,0,1,2.38-2.3,2.064,2.064,0,0,1,2.03,2.3Zm17.094-3.248h-1.344l-2.086,5.768h-.028L98.392,7.426h-1.4l2.828,7.308-1.3,3.206h1.316Zm4.522,7.742a3.757,3.757,0,0,0,3.752-3.948,3.771,3.771,0,1,0-7.532,0A3.763,3.763,0,0,0,108.458,15.168Zm0-1.2a2.536,2.536,0,0,1-2.478-2.744,2.486,2.486,0,1,1,4.942,0A2.542,2.542,0,0,1,108.458,13.964Zm8.61,1.2a2.918,2.918,0,0,0,3.136-3.08V7.426h-1.288v4.69a1.707,1.707,0,0,1-1.848,1.848,1.678,1.678,0,0,1-1.792-1.848V7.426h-1.288v4.662A2.881,2.881,0,0,0,117.068,15.168ZM132.762,15h1.47l2.128-7.574h-1.274l-1.61,6.132h-.042l-1.918-6.132h-1.344l-1.932,6.132h-.028L126.63,7.426h-1.344L127.428,15h1.47l1.918-5.936h.042Zm7.994.168a3.044,3.044,0,0,0,2.7-1.554L143.612,15h1.05V7.426h-1.05l-.154,1.4a3.058,3.058,0,0,0-2.7-1.568,3.664,3.664,0,0,0-3.444,3.962A3.668,3.668,0,0,0,140.756,15.168Zm.266-1.2a2.509,2.509,0,0,1-2.408-2.744,2.423,2.423,0,1,1,4.8-.014A2.521,2.521,0,0,1,141.022,13.964Zm9.492-6.706a2.732,2.732,0,0,0-2.324,1.316h-.042l-.14-1.148h-.994V15H148.3V10.38a1.832,1.832,0,0,1,1.89-1.89c1.134,0,1.736.63,1.736,1.96V15h1.288V9.988A2.543,2.543,0,0,0,150.514,7.258Zm6.5-1.61h-1.232V7.426h-1.162v1.12h1.134v3.808a2.506,2.506,0,0,0,2.7,2.744,4.744,4.744,0,0,0,.9-.084v-1.12a3.916,3.916,0,0,1-.672.07A1.5,1.5,0,0,1,157.01,12.3V8.546h2.17V7.426h-2.17Zm13.468,1.778h-1.344l-2.086,5.768h-.028l-2.086-5.768h-1.4l2.828,7.308-1.3,3.206h1.316ZM175,15.168a3.757,3.757,0,0,0,3.752-3.948,3.771,3.771,0,1,0-7.532,0A3.763,3.763,0,0,0,175,15.168Zm0-1.2a2.536,2.536,0,0,1-2.478-2.744,2.486,2.486,0,1,1,4.942,0A2.542,2.542,0,0,1,175,13.964Zm8.61,1.2a2.918,2.918,0,0,0,3.136-3.08V7.426h-1.288v4.69a1.707,1.707,0,0,1-1.848,1.848,1.678,1.678,0,0,1-1.792-1.848V7.426H180.53v4.662A2.881,2.881,0,0,0,183.61,15.168ZM189,15h1.288V10.688a1.963,1.963,0,0,1,2.03-2.128,3.259,3.259,0,0,1,.532.056V7.384a2.713,2.713,0,0,0-.5-.042,2.453,2.453,0,0,0-2.17,1.288h-.014l-.14-1.2H189Zm16.24-7.742a2.422,2.422,0,0,0-2.184,1.33,2.088,2.088,0,0,0-2.1-1.33,2.26,2.26,0,0,0-2.03,1.288h-.042l-.14-1.12h-.994V15h1.288V10.226a1.6,1.6,0,0,1,1.568-1.736c1.008,0,1.442.574,1.442,1.666V15h1.288V10.156a1.573,1.573,0,0,1,1.582-1.666c1.008,0,1.428.574,1.428,1.666V15h1.288V9.946C207.634,8.364,206.892,7.258,205.24,7.258Zm7.966,7.91a3.757,3.757,0,0,0,3.752-3.948,3.771,3.771,0,1,0-7.532,0A3.763,3.763,0,0,0,213.206,15.168Zm0-1.2a2.536,2.536,0,0,1-2.478-2.744,2.486,2.486,0,1,1,4.942,0A2.542,2.542,0,0,1,213.206,13.964Zm9.128-6.706a2.732,2.732,0,0,0-2.324,1.316h-.042l-.14-1.148h-.994V15h1.288V10.38a1.832,1.832,0,0,1,1.89-1.89c1.134,0,1.736.63,1.736,1.96V15h1.288V9.988A2.543,2.543,0,0,0,222.334,7.258Zm11.41,3.808c0-2.492-1.47-3.808-3.262-3.808a3.719,3.719,0,0,0-3.654,3.99,3.645,3.645,0,0,0,3.836,3.92,4.413,4.413,0,0,0,2.646-.84V13.054a3.913,3.913,0,0,1-2.548.994,2.582,2.582,0,0,1-2.674-2.408H233.7A3.438,3.438,0,0,0,233.744,11.066Zm-5.656-.392a2.459,2.459,0,0,1,2.38-2.3,2.064,2.064,0,0,1,2.03,2.3ZM241.43,7.426h-1.344L238,13.194h-.028l-2.086-5.768h-1.4l2.828,7.308-1.3,3.206h1.316Zm6.356-1.778h-1.232V7.426h-1.162v1.12h1.134v3.808a2.506,2.506,0,0,0,2.7,2.744,4.744,4.744,0,0,0,.9-.084v-1.12a3.916,3.916,0,0,1-.672.07,1.5,1.5,0,0,1-1.666-1.666V8.546h2.17V7.426h-2.17Zm7.1,9.52a3.757,3.757,0,0,0,3.752-3.948,3.771,3.771,0,1,0-7.532,0A3.763,3.763,0,0,0,254.884,15.168Zm0-1.2a2.536,2.536,0,0,1-2.478-2.744,2.486,2.486,0,1,1,4.942,0A2.542,2.542,0,0,1,254.884,13.964ZM4.13,31.272A3.624,3.624,0,0,0,.686,35.08,3.594,3.594,0,0,0,4.13,38.874a3.085,3.085,0,0,0,2.6-1.428v1.148A2.339,2.339,0,0,1,4.242,40.9a4.133,4.133,0,0,1-2.772-1.12V41.17a4.793,4.793,0,0,0,2.828.938,3.537,3.537,0,0,0,3.724-3.724V31.426H6.972l-.154,1.316A3.107,3.107,0,0,0,4.13,31.272Zm.252,1.19a2.43,2.43,0,0,1,2.394,2.576A2.489,2.489,0,0,1,4.382,37.7a2.628,2.628,0,0,1,0-5.236Zm9.282,6.706a3.757,3.757,0,0,0,3.752-3.948,3.771,3.771,0,1,0-7.532,0A3.763,3.763,0,0,0,13.664,39.168Zm0-1.2a2.536,2.536,0,0,1-2.478-2.744,2.486,2.486,0,1,1,4.942,0A2.542,2.542,0,0,1,13.664,37.964Zm4.788,2.9h.966a9.345,9.345,0,0,0,.84-3.262v-.574H19.04v.63A10.962,10.962,0,0,1,18.452,40.862Zm10.248-9.6c-1.68,0-2.73.952-2.73,2.226,0,1.33,1.106,1.736,2.352,2.114,1.092.336,1.806.574,1.806,1.3,0,.672-.588,1.12-1.61,1.12a3.594,3.594,0,0,1-2.576-1.078v1.386a4.186,4.186,0,0,0,2.618.84c1.75,0,2.828-.9,2.828-2.282,0-1.526-1.316-1.9-2.478-2.24-1.022-.294-1.68-.546-1.68-1.218,0-.616.532-1.022,1.484-1.022a3.577,3.577,0,0,1,2.268.784V31.916A3.965,3.965,0,0,0,28.7,31.258ZM34.51,27.8H33.222V39H34.51V34.31a1.75,1.75,0,0,1,1.89-1.848c1.162,0,1.736.644,1.736,1.974V39h1.288V33.988a2.5,2.5,0,0,0-2.73-2.73,2.607,2.607,0,0,0-2.17,1.078H34.51ZM45,39.168a3.757,3.757,0,0,0,3.752-3.948,3.771,3.771,0,1,0-7.532,0A3.763,3.763,0,0,0,45,39.168Zm0-1.2a2.536,2.536,0,0,1-2.478-2.744,2.486,2.486,0,1,1,4.942,0A2.542,2.542,0,0,1,45,37.964Zm8.61,1.2a2.918,2.918,0,0,0,3.136-3.08V31.426H55.454v4.69a1.707,1.707,0,0,1-1.848,1.848,1.678,1.678,0,0,1-1.792-1.848v-4.69H50.526v4.662A2.881,2.881,0,0,0,53.606,39.168ZM59.024,39h1.288V27.8H59.024Zm6.636.168a3.06,3.06,0,0,0,2.7-1.554L68.516,39h1.05V27.8H68.278v4.942a2.973,2.973,0,0,0-2.618-1.484c-1.792,0-3.444,1.526-3.444,3.962A3.66,3.66,0,0,0,65.66,39.168Zm.266-1.2A2.52,2.52,0,0,1,63.5,35.22a2.423,2.423,0,1,1,4.8-.014A2.511,2.511,0,0,1,65.926,37.964Zm15.568-6.538H80.15l-2.086,5.768h-.028L75.95,31.426h-1.4l2.828,7.308-1.3,3.206h1.316Zm4.522,7.742a3.757,3.757,0,0,0,3.752-3.948,3.771,3.771,0,1,0-7.532,0A3.763,3.763,0,0,0,86.016,39.168Zm0-1.2a2.536,2.536,0,0,1-2.478-2.744,2.486,2.486,0,1,1,4.942,0A2.542,2.542,0,0,1,86.016,37.964Zm8.61,1.2a2.918,2.918,0,0,0,3.136-3.08V31.426H96.474v4.69a1.707,1.707,0,0,1-1.848,1.848,1.678,1.678,0,0,1-1.792-1.848v-4.69H91.546v4.662A2.881,2.881,0,0,0,94.626,39.168Zm9.212,2.772h1.288V37.684a3.014,3.014,0,0,0,2.618,1.484c1.792,0,3.43-1.526,3.43-3.962a3.651,3.651,0,0,0-3.444-3.948,3.052,3.052,0,0,0-2.688,1.568l-.154-1.4h-1.05Zm3.64-3.976a2.506,2.506,0,0,1-2.38-2.744,2.417,2.417,0,1,1,4.788-.014A2.506,2.506,0,0,1,107.478,37.964Zm8.54,1.2a3.044,3.044,0,0,0,2.7-1.554L118.874,39h1.05V31.426h-1.05l-.154,1.4a3.058,3.058,0,0,0-2.7-1.568,3.664,3.664,0,0,0-3.444,3.962A3.668,3.668,0,0,0,116.018,39.168Zm.266-1.2a2.509,2.509,0,0,1-2.408-2.744,2.423,2.423,0,1,1,4.8-.014A2.521,2.521,0,0,1,116.284,37.964Zm8.372-6.706c-1.68,0-2.73.952-2.73,2.226,0,1.33,1.106,1.736,2.352,2.114,1.092.336,1.806.574,1.806,1.3,0,.672-.588,1.12-1.61,1.12a3.594,3.594,0,0,1-2.576-1.078v1.386a4.186,4.186,0,0,0,2.618.84c1.75,0,2.828-.9,2.828-2.282,0-1.526-1.316-1.9-2.478-2.24-1.022-.294-1.68-.546-1.68-1.218,0-.616.532-1.022,1.484-1.022a3.577,3.577,0,0,1,2.268.784V31.916A3.965,3.965,0,0,0,124.656,31.258Zm6.9,0c-1.68,0-2.73.952-2.73,2.226,0,1.33,1.106,1.736,2.352,2.114,1.092.336,1.806.574,1.806,1.3,0,.672-.588,1.12-1.61,1.12a3.594,3.594,0,0,1-2.576-1.078v1.386a4.186,4.186,0,0,0,2.618.84c1.75,0,2.828-.9,2.828-2.282,0-1.526-1.316-1.9-2.478-2.24-1.022-.294-1.68-.546-1.68-1.218,0-.616.532-1.022,1.484-1.022a3.577,3.577,0,0,1,2.268.784V31.916A3.965,3.965,0,0,0,131.558,31.258Zm11.3,7.91a3.044,3.044,0,0,0,2.7-1.554L145.712,39h1.05V31.426h-1.05l-.154,1.4a3.058,3.058,0,0,0-2.7-1.568,3.664,3.664,0,0,0-3.444,3.962A3.668,3.668,0,0,0,142.856,39.168Zm.266-1.2a2.509,2.509,0,0,1-2.408-2.744,2.423,2.423,0,1,1,4.8-.014A2.521,2.521,0,0,1,143.122,37.964ZM155.862,39h1.47l2.128-7.574h-1.274l-1.61,6.132h-.042l-1.918-6.132h-1.344l-1.932,6.132h-.028l-1.582-6.132h-1.344L150.528,39H152l1.918-5.936h.042Zm7.994.168a3.044,3.044,0,0,0,2.7-1.554L166.712,39h1.05V31.426h-1.05l-.154,1.4a3.058,3.058,0,0,0-2.7-1.568,3.664,3.664,0,0,0-3.444,3.962A3.668,3.668,0,0,0,163.856,39.168Zm.266-1.2a2.509,2.509,0,0,1-2.408-2.744,2.423,2.423,0,1,1,4.8-.014A2.521,2.521,0,0,1,164.122,37.964ZM176.2,31.426H174.86l-2.086,5.768h-.028l-2.086-5.768h-1.4l2.828,7.308-1.3,3.206H172.1Zm1.316,7.644a.875.875,0,1,0-.868-.868A.855.855,0,0,0,177.52,39.07ZM6.4,65.61A2.343,2.343,0,0,0,7.98,63.286c0-1.54-1.162-2.7-3.388-2.7H1.428V71H4.76c2.38,0,3.556-1.3,3.556-2.87A2.512,2.512,0,0,0,6.4,65.61ZM2.716,61.76H4.69c1.246,0,2,.616,2,1.652,0,.994-.742,1.736-2.1,1.736H2.716Zm2.016,8.064H2.716v-3.6H4.8c1.274,0,2.212.644,2.212,1.792C7.014,69.068,6.216,69.824,4.732,69.824Zm6.2-8.134a.784.784,0,1,0-.8-.784A.769.769,0,0,0,10.934,61.69ZM10.29,71h1.288V63.426H10.29Zm7.168-7.742a2.732,2.732,0,0,0-2.324,1.316h-.042l-.14-1.148h-.994V71h1.288V66.38a1.832,1.832,0,0,1,1.89-1.89c1.134,0,1.736.63,1.736,1.96V71H20.16V65.988A2.543,2.543,0,0,0,17.458,63.258Zm7.938,7.91a3.06,3.06,0,0,0,2.7-1.554L28.252,71H29.3V59.8H28.014v4.942A2.973,2.973,0,0,0,25.4,63.258c-1.792,0-3.444,1.526-3.444,3.962A3.66,3.66,0,0,0,25.4,71.168Zm.266-1.2a2.78,2.78,0,1,1,2.38-2.758A2.52,2.52,0,0,1,25.662,69.964Zm6.65-8.274a.784.784,0,1,0-.8-.784A.769.769,0,0,0,32.312,61.69ZM31.668,71h1.288V63.426H31.668Zm7.168-7.742a2.732,2.732,0,0,0-2.324,1.316H36.47l-.14-1.148h-.994V71h1.288V66.38a1.832,1.832,0,0,1,1.89-1.89c1.134,0,1.736.63,1.736,1.96V71h1.288V65.988A2.543,2.543,0,0,0,38.836,63.258Zm7.924.014a3.82,3.82,0,0,0,0,7.6,3.085,3.085,0,0,0,2.6-1.428v1.148a2.339,2.339,0,0,1-2.492,2.31,4.133,4.133,0,0,1-2.772-1.12V73.17a4.793,4.793,0,0,0,2.828.938,3.537,3.537,0,0,0,3.724-3.724V63.426H49.6l-.154,1.316A3.107,3.107,0,0,0,46.76,63.272Zm.252,1.19a2.43,2.43,0,0,1,2.394,2.576,2.489,2.489,0,0,1-2.394,2.66,2.628,2.628,0,0,1,0-5.236Zm13.314-1.2A2.732,2.732,0,0,0,58,64.574H57.96l-.14-1.148h-.994V71h1.288V66.38A1.832,1.832,0,0,1,60,64.49c1.134,0,1.736.63,1.736,1.96V71h1.288V65.988A2.543,2.543,0,0,0,60.326,63.258Zm8.26,7.91a3.959,3.959,0,1,0-3.78-3.948A3.757,3.757,0,0,0,68.586,71.168Zm0-1.2A2.768,2.768,0,1,1,71.05,67.22,2.536,2.536,0,0,1,68.586,69.964ZM81.7,63.258a2.422,2.422,0,0,0-2.184,1.33,2.088,2.088,0,0,0-2.1-1.33,2.26,2.26,0,0,0-2.03,1.288h-.042l-.14-1.12h-.994V71H75.5V66.226A1.6,1.6,0,0,1,77.07,64.49c1.008,0,1.442.574,1.442,1.666V71H79.8V66.156a1.573,1.573,0,0,1,1.582-1.666c1.008,0,1.428.574,1.428,1.666V71H84.1V65.946C84.1,64.364,83.356,63.258,81.7,63.258Zm5.348-1.568a.784.784,0,1,0-.8-.784A.769.769,0,0,0,87.052,61.69ZM86.408,71H87.7V63.426H86.408Zm7.168-7.742a2.732,2.732,0,0,0-2.324,1.316H91.21l-.14-1.148h-.994V71h1.288V66.38a1.832,1.832,0,0,1,1.89-1.89c1.134,0,1.736.63,1.736,1.96V71h1.288V65.988A2.543,2.543,0,0,0,93.576,63.258Zm7.924,7.91a3.044,3.044,0,0,0,2.7-1.554L104.356,71h1.05V63.426h-1.05l-.154,1.4a3.058,3.058,0,0,0-2.7-1.568,3.993,3.993,0,0,0,0,7.91Zm.266-1.2a2.778,2.778,0,1,1,2.394-2.758A2.509,2.509,0,0,1,101.766,69.964Zm7.574-8.316h-1.232v1.778h-1.162v1.12h1.134v3.808a2.506,2.506,0,0,0,2.7,2.744,4.745,4.745,0,0,0,.9-.084v-1.12a3.917,3.917,0,0,1-.672.07A1.5,1.5,0,0,1,109.34,68.3V64.546h2.17v-1.12h-2.17Zm4.55.042a.784.784,0,1,0-.8-.784A.769.769,0,0,0,113.89,61.69ZM113.246,71h1.288V63.426h-1.288Zm6.958.168a3.959,3.959,0,1,0-3.78-3.948A3.757,3.757,0,0,0,120.2,71.168Zm0-1.2a2.768,2.768,0,1,1,2.464-2.744A2.536,2.536,0,0,1,120.2,69.964Zm9.128-6.706a2.732,2.732,0,0,0-2.324,1.316h-.042l-.14-1.148h-.994V71h1.288V66.38a1.832,1.832,0,0,1,1.89-1.89c1.134,0,1.736.63,1.736,1.96V71h1.288V65.988A2.543,2.543,0,0,0,129.332,63.258Zm7.35,0c-1.68,0-2.73.952-2.73,2.226,0,1.33,1.106,1.736,2.352,2.114,1.092.336,1.806.574,1.806,1.3,0,.672-.588,1.12-1.61,1.12a3.594,3.594,0,0,1-2.576-1.078v1.386a4.186,4.186,0,0,0,2.618.84c1.75,0,2.828-.9,2.828-2.282,0-1.526-1.316-1.9-2.478-2.24-1.022-.294-1.68-.546-1.68-1.218,0-.616.532-1.022,1.484-1.022a3.577,3.577,0,0,1,2.268.784V63.916A3.965,3.965,0,0,0,136.682,63.258Zm11.844,0a2.732,2.732,0,0,0-2.324,1.316h-.042l-.14-1.148h-.994V71h1.288V66.38a1.832,1.832,0,0,1,1.89-1.89c1.134,0,1.736.63,1.736,1.96V71h1.288V65.988A2.543,2.543,0,0,0,148.526,63.258Zm11.41,3.808c0-2.492-1.47-3.808-3.262-3.808a3.719,3.719,0,0,0-3.654,3.99,3.645,3.645,0,0,0,3.836,3.92,4.413,4.413,0,0,0,2.646-.84V69.054a3.913,3.913,0,0,1-2.548.994,2.582,2.582,0,0,1-2.674-2.408h5.614A3.438,3.438,0,0,0,159.936,67.066Zm-5.656-.392a2.459,2.459,0,0,1,2.38-2.3,2.064,2.064,0,0,1,2.03,2.3Zm13.944.392c0-2.492-1.47-3.808-3.262-3.808a3.719,3.719,0,0,0-3.654,3.99,3.645,3.645,0,0,0,3.836,3.92,4.413,4.413,0,0,0,2.646-.84V69.054a3.913,3.913,0,0,1-2.548.994,2.582,2.582,0,0,1-2.674-2.408h5.614A3.438,3.438,0,0,0,168.224,67.066Zm-5.656-.392a2.459,2.459,0,0,1,2.38-2.3,2.064,2.064,0,0,1,2.03,2.3Zm10.472,4.494a3.06,3.06,0,0,0,2.7-1.554L175.9,71h1.05V59.8h-1.288v4.942a2.973,2.973,0,0,0-2.618-1.484c-1.792,0-3.444,1.526-3.444,3.962A3.66,3.66,0,0,0,173.04,71.168Zm.266-1.2a2.78,2.78,0,1,1,2.38-2.758A2.52,2.52,0,0,1,173.306,69.964Zm11.186-8.316H183.26v1.778H182.1v1.12h1.134v3.808a2.506,2.506,0,0,0,2.7,2.744,4.744,4.744,0,0,0,.9-.084v-1.12a3.916,3.916,0,0,1-.672.07,1.5,1.5,0,0,1-1.666-1.666V64.546h2.17v-1.12h-2.17Zm7.1,9.52a3.959,3.959,0,1,0-3.78-3.948A3.757,3.757,0,0,0,191.59,71.168Zm0-1.2a2.768,2.768,0,1,1,2.464-2.744A2.536,2.536,0,0,1,191.59,69.964ZM202.328,59.8H201.04V71h1.05l.154-1.386a3.023,3.023,0,0,0,2.688,1.554,3.66,3.66,0,0,0,3.444-3.948c0-2.436-1.638-3.962-3.416-3.962a2.979,2.979,0,0,0-2.632,1.5Zm2.352,4.662a2.78,2.78,0,1,1-2.38,2.744A2.514,2.514,0,0,1,204.68,64.462Zm12.026,2.6c0-2.492-1.47-3.808-3.262-3.808a3.719,3.719,0,0,0-3.654,3.99,3.645,3.645,0,0,0,3.836,3.92,4.413,4.413,0,0,0,2.646-.84V69.054a3.913,3.913,0,0,1-2.548.994,2.582,2.582,0,0,1-2.674-2.408h5.614A3.438,3.438,0,0,0,216.706,67.066Zm-5.656-.392a2.459,2.459,0,0,1,2.38-2.3,2.064,2.064,0,0,1,2.03,2.3ZM1.176,95H2.464V90.688a1.963,1.963,0,0,1,2.03-2.128,3.259,3.259,0,0,1,.532.056V87.384a2.713,2.713,0,0,0-.5-.042,2.453,2.453,0,0,0-2.17,1.288H2.338l-.14-1.2H1.176Zm11.438-3.934c0-2.492-1.47-3.808-3.262-3.808A3.719,3.719,0,0,0,5.7,91.248a3.645,3.645,0,0,0,3.836,3.92,4.413,4.413,0,0,0,2.646-.84V93.054a3.913,3.913,0,0,1-2.548.994A2.582,2.582,0,0,1,6.958,91.64h5.614A3.438,3.438,0,0,0,12.614,91.066Zm-5.656-.392a2.459,2.459,0,0,1,2.38-2.3,2.064,2.064,0,0,1,2.03,2.3Zm11-3.416a2.732,2.732,0,0,0-2.324,1.316H15.6l-.14-1.148h-.994V95H15.75V90.38a1.832,1.832,0,0,1,1.89-1.89c1.134,0,1.736.63,1.736,1.96V95h1.288V89.988A2.543,2.543,0,0,0,17.962,87.258Zm11.41,3.808c0-2.492-1.47-3.808-3.262-3.808a3.719,3.719,0,0,0-3.654,3.99,3.645,3.645,0,0,0,3.836,3.92,4.413,4.413,0,0,0,2.646-.84V93.054a3.913,3.913,0,0,1-2.548.994,2.582,2.582,0,0,1-2.674-2.408H29.33A3.438,3.438,0,0,0,29.372,91.066Zm-5.656-.392a2.459,2.459,0,0,1,2.38-2.3,2.064,2.064,0,0,1,2.03,2.3ZM37.744,95h1.47l2.128-7.574H40.068l-1.61,6.132h-.042L36.5,87.426H35.154l-1.932,6.132h-.028l-1.582-6.132H30.268L32.41,95h1.47L35.8,89.064h.042Zm11.48-3.934c0-2.492-1.47-3.808-3.262-3.808a3.719,3.719,0,0,0-3.654,3.99,3.645,3.645,0,0,0,3.836,3.92,4.413,4.413,0,0,0,2.646-.84V93.054a3.913,3.913,0,0,1-2.548.994,2.582,2.582,0,0,1-2.674-2.408h5.614A3.438,3.438,0,0,0,49.224,91.066Zm-5.656-.392a2.459,2.459,0,0,1,2.38-2.3,2.064,2.064,0,0,1,2.03,2.3ZM54.04,95.168a3.06,3.06,0,0,0,2.7-1.554L56.9,95h1.05V83.8H56.658v4.942a2.973,2.973,0,0,0-2.618-1.484c-1.792,0-3.444,1.526-3.444,3.962A3.66,3.66,0,0,0,54.04,95.168Zm.266-1.2a2.78,2.78,0,1,1,2.38-2.758A2.52,2.52,0,0,1,54.306,93.964Zm16.24-2.9c0-2.492-1.47-3.808-3.262-3.808a3.719,3.719,0,0,0-3.654,3.99,3.645,3.645,0,0,0,3.836,3.92,4.413,4.413,0,0,0,2.646-.84V93.054a3.913,3.913,0,0,1-2.548.994A2.582,2.582,0,0,1,64.89,91.64H70.5A3.438,3.438,0,0,0,70.546,91.066Zm-5.656-.392a2.459,2.459,0,0,1,2.38-2.3,2.064,2.064,0,0,1,2.03,2.3ZM74.06,95h1.4l2.758-7.574h-1.33L74.8,93.572H74.76l-2.086-6.146H71.3ZM85.9,91.066c0-2.492-1.47-3.808-3.262-3.808a3.719,3.719,0,0,0-3.654,3.99,3.645,3.645,0,0,0,3.836,3.92,4.413,4.413,0,0,0,2.646-.84V93.054a3.913,3.913,0,0,1-2.548.994,2.582,2.582,0,0,1-2.674-2.408h5.614A3.438,3.438,0,0,0,85.9,91.066Zm-5.656-.392a2.459,2.459,0,0,1,2.38-2.3,2.064,2.064,0,0,1,2.03,2.3ZM87.752,95H89.04V90.688a1.963,1.963,0,0,1,2.03-2.128,3.259,3.259,0,0,1,.532.056V87.384a2.713,2.713,0,0,0-.5-.042,2.453,2.453,0,0,0-2.17,1.288h-.014l-.14-1.2H87.752Zm11.354-7.574H97.762l-2.086,5.768h-.028l-2.086-5.768h-1.4l2.828,7.308-1.3,3.206H95Zm4.928-2.114V86.7a3.227,3.227,0,0,1,2.422-1.106,1.781,1.781,0,0,1,2,1.736c0,1.05-.784,1.792-2.366,1.792h-1.008v1.106h1.3c1.512,0,2.408.77,2.408,1.862s-.882,1.89-2.3,1.89a3.561,3.561,0,0,1-2.744-1.274V94.16a4.141,4.141,0,0,0,2.856,1.022c2.268,0,3.486-1.442,3.486-2.982a2.7,2.7,0,0,0-1.9-2.618v-.028a2.535,2.535,0,0,0,1.554-2.394,2.893,2.893,0,0,0-3.15-2.786A3.737,3.737,0,0,0,104.034,85.312Zm17.7,2.114h-1.344L118.3,93.194h-.028l-2.086-5.768h-1.4l2.828,7.308-1.3,3.206h1.316Zm7.672,3.64c0-2.492-1.47-3.808-3.262-3.808a3.719,3.719,0,0,0-3.654,3.99,3.645,3.645,0,0,0,3.836,3.92,4.413,4.413,0,0,0,2.646-.84V93.054a3.913,3.913,0,0,1-2.548.994,2.582,2.582,0,0,1-2.674-2.408h5.614A3.438,3.438,0,0,0,129.4,91.066Zm-5.656-.392a2.459,2.459,0,0,1,2.38-2.3,2.064,2.064,0,0,1,2.03,2.3ZM134.2,95.168a3.044,3.044,0,0,0,2.7-1.554L137.06,95h1.05V87.426h-1.05l-.154,1.4a3.058,3.058,0,0,0-2.7-1.568,3.993,3.993,0,0,0,0,7.91Zm.266-1.2a2.778,2.778,0,1,1,2.394-2.758A2.509,2.509,0,0,1,134.47,93.964ZM140.462,95h1.288V90.688a1.963,1.963,0,0,1,2.03-2.128,3.259,3.259,0,0,1,.532.056V87.384a2.713,2.713,0,0,0-.5-.042,2.453,2.453,0,0,0-2.17,1.288h-.014l-.14-1.2h-1.022Zm7.574-7.742c-1.68,0-2.73.952-2.73,2.226,0,1.33,1.106,1.736,2.352,2.114,1.092.336,1.806.574,1.806,1.3,0,.672-.588,1.12-1.61,1.12a3.594,3.594,0,0,1-2.576-1.078v1.386a4.186,4.186,0,0,0,2.618.84c1.75,0,2.828-.9,2.828-2.282,0-1.526-1.316-1.9-2.478-2.24-1.022-.294-1.68-.546-1.68-1.218,0-.616.532-1.022,1.484-1.022a3.577,3.577,0,0,1,2.268.784V87.916A3.965,3.965,0,0,0,148.036,87.258Zm11.634,7.91a3.959,3.959,0,1,0-3.78-3.948A3.757,3.757,0,0,0,159.67,95.168Zm0-1.2a2.768,2.768,0,1,1,2.464-2.744A2.536,2.536,0,0,1,159.67,93.964ZM165.3,95h1.288V90.688a1.963,1.963,0,0,1,2.03-2.128,3.259,3.259,0,0,1,.532.056V87.384a2.713,2.713,0,0,0-.5-.042,2.453,2.453,0,0,0-2.17,1.288h-.014l-.14-1.2H165.3Zm10.136-9.352H174.2v1.778H173.04v1.12h1.134v3.808a2.506,2.506,0,0,0,2.7,2.744,4.744,4.744,0,0,0,.9-.084v-1.12a3.916,3.916,0,0,1-.672.07,1.5,1.5,0,0,1-1.666-1.666V88.546h2.17v-1.12h-2.17ZM180.6,83.8h-1.288V95H180.6V90.31a1.75,1.75,0,0,1,1.89-1.848c1.162,0,1.736.644,1.736,1.974V95h1.288V89.988a2.5,2.5,0,0,0-2.73-2.73,2.607,2.607,0,0,0-2.17,1.078H180.6Zm13.636,7.266c0-2.492-1.47-3.808-3.262-3.808a3.719,3.719,0,0,0-3.654,3.99,3.645,3.645,0,0,0,3.836,3.92,4.413,4.413,0,0,0,2.646-.84V93.054a3.913,3.913,0,0,1-2.548.994,2.582,2.582,0,0,1-2.674-2.408h5.614A3.438,3.438,0,0,0,194.236,91.066Zm-5.656-.392a2.459,2.459,0,0,1,2.38-2.3,2.064,2.064,0,0,1,2.03,2.3Zm13.342-3.248h-1.344l-2.086,5.768h-.028l-2.086-5.768h-1.4l2.828,7.308-1.3,3.206h1.316Zm1.134.994h.966a9.661,9.661,0,0,0,.84-3.262v-.574h-1.218v.63A10.962,10.962,0,0,1,203.056,88.42ZM206.808,95H208.1V90.688a1.963,1.963,0,0,1,2.03-2.128,3.259,3.259,0,0,1,.532.056V87.384a2.713,2.713,0,0,0-.5-.042,2.453,2.453,0,0,0-2.17,1.288h-.014l-.14-1.2h-1.022Zm11.438-3.934c0-2.492-1.47-3.808-3.262-3.808a3.719,3.719,0,0,0-3.654,3.99,3.645,3.645,0,0,0,3.836,3.92,4.413,4.413,0,0,0,2.646-.84V93.054a3.913,3.913,0,0,1-2.548.994,2.582,2.582,0,0,1-2.674-2.408H218.2A3.438,3.438,0,0,0,218.246,91.066Zm-5.656-.392a2.459,2.459,0,0,1,2.38-2.3,2.064,2.064,0,0,1,2.03,2.3Zm14.826-3.416a2.732,2.732,0,0,0-2.324,1.316h-.042l-.14-1.148h-.994V95H225.2V90.38a1.832,1.832,0,0,1,1.89-1.89c1.134,0,1.736.63,1.736,1.96V95h1.288V89.988A2.543,2.543,0,0,0,227.416,87.258Zm8.26,7.91a3.959,3.959,0,1,0-3.78-3.948A3.757,3.757,0,0,0,235.676,95.168Zm0-1.2a2.768,2.768,0,1,1,2.464-2.744A2.536,2.536,0,0,1,235.676,93.964ZM1.2,119H2.492V107.8H1.2Zm6.958.168a3.959,3.959,0,1,0-3.78-3.948A3.757,3.757,0,0,0,8.162,119.168Zm0-1.2a2.766,2.766,0,0,1,0-5.5,2.768,2.768,0,0,1,0,5.5Zm9.128-6.706a2.732,2.732,0,0,0-2.324,1.316h-.042l-.14-1.148H13.79V119h1.288v-4.62a1.832,1.832,0,0,1,1.89-1.89c1.134,0,1.736.63,1.736,1.96V119h1.288v-5.012A2.543,2.543,0,0,0,17.29,111.258Zm7.924.014a3.82,3.82,0,0,0,0,7.6,3.085,3.085,0,0,0,2.6-1.428v1.148a2.339,2.339,0,0,1-2.492,2.31,4.133,4.133,0,0,1-2.772-1.12v1.386a4.793,4.793,0,0,0,2.828.938,3.537,3.537,0,0,0,3.724-3.724v-6.958h-1.05l-.154,1.316A3.107,3.107,0,0,0,25.214,111.272Zm.252,1.19a2.43,2.43,0,0,1,2.394,2.576,2.489,2.489,0,0,1-2.394,2.66,2.628,2.628,0,0,1,0-5.236Zm12.432,2.6c0-2.492-1.47-3.808-3.262-3.808a3.719,3.719,0,0,0-3.654,3.99,3.645,3.645,0,0,0,3.836,3.92,4.413,4.413,0,0,0,2.646-.84v-1.274a3.913,3.913,0,0,1-2.548.994,2.582,2.582,0,0,1-2.674-2.408h5.614A3.438,3.438,0,0,0,37.9,115.066Zm-5.656-.392a2.459,2.459,0,0,1,2.38-2.3,2.064,2.064,0,0,1,2.03,2.3Zm7.5,4.326h1.288v-4.312a1.963,1.963,0,0,1,2.03-2.128,3.259,3.259,0,0,1,.532.056v-1.232a2.713,2.713,0,0,0-.5-.042,2.453,2.453,0,0,0-2.17,1.288h-.014l-.14-1.2H39.746Zm10.346,0h1.4l2.758-7.574H52.92l-2.086,6.146h-.042l-2.086-6.146H47.334Zm8.358.168a3.044,3.044,0,0,0,2.7-1.554L61.306,119h1.05v-7.574h-1.05l-.154,1.4a3.058,3.058,0,0,0-2.7-1.568,3.993,3.993,0,0,0,0,7.91Zm.266-1.2a2.778,2.778,0,1,1,2.394-2.758A2.509,2.509,0,0,1,58.716,117.964ZM64.736,119h1.288V107.8H64.736Zm4.34-9.31a.784.784,0,1,0-.8-.784A.769.769,0,0,0,69.076,109.69ZM68.432,119H69.72v-7.574H68.432Zm6.636.168a3.06,3.06,0,0,0,2.7-1.554L77.924,119h1.05V107.8H77.686v4.942a2.973,2.973,0,0,0-2.618-1.484c-1.792,0-3.444,1.526-3.444,3.962A3.66,3.66,0,0,0,75.068,119.168Zm.266-1.2a2.78,2.78,0,1,1,2.38-2.758A2.52,2.52,0,0,1,75.334,117.964ZM81.9,119.07a.875.875,0,1,0-.868-.868A.855.855,0,0,0,81.9,119.07Z" transform="translate(72 392)"/><g transform="matrix(1, 0, 0, 1, 0, 0)" filter="url(#g)"><path d="M18.7,12.03a.661.661,0,0,1,.662-.662H21.7a.662.662,0,1,1,0,1.324H19.362A.685.685,0,0,1,18.7,12.03Zm19.367,0a.661.661,0,0,0,.662.662H41.1a.662.662,0,0,0,0-1.324H38.764A.649.649,0,0,0,38.067,12.03Zm.313,8.116a.7.7,0,0,0,0-.94l-1.637-1.637a.665.665,0,0,0-.94.94l1.637,1.637a.688.688,0,0,0,.488.209A.674.674,0,0,0,38.381,20.146Zm-10.206.662a.661.661,0,0,0-.662.662v.7a1.155,1.155,0,0,0,.94,1.115l.174.627a.816.816,0,0,0,.766.592H31.1a.816.816,0,0,0,.766-.592l.174-.627a1.127,1.127,0,0,0,.94-1.115v-.7a.661.661,0,0,0-.662-.662Zm-4.424-3.239-1.637,1.637a.7.7,0,0,0,0,.94.673.673,0,0,0,.975,0l1.637-1.637a.7.7,0,0,0,0-.94A.672.672,0,0,0,23.751,17.568Zm0-11.112a.673.673,0,0,0,.975,0,.7.7,0,0,0,0-.94L23.089,3.879a.665.665,0,0,0-.94.94Zm.557,5.608a5.922,5.922,0,1,1,11.843-.07,5.852,5.852,0,0,1-1.672,4.11,5.554,5.554,0,0,0-1.463,2.961.977.977,0,0,1-.975.836H28.384a.977.977,0,0,1-.975-.836,5.554,5.554,0,0,0-1.463-2.961A6.13,6.13,0,0,1,24.308,12.065Zm1.672-.035a.661.661,0,0,0,.662.662.685.685,0,0,0,.662-.662A2.944,2.944,0,0,1,30.23,9.1a.661.661,0,0,0,.662-.662.685.685,0,0,0-.662-.662A4.267,4.267,0,0,0,25.98,12.03ZM36.256,6.665a.688.688,0,0,0,.488-.209l1.637-1.637a.665.665,0,1,0-.94-.94L35.8,5.516a.7.7,0,0,0,0,.94A.562.562,0,0,0,36.256,6.665ZM30.23,4.157a.661.661,0,0,0,.662-.662V1.162a.662.662,0,0,0-1.324,0V3.5A.661.661,0,0,0,30.23,4.157Z" transform="translate(13.3 392.5)" fill="url(#f)"/></g><path d="M5.278.238a4.038,4.038,0,0,0,4.256-4.3v-6.37H7.574v6.384a2.2,2.2,0,0,1-2.3,2.464,2.153,2.153,0,0,1-2.212-2.45v-6.4H1.106v6.37A3.987,3.987,0,0,0,5.278.238Zm6.37,2.7H13.58V-1.19A2.972,2.972,0,0,0,16.086.2c1.806,0,3.43-1.582,3.43-4.046S17.85-7.882,16.044-7.882A2.963,2.963,0,0,0,13.468-6.44l-.2-1.26H11.648ZM15.54-1.568A2.086,2.086,0,0,1,13.552-3.85a2.088,2.088,0,0,1,2-2.282A2.085,2.085,0,0,1,17.57-3.864,2.1,2.1,0,0,1,15.54-1.568ZM24.15.2A2.975,2.975,0,0,0,26.726-1.26l.2,1.26h1.624V-11.228H26.614V-6.51a2.846,2.846,0,0,0-2.478-1.372c-1.806,0-3.458,1.568-3.458,4.032S22.358.2,24.15.2Zm.5-1.764a2.1,2.1,0,0,1-2.03-2.282,2.1,2.1,0,0,1,2.03-2.282A2.077,2.077,0,0,1,26.642-3.85,2.077,2.077,0,0,1,24.654-1.568ZM33.572.2a2.987,2.987,0,0,0,2.6-1.456l.2,1.26H38V-7.7H36.372l-.2,1.26a2.976,2.976,0,0,0-2.6-1.442c-1.75,0-3.444,1.6-3.444,4.046A3.75,3.75,0,0,0,33.572.2ZM34.1-1.568a2.1,2.1,0,0,1-2.03-2.282A2.1,2.1,0,0,1,34.1-6.132,2.077,2.077,0,0,1,36.092-3.85,2.077,2.077,0,0,1,34.1-1.568Zm8.218-7.924H40.46V-7.7H39.326v1.61h1.12v3.206A2.769,2.769,0,0,0,43.456.154,4.956,4.956,0,0,0,44.562.042V-1.61a4.073,4.073,0,0,1-.686.07c-.9,0-1.554-.406-1.554-1.442V-6.09h2.1V-7.7h-2.1ZM52.78-3.99c0-2.548-1.568-3.892-3.486-3.892a3.819,3.819,0,0,0-3.822,4.06A3.838,3.838,0,0,0,49.63.2,5,5,0,0,0,52.3-.56V-2.212a4.277,4.277,0,0,1-2.45.84A2.414,2.414,0,0,1,47.32-3.29h5.4A5.067,5.067,0,0,0,52.78-3.99Zm-5.474-.518a2.056,2.056,0,0,1,1.974-1.82,1.659,1.659,0,0,1,1.652,1.82ZM64.512-7.7H62.524L60.718-2.38h-.042L58.884-7.7H56.8L59.7-.238,58.38,2.94h1.946ZM68.964.2A3.893,3.893,0,0,0,72.926-3.85a3.873,3.873,0,0,0-3.962-4.032A3.893,3.893,0,0,0,64.988-3.85,3.9,3.9,0,0,0,68.964.2Zm0-1.764a2.1,2.1,0,0,1-2.03-2.282,2.1,2.1,0,0,1,2.03-2.282A2.09,2.09,0,0,1,70.98-3.85,2.1,2.1,0,0,1,68.964-1.568ZM77.8.2A3.154,3.154,0,0,0,81.214-3.08V-7.7H79.282v4.62A1.364,1.364,0,0,1,77.8-1.568a1.335,1.335,0,0,1-1.442-1.5V-7.7H74.424v4.634A3.117,3.117,0,0,0,77.8.2ZM83.132,0h1.932V-3.962a1.807,1.807,0,0,1,1.9-2.016,3.057,3.057,0,0,1,.616.056V-7.728a2.3,2.3,0,0,0-.56-.056A2.4,2.4,0,0,0,84.9-6.524h-.028l-.2-1.176h-1.54ZM94.024-11.228H92.092V0h1.624l.2-1.26A2.975,2.975,0,0,0,96.488.2C98.28.2,99.96-1.386,99.96-3.85s-1.61-4.032-3.4-4.032A2.974,2.974,0,0,0,94.024-6.5Zm1.96,5.1a2.1,2.1,0,0,1,2.03,2.3A2.085,2.085,0,0,1,96-1.568,2.088,2.088,0,0,1,94-3.85,2.086,2.086,0,0,1,95.984-6.132ZM108.43-3.99c0-2.548-1.568-3.892-3.486-3.892a3.819,3.819,0,0,0-3.822,4.06A3.838,3.838,0,0,0,105.28.2a5,5,0,0,0,2.674-.756V-2.212a4.277,4.277,0,0,1-2.45.84A2.414,2.414,0,0,1,102.97-3.29h5.4A5.067,5.067,0,0,0,108.43-3.99Zm-5.474-.518a2.056,2.056,0,0,1,1.974-1.82,1.659,1.659,0,0,1,1.652,1.82Zm11.116-3.374a2.716,2.716,0,0,0-2.324,1.288h-.042L111.5-7.7H110V0h1.932V-4.606a1.467,1.467,0,0,1,1.526-1.512c.924,0,1.4.5,1.4,1.568V0h1.932V-5.138A2.53,2.53,0,0,0,114.072-7.882ZM125.608-3.99c0-2.548-1.568-3.892-3.486-3.892a3.819,3.819,0,0,0-3.822,4.06A3.838,3.838,0,0,0,122.458.2a5,5,0,0,0,2.674-.756V-2.212a4.277,4.277,0,0,1-2.45.84,2.414,2.414,0,0,1-2.534-1.918h5.4A5.067,5.067,0,0,0,125.608-3.99Zm-5.474-.518a2.056,2.056,0,0,1,1.974-1.82,1.659,1.659,0,0,1,1.652,1.82ZM127.638,0h1.932V-6.09h2.072V-7.7h-2.086v-.714c0-.854.448-1.218,1.3-1.218a3.413,3.413,0,0,1,1.092.182v-1.666a4.743,4.743,0,0,0-1.414-.224A2.7,2.7,0,0,0,127.652-8.6v.9h-1.078v1.61h1.064Zm6.216-8.988a1.058,1.058,0,0,0,1.078-1.064,1.07,1.07,0,0,0-1.078-1.078,1.073,1.073,0,0,0-1.092,1.078A1.061,1.061,0,0,0,133.854-8.988ZM132.888,0h1.932V-7.7h-1.932Zm5.474-3.85a2.213,2.213,0,0,1,2.282-2.282,3.352,3.352,0,0,1,1.988.6V-7.35a4.437,4.437,0,0,0-2.226-.532,3.909,3.909,0,0,0-3.99,4.018A3.919,3.919,0,0,0,140.406.2a4.716,4.716,0,0,0,2.226-.546V-2.156a3.324,3.324,0,0,1-1.974.588A2.208,2.208,0,0,1,138.362-3.85Zm6.944-5.138a1.058,1.058,0,0,0,1.078-1.064,1.07,1.07,0,0,0-1.078-1.078,1.073,1.073,0,0,0-1.092,1.078A1.061,1.061,0,0,0,145.306-8.988ZM144.34,0h1.932V-7.7H144.34Zm6.972.2a2.987,2.987,0,0,0,2.6-1.456l.2,1.26h1.624V-7.7h-1.624l-.2,1.26a2.976,2.976,0,0,0-2.6-1.442c-1.75,0-3.444,1.6-3.444,4.046A3.75,3.75,0,0,0,151.312.2Zm.532-1.764a2.1,2.1,0,0,1-2.03-2.282,2.1,2.1,0,0,1,2.03-2.282,2.077,2.077,0,0,1,1.988,2.282A2.077,2.077,0,0,1,151.844-1.568ZM157.752,0h1.932V-3.962a1.807,1.807,0,0,1,1.9-2.016,3.057,3.057,0,0,1,.616.056V-7.728a2.3,2.3,0,0,0-.56-.056,2.4,2.4,0,0,0-2.128,1.26h-.028l-.2-1.176h-1.54Zm6.678-8.988a1.058,1.058,0,0,0,1.078-1.064,1.07,1.07,0,0,0-1.078-1.078,1.073,1.073,0,0,0-1.092,1.078A1.061,1.061,0,0,0,164.43-8.988ZM163.464,0H165.4V-7.7h-1.932ZM174.3-3.99c0-2.548-1.568-3.892-3.486-3.892a3.819,3.819,0,0,0-3.822,4.06A3.838,3.838,0,0,0,171.15.2a5,5,0,0,0,2.674-.756V-2.212a4.278,4.278,0,0,1-2.45.84A2.414,2.414,0,0,1,168.84-3.29h5.4A5.067,5.067,0,0,0,174.3-3.99Zm-5.474-.518a2.055,2.055,0,0,1,1.974-1.82,1.659,1.659,0,0,1,1.652,1.82ZM178.6-7.882c-1.89,0-3.024,1.008-3.024,2.394s1.134,1.862,2.38,2.212c1.036.308,1.638.49,1.638,1.036,0,.5-.49.826-1.358.826A3.907,3.907,0,0,1,175.6-2.422V-.588A4.687,4.687,0,0,0,178.318.2c1.988,0,3.15-.966,3.15-2.45,0-1.6-1.344-2.016-2.576-2.338-.938-.252-1.442-.448-1.442-.938,0-.462.434-.756,1.218-.756a4.124,4.124,0,0,1,2.324.714V-7.266A4.628,4.628,0,0,0,178.6-7.882Z" transform="translate(72 551)" fill="#00629b"/><path d="M6274,1336l4,4-4,4" transform="translate(-6012 -793.5)" fill="none" stroke="#00629b" stroke-linecap="square" stroke-width="2"/><path d="M-714,270l6,6,6-6" transform="translate(895.5 332)" fill="none" stroke="#c1c6c8" stroke-width="2"/><g transform="translate(495 -10)" fill="#00629b"><path d="M -430.0002746582031 330.7500915527344 C -431.9555969238281 330.7500915527344 -433.804931640625 330.4676818847656 -435.2076416015625 329.9548950195312 C -437.309326171875 329.1865234375 -437.75048828125 328.1637573242188 -437.75048828125 327.4410705566406 C -437.75048828125 326.0312805175781 -437.2619018554688 324.6656799316406 -436.3746948242188 323.5959167480469 C -435.5102233886719 322.5535278320312 -434.3212585449219 321.8519592285156 -433.0190734863281 321.6139526367188 C -433.0912780761719 321.5349731445312 -433.1620483398438 321.4528198242188 -433.2310791015625 321.3677673339844 C -434.0359802246094 320.3762817382812 -434.497802734375 319.106689453125 -434.4981384277344 317.8846130371094 C -434.4981384277344 315.3290405273438 -432.4804077148438 313.2500915527344 -430.0002746582031 313.2500915527344 C -427.5203552246094 313.2500915527344 -425.5028076171875 315.3290405273438 -425.5028076171875 317.8843994140625 C -425.5028076171875 319.1065979003906 -425.96435546875 320.376220703125 -426.7691345214844 321.3677368164062 C -426.8381958007812 321.4528503417969 -426.908935546875 321.5349426269531 -426.981201171875 321.614013671875 C -425.6792907714844 321.8520202636719 -424.4905090332031 322.5535888671875 -423.6261596679688 323.595947265625 C -422.7390441894531 324.6657409667969 -422.25048828125 326.0313110351562 -422.25048828125 327.4410705566406 C -422.25048828125 328.1637573242188 -422.6915893554688 329.1865539550781 -424.7930603027344 329.9548645019531 C -426.1956176757812 330.4676818847656 -428.044921875 330.7500915527344 -430.0002746582031 330.7500915527344 Z" stroke="none"/><path d="M -430.0002746582031 330.0000915527344 C -426.1341857910156 330.0000915527344 -423.00048828125 328.8541259765625 -423.00048828125 327.4410705566406 C -423.00048828125 324.8690490722656 -424.8130798339844 322.7366027832031 -427.1866455078125 322.3394165039062 C -427.9137268066406 322.9130554199219 -428.8209838867188 323.2549743652344 -429.8034362792969 323.2549743652344 L -430.1976623535156 323.2549743652344 C -431.1801147460938 323.2549743652344 -432.087158203125 322.9130554199219 -432.8138122558594 322.3394165039062 C -435.1878051757812 322.7366027832031 -437.00048828125 324.8690490722656 -437.00048828125 327.4410705566406 C -437.00048828125 328.8541259765625 -433.8662109375 330.0000915527344 -430.0002746582031 330.0000915527344 M -430.0002746582031 322.2992553710938 C -427.9333801269531 322.2992553710938 -426.2528076171875 320.0264282226562 -426.2528076171875 317.8843994140625 C -426.2528076171875 315.7424621582031 -427.9333801269531 314.0000915527344 -430.0002746582031 314.0000915527344 C -432.0669860839844 314.0000915527344 -433.7481384277344 315.7424621582031 -433.7481384277344 317.8843994140625 C -433.74755859375 320.0264282226562 -432.0664367675781 322.2992553710938 -430.0002746582031 322.2992553710938 M -430.0002746582031 331.5000915527344 C -432.0412292480469 331.5000915527344 -433.9820251464844 331.2014770507812 -435.4651489257812 330.6592712402344 C -436.2792053222656 330.3616638183594 -436.940673828125 329.995849609375 -437.43115234375 329.5719604492188 C -438.3149719238281 328.8081665039062 -438.50048828125 327.9915771484375 -438.50048828125 327.4410705566406 C -438.50048828125 325.8568115234375 -437.9505615234375 324.3211975097656 -436.9519958496094 323.1171264648438 C -436.2294616699219 322.2459106445312 -435.30517578125 321.5851135253906 -434.2760009765625 321.1909484863281 C -434.8995056152344 320.1891174316406 -435.2478332519531 319.0201110839844 -435.2481384277344 317.8848266601562 C -435.2481384277344 314.9154663085938 -432.8939514160156 312.5000915527344 -430.0002746582031 312.5000915527344 C -427.1068115234375 312.5000915527344 -424.7528076171875 314.9154663085938 -424.7528076171875 317.8843994140625 C -424.7528076171875 319.0198974609375 -425.1009216308594 320.1890869140625 -425.7243957519531 321.1910400390625 C -424.6953430175781 321.585205078125 -423.7713012695312 322.2459411621094 -423.048828125 323.1171875 C -422.0503540039062 324.3212890625 -421.50048828125 325.8568725585938 -421.50048828125 327.4410705566406 C -421.50048828125 327.9915466308594 -421.6859741210938 328.80810546875 -422.5696411132812 329.5718688964844 C -423.0600891113281 329.9957885742188 -423.7214965820312 330.3616638183594 -424.5355224609375 330.6592712402344 C -426.0185241699219 331.2014770507812 -427.9592895507812 331.5000915527344 -430.0002746582031 331.5000915527344 Z" stroke="none" fill="#fff"/></g><g transform="translate(485 -10)" fill="#00629b"><path d="M -430.0002746582031 330.7500915527344 C -431.9555969238281 330.7500915527344 -433.804931640625 330.4676818847656 -435.2076416015625 329.9548950195312 C -437.309326171875 329.1865234375 -437.75048828125 328.1637573242188 -437.75048828125 327.4410705566406 C -437.75048828125 326.0312805175781 -437.2619018554688 324.6656799316406 -436.3746948242188 323.5959167480469 C -435.5102233886719 322.5535278320312 -434.3212585449219 321.8519592285156 -433.0190734863281 321.6139526367188 C -433.0912780761719 321.5349731445312 -433.1620483398438 321.4528198242188 -433.2310791015625 321.3677673339844 C -434.0359802246094 320.3762817382812 -434.497802734375 319.106689453125 -434.4981384277344 317.8846130371094 C -434.4981384277344 315.3290405273438 -432.4804077148438 313.2500915527344 -430.0002746582031 313.2500915527344 C -427.5203552246094 313.2500915527344 -425.5028076171875 315.3290405273438 -425.5028076171875 317.8843994140625 C -425.5028076171875 319.1065979003906 -425.96435546875 320.376220703125 -426.7691345214844 321.3677368164062 C -426.8381958007812 321.4528503417969 -426.908935546875 321.5349426269531 -426.981201171875 321.614013671875 C -425.6792907714844 321.8520202636719 -424.4905090332031 322.5535888671875 -423.6261596679688 323.595947265625 C -422.7390441894531 324.6657409667969 -422.25048828125 326.0313110351562 -422.25048828125 327.4410705566406 C -422.25048828125 328.1637573242188 -422.6915893554688 329.1865539550781 -424.7930603027344 329.9548645019531 C -426.1956176757812 330.4676818847656 -428.044921875 330.7500915527344 -430.0002746582031 330.7500915527344 Z" stroke="none"/><path d="M -430.0002746582031 330.0000915527344 C -426.1341857910156 330.0000915527344 -423.00048828125 328.8541259765625 -423.00048828125 327.4410705566406 C -423.00048828125 324.8690490722656 -424.8130798339844 322.7366027832031 -427.1866455078125 322.3394165039062 C -427.9137268066406 322.9130554199219 -428.8209838867188 323.2549743652344 -429.8034362792969 323.2549743652344 L -430.1976623535156 323.2549743652344 C -431.1801147460938 323.2549743652344 -432.087158203125 322.9130554199219 -432.8138122558594 322.3394165039062 C -435.1878051757812 322.7366027832031 -437.00048828125 324.8690490722656 -437.00048828125 327.4410705566406 C -437.00048828125 328.8541259765625 -433.8662109375 330.0000915527344 -430.0002746582031 330.0000915527344 M -430.0002746582031 322.2992553710938 C -427.9333801269531 322.2992553710938 -426.2528076171875 320.0264282226562 -426.2528076171875 317.8843994140625 C -426.2528076171875 315.7424621582031 -427.9333801269531 314.0000915527344 -430.0002746582031 314.0000915527344 C -432.0669860839844 314.0000915527344 -433.7481384277344 315.7424621582031 -433.7481384277344 317.8843994140625 C -433.74755859375 320.0264282226562 -432.0664367675781 322.2992553710938 -430.0002746582031 322.2992553710938 M -430.0002746582031 331.5000915527344 C -432.0412292480469 331.5000915527344 -433.9820251464844 331.2014770507812 -435.4651489257812 330.6592712402344 C -436.2792053222656 330.3616638183594 -436.940673828125 329.995849609375 -437.43115234375 329.5719604492188 C -438.3149719238281 328.8081665039062 -438.50048828125 327.9915771484375 -438.50048828125 327.4410705566406 C -438.50048828125 325.8568115234375 -437.9505615234375 324.3211975097656 -436.9519958496094 323.1171264648438 C -436.2294616699219 322.2459106445312 -435.30517578125 321.5851135253906 -434.2760009765625 321.1909484863281 C -434.8995056152344 320.1891174316406 -435.2478332519531 319.0201110839844 -435.2481384277344 317.8848266601562 C -435.2481384277344 314.9154663085938 -432.8939514160156 312.5000915527344 -430.0002746582031 312.5000915527344 C -427.1068115234375 312.5000915527344 -424.7528076171875 314.9154663085938 -424.7528076171875 317.8843994140625 C -424.7528076171875 319.0198974609375 -425.1009216308594 320.1890869140625 -425.7243957519531 321.1910400390625 C -424.6953430175781 321.585205078125 -423.7713012695312 322.2459411621094 -423.048828125 323.1171875 C -422.0503540039062 324.3212890625 -421.50048828125 325.8568725585938 -421.50048828125 327.4410705566406 C -421.50048828125 327.9915466308594 -421.6859741210938 328.80810546875 -422.5696411132812 329.5718688964844 C -423.0600891113281 329.9957885742188 -423.7214965820312 330.3616638183594 -424.5355224609375 330.6592712402344 C -426.0185241699219 331.2014770507812 -427.9592895507812 331.5000915527344 -430.0002746582031 331.5000915527344 Z" stroke="none" fill="#fff"/></g><g transform="translate(645 -10)" fill="#e1e2e8"><path d="M -430.0002746582031 330.7500915527344 C -431.9555969238281 330.7500915527344 -433.804931640625 330.4676818847656 -435.2076416015625 329.9548950195312 C -437.309326171875 329.1865234375 -437.75048828125 328.1637573242188 -437.75048828125 327.4410705566406 C -437.75048828125 326.0312805175781 -437.2619018554688 324.6656799316406 -436.3746948242188 323.5959167480469 C -435.5102233886719 322.5535278320312 -434.3212585449219 321.8519592285156 -433.0190734863281 321.6139526367188 C -433.0912780761719 321.5349731445312 -433.1620483398438 321.4528198242188 -433.2310791015625 321.3677673339844 C -434.0359802246094 320.3762817382812 -434.497802734375 319.106689453125 -434.4981384277344 317.8846130371094 C -434.4981384277344 315.3290405273438 -432.4804077148438 313.2500915527344 -430.0002746582031 313.2500915527344 C -427.5203552246094 313.2500915527344 -425.5028076171875 315.3290405273438 -425.5028076171875 317.8843994140625 C -425.5028076171875 319.1065979003906 -425.96435546875 320.376220703125 -426.7691345214844 321.3677368164062 C -426.8381958007812 321.4528503417969 -426.908935546875 321.5349426269531 -426.981201171875 321.614013671875 C -425.6792907714844 321.8520202636719 -424.4905090332031 322.5535888671875 -423.6261596679688 323.595947265625 C -422.7390441894531 324.6657409667969 -422.25048828125 326.0313110351562 -422.25048828125 327.4410705566406 C -422.25048828125 328.1637573242188 -422.6915893554688 329.1865539550781 -424.7930603027344 329.9548645019531 C -426.1956176757812 330.4676818847656 -428.044921875 330.7500915527344 -430.0002746582031 330.7500915527344 Z" stroke="none"/><path d="M -430.0002746582031 330.0000915527344 C -426.1341857910156 330.0000915527344 -423.00048828125 328.8541259765625 -423.00048828125 327.4410705566406 C -423.00048828125 324.8690490722656 -424.8130798339844 322.7366027832031 -427.1866455078125 322.3394165039062 C -427.9137268066406 322.9130554199219 -428.8209838867188 323.2549743652344 -429.8034362792969 323.2549743652344 L -430.1976623535156 323.2549743652344 C -431.1801147460938 323.2549743652344 -432.087158203125 322.9130554199219 -432.8138122558594 322.3394165039062 C -435.1878051757812 322.7366027832031 -437.00048828125 324.8690490722656 -437.00048828125 327.4410705566406 C -437.00048828125 328.8541259765625 -433.8662109375 330.0000915527344 -430.0002746582031 330.0000915527344 M -430.0002746582031 322.2992553710938 C -427.9333801269531 322.2992553710938 -426.2528076171875 320.0264282226562 -426.2528076171875 317.8843994140625 C -426.2528076171875 315.7424621582031 -427.9333801269531 314.0000915527344 -430.0002746582031 314.0000915527344 C -432.0669860839844 314.0000915527344 -433.7481384277344 315.7424621582031 -433.7481384277344 317.8843994140625 C -433.74755859375 320.0264282226562 -432.0664367675781 322.2992553710938 -430.0002746582031 322.2992553710938 M -430.0002746582031 331.5000915527344 C -432.0412292480469 331.5000915527344 -433.9820251464844 331.2014770507812 -435.4651489257812 330.6592712402344 C -436.2792053222656 330.3616638183594 -436.940673828125 329.995849609375 -437.43115234375 329.5719604492188 C -438.3149719238281 328.8081665039062 -438.50048828125 327.9915771484375 -438.50048828125 327.4410705566406 C -438.50048828125 325.8568115234375 -437.9505615234375 324.3211975097656 -436.9519958496094 323.1171264648438 C -436.2294616699219 322.2459106445312 -435.30517578125 321.5851135253906 -434.2760009765625 321.1909484863281 C -434.8995056152344 320.1891174316406 -435.2478332519531 319.0201110839844 -435.2481384277344 317.8848266601562 C -435.2481384277344 314.9154663085938 -432.8939514160156 312.5000915527344 -430.0002746582031 312.5000915527344 C -427.1068115234375 312.5000915527344 -424.7528076171875 314.9154663085938 -424.7528076171875 317.8843994140625 C -424.7528076171875 319.0198974609375 -425.1009216308594 320.1890869140625 -425.7243957519531 321.1910400390625 C -424.6953430175781 321.585205078125 -423.7713012695312 322.2459411621094 -423.048828125 323.1171875 C -422.0503540039062 324.3212890625 -421.50048828125 325.8568725585938 -421.50048828125 327.4410705566406 C -421.50048828125 327.9915466308594 -421.6859741210938 328.80810546875 -422.5696411132812 329.5718688964844 C -423.0600891113281 329.9957885742188 -423.7214965820312 330.3616638183594 -424.5355224609375 330.6592712402344 C -426.0185241699219 331.2014770507812 -427.9592895507812 331.5000915527344 -430.0002746582031 331.5000915527344 Z" stroke="none" fill="#fff"/></g><g transform="translate(549 -10)" fill="#aa0061"><path d="M -430.0002746582031 330.7500915527344 C -431.9555969238281 330.7500915527344 -433.804931640625 330.4676818847656 -435.2076416015625 329.9548950195312 C -437.309326171875 329.1865234375 -437.75048828125 328.1637573242188 -437.75048828125 327.4410705566406 C -437.75048828125 326.0312805175781 -437.2619018554688 324.6656799316406 -436.3746948242188 323.5959167480469 C -435.5102233886719 322.5535278320312 -434.3212585449219 321.8519592285156 -433.0190734863281 321.6139526367188 C -433.0912780761719 321.5349731445312 -433.1620483398438 321.4528198242188 -433.2310791015625 321.3677673339844 C -434.0359802246094 320.3762817382812 -434.497802734375 319.106689453125 -434.4981384277344 317.8846130371094 C -434.4981384277344 315.3290405273438 -432.4804077148438 313.2500915527344 -430.0002746582031 313.2500915527344 C -427.5203552246094 313.2500915527344 -425.5028076171875 315.3290405273438 -425.5028076171875 317.8843994140625 C -425.5028076171875 319.1065979003906 -425.96435546875 320.376220703125 -426.7691345214844 321.3677368164062 C -426.8381958007812 321.4528503417969 -426.908935546875 321.5349426269531 -426.981201171875 321.614013671875 C -425.6792907714844 321.8520202636719 -424.4905090332031 322.5535888671875 -423.6261596679688 323.595947265625 C -422.7390441894531 324.6657409667969 -422.25048828125 326.0313110351562 -422.25048828125 327.4410705566406 C -422.25048828125 328.1637573242188 -422.6915893554688 329.1865539550781 -424.7930603027344 329.9548645019531 C -426.1956176757812 330.4676818847656 -428.044921875 330.7500915527344 -430.0002746582031 330.7500915527344 Z" stroke="none"/><path d="M -430.0002746582031 330.0000915527344 C -426.1341857910156 330.0000915527344 -423.00048828125 328.8541259765625 -423.00048828125 327.4410705566406 C -423.00048828125 324.8690490722656 -424.8130798339844 322.7366027832031 -427.1866455078125 322.3394165039062 C -427.9137268066406 322.9130554199219 -428.8209838867188 323.2549743652344 -429.8034362792969 323.2549743652344 L -430.1976623535156 323.2549743652344 C -431.1801147460938 323.2549743652344 -432.087158203125 322.9130554199219 -432.8138122558594 322.3394165039062 C -435.1878051757812 322.7366027832031 -437.00048828125 324.8690490722656 -437.00048828125 327.4410705566406 C -437.00048828125 328.8541259765625 -433.8662109375 330.0000915527344 -430.0002746582031 330.0000915527344 M -430.0002746582031 322.2992553710938 C -427.9333801269531 322.2992553710938 -426.2528076171875 320.0264282226562 -426.2528076171875 317.8843994140625 C -426.2528076171875 315.7424621582031 -427.9333801269531 314.0000915527344 -430.0002746582031 314.0000915527344 C -432.0669860839844 314.0000915527344 -433.7481384277344 315.7424621582031 -433.7481384277344 317.8843994140625 C -433.74755859375 320.0264282226562 -432.0664367675781 322.2992553710938 -430.0002746582031 322.2992553710938 M -430.0002746582031 331.5000915527344 C -432.0412292480469 331.5000915527344 -433.9820251464844 331.2014770507812 -435.4651489257812 330.6592712402344 C -436.2792053222656 330.3616638183594 -436.940673828125 329.995849609375 -437.43115234375 329.5719604492188 C -438.3149719238281 328.8081665039062 -438.50048828125 327.9915771484375 -438.50048828125 327.4410705566406 C -438.50048828125 325.8568115234375 -437.9505615234375 324.3211975097656 -436.9519958496094 323.1171264648438 C -436.2294616699219 322.2459106445312 -435.30517578125 321.5851135253906 -434.2760009765625 321.1909484863281 C -434.8995056152344 320.1891174316406 -435.2478332519531 319.0201110839844 -435.2481384277344 317.8848266601562 C -435.2481384277344 314.9154663085938 -432.8939514160156 312.5000915527344 -430.0002746582031 312.5000915527344 C -427.1068115234375 312.5000915527344 -424.7528076171875 314.9154663085938 -424.7528076171875 317.8843994140625 C -424.7528076171875 319.0198974609375 -425.1009216308594 320.1890869140625 -425.7243957519531 321.1910400390625 C -424.6953430175781 321.585205078125 -423.7713012695312 322.2459411621094 -423.048828125 323.1171875 C -422.0503540039062 324.3212890625 -421.50048828125 325.8568725585938 -421.50048828125 327.4410705566406 C -421.50048828125 327.9915466308594 -421.6859741210938 328.80810546875 -422.5696411132812 329.5718688964844 C -423.0600891113281 329.9957885742188 -423.7214965820312 330.3616638183594 -424.5355224609375 330.6592712402344 C -426.0185241699219 331.2014770507812 -427.9592895507812 331.5000915527344 -430.0002746582031 331.5000915527344 Z" stroke="none" fill="#fff"/></g></g></svg>