<svg xmlns="http://www.w3.org/2000/svg" xmlns:xlink="http://www.w3.org/1999/xlink" width="375" height="628" viewBox="0 0 375 628"><defs><linearGradient id="a" x1="0.581" y1="1.071" x2="0.387" y2="-0.139" gradientUnits="objectBoundingBox"><stop offset="0" stop-color="#e1e2e8"/><stop offset="1" stop-color="#f8f8fc"/></linearGradient><clipPath id="b"><rect x="-20" width="375" height="136" fill="none"/></clipPath><filter id="c" x="20" y="286" width="176" height="136" filterUnits="userSpaceOnUse"><feOffset dy="2" input="SourceAlpha"/><feGaussianBlur stdDeviation="4" result="d"/><feFlood flood-opacity="0.031"/><feComposite operator="in" in2="d"/><feComposite in="SourceGraphic"/></filter><filter id="e" x="180" y="286" width="176" height="136" filterUnits="userSpaceOnUse"><feOffset dy="2" input="SourceAlpha"/><feGaussianBlur stdDeviation="4" result="f"/><feFlood flood-opacity="0.031"/><feComposite operator="in" in2="f"/><feComposite in="SourceGraphic"/></filter><filter id="g" x="340" y="286" width="176" height="136" filterUnits="userSpaceOnUse"><feOffset dy="2" input="SourceAlpha"/><feGaussianBlur stdDeviation="4" result="h"/><feFlood flood-opacity="0.031"/><feComposite operator="in" in2="h"/><feComposite in="SourceGraphic"/></filter><clipPath id="j"><rect width="375" height="628"/></clipPath></defs><g id="i" clip-path="url(#j)"><rect width="375" height="628" fill="#fff"/><path d="M3.72.15A2.757,2.757,0,0,0,6.59-2.82V-7.44H5.66v4.66A1.863,1.863,0,0,1,3.72-.73,1.809,1.809,0,0,1,1.86-2.76V-7.44H.93v4.63A2.7,2.7,0,0,0,3.72.15ZM8.36,2.1h.92V-.94A2.153,2.153,0,0,0,11.15.12,2.6,2.6,0,0,0,13.6-2.71a2.608,2.608,0,0,0-2.46-2.82A2.18,2.18,0,0,0,9.22-4.41l-.11-1H8.36Zm2.6-2.84A1.79,1.79,0,0,1,9.26-2.7a1.793,1.793,0,0,1,1.7-1.97,1.792,1.792,0,0,1,1.72,1.96A1.79,1.79,0,0,1,10.96-.74Zm6.11.86A2.186,2.186,0,0,0,19-.99l.11.99h.75V-8h-.92v3.53a2.123,2.123,0,0,0-1.87-1.06A2.605,2.605,0,0,0,14.61-2.7,2.614,2.614,0,0,0,17.07.12Zm.19-.86A1.8,1.8,0,0,1,15.53-2.7a1.8,1.8,0,0,1,1.73-1.97,1.79,1.79,0,0,1,1.7,1.96A1.793,1.793,0,0,1,17.26-.74Zm6.38.86A2.175,2.175,0,0,0,25.57-.99l.11.99h.75V-5.41h-.75l-.11,1a2.184,2.184,0,0,0-1.93-1.12A2.617,2.617,0,0,0,21.18-2.7,2.62,2.62,0,0,0,23.64.12Zm.19-.86A1.792,1.792,0,0,1,22.11-2.7a1.8,1.8,0,0,1,1.72-1.97,1.8,1.8,0,0,1,1.71,1.96A1.8,1.8,0,0,1,23.83-.74Zm5.41-5.94h-.88v1.27h-.83v.8h.81v2.72A1.79,1.79,0,0,0,30.27.07a3.389,3.389,0,0,0,.64-.06v-.8a2.8,2.8,0,0,1-.48.05,1.074,1.074,0,0,1-1.19-1.19V-4.61h1.55v-.8H29.24Zm7.32,3.87c0-1.78-1.05-2.72-2.33-2.72a2.656,2.656,0,0,0-2.61,2.85A2.6,2.6,0,0,0,34.36.12a3.152,3.152,0,0,0,1.89-.6v-.91a2.8,2.8,0,0,1-1.82.71A1.844,1.844,0,0,1,32.52-2.4h4.01A2.456,2.456,0,0,0,36.56-2.81Zm-4.04-.28a1.756,1.756,0,0,1,1.7-1.64,1.474,1.474,0,0,1,1.45,1.64ZM40,.12A2.186,2.186,0,0,0,41.93-.99l.11.99h.75V-8h-.92v3.53A2.123,2.123,0,0,0,40-5.53,2.605,2.605,0,0,0,37.54-2.7,2.614,2.614,0,0,0,40,.12Zm.19-.86A1.8,1.8,0,0,1,38.46-2.7a1.8,1.8,0,0,1,1.73-1.97,1.79,1.79,0,0,1,1.7,1.96A1.793,1.793,0,0,1,40.19-.74Zm4.78-2.6a.613.613,0,0,0,.62-.63.611.611,0,0,0-.62-.62.6.6,0,0,0-.62.62A.607.607,0,0,0,44.97-3.34Zm0,3.39a.611.611,0,0,0,.62-.62.613.613,0,0,0-.62-.63.607.607,0,0,0-.62.63A.6.6,0,0,0,44.97.05ZM49.42,0h4.94V-.88H51.23c1.86-2.03,2.86-3.25,2.86-4.43a2.191,2.191,0,0,0-2.33-2.28,2.987,2.987,0,0,0-1.98.73v1.04a2.587,2.587,0,0,1,1.9-.89,1.411,1.411,0,0,1,1.47,1.45C53.15-4.39,52.73-3.7,49.42,0Zm5.86,0h4.94V-.88H57.09c1.86-2.03,2.86-3.25,2.86-4.43a2.191,2.191,0,0,0-2.33-2.28,2.987,2.987,0,0,0-1.98.73v1.04a2.587,2.587,0,0,1,1.9-.89,1.411,1.411,0,0,1,1.47,1.45C59.01-4.39,58.59-3.7,55.28,0Zm5.84,1.33h.89L65.36-8.76h-.9ZM66.29,0h.99l3.89-7.44H66.23v.87h3.52Zm4.62,1.33h.89L75.15-8.76h-.9ZM75.87,0h4.94V-.88H77.68c1.86-2.03,2.86-3.25,2.86-4.43a2.191,2.191,0,0,0-2.33-2.28,2.987,2.987,0,0,0-1.98.73v1.04a2.587,2.587,0,0,1,1.9-.89A1.411,1.411,0,0,1,79.6-5.26C79.6-4.39,79.18-3.7,75.87,0Zm8.9-7.59c-1.54,0-2.78,1.46-2.78,3.88S83.23.15,84.77.15s2.79-1.45,2.79-3.86S86.31-7.59,84.77-7.59Zm0,.88c1.02,0,1.86,1.1,1.86,3S85.79-.73,84.77-.73s-1.84-1.08-1.84-2.98S83.74-6.71,84.77-6.71ZM88.55,0h4.94V-.88H90.36c1.86-2.03,2.86-3.25,2.86-4.43a2.191,2.191,0,0,0-2.33-2.28,2.987,2.987,0,0,0-1.98.73v1.04a2.587,2.587,0,0,1,1.9-.89,1.411,1.411,0,0,1,1.47,1.45C92.28-4.39,91.86-3.7,88.55,0Zm8.9-7.59c-1.54,0-2.78,1.46-2.78,3.88S95.91.15,97.45.15s2.79-1.45,2.79-3.86S98.99-7.59,97.45-7.59Zm0,.88c1.02,0,1.86,1.1,1.86,3S98.47-.73,97.45-.73s-1.84-1.08-1.84-2.98S96.42-6.71,97.45-6.71Z" transform="translate(32 71)"/><path d="M1.46,0h3.8V-14.92H1.46Zm22-14.92H19.84v8.74h-.02l-6-8.74H10.18V0H13.8V-8.9h.02L19.86,0h3.6Zm18.82,0H38.36L34.62-4l-3.8-10.92H26.86L32.58,0h4.1ZM45.74,0h9.84V-3.38H49.54v-2.6H55V-9.06H49.54v-2.48h6.04v-3.38H45.74ZM65.1-15.24c-3.44,0-5.5,1.98-5.5,4.6,0,2.78,2.36,3.78,4.1,4.44,1.42.56,2.46.96,2.46,1.84,0,.8-.82,1.38-2.22,1.38a6.919,6.919,0,0,1-4.26-1.6V-1A8.468,8.468,0,0,0,64.34.32c3.52,0,5.68-1.98,5.68-4.8,0-3-2.5-3.96-4.56-4.72-1.38-.54-2.12-.86-2.12-1.56,0-.72.76-1.18,2.02-1.18a7.094,7.094,0,0,1,3.76,1.12v-3.4A8.182,8.182,0,0,0,65.1-15.24ZM77.16,0h3.78V-11.5h4.24v-3.42H72.9v3.42h4.26Zm15.2-9.74h.08L95.3,0h3.2l2.92-9.76h.08L102.54,0h3.62l-2.1-14.92H99.74L97.02-5.76H97l-2.8-9.16H89.76L87.68,0h3.58ZM110.26,0h9.84V-3.38h-6.04v-2.6h5.46V-9.06h-5.46v-2.48h6.04v-3.38h-9.84Zm27.62-14.92h-3.62v8.74h-.02l-6-8.74H124.6V0h3.62V-8.9h.02L134.28,0h3.6ZM145.98,0h3.78V-11.5H154v-3.42H141.72v3.42h4.26Z" transform="translate(32 49)"/><path d="M-714,270l6,6,6-6" transform="translate(895.5 332)" fill="none" stroke="#c1c6c8" stroke-width="2"/><path d="M9.7-16.08H6.5v5.616H1.056v3.048H6.5v5.64H9.7v-5.64h5.616v-3.048H9.7ZM29.3-5.376c0-3.288-2.472-4.392-4.92-5.232-1.536-.528-2.76-1.032-2.76-2.112,0-.912.912-1.656,2.448-1.656a7.449,7.449,0,0,1,4.2,1.416v-3.768a9.541,9.541,0,0,0-3.36-1.032v-1.776h-3.12v1.968a5.052,5.052,0,0,0-4.1,4.848c0,3.168,2.376,4.272,4.8,5.112,1.656.552,2.856,1.08,2.856,2.256s-1.152,1.92-2.832,1.92a6.941,6.941,0,0,1-4.776-2.016v4.032A9.707,9.707,0,0,0,21.792-.048V1.728h3.12V-.216A5.383,5.383,0,0,0,29.3-5.376ZM45.936-7.008H43.08V-17.9H39.7L30.984-6.1V-3.84h8.472V0H43.08V-3.84h2.856Zm-10.944,0v-.024l4.464-6.12v6.144ZM51.6,0h3.84V-18.072h-.288L47.64-15.144v3.864l3.96-1.608Zm7.08,3.216h2.736a16.433,16.433,0,0,0,1.656-6.288V-4.1H59.64v1.32A21.092,21.092,0,0,1,58.68,3.216ZM65.184,0h13.1V-3.5H72.216c3.264-3.528,5.328-6.144,5.328-8.784,0-3.528-2.52-6.024-6.384-6.024a7.87,7.87,0,0,0-4.968,1.7V-12.7a5.891,5.891,0,0,1,4.272-2.016,2.835,2.835,0,0,1,3.048,2.832C73.512-10.08,72.816-8.856,65.184,0ZM87.96-18.312c-4.08,0-7.32,3.6-7.32,9.384,0,5.736,3.24,9.336,7.32,9.336,4.056,0,7.344-3.6,7.344-9.336C95.3-14.712,92.016-18.312,87.96-18.312Zm0,3.6c1.92,0,3.528,2.112,3.528,5.784,0,3.624-1.608,5.736-3.528,5.736S84.528-5.3,84.528-8.928C84.528-12.6,86.04-14.712,87.96-14.712Zm17.112-3.6c-4.08,0-7.32,3.6-7.32,9.384,0,5.736,3.24,9.336,7.32,9.336,4.056,0,7.344-3.6,7.344-9.336C112.416-14.712,109.128-18.312,105.072-18.312Zm0,3.6c1.92,0,3.528,2.112,3.528,5.784,0,3.624-1.608,5.736-3.528,5.736S101.64-5.3,101.64-8.928C101.64-12.6,103.152-14.712,105.072-14.712Z" transform="translate(32 145)" fill="#00629b"/><path d="M3.084,0H4.2V-7.884H7.008V-8.928H.264v1.044h2.82ZM9.96.144A3.22,3.22,0,0,0,13.176-3.24a3.224,3.224,0,0,0-3.216-3.4,3.236,3.236,0,0,0-3.24,3.4A3.225,3.225,0,0,0,9.96.144Zm0-1.032A2.174,2.174,0,0,1,7.836-3.24,2.185,2.185,0,0,1,9.96-5.6,2.183,2.183,0,0,1,12.072-3.24,2.179,2.179,0,0,1,9.96-.888Zm6.1-7.128H15v1.524H14v.96h.972v3.264A2.148,2.148,0,0,0,17.292.084,4.067,4.067,0,0,0,18.06.012v-.96a3.357,3.357,0,0,1-.576.06,1.289,1.289,0,0,1-1.428-1.428V-5.532h1.86v-.96h-1.86Zm5.8,8.16a2.61,2.61,0,0,0,2.316-1.332L24.3,0h.9V-6.492h-.9l-.132,1.2a2.621,2.621,0,0,0-2.316-1.344A3.141,3.141,0,0,0,18.9-3.24,3.144,3.144,0,0,0,21.852.144ZM22.08-.888A2.151,2.151,0,0,1,20.016-3.24,2.155,2.155,0,0,1,22.08-5.6a2.157,2.157,0,0,1,2.052,2.352A2.161,2.161,0,0,1,22.08-.888ZM27.24,0h1.1V-9.6h-1.1ZM39.18-3.372c0-2.136-1.26-3.264-2.8-3.264a3.188,3.188,0,0,0-3.132,3.42A3.125,3.125,0,0,0,36.54.144a3.782,3.782,0,0,0,2.268-.72V-1.668a3.354,3.354,0,0,1-2.184.852A2.213,2.213,0,0,1,34.332-2.88h4.812A2.947,2.947,0,0,0,39.18-3.372Zm-4.848-.336a2.108,2.108,0,0,1,2.04-1.968,1.769,1.769,0,0,1,1.74,1.968ZM43.3.144a2.61,2.61,0,0,0,2.316-1.332L45.744,0h.9V-6.492h-.9l-.132,1.2A2.621,2.621,0,0,0,43.3-6.636a3.141,3.141,0,0,0-2.952,3.4A3.144,3.144,0,0,0,43.3.144Zm.228-1.032A2.151,2.151,0,0,1,41.46-3.24,2.155,2.155,0,0,1,43.524-5.6a2.157,2.157,0,0,1,2.052,2.352A2.161,2.161,0,0,1,43.524-.888ZM48.66,0h1.1V-3.7A1.682,1.682,0,0,1,51.5-5.52a2.793,2.793,0,0,1,.456.048V-6.528a2.325,2.325,0,0,0-.432-.036,2.1,2.1,0,0,0-1.86,1.1h-.012l-.12-1.032H48.66Zm7.512-6.636A2.342,2.342,0,0,0,54.18-5.508h-.036l-.12-.984h-.852V0h1.1V-3.96A1.57,1.57,0,0,1,55.9-5.58c.972,0,1.488.54,1.488,1.68V0h1.1V-4.3A2.18,2.18,0,0,0,56.172-6.636ZM61.008-7.98a.659.659,0,0,0,.684-.672.659.659,0,0,0-.684-.672.659.659,0,0,0-.684.672A.659.659,0,0,0,61.008-7.98ZM60.456,0h1.1V-6.492h-1.1ZM66.6-6.636a2.342,2.342,0,0,0-1.992,1.128h-.036l-.12-.984H63.6V0h1.1V-3.96a1.57,1.57,0,0,1,1.62-1.62c.972,0,1.488.54,1.488,1.68V0h1.1V-4.3A2.18,2.18,0,0,0,66.6-6.636Zm6.792.012A3.107,3.107,0,0,0,70.44-3.36,3.08,3.08,0,0,0,73.392-.108a2.644,2.644,0,0,0,2.232-1.224v.984a2.005,2.005,0,0,1-2.136,1.98,3.543,3.543,0,0,1-2.376-.96V1.86a4.108,4.108,0,0,0,2.424.8A3.032,3.032,0,0,0,76.728-.528V-6.492h-.9L75.7-5.364A2.663,2.663,0,0,0,73.392-6.624Zm.216,1.02A2.083,2.083,0,0,1,75.66-3.4a2.133,2.133,0,0,1-2.052,2.28,2.112,2.112,0,0,1-2.052-2.232A2.119,2.119,0,0,1,73.608-5.6Zm7.176-1.032c-1.44,0-2.34.816-2.34,1.908,0,1.14.948,1.488,2.016,1.812.936.288,1.548.492,1.548,1.116,0,.576-.5.96-1.38.96a3.081,3.081,0,0,1-2.208-.924V-.576a3.588,3.588,0,0,0,2.244.72c1.5,0,2.424-.768,2.424-1.956,0-1.308-1.128-1.632-2.124-1.92-.876-.252-1.44-.468-1.44-1.044,0-.528.456-.876,1.272-.876a3.066,3.066,0,0,1,1.944.672V-6.072A3.4,3.4,0,0,0,80.784-6.636Z" transform="translate(32 173)"/><path d="M.444,0H6.372V-1.056H2.616c2.232-2.436,3.432-3.9,3.432-5.316a2.629,2.629,0,0,0-2.8-2.736,3.585,3.585,0,0,0-2.376.876v1.248a3.1,3.1,0,0,1,2.28-1.068A1.694,1.694,0,0,1,4.92-6.312C4.92-5.268,4.416-4.44.444,0Zm10.68-9.108c-1.848,0-3.336,1.752-3.336,4.656S9.276.18,11.124.18s3.348-1.74,3.348-4.632S12.972-9.108,11.124-9.108Zm0,1.056c1.224,0,2.232,1.32,2.232,3.6S12.348-.876,11.124-.876s-2.208-1.3-2.208-3.576S9.888-8.052,11.124-8.052ZM17.892,0H19V-8.964h-.108L15.672-7.632v1.164l2.22-.948Zm6.4-9.108a3,3,0,0,0-3.072,3.036,2.9,2.9,0,0,0,2.94,2.856,3.655,3.655,0,0,0,.492-.036L22.02,0h1.344l2.724-3.384a4.256,4.256,0,0,0,1.236-2.748A2.917,2.917,0,0,0,24.288-9.108Zm1.236,4.752a2.9,2.9,0,0,1-1.14.24,1.974,1.974,0,0,1-2.052-2,1.929,1.929,0,0,1,1.956-1.968,1.9,1.9,0,0,1,1.932,1.98A2.719,2.719,0,0,1,25.524-4.356ZM27.756,1.6h1.068l4.02-12.108h-1.08ZM33.708,0h5.928V-1.056H35.88c2.232-2.436,3.432-3.9,3.432-5.316a2.629,2.629,0,0,0-2.8-2.736,3.585,3.585,0,0,0-2.376.876v1.248a3.1,3.1,0,0,1,2.28-1.068,1.694,1.694,0,0,1,1.764,1.74C38.184-5.268,37.68-4.44,33.708,0Zm10.68-9.108c-1.848,0-3.336,1.752-3.336,4.656S42.54.18,44.388.18s3.348-1.74,3.348-4.632S46.236-9.108,44.388-9.108Zm0,1.056c1.224,0,2.232,1.32,2.232,3.6S45.612-.876,44.388-.876s-2.208-1.3-2.208-3.576S43.152-8.052,44.388-8.052ZM53.112,0h1.1V-5.532h1.86v-.96H54.2V-7.32c0-.912.444-1.308,1.248-1.308a2.787,2.787,0,0,1,.948.168V-9.48a3.574,3.574,0,0,0-1.08-.18,2.1,2.1,0,0,0-2.208,2.2v.972h-.936v.96h.936Zm4.752-7.98a.659.659,0,0,0,.684-.672.659.659,0,0,0-.684-.672.659.659,0,0,0-.684.672A.659.659,0,0,0,57.864-7.98ZM57.312,0h1.1V-6.492h-1.1Zm6.144-6.636a2.342,2.342,0,0,0-1.992,1.128h-.036l-.12-.984h-.852V0h1.1V-3.96a1.57,1.57,0,0,1,1.62-1.62c.972,0,1.488.54,1.488,1.68V0h1.1V-4.3A2.18,2.18,0,0,0,63.456-6.636ZM70.248.144a2.61,2.61,0,0,0,2.316-1.332L72.7,0h.9V-6.492h-.9l-.132,1.2a2.621,2.621,0,0,0-2.316-1.344A3.141,3.141,0,0,0,67.3-3.24,3.144,3.144,0,0,0,70.248.144Zm.228-1.032A2.151,2.151,0,0,1,68.412-3.24,2.155,2.155,0,0,1,70.476-5.6a2.157,2.157,0,0,1,2.052,2.352A2.161,2.161,0,0,1,70.476-.888Zm8.136-5.748A2.342,2.342,0,0,0,76.62-5.508h-.036l-.12-.984h-.852V0h1.1V-3.96a1.57,1.57,0,0,1,1.62-1.62c.972,0,1.488.54,1.488,1.68V0h1.1V-4.3A2.18,2.18,0,0,0,78.612-6.636Zm4.956,3.384A2.239,2.239,0,0,1,85.788-5.6a2.74,2.74,0,0,1,1.74.552V-6.18a3.325,3.325,0,0,0-1.8-.456,3.261,3.261,0,0,0-3.276,3.384,3.257,3.257,0,0,0,3.276,3.4,3.6,3.6,0,0,0,1.8-.444V-1.416A2.778,2.778,0,0,1,85.8-.888,2.238,2.238,0,0,1,83.568-3.252Zm6.18-4.728a.659.659,0,0,0,.684-.672.659.659,0,0,0-.684-.672.659.659,0,0,0-.684.672A.659.659,0,0,0,89.748-7.98ZM89.2,0h1.1V-6.492H89.2Zm5.676.144a2.61,2.61,0,0,0,2.316-1.332L97.32,0h.9V-6.492h-.9l-.132,1.2a2.621,2.621,0,0,0-2.316-1.344,3.141,3.141,0,0,0-2.952,3.4A3.144,3.144,0,0,0,94.872.144ZM95.1-.888A2.151,2.151,0,0,1,93.036-3.24,2.155,2.155,0,0,1,95.1-5.6a2.157,2.157,0,0,1,2.052,2.352A2.161,2.161,0,0,1,95.1-.888ZM100.26,0h1.1V-9.6h-1.1Zm11.364-6.492h-1.152l-1.788,4.944h-.024l-1.788-4.944h-1.2L108.1-.228,106.98,2.52h1.128Zm6.576,3.12c0-2.136-1.26-3.264-2.8-3.264a3.188,3.188,0,0,0-3.132,3.42A3.125,3.125,0,0,0,115.56.144a3.782,3.782,0,0,0,2.268-.72V-1.668a3.354,3.354,0,0,1-2.184.852,2.213,2.213,0,0,1-2.292-2.064h4.812A2.947,2.947,0,0,0,118.2-3.372Zm-4.848-.336a2.108,2.108,0,0,1,2.04-1.968,1.769,1.769,0,0,1,1.74,1.968ZM122.316.144a2.61,2.61,0,0,0,2.316-1.332L124.764,0h.9V-6.492h-.9l-.132,1.2a2.621,2.621,0,0,0-2.316-1.344,3.141,3.141,0,0,0-2.952,3.4A3.144,3.144,0,0,0,122.316.144Zm.228-1.032A2.151,2.151,0,0,1,120.48-3.24,2.155,2.155,0,0,1,122.544-5.6,2.157,2.157,0,0,1,124.6-3.252,2.161,2.161,0,0,1,122.544-.888ZM127.68,0h1.1V-3.7a1.682,1.682,0,0,1,1.74-1.824,2.793,2.793,0,0,1,.456.048V-6.528a2.325,2.325,0,0,0-.432-.036,2.1,2.1,0,0,0-1.86,1.1h-.012l-.12-1.032h-.876Z" transform="translate(200 173)"/><g transform="translate(-160 -181)"><path d="M-937,658l10-10" transform="translate(1255 -334)" fill="none" stroke="#00629b" stroke-width="3"/><path d="M-897,672h10v10" transform="translate(1215 -358)" fill="none" stroke="#00629b" stroke-width="3"/></g><g transform="translate(296 133)"><path d="M-937,648l10,10" transform="translate(937 -648)" fill="none" stroke="#aa0061" stroke-width="3"/><path d="M-897,682h10V672" transform="translate(897 -672)" fill="none" stroke="#aa0061" stroke-width="3"/></g><path d="M1.512-6.168H8.5V-9.12H1.512Zm21.432.792c0-3.288-2.472-4.392-4.92-5.232-1.536-.528-2.76-1.032-2.76-2.112,0-.912.912-1.656,2.448-1.656a7.449,7.449,0,0,1,4.2,1.416v-3.768a9.541,9.541,0,0,0-3.36-1.032v-1.776h-3.12v1.968a5.052,5.052,0,0,0-4.1,4.848c0,3.168,2.376,4.272,4.8,5.112,1.656.552,2.856,1.08,2.856,2.256s-1.152,1.92-2.832,1.92a6.941,6.941,0,0,1-4.776-2.016v4.032A9.707,9.707,0,0,0,15.432-.048V1.728h3.12V-.216A5.383,5.383,0,0,0,22.944-5.376ZM28.728,0h3.84V-18.072H32.28l-7.512,2.928v3.864l3.96-1.608Zm7.08,3.216h2.736A16.433,16.433,0,0,0,40.2-3.072V-4.1H36.768v1.32A21.092,21.092,0,0,1,35.808,3.216ZM42.312,0h13.1V-3.5H49.344c3.264-3.528,5.328-6.144,5.328-8.784,0-3.528-2.52-6.024-6.384-6.024a7.87,7.87,0,0,0-4.968,1.7V-12.7a5.891,5.891,0,0,1,4.272-2.016A2.835,2.835,0,0,1,50.64-11.88C50.64-10.08,49.944-8.856,42.312,0ZM61.344,0h3.84V-18.072H64.9l-7.512,2.928v3.864l3.96-1.608ZM83.568-7.008H80.712V-17.9H77.328L68.616-6.1V-3.84h8.472V0h3.624V-3.84h2.856Zm-10.944,0v-.024l4.464-6.12v6.144Z" transform="translate(200 145)" fill="#aa0061"/><rect width="375" height="224" transform="translate(0 208)" opacity="0.6" fill="url(#a)"/><path d="M3.312,0H5.256V-3.576l3.3-5.376H6.468L4.356-5.316H4.32L2.184-8.952h-2.2L3.312-3.564Zm8,.168a3.386,3.386,0,0,0,3.492-3.492,3.372,3.372,0,0,0-3.492-3.492A3.386,3.386,0,0,0,7.824-3.324,3.393,3.393,0,0,0,11.316.168Zm0-1.728A1.612,1.612,0,0,1,9.768-3.324a1.612,1.612,0,0,1,1.548-1.764,1.62,1.62,0,0,1,1.56,1.764A1.628,1.628,0,0,1,11.316-1.56ZM18.972.168A2.785,2.785,0,0,0,22.02-2.7V-6.648H20.1v3.936A1.031,1.031,0,0,1,18.972-1.56,1.007,1.007,0,0,1,17.88-2.7V-6.648H15.96V-2.7A2.761,2.761,0,0,0,18.972.168ZM23.532,0h1.92V-3.252a1.485,1.485,0,0,1,1.572-1.68,2.162,2.162,0,0,1,.552.06v-1.8a2.051,2.051,0,0,0-.5-.048,2.035,2.035,0,0,0-1.8,1.068h-.024l-.192-1H23.532Zm8.736-7.56A1.037,1.037,0,0,0,33.312-8.6a1.035,1.035,0,0,0-1.044-1.032A1.03,1.03,0,0,0,31.212-8.6,1.033,1.033,0,0,0,32.268-7.56ZM31.308,0h1.92V-6.648h-1.92Zm7.248-6.816a2.338,2.338,0,0,0-2,1.1h-.036l-.192-.936H34.836V0h1.92V-3.936a1.1,1.1,0,0,1,1.152-1.14c.7,0,1.056.372,1.056,1.188V0h1.92V-4.44A2.17,2.17,0,0,0,38.556-6.816ZM44.04,0h2.04L48.5-6.648H46.548L45.12-2.016h-.036L43.668-6.648H41.616ZM55.224-3.432c0-2.22-1.38-3.384-3.072-3.384A3.323,3.323,0,0,0,48.816-3.3,3.35,3.35,0,0,0,52.5.168a4.562,4.562,0,0,0,2.316-.6V-2a3.863,3.863,0,0,1-2.076.66,2,2,0,0,1-2.088-1.44h4.524A3.565,3.565,0,0,0,55.224-3.432Zm-4.608-.5A1.6,1.6,0,0,1,52.14-5.3,1.253,1.253,0,0,1,53.4-3.936Zm8.328-2.88c-1.716,0-2.712.9-2.712,2.124s.984,1.644,2.04,1.944c.864.24,1.344.372,1.344.78,0,.36-.384.576-1.056.576a3.578,3.578,0,0,1-2.292-.828V-.456a4.378,4.378,0,0,0,2.376.624c1.8,0,2.832-.84,2.832-2.148,0-1.4-1.164-1.776-2.256-2.04-.756-.2-1.14-.348-1.14-.708,0-.324.336-.528.936-.528a3.855,3.855,0,0,1,2.028.588V-6.3A4.183,4.183,0,0,0,58.944-6.816ZM64.92-8.184H63.072v1.536h-.948v1.584h.936v2.508a2.472,2.472,0,0,0,2.712,2.7A4.557,4.557,0,0,0,66.816.036V-1.572a3.756,3.756,0,0,1-.6.06c-.744,0-1.3-.324-1.3-1.164V-5.064H66.7V-6.648H64.92ZM75.276-6.816a2.181,2.181,0,0,0-1.908,1.128,1.924,1.924,0,0,0-1.86-1.128A2.064,2.064,0,0,0,69.66-5.724h-.036l-.192-.924H67.944V0h1.92V-4a.965.965,0,0,1,.96-1.08c.648,0,.888.348.888,1.068V0h1.92V-4.08a.938.938,0,0,1,.972-1c.648,0,.888.348.888,1.068V0h1.92V-4.4C77.412-5.856,76.728-6.816,75.276-6.816ZM85.02-3.432c0-2.22-1.38-3.384-3.072-3.384A3.323,3.323,0,0,0,78.612-3.3,3.35,3.35,0,0,0,82.3.168a4.562,4.562,0,0,0,2.316-.6V-2a3.863,3.863,0,0,1-2.076.66,2,2,0,0,1-2.088-1.44h4.524A3.566,3.566,0,0,0,85.02-3.432Zm-4.608-.5A1.6,1.6,0,0,1,81.936-5.3,1.253,1.253,0,0,1,83.2-3.936Zm9.576-2.88a2.338,2.338,0,0,0-2,1.1h-.036l-.192-.936H86.268V0h1.92V-3.936a1.1,1.1,0,0,1,1.152-1.14c.7,0,1.056.372,1.056,1.188V0h1.92V-4.44A2.17,2.17,0,0,0,89.988-6.816ZM96.1-8.184H94.248v1.536H93.3v1.584h.936v2.508a2.472,2.472,0,0,0,2.712,2.7A4.557,4.557,0,0,0,97.992.036V-1.572a3.756,3.756,0,0,1-.6.06c-.744,0-1.3-.324-1.3-1.164V-5.064h1.776V-6.648H96.1ZM105.228.168a3.386,3.386,0,0,0,3.492-3.492,3.372,3.372,0,0,0-3.492-3.492,3.386,3.386,0,0,0-3.492,3.492A3.393,3.393,0,0,0,105.228.168Zm0-1.728a1.612,1.612,0,0,1-1.548-1.764,1.612,1.612,0,0,1,1.548-1.764,1.62,1.62,0,0,1,1.56,1.764A1.628,1.628,0,0,1,105.228-1.56Zm4.728,4.08h1.92V-.972a2.456,2.456,0,0,0,2.088,1.14c1.56,0,2.94-1.356,2.94-3.492a3.205,3.205,0,0,0-2.976-3.492,2.55,2.55,0,0,0-2.172,1.188l-.192-1.02h-1.608Zm3.432-4.08a1.6,1.6,0,0,1-1.536-1.764A1.6,1.6,0,0,1,113.4-5.088a1.609,1.609,0,0,1,1.56,1.752A1.632,1.632,0,0,1,113.388-1.56Zm6.948-6.624h-1.848v1.536h-.948v1.584h.936v2.508a2.472,2.472,0,0,0,2.712,2.7,4.557,4.557,0,0,0,1.044-.108V-1.572a3.756,3.756,0,0,1-.6.06c-.744,0-1.3-.324-1.3-1.164V-5.064h1.776V-6.648h-1.776Zm4,.624A1.037,1.037,0,0,0,125.376-8.6a1.035,1.035,0,0,0-1.044-1.032A1.03,1.03,0,0,0,123.276-8.6,1.033,1.033,0,0,0,124.332-7.56ZM123.372,0h1.92V-6.648h-1.92Zm6.648.168a3.386,3.386,0,0,0,3.492-3.492,3.372,3.372,0,0,0-3.492-3.492,3.386,3.386,0,0,0-3.492,3.492A3.393,3.393,0,0,0,130.02.168Zm0-1.728a1.612,1.612,0,0,1-1.548-1.764,1.612,1.612,0,0,1,1.548-1.764,1.62,1.62,0,0,1,1.56,1.764A1.628,1.628,0,0,1,130.02-1.56Zm8.448-5.256a2.338,2.338,0,0,0-2,1.1h-.036l-.192-.936h-1.488V0h1.92V-3.936a1.1,1.1,0,0,1,1.152-1.14c.7,0,1.056.372,1.056,1.188V0h1.92V-4.44A2.17,2.17,0,0,0,138.468-6.816Z" transform="translate(32 245)"/><path d="M-6592,10a5.006,5.006,0,0,1-5-5,5.006,5.006,0,0,1,5-5,5,5,0,0,1,5,5A5,5,0,0,1-6592,10Zm0-6.071a.716.716,0,0,0-.713.717V7.5a.707.707,0,0,0,.713.717.716.716,0,0,0,.714-.717V4.645A.708.708,0,0,0-6592,3.929Zm0-2.143a.715.715,0,0,0-.713.714.715.715,0,0,0,.713.714.714.714,0,0,0,.714-.714A.714.714,0,0,0-6592,1.786Z" transform="translate(6717.001 164)" fill="#c1c6c8"/><path d="M3.6,15H4.9V5.8H8.176V4.584H.308V5.8H3.6Zm7.686.168a3.044,3.044,0,0,0,2.7-1.554L14.14,15h1.05V7.426H14.14l-.154,1.4a3.058,3.058,0,0,0-2.7-1.568A3.664,3.664,0,0,0,7.84,11.22,3.668,3.668,0,0,0,11.284,15.168Zm.266-1.2A2.509,2.509,0,0,1,9.142,11.22,2.514,2.514,0,0,1,11.55,8.462a2.516,2.516,0,0,1,2.394,2.744A2.521,2.521,0,0,1,11.55,13.964ZM23.94,15l-3.612-3.976,3.486-3.6H22.176L18.83,10.94V3.8H17.542V15H18.83V11.15L22.274,15Zm7.322-3.934c0-2.492-1.47-3.808-3.262-3.808a3.719,3.719,0,0,0-3.654,3.99,3.645,3.645,0,0,0,3.836,3.92,4.413,4.413,0,0,0,2.646-.84V13.054a3.913,3.913,0,0,1-2.548.994,2.582,2.582,0,0,1-2.674-2.408H31.22A3.438,3.438,0,0,0,31.262,11.066Zm-5.656-.392a2.459,2.459,0,0,1,2.38-2.3,2.064,2.064,0,0,1,2.03,2.3ZM39.312,7.258c-1.68,0-2.73.952-2.73,2.226,0,1.33,1.106,1.736,2.352,2.114,1.092.336,1.806.574,1.806,1.3,0,.672-.588,1.12-1.61,1.12a3.594,3.594,0,0,1-2.576-1.078v1.386a4.186,4.186,0,0,0,2.618.84c1.75,0,2.828-.9,2.828-2.282,0-1.526-1.316-1.9-2.478-2.24-1.022-.294-1.68-.546-1.68-1.218,0-.616.532-1.022,1.484-1.022a3.577,3.577,0,0,1,2.268.784V7.916A3.965,3.965,0,0,0,39.312,7.258Zm6.09-1.61H44.17V7.426H43.008v1.12h1.134v3.808a2.506,2.506,0,0,0,2.7,2.744,4.745,4.745,0,0,0,.9-.084v-1.12a3.917,3.917,0,0,1-.672.07A1.5,1.5,0,0,1,45.4,12.3V8.546h2.17V7.426H45.4Zm7.1,9.52a3.757,3.757,0,0,0,3.752-3.948,3.771,3.771,0,1,0-7.532,0A3.763,3.763,0,0,0,52.5,15.168Zm0-1.2a2.536,2.536,0,0,1-2.478-2.744,2.486,2.486,0,1,1,4.942,0A2.542,2.542,0,0,1,52.5,13.964Zm6.44-2.758a2.613,2.613,0,0,1,2.59-2.744,3.2,3.2,0,0,1,2.03.644V7.79a3.879,3.879,0,0,0-2.1-.532,3.8,3.8,0,0,0-3.822,3.948,3.8,3.8,0,0,0,3.822,3.962,4.2,4.2,0,0,0,2.1-.518v-1.3a3.241,3.241,0,0,1-2.016.616A2.611,2.611,0,0,1,58.94,11.206ZM71.876,15l-3.612-3.976,3.486-3.6H70.112L66.766,10.94V3.8H65.478V15h1.288V11.15L70.21,15Zm8.218.168a3.757,3.757,0,0,0,3.752-3.948,3.771,3.771,0,1,0-7.532,0A3.763,3.763,0,0,0,80.094,15.168Zm0-1.2a2.536,2.536,0,0,1-2.478-2.744,2.486,2.486,0,1,1,4.942,0A2.542,2.542,0,0,1,80.094,13.964ZM86.016,15H87.3V8.546h2.17V7.426H87.29V6.46c0-1.064.518-1.526,1.456-1.526a3.252,3.252,0,0,1,1.106.2V3.94a4.17,4.17,0,0,0-1.26-.21,2.451,2.451,0,0,0-2.576,2.562V7.426H84.924v1.12h1.092Zm9.66-11.2H94.388V15h1.288V10.31a1.75,1.75,0,0,1,1.89-1.848c1.162,0,1.736.644,1.736,1.974V15h1.288V9.988a2.5,2.5,0,0,0-2.73-2.73,2.607,2.607,0,0,0-2.17,1.078h-.014Zm10.486,11.368a3.757,3.757,0,0,0,3.752-3.948,3.771,3.771,0,1,0-7.532,0A3.763,3.763,0,0,0,106.162,15.168Zm0-1.2a2.536,2.536,0,0,1-2.478-2.744,2.486,2.486,0,1,1,4.942,0A2.542,2.542,0,0,1,106.162,13.964ZM118.342,15h1.47l2.128-7.574h-1.274l-1.61,6.132h-.042L117.1,7.426h-1.344l-1.932,6.132h-.028L112.21,7.426h-1.344L113.008,15h1.47L116.4,9.064h.042Zm14.546-7.574h-1.344l-2.086,5.768h-.028l-2.086-5.768h-1.4l2.828,7.308-1.3,3.206h1.316Zm4.522,7.742a3.757,3.757,0,0,0,3.752-3.948,3.771,3.771,0,1,0-7.532,0A3.763,3.763,0,0,0,137.41,15.168Zm0-1.2a2.536,2.536,0,0,1-2.478-2.744,2.486,2.486,0,1,1,4.942,0A2.542,2.542,0,0,1,137.41,13.964Zm8.61,1.2a2.918,2.918,0,0,0,3.136-3.08V7.426h-1.288v4.69a1.707,1.707,0,0,1-1.848,1.848,1.678,1.678,0,0,1-1.792-1.848V7.426H142.94v4.662A2.881,2.881,0,0,0,146.02,15.168ZM151.41,15H152.7V10.688a1.963,1.963,0,0,1,2.03-2.128,3.259,3.259,0,0,1,.532.056V7.384a2.713,2.713,0,0,0-.5-.042,2.453,2.453,0,0,0-2.17,1.288h-.014l-.14-1.2H151.41Zm11.13-7.742c-1.68,0-2.73.952-2.73,2.226,0,1.33,1.106,1.736,2.352,2.114,1.092.336,1.806.574,1.806,1.3,0,.672-.588,1.12-1.61,1.12a3.594,3.594,0,0,1-2.576-1.078v1.386a4.186,4.186,0,0,0,2.618.84c1.75,0,2.828-.9,2.828-2.282,0-1.526-1.316-1.9-2.478-2.24-1.022-.294-1.68-.546-1.68-1.218,0-.616.532-1.022,1.484-1.022a3.577,3.577,0,0,1,2.268.784V7.916A3.965,3.965,0,0,0,162.54,7.258Zm7.5,7.91a2.918,2.918,0,0,0,3.136-3.08V7.426h-1.288v4.69a1.707,1.707,0,0,1-1.848,1.848,1.678,1.678,0,0,1-1.792-1.848V7.426h-1.288v4.662A2.881,2.881,0,0,0,170.044,15.168Zm5.39,2.772h1.288V13.684a3.014,3.014,0,0,0,2.618,1.484c1.792,0,3.43-1.526,3.43-3.962a3.651,3.651,0,0,0-3.444-3.948,3.052,3.052,0,0,0-2.688,1.568l-.154-1.4h-1.05Zm3.64-3.976a2.506,2.506,0,0,1-2.38-2.744,2.417,2.417,0,1,1,4.788-.014A2.506,2.506,0,0,1,179.074,13.964Zm12.026-2.9c0-2.492-1.47-3.808-3.262-3.808a3.719,3.719,0,0,0-3.654,3.99,3.645,3.645,0,0,0,3.836,3.92,4.413,4.413,0,0,0,2.646-.84V13.054a3.913,3.913,0,0,1-2.548.994,2.582,2.582,0,0,1-2.674-2.408h5.614A3.438,3.438,0,0,0,191.1,11.066Zm-5.656-.392a2.459,2.459,0,0,1,2.38-2.3,2.064,2.064,0,0,1,2.03,2.3Zm7.5,4.326h1.288V10.688a1.963,1.963,0,0,1,2.03-2.128,3.259,3.259,0,0,1,.532.056V7.384a2.713,2.713,0,0,0-.5-.042,2.453,2.453,0,0,0-2.17,1.288h-.014l-.14-1.2h-1.022Zm9.422-9.31a.784.784,0,1,0-.8-.784A.769.769,0,0,0,202.37,5.69ZM201.726,15h1.288V7.426h-1.288Zm6.048-7.742c-1.68,0-2.73.952-2.73,2.226,0,1.33,1.106,1.736,2.352,2.114,1.092.336,1.806.574,1.806,1.3,0,.672-.588,1.12-1.61,1.12a3.594,3.594,0,0,1-2.576-1.078v1.386a4.186,4.186,0,0,0,2.618.84c1.75,0,2.828-.9,2.828-2.282,0-1.526-1.316-1.9-2.478-2.24-1.022-.294-1.68-.546-1.68-1.218,0-.616.532-1.022,1.484-1.022a3.577,3.577,0,0,1,2.268.784V7.916A3.965,3.965,0,0,0,207.774,7.258ZM1.848,29.69a.784.784,0,1,0,0-1.568.784.784,0,1,0,0,1.568ZM1.2,39H2.492V31.426H1.2Zm7.168-7.742a2.732,2.732,0,0,0-2.324,1.316H6.006l-.14-1.148H4.872V39H6.16V34.38a1.832,1.832,0,0,1,1.89-1.89c1.134,0,1.736.63,1.736,1.96V39h1.288V33.988A2.543,2.543,0,0,0,8.372,31.258ZM15.092,39h1.4l2.758-7.574H17.92l-2.086,6.146h-.042l-2.086-6.146H12.334Zm11.844-3.934c0-2.492-1.47-3.808-3.262-3.808a3.719,3.719,0,0,0-3.654,3.99,3.645,3.645,0,0,0,3.836,3.92,4.413,4.413,0,0,0,2.646-.84V37.054a3.913,3.913,0,0,1-2.548.994A2.582,2.582,0,0,1,21.28,35.64h5.614A3.438,3.438,0,0,0,26.936,35.066Zm-5.656-.392a2.459,2.459,0,0,1,2.38-2.3,2.064,2.064,0,0,1,2.03,2.3Zm9.884-3.416c-1.68,0-2.73.952-2.73,2.226,0,1.33,1.106,1.736,2.352,2.114,1.092.336,1.806.574,1.806,1.3,0,.672-.588,1.12-1.61,1.12a3.594,3.594,0,0,1-2.576-1.078v1.386a4.186,4.186,0,0,0,2.618.84c1.75,0,2.828-.9,2.828-2.282,0-1.526-1.316-1.9-2.478-2.24-1.022-.294-1.68-.546-1.68-1.218,0-.616.532-1.022,1.484-1.022a3.577,3.577,0,0,1,2.268.784V31.916A3.965,3.965,0,0,0,31.164,31.258Zm6.09-1.61H36.022v1.778H34.86v1.12h1.134v3.808A2.506,2.506,0,0,0,38.7,39.1a4.745,4.745,0,0,0,.9-.084v-1.12a3.917,3.917,0,0,1-.672.07A1.5,1.5,0,0,1,37.254,36.3V32.546h2.17v-1.12h-2.17ZM47.5,35.066c0-2.492-1.47-3.808-3.262-3.808a3.719,3.719,0,0,0-3.654,3.99,3.645,3.645,0,0,0,3.836,3.92,4.413,4.413,0,0,0,2.646-.84V37.054a3.913,3.913,0,0,1-2.548.994,2.582,2.582,0,0,1-2.674-2.408H47.46A3.438,3.438,0,0,0,47.5,35.066Zm-5.656-.392a2.459,2.459,0,0,1,2.38-2.3,2.064,2.064,0,0,1,2.03,2.3Zm10.472,4.494a3.06,3.06,0,0,0,2.7-1.554L55.174,39h1.05V27.8H54.936v4.942a2.973,2.973,0,0,0-2.618-1.484c-1.792,0-3.444,1.526-3.444,3.962A3.66,3.66,0,0,0,52.318,39.168Zm.266-1.2a2.52,2.52,0,0,1-2.422-2.744,2.423,2.423,0,1,1,4.8-.014A2.511,2.511,0,0,1,52.584,37.964Zm5.334,2.9h.966a9.345,9.345,0,0,0,.84-3.262v-.574H58.506v.63A10.962,10.962,0,0,1,57.918,40.862ZM68.74,39.168a3.044,3.044,0,0,0,2.7-1.554L71.6,39h1.05V31.426H71.6l-.154,1.4a3.058,3.058,0,0,0-2.7-1.568A3.664,3.664,0,0,0,65.3,35.22,3.668,3.668,0,0,0,68.74,39.168Zm.266-1.2A2.509,2.509,0,0,1,66.6,35.22a2.423,2.423,0,1,1,4.8-.014A2.521,2.521,0,0,1,69.006,37.964Zm8.372-6.706c-1.68,0-2.73.952-2.73,2.226,0,1.33,1.106,1.736,2.352,2.114,1.092.336,1.806.574,1.806,1.3,0,.672-.588,1.12-1.61,1.12a3.594,3.594,0,0,1-2.576-1.078v1.386a4.186,4.186,0,0,0,2.618.84c1.75,0,2.828-.9,2.828-2.282,0-1.526-1.316-1.9-2.478-2.24-1.022-.294-1.68-.546-1.68-1.218,0-.616.532-1.022,1.484-1.022a3.577,3.577,0,0,1,2.268.784V31.916A3.965,3.965,0,0,0,77.378,31.258Zm14.112.168H90.146L88.06,37.194h-.028l-2.086-5.768h-1.4l2.828,7.308-1.3,3.206h1.316Zm4.522,7.742a3.757,3.757,0,0,0,3.752-3.948,3.771,3.771,0,1,0-7.532,0A3.763,3.763,0,0,0,96.012,39.168Zm0-1.2a2.536,2.536,0,0,1-2.478-2.744,2.486,2.486,0,1,1,4.942,0A2.542,2.542,0,0,1,96.012,37.964Zm8.61,1.2a2.918,2.918,0,0,0,3.136-3.08V31.426H106.47v4.69a1.707,1.707,0,0,1-1.848,1.848,1.678,1.678,0,0,1-1.792-1.848v-4.69h-1.288v4.662A2.881,2.881,0,0,0,104.622,39.168Zm5.39-.168H111.3V34.688a1.963,1.963,0,0,1,2.03-2.128,3.259,3.259,0,0,1,.532.056V31.384a2.713,2.713,0,0,0-.5-.042,2.453,2.453,0,0,0-2.17,1.288h-.014l-.14-1.2h-1.022Zm12.25-7.742a2.732,2.732,0,0,0-2.324,1.316H119.9l-.14-1.148h-.994V39h1.288V34.38a1.832,1.832,0,0,1,1.89-1.89c1.134,0,1.736.63,1.736,1.96V39h1.288V33.988A2.543,2.543,0,0,0,122.262,31.258Zm11.41,3.808c0-2.492-1.47-3.808-3.262-3.808a3.719,3.719,0,0,0-3.654,3.99,3.645,3.645,0,0,0,3.836,3.92,4.413,4.413,0,0,0,2.646-.84V37.054a3.913,3.913,0,0,1-2.548.994,2.582,2.582,0,0,1-2.674-2.408h5.614A3.438,3.438,0,0,0,133.672,35.066Zm-5.656-.392a2.459,2.459,0,0,1,2.38-2.3,2.064,2.064,0,0,1,2.03,2.3Zm13.944.392c0-2.492-1.47-3.808-3.262-3.808a3.719,3.719,0,0,0-3.654,3.99,3.645,3.645,0,0,0,3.836,3.92,4.413,4.413,0,0,0,2.646-.84V37.054a3.913,3.913,0,0,1-2.548.994A2.582,2.582,0,0,1,136.3,35.64h5.614A3.438,3.438,0,0,0,141.96,35.066Zm-5.656-.392a2.459,2.459,0,0,1,2.38-2.3,2.064,2.064,0,0,1,2.03,2.3Zm10.472,4.494a3.06,3.06,0,0,0,2.7-1.554L149.632,39h1.05V27.8h-1.288v4.942a2.973,2.973,0,0,0-2.618-1.484c-1.792,0-3.444,1.526-3.444,3.962A3.66,3.66,0,0,0,146.776,39.168Zm.266-1.2a2.52,2.52,0,0,1-2.422-2.744,2.423,2.423,0,1,1,4.8-.014A2.511,2.511,0,0,1,147.042,37.964Zm8.358-6.706c-1.68,0-2.73.952-2.73,2.226,0,1.33,1.106,1.736,2.352,2.114,1.092.336,1.806.574,1.806,1.3,0,.672-.588,1.12-1.61,1.12a3.594,3.594,0,0,1-2.576-1.078v1.386a4.186,4.186,0,0,0,2.618.84c1.75,0,2.828-.9,2.828-2.282,0-1.526-1.316-1.9-2.478-2.24-1.022-.294-1.68-.546-1.68-1.218,0-.616.532-1.022,1.484-1.022a3.577,3.577,0,0,1,2.268.784V31.916A3.965,3.965,0,0,0,155.4,31.258Zm9.156,3.948a2.613,2.613,0,0,1,2.59-2.744,3.2,3.2,0,0,1,2.03.644V31.79a3.879,3.879,0,0,0-2.1-.532,3.957,3.957,0,0,0,0,7.91,4.2,4.2,0,0,0,2.1-.518v-1.3a3.241,3.241,0,0,1-2.016.616A2.611,2.611,0,0,1,164.556,35.206Zm9.352,3.962a3.044,3.044,0,0,0,2.7-1.554L176.764,39h1.05V31.426h-1.05l-.154,1.4a3.058,3.058,0,0,0-2.7-1.568,3.664,3.664,0,0,0-3.444,3.962A3.668,3.668,0,0,0,173.908,39.168Zm.266-1.2a2.509,2.509,0,0,1-2.408-2.744,2.423,2.423,0,1,1,4.8-.014A2.521,2.521,0,0,1,174.174,37.964Zm9.492-6.706a2.732,2.732,0,0,0-2.324,1.316H181.3l-.14-1.148h-.994V39h1.288V34.38a1.832,1.832,0,0,1,1.89-1.89c1.134,0,1.736.63,1.736,1.96V39h1.288V33.988A2.543,2.543,0,0,0,183.666,31.258Zm9.6,3.948a2.613,2.613,0,0,1,2.59-2.744,3.2,3.2,0,0,1,2.03.644V31.79a3.879,3.879,0,0,0-2.1-.532,3.957,3.957,0,0,0,0,7.91,4.2,4.2,0,0,0,2.1-.518v-1.3a3.241,3.241,0,0,1-2.016.616A2.611,2.611,0,0,1,193.27,35.206ZM201.1,27.8h-1.288V39H201.1V34.31a1.75,1.75,0,0,1,1.89-1.848c1.162,0,1.736.644,1.736,1.974V39h1.288V33.988a2.5,2.5,0,0,0-2.73-2.73,2.607,2.607,0,0,0-2.17,1.078H201.1Zm10.15,11.368a3.044,3.044,0,0,0,2.7-1.554L214.1,39h1.05V31.426H214.1l-.154,1.4a3.058,3.058,0,0,0-2.7-1.568A3.664,3.664,0,0,0,207.8,35.22,3.668,3.668,0,0,0,211.246,39.168Zm.266-1.2A2.509,2.509,0,0,1,209.1,35.22a2.423,2.423,0,1,1,4.8-.014A2.521,2.521,0,0,1,211.512,37.964ZM221,31.258a2.732,2.732,0,0,0-2.324,1.316h-.042l-.14-1.148H217.5V39h1.288V34.38a1.832,1.832,0,0,1,1.89-1.89c1.134,0,1.736.63,1.736,1.96V39h1.288V33.988A2.543,2.543,0,0,0,221,31.258Zm7.924.014a3.624,3.624,0,0,0-3.444,3.808,3.594,3.594,0,0,0,3.444,3.794,3.085,3.085,0,0,0,2.6-1.428v1.148a2.339,2.339,0,0,1-2.492,2.31,4.133,4.133,0,0,1-2.772-1.12V41.17a4.793,4.793,0,0,0,2.828.938,3.537,3.537,0,0,0,3.724-3.724V31.426h-1.05l-.154,1.316A3.107,3.107,0,0,0,228.928,31.272Zm.252,1.19a2.43,2.43,0,0,1,2.394,2.576,2.489,2.489,0,0,1-2.394,2.66,2.628,2.628,0,0,1,0-5.236Zm12.432,2.6c0-2.492-1.47-3.808-3.262-3.808a3.719,3.719,0,0,0-3.654,3.99,3.645,3.645,0,0,0,3.836,3.92,4.413,4.413,0,0,0,2.646-.84V37.054a3.913,3.913,0,0,1-2.548.994,2.582,2.582,0,0,1-2.674-2.408h5.614A3.438,3.438,0,0,0,241.612,35.066Zm-5.656-.392a2.459,2.459,0,0,1,2.38-2.3,2.064,2.064,0,0,1,2.03,2.3ZM4.466,63.168A3.959,3.959,0,1,0,.686,59.22,3.757,3.757,0,0,0,4.466,63.168Zm0-1.2a2.766,2.766,0,0,1,0-5.5,2.768,2.768,0,0,1,0,5.5ZM11.746,63h1.4L15.9,55.426h-1.33l-2.086,6.146h-.042L10.36,55.426H8.988ZM23.59,59.066c0-2.492-1.47-3.808-3.262-3.808a3.719,3.719,0,0,0-3.654,3.99,3.645,3.645,0,0,0,3.836,3.92,4.413,4.413,0,0,0,2.646-.84V61.054a3.913,3.913,0,0,1-2.548.994,2.582,2.582,0,0,1-2.674-2.408h5.614A3.438,3.438,0,0,0,23.59,59.066Zm-5.656-.392a2.459,2.459,0,0,1,2.38-2.3,2.064,2.064,0,0,1,2.03,2.3ZM25.438,63h1.288V58.688a1.963,1.963,0,0,1,2.03-2.128,3.259,3.259,0,0,1,.532.056V55.384a2.713,2.713,0,0,0-.5-.042,2.453,2.453,0,0,0-2.17,1.288H26.6l-.14-1.2H25.438Zm10.136-9.352H34.342v1.778H33.18v1.12h1.134v3.808a2.506,2.506,0,0,0,2.7,2.744,4.745,4.745,0,0,0,.9-.084v-1.12a3.917,3.917,0,0,1-.672.07A1.5,1.5,0,0,1,35.574,60.3V56.546h2.17v-1.12h-2.17Zm4.55.042a.784.784,0,1,0-.8-.784A.769.769,0,0,0,40.124,53.69ZM39.48,63h1.288V55.426H39.48Zm11.158-7.742a2.422,2.422,0,0,0-2.184,1.33,2.088,2.088,0,0,0-2.1-1.33,2.26,2.26,0,0,0-2.03,1.288h-.042l-.14-1.12h-.994V63h1.288V58.226A1.6,1.6,0,0,1,46,56.49c1.008,0,1.442.574,1.442,1.666V63h1.288V58.156a1.573,1.573,0,0,1,1.582-1.666c1.008,0,1.428.574,1.428,1.666V63h1.288V57.946C53.032,56.364,52.29,55.258,50.638,55.258Zm11.116,3.808c0-2.492-1.47-3.808-3.262-3.808a3.719,3.719,0,0,0-3.654,3.99,3.645,3.645,0,0,0,3.836,3.92,4.413,4.413,0,0,0,2.646-.84V61.054a3.913,3.913,0,0,1-2.548.994A2.582,2.582,0,0,1,56.1,59.64h5.614A3.438,3.438,0,0,0,61.754,59.066ZM56.1,58.674a2.459,2.459,0,0,1,2.38-2.3,2.064,2.064,0,0,1,2.03,2.3Zm8.092,4.4a.875.875,0,1,0-.868-.868A.855.855,0,0,0,64.19,63.07Z" transform="translate(72 464)"/><path d="M18.7,12.03a.661.661,0,0,1,.662-.662H21.7a.662.662,0,1,1,0,1.324H19.362A.685.685,0,0,1,18.7,12.03Zm19.367,0a.661.661,0,0,0,.662.662H41.1a.662.662,0,0,0,0-1.324H38.764A.649.649,0,0,0,38.067,12.03Zm.313,8.116a.7.7,0,0,0,0-.94l-1.637-1.637a.665.665,0,0,0-.94.94l1.637,1.637a.688.688,0,0,0,.488.209A.674.674,0,0,0,38.381,20.146Zm-10.206.662a.661.661,0,0,0-.662.662v.7a1.155,1.155,0,0,0,.94,1.115l.174.627a.816.816,0,0,0,.766.592H31.1a.816.816,0,0,0,.766-.592l.174-.627a1.127,1.127,0,0,0,.94-1.115v-.7a.661.661,0,0,0-.662-.662Zm-4.424-3.239-1.637,1.637a.7.7,0,0,0,0,.94.673.673,0,0,0,.975,0l1.637-1.637a.7.7,0,0,0,0-.94A.672.672,0,0,0,23.751,17.568Zm0-11.112a.673.673,0,0,0,.975,0,.7.7,0,0,0,0-.94L23.089,3.879a.665.665,0,0,0-.94.94Zm.557,5.608a5.922,5.922,0,1,1,11.843-.07,5.852,5.852,0,0,1-1.672,4.11,5.554,5.554,0,0,0-1.463,2.961.977.977,0,0,1-.975.836H28.384a.977.977,0,0,1-.975-.836,5.554,5.554,0,0,0-1.463-2.961A6.13,6.13,0,0,1,24.308,12.065Zm1.672-.035a.661.661,0,0,0,.662.662.685.685,0,0,0,.662-.662A2.944,2.944,0,0,1,30.23,9.1a.661.661,0,0,0,.662-.662.685.685,0,0,0-.662-.662A4.267,4.267,0,0,0,25.98,12.03ZM36.256,6.665a.688.688,0,0,0,.488-.209l1.637-1.637a.665.665,0,1,0-.94-.94L35.8,5.516a.7.7,0,0,0,0,.94A.562.562,0,0,0,36.256,6.665ZM30.23,4.157a.661.661,0,0,0,.662-.662V1.162a.662.662,0,0,0-1.324,0V3.5A.661.661,0,0,0,30.23,4.157Z" transform="translate(13.3 463.5)" fill="#ffc400"/><path d="M8.75-.49v-2A4.527,4.527,0,0,1,6.1-1.6,3.484,3.484,0,0,1,2.618-5.222,3.464,3.464,0,0,1,6.1-8.834,4.489,4.489,0,0,1,8.75-7.98V-9.954a5.713,5.713,0,0,0-2.828-.714A5.257,5.257,0,0,0,.616-5.222,5.257,5.257,0,0,0,5.922.224,5.713,5.713,0,0,0,8.75-.49Zm5.1.686A3.893,3.893,0,0,0,17.808-3.85a3.873,3.873,0,0,0-3.962-4.032A3.893,3.893,0,0,0,9.87-3.85,3.9,3.9,0,0,0,13.846.2Zm0-1.764a2.1,2.1,0,0,1-2.03-2.282,2.1,2.1,0,0,1,2.03-2.282A2.09,2.09,0,0,1,15.862-3.85,2.1,2.1,0,0,1,13.846-1.568ZM27.608-7.882A2.49,2.49,0,0,0,25.4-6.566,2.191,2.191,0,0,0,23.24-7.882a2.342,2.342,0,0,0-2.1,1.274H21.1L20.888-7.7h-1.5V0h1.932V-4.7A1.288,1.288,0,0,1,22.6-6.118c.84,0,1.176.462,1.176,1.386V0H25.7V-4.788a1.241,1.241,0,0,1,1.274-1.33c.826,0,1.162.462,1.162,1.386V0h1.932V-5.11C30.072-6.776,29.288-7.882,27.608-7.882ZM32.032,2.94h1.932V-1.19A2.972,2.972,0,0,0,36.47.2C38.276.2,39.9-1.386,39.9-3.85s-1.666-4.032-3.472-4.032A2.963,2.963,0,0,0,33.852-6.44l-.2-1.26H32.032Zm3.892-4.508A2.086,2.086,0,0,1,33.936-3.85a2.088,2.088,0,0,1,2-2.282,2.085,2.085,0,0,1,2.016,2.268A2.1,2.1,0,0,1,35.924-1.568ZM44.506.2a2.987,2.987,0,0,0,2.6-1.456l.2,1.26H48.93V-7.7H47.306l-.2,1.26a2.976,2.976,0,0,0-2.6-1.442c-1.75,0-3.444,1.6-3.444,4.046A3.75,3.75,0,0,0,44.506.2Zm.532-1.764a2.1,2.1,0,0,1-2.03-2.282,2.1,2.1,0,0,1,2.03-2.282A2.077,2.077,0,0,1,47.026-3.85,2.077,2.077,0,0,1,45.038-1.568ZM50.946,0h1.932V-3.962a1.807,1.807,0,0,1,1.9-2.016,3.057,3.057,0,0,1,.616.056V-7.728a2.3,2.3,0,0,0-.56-.056,2.4,2.4,0,0,0-2.128,1.26h-.028l-.2-1.176h-1.54ZM63.294-3.99c0-2.548-1.568-3.892-3.486-3.892a3.819,3.819,0,0,0-3.822,4.06A3.838,3.838,0,0,0,60.144.2,5,5,0,0,0,62.818-.56V-2.212a4.277,4.277,0,0,1-2.45.84A2.414,2.414,0,0,1,57.834-3.29h5.4A5.067,5.067,0,0,0,63.294-3.99ZM57.82-4.508a2.056,2.056,0,0,1,1.974-1.82,1.659,1.659,0,0,1,1.652,1.82Zm11.634-4.48a1.058,1.058,0,0,0,1.078-1.064,1.07,1.07,0,0,0-1.078-1.078,1.073,1.073,0,0,0-1.092,1.078A1.061,1.061,0,0,0,69.454-8.988ZM68.488,0H70.42V-7.7H68.488Zm8.036-7.882A2.716,2.716,0,0,0,74.2-6.594h-.042L73.948-7.7h-1.5V0h1.932V-4.606a1.467,1.467,0,0,1,1.526-1.512c.924,0,1.4.5,1.4,1.568V0H79.24V-5.138A2.53,2.53,0,0,0,76.524-7.882ZM83.034,0h2.058l2.814-7.7H85.918L84.126-2.058h-.042L82.292-7.7H80.234ZM95.7-3.99c0-2.548-1.568-3.892-3.486-3.892A3.819,3.819,0,0,0,88.4-3.822,3.838,3.838,0,0,0,92.554.2,5,5,0,0,0,95.228-.56V-2.212a4.277,4.277,0,0,1-2.45.84A2.414,2.414,0,0,1,90.244-3.29h5.4A5.067,5.067,0,0,0,95.7-3.99ZM90.23-4.508A2.056,2.056,0,0,1,92.2-6.328a1.659,1.659,0,0,1,1.652,1.82ZM100-7.882c-1.89,0-3.024,1.008-3.024,2.394s1.134,1.862,2.38,2.212c1.036.308,1.638.49,1.638,1.036,0,.5-.49.826-1.358.826a3.907,3.907,0,0,1-2.632-1.008V-.588A4.688,4.688,0,0,0,99.722.2c1.988,0,3.15-.966,3.15-2.45,0-1.6-1.344-2.016-2.576-2.338-.938-.252-1.442-.448-1.442-.938,0-.462.434-.756,1.218-.756a4.124,4.124,0,0,1,2.324.714V-7.266A4.628,4.628,0,0,0,100-7.882Zm6.692-1.61h-1.862V-7.7H103.7v1.61h1.12v3.206a2.769,2.769,0,0,0,3.01,3.038,4.956,4.956,0,0,0,1.106-.112V-1.61a4.073,4.073,0,0,1-.686.07c-.9,0-1.554-.406-1.554-1.442V-6.09h2.1V-7.7h-2.1Zm11.844,1.61a2.49,2.49,0,0,0-2.212,1.316,2.191,2.191,0,0,0-2.156-1.316,2.342,2.342,0,0,0-2.1,1.274h-.042l-.21-1.092h-1.5V0h1.932V-4.7a1.288,1.288,0,0,1,1.274-1.414c.84,0,1.176.462,1.176,1.386V0h1.932V-4.788a1.241,1.241,0,0,1,1.274-1.33c.826,0,1.162.462,1.162,1.386V0H121V-5.11C121-6.776,120.218-7.882,118.538-7.882Zm11.3,3.892c0-2.548-1.568-3.892-3.486-3.892a3.819,3.819,0,0,0-3.822,4.06A3.838,3.838,0,0,0,126.686.2,5,5,0,0,0,129.36-.56V-2.212a4.277,4.277,0,0,1-2.45.84,2.414,2.414,0,0,1-2.534-1.918h5.4A5.067,5.067,0,0,0,129.836-3.99Zm-5.474-.518a2.056,2.056,0,0,1,1.974-1.82,1.659,1.659,0,0,1,1.652,1.82Zm11.116-3.374a2.716,2.716,0,0,0-2.324,1.288h-.042L132.9-7.7h-1.5V0h1.932V-4.606a1.467,1.467,0,0,1,1.526-1.512c.924,0,1.4.5,1.4,1.568V0h1.932V-5.138A2.53,2.53,0,0,0,135.478-7.882Zm6.93-1.61h-1.862V-7.7h-1.134v1.61h1.12v3.206a2.769,2.769,0,0,0,3.01,3.038,4.956,4.956,0,0,0,1.106-.112V-1.61a4.073,4.073,0,0,1-.686.07c-.9,0-1.554-.406-1.554-1.442V-6.09h2.1V-7.7h-2.1ZM153.174.2a3.893,3.893,0,0,0,3.962-4.046,3.873,3.873,0,0,0-3.962-4.032A3.893,3.893,0,0,0,149.2-3.85,3.9,3.9,0,0,0,153.174.2Zm0-1.764a2.1,2.1,0,0,1-2.03-2.282,2.1,2.1,0,0,1,2.03-2.282A2.09,2.09,0,0,1,155.19-3.85,2.1,2.1,0,0,1,153.174-1.568Zm5.544,4.508h1.932V-1.19A2.972,2.972,0,0,0,163.156.2c1.806,0,3.43-1.582,3.43-4.046s-1.666-4.032-3.472-4.032a2.963,2.963,0,0,0-2.576,1.442l-.2-1.26h-1.624Zm3.892-4.508a2.086,2.086,0,0,1-1.988-2.282,2.088,2.088,0,0,1,2-2.282,2.085,2.085,0,0,1,2.016,2.268A2.1,2.1,0,0,1,162.61-1.568Zm7.784-7.924h-1.862V-7.7H167.4v1.61h1.12v3.206a2.769,2.769,0,0,0,3.01,3.038,4.956,4.956,0,0,0,1.106-.112V-1.61a4.073,4.073,0,0,1-.686.07c-.9,0-1.554-.406-1.554-1.442V-6.09h2.1V-7.7h-2.1Zm4.62.5a1.058,1.058,0,0,0,1.078-1.064,1.07,1.07,0,0,0-1.078-1.078,1.073,1.073,0,0,0-1.092,1.078A1.061,1.061,0,0,0,175.014-8.988ZM174.048,0h1.932V-7.7h-1.932Zm7.5.2a3.893,3.893,0,0,0,3.962-4.046,3.873,3.873,0,0,0-3.962-4.032,3.893,3.893,0,0,0-3.976,4.032A3.9,3.9,0,0,0,181.552.2Zm0-1.764a2.1,2.1,0,0,1-2.03-2.282,2.1,2.1,0,0,1,2.03-2.282,2.09,2.09,0,0,1,2.016,2.282A2.1,2.1,0,0,1,181.552-1.568Zm9.618-6.314a2.716,2.716,0,0,0-2.324,1.288H188.8l-.21-1.106h-1.5V0h1.932V-4.606a1.467,1.467,0,0,1,1.526-1.512c.924,0,1.4.5,1.4,1.568V0h1.932V-5.138A2.53,2.53,0,0,0,191.17-7.882Zm7.392,0c-1.89,0-3.024,1.008-3.024,2.394s1.134,1.862,2.38,2.212c1.036.308,1.638.49,1.638,1.036,0,.5-.49.826-1.358.826a3.907,3.907,0,0,1-2.632-1.008V-.588A4.687,4.687,0,0,0,198.282.2c1.988,0,3.15-.966,3.15-2.45,0-1.6-1.344-2.016-2.576-2.338-.938-.252-1.442-.448-1.442-.938,0-.462.434-.756,1.218-.756a4.124,4.124,0,0,1,2.324.714V-7.266A4.628,4.628,0,0,0,198.562-7.882Z" transform="translate(72 567)" fill="#00629b"/><path d="M6274,1336l4,4-4,4" transform="translate(-5992 -777.5)" fill="none" stroke="#00629b" stroke-linecap="square" stroke-width="2"/><rect width="166" height="8" rx="4" transform="translate(32 264)" fill="#003865"/><rect width="70" height="8" rx="4" transform="translate(200 264)" fill="#00a7b5"/><rect width="46" height="8" rx="4" transform="translate(272 264)" fill="#007d8a"/><rect width="24" height="8" rx="4" transform="translate(320 264)" fill="#00629b"/><g transform="translate(20 286)" clip-path="url(#b)" style="isolation:isolate"><g transform="translate(-20 -286)"><g transform="matrix(1, 0, 0, 1, 0, 0)" filter="url(#c)"><rect width="152" height="112" rx="8" transform="translate(32 296)" fill="#fff"/></g><g transform="matrix(1, 0, 0, 1, 0, 0)" filter="url(#e)"><rect width="152" height="112" rx="8" transform="translate(192 296)" fill="#fff"/></g><path d="M3.346,0H5.614V-8.358H8.666v-2.086H.28v2.086H3.346Zm8.3.2A2.916,2.916,0,0,0,14.2-1.19L14.42,0h1.89V-7.756H14.42L14.2-6.566a2.946,2.946,0,0,0-2.548-1.386C9.9-7.952,8.2-6.328,8.2-3.85A3.763,3.763,0,0,0,11.648.2Zm.658-2.016a1.9,1.9,0,0,1-1.848-2.058,1.91,1.91,0,0,1,1.848-2.058,1.88,1.88,0,0,1,1.806,2.058A1.88,1.88,0,0,1,12.306-1.82Zm8.75-6.132c-2,0-3.164,1.05-3.164,2.478s1.148,1.918,2.38,2.268c1.008.28,1.568.434,1.568.91,0,.42-.448.672-1.232.672a4.175,4.175,0,0,1-2.674-.966V-.532A5.108,5.108,0,0,0,20.706.2c2.1,0,3.3-.98,3.3-2.506,0-1.638-1.358-2.072-2.632-2.38-.882-.238-1.33-.406-1.33-.826,0-.378.392-.616,1.092-.616a4.5,4.5,0,0,1,2.366.686v-1.9A4.88,4.88,0,0,0,21.056-7.952Zm4.4,10.892h2.24V-1.134A2.866,2.866,0,0,0,30.128.2c1.82,0,3.43-1.582,3.43-4.074s-1.666-4.074-3.472-4.074a2.975,2.975,0,0,0-2.534,1.386l-.224-1.19H25.452Zm4-4.76a1.87,1.87,0,0,1-1.792-2.058A1.872,1.872,0,0,1,29.47-5.936a1.877,1.877,0,0,1,1.82,2.044A1.9,1.9,0,0,1,29.456-1.82ZM35.028,0h2.24V-11.242h-2.24Zm7.14.2A2.916,2.916,0,0,0,44.716-1.19L44.94,0h1.89V-7.756H44.94l-.224,1.19a2.946,2.946,0,0,0-2.548-1.386c-1.75,0-3.444,1.624-3.444,4.1A3.763,3.763,0,0,0,42.168.2Zm.658-2.016a1.9,1.9,0,0,1-1.848-2.058,1.91,1.91,0,0,1,1.848-2.058,1.88,1.88,0,0,1,1.806,2.058A1.88,1.88,0,0,1,42.826-1.82ZM53.032-7.952a2.728,2.728,0,0,0-2.338,1.288h-.042l-.224-1.092H48.692V0h2.24V-4.592a1.283,1.283,0,0,1,1.344-1.33c.812,0,1.232.434,1.232,1.386V0h2.24V-5.18A2.531,2.531,0,0,0,53.032-7.952ZM66.052.238a5.277,5.277,0,0,0,5.376-5.46,5.277,5.277,0,0,0-5.376-5.46,5.3,5.3,0,0,0-5.4,5.46A5.283,5.283,0,0,0,66.052.238Zm0-2.086a3.134,3.134,0,0,1-3.094-3.374,3.129,3.129,0,0,1,3.094-3.36,3.125,3.125,0,0,1,3.066,3.36A3.137,3.137,0,0,1,66.052-1.848Zm11.214-6.1a2.728,2.728,0,0,0-2.338,1.288h-.042l-.224-1.092H72.926V0h2.24V-4.592a1.283,1.283,0,0,1,1.344-1.33c.812,0,1.232.434,1.232,1.386V0h2.24V-5.18A2.531,2.531,0,0,0,77.266-7.952ZM83.188,0h2.268V-8.358h3.052v-2.086H80.122v2.086h3.066Zm5.824,0h2.24V-3.794a1.732,1.732,0,0,1,1.834-1.96,2.523,2.523,0,0,1,.644.07v-2.1a2.393,2.393,0,0,0-.588-.056,2.374,2.374,0,0,0-2.1,1.246h-.028L90.79-7.756H89.012Zm8.722.2a2.916,2.916,0,0,0,2.548-1.386L100.506,0h1.89V-7.756h-1.89l-.224,1.19a2.946,2.946,0,0,0-2.548-1.386c-1.75,0-3.444,1.624-3.444,4.1A3.763,3.763,0,0,0,97.734.2Zm.658-2.016a1.9,1.9,0,0,1-1.848-2.058,1.91,1.91,0,0,1,1.848-2.058A1.88,1.88,0,0,1,100.2-3.878,1.88,1.88,0,0,1,98.392-1.82Zm7.7-2.058a2.029,2.029,0,0,1,2.142-2.058,3.4,3.4,0,0,1,1.946.588V-7.406a4.547,4.547,0,0,0-2.282-.546,3.971,3.971,0,0,0-4.074,4.06A3.97,3.97,0,0,0,107.9.2a5.03,5.03,0,0,0,2.282-.532V-2.394a3.224,3.224,0,0,1-1.946.574A2.021,2.021,0,0,1,106.092-3.878ZM119.574,0l-3.122-4.06,3.024-3.7H116.83L114.016-4.2v-7.042h-2.24V0h2.24V-3.752L116.83,0ZM3.6,12.72H3.64L5.894,20H7.84l2.268-7.308h.056L11.046,20H13.23l-1.5-10.444H9.1L6.944,16.542H6.916l-2.2-6.986h-2.7L.518,20h2.17ZM17.724,20.2a2.916,2.916,0,0,0,2.548-1.386L20.5,20h1.89V12.244H20.5l-.224,1.19a2.946,2.946,0,0,0-2.548-1.386c-1.75,0-3.444,1.624-3.444,4.1A3.763,3.763,0,0,0,17.724,20.2Zm.658-2.016a1.9,1.9,0,0,1-1.848-2.058,1.91,1.91,0,0,1,1.848-2.058,1.88,1.88,0,0,1,1.806,2.058A1.88,1.88,0,0,1,18.382,18.18Zm7-7A1.211,1.211,0,1,0,24.15,9.962,1.21,1.21,0,0,0,25.382,11.18ZM24.262,20H26.5V12.244h-2.24Zm8.456-7.952a2.728,2.728,0,0,0-2.338,1.288h-.042l-.224-1.092H28.378V20h2.24V15.408a1.283,1.283,0,0,1,1.344-1.33c.812,0,1.232.434,1.232,1.386V20h2.24V14.82A2.531,2.531,0,0,0,32.718,12.048Zm7.126-1.6H37.688v1.792H36.582v1.848h1.092v2.926a2.884,2.884,0,0,0,3.164,3.15,5.317,5.317,0,0,0,1.218-.126V18.166a4.383,4.383,0,0,1-.7.07c-.868,0-1.512-.378-1.512-1.358V14.092h2.072V12.244H39.844ZM46.368,20.2a2.916,2.916,0,0,0,2.548-1.386L49.14,20h1.89V12.244H49.14l-.224,1.19a2.946,2.946,0,0,0-2.548-1.386c-1.75,0-3.444,1.624-3.444,4.1A3.763,3.763,0,0,0,46.368,20.2Zm.658-2.016a1.9,1.9,0,0,1-1.848-2.058,1.91,1.91,0,0,1,1.848-2.058,1.88,1.88,0,0,1,1.806,2.058A1.88,1.88,0,0,1,47.026,18.18Zm7-7a1.211,1.211,0,1,0-1.232-1.218A1.21,1.21,0,0,0,54.026,11.18ZM52.906,20h2.24V12.244h-2.24Zm8.456-7.952a2.728,2.728,0,0,0-2.338,1.288h-.042l-.224-1.092H57.022V20h2.24V15.408a1.283,1.283,0,0,1,1.344-1.33c.812,0,1.232.434,1.232,1.386V20h2.24V14.82A2.531,2.531,0,0,0,61.362,12.048Z" transform="translate(48 327)"/><path d="M4.452-10.668c-2.254,0-3.7,1.3-3.7,3.122C.756-5.684,2.3-5,3.584-4.466c1.134.462,1.862.8,1.862,1.5s-.686,1.19-1.722,1.19A4.623,4.623,0,0,1,.784-2.926V-.714A5.512,5.512,0,0,0,3.948.224c2.31,0,3.836-1.316,3.836-3.276C7.784-5.04,6.16-5.7,4.676-6.286,3.584-6.734,3.01-7.014,3.01-7.63c0-.658.644-1.022,1.568-1.022a4.789,4.789,0,0,1,2.59.8v-2.1A5.486,5.486,0,0,0,4.452-10.668ZM12.684.2A3.249,3.249,0,0,0,16.24-3.15V-7.756H14v4.592A1.2,1.2,0,0,1,12.684-1.82,1.175,1.175,0,0,1,11.41-3.15V-7.756H9.17V-3.15A3.222,3.222,0,0,0,12.684.2Zm8.2-8.148c-2,0-3.164,1.05-3.164,2.478s1.148,1.918,2.38,2.268c1.008.28,1.568.434,1.568.91,0,.42-.448.672-1.232.672a4.175,4.175,0,0,1-2.674-.966V-.532A5.108,5.108,0,0,0,20.538.2c2.1,0,3.3-.98,3.3-2.506,0-1.638-1.358-2.072-2.632-2.38-.882-.238-1.33-.406-1.33-.826,0-.378.392-.616,1.092-.616a4.5,4.5,0,0,1,2.366.686v-1.9A4.88,4.88,0,0,0,20.888-7.952Zm6.972-1.6H25.7v1.792H24.6v1.848H25.69v2.926A2.884,2.884,0,0,0,28.854.168,5.317,5.317,0,0,0,30.072.042V-1.834a4.383,4.383,0,0,1-.7.07c-.868,0-1.512-.378-1.512-1.358V-5.908h2.072V-7.756H27.86ZM34.384.2A2.916,2.916,0,0,0,36.932-1.19L37.156,0h1.89V-7.756h-1.89l-.224,1.19a2.946,2.946,0,0,0-2.548-1.386c-1.75,0-3.444,1.624-3.444,4.1A3.763,3.763,0,0,0,34.384.2Zm.658-2.016a1.9,1.9,0,0,1-1.848-2.058,1.91,1.91,0,0,1,1.848-2.058,1.88,1.88,0,0,1,1.806,2.058A1.88,1.88,0,0,1,35.042-1.82Zm7-7a1.21,1.21,0,0,0,1.218-1.218,1.207,1.207,0,0,0-1.218-1.2,1.2,1.2,0,0,0-1.232,1.2A1.2,1.2,0,0,0,42.042-8.82ZM40.922,0h2.24V-7.756h-2.24Zm8.456-7.952A2.728,2.728,0,0,0,47.04-6.664H47l-.224-1.092H45.038V0h2.24V-4.592a1.283,1.283,0,0,1,1.344-1.33c.812,0,1.232.434,1.232,1.386V0h2.24V-5.18A2.531,2.531,0,0,0,49.378-7.952ZM56.924.2A2.916,2.916,0,0,0,59.472-1.19L59.7,0h1.89V-7.756H59.7l-.224,1.19a2.946,2.946,0,0,0-2.548-1.386c-1.75,0-3.444,1.624-3.444,4.1A3.763,3.763,0,0,0,56.924.2Zm.658-2.016a1.9,1.9,0,0,1-1.848-2.058,1.91,1.91,0,0,1,1.848-2.058,1.88,1.88,0,0,1,1.806,2.058A1.88,1.88,0,0,1,57.582-1.82Zm8.106-9.422h-2.24V0h1.876l.224-1.19A2.92,2.92,0,0,0,68.068.2c1.806,0,3.486-1.6,3.486-4.074s-1.6-4.074-3.4-4.074a2.914,2.914,0,0,0-2.464,1.33Zm1.764,5.306a1.9,1.9,0,0,1,1.834,2.072,1.877,1.877,0,0,1-1.82,2.044A1.864,1.864,0,0,1,65.66-3.878,1.87,1.87,0,0,1,67.452-5.936ZM73.024,0h2.24V-11.242h-2.24ZM84.2-4c0-2.59-1.61-3.948-3.584-3.948a3.877,3.877,0,0,0-3.892,4.1C76.72-1.5,78.288.2,81.018.2a5.323,5.323,0,0,0,2.7-.7V-2.338a4.507,4.507,0,0,1-2.422.77,2.332,2.332,0,0,1-2.436-1.68H84.14A4.159,4.159,0,0,0,84.2-4ZM78.82-4.592a1.866,1.866,0,0,1,1.778-1.6,1.462,1.462,0,0,1,1.47,1.6Z" transform="translate(208 327)"/><path d="M4.48-6.678a3.591,3.591,0,0,0-.7.07l3.052-3.808H5.278L2.17-6.538A5,5,0,0,0,.714-3.3,3.487,3.487,0,0,0,4.326.21,3.48,3.48,0,0,0,7.938-3.346,3.418,3.418,0,0,0,4.48-6.678ZM4.326-.98A2.33,2.33,0,0,1,1.988-3.3,3.1,3.1,0,0,1,2.772-5.32a3.107,3.107,0,0,1,1.316-.294A2.368,2.368,0,0,1,6.65-3.276,2.3,2.3,0,0,1,4.326-.98Zm9.016-9.646c-2.156,0-3.892,2.044-3.892,5.432S11.186.21,13.342.21s3.906-2.03,3.906-5.4S15.5-10.626,13.342-10.626Zm0,1.232c1.428,0,2.6,1.54,2.6,4.2s-1.176,4.172-2.6,4.172-2.576-1.512-2.576-4.172S11.9-9.394,13.342-9.394ZM19.516.07A.855.855,0,0,0,20.384-.8a.858.858,0,0,0-.868-.882.85.85,0,0,0-.868.882A.846.846,0,0,0,19.516.07Zm6.174-10.7c-2.156,0-3.892,2.044-3.892,5.432S23.534.21,25.69.21,29.6-1.82,29.6-5.194,27.846-10.626,25.69-10.626Zm0,1.232c1.428,0,2.6,1.54,2.6,4.2s-1.176,4.172-2.6,4.172-2.576-1.512-2.576-4.172S24.248-9.394,25.69-9.394ZM33.628-5.32a2.53,2.53,0,0,0,2.534-2.66,2.518,2.518,0,0,0-2.534-2.646A2.543,2.543,0,0,0,31.052-7.98,2.547,2.547,0,0,0,33.628-5.32ZM32.62,0h1.246l6.846-10.416H39.48Zm1.008-6.286a1.584,1.584,0,0,1-1.54-1.694,1.563,1.563,0,0,1,1.54-1.68A1.559,1.559,0,0,1,35.14-7.98,1.58,1.58,0,0,1,33.628-6.286Zm6.1,6.5A2.529,2.529,0,0,0,42.28-2.436,2.525,2.525,0,0,0,39.732-5.1a2.536,2.536,0,0,0-2.562,2.66A2.532,2.532,0,0,0,39.732.21Zm0-.966a1.569,1.569,0,0,1-1.526-1.68A1.574,1.574,0,0,1,39.732-4.13a1.574,1.574,0,0,1,1.526,1.694A1.569,1.569,0,0,1,39.732-.756Z" transform="translate(72 391)"/><path d="M.518,0H7.434V-1.232H3.052c2.6-2.842,4-4.55,4-6.2a3.067,3.067,0,0,0-3.262-3.192A4.182,4.182,0,0,0,1.022-9.6v1.456a3.621,3.621,0,0,1,2.66-1.246A1.976,1.976,0,0,1,5.74-7.364C5.74-6.146,5.152-5.18.518,0Zm11.9-10.626A3.5,3.5,0,0,0,8.834-7.084a3.381,3.381,0,0,0,3.43,3.332,4.264,4.264,0,0,0,.574-.042L9.772,0H11.34l3.178-3.948A4.965,4.965,0,0,0,15.96-7.154,3.4,3.4,0,0,0,12.418-10.626ZM13.86-5.082a3.383,3.383,0,0,1-1.33.28A2.3,2.3,0,0,1,10.136-7.14a2.25,2.25,0,0,1,2.282-2.3,2.222,2.222,0,0,1,2.254,2.31A3.173,3.173,0,0,1,13.86-5.082ZM17.332.07A.855.855,0,0,0,18.2-.8a.858.858,0,0,0-.868-.882.85.85,0,0,0-.868.882A.846.846,0,0,0,17.332.07Zm2.9-9.758V-8.3a3.227,3.227,0,0,1,2.422-1.106,1.781,1.781,0,0,1,2,1.736c0,1.05-.784,1.792-2.366,1.792H21.28v1.106h1.3c1.512,0,2.408.77,2.408,1.862s-.882,1.89-2.3,1.89A3.561,3.561,0,0,1,19.95-2.3V-.84A4.141,4.141,0,0,0,22.806.182c2.268,0,3.486-1.442,3.486-2.982a2.7,2.7,0,0,0-1.9-2.618v-.028A2.535,2.535,0,0,0,25.942-7.84a2.893,2.893,0,0,0-3.15-2.786A3.737,3.737,0,0,0,20.23-9.688ZM30.324-5.32a2.53,2.53,0,0,0,2.534-2.66,2.518,2.518,0,0,0-2.534-2.646A2.543,2.543,0,0,0,27.748-7.98,2.547,2.547,0,0,0,30.324-5.32ZM29.316,0h1.246l6.846-10.416H36.176Zm1.008-6.286a1.584,1.584,0,0,1-1.54-1.694,1.563,1.563,0,0,1,1.54-1.68,1.559,1.559,0,0,1,1.512,1.68A1.58,1.58,0,0,1,30.324-6.286Zm6.1,6.5a2.529,2.529,0,0,0,2.548-2.646A2.525,2.525,0,0,0,36.428-5.1a2.536,2.536,0,0,0-2.562,2.66A2.532,2.532,0,0,0,36.428.21Zm0-.966A1.569,1.569,0,0,1,34.9-2.436,1.574,1.574,0,0,1,36.428-4.13a1.574,1.574,0,0,1,1.526,1.694A1.569,1.569,0,0,1,36.428-.756Z" transform="translate(232 391)"/><rect width="12" height="12" rx="6" transform="translate(48 380)" fill="#00629b"/><rect width="12" height="12" rx="6" transform="translate(208 380)" fill="#00a7b5"/><path d="M-6591,12a6.007,6.007,0,0,1-6-6,6.007,6.007,0,0,1,6-6,6.006,6.006,0,0,1,6,6A6.006,6.006,0,0,1-6591,12Zm0-7.286a.859.859,0,0,0-.856.86V9a.849.849,0,0,0,.856.86.859.859,0,0,0,.857-.86V5.574A.849.849,0,0,0-6591,4.714Zm0-2.571a.858.858,0,0,0-.856.857.858.858,0,0,0,.856.857.858.858,0,0,0,.857-.857A.858.858,0,0,0-6591,2.143Z" transform="translate(6753.001 380)" fill="#c1c6c8"/><path d="M-6591,12a6.007,6.007,0,0,1-6-6,6.007,6.007,0,0,1,6-6,6.006,6.006,0,0,1,6,6A6.006,6.006,0,0,1-6591,12Zm0-7.286a.859.859,0,0,0-.856.86V9a.849.849,0,0,0,.856.86.859.859,0,0,0,.857-.86V5.574A.849.849,0,0,0-6591,4.714Zm0-2.571a.858.858,0,0,0-.856.857.858.858,0,0,0,.856.857.858.858,0,0,0,.857-.857A.858.858,0,0,0-6591,2.143Z" transform="translate(6913.001 380)" fill="#c1c6c8"/><g transform="translate(-7 175)"><g transform="matrix(1, 0, 0, 1, 7, -175)" filter="url(#g)"><rect width="152" height="112" rx="8" transform="translate(352 296)" fill="#fff"/></g><path d="M10.556,0,6.594-10.444H3.962L.056,0h2.38l.9-2.548H7.238L8.162,0ZM5.278-8.064l1.316,3.64H3.962ZM14.84.2A3.249,3.249,0,0,0,18.4-3.15V-7.756h-2.24v4.592A1.2,1.2,0,0,1,14.84-1.82a1.175,1.175,0,0,1-1.274-1.33V-7.756h-2.24V-3.15A3.222,3.222,0,0,0,14.84.2Zm8.2-8.148c-2,0-3.164,1.05-3.164,2.478s1.148,1.918,2.38,2.268c1.008.28,1.568.434,1.568.91,0,.42-.448.672-1.232.672a4.175,4.175,0,0,1-2.674-.966V-.532A5.108,5.108,0,0,0,22.694.2c2.1,0,3.3-.98,3.3-2.506,0-1.638-1.358-2.072-2.632-2.38-.882-.238-1.33-.406-1.33-.826,0-.378.392-.616,1.092-.616a4.5,4.5,0,0,1,2.366.686v-1.9A4.88,4.88,0,0,0,23.044-7.952Zm6.972-1.6H27.86v1.792H26.754v1.848h1.092v2.926A2.884,2.884,0,0,0,31.01.168,5.317,5.317,0,0,0,32.228.042V-1.834a4.382,4.382,0,0,1-.7.07c-.868,0-1.512-.378-1.512-1.358V-5.908h2.072V-7.756H30.016ZM33.544,0h2.24V-3.794a1.732,1.732,0,0,1,1.834-1.96,2.523,2.523,0,0,1,.644.07v-2.1a2.393,2.393,0,0,0-.588-.056,2.374,2.374,0,0,0-2.1,1.246h-.028l-.224-1.162H33.544Zm8.722.2A2.916,2.916,0,0,0,44.814-1.19L45.038,0h1.89V-7.756h-1.89l-.224,1.19a2.946,2.946,0,0,0-2.548-1.386c-1.75,0-3.444,1.624-3.444,4.1A3.763,3.763,0,0,0,42.266.2Zm.658-2.016a1.9,1.9,0,0,1-1.848-2.058,1.91,1.91,0,0,1,1.848-2.058A1.88,1.88,0,0,1,44.73-3.878,1.88,1.88,0,0,1,42.924-1.82ZM48.8,0h2.24V-11.242H48.8Zm5.25-8.82a1.21,1.21,0,0,0,1.218-1.218,1.207,1.207,0,0,0-1.218-1.2,1.2,1.2,0,0,0-1.232,1.2A1.2,1.2,0,0,0,54.054-8.82ZM52.934,0h2.24V-7.756h-2.24Zm7.14.2A2.916,2.916,0,0,0,62.622-1.19L62.846,0h1.89V-7.756h-1.89l-.224,1.19a2.946,2.946,0,0,0-2.548-1.386c-1.75,0-3.444,1.624-3.444,4.1A3.763,3.763,0,0,0,60.074.2Zm.658-2.016a1.9,1.9,0,0,1-1.848-2.058,1.91,1.91,0,0,1,1.848-2.058,1.88,1.88,0,0,1,1.806,2.058A1.88,1.88,0,0,1,60.732-1.82ZM70.938-7.952A2.728,2.728,0,0,0,68.6-6.664h-.042l-.224-1.092H66.6V0h2.24V-4.592a1.283,1.283,0,0,1,1.344-1.33c.812,0,1.232.434,1.232,1.386V0h2.24V-5.18A2.531,2.531,0,0,0,70.938-7.952Zm-67.116,20c-2,0-3.164,1.05-3.164,2.478s1.148,1.918,2.38,2.268c1.008.28,1.568.434,1.568.91,0,.42-.448.672-1.232.672A4.175,4.175,0,0,1,.7,17.41v2.058a5.108,5.108,0,0,0,2.772.728c2.1,0,3.3-.98,3.3-2.506,0-1.638-1.358-2.072-2.632-2.38-.882-.238-1.33-.406-1.33-.826,0-.378.392-.616,1.092-.616a4.5,4.5,0,0,1,2.366.686v-1.9A4.88,4.88,0,0,0,3.822,12.048Zm6.636-3.29H8.218V20h2.24V15.366a1.253,1.253,0,0,1,1.344-1.3c.826,0,1.232.434,1.232,1.386V20h2.24V14.82a2.528,2.528,0,0,0-2.73-2.772A2.657,2.657,0,0,0,10.472,13h-.014ZM20.1,20.2a2.916,2.916,0,0,0,2.548-1.386L22.876,20h1.89V12.244h-1.89l-.224,1.19A2.946,2.946,0,0,0,20.1,12.048c-1.75,0-3.444,1.624-3.444,4.1A3.763,3.763,0,0,0,20.1,20.2Zm.658-2.016a1.9,1.9,0,0,1-1.848-2.058,1.91,1.91,0,0,1,1.848-2.058,1.88,1.88,0,0,1,1.806,2.058A1.88,1.88,0,0,1,20.762,18.18ZM26.628,20h2.24V16.206a1.732,1.732,0,0,1,1.834-1.96,2.523,2.523,0,0,1,.644.07v-2.1a2.493,2.493,0,0,0-2.688,1.19H28.63l-.224-1.162H26.628Zm12.754-4c0-2.59-1.61-3.948-3.584-3.948a3.877,3.877,0,0,0-3.892,4.1c0,2.352,1.568,4.046,4.3,4.046a5.323,5.323,0,0,0,2.7-.7V17.662a4.507,4.507,0,0,1-2.422.77,2.332,2.332,0,0,1-2.436-1.68h5.278A4.16,4.16,0,0,0,39.382,16Zm-5.376-.588a1.866,1.866,0,0,1,1.778-1.6,1.462,1.462,0,0,1,1.47,1.6Zm9.716-3.36c-2,0-3.164,1.05-3.164,2.478s1.148,1.918,2.38,2.268c1.008.28,1.568.434,1.568.91,0,.42-.448.672-1.232.672A4.175,4.175,0,0,1,40.6,17.41v2.058a5.108,5.108,0,0,0,2.772.728c2.1,0,3.3-.98,3.3-2.506,0-1.638-1.358-2.072-2.632-2.38-.882-.238-1.33-.406-1.33-.826,0-.378.392-.616,1.092-.616a4.5,4.5,0,0,1,2.366.686v-1.9A4.88,4.88,0,0,0,43.722,12.048Z" transform="translate(375 152)"/><rect width="12" height="12" rx="6" transform="translate(375 205)" fill="#107d8a"/><path d="M-6591,12a6.007,6.007,0,0,1-6-6,6.007,6.007,0,0,1,6-6,6.006,6.006,0,0,1,6,6A6.006,6.006,0,0,1-6591,12Zm0-7.286a.859.859,0,0,0-.856.86V9a.849.849,0,0,0,.856.86.859.859,0,0,0,.857-.86V5.574A.849.849,0,0,0-6591,4.714Zm0-2.571a.858.858,0,0,0-.856.857.858.858,0,0,0,.856.857.858.858,0,0,0,.857-.857A.858.858,0,0,0-6591,2.143Z" transform="translate(7080.001 205)" fill="#c1c6c8"/></g><rect width="32" height="112" transform="translate(664 296)" fill="#fff" opacity="0"/></g></g></g></svg>