<svg xmlns="http://www.w3.org/2000/svg" xmlns:xlink="http://www.w3.org/1999/xlink" width="375" height="628" viewBox="0 0 375 628"><defs><linearGradient id="a" x1="0.581" y1="1.071" x2="0.387" y2="-0.139" gradientUnits="objectBoundingBox"><stop offset="0" stop-color="#e1e2e8"/><stop offset="1" stop-color="#f8f8fc"/></linearGradient><filter id="b" x="20" y="270" width="176" height="136" filterUnits="userSpaceOnUse"><feOffset dy="2" input="SourceAlpha"/><feGaussianBlur stdDeviation="4" result="c"/><feFlood flood-opacity="0.031"/><feComposite operator="in" in2="c"/><feComposite in="SourceGraphic"/></filter><filter id="d" x="180" y="270" width="176" height="136" filterUnits="userSpaceOnUse"><feOffset dy="2" input="SourceAlpha"/><feGaussianBlur stdDeviation="4" result="e"/><feFlood flood-opacity="0.031"/><feComposite operator="in" in2="e"/><feComposite in="SourceGraphic"/></filter><filter id="f" x="340" y="270" width="176" height="136" filterUnits="userSpaceOnUse"><feOffset dy="2" input="SourceAlpha"/><feGaussianBlur stdDeviation="4" result="g"/><feFlood flood-opacity="0.031"/><feComposite operator="in" in2="g"/><feComposite in="SourceGraphic"/></filter><linearGradient id="h" x1="0.5" x2="0.5" y2="1" gradientUnits="objectBoundingBox"><stop offset="0" stop-color="#f8f8fc"/><stop offset="1" stop-color="#e1e2e8"/></linearGradient><filter id="i" x="8" y="444" width="80" height="80" filterUnits="userSpaceOnUse"><feOffset dy="4" input="SourceAlpha"/><feGaussianBlur stdDeviation="8" result="j"/><feFlood flood-opacity="0.122"/><feComposite operator="in" in2="j"/><feComposite in="SourceGraphic"/></filter><clipPath id="k"><circle cx="16" cy="16" r="16" transform="translate(0 0.001)" fill="#9bcbeb"/></clipPath><linearGradient id="l" x1="-2.152" y1="0.467" x2="1.172" y2="0.515" gradientUnits="objectBoundingBox"><stop offset="0.01"/><stop offset="1" stop-opacity="0"/></linearGradient><linearGradient id="m" x1="-1.499" y1="1.742" x2="1.059" y2="0.131" xlink:href="#l"/><linearGradient id="n" x1="0.337" y1="-1.05" x2="0.603" y2="1.481" xlink:href="#l"/><linearGradient id="o" x1="0.815" y1="0.239" x2="0.092" y2="0.732" gradientUnits="objectBoundingBox"><stop offset="0.02" stop-color="#fff" stop-opacity="0"/><stop offset="0.58" stop-color="#fff" stop-opacity="0.388"/><stop offset="1" stop-color="#fff"/></linearGradient><linearGradient id="p" x1="-0.26" y1="0.481" x2="1.302" y2="0.521" xlink:href="#o"/><linearGradient id="q" x1="0.538" y1="-0.383" x2="0.467" y2="1.403" xlink:href="#l"/><linearGradient id="r" x1="0.256" y1="-0.276" x2="0.721" y2="1.203" xlink:href="#l"/><linearGradient id="s" x1="0.253" y1="0.258" x2="0.455" y2="0.476" xlink:href="#l"/><linearGradient id="t" x1="0.413" y1="0.486" x2="1.01" y2="0.583" xlink:href="#l"/><linearGradient id="u" x1="0.014" y1="0.352" x2="0.779" y2="0.604" xlink:href="#l"/><linearGradient id="v" x1="0.555" y1="1.165" x2="0.461" y2="-0.341" xlink:href="#l"/><linearGradient id="w" x1="0.635" y1="0.055" x2="0.348" y2="0.907" gradientUnits="objectBoundingBox"><stop offset="0.02" stop-color="#fff" stop-opacity="0"/><stop offset="0.58" stop-color="#fff" stop-opacity="0.388"/><stop offset="0.68" stop-color="#fff" stop-opacity="0.678"/><stop offset="1" stop-color="#fff"/></linearGradient><linearGradient id="x" x1="0.185" y1="-0.258" x2="0.961" y2="1.606" xlink:href="#l"/><clipPath id="z"><rect width="375" height="628"/></clipPath></defs><g id="y" clip-path="url(#z)"><rect width="375" height="628" fill="#fff"/><path d="M1.46,0h3.8V-14.92H1.46Zm21-14.92H18.84v8.74h-.02l-6-8.74H9.18V0H12.8V-8.9h.02L18.86,0h3.6Zm17.82,0H36.36L32.62-4l-3.8-10.92H24.86L30.58,0h4.1ZM42.74,0h9.84V-3.38H46.54v-2.6H52V-9.06H46.54v-2.48h6.04v-3.38H42.74ZM61.1-15.24c-3.44,0-5.5,1.98-5.5,4.6,0,2.78,2.36,3.78,4.1,4.44,1.42.56,2.46.96,2.46,1.84,0,.8-.82,1.38-2.22,1.38a6.919,6.919,0,0,1-4.26-1.6V-1A8.468,8.468,0,0,0,60.34.32c3.52,0,5.68-1.98,5.68-4.8,0-3-2.5-3.96-4.56-4.72-1.38-.54-2.12-.86-2.12-1.56,0-.72.76-1.18,2.02-1.18a7.094,7.094,0,0,1,3.76,1.12v-3.4A8.182,8.182,0,0,0,61.1-15.24ZM72.16,0h3.78V-11.5h4.24v-3.42H67.9v3.42h4.26Zm14.2-9.74h.08L89.3,0h3.2l2.92-9.76h.08L96.54,0h3.62l-2.1-14.92H93.74L91.02-5.76H91l-2.8-9.16H83.76L81.68,0h3.58ZM103.26,0h9.84V-3.38h-6.04v-2.6h5.46V-9.06h-5.46v-2.48h6.04v-3.38h-9.84Zm26.62-14.92h-3.62v8.74h-.02l-6-8.74H116.6V0h3.62V-8.9h.02L126.28,0h3.6ZM136.98,0h3.78V-11.5H145v-3.42H132.72v3.42h4.26Z" transform="translate(32 49)"/><path d="M-714,270l6,6,6-6" transform="translate(895.5 316)" fill="none" stroke="#c1c6c8" stroke-width="2"/><path d="M9.7-16.08H6.5v5.616H1.056v3.048H6.5v5.64H9.7v-5.64h5.616v-3.048H9.7ZM29.3-5.376c0-3.288-2.472-4.392-4.92-5.232-1.536-.528-2.76-1.032-2.76-2.112,0-.912.912-1.656,2.448-1.656a7.449,7.449,0,0,1,4.2,1.416v-3.768a9.541,9.541,0,0,0-3.36-1.032v-1.776h-3.12v1.968a5.052,5.052,0,0,0-4.1,4.848c0,3.168,2.376,4.272,4.8,5.112,1.656.552,2.856,1.08,2.856,2.256s-1.152,1.92-2.832,1.92a6.941,6.941,0,0,1-4.776-2.016v4.032A9.707,9.707,0,0,0,21.792-.048V1.728h3.12V-.216A5.383,5.383,0,0,0,29.3-5.376ZM45.936-7.008H43.08V-17.9H39.7L30.984-6.1V-3.84h8.472V0H43.08V-3.84h2.856Zm-10.944,0v-.024l4.464-6.12v6.144ZM51.6,0h3.84V-18.072h-.288L47.64-15.144v3.864l3.96-1.608Zm7.08,3.216h2.736a16.433,16.433,0,0,0,1.656-6.288V-4.1H59.64v1.32A21.092,21.092,0,0,1,58.68,3.216ZM65.184,0h13.1V-3.5H72.216c3.264-3.528,5.328-6.144,5.328-8.784,0-3.528-2.52-6.024-6.384-6.024a7.87,7.87,0,0,0-4.968,1.7V-12.7a5.891,5.891,0,0,1,4.272-2.016,2.835,2.835,0,0,1,3.048,2.832C73.512-10.08,72.816-8.856,65.184,0ZM87.96-18.312c-4.08,0-7.32,3.6-7.32,9.384,0,5.736,3.24,9.336,7.32,9.336,4.056,0,7.344-3.6,7.344-9.336C95.3-14.712,92.016-18.312,87.96-18.312Zm0,3.6c1.92,0,3.528,2.112,3.528,5.784,0,3.624-1.608,5.736-3.528,5.736S84.528-5.3,84.528-8.928C84.528-12.6,86.04-14.712,87.96-14.712Zm17.112-3.6c-4.08,0-7.32,3.6-7.32,9.384,0,5.736,3.24,9.336,7.32,9.336,4.056,0,7.344-3.6,7.344-9.336C112.416-14.712,109.128-18.312,105.072-18.312Zm0,3.6c1.92,0,3.528,2.112,3.528,5.784,0,3.624-1.608,5.736-3.528,5.736S101.64-5.3,101.64-8.928C101.64-12.6,103.152-14.712,105.072-14.712Z" transform="translate(32 129)" fill="#00629b"/><path d="M3.084,0H4.2V-7.884H7.008V-8.928H.264v1.044h2.82ZM9.96.144A3.22,3.22,0,0,0,13.176-3.24a3.224,3.224,0,0,0-3.216-3.4,3.236,3.236,0,0,0-3.24,3.4A3.225,3.225,0,0,0,9.96.144Zm0-1.032A2.174,2.174,0,0,1,7.836-3.24,2.185,2.185,0,0,1,9.96-5.6,2.183,2.183,0,0,1,12.072-3.24,2.179,2.179,0,0,1,9.96-.888Zm6.1-7.128H15v1.524H14v.96h.972v3.264A2.148,2.148,0,0,0,17.292.084,4.067,4.067,0,0,0,18.06.012v-.96a3.357,3.357,0,0,1-.576.06,1.289,1.289,0,0,1-1.428-1.428V-5.532h1.86v-.96h-1.86Zm5.8,8.16a2.61,2.61,0,0,0,2.316-1.332L24.3,0h.9V-6.492h-.9l-.132,1.2a2.621,2.621,0,0,0-2.316-1.344A3.141,3.141,0,0,0,18.9-3.24,3.144,3.144,0,0,0,21.852.144ZM22.08-.888A2.151,2.151,0,0,1,20.016-3.24,2.155,2.155,0,0,1,22.08-5.6a2.157,2.157,0,0,1,2.052,2.352A2.161,2.161,0,0,1,22.08-.888ZM27.24,0h1.1V-9.6h-1.1ZM39.18-3.372c0-2.136-1.26-3.264-2.8-3.264a3.188,3.188,0,0,0-3.132,3.42A3.125,3.125,0,0,0,36.54.144a3.782,3.782,0,0,0,2.268-.72V-1.668a3.354,3.354,0,0,1-2.184.852A2.213,2.213,0,0,1,34.332-2.88h4.812A2.947,2.947,0,0,0,39.18-3.372Zm-4.848-.336a2.108,2.108,0,0,1,2.04-1.968,1.769,1.769,0,0,1,1.74,1.968ZM43.3.144a2.61,2.61,0,0,0,2.316-1.332L45.744,0h.9V-6.492h-.9l-.132,1.2A2.621,2.621,0,0,0,43.3-6.636a3.141,3.141,0,0,0-2.952,3.4A3.144,3.144,0,0,0,43.3.144Zm.228-1.032A2.151,2.151,0,0,1,41.46-3.24,2.155,2.155,0,0,1,43.524-5.6a2.157,2.157,0,0,1,2.052,2.352A2.161,2.161,0,0,1,43.524-.888ZM48.66,0h1.1V-3.7A1.682,1.682,0,0,1,51.5-5.52a2.793,2.793,0,0,1,.456.048V-6.528a2.325,2.325,0,0,0-.432-.036,2.1,2.1,0,0,0-1.86,1.1h-.012l-.12-1.032H48.66Zm7.512-6.636A2.342,2.342,0,0,0,54.18-5.508h-.036l-.12-.984h-.852V0h1.1V-3.96A1.57,1.57,0,0,1,55.9-5.58c.972,0,1.488.54,1.488,1.68V0h1.1V-4.3A2.18,2.18,0,0,0,56.172-6.636ZM61.008-7.98a.659.659,0,0,0,.684-.672.659.659,0,0,0-.684-.672.659.659,0,0,0-.684.672A.659.659,0,0,0,61.008-7.98ZM60.456,0h1.1V-6.492h-1.1ZM66.6-6.636a2.342,2.342,0,0,0-1.992,1.128h-.036l-.12-.984H63.6V0h1.1V-3.96a1.57,1.57,0,0,1,1.62-1.62c.972,0,1.488.54,1.488,1.68V0h1.1V-4.3A2.18,2.18,0,0,0,66.6-6.636Zm6.792.012A3.107,3.107,0,0,0,70.44-3.36,3.08,3.08,0,0,0,73.392-.108a2.644,2.644,0,0,0,2.232-1.224v.984a2.005,2.005,0,0,1-2.136,1.98,3.543,3.543,0,0,1-2.376-.96V1.86a4.108,4.108,0,0,0,2.424.8A3.032,3.032,0,0,0,76.728-.528V-6.492h-.9L75.7-5.364A2.663,2.663,0,0,0,73.392-6.624Zm.216,1.02A2.083,2.083,0,0,1,75.66-3.4a2.133,2.133,0,0,1-2.052,2.28,2.112,2.112,0,0,1-2.052-2.232A2.119,2.119,0,0,1,73.608-5.6Zm7.176-1.032c-1.44,0-2.34.816-2.34,1.908,0,1.14.948,1.488,2.016,1.812.936.288,1.548.492,1.548,1.116,0,.576-.5.96-1.38.96a3.081,3.081,0,0,1-2.208-.924V-.576a3.588,3.588,0,0,0,2.244.72c1.5,0,2.424-.768,2.424-1.956,0-1.308-1.128-1.632-2.124-1.92-.876-.252-1.44-.468-1.44-1.044,0-.528.456-.876,1.272-.876a3.066,3.066,0,0,1,1.944.672V-6.072A3.4,3.4,0,0,0,80.784-6.636Z" transform="translate(32 157)"/><path d="M.444,0H6.372V-1.056H2.616c2.232-2.436,3.432-3.9,3.432-5.316a2.629,2.629,0,0,0-2.8-2.736,3.585,3.585,0,0,0-2.376.876v1.248a3.1,3.1,0,0,1,2.28-1.068A1.694,1.694,0,0,1,4.92-6.312C4.92-5.268,4.416-4.44.444,0Zm10.68-9.108c-1.848,0-3.336,1.752-3.336,4.656S9.276.18,11.124.18s3.348-1.74,3.348-4.632S12.972-9.108,11.124-9.108Zm0,1.056c1.224,0,2.232,1.32,2.232,3.6S12.348-.876,11.124-.876s-2.208-1.3-2.208-3.576S9.888-8.052,11.124-8.052ZM17.892,0H19V-8.964h-.108L15.672-7.632v1.164l2.22-.948Zm6.4-9.108a3,3,0,0,0-3.072,3.036,2.9,2.9,0,0,0,2.94,2.856,3.655,3.655,0,0,0,.492-.036L22.02,0h1.344l2.724-3.384a4.256,4.256,0,0,0,1.236-2.748A2.917,2.917,0,0,0,24.288-9.108Zm1.236,4.752a2.9,2.9,0,0,1-1.14.24,1.974,1.974,0,0,1-2.052-2,1.929,1.929,0,0,1,1.956-1.968,1.9,1.9,0,0,1,1.932,1.98A2.719,2.719,0,0,1,25.524-4.356ZM27.756,1.6h1.068l4.02-12.108h-1.08ZM33.708,0h5.928V-1.056H35.88c2.232-2.436,3.432-3.9,3.432-5.316a2.629,2.629,0,0,0-2.8-2.736,3.585,3.585,0,0,0-2.376.876v1.248a3.1,3.1,0,0,1,2.28-1.068,1.694,1.694,0,0,1,1.764,1.74C38.184-5.268,37.68-4.44,33.708,0Zm10.68-9.108c-1.848,0-3.336,1.752-3.336,4.656S42.54.18,44.388.18s3.348-1.74,3.348-4.632S46.236-9.108,44.388-9.108Zm0,1.056c1.224,0,2.232,1.32,2.232,3.6S45.612-.876,44.388-.876s-2.208-1.3-2.208-3.576S43.152-8.052,44.388-8.052ZM53.112,0h1.1V-5.532h1.86v-.96H54.2V-7.32c0-.912.444-1.308,1.248-1.308a2.787,2.787,0,0,1,.948.168V-9.48a3.574,3.574,0,0,0-1.08-.18,2.1,2.1,0,0,0-2.208,2.2v.972h-.936v.96h.936Zm4.752-7.98a.659.659,0,0,0,.684-.672.659.659,0,0,0-.684-.672.659.659,0,0,0-.684.672A.659.659,0,0,0,57.864-7.98ZM57.312,0h1.1V-6.492h-1.1Zm6.144-6.636a2.342,2.342,0,0,0-1.992,1.128h-.036l-.12-.984h-.852V0h1.1V-3.96a1.57,1.57,0,0,1,1.62-1.62c.972,0,1.488.54,1.488,1.68V0h1.1V-4.3A2.18,2.18,0,0,0,63.456-6.636ZM70.248.144a2.61,2.61,0,0,0,2.316-1.332L72.7,0h.9V-6.492h-.9l-.132,1.2a2.621,2.621,0,0,0-2.316-1.344A3.141,3.141,0,0,0,67.3-3.24,3.144,3.144,0,0,0,70.248.144Zm.228-1.032A2.151,2.151,0,0,1,68.412-3.24,2.155,2.155,0,0,1,70.476-5.6a2.157,2.157,0,0,1,2.052,2.352A2.161,2.161,0,0,1,70.476-.888Zm8.136-5.748A2.342,2.342,0,0,0,76.62-5.508h-.036l-.12-.984h-.852V0h1.1V-3.96a1.57,1.57,0,0,1,1.62-1.62c.972,0,1.488.54,1.488,1.68V0h1.1V-4.3A2.18,2.18,0,0,0,78.612-6.636Zm4.956,3.384A2.239,2.239,0,0,1,85.788-5.6a2.74,2.74,0,0,1,1.74.552V-6.18a3.325,3.325,0,0,0-1.8-.456,3.261,3.261,0,0,0-3.276,3.384,3.257,3.257,0,0,0,3.276,3.4,3.6,3.6,0,0,0,1.8-.444V-1.416A2.778,2.778,0,0,1,85.8-.888,2.238,2.238,0,0,1,83.568-3.252Zm6.18-4.728a.659.659,0,0,0,.684-.672.659.659,0,0,0-.684-.672.659.659,0,0,0-.684.672A.659.659,0,0,0,89.748-7.98ZM89.2,0h1.1V-6.492H89.2Zm5.676.144a2.61,2.61,0,0,0,2.316-1.332L97.32,0h.9V-6.492h-.9l-.132,1.2a2.621,2.621,0,0,0-2.316-1.344,3.141,3.141,0,0,0-2.952,3.4A3.144,3.144,0,0,0,94.872.144ZM95.1-.888A2.151,2.151,0,0,1,93.036-3.24,2.155,2.155,0,0,1,95.1-5.6a2.157,2.157,0,0,1,2.052,2.352A2.161,2.161,0,0,1,95.1-.888ZM100.26,0h1.1V-9.6h-1.1Zm11.364-6.492h-1.152l-1.788,4.944h-.024l-1.788-4.944h-1.2L108.1-.228,106.98,2.52h1.128Zm6.576,3.12c0-2.136-1.26-3.264-2.8-3.264a3.188,3.188,0,0,0-3.132,3.42A3.125,3.125,0,0,0,115.56.144a3.782,3.782,0,0,0,2.268-.72V-1.668a3.354,3.354,0,0,1-2.184.852,2.213,2.213,0,0,1-2.292-2.064h4.812A2.947,2.947,0,0,0,118.2-3.372Zm-4.848-.336a2.108,2.108,0,0,1,2.04-1.968,1.769,1.769,0,0,1,1.74,1.968ZM122.316.144a2.61,2.61,0,0,0,2.316-1.332L124.764,0h.9V-6.492h-.9l-.132,1.2a2.621,2.621,0,0,0-2.316-1.344,3.141,3.141,0,0,0-2.952,3.4A3.144,3.144,0,0,0,122.316.144Zm.228-1.032A2.151,2.151,0,0,1,120.48-3.24,2.155,2.155,0,0,1,122.544-5.6,2.157,2.157,0,0,1,124.6-3.252,2.161,2.161,0,0,1,122.544-.888ZM127.68,0h1.1V-3.7a1.682,1.682,0,0,1,1.74-1.824,2.793,2.793,0,0,1,.456.048V-6.528a2.325,2.325,0,0,0-.432-.036,2.1,2.1,0,0,0-1.86,1.1h-.012l-.12-1.032h-.876Z" transform="translate(200 157)"/><g transform="translate(-160 -197)"><path d="M-937,658l10-10" transform="translate(1255 -334)" fill="none" stroke="#00629b" stroke-width="3"/><path d="M-897,672h10v10" transform="translate(1215 -358)" fill="none" stroke="#00629b" stroke-width="3"/></g><g transform="translate(296 117)"><path d="M-937,648l10,10" transform="translate(937 -648)" fill="none" stroke="#aa0061" stroke-width="3"/><path d="M-897,682h10V672" transform="translate(897 -672)" fill="none" stroke="#aa0061" stroke-width="3"/></g><path d="M1.512-6.168H8.5V-9.12H1.512Zm21.432.792c0-3.288-2.472-4.392-4.92-5.232-1.536-.528-2.76-1.032-2.76-2.112,0-.912.912-1.656,2.448-1.656a7.449,7.449,0,0,1,4.2,1.416v-3.768a9.541,9.541,0,0,0-3.36-1.032v-1.776h-3.12v1.968a5.052,5.052,0,0,0-4.1,4.848c0,3.168,2.376,4.272,4.8,5.112,1.656.552,2.856,1.08,2.856,2.256s-1.152,1.92-2.832,1.92a6.941,6.941,0,0,1-4.776-2.016v4.032A9.707,9.707,0,0,0,15.432-.048V1.728h3.12V-.216A5.383,5.383,0,0,0,22.944-5.376ZM28.728,0h3.84V-18.072H32.28l-7.512,2.928v3.864l3.96-1.608Zm7.08,3.216h2.736A16.433,16.433,0,0,0,40.2-3.072V-4.1H36.768v1.32A21.092,21.092,0,0,1,35.808,3.216ZM42.312,0h13.1V-3.5H49.344c3.264-3.528,5.328-6.144,5.328-8.784,0-3.528-2.52-6.024-6.384-6.024a7.87,7.87,0,0,0-4.968,1.7V-12.7a5.891,5.891,0,0,1,4.272-2.016A2.835,2.835,0,0,1,50.64-11.88C50.64-10.08,49.944-8.856,42.312,0ZM61.344,0h3.84V-18.072H64.9l-7.512,2.928v3.864l3.96-1.608ZM83.568-7.008H80.712V-17.9H77.328L68.616-6.1V-3.84h8.472V0h3.624V-3.84h2.856Zm-10.944,0v-.024l4.464-6.12v6.144Z" transform="translate(200 129)" fill="#aa0061"/><rect width="375" height="224" transform="translate(0 192)" opacity="0.6" fill="url(#a)"/><path d="M3.312,0H5.256V-3.576l3.3-5.376H6.468L4.356-5.316H4.32L2.184-8.952h-2.2L3.312-3.564Zm8,.168a3.386,3.386,0,0,0,3.492-3.492,3.372,3.372,0,0,0-3.492-3.492A3.386,3.386,0,0,0,7.824-3.324,3.393,3.393,0,0,0,11.316.168Zm0-1.728A1.612,1.612,0,0,1,9.768-3.324a1.612,1.612,0,0,1,1.548-1.764,1.62,1.62,0,0,1,1.56,1.764A1.628,1.628,0,0,1,11.316-1.56ZM18.972.168A2.785,2.785,0,0,0,22.02-2.7V-6.648H20.1v3.936A1.031,1.031,0,0,1,18.972-1.56,1.007,1.007,0,0,1,17.88-2.7V-6.648H15.96V-2.7A2.761,2.761,0,0,0,18.972.168ZM23.532,0h1.92V-3.252a1.485,1.485,0,0,1,1.572-1.68,2.162,2.162,0,0,1,.552.06v-1.8a2.051,2.051,0,0,0-.5-.048,2.035,2.035,0,0,0-1.8,1.068h-.024l-.192-1H23.532Zm8.736-7.56A1.037,1.037,0,0,0,33.312-8.6a1.035,1.035,0,0,0-1.044-1.032A1.03,1.03,0,0,0,31.212-8.6,1.033,1.033,0,0,0,32.268-7.56ZM31.308,0h1.92V-6.648h-1.92Zm7.248-6.816a2.338,2.338,0,0,0-2,1.1h-.036l-.192-.936H34.836V0h1.92V-3.936a1.1,1.1,0,0,1,1.152-1.14c.7,0,1.056.372,1.056,1.188V0h1.92V-4.44A2.17,2.17,0,0,0,38.556-6.816ZM44.04,0h2.04L48.5-6.648H46.548L45.12-2.016h-.036L43.668-6.648H41.616ZM55.224-3.432c0-2.22-1.38-3.384-3.072-3.384A3.323,3.323,0,0,0,48.816-3.3,3.35,3.35,0,0,0,52.5.168a4.562,4.562,0,0,0,2.316-.6V-2a3.863,3.863,0,0,1-2.076.66,2,2,0,0,1-2.088-1.44h4.524A3.565,3.565,0,0,0,55.224-3.432Zm-4.608-.5A1.6,1.6,0,0,1,52.14-5.3,1.253,1.253,0,0,1,53.4-3.936Zm8.328-2.88c-1.716,0-2.712.9-2.712,2.124s.984,1.644,2.04,1.944c.864.24,1.344.372,1.344.78,0,.36-.384.576-1.056.576a3.578,3.578,0,0,1-2.292-.828V-.456a4.378,4.378,0,0,0,2.376.624c1.8,0,2.832-.84,2.832-2.148,0-1.4-1.164-1.776-2.256-2.04-.756-.2-1.14-.348-1.14-.708,0-.324.336-.528.936-.528a3.855,3.855,0,0,1,2.028.588V-6.3A4.183,4.183,0,0,0,58.944-6.816ZM64.92-8.184H63.072v1.536h-.948v1.584h.936v2.508a2.472,2.472,0,0,0,2.712,2.7A4.557,4.557,0,0,0,66.816.036V-1.572a3.756,3.756,0,0,1-.6.06c-.744,0-1.3-.324-1.3-1.164V-5.064H66.7V-6.648H64.92ZM75.276-6.816a2.181,2.181,0,0,0-1.908,1.128,1.924,1.924,0,0,0-1.86-1.128A2.064,2.064,0,0,0,69.66-5.724h-.036l-.192-.924H67.944V0h1.92V-4a.965.965,0,0,1,.96-1.08c.648,0,.888.348.888,1.068V0h1.92V-4.08a.938.938,0,0,1,.972-1c.648,0,.888.348.888,1.068V0h1.92V-4.4C77.412-5.856,76.728-6.816,75.276-6.816ZM85.02-3.432c0-2.22-1.38-3.384-3.072-3.384A3.323,3.323,0,0,0,78.612-3.3,3.35,3.35,0,0,0,82.3.168a4.562,4.562,0,0,0,2.316-.6V-2a3.863,3.863,0,0,1-2.076.66,2,2,0,0,1-2.088-1.44h4.524A3.566,3.566,0,0,0,85.02-3.432Zm-4.608-.5A1.6,1.6,0,0,1,81.936-5.3,1.253,1.253,0,0,1,83.2-3.936Zm9.576-2.88a2.338,2.338,0,0,0-2,1.1h-.036l-.192-.936H86.268V0h1.92V-3.936a1.1,1.1,0,0,1,1.152-1.14c.7,0,1.056.372,1.056,1.188V0h1.92V-4.44A2.17,2.17,0,0,0,89.988-6.816ZM96.1-8.184H94.248v1.536H93.3v1.584h.936v2.508a2.472,2.472,0,0,0,2.712,2.7A4.557,4.557,0,0,0,97.992.036V-1.572a3.756,3.756,0,0,1-.6.06c-.744,0-1.3-.324-1.3-1.164V-5.064h1.776V-6.648H96.1ZM105.228.168a3.386,3.386,0,0,0,3.492-3.492,3.372,3.372,0,0,0-3.492-3.492,3.386,3.386,0,0,0-3.492,3.492A3.393,3.393,0,0,0,105.228.168Zm0-1.728a1.612,1.612,0,0,1-1.548-1.764,1.612,1.612,0,0,1,1.548-1.764,1.62,1.62,0,0,1,1.56,1.764A1.628,1.628,0,0,1,105.228-1.56Zm4.728,4.08h1.92V-.972a2.456,2.456,0,0,0,2.088,1.14c1.56,0,2.94-1.356,2.94-3.492a3.205,3.205,0,0,0-2.976-3.492,2.55,2.55,0,0,0-2.172,1.188l-.192-1.02h-1.608Zm3.432-4.08a1.6,1.6,0,0,1-1.536-1.764A1.6,1.6,0,0,1,113.4-5.088a1.609,1.609,0,0,1,1.56,1.752A1.632,1.632,0,0,1,113.388-1.56Zm6.948-6.624h-1.848v1.536h-.948v1.584h.936v2.508a2.472,2.472,0,0,0,2.712,2.7,4.557,4.557,0,0,0,1.044-.108V-1.572a3.756,3.756,0,0,1-.6.06c-.744,0-1.3-.324-1.3-1.164V-5.064h1.776V-6.648h-1.776Zm4,.624A1.037,1.037,0,0,0,125.376-8.6a1.035,1.035,0,0,0-1.044-1.032A1.03,1.03,0,0,0,123.276-8.6,1.033,1.033,0,0,0,124.332-7.56ZM123.372,0h1.92V-6.648h-1.92Zm6.648.168a3.386,3.386,0,0,0,3.492-3.492,3.372,3.372,0,0,0-3.492-3.492,3.386,3.386,0,0,0-3.492,3.492A3.393,3.393,0,0,0,130.02.168Zm0-1.728a1.612,1.612,0,0,1-1.548-1.764,1.612,1.612,0,0,1,1.548-1.764,1.62,1.62,0,0,1,1.56,1.764A1.628,1.628,0,0,1,130.02-1.56Zm8.448-5.256a2.338,2.338,0,0,0-2,1.1h-.036l-.192-.936h-1.488V0h1.92V-3.936a1.1,1.1,0,0,1,1.152-1.14c.7,0,1.056.372,1.056,1.188V0h1.92V-4.44A2.17,2.17,0,0,0,138.468-6.816Z" transform="translate(32 229)"/><path d="M-6592,10a5.006,5.006,0,0,1-5-5,5.006,5.006,0,0,1,5-5,5,5,0,0,1,5,5A5,5,0,0,1-6592,10Zm0-6.071a.716.716,0,0,0-.713.717V7.5a.707.707,0,0,0,.713.717.716.716,0,0,0,.714-.717V4.645A.708.708,0,0,0-6592,3.929Zm0-2.143a.715.715,0,0,0-.713.714.715.715,0,0,0,.713.714.714.714,0,0,0,.714-.714A.714.714,0,0,0-6592,1.786Z" transform="translate(6717.001 148)" fill="#c1c6c8"/><rect width="166" height="8" rx="4" transform="translate(32 248)" fill="#003865"/><rect width="70" height="8" rx="4" transform="translate(200 248)" fill="#00a7b5"/><rect width="46" height="8" rx="4" transform="translate(272 248)" fill="#007d8a"/><rect width="24" height="8" rx="4" transform="translate(320 248)" fill="#00629b"/><g transform="matrix(1, 0, 0, 1, 0, 0)" filter="url(#b)"><rect width="152" height="112" rx="8" transform="translate(32 280)" fill="#fff"/></g><g transform="matrix(1, 0, 0, 1, 0, 0)" filter="url(#d)"><rect width="152" height="112" rx="8" transform="translate(192 280)" fill="#fff"/></g><path d="M3.346,0H5.614V-8.358H8.666v-2.086H.28v2.086H3.346Zm8.3.2A2.916,2.916,0,0,0,14.2-1.19L14.42,0h1.89V-7.756H14.42L14.2-6.566a2.946,2.946,0,0,0-2.548-1.386C9.9-7.952,8.2-6.328,8.2-3.85A3.763,3.763,0,0,0,11.648.2Zm.658-2.016a1.9,1.9,0,0,1-1.848-2.058,1.91,1.91,0,0,1,1.848-2.058,1.88,1.88,0,0,1,1.806,2.058A1.88,1.88,0,0,1,12.306-1.82Zm8.75-6.132c-2,0-3.164,1.05-3.164,2.478s1.148,1.918,2.38,2.268c1.008.28,1.568.434,1.568.91,0,.42-.448.672-1.232.672a4.175,4.175,0,0,1-2.674-.966V-.532A5.108,5.108,0,0,0,20.706.2c2.1,0,3.3-.98,3.3-2.506,0-1.638-1.358-2.072-2.632-2.38-.882-.238-1.33-.406-1.33-.826,0-.378.392-.616,1.092-.616a4.5,4.5,0,0,1,2.366.686v-1.9A4.88,4.88,0,0,0,21.056-7.952Zm4.4,10.892h2.24V-1.134A2.866,2.866,0,0,0,30.128.2c1.82,0,3.43-1.582,3.43-4.074s-1.666-4.074-3.472-4.074a2.975,2.975,0,0,0-2.534,1.386l-.224-1.19H25.452Zm4-4.76a1.87,1.87,0,0,1-1.792-2.058A1.872,1.872,0,0,1,29.47-5.936a1.877,1.877,0,0,1,1.82,2.044A1.9,1.9,0,0,1,29.456-1.82ZM35.028,0h2.24V-11.242h-2.24Zm7.14.2A2.916,2.916,0,0,0,44.716-1.19L44.94,0h1.89V-7.756H44.94l-.224,1.19a2.946,2.946,0,0,0-2.548-1.386c-1.75,0-3.444,1.624-3.444,4.1A3.763,3.763,0,0,0,42.168.2Zm.658-2.016a1.9,1.9,0,0,1-1.848-2.058,1.91,1.91,0,0,1,1.848-2.058,1.88,1.88,0,0,1,1.806,2.058A1.88,1.88,0,0,1,42.826-1.82ZM53.032-7.952a2.728,2.728,0,0,0-2.338,1.288h-.042l-.224-1.092H48.692V0h2.24V-4.592a1.283,1.283,0,0,1,1.344-1.33c.812,0,1.232.434,1.232,1.386V0h2.24V-5.18A2.531,2.531,0,0,0,53.032-7.952ZM66.052.238a5.277,5.277,0,0,0,5.376-5.46,5.277,5.277,0,0,0-5.376-5.46,5.3,5.3,0,0,0-5.4,5.46A5.283,5.283,0,0,0,66.052.238Zm0-2.086a3.134,3.134,0,0,1-3.094-3.374,3.129,3.129,0,0,1,3.094-3.36,3.125,3.125,0,0,1,3.066,3.36A3.137,3.137,0,0,1,66.052-1.848Zm11.214-6.1a2.728,2.728,0,0,0-2.338,1.288h-.042l-.224-1.092H72.926V0h2.24V-4.592a1.283,1.283,0,0,1,1.344-1.33c.812,0,1.232.434,1.232,1.386V0h2.24V-5.18A2.531,2.531,0,0,0,77.266-7.952ZM83.188,0h2.268V-8.358h3.052v-2.086H80.122v2.086h3.066Zm5.824,0h2.24V-3.794a1.732,1.732,0,0,1,1.834-1.96,2.523,2.523,0,0,1,.644.07v-2.1a2.393,2.393,0,0,0-.588-.056,2.374,2.374,0,0,0-2.1,1.246h-.028L90.79-7.756H89.012Zm8.722.2a2.916,2.916,0,0,0,2.548-1.386L100.506,0h1.89V-7.756h-1.89l-.224,1.19a2.946,2.946,0,0,0-2.548-1.386c-1.75,0-3.444,1.624-3.444,4.1A3.763,3.763,0,0,0,97.734.2Zm.658-2.016a1.9,1.9,0,0,1-1.848-2.058,1.91,1.91,0,0,1,1.848-2.058A1.88,1.88,0,0,1,100.2-3.878,1.88,1.88,0,0,1,98.392-1.82Zm7.7-2.058a2.029,2.029,0,0,1,2.142-2.058,3.4,3.4,0,0,1,1.946.588V-7.406a4.547,4.547,0,0,0-2.282-.546,3.971,3.971,0,0,0-4.074,4.06A3.97,3.97,0,0,0,107.9.2a5.03,5.03,0,0,0,2.282-.532V-2.394a3.224,3.224,0,0,1-1.946.574A2.021,2.021,0,0,1,106.092-3.878ZM119.574,0l-3.122-4.06,3.024-3.7H116.83L114.016-4.2v-7.042h-2.24V0h2.24V-3.752L116.83,0ZM3.6,12.72H3.64L5.894,20H7.84l2.268-7.308h.056L11.046,20H13.23l-1.5-10.444H9.1L6.944,16.542H6.916l-2.2-6.986h-2.7L.518,20h2.17ZM17.724,20.2a2.916,2.916,0,0,0,2.548-1.386L20.5,20h1.89V12.244H20.5l-.224,1.19a2.946,2.946,0,0,0-2.548-1.386c-1.75,0-3.444,1.624-3.444,4.1A3.763,3.763,0,0,0,17.724,20.2Zm.658-2.016a1.9,1.9,0,0,1-1.848-2.058,1.91,1.91,0,0,1,1.848-2.058,1.88,1.88,0,0,1,1.806,2.058A1.88,1.88,0,0,1,18.382,18.18Zm7-7A1.211,1.211,0,1,0,24.15,9.962,1.21,1.21,0,0,0,25.382,11.18ZM24.262,20H26.5V12.244h-2.24Zm8.456-7.952a2.728,2.728,0,0,0-2.338,1.288h-.042l-.224-1.092H28.378V20h2.24V15.408a1.283,1.283,0,0,1,1.344-1.33c.812,0,1.232.434,1.232,1.386V20h2.24V14.82A2.531,2.531,0,0,0,32.718,12.048Zm7.126-1.6H37.688v1.792H36.582v1.848h1.092v2.926a2.884,2.884,0,0,0,3.164,3.15,5.317,5.317,0,0,0,1.218-.126V18.166a4.383,4.383,0,0,1-.7.07c-.868,0-1.512-.378-1.512-1.358V14.092h2.072V12.244H39.844ZM46.368,20.2a2.916,2.916,0,0,0,2.548-1.386L49.14,20h1.89V12.244H49.14l-.224,1.19a2.946,2.946,0,0,0-2.548-1.386c-1.75,0-3.444,1.624-3.444,4.1A3.763,3.763,0,0,0,46.368,20.2Zm.658-2.016a1.9,1.9,0,0,1-1.848-2.058,1.91,1.91,0,0,1,1.848-2.058,1.88,1.88,0,0,1,1.806,2.058A1.88,1.88,0,0,1,47.026,18.18Zm7-7a1.211,1.211,0,1,0-1.232-1.218A1.21,1.21,0,0,0,54.026,11.18ZM52.906,20h2.24V12.244h-2.24Zm8.456-7.952a2.728,2.728,0,0,0-2.338,1.288h-.042l-.224-1.092H57.022V20h2.24V15.408a1.283,1.283,0,0,1,1.344-1.33c.812,0,1.232.434,1.232,1.386V20h2.24V14.82A2.531,2.531,0,0,0,61.362,12.048Z" transform="translate(48 311)"/><path d="M4.452-10.668c-2.254,0-3.7,1.3-3.7,3.122C.756-5.684,2.3-5,3.584-4.466c1.134.462,1.862.8,1.862,1.5s-.686,1.19-1.722,1.19A4.623,4.623,0,0,1,.784-2.926V-.714A5.512,5.512,0,0,0,3.948.224c2.31,0,3.836-1.316,3.836-3.276C7.784-5.04,6.16-5.7,4.676-6.286,3.584-6.734,3.01-7.014,3.01-7.63c0-.658.644-1.022,1.568-1.022a4.789,4.789,0,0,1,2.59.8v-2.1A5.486,5.486,0,0,0,4.452-10.668ZM12.684.2A3.249,3.249,0,0,0,16.24-3.15V-7.756H14v4.592A1.2,1.2,0,0,1,12.684-1.82,1.175,1.175,0,0,1,11.41-3.15V-7.756H9.17V-3.15A3.222,3.222,0,0,0,12.684.2Zm8.2-8.148c-2,0-3.164,1.05-3.164,2.478s1.148,1.918,2.38,2.268c1.008.28,1.568.434,1.568.91,0,.42-.448.672-1.232.672a4.175,4.175,0,0,1-2.674-.966V-.532A5.108,5.108,0,0,0,20.538.2c2.1,0,3.3-.98,3.3-2.506,0-1.638-1.358-2.072-2.632-2.38-.882-.238-1.33-.406-1.33-.826,0-.378.392-.616,1.092-.616a4.5,4.5,0,0,1,2.366.686v-1.9A4.88,4.88,0,0,0,20.888-7.952Zm6.972-1.6H25.7v1.792H24.6v1.848H25.69v2.926A2.884,2.884,0,0,0,28.854.168,5.317,5.317,0,0,0,30.072.042V-1.834a4.383,4.383,0,0,1-.7.07c-.868,0-1.512-.378-1.512-1.358V-5.908h2.072V-7.756H27.86ZM34.384.2A2.916,2.916,0,0,0,36.932-1.19L37.156,0h1.89V-7.756h-1.89l-.224,1.19a2.946,2.946,0,0,0-2.548-1.386c-1.75,0-3.444,1.624-3.444,4.1A3.763,3.763,0,0,0,34.384.2Zm.658-2.016a1.9,1.9,0,0,1-1.848-2.058,1.91,1.91,0,0,1,1.848-2.058,1.88,1.88,0,0,1,1.806,2.058A1.88,1.88,0,0,1,35.042-1.82Zm7-7a1.21,1.21,0,0,0,1.218-1.218,1.207,1.207,0,0,0-1.218-1.2,1.2,1.2,0,0,0-1.232,1.2A1.2,1.2,0,0,0,42.042-8.82ZM40.922,0h2.24V-7.756h-2.24Zm8.456-7.952A2.728,2.728,0,0,0,47.04-6.664H47l-.224-1.092H45.038V0h2.24V-4.592a1.283,1.283,0,0,1,1.344-1.33c.812,0,1.232.434,1.232,1.386V0h2.24V-5.18A2.531,2.531,0,0,0,49.378-7.952ZM56.924.2A2.916,2.916,0,0,0,59.472-1.19L59.7,0h1.89V-7.756H59.7l-.224,1.19a2.946,2.946,0,0,0-2.548-1.386c-1.75,0-3.444,1.624-3.444,4.1A3.763,3.763,0,0,0,56.924.2Zm.658-2.016a1.9,1.9,0,0,1-1.848-2.058,1.91,1.91,0,0,1,1.848-2.058,1.88,1.88,0,0,1,1.806,2.058A1.88,1.88,0,0,1,57.582-1.82Zm8.106-9.422h-2.24V0h1.876l.224-1.19A2.92,2.92,0,0,0,68.068.2c1.806,0,3.486-1.6,3.486-4.074s-1.6-4.074-3.4-4.074a2.914,2.914,0,0,0-2.464,1.33Zm1.764,5.306a1.9,1.9,0,0,1,1.834,2.072,1.877,1.877,0,0,1-1.82,2.044A1.864,1.864,0,0,1,65.66-3.878,1.87,1.87,0,0,1,67.452-5.936ZM73.024,0h2.24V-11.242h-2.24ZM84.2-4c0-2.59-1.61-3.948-3.584-3.948a3.877,3.877,0,0,0-3.892,4.1C76.72-1.5,78.288.2,81.018.2a5.323,5.323,0,0,0,2.7-.7V-2.338a4.507,4.507,0,0,1-2.422.77,2.332,2.332,0,0,1-2.436-1.68H84.14A4.159,4.159,0,0,0,84.2-4ZM78.82-4.592a1.866,1.866,0,0,1,1.778-1.6,1.462,1.462,0,0,1,1.47,1.6Z" transform="translate(208 311)"/><path d="M4.48-6.678a3.591,3.591,0,0,0-.7.07l3.052-3.808H5.278L2.17-6.538A5,5,0,0,0,.714-3.3,3.487,3.487,0,0,0,4.326.21,3.48,3.48,0,0,0,7.938-3.346,3.418,3.418,0,0,0,4.48-6.678ZM4.326-.98A2.33,2.33,0,0,1,1.988-3.3,3.1,3.1,0,0,1,2.772-5.32a3.107,3.107,0,0,1,1.316-.294A2.368,2.368,0,0,1,6.65-3.276,2.3,2.3,0,0,1,4.326-.98Zm9.016-9.646c-2.156,0-3.892,2.044-3.892,5.432S11.186.21,13.342.21s3.906-2.03,3.906-5.4S15.5-10.626,13.342-10.626Zm0,1.232c1.428,0,2.6,1.54,2.6,4.2s-1.176,4.172-2.6,4.172-2.576-1.512-2.576-4.172S11.9-9.394,13.342-9.394ZM19.516.07A.855.855,0,0,0,20.384-.8a.858.858,0,0,0-.868-.882.85.85,0,0,0-.868.882A.846.846,0,0,0,19.516.07Zm6.174-10.7c-2.156,0-3.892,2.044-3.892,5.432S23.534.21,25.69.21,29.6-1.82,29.6-5.194,27.846-10.626,25.69-10.626Zm0,1.232c1.428,0,2.6,1.54,2.6,4.2s-1.176,4.172-2.6,4.172-2.576-1.512-2.576-4.172S24.248-9.394,25.69-9.394ZM33.628-5.32a2.53,2.53,0,0,0,2.534-2.66,2.518,2.518,0,0,0-2.534-2.646A2.543,2.543,0,0,0,31.052-7.98,2.547,2.547,0,0,0,33.628-5.32ZM32.62,0h1.246l6.846-10.416H39.48Zm1.008-6.286a1.584,1.584,0,0,1-1.54-1.694,1.563,1.563,0,0,1,1.54-1.68A1.559,1.559,0,0,1,35.14-7.98,1.58,1.58,0,0,1,33.628-6.286Zm6.1,6.5A2.529,2.529,0,0,0,42.28-2.436,2.525,2.525,0,0,0,39.732-5.1a2.536,2.536,0,0,0-2.562,2.66A2.532,2.532,0,0,0,39.732.21Zm0-.966a1.569,1.569,0,0,1-1.526-1.68A1.574,1.574,0,0,1,39.732-4.13a1.574,1.574,0,0,1,1.526,1.694A1.569,1.569,0,0,1,39.732-.756Z" transform="translate(72 375)"/><path d="M.518,0H7.434V-1.232H3.052c2.6-2.842,4-4.55,4-6.2a3.067,3.067,0,0,0-3.262-3.192A4.182,4.182,0,0,0,1.022-9.6v1.456a3.621,3.621,0,0,1,2.66-1.246A1.976,1.976,0,0,1,5.74-7.364C5.74-6.146,5.152-5.18.518,0Zm11.9-10.626A3.5,3.5,0,0,0,8.834-7.084a3.381,3.381,0,0,0,3.43,3.332,4.264,4.264,0,0,0,.574-.042L9.772,0H11.34l3.178-3.948A4.965,4.965,0,0,0,15.96-7.154,3.4,3.4,0,0,0,12.418-10.626ZM13.86-5.082a3.383,3.383,0,0,1-1.33.28A2.3,2.3,0,0,1,10.136-7.14a2.25,2.25,0,0,1,2.282-2.3,2.222,2.222,0,0,1,2.254,2.31A3.173,3.173,0,0,1,13.86-5.082ZM17.332.07A.855.855,0,0,0,18.2-.8a.858.858,0,0,0-.868-.882.85.85,0,0,0-.868.882A.846.846,0,0,0,17.332.07Zm2.9-9.758V-8.3a3.227,3.227,0,0,1,2.422-1.106,1.781,1.781,0,0,1,2,1.736c0,1.05-.784,1.792-2.366,1.792H21.28v1.106h1.3c1.512,0,2.408.77,2.408,1.862s-.882,1.89-2.3,1.89A3.561,3.561,0,0,1,19.95-2.3V-.84A4.141,4.141,0,0,0,22.806.182c2.268,0,3.486-1.442,3.486-2.982a2.7,2.7,0,0,0-1.9-2.618v-.028A2.535,2.535,0,0,0,25.942-7.84a2.893,2.893,0,0,0-3.15-2.786A3.737,3.737,0,0,0,20.23-9.688ZM30.324-5.32a2.53,2.53,0,0,0,2.534-2.66,2.518,2.518,0,0,0-2.534-2.646A2.543,2.543,0,0,0,27.748-7.98,2.547,2.547,0,0,0,30.324-5.32ZM29.316,0h1.246l6.846-10.416H36.176Zm1.008-6.286a1.584,1.584,0,0,1-1.54-1.694,1.563,1.563,0,0,1,1.54-1.68,1.559,1.559,0,0,1,1.512,1.68A1.58,1.58,0,0,1,30.324-6.286Zm6.1,6.5a2.529,2.529,0,0,0,2.548-2.646A2.525,2.525,0,0,0,36.428-5.1a2.536,2.536,0,0,0-2.562,2.66A2.532,2.532,0,0,0,36.428.21Zm0-.966A1.569,1.569,0,0,1,34.9-2.436,1.574,1.574,0,0,1,36.428-4.13a1.574,1.574,0,0,1,1.526,1.694A1.569,1.569,0,0,1,36.428-.756Z" transform="translate(232 375)"/><rect width="12" height="12" rx="6" transform="translate(48 364)" fill="#00629b"/><rect width="12" height="12" rx="6" transform="translate(208 364)" fill="#00a7b5"/><path d="M-6591,12a6.007,6.007,0,0,1-6-6,6.007,6.007,0,0,1,6-6,6.006,6.006,0,0,1,6,6A6.006,6.006,0,0,1-6591,12Zm0-7.286a.859.859,0,0,0-.856.86V9a.849.849,0,0,0,.856.86.859.859,0,0,0,.857-.86V5.574A.849.849,0,0,0-6591,4.714Zm0-2.571a.858.858,0,0,0-.856.857.858.858,0,0,0,.856.857.858.858,0,0,0,.857-.857A.858.858,0,0,0-6591,2.143Z" transform="translate(6753.001 364)" fill="#c1c6c8"/><path d="M-6591,12a6.007,6.007,0,0,1-6-6,6.007,6.007,0,0,1,6-6,6.006,6.006,0,0,1,6,6A6.006,6.006,0,0,1-6591,12Zm0-7.286a.859.859,0,0,0-.856.86V9a.849.849,0,0,0,.856.86.859.859,0,0,0,.857-.86V5.574A.849.849,0,0,0-6591,4.714Zm0-2.571a.858.858,0,0,0-.856.857.858.858,0,0,0,.856.857.858.858,0,0,0,.857-.857A.858.858,0,0,0-6591,2.143Z" transform="translate(6913.001 364)" fill="#c1c6c8"/><g transform="matrix(1, 0, 0, 1, 0, 0)" filter="url(#f)"><rect width="152" height="112" rx="8" transform="translate(352 280)" fill="#fff"/></g><path d="M10.556,0,6.594-10.444H3.962L.056,0h2.38l.9-2.548H7.238L8.162,0ZM5.278-8.064l1.316,3.64H3.962ZM14.84.2A3.249,3.249,0,0,0,18.4-3.15V-7.756h-2.24v4.592A1.2,1.2,0,0,1,14.84-1.82a1.175,1.175,0,0,1-1.274-1.33V-7.756h-2.24V-3.15A3.222,3.222,0,0,0,14.84.2Zm8.2-8.148c-2,0-3.164,1.05-3.164,2.478s1.148,1.918,2.38,2.268c1.008.28,1.568.434,1.568.91,0,.42-.448.672-1.232.672a4.175,4.175,0,0,1-2.674-.966V-.532A5.108,5.108,0,0,0,22.694.2c2.1,0,3.3-.98,3.3-2.506,0-1.638-1.358-2.072-2.632-2.38-.882-.238-1.33-.406-1.33-.826,0-.378.392-.616,1.092-.616a4.5,4.5,0,0,1,2.366.686v-1.9A4.88,4.88,0,0,0,23.044-7.952Zm6.972-1.6H27.86v1.792H26.754v1.848h1.092v2.926A2.884,2.884,0,0,0,31.01.168,5.317,5.317,0,0,0,32.228.042V-1.834a4.382,4.382,0,0,1-.7.07c-.868,0-1.512-.378-1.512-1.358V-5.908h2.072V-7.756H30.016ZM33.544,0h2.24V-3.794a1.732,1.732,0,0,1,1.834-1.96,2.523,2.523,0,0,1,.644.07v-2.1a2.393,2.393,0,0,0-.588-.056,2.374,2.374,0,0,0-2.1,1.246h-.028l-.224-1.162H33.544Zm8.722.2A2.916,2.916,0,0,0,44.814-1.19L45.038,0h1.89V-7.756h-1.89l-.224,1.19a2.946,2.946,0,0,0-2.548-1.386c-1.75,0-3.444,1.624-3.444,4.1A3.763,3.763,0,0,0,42.266.2Zm.658-2.016a1.9,1.9,0,0,1-1.848-2.058,1.91,1.91,0,0,1,1.848-2.058A1.88,1.88,0,0,1,44.73-3.878,1.88,1.88,0,0,1,42.924-1.82ZM48.8,0h2.24V-11.242H48.8Zm5.25-8.82a1.21,1.21,0,0,0,1.218-1.218,1.207,1.207,0,0,0-1.218-1.2,1.2,1.2,0,0,0-1.232,1.2A1.2,1.2,0,0,0,54.054-8.82ZM52.934,0h2.24V-7.756h-2.24Zm7.14.2A2.916,2.916,0,0,0,62.622-1.19L62.846,0h1.89V-7.756h-1.89l-.224,1.19a2.946,2.946,0,0,0-2.548-1.386c-1.75,0-3.444,1.624-3.444,4.1A3.763,3.763,0,0,0,60.074.2Zm.658-2.016a1.9,1.9,0,0,1-1.848-2.058,1.91,1.91,0,0,1,1.848-2.058,1.88,1.88,0,0,1,1.806,2.058A1.88,1.88,0,0,1,60.732-1.82ZM70.938-7.952A2.728,2.728,0,0,0,68.6-6.664h-.042l-.224-1.092H66.6V0h2.24V-4.592a1.283,1.283,0,0,1,1.344-1.33c.812,0,1.232.434,1.232,1.386V0h2.24V-5.18A2.531,2.531,0,0,0,70.938-7.952Zm-67.116,20c-2,0-3.164,1.05-3.164,2.478s1.148,1.918,2.38,2.268c1.008.28,1.568.434,1.568.91,0,.42-.448.672-1.232.672A4.175,4.175,0,0,1,.7,17.41v2.058a5.108,5.108,0,0,0,2.772.728c2.1,0,3.3-.98,3.3-2.506,0-1.638-1.358-2.072-2.632-2.38-.882-.238-1.33-.406-1.33-.826,0-.378.392-.616,1.092-.616a4.5,4.5,0,0,1,2.366.686v-1.9A4.88,4.88,0,0,0,3.822,12.048Zm6.636-3.29H8.218V20h2.24V15.366a1.253,1.253,0,0,1,1.344-1.3c.826,0,1.232.434,1.232,1.386V20h2.24V14.82a2.528,2.528,0,0,0-2.73-2.772A2.657,2.657,0,0,0,10.472,13h-.014ZM20.1,20.2a2.916,2.916,0,0,0,2.548-1.386L22.876,20h1.89V12.244h-1.89l-.224,1.19A2.946,2.946,0,0,0,20.1,12.048c-1.75,0-3.444,1.624-3.444,4.1A3.763,3.763,0,0,0,20.1,20.2Zm.658-2.016a1.9,1.9,0,0,1-1.848-2.058,1.91,1.91,0,0,1,1.848-2.058,1.88,1.88,0,0,1,1.806,2.058A1.88,1.88,0,0,1,20.762,18.18ZM26.628,20h2.24V16.206a1.732,1.732,0,0,1,1.834-1.96,2.523,2.523,0,0,1,.644.07v-2.1a2.493,2.493,0,0,0-2.688,1.19H28.63l-.224-1.162H26.628Zm12.754-4c0-2.59-1.61-3.948-3.584-3.948a3.877,3.877,0,0,0-3.892,4.1c0,2.352,1.568,4.046,4.3,4.046a5.323,5.323,0,0,0,2.7-.7V17.662a4.507,4.507,0,0,1-2.422.77,2.332,2.332,0,0,1-2.436-1.68h5.278A4.16,4.16,0,0,0,39.382,16Zm-5.376-.588a1.866,1.866,0,0,1,1.778-1.6,1.462,1.462,0,0,1,1.47,1.6Zm9.716-3.36c-2,0-3.164,1.05-3.164,2.478s1.148,1.918,2.38,2.268c1.008.28,1.568.434,1.568.91,0,.42-.448.672-1.232.672A4.175,4.175,0,0,1,40.6,17.41v2.058a5.108,5.108,0,0,0,2.772.728c2.1,0,3.3-.98,3.3-2.506,0-1.638-1.358-2.072-2.632-2.38-.882-.238-1.33-.406-1.33-.826,0-.378.392-.616,1.092-.616a4.5,4.5,0,0,1,2.366.686v-1.9A4.88,4.88,0,0,0,43.722,12.048Z" transform="translate(368 311)"/><rect width="12" height="12" rx="6" transform="translate(368 364)" fill="#107d8a"/><g transform="translate(0 16)"><path d="M-1056-586l8-7.568V-674a16,16,0,0,1,16-16h256a16,16,0,0,1,16,16v72a16,16,0,0,1-16,16h-280Z" transform="translate(1104 1121.999)" fill="url(#h)"/><g transform="translate(-8 26.999)"><g transform="matrix(1, 0, 0, 1, 8, -43)" filter="url(#i)"><circle cx="16" cy="16" r="16" transform="translate(32 464)" fill="#9bcbeb"/></g><g transform="translate(40 421)" clip-path="url(#k)"><g transform="translate(1.337 4.284)"><path d="M187.825,265.873a1.527,1.527,0,0,1,.06,1.218,1.554,1.554,0,0,1-.529.5l-1.916,1.3a2.575,2.575,0,0,1-1.2.54.887.887,0,0,1-.98-.694c-.044-.51.49-.858.74-1.305a2.67,2.67,0,0,0-.024-1.962,35.924,35.924,0,0,1-.941-4.979c.393-.161,1.537-.882,1.944-.762.458.139.872,1.42,1.076,1.838A33.288,33.288,0,0,1,187.825,265.873Z" transform="translate(-163.941 -233.218)" fill="#f1af8c"/><path d="M199.424,206.471a20.24,20.24,0,0,0,1.822,4.1.2.2,0,0,1,.043.129.2.2,0,0,1-.078.108,5.6,5.6,0,0,1-2.72,1.584.333.333,0,0,1-.205-.018.339.339,0,0,1-.128-.176,12.056,12.056,0,0,1-.887-4.947,20.363,20.363,0,0,1,.2-2.516c.028-.2.043-1.1.219-1.208.268-.158.562.394.679.568A10.289,10.289,0,0,1,199.424,206.471Z" transform="translate(-179.215 -184.806)" fill="#fff"/><path d="M205.78,205.54s.626.235,1.136,2,1.726,6.037,1.726,6.037-1.881.94-2.352.587S205.78,205.54,205.78,205.54Z" transform="translate(-187.749 -186.566)" fill="url(#l)"/><path d="M213.956,192.407a10.077,10.077,0,0,0-3.048.3,5.05,5.05,0,0,0-2.57,1.6,5.54,5.54,0,0,0-1.1,3.163,20.789,20.789,0,0,0,.192,3.4,53.867,53.867,0,0,1,.211,7.962c-.031.636-.394,3.956.053,4.41.278.286-.278.572.118.666a24.005,24.005,0,0,0,12.11-.9,3.667,3.667,0,0,0,1.944-1.542c.417-.815-.708-4.046-.843-4.952q-.612-4.15-.883-8.344a27.268,27.268,0,0,0-.242-3.785c-.185-.882-.752-1.122-1.572-1.338A19.777,19.777,0,0,0,213.956,192.407Z" transform="translate(-201.262 -175.249)" fill="#fff"/><path d="M228.14,231.913a3.163,3.163,0,0,0,.632,1.574,2.716,2.716,0,0,0,1.086.664c1.93.728,4.13.614,5.98,1.527a1.29,1.29,0,0,1,.355.232,1.125,1.125,0,0,1-.026,1.388,4.165,4.165,0,0,1-2.956,1.349,25.5,25.5,0,0,1-7.993.33.733.733,0,0,1-.4-.151.719.719,0,0,1-.168-.375c-.6-2.663-.128-5.436-.117-8.165,0-1.574-.139-3.15-.032-4.721a9.579,9.579,0,0,1,.6-2.856c.246-.622.965-2,1.4-.721a30.831,30.831,0,0,1,1.13,6.321C227.769,229.515,227.913,230.72,228.14,231.913Z" transform="translate(-218.107 -200.28)" fill="url(#m)"/><path d="M245.981,170.381c.46-.074.718-.536.512-1.649-.022-.124-.051-.243-.085-.362a.3.3,0,0,0-.018-.067c-.05-.172-.107-.344-.162-.515a3.758,3.758,0,0,1-.242-1.281,2.3,2.3,0,0,0-.08-.945,1.547,1.547,0,0,0-.515-.623c-.5-.382-1.944-1.1-2.221-.151a4.333,4.333,0,0,0-.028,1.293,3.888,3.888,0,0,1-.319,1.734C242.52,168.421,244.852,170.562,245.981,170.381Z" transform="translate(-230.811 -151.065)" fill="#f1af8c"/><path d="M247.7,176.149s-2.56-.972-3.054-2.509l2.728.893S247.443,175.939,247.7,176.149Z" transform="translate(-232.209 -159.095)" fill="url(#n)"/><path d="M299.865,206.337a17.2,17.2,0,0,1-1.4,8.5.632.632,0,0,1-.171.257.694.694,0,0,1-.417.1,5.11,5.11,0,0,1-3.174-1.019,1.216,1.216,0,0,1-.562-.8,1.308,1.308,0,0,1,.1-.51,56.424,56.424,0,0,1,2.478-6.041,3.438,3.438,0,0,1,1.666-1.9C299.406,204.534,299.794,205.576,299.865,206.337Z" transform="translate(-291.31 -185.959)" fill="#fff"/><path d="M250.925,192.638a13.993,13.993,0,0,1-1.866-2.725,4.5,4.5,0,0,1-.725-1.865.372.372,0,0,1,.035-.224.4.4,0,0,1,.128-.118l1.043-.707a2.1,2.1,0,0,0,1,1.558c.555.394,2.145.826,1.8,1.644A17.094,17.094,0,0,1,250.925,192.638Z" transform="translate(-237.409 -170.6)" fill="#00629b"/><path d="M233.893,191.862a18.308,18.308,0,0,0,1.043,1.792,1.354,1.354,0,0,0,.555.555.153.153,0,0,0,.1.014c.061-.021.075-.1.079-.165a10.931,10.931,0,0,0-.16-3.193,2.945,2.945,0,0,0-.45-1.029,2.85,2.85,0,0,0-.927-.576c.056.171.112.343.162.515a.168.168,0,0,1,.017.051v.015c.033.119.062.239.085.362C234.607,191.326,234.349,191.788,233.893,191.862Z" transform="translate(-218.724 -172.546)" fill="#00629b"/><path d="M250.925,192.638a13.993,13.993,0,0,1-1.866-2.725,4.5,4.5,0,0,1-.725-1.865.372.372,0,0,1,.035-.224.4.4,0,0,1,.128-.118l1.043-.707a2.1,2.1,0,0,0,1,1.558c.555.394,2.145.826,1.8,1.644A17.094,17.094,0,0,1,250.925,192.638Z" transform="translate(-237.409 -170.6)" fill="url(#o)"/><path d="M233.893,191.862a18.308,18.308,0,0,0,1.043,1.792,1.354,1.354,0,0,0,.555.555.153.153,0,0,0,.1.014c.061-.021.075-.1.079-.165a10.931,10.931,0,0,0-.16-3.193,2.945,2.945,0,0,0-.45-1.029,2.85,2.85,0,0,0-.927-.576c.056.171.112.343.162.515a.168.168,0,0,1,.017.051v.015c.033.119.062.239.085.362C234.607,191.326,234.349,191.788,233.893,191.862Z" transform="translate(-218.724 -172.546)" fill="url(#p)"/><path d="M252.273,278.994l-6.081-1.162a2.19,2.19,0,0,1-1.019-.375,1.524,1.524,0,0,1-.471-1.362,4.474,4.474,0,0,1,.5-1.413,46.129,46.129,0,0,1,2.627-4.811,7.683,7.683,0,0,1,2.857.821,1.045,1.045,0,0,1,.386.36c.365.694-.633,1.708-.972,2.235a1.308,1.308,0,0,0-.253.576.95.95,0,0,0,.081.432c.329.808,1.5,1.279,2.221,1.694a7.48,7.48,0,0,0,3.093,1.039,18.274,18.274,0,0,1,2.548.153,3.65,3.65,0,0,1,2.392,1.866,2.21,2.21,0,0,1-1.706-.011,9.986,9.986,0,0,0-3.228-.26C254.543,278.835,252.606,279.648,252.273,278.994Z" transform="translate(-244.69 -241.958)" fill="#f1af8c"/><path d="M236.222,70.622a4.243,4.243,0,0,0-1.3-.584,1.608,1.608,0,0,0-1.429.319,2.974,2.974,0,0,1,2.123,1.12.207.207,0,0,0,.107.092.2.2,0,0,0,.112-.021c.192-.072,1.627.255,1.71.082C237.539,71.63,236.4,70.729,236.222,70.622Z" transform="translate(-220.498 -69.843)" fill="#00629b"/><path d="M236.222,70.622a4.243,4.243,0,0,0-1.3-.584,1.608,1.608,0,0,0-1.429.319,2.974,2.974,0,0,1,2.123,1.12.207.207,0,0,0,.107.092.2.2,0,0,0,.112-.021c.192-.072,1.627.255,1.71.082C237.539,71.63,236.4,70.729,236.222,70.622Z" transform="translate(-220.498 -69.843)" fill="url(#q)"/><ellipse cx="1.686" cy="2.077" rx="1.686" ry="2.077" transform="translate(17.142 7.213)" fill="#00629b"/><ellipse cx="1.559" cy="1.922" rx="1.559" ry="1.922" transform="translate(16.923 7.602)" fill="#00629b"/><ellipse cx="1.559" cy="1.922" rx="1.559" ry="1.922" transform="translate(16.923 7.602)" fill="url(#r)"/><path d="M227.637,96.19l-.39,7.138a2.873,2.873,0,0,1-2.843,2.72,4.345,4.345,0,0,1-4.671-3.252c-.487-1.419-.927-5.587,0-6.739S225.879,92.068,227.637,96.19Z" transform="translate(-208.606 -90.537)" fill="#f1af8c"/><path d="M216.858,78.716a3.56,3.56,0,0,1,3.268,1.752,2.055,2.055,0,0,1,.039,1.767.742.742,0,0,0-.108.561,1.47,1.47,0,0,1-.6,1.25,3.441,3.441,0,0,0-.665.467l.068-1.329a.278.278,0,0,0-.211-.33l-.846-.394s-.261.19-.293.205a1.063,1.063,0,0,1-.444.085,6.246,6.246,0,0,1-.991-.056,9.365,9.365,0,0,1-2.051-.619.933.933,0,0,0,.253.547l-2.156.417a5.859,5.859,0,0,0-.757,1.413,4.926,4.926,0,0,0-.292,1.223,4.42,4.42,0,0,0,.157,1.692,1.775,1.775,0,0,1-.38-.4,2.184,2.184,0,0,1-.639.3.278.278,0,0,1-.149.013c-.106-.029-.128-.154-.139-.254a11.378,11.378,0,0,0-1.058-2.507,3.771,3.771,0,0,1,.383-3.16,2.547,2.547,0,0,1,.671-.783c.993-.728,2.4-.394,3.536-.775.539-.18.972-.523,1.487-.75A5.343,5.343,0,0,1,216.858,78.716Z" transform="translate(-199.856 -77.349)" fill="#3f3d56"/><path d="M216.858,78.716a3.56,3.56,0,0,1,3.268,1.752,2.055,2.055,0,0,1,.039,1.767.742.742,0,0,0-.108.561,1.47,1.47,0,0,1-.6,1.25,3.441,3.441,0,0,0-.665.467l.068-1.329a.278.278,0,0,0-.211-.33l-.846-.394s-.261.19-.293.205a1.063,1.063,0,0,1-.444.085,6.246,6.246,0,0,1-.991-.056,9.365,9.365,0,0,1-2.051-.619.933.933,0,0,0,.253.547l-2.156.417a5.859,5.859,0,0,0-.757,1.413,4.926,4.926,0,0,0-.292,1.223,4.42,4.42,0,0,0,.157,1.692,1.775,1.775,0,0,1-.38-.4,2.184,2.184,0,0,1-.639.3.278.278,0,0,1-.149.013c-.106-.029-.128-.154-.139-.254a11.378,11.378,0,0,0-1.058-2.507,3.771,3.771,0,0,1,.383-3.16,2.547,2.547,0,0,1,.671-.783c.993-.728,2.4-.394,3.536-.775.539-.18.972-.523,1.487-.75A5.343,5.343,0,0,1,216.858,78.716Z" transform="translate(-199.856 -77.349)" fill="url(#s)"/><ellipse cx="1.667" cy="2.056" rx="1.667" ry="2.056" transform="translate(7.876 7.49)" fill="#00629b"/><ellipse cx="1.667" cy="2.056" rx="1.667" ry="2.056" transform="translate(7.876 7.49)" fill="url(#t)"/><ellipse cx="1.667" cy="2.056" rx="1.667" ry="2.056" transform="translate(7.238 7.49)" fill="#00629b"/><path d="M249.75,76.529l.833.089.2.021.833-4.1a4.766,4.766,0,0,1,2.821-3.352,1.5,1.5,0,0,1,.641-.076l.568.051-.278-.074-.555-.147a1.829,1.829,0,0,0-.533-.065,3.929,3.929,0,0,0-3.4,2.963Z" transform="translate(-240.857 -68.876)" fill="#00629b"/><path d="M249.75,76.529l.833.089.2.021.833-4.1a4.766,4.766,0,0,1,2.821-3.352,1.5,1.5,0,0,1,.641-.076l.568.051-.278-.074-.555-.147a1.829,1.829,0,0,0-.533-.065,3.929,3.929,0,0,0-3.4,2.963Z" transform="translate(-240.857 -68.876)" fill="url(#u)"/><path d="M251.75,76.529l.833.089.833-4.11a4.816,4.816,0,0,1,2.85-3.382,1.465,1.465,0,0,1,.648-.078l.453.04-.555-.147a1.828,1.828,0,0,0-.533-.065,3.929,3.929,0,0,0-3.4,2.963Z" transform="translate(-242.857 -68.876)" fill="#00629b"/><path d="M214.792,101.417a1.766,1.766,0,0,0-1.316-.862,5.241,5.241,0,0,0-1.624.075c.521.417,1.974,1.037,2,1.148a3.384,3.384,0,0,1,.007.591c-.019.286-.029.586-.028.872a2.222,2.222,0,0,1,.447-.339,1.111,1.111,0,0,0,.375-.24A1.154,1.154,0,0,0,214.792,101.417Z" transform="translate(-194.864 -96.124)" fill="url(#v)"/><path d="M251.868,152.128a6.47,6.47,0,0,0,1.847-.308.278.278,0,0,0-.16-.533c-1.43.43-2.506.373-3.193-.169a2.823,2.823,0,0,1-.875-2.148.278.278,0,1,0-.555-.028,3.368,3.368,0,0,0,1.087,2.614A2.9,2.9,0,0,0,251.868,152.128Z" transform="translate(-239.011 -137.598)" fill="#00629b"/><path d="M251.868,152.128a6.47,6.47,0,0,0,1.847-.308.278.278,0,0,0-.16-.533c-1.43.43-2.506.373-3.193-.169a2.823,2.823,0,0,1-.875-2.148.278.278,0,1,0-.555-.028,3.368,3.368,0,0,0,1.087,2.614A2.9,2.9,0,0,0,251.868,152.128Z" transform="translate(-239.011 -137.598)" fill="url(#w)"/><path d="M238.374,160.465a.736.736,0,0,0-.351.38.659.659,0,0,0,.311.616,1.162,1.162,0,0,0,.576.278,1.337,1.337,0,0,0,.875-.311,1.158,1.158,0,0,0,.364-.351.878.878,0,0,0-.48-1.152C239.214,159.729,238.731,160.23,238.374,160.465Z" transform="translate(-223.816 -147.245)" fill="#00629b"/><path d="M238.374,160.465a.736.736,0,0,0-.351.38.659.659,0,0,0,.311.616,1.162,1.162,0,0,0,.576.278,1.337,1.337,0,0,0,.875-.311,1.158,1.158,0,0,0,.364-.351.878.878,0,0,0-.48-1.152C239.214,159.729,238.731,160.23,238.374,160.465Z" transform="translate(-223.816 -147.245)" fill="url(#x)"/></g></g></g></g><path d="M3.855,16H5.25V6.145H8.76V4.84H.33v1.3H3.855Zm8.235.18a3.262,3.262,0,0,0,2.9-1.665L15.15,16h1.125V7.885H15.15l-.165,1.5a3.276,3.276,0,0,0-2.9-1.68c-1.905,0-3.69,1.65-3.69,4.245A3.93,3.93,0,0,0,12.09,16.18Zm.285-1.29A2.689,2.689,0,0,1,9.8,11.95a2.694,2.694,0,0,1,2.58-2.955,2.7,2.7,0,0,1,2.565,2.94A2.7,2.7,0,0,1,12.375,14.89ZM25.65,16l-3.87-4.26,3.735-3.855H23.76L20.175,11.65V4H18.8V16h1.38V11.875L23.865,16Zm7.845-4.215c0-2.67-1.575-4.08-3.495-4.08a3.985,3.985,0,0,0-3.915,4.275,3.906,3.906,0,0,0,4.11,4.2,4.728,4.728,0,0,0,2.835-.9V13.915A4.193,4.193,0,0,1,30.3,14.98a2.766,2.766,0,0,1-2.865-2.58H33.45A3.684,3.684,0,0,0,33.495,11.785Zm-6.06-.42a2.635,2.635,0,0,1,2.55-2.46,2.211,2.211,0,0,1,2.175,2.46ZM42.12,7.7c-1.8,0-2.925,1.02-2.925,2.385,0,1.425,1.185,1.86,2.52,2.265,1.17.36,1.935.615,1.935,1.4,0,.72-.63,1.2-1.725,1.2a3.851,3.851,0,0,1-2.76-1.155V15.28a4.485,4.485,0,0,0,2.805.9c1.875,0,3.03-.96,3.03-2.445,0-1.635-1.41-2.04-2.655-2.4-1.1-.315-1.8-.585-1.8-1.305,0-.66.57-1.095,1.59-1.095a3.832,3.832,0,0,1,2.43.84V8.41A4.249,4.249,0,0,0,42.12,7.7ZM48.645,5.98h-1.32v1.9H46.08v1.2h1.215v4.08a2.685,2.685,0,0,0,2.9,2.94,5.083,5.083,0,0,0,.96-.09v-1.2a4.2,4.2,0,0,1-.72.075A1.611,1.611,0,0,1,48.645,13.1V9.085H50.97v-1.2H48.645Zm7.605,10.2a4.026,4.026,0,0,0,4.02-4.23,4.04,4.04,0,1,0-8.07,0A4.032,4.032,0,0,0,56.25,16.18Zm0-1.29A2.717,2.717,0,0,1,53.6,11.95a2.663,2.663,0,1,1,5.295,0A2.724,2.724,0,0,1,56.25,14.89Zm6.9-2.955a2.8,2.8,0,0,1,2.775-2.94,3.424,3.424,0,0,1,2.175.69V8.275a4.156,4.156,0,0,0-2.25-.57,4.076,4.076,0,0,0-4.095,4.23A4.071,4.071,0,0,0,65.85,16.18a4.5,4.5,0,0,0,2.25-.555v-1.4a3.472,3.472,0,0,1-2.16.66A2.8,2.8,0,0,1,63.15,11.935ZM77.01,16l-3.87-4.26,3.735-3.855H75.12L71.535,11.65V4h-1.38V16h1.38V11.875L75.225,16Zm8.805.18a4.026,4.026,0,0,0,4.02-4.23,4.04,4.04,0,1,0-8.07,0A4.032,4.032,0,0,0,85.815,16.18Zm0-1.29a2.717,2.717,0,0,1-2.655-2.94,2.664,2.664,0,1,1,5.3,0A2.724,2.724,0,0,1,85.815,14.89ZM92.16,16h1.38V9.085h2.325v-1.2h-2.34V6.85c0-1.14.555-1.635,1.56-1.635a3.484,3.484,0,0,1,1.185.21V4.15a4.468,4.468,0,0,0-1.35-.225A2.626,2.626,0,0,0,92.16,6.67V7.885H90.99v1.2h1.17ZM103.02,3.97h-2.07V16h2.07V11.02a1.519,1.519,0,0,1,1.65-1.59c.99,0,1.485.54,1.485,1.68V16h2.07V10.51A2.691,2.691,0,0,0,105.3,7.555a2.817,2.817,0,0,0-2.25,1.05h-.03Zm11.1,12.24a4.171,4.171,0,0,0,4.245-4.335,4.253,4.253,0,1,0-8.505,0A4.174,4.174,0,0,0,114.12,16.21Zm0-1.89a2.25,2.25,0,0,1-2.175-2.445,2.183,2.183,0,1,1,4.335,0A2.248,2.248,0,0,1,114.12,14.32ZM127.155,16h2.355l2.235-8.25h-2.04l-1.44,6.03h-.045l-1.71-6.03h-2.055l-1.74,6.03h-.045l-1.38-6.03h-2.175l2.25,8.25h2.37l1.695-5.715h.045Zm16.62-8.25h-2.13l-1.935,5.7h-.045l-1.92-5.7H135.51l3.1,7.995-1.41,3.4h2.085Zm4.77,8.46a4.171,4.171,0,0,0,4.245-4.335,4.253,4.253,0,1,0-8.5,0A4.174,4.174,0,0,0,148.545,16.21Zm0-1.89a2.25,2.25,0,0,1-2.175-2.445,2.183,2.183,0,1,1,4.335,0A2.248,2.248,0,0,1,148.545,14.32Zm9.465,1.89a3.38,3.38,0,0,0,3.66-3.51V7.75H159.6V12.7a1.461,1.461,0,0,1-1.59,1.62,1.431,1.431,0,0,1-1.545-1.6V7.75H154.4v4.965A3.34,3.34,0,0,0,158.01,16.21Zm5.715-.21h2.07V11.755a1.936,1.936,0,0,1,2.04-2.16,3.275,3.275,0,0,1,.66.06V7.72a2.464,2.464,0,0,0-.6-.06,2.574,2.574,0,0,0-2.28,1.35h-.03l-.21-1.26h-1.65ZM176.25,7.555c-2.025,0-3.24,1.08-3.24,2.565s1.215,1.995,2.55,2.37c1.11.33,1.755.525,1.755,1.11,0,.54-.525.885-1.455.885a4.186,4.186,0,0,1-2.82-1.08V15.37a5.022,5.022,0,0,0,2.91.84c2.13,0,3.375-1.035,3.375-2.625,0-1.71-1.44-2.16-2.76-2.505-1.005-.27-1.545-.48-1.545-1.005,0-.495.465-.81,1.305-.81a4.418,4.418,0,0,1,2.49.765V8.215A4.959,4.959,0,0,0,176.25,7.555Zm8.265,8.655a3.38,3.38,0,0,0,3.66-3.51V7.75h-2.07V12.7a1.461,1.461,0,0,1-1.59,1.62,1.431,1.431,0,0,1-1.545-1.6V7.75H180.9v4.965A3.34,3.34,0,0,0,184.515,16.21Zm5.715,2.94h2.07V14.725a3.184,3.184,0,0,0,2.685,1.485c1.935,0,3.675-1.695,3.675-4.335s-1.785-4.32-3.72-4.32A3.174,3.174,0,0,0,192.18,9.1l-.21-1.35h-1.74Zm4.17-4.83a2.235,2.235,0,0,1-2.13-2.445,2.169,2.169,0,1,1,4.305-.015A2.254,2.254,0,0,1,194.4,14.32Zm13.335-2.595c0-2.73-1.68-4.17-3.735-4.17a4.092,4.092,0,0,0-4.1,4.35,4.112,4.112,0,0,0,4.455,4.3,5.359,5.359,0,0,0,2.865-.81V13.63a4.583,4.583,0,0,1-2.625.9,2.587,2.587,0,0,1-2.715-2.055h5.79A5.429,5.429,0,0,0,207.735,11.725Zm-5.865-.555a2.2,2.2,0,0,1,2.115-1.95,1.777,1.777,0,0,1,1.77,1.95ZM209.415,16h2.07V11.755a1.936,1.936,0,0,1,2.04-2.16,3.275,3.275,0,0,1,.66.06V7.72a2.464,2.464,0,0,0-.6-.06,2.574,2.574,0,0,0-2.28,1.35h-.03l-.21-1.26h-1.65ZM220.08,6.37a1.133,1.133,0,0,0,1.155-1.14,1.163,1.163,0,1,0-1.155,1.14ZM219.045,16h2.07V7.75h-2.07Zm7.17-8.445c-2.025,0-3.24,1.08-3.24,2.565s1.215,1.995,2.55,2.37c1.11.33,1.755.525,1.755,1.11,0,.54-.525.885-1.455.885a4.186,4.186,0,0,1-2.82-1.08V15.37a5.022,5.022,0,0,0,2.91.84c2.13,0,3.375-1.035,3.375-2.625,0-1.71-1.44-2.16-2.76-2.505-1-.27-1.545-.48-1.545-1.005,0-.495.465-.81,1.305-.81a4.418,4.418,0,0,1,2.49.765V8.215A4.959,4.959,0,0,0,226.215,7.555ZM2.145,31.37A1.133,1.133,0,0,0,3.3,30.23a1.146,1.146,0,0,0-1.155-1.155A1.149,1.149,0,0,0,.975,30.23,1.137,1.137,0,0,0,2.145,31.37ZM1.11,41H3.18V32.75H1.11Zm8.61-8.445a2.91,2.91,0,0,0-2.49,1.38H7.185L6.96,32.75H5.355V41h2.07V36.065a1.572,1.572,0,0,1,1.635-1.62c.99,0,1.5.54,1.5,1.68V41h2.07V35.495A2.711,2.711,0,0,0,9.72,32.555ZM16.695,41h2.2l3.015-8.25h-2.13l-1.92,6.045H17.82L15.9,32.75h-2.2ZM30.27,36.725c0-2.73-1.68-4.17-3.735-4.17A4.092,4.092,0,0,0,22.44,36.9,4.112,4.112,0,0,0,26.9,41.21a5.359,5.359,0,0,0,2.865-.81V38.63a4.583,4.583,0,0,1-2.625.9,2.587,2.587,0,0,1-2.715-2.055h5.79A5.428,5.428,0,0,0,30.27,36.725Zm-5.865-.555a2.2,2.2,0,0,1,2.115-1.95,1.777,1.777,0,0,1,1.77,1.95Zm10.47-3.615c-2.025,0-3.24,1.08-3.24,2.565s1.215,2,2.55,2.37c1.11.33,1.755.525,1.755,1.11,0,.54-.525.885-1.455.885a4.186,4.186,0,0,1-2.82-1.08V40.37a5.022,5.022,0,0,0,2.91.84c2.13,0,3.375-1.035,3.375-2.625,0-1.71-1.44-2.16-2.76-2.5-1.005-.27-1.545-.48-1.545-1.005,0-.495.465-.81,1.305-.81a4.418,4.418,0,0,1,2.49.765V33.215A4.959,4.959,0,0,0,34.875,32.555Zm7.17-1.725H40.05v1.92H38.835v1.725h1.2V37.91a2.967,2.967,0,0,0,3.225,3.255,5.31,5.31,0,0,0,1.185-.12v-1.77a4.364,4.364,0,0,1-.735.075c-.96,0-1.665-.435-1.665-1.545v-3.33H44.3V32.75h-2.25Zm11.2,5.895c0-2.73-1.68-4.17-3.735-4.17A4.092,4.092,0,0,0,45.42,36.9a4.112,4.112,0,0,0,4.455,4.305,5.359,5.359,0,0,0,2.865-.81V38.63a4.583,4.583,0,0,1-2.625.9A2.587,2.587,0,0,1,47.4,37.475h5.79A5.429,5.429,0,0,0,53.25,36.725Zm-5.865-.555A2.2,2.2,0,0,1,49.5,34.22a1.777,1.777,0,0,1,1.77,1.95Zm10.8,5.04a3.188,3.188,0,0,0,2.76-1.56l.21,1.35h1.74V28.97h-2.07v5.055a3.049,3.049,0,0,0-2.655-1.47c-1.935,0-3.7,1.68-3.7,4.32S56.265,41.21,58.185,41.21Zm.54-1.89a2.25,2.25,0,0,1-2.175-2.445,2.25,2.25,0,0,1,2.175-2.445,2.226,2.226,0,0,1,2.13,2.445A2.226,2.226,0,0,1,58.725,39.32Zm5.82,3.675H65.58a10.013,10.013,0,0,0,.9-3.495v-.615H65.175v.675A11.745,11.745,0,0,1,64.545,42.995Zm11.6-1.815a3.262,3.262,0,0,0,2.895-1.665L79.2,41h1.125V32.885H79.2l-.165,1.5a3.276,3.276,0,0,0-2.895-1.68c-1.905,0-3.69,1.65-3.69,4.245A3.93,3.93,0,0,0,76.14,41.18Zm.285-1.29a2.689,2.689,0,0,1-2.58-2.94,2.6,2.6,0,1,1,5.145-.015A2.7,2.7,0,0,1,76.425,39.89Zm8.97-7.185c-1.8,0-2.925,1.02-2.925,2.385,0,1.425,1.185,1.86,2.52,2.265,1.17.36,1.935.615,1.935,1.4,0,.72-.63,1.2-1.725,1.2a3.851,3.851,0,0,1-2.76-1.155V40.28a4.485,4.485,0,0,0,2.805.9c1.875,0,3.03-.96,3.03-2.445,0-1.635-1.41-2.04-2.655-2.4-1.095-.315-1.8-.585-1.8-1.305,0-.66.57-1.095,1.59-1.095a3.832,3.832,0,0,1,2.43.84V33.41A4.249,4.249,0,0,0,85.395,32.705Zm15.12.18h-1.44l-2.235,6.18h-.03l-2.235-6.18h-1.5l3.03,7.83L94.71,44.15h1.41Zm4.845,8.295a4.026,4.026,0,0,0,4.02-4.23,4.04,4.04,0,1,0-8.07,0A4.032,4.032,0,0,0,105.36,41.18Zm0-1.29a2.717,2.717,0,0,1-2.655-2.94,2.664,2.664,0,1,1,5.3,0A2.724,2.724,0,0,1,105.36,39.89Zm9.225,1.29a3.126,3.126,0,0,0,3.36-3.3V32.885h-1.38V37.91a1.829,1.829,0,0,1-1.98,1.98,1.8,1.8,0,0,1-1.92-1.98V32.885h-1.38V37.88A3.087,3.087,0,0,0,114.585,41.18ZM120.36,41h1.38V36.38a2.1,2.1,0,0,1,2.175-2.28,3.492,3.492,0,0,1,.57.06V32.84a2.906,2.906,0,0,0-.54-.045,2.628,2.628,0,0,0-2.325,1.38H121.6l-.15-1.29h-1.1Zm13.125-8.295a2.927,2.927,0,0,0-2.49,1.41h-.045l-.15-1.23h-1.065V41h1.38V36.05a1.962,1.962,0,0,1,2.025-2.025c1.215,0,1.86.675,1.86,2.1V41h1.38V35.63A2.725,2.725,0,0,0,133.485,32.705Zm12.225,4.08c0-2.67-1.575-4.08-3.5-4.08A3.985,3.985,0,0,0,138.3,36.98a3.906,3.906,0,0,0,4.11,4.2,4.728,4.728,0,0,0,2.835-.9V38.915a4.193,4.193,0,0,1-2.73,1.065,2.766,2.766,0,0,1-2.865-2.58h6.015A3.684,3.684,0,0,0,145.71,36.785Zm-6.06-.42a2.635,2.635,0,0,1,2.55-2.46,2.211,2.211,0,0,1,2.175,2.46Zm14.94.42c0-2.67-1.575-4.08-3.5-4.08a3.985,3.985,0,0,0-3.915,4.275,3.906,3.906,0,0,0,4.11,4.2,4.728,4.728,0,0,0,2.835-.9V38.915a4.193,4.193,0,0,1-2.73,1.065,2.766,2.766,0,0,1-2.865-2.58h6.015A3.684,3.684,0,0,0,154.59,36.785Zm-6.06-.42a2.635,2.635,0,0,1,2.55-2.46,2.211,2.211,0,0,1,2.175,2.46Zm11.22,4.815a3.279,3.279,0,0,0,2.9-1.665L162.81,41h1.125V29h-1.38v5.295a3.185,3.185,0,0,0-2.8-1.59c-1.92,0-3.69,1.635-3.69,4.245A3.921,3.921,0,0,0,159.75,41.18Zm.285-1.29a2.7,2.7,0,0,1-2.6-2.94,2.6,2.6,0,1,1,5.145-.015A2.69,2.69,0,0,1,160.035,39.89Zm8.955-7.185c-1.8,0-2.925,1.02-2.925,2.385,0,1.425,1.185,1.86,2.52,2.265,1.17.36,1.935.615,1.935,1.4,0,.72-.63,1.2-1.725,1.2a3.851,3.851,0,0,1-2.76-1.155V40.28a4.485,4.485,0,0,0,2.805.9c1.875,0,3.03-.96,3.03-2.445,0-1.635-1.41-2.04-2.655-2.4-1.1-.315-1.8-.585-1.8-1.305,0-.66.57-1.095,1.59-1.095a3.832,3.832,0,0,1,2.43.84V33.41A4.249,4.249,0,0,0,168.99,32.705Zm9.81,4.23a2.8,2.8,0,0,1,2.775-2.94,3.424,3.424,0,0,1,2.175.69v-1.41a4.156,4.156,0,0,0-2.25-.57,4.24,4.24,0,0,0,0,8.475,4.5,4.5,0,0,0,2.25-.555v-1.4a3.473,3.473,0,0,1-2.16.66A2.8,2.8,0,0,1,178.8,36.935Zm10.02,4.245a3.262,3.262,0,0,0,2.9-1.665L191.88,41h1.125V32.885H191.88l-.165,1.5a3.276,3.276,0,0,0-2.9-1.68c-1.9,0-3.69,1.65-3.69,4.245A3.93,3.93,0,0,0,188.82,41.18Zm.285-1.29a2.689,2.689,0,0,1-2.58-2.94,2.6,2.6,0,1,1,5.145-.015A2.7,2.7,0,0,1,189.105,39.89Zm10.17-7.185a2.927,2.927,0,0,0-2.49,1.41h-.045l-.15-1.23h-1.065V41h1.38V36.05a1.962,1.962,0,0,1,2.025-2.025c1.215,0,1.86.675,1.86,2.1V41h1.38V35.63A2.725,2.725,0,0,0,199.275,32.705ZM2.13,61.935A2.8,2.8,0,0,1,4.9,58.995a3.424,3.424,0,0,1,2.175.69v-1.41a4.156,4.156,0,0,0-2.25-.57,4.24,4.24,0,0,0,0,8.475,4.5,4.5,0,0,0,2.25-.555V64.23a3.473,3.473,0,0,1-2.16.66A2.8,2.8,0,0,1,2.13,61.935ZM10.515,54H9.135V66h1.38V60.975a1.875,1.875,0,0,1,2.025-1.98c1.245,0,1.86.69,1.86,2.115V66h1.38V60.63a2.675,2.675,0,0,0-2.925-2.925A2.793,2.793,0,0,0,10.53,58.86h-.015ZM21.39,66.18a3.262,3.262,0,0,0,2.9-1.665L24.45,66h1.125V57.885H24.45l-.165,1.5a3.276,3.276,0,0,0-2.9-1.68c-1.9,0-3.69,1.65-3.69,4.245A3.93,3.93,0,0,0,21.39,66.18Zm.285-1.29a2.976,2.976,0,1,1,2.565-2.955A2.7,2.7,0,0,1,21.675,64.89Zm10.17-7.185a2.927,2.927,0,0,0-2.49,1.41H29.31l-.15-1.23H28.095V66h1.38V61.05A1.962,1.962,0,0,1,31.5,59.025c1.215,0,1.86.675,1.86,2.1V66h1.38V60.63A2.725,2.725,0,0,0,31.845,57.705Zm8.49.015a4.092,4.092,0,0,0,0,8.145,3.305,3.305,0,0,0,2.79-1.53v1.23a2.506,2.506,0,0,1-2.67,2.475,4.429,4.429,0,0,1-2.97-1.2v1.485a5.135,5.135,0,0,0,3.03,1.005,3.79,3.79,0,0,0,3.99-3.99V57.885H43.38l-.165,1.41A3.329,3.329,0,0,0,40.335,57.72Zm.27,1.275a2.6,2.6,0,0,1,2.565,2.76,2.666,2.666,0,0,1-2.565,2.85,2.816,2.816,0,0,1,0-5.61Zm13.32,2.79c0-2.67-1.575-4.08-3.495-4.08a3.985,3.985,0,0,0-3.915,4.275,3.906,3.906,0,0,0,4.11,4.2,4.728,4.728,0,0,0,2.835-.9V63.915a4.193,4.193,0,0,1-2.73,1.065,2.766,2.766,0,0,1-2.865-2.58H53.88A3.684,3.684,0,0,0,53.925,61.785Zm-6.06-.42a2.635,2.635,0,0,1,2.55-2.46,2.211,2.211,0,0,1,2.175,2.46Zm15.66,4.815a4.242,4.242,0,1,0-4.05-4.23A4.026,4.026,0,0,0,63.525,66.18Zm0-1.29a2.965,2.965,0,1,1,2.64-2.94A2.717,2.717,0,0,1,63.525,64.89Zm7.8,1.11h1.5l2.955-8.115H74.355L72.12,64.47h-.045L69.84,57.885H68.37Zm12.69-4.215c0-2.67-1.575-4.08-3.5-4.08a3.985,3.985,0,0,0-3.915,4.275,3.906,3.906,0,0,0,4.11,4.2,4.728,4.728,0,0,0,2.835-.9V63.915a4.193,4.193,0,0,1-2.73,1.065,2.766,2.766,0,0,1-2.865-2.58H83.97A3.684,3.684,0,0,0,84.015,61.785Zm-6.06-.42a2.635,2.635,0,0,1,2.55-2.46,2.211,2.211,0,0,1,2.175,2.46ZM86,66h1.38V61.38A2.1,2.1,0,0,1,89.55,59.1a3.492,3.492,0,0,1,.57.06V57.84a2.906,2.906,0,0,0-.54-.045,2.628,2.628,0,0,0-2.325,1.38H87.24l-.15-1.29H86Zm10.86-10.02h-1.32v1.905H94.29v1.2h1.215v4.08a2.685,2.685,0,0,0,2.895,2.94,5.083,5.083,0,0,0,.96-.09v-1.2a4.2,4.2,0,0,1-.72.075A1.611,1.611,0,0,1,96.855,63.1v-4.02H99.18v-1.2H96.855Zm4.875.045a.84.84,0,1,0-.855-.84A.824.824,0,0,0,101.73,56.025ZM101.04,66h1.38V57.885h-1.38Zm11.955-8.295a2.6,2.6,0,0,0-2.34,1.425,2.237,2.237,0,0,0-2.25-1.425,2.422,2.422,0,0,0-2.175,1.38h-.045l-.15-1.2H104.97V66h1.38V60.885a1.711,1.711,0,0,1,1.68-1.86c1.08,0,1.545.615,1.545,1.785V66h1.38V60.81a1.685,1.685,0,0,1,1.695-1.785c1.08,0,1.53.615,1.53,1.785V66h1.38V60.585C115.56,58.89,114.765,57.705,112.995,57.705Zm11.91,4.08c0-2.67-1.575-4.08-3.5-4.08A3.985,3.985,0,0,0,117.5,61.98a3.906,3.906,0,0,0,4.11,4.2,4.728,4.728,0,0,0,2.835-.9V63.915a4.193,4.193,0,0,1-2.73,1.065,2.766,2.766,0,0,1-2.865-2.58h6.015A3.684,3.684,0,0,0,124.905,61.785Zm-6.06-.42a2.635,2.635,0,0,1,2.55-2.46,2.211,2.211,0,0,1,2.175,2.46Zm8.67,4.71a.938.938,0,1,0-.93-.93A.916.916,0,0,0,127.515,66.075Z" transform="translate(80 464)"/><path d="M3.72.15A2.757,2.757,0,0,0,6.59-2.82V-7.44H5.66v4.66A1.863,1.863,0,0,1,3.72-.73,1.809,1.809,0,0,1,1.86-2.76V-7.44H.93v4.63A2.7,2.7,0,0,0,3.72.15ZM8.36,2.1h.92V-.94A2.153,2.153,0,0,0,11.15.12,2.6,2.6,0,0,0,13.6-2.71a2.608,2.608,0,0,0-2.46-2.82A2.18,2.18,0,0,0,9.22-4.41l-.11-1H8.36Zm2.6-2.84A1.79,1.79,0,0,1,9.26-2.7a1.793,1.793,0,0,1,1.7-1.97,1.792,1.792,0,0,1,1.72,1.96A1.79,1.79,0,0,1,10.96-.74Zm6.11.86A2.186,2.186,0,0,0,19-.99l.11.99h.75V-8h-.92v3.53a2.123,2.123,0,0,0-1.87-1.06A2.605,2.605,0,0,0,14.61-2.7,2.614,2.614,0,0,0,17.07.12Zm.19-.86A1.8,1.8,0,0,1,15.53-2.7a1.8,1.8,0,0,1,1.73-1.97,1.79,1.79,0,0,1,1.7,1.96A1.793,1.793,0,0,1,17.26-.74Zm6.38.86A2.175,2.175,0,0,0,25.57-.99l.11.99h.75V-5.41h-.75l-.11,1a2.184,2.184,0,0,0-1.93-1.12A2.617,2.617,0,0,0,21.18-2.7,2.62,2.62,0,0,0,23.64.12Zm.19-.86A1.792,1.792,0,0,1,22.11-2.7a1.8,1.8,0,0,1,1.72-1.97,1.8,1.8,0,0,1,1.71,1.96A1.8,1.8,0,0,1,23.83-.74Zm5.41-5.94h-.88v1.27h-.83v.8h.81v2.72A1.79,1.79,0,0,0,30.27.07a3.389,3.389,0,0,0,.64-.06v-.8a2.8,2.8,0,0,1-.48.05,1.074,1.074,0,0,1-1.19-1.19V-4.61h1.55v-.8H29.24Zm7.32,3.87c0-1.78-1.05-2.72-2.33-2.72a2.656,2.656,0,0,0-2.61,2.85A2.6,2.6,0,0,0,34.36.12a3.152,3.152,0,0,0,1.89-.6v-.91a2.8,2.8,0,0,1-1.82.71A1.844,1.844,0,0,1,32.52-2.4h4.01A2.456,2.456,0,0,0,36.56-2.81Zm-4.04-.28a1.756,1.756,0,0,1,1.7-1.64,1.474,1.474,0,0,1,1.45,1.64ZM40,.12A2.186,2.186,0,0,0,41.93-.99l.11.99h.75V-8h-.92v3.53A2.123,2.123,0,0,0,40-5.53,2.605,2.605,0,0,0,37.54-2.7,2.614,2.614,0,0,0,40,.12Zm.19-.86A1.8,1.8,0,0,1,38.46-2.7a1.8,1.8,0,0,1,1.73-1.97,1.79,1.79,0,0,1,1.7,1.96A1.793,1.793,0,0,1,40.19-.74Zm4.78-2.6a.613.613,0,0,0,.62-.63.611.611,0,0,0-.62-.62.6.6,0,0,0-.62.62A.607.607,0,0,0,44.97-3.34Zm0,3.39a.611.611,0,0,0,.62-.62.613.613,0,0,0-.62-.63.607.607,0,0,0-.62.63A.6.6,0,0,0,44.97.05ZM49.42,0h4.94V-.88H51.23c1.86-2.03,2.86-3.25,2.86-4.43a2.191,2.191,0,0,0-2.33-2.28,2.987,2.987,0,0,0-1.98.73v1.04a2.587,2.587,0,0,1,1.9-.89,1.411,1.411,0,0,1,1.47,1.45C53.15-4.39,52.73-3.7,49.42,0Zm5.86,0h4.94V-.88H57.09c1.86-2.03,2.86-3.25,2.86-4.43a2.191,2.191,0,0,0-2.33-2.28,2.987,2.987,0,0,0-1.98.73v1.04a2.587,2.587,0,0,1,1.9-.89,1.411,1.411,0,0,1,1.47,1.45C59.01-4.39,58.59-3.7,55.28,0Zm5.84,1.33h.89L65.36-8.76h-.9ZM66.29,0h.99l3.89-7.44H66.23v.87h3.52Zm4.62,1.33h.89L75.15-8.76h-.9ZM75.87,0h4.94V-.88H77.68c1.86-2.03,2.86-3.25,2.86-4.43a2.191,2.191,0,0,0-2.33-2.28,2.987,2.987,0,0,0-1.98.73v1.04a2.587,2.587,0,0,1,1.9-.89A1.411,1.411,0,0,1,79.6-5.26C79.6-4.39,79.18-3.7,75.87,0Zm8.9-7.59c-1.54,0-2.78,1.46-2.78,3.88S83.23.15,84.77.15s2.79-1.45,2.79-3.86S86.31-7.59,84.77-7.59Zm0,.88c1.02,0,1.86,1.1,1.86,3S85.79-.73,84.77-.73s-1.84-1.08-1.84-2.98S83.74-6.71,84.77-6.71ZM88.55,0h4.94V-.88H90.36c1.86-2.03,2.86-3.25,2.86-4.43a2.191,2.191,0,0,0-2.33-2.28,2.987,2.987,0,0,0-1.98.73v1.04a2.587,2.587,0,0,1,1.9-.89,1.411,1.411,0,0,1,1.47,1.45C92.28-4.39,91.86-3.7,88.55,0Zm8.9-7.59c-1.54,0-2.78,1.46-2.78,3.88S95.91.15,97.45.15s2.79-1.45,2.79-3.86S98.99-7.59,97.45-7.59Zm0,.88c1.02,0,1.86,1.1,1.86,3S98.47-.73,97.45-.73s-1.84-1.08-1.84-2.98S96.42-6.71,97.45-6.71Z" transform="translate(243 43)" fill="#5b6770"/></g></svg>