<svg xmlns="http://www.w3.org/2000/svg" xmlns:xlink="http://www.w3.org/1999/xlink" width="375" height="628" viewBox="0 0 375 628"><defs><linearGradient id="a" x1="0.581" y1="1.071" x2="0.387" y2="-0.139" gradientUnits="objectBoundingBox"><stop offset="0" stop-color="#e1e2e8"/><stop offset="1" stop-color="#f8f8fc"/></linearGradient><linearGradient id="b" x1="0.208" x2="0.683" y2="1" gradientUnits="objectBoundingBox"><stop offset="0" stop-color="#ffc400"/><stop offset="1" stop-color="#ffa300"/></linearGradient><clipPath id="c"><rect x="-20" width="375" height="184" fill="none"/></clipPath><filter id="d" x="20" y="246" width="144" height="184" filterUnits="userSpaceOnUse"><feOffset dy="2" input="SourceAlpha"/><feGaussianBlur stdDeviation="4" result="e"/><feFlood flood-opacity="0.031"/><feComposite operator="in" in2="e"/><feComposite in="SourceGraphic"/></filter><filter id="f" x="148" y="246" width="144" height="184" filterUnits="userSpaceOnUse"><feOffset dy="2" input="SourceAlpha"/><feGaussianBlur stdDeviation="4" result="g"/><feFlood flood-opacity="0.031"/><feComposite operator="in" in2="g"/><feComposite in="SourceGraphic"/></filter><filter id="h" x="276" y="246" width="192" height="184" filterUnits="userSpaceOnUse"><feOffset dy="2" input="SourceAlpha"/><feGaussianBlur stdDeviation="4" result="i"/><feFlood flood-opacity="0.031"/><feComposite operator="in" in2="i"/><feComposite in="SourceGraphic"/></filter><clipPath id="k"><rect width="375" height="628"/></clipPath></defs><g id="j" clip-path="url(#k)"><rect width="375" height="628" fill="#fff"/><path d="M3.72.15A2.757,2.757,0,0,0,6.59-2.82V-7.44H5.66v4.66A1.863,1.863,0,0,1,3.72-.73,1.809,1.809,0,0,1,1.86-2.76V-7.44H.93v4.63A2.7,2.7,0,0,0,3.72.15ZM8.36,2.1h.92V-.94A2.153,2.153,0,0,0,11.15.12,2.6,2.6,0,0,0,13.6-2.71a2.608,2.608,0,0,0-2.46-2.82A2.18,2.18,0,0,0,9.22-4.41l-.11-1H8.36Zm2.6-2.84A1.79,1.79,0,0,1,9.26-2.7a1.793,1.793,0,0,1,1.7-1.97,1.792,1.792,0,0,1,1.72,1.96A1.79,1.79,0,0,1,10.96-.74Zm6.11.86A2.186,2.186,0,0,0,19-.99l.11.99h.75V-8h-.92v3.53a2.123,2.123,0,0,0-1.87-1.06A2.605,2.605,0,0,0,14.61-2.7,2.614,2.614,0,0,0,17.07.12Zm.19-.86A1.8,1.8,0,0,1,15.53-2.7a1.8,1.8,0,0,1,1.73-1.97,1.79,1.79,0,0,1,1.7,1.96A1.793,1.793,0,0,1,17.26-.74Zm6.38.86A2.175,2.175,0,0,0,25.57-.99l.11.99h.75V-5.41h-.75l-.11,1a2.184,2.184,0,0,0-1.93-1.12A2.617,2.617,0,0,0,21.18-2.7,2.62,2.62,0,0,0,23.64.12Zm.19-.86A1.792,1.792,0,0,1,22.11-2.7a1.8,1.8,0,0,1,1.72-1.97,1.8,1.8,0,0,1,1.71,1.96A1.8,1.8,0,0,1,23.83-.74Zm5.41-5.94h-.88v1.27h-.83v.8h.81v2.72A1.79,1.79,0,0,0,30.27.07a3.389,3.389,0,0,0,.64-.06v-.8a2.8,2.8,0,0,1-.48.05,1.074,1.074,0,0,1-1.19-1.19V-4.61h1.55v-.8H29.24Zm7.32,3.87c0-1.78-1.05-2.72-2.33-2.72a2.656,2.656,0,0,0-2.61,2.85A2.6,2.6,0,0,0,34.36.12a3.152,3.152,0,0,0,1.89-.6v-.91a2.8,2.8,0,0,1-1.82.71A1.844,1.844,0,0,1,32.52-2.4h4.01A2.456,2.456,0,0,0,36.56-2.81Zm-4.04-.28a1.756,1.756,0,0,1,1.7-1.64,1.474,1.474,0,0,1,1.45,1.64ZM40,.12A2.186,2.186,0,0,0,41.93-.99l.11.99h.75V-8h-.92v3.53A2.123,2.123,0,0,0,40-5.53,2.605,2.605,0,0,0,37.54-2.7,2.614,2.614,0,0,0,40,.12Zm.19-.86A1.8,1.8,0,0,1,38.46-2.7a1.8,1.8,0,0,1,1.73-1.97,1.79,1.79,0,0,1,1.7,1.96A1.793,1.793,0,0,1,40.19-.74Zm4.78-2.6a.613.613,0,0,0,.62-.63.611.611,0,0,0-.62-.62.6.6,0,0,0-.62.62A.607.607,0,0,0,44.97-3.34Zm0,3.39a.611.611,0,0,0,.62-.62.613.613,0,0,0-.62-.63.607.607,0,0,0-.62.63A.6.6,0,0,0,44.97.05ZM49.42,0h4.94V-.88H51.23c1.86-2.03,2.86-3.25,2.86-4.43a2.191,2.191,0,0,0-2.33-2.28,2.987,2.987,0,0,0-1.98.73v1.04a2.587,2.587,0,0,1,1.9-.89,1.411,1.411,0,0,1,1.47,1.45C53.15-4.39,52.73-3.7,49.42,0Zm5.86,0h4.94V-.88H57.09c1.86-2.03,2.86-3.25,2.86-4.43a2.191,2.191,0,0,0-2.33-2.28,2.987,2.987,0,0,0-1.98.73v1.04a2.587,2.587,0,0,1,1.9-.89,1.411,1.411,0,0,1,1.47,1.45C59.01-4.39,58.59-3.7,55.28,0Zm5.84,1.33h.89L65.36-8.76h-.9ZM66.29,0h.99l3.89-7.44H66.23v.87h3.52Zm4.62,1.33h.89L75.15-8.76h-.9ZM75.87,0h4.94V-.88H77.68c1.86-2.03,2.86-3.25,2.86-4.43a2.191,2.191,0,0,0-2.33-2.28,2.987,2.987,0,0,0-1.98.73v1.04a2.587,2.587,0,0,1,1.9-.89A1.411,1.411,0,0,1,79.6-5.26C79.6-4.39,79.18-3.7,75.87,0Zm8.9-7.59c-1.54,0-2.78,1.46-2.78,3.88S83.23.15,84.77.15s2.79-1.45,2.79-3.86S86.31-7.59,84.77-7.59Zm0,.88c1.02,0,1.86,1.1,1.86,3S85.79-.73,84.77-.73s-1.84-1.08-1.84-2.98S83.74-6.71,84.77-6.71ZM88.55,0h4.94V-.88H90.36c1.86-2.03,2.86-3.25,2.86-4.43a2.191,2.191,0,0,0-2.33-2.28,2.987,2.987,0,0,0-1.98.73v1.04a2.587,2.587,0,0,1,1.9-.89,1.411,1.411,0,0,1,1.47,1.45C92.28-4.39,91.86-3.7,88.55,0Zm8.9-7.59c-1.54,0-2.78,1.46-2.78,3.88S95.91.15,97.45.15s2.79-1.45,2.79-3.86S98.99-7.59,97.45-7.59Zm0,.88c1.02,0,1.86,1.1,1.86,3S98.47-.73,97.45-.73s-1.84-1.08-1.84-2.98S96.42-6.71,97.45-6.71Z" transform="translate(32 71)"/><path d="M1.46,0h3.8V-14.92H1.46Zm22-14.92H19.84v8.74h-.02l-6-8.74H10.18V0H13.8V-8.9h.02L19.86,0h3.6Zm9.94-.32c-3.44,0-5.5,1.98-5.5,4.6,0,2.78,2.36,3.78,4.1,4.44,1.42.56,2.46.96,2.46,1.84,0,.8-.82,1.38-2.22,1.38a6.919,6.919,0,0,1-4.26-1.6V-1A8.468,8.468,0,0,0,32.64.32c3.52,0,5.68-1.98,5.68-4.8,0-3-2.5-3.96-4.56-4.72-1.38-.54-2.12-.86-2.12-1.56,0-.72.76-1.18,2.02-1.18a7.094,7.094,0,0,1,3.76,1.12v-3.4A8.182,8.182,0,0,0,33.4-15.24ZM48.68.36a6.021,6.021,0,0,0,6.44-6.34v-8.94h-3.8V-6c0,1.88-1,2.9-2.64,2.9-1.6,0-2.56-1.02-2.56-2.88v-8.94h-3.8v8.94A5.978,5.978,0,0,0,48.68.36ZM67.54-5.38A4.66,4.66,0,0,0,70.98-9.9c0-3.32-2.42-5.02-6.08-5.02H59.88V0h3.8V-4.94h.12L67.22,0h4.5ZM63.68-7.82V-11.5h1.16c1.38,0,2.32.64,2.32,1.84,0,1.18-.9,1.84-2.34,1.84ZM89.36,0,83.8-14.92H79.4L73.92,0h3.94l1.12-3.3h5.26L85.4,0ZM81.6-11.04l1.62,4.66H79.98Zm24.48-3.88h-3.62v8.74h-.02l-6-8.74H92.8V0h3.62V-8.9h.02L102.48,0h3.6ZM122.16-.68V-4.46a6.187,6.187,0,0,1-3.72,1.34,4.263,4.263,0,0,1-4.4-4.34,4.235,4.235,0,0,1,4.4-4.32,6.163,6.163,0,0,1,3.72,1.24v-3.72A8.98,8.98,0,0,0,118-15.28a7.612,7.612,0,0,0-7.78,7.82A7.607,7.607,0,0,0,118,.34,8.98,8.98,0,0,0,122.16-.68Zm4.32.68h9.84V-3.38h-6.04v-2.6h5.46V-9.06h-5.46v-2.48h6.04v-3.38h-9.84Z" transform="translate(32 49)"/><rect width="375" height="240" transform="translate(0 200)" opacity="0.6" fill="url(#a)"/><path d="M3.312,0H5.256V-3.576l3.3-5.376H6.468L4.356-5.316H4.32L2.184-8.952h-2.2L3.312-3.564Zm8,.168a3.386,3.386,0,0,0,3.492-3.492,3.372,3.372,0,0,0-3.492-3.492A3.386,3.386,0,0,0,7.824-3.324,3.393,3.393,0,0,0,11.316.168Zm0-1.728A1.612,1.612,0,0,1,9.768-3.324a1.612,1.612,0,0,1,1.548-1.764,1.62,1.62,0,0,1,1.56,1.764A1.628,1.628,0,0,1,11.316-1.56ZM18.972.168A2.785,2.785,0,0,0,22.02-2.7V-6.648H20.1v3.936A1.031,1.031,0,0,1,18.972-1.56,1.007,1.007,0,0,1,17.88-2.7V-6.648H15.96V-2.7A2.761,2.761,0,0,0,18.972.168ZM23.532,0h1.92V-3.252a1.485,1.485,0,0,1,1.572-1.68,2.162,2.162,0,0,1,.552.06v-1.8a2.051,2.051,0,0,0-.5-.048,2.035,2.035,0,0,0-1.8,1.068h-.024l-.192-1H23.532Zm9.336-3.324A1.739,1.739,0,0,1,34.7-5.088a2.915,2.915,0,0,1,1.668.5V-6.348a3.9,3.9,0,0,0-1.956-.468,3.4,3.4,0,0,0-3.492,3.48,3.4,3.4,0,0,0,3.492,3.5,4.311,4.311,0,0,0,1.956-.456V-2.052A2.764,2.764,0,0,1,34.7-1.56,1.732,1.732,0,0,1,32.868-3.324ZM40.776.168a3.386,3.386,0,0,0,3.492-3.492,3.372,3.372,0,0,0-3.492-3.492,3.386,3.386,0,0,0-3.492,3.492A3.393,3.393,0,0,0,40.776.168Zm0-1.728a1.612,1.612,0,0,1-1.548-1.764,1.612,1.612,0,0,1,1.548-1.764,1.62,1.62,0,0,1,1.56,1.764A1.628,1.628,0,0,1,40.776-1.56ZM47,0h2.04l2.424-6.648H49.512L48.084-2.016h-.036L46.632-6.648H44.58ZM58.188-3.432c0-2.22-1.38-3.384-3.072-3.384A3.323,3.323,0,0,0,51.78-3.3,3.35,3.35,0,0,0,55.464.168a4.562,4.562,0,0,0,2.316-.6V-2a3.863,3.863,0,0,1-2.076.66,2,2,0,0,1-2.088-1.44H58.14A3.565,3.565,0,0,0,58.188-3.432Zm-4.608-.5A1.6,1.6,0,0,1,55.1-5.3a1.253,1.253,0,0,1,1.26,1.368ZM59.436,0h1.92V-3.252a1.485,1.485,0,0,1,1.572-1.68,2.162,2.162,0,0,1,.552.06v-1.8a2.051,2.051,0,0,0-.5-.048,2.035,2.035,0,0,0-1.8,1.068h-.024l-.192-1H59.436Zm7.476.168A2.5,2.5,0,0,0,69.1-1.02L69.288,0h1.62V-6.648h-1.62L69.1-5.628a2.525,2.525,0,0,0-2.184-1.188A3.242,3.242,0,0,0,63.96-3.3,3.226,3.226,0,0,0,66.912.168Zm.564-1.728a1.63,1.63,0,0,1-1.584-1.764,1.637,1.637,0,0,1,1.584-1.764,1.611,1.611,0,0,1,1.548,1.764A1.611,1.611,0,0,1,67.476-1.56ZM75.12-6.8A3.174,3.174,0,0,0,72.144-3.48,3.132,3.132,0,0,0,75.1-.132a2.43,2.43,0,0,0,2.04-1.1v.612c0,.972-.816,1.644-1.992,1.644A3.9,3.9,0,0,1,72.8.108V1.932a4.489,4.489,0,0,0,2.52.756A3.4,3.4,0,0,0,79.056-.84V-6.648h-1.62l-.192,1A2.519,2.519,0,0,0,75.12-6.8Zm.5,1.692A1.555,1.555,0,0,1,77.16-3.48a1.568,1.568,0,0,1-1.536,1.656,1.568,1.568,0,0,1-1.548-1.644A1.582,1.582,0,0,1,75.624-5.112ZM86.7-3.432c0-2.22-1.38-3.384-3.072-3.384A3.323,3.323,0,0,0,80.292-3.3,3.35,3.35,0,0,0,83.976.168a4.562,4.562,0,0,0,2.316-.6V-2a3.863,3.863,0,0,1-2.076.66,2,2,0,0,1-2.088-1.44h4.524A3.565,3.565,0,0,0,86.7-3.432Zm-4.608-.5A1.6,1.6,0,0,1,83.616-5.3a1.253,1.253,0,0,1,1.26,1.368Z" transform="translate(32 237)"/><path d="M8.68,14.5V13.11a4.733,4.733,0,0,1-2.7.854A3.978,3.978,0,0,1,2.086,9.792,3.961,3.961,0,0,1,5.978,5.62a4.723,4.723,0,0,1,2.7.84V5.088a5.311,5.311,0,0,0-2.758-.714,5.167,5.167,0,0,0-5.166,5.4A5.183,5.183,0,0,0,5.922,15.21,5.35,5.35,0,0,0,8.68,14.5ZM11.8,3.8H10.514V15H11.8V10.31a1.75,1.75,0,0,1,1.89-1.848c1.162,0,1.736.644,1.736,1.974V15h1.288V9.988a2.5,2.5,0,0,0-2.73-2.73,2.607,2.607,0,0,0-2.17,1.078H11.8Zm13.636,7.266c0-2.492-1.47-3.808-3.262-3.808a3.719,3.719,0,0,0-3.654,3.99,3.645,3.645,0,0,0,3.836,3.92A4.413,4.413,0,0,0,25,14.328V13.054a3.913,3.913,0,0,1-2.548.994,2.582,2.582,0,0,1-2.674-2.408H25.4A3.438,3.438,0,0,0,25.438,11.066Zm-5.656-.392a2.459,2.459,0,0,1,2.38-2.3,2.064,2.064,0,0,1,2.03,2.3Zm8.316.532a2.613,2.613,0,0,1,2.59-2.744,3.2,3.2,0,0,1,2.03.644V7.79a3.879,3.879,0,0,0-2.1-.532A3.8,3.8,0,0,0,26.8,11.206a3.8,3.8,0,0,0,3.822,3.962,4.2,4.2,0,0,0,2.1-.518v-1.3a3.241,3.241,0,0,1-2.016.616A2.611,2.611,0,0,1,28.1,11.206ZM41.034,15l-3.612-3.976,3.486-3.6H39.27L35.924,10.94V3.8H34.636V15h1.288V11.15L39.368,15Zm6.314-9.352H46.116V7.426H44.954v1.12h1.134v3.808a2.506,2.506,0,0,0,2.7,2.744,4.745,4.745,0,0,0,.9-.084v-1.12a3.917,3.917,0,0,1-.672.07A1.5,1.5,0,0,1,47.348,12.3V8.546h2.17V7.426h-2.17ZM52.514,3.8H51.226V15h1.288V10.31A1.75,1.75,0,0,1,54.4,8.462c1.162,0,1.736.644,1.736,1.974V15h1.288V9.988a2.5,2.5,0,0,0-2.73-2.73,2.607,2.607,0,0,0-2.17,1.078h-.014Zm10.15,11.368a3.044,3.044,0,0,0,2.7-1.554L65.52,15h1.05V7.426H65.52l-.154,1.4a3.058,3.058,0,0,0-2.7-1.568A3.664,3.664,0,0,0,59.22,11.22,3.668,3.668,0,0,0,62.664,15.168Zm.266-1.2a2.509,2.509,0,0,1-2.408-2.744,2.423,2.423,0,1,1,4.8-.014A2.521,2.521,0,0,1,62.93,13.964ZM70.5,5.648H69.272V7.426H68.11v1.12h1.134v3.808a2.506,2.506,0,0,0,2.7,2.744,4.745,4.745,0,0,0,.9-.084v-1.12a3.917,3.917,0,0,1-.672.07A1.5,1.5,0,0,1,70.5,12.3V8.546h2.17V7.426H70.5ZM83.972,7.426H82.628l-2.086,5.768h-.028L78.428,7.426h-1.4l2.828,7.308-1.3,3.206H79.87Zm4.522,7.742a3.757,3.757,0,0,0,3.752-3.948,3.771,3.771,0,1,0-7.532,0A3.763,3.763,0,0,0,88.494,15.168Zm0-1.2a2.536,2.536,0,0,1-2.478-2.744,2.486,2.486,0,1,1,4.942,0A2.542,2.542,0,0,1,88.494,13.964Zm8.61,1.2a2.918,2.918,0,0,0,3.136-3.08V7.426H98.952v4.69A1.707,1.707,0,0,1,97.1,13.964a1.678,1.678,0,0,1-1.792-1.848V7.426H94.024v4.662A2.881,2.881,0,0,0,97.1,15.168Zm5.39-.168h1.288V10.688a1.963,1.963,0,0,1,2.03-2.128,3.259,3.259,0,0,1,.532.056V7.384a2.713,2.713,0,0,0-.5-.042,2.453,2.453,0,0,0-2.17,1.288h-.014l-.14-1.2h-1.022Zm9.422-9.31a.784.784,0,1,0-.8-.784A.769.769,0,0,0,111.916,5.69ZM111.272,15h1.288V7.426h-1.288Zm7.168-7.742a2.732,2.732,0,0,0-2.324,1.316h-.042l-.14-1.148h-.994V15h1.288V10.38a1.832,1.832,0,0,1,1.89-1.89c1.134,0,1.736.63,1.736,1.96V15h1.288V9.988A2.543,2.543,0,0,0,118.44,7.258Zm7.35,0c-1.68,0-2.73.952-2.73,2.226,0,1.33,1.106,1.736,2.352,2.114,1.092.336,1.806.574,1.806,1.3,0,.672-.588,1.12-1.61,1.12a3.594,3.594,0,0,1-2.576-1.078v1.386a4.186,4.186,0,0,0,2.618.84c1.75,0,2.828-.9,2.828-2.282,0-1.526-1.316-1.9-2.478-2.24-1.022-.294-1.68-.546-1.68-1.218,0-.616.532-1.022,1.484-1.022a3.577,3.577,0,0,1,2.268.784V7.916A3.965,3.965,0,0,0,125.79,7.258Zm7.5,7.91a2.918,2.918,0,0,0,3.136-3.08V7.426h-1.288v4.69a1.707,1.707,0,0,1-1.848,1.848,1.678,1.678,0,0,1-1.792-1.848V7.426h-1.288v4.662A2.881,2.881,0,0,0,133.294,15.168Zm5.39-.168h1.288V10.688A1.963,1.963,0,0,1,142,8.56a3.259,3.259,0,0,1,.532.056V7.384a2.713,2.713,0,0,0-.5-.042,2.453,2.453,0,0,0-2.17,1.288h-.014l-.14-1.2h-1.022Zm7.952.168a3.044,3.044,0,0,0,2.7-1.554L149.492,15h1.05V7.426h-1.05l-.154,1.4a3.058,3.058,0,0,0-2.7-1.568,3.664,3.664,0,0,0-3.444,3.962A3.668,3.668,0,0,0,146.636,15.168Zm.266-1.2a2.509,2.509,0,0,1-2.408-2.744,2.423,2.423,0,1,1,4.8-.014A2.521,2.521,0,0,1,146.9,13.964Zm9.492-6.706a2.732,2.732,0,0,0-2.324,1.316h-.042l-.14-1.148h-.994V15h1.288V10.38a1.832,1.832,0,0,1,1.89-1.89c1.134,0,1.736.63,1.736,1.96V15H159.1V9.988A2.543,2.543,0,0,0,156.394,7.258Zm5.782,3.948a2.613,2.613,0,0,1,2.59-2.744,3.2,3.2,0,0,1,2.03.644V7.79a3.879,3.879,0,0,0-2.1-.532,3.8,3.8,0,0,0-3.822,3.948,3.8,3.8,0,0,0,3.822,3.962,4.2,4.2,0,0,0,2.1-.518v-1.3a3.241,3.241,0,0,1-2.016.616A2.611,2.611,0,0,1,162.176,11.206Zm12.838-.14c0-2.492-1.47-3.808-3.262-3.808a3.719,3.719,0,0,0-3.654,3.99,3.645,3.645,0,0,0,3.836,3.92,4.413,4.413,0,0,0,2.646-.84V13.054a3.913,3.913,0,0,1-2.548.994,2.582,2.582,0,0,1-2.674-2.408h5.614A3.438,3.438,0,0,0,175.014,11.066Zm-5.656-.392a2.459,2.459,0,0,1,2.38-2.3,2.064,2.064,0,0,1,2.03,2.3Zm12.138.532a2.613,2.613,0,0,1,2.59-2.744,3.2,3.2,0,0,1,2.03.644V7.79a3.879,3.879,0,0,0-2.1-.532,3.8,3.8,0,0,0-3.822,3.948,3.8,3.8,0,0,0,3.822,3.962,4.2,4.2,0,0,0,2.1-.518v-1.3a3.241,3.241,0,0,1-2.016.616A2.611,2.611,0,0,1,181.5,11.206Zm9.688,3.962a3.757,3.757,0,0,0,3.752-3.948,3.771,3.771,0,1,0-7.532,0A3.763,3.763,0,0,0,191.184,15.168Zm0-1.2a2.536,2.536,0,0,1-2.478-2.744,2.486,2.486,0,1,1,4.942,0A2.542,2.542,0,0,1,191.184,13.964ZM198.464,15h1.4l2.758-7.574h-1.33l-2.086,6.146h-.042l-2.086-6.146h-1.372Zm11.844-3.934c0-2.492-1.47-3.808-3.262-3.808a3.719,3.719,0,0,0-3.654,3.99,3.645,3.645,0,0,0,3.836,3.92,4.413,4.413,0,0,0,2.646-.84V13.054a3.913,3.913,0,0,1-2.548.994,2.582,2.582,0,0,1-2.674-2.408h5.614A3.438,3.438,0,0,0,210.308,11.066Zm-5.656-.392a2.459,2.459,0,0,1,2.38-2.3,2.064,2.064,0,0,1,2.03,2.3Zm7.5,4.326h1.288V10.688a1.963,1.963,0,0,1,2.03-2.128,3.259,3.259,0,0,1,.532.056V7.384a2.713,2.713,0,0,0-.5-.042,2.453,2.453,0,0,0-2.17,1.288h-.014l-.14-1.2h-1.022Zm9.422-9.31a.784.784,0,1,0-.8-.784A.769.769,0,0,0,221.578,5.69ZM220.934,15h1.288V7.426h-1.288Zm6.048-7.742c-1.68,0-2.73.952-2.73,2.226,0,1.33,1.106,1.736,2.352,2.114,1.092.336,1.806.574,1.806,1.3,0,.672-.588,1.12-1.61,1.12a3.594,3.594,0,0,1-2.576-1.078v1.386a4.186,4.186,0,0,0,2.618.84c1.75,0,2.828-.9,2.828-2.282,0-1.526-1.316-1.9-2.478-2.24-1.022-.294-1.68-.546-1.68-1.218,0-.616.532-1.022,1.484-1.022a3.577,3.577,0,0,1,2.268.784V7.916A3.965,3.965,0,0,0,226.982,7.258ZM235.326,15h1.288V10.688a1.963,1.963,0,0,1,2.03-2.128,3.259,3.259,0,0,1,.532.056V7.384a2.713,2.713,0,0,0-.5-.042A2.453,2.453,0,0,0,236.5,8.63h-.014l-.14-1.2h-1.022Zm5.936-9.31a.784.784,0,1,0-.8-.784A.769.769,0,0,0,241.262,5.69ZM240.618,15h1.288V7.426h-1.288Zm6.622-7.728A3.624,3.624,0,0,0,243.8,11.08a3.594,3.594,0,0,0,3.444,3.794,3.085,3.085,0,0,0,2.6-1.428v1.148a2.339,2.339,0,0,1-2.492,2.31,4.133,4.133,0,0,1-2.772-1.12V17.17a4.793,4.793,0,0,0,2.828.938,3.537,3.537,0,0,0,3.724-3.724V7.426h-1.05l-.154,1.316A3.107,3.107,0,0,0,247.24,7.272Zm.252,1.19a2.43,2.43,0,0,1,2.394,2.576,2.489,2.489,0,0,1-2.394,2.66,2.463,2.463,0,0,1-2.394-2.6A2.472,2.472,0,0,1,247.492,8.462Zm7.28-4.662h-1.288V15h1.288V10.31a1.75,1.75,0,0,1,1.89-1.848c1.162,0,1.736.644,1.736,1.974V15h1.288V9.988a2.5,2.5,0,0,0-2.73-2.73,2.607,2.607,0,0,0-2.17,1.078h-.014Zm8.722,1.848h-1.232V7.426H261.1v1.12h1.134v3.808a2.506,2.506,0,0,0,2.7,2.744,4.745,4.745,0,0,0,.9-.084v-1.12a3.917,3.917,0,0,1-.672.07,1.5,1.5,0,0,1-1.666-1.666V8.546h2.17V7.426h-2.17ZM1.582,39H2.87V32.546H5.04v-1.12H2.856V30.46c0-1.064.518-1.526,1.456-1.526a3.252,3.252,0,0,1,1.106.2V27.94a4.17,4.17,0,0,0-1.26-.21,2.451,2.451,0,0,0-2.576,2.562v1.134H.49v1.12H1.582Zm7.924.168a3.757,3.757,0,0,0,3.752-3.948,3.771,3.771,0,1,0-7.532,0A3.763,3.763,0,0,0,9.506,39.168Zm0-1.2A2.536,2.536,0,0,1,7.028,35.22a2.549,2.549,0,0,1,2.478-2.758A2.547,2.547,0,0,1,11.97,35.22,2.542,2.542,0,0,1,9.506,37.964ZM15.134,39h1.288V34.688a1.963,1.963,0,0,1,2.03-2.128,3.259,3.259,0,0,1,.532.056V31.384a2.713,2.713,0,0,0-.5-.042,2.453,2.453,0,0,0-2.17,1.288H16.3l-.14-1.2H15.134Zm14.518-7.574H28.308l-2.086,5.768h-.028l-2.086-5.768h-1.4l2.828,7.308-1.3,3.206H25.55Zm4.522,7.742a3.757,3.757,0,0,0,3.752-3.948,3.771,3.771,0,1,0-7.532,0A3.763,3.763,0,0,0,34.174,39.168Zm0-1.2A2.536,2.536,0,0,1,31.7,35.22a2.486,2.486,0,1,1,4.942,0A2.542,2.542,0,0,1,34.174,37.964Zm8.61,1.2a2.918,2.918,0,0,0,3.136-3.08V31.426H44.632v4.69a1.707,1.707,0,0,1-1.848,1.848,1.678,1.678,0,0,1-1.792-1.848v-4.69H39.7v4.662A2.881,2.881,0,0,0,42.784,39.168Zm12.166,0a3.044,3.044,0,0,0,2.7-1.554L57.806,39h1.05V31.426h-1.05l-.154,1.4a3.058,3.058,0,0,0-2.7-1.568,3.664,3.664,0,0,0-3.444,3.962A3.668,3.668,0,0,0,54.95,39.168Zm.266-1.2a2.509,2.509,0,0,1-2.408-2.744,2.423,2.423,0,1,1,4.8-.014A2.521,2.521,0,0,1,55.216,37.964Zm9.492-6.706a2.732,2.732,0,0,0-2.324,1.316h-.042l-.14-1.148h-.994V39H62.5V34.38a1.832,1.832,0,0,1,1.89-1.89c1.134,0,1.736.63,1.736,1.96V39H67.41V33.988A2.543,2.543,0,0,0,64.708,31.258Zm7.938,7.91a3.06,3.06,0,0,0,2.7-1.554L75.5,39h1.05V27.8H75.264v4.942a2.973,2.973,0,0,0-2.618-1.484c-1.792,0-3.444,1.526-3.444,3.962A3.66,3.66,0,0,0,72.646,39.168Zm.266-1.2A2.52,2.52,0,0,1,70.49,35.22a2.423,2.423,0,1,1,4.8-.014A2.511,2.511,0,0,1,72.912,37.964ZM88.48,31.426H87.136L85.05,37.194h-.028l-2.086-5.768h-1.4l2.828,7.308-1.3,3.206h1.316ZM93,39.168a3.757,3.757,0,0,0,3.752-3.948,3.771,3.771,0,1,0-7.532,0A3.763,3.763,0,0,0,93,39.168Zm0-1.2a2.536,2.536,0,0,1-2.478-2.744,2.486,2.486,0,1,1,4.942,0A2.542,2.542,0,0,1,93,37.964Zm8.61,1.2a2.918,2.918,0,0,0,3.136-3.08V31.426H103.46v4.69a1.707,1.707,0,0,1-1.848,1.848,1.678,1.678,0,0,1-1.792-1.848v-4.69H98.532v4.662A2.881,2.881,0,0,0,101.612,39.168ZM107,39h1.288V34.688a1.963,1.963,0,0,1,2.03-2.128,3.259,3.259,0,0,1,.532.056V31.384a2.713,2.713,0,0,0-.5-.042,2.453,2.453,0,0,0-2.17,1.288h-.014l-.14-1.2H107Zm12.04.168a3.757,3.757,0,0,0,3.752-3.948,3.771,3.771,0,1,0-7.532,0A3.763,3.763,0,0,0,119.042,39.168Zm0-1.2a2.536,2.536,0,0,1-2.478-2.744,2.486,2.486,0,1,1,4.942,0A2.542,2.542,0,0,1,119.042,37.964Zm6.44-2.758a2.613,2.613,0,0,1,2.59-2.744,3.2,3.2,0,0,1,2.03.644V31.79a3.879,3.879,0,0,0-2.1-.532,3.957,3.957,0,0,0,0,7.91,4.2,4.2,0,0,0,2.1-.518v-1.3a3.241,3.241,0,0,1-2.016.616A2.611,2.611,0,0,1,125.482,35.206Zm7.21,0a2.613,2.613,0,0,1,2.59-2.744,3.2,3.2,0,0,1,2.03.644V31.79a3.879,3.879,0,0,0-2.1-.532,3.957,3.957,0,0,0,0,7.91,4.2,4.2,0,0,0,2.1-.518v-1.3a3.241,3.241,0,0,1-2.016.616A2.611,2.611,0,0,1,132.692,35.206Zm9.52,3.962a2.918,2.918,0,0,0,3.136-3.08V31.426H144.06v4.69a1.707,1.707,0,0,1-1.848,1.848,1.678,1.678,0,0,1-1.792-1.848v-4.69h-1.288v4.662A2.881,2.881,0,0,0,142.212,39.168Zm5.39,2.772h1.288V37.684a3.014,3.014,0,0,0,2.618,1.484c1.792,0,3.43-1.526,3.43-3.962a3.651,3.651,0,0,0-3.444-3.948,3.052,3.052,0,0,0-2.688,1.568l-.154-1.4H147.6Zm3.64-3.976a2.506,2.506,0,0,1-2.38-2.744,2.417,2.417,0,1,1,4.788-.014A2.506,2.506,0,0,1,151.242,37.964Zm8.54,1.2a3.044,3.044,0,0,0,2.7-1.554L162.638,39h1.05V31.426h-1.05l-.154,1.4a3.058,3.058,0,0,0-2.7-1.568,3.664,3.664,0,0,0-3.444,3.962A3.668,3.668,0,0,0,159.782,39.168Zm.266-1.2a2.509,2.509,0,0,1-2.408-2.744,2.423,2.423,0,1,1,4.8-.014A2.521,2.521,0,0,1,160.048,37.964Zm7.574-8.316H166.39v1.778h-1.162v1.12h1.134v3.808a2.506,2.506,0,0,0,2.7,2.744,4.744,4.744,0,0,0,.9-.084v-1.12a3.916,3.916,0,0,1-.672.07,1.5,1.5,0,0,1-1.666-1.666V32.546h2.17v-1.12h-2.17Zm4.55.042a.784.784,0,1,0-.8-.784A.769.769,0,0,0,172.172,29.69ZM171.528,39h1.288V31.426h-1.288Zm6.958.168a3.757,3.757,0,0,0,3.752-3.948,3.771,3.771,0,1,0-7.532,0A3.763,3.763,0,0,0,178.486,39.168Zm0-1.2a2.536,2.536,0,0,1-2.478-2.744,2.486,2.486,0,1,1,4.942,0A2.542,2.542,0,0,1,178.486,37.964Zm9.128-6.706a2.732,2.732,0,0,0-2.324,1.316h-.042l-.14-1.148h-.994V39H185.4V34.38a1.832,1.832,0,0,1,1.89-1.89c1.134,0,1.736.63,1.736,1.96V39h1.288V33.988A2.543,2.543,0,0,0,187.614,31.258ZM196.406,39h1.288V34.688a1.963,1.963,0,0,1,2.03-2.128,3.259,3.259,0,0,1,.532.056V31.384a2.713,2.713,0,0,0-.5-.042,2.453,2.453,0,0,0-2.17,1.288h-.014l-.14-1.2h-1.022Zm7.952.168a3.044,3.044,0,0,0,2.7-1.554L207.214,39h1.05V31.426h-1.05l-.154,1.4a3.058,3.058,0,0,0-2.7-1.568,3.664,3.664,0,0,0-3.444,3.962A3.668,3.668,0,0,0,204.358,39.168Zm.266-1.2a2.509,2.509,0,0,1-2.408-2.744,2.423,2.423,0,1,1,4.8-.014A2.521,2.521,0,0,1,204.624,37.964Zm7.574-8.316h-1.232v1.778H209.8v1.12h1.134v3.808a2.506,2.506,0,0,0,2.7,2.744,4.744,4.744,0,0,0,.9-.084v-1.12a3.916,3.916,0,0,1-.672.07A1.5,1.5,0,0,1,212.2,36.3V32.546h2.17v-1.12H212.2Zm4.55.042a.784.784,0,1,0-.8-.784A.769.769,0,0,0,216.748,29.69ZM216.1,39h1.288V31.426H216.1Zm7.168-7.742a2.732,2.732,0,0,0-2.324,1.316h-.042l-.14-1.148h-.994V39h1.288V34.38a1.832,1.832,0,0,1,1.89-1.89c1.134,0,1.736.63,1.736,1.96V39h1.288V33.988A2.543,2.543,0,0,0,223.272,31.258Zm7.924.014a3.624,3.624,0,0,0-3.444,3.808,3.594,3.594,0,0,0,3.444,3.794,3.085,3.085,0,0,0,2.6-1.428v1.148a2.339,2.339,0,0,1-2.492,2.31,4.133,4.133,0,0,1-2.772-1.12V41.17a4.793,4.793,0,0,0,2.828.938,3.537,3.537,0,0,0,3.724-3.724V31.426h-1.05l-.154,1.316A3.107,3.107,0,0,0,231.2,31.272Zm.252,1.19a2.43,2.43,0,0,1,2.394,2.576,2.489,2.489,0,0,1-2.394,2.66,2.628,2.628,0,0,1,0-5.236Zm10.486-2.772a.784.784,0,1,0-.8-.784A.769.769,0,0,0,241.934,29.69ZM241.29,39h1.288V31.426H241.29Zm6.048-7.742c-1.68,0-2.73.952-2.73,2.226,0,1.33,1.106,1.736,2.352,2.114,1.092.336,1.806.574,1.806,1.3,0,.672-.588,1.12-1.61,1.12a3.594,3.594,0,0,1-2.576-1.078v1.386a4.186,4.186,0,0,0,2.618.84c1.75,0,2.828-.9,2.828-2.282,0-1.526-1.316-1.9-2.478-2.24-1.022-.294-1.68-.546-1.68-1.218,0-.616.532-1.022,1.484-1.022a3.577,3.577,0,0,1,2.268.784V31.916A3.965,3.965,0,0,0,247.338,31.258ZM1.988,59.206a2.613,2.613,0,0,1,2.59-2.744,3.2,3.2,0,0,1,2.03.644V55.79a3.879,3.879,0,0,0-2.1-.532,3.957,3.957,0,0,0,0,7.91,4.2,4.2,0,0,0,2.1-.518v-1.3a3.241,3.241,0,0,1-2.016.616A2.611,2.611,0,0,1,1.988,59.206Zm9.688,3.962A3.959,3.959,0,1,0,7.9,59.22,3.757,3.757,0,0,0,11.676,63.168Zm0-1.2a2.766,2.766,0,0,1,0-5.5,2.768,2.768,0,0,1,0,5.5ZM17.3,63h1.288V58.688a1.963,1.963,0,0,1,2.03-2.128,3.259,3.259,0,0,1,.532.056V55.384a2.713,2.713,0,0,0-.5-.042,2.453,2.453,0,0,0-2.17,1.288h-.014l-.14-1.2H17.3Zm5.264,0h1.288V58.688a1.963,1.963,0,0,1,2.03-2.128,3.259,3.259,0,0,1,.532.056V55.384a2.713,2.713,0,0,0-.5-.042,2.453,2.453,0,0,0-2.17,1.288H23.73l-.14-1.2H22.568Zm11.438-3.934c0-2.492-1.47-3.808-3.262-3.808a3.719,3.719,0,0,0-3.654,3.99,3.645,3.645,0,0,0,3.836,3.92,4.413,4.413,0,0,0,2.646-.84V61.054a3.913,3.913,0,0,1-2.548.994A2.582,2.582,0,0,1,28.35,59.64h5.614A3.438,3.438,0,0,0,34.006,59.066Zm-5.656-.392a2.459,2.459,0,0,1,2.38-2.3,2.064,2.064,0,0,1,2.03,2.3Zm8.316.532a2.613,2.613,0,0,1,2.59-2.744,3.2,3.2,0,0,1,2.03.644V55.79a3.879,3.879,0,0,0-2.1-.532,3.957,3.957,0,0,0,0,7.91,4.2,4.2,0,0,0,2.1-.518v-1.3a3.241,3.241,0,0,1-2.016.616A2.611,2.611,0,0,1,36.666,59.206Zm8.12-5.558H43.554v1.778H42.392v1.12h1.134v3.808a2.506,2.506,0,0,0,2.7,2.744,4.745,4.745,0,0,0,.9-.084v-1.12a3.917,3.917,0,0,1-.672.07A1.5,1.5,0,0,1,44.786,60.3V56.546h2.17v-1.12h-2.17Zm4.466,9.422a.875.875,0,1,0-.868-.868A.855.855,0,0,0,49.252,63.07Z" transform="translate(72 464)"/><path d="M18.7,12.03a.661.661,0,0,1,.662-.662H21.7a.662.662,0,1,1,0,1.324H19.362A.685.685,0,0,1,18.7,12.03Zm19.367,0a.661.661,0,0,0,.662.662H41.1a.662.662,0,0,0,0-1.324H38.764A.649.649,0,0,0,38.067,12.03Zm.313,8.116a.7.7,0,0,0,0-.94l-1.637-1.637a.665.665,0,0,0-.94.94l1.637,1.637a.688.688,0,0,0,.488.209A.674.674,0,0,0,38.381,20.146Zm-10.206.662a.661.661,0,0,0-.662.662v.7a1.155,1.155,0,0,0,.94,1.115l.174.627a.816.816,0,0,0,.766.592H31.1a.816.816,0,0,0,.766-.592l.174-.627a1.127,1.127,0,0,0,.94-1.115v-.7a.661.661,0,0,0-.662-.662Zm-4.424-3.239-1.637,1.637a.7.7,0,0,0,0,.94.673.673,0,0,0,.975,0l1.637-1.637a.7.7,0,0,0,0-.94A.672.672,0,0,0,23.751,17.568Zm0-11.112a.673.673,0,0,0,.975,0,.7.7,0,0,0,0-.94L23.089,3.879a.665.665,0,0,0-.94.94Zm.557,5.608a5.922,5.922,0,1,1,11.843-.07,5.852,5.852,0,0,1-1.672,4.11,5.554,5.554,0,0,0-1.463,2.961.977.977,0,0,1-.975.836H28.384a.977.977,0,0,1-.975-.836,5.554,5.554,0,0,0-1.463-2.961A6.13,6.13,0,0,1,24.308,12.065Zm1.672-.035a.661.661,0,0,0,.662.662.685.685,0,0,0,.662-.662A2.944,2.944,0,0,1,30.23,9.1a.661.661,0,0,0,.662-.662.685.685,0,0,0-.662-.662A4.267,4.267,0,0,0,25.98,12.03ZM36.256,6.665a.688.688,0,0,0,.488-.209l1.637-1.637a.665.665,0,1,0-.94-.94L35.8,5.516a.7.7,0,0,0,0,.94A.562.562,0,0,0,36.256,6.665ZM30.23,4.157a.661.661,0,0,0,.662-.662V1.162a.662.662,0,0,0-1.324,0V3.5A.661.661,0,0,0,30.23,4.157Z" transform="translate(13.3 463.5)" fill="url(#b)"/><path d="M8.75-.49v-2A4.527,4.527,0,0,1,6.1-1.6,3.484,3.484,0,0,1,2.618-5.222,3.464,3.464,0,0,1,6.1-8.834,4.489,4.489,0,0,1,8.75-7.98V-9.954a5.713,5.713,0,0,0-2.828-.714A5.257,5.257,0,0,0,.616-5.222,5.257,5.257,0,0,0,5.922.224,5.713,5.713,0,0,0,8.75-.49Zm5.1.686A3.893,3.893,0,0,0,17.808-3.85a3.873,3.873,0,0,0-3.962-4.032A3.893,3.893,0,0,0,9.87-3.85,3.9,3.9,0,0,0,13.846.2Zm0-1.764a2.1,2.1,0,0,1-2.03-2.282,2.1,2.1,0,0,1,2.03-2.282A2.09,2.09,0,0,1,15.862-3.85,2.1,2.1,0,0,1,13.846-1.568ZM27.608-7.882A2.49,2.49,0,0,0,25.4-6.566,2.191,2.191,0,0,0,23.24-7.882a2.342,2.342,0,0,0-2.1,1.274H21.1L20.888-7.7h-1.5V0h1.932V-4.7A1.288,1.288,0,0,1,22.6-6.118c.84,0,1.176.462,1.176,1.386V0H25.7V-4.788a1.241,1.241,0,0,1,1.274-1.33c.826,0,1.162.462,1.162,1.386V0h1.932V-5.11C30.072-6.776,29.288-7.882,27.608-7.882ZM32.032,2.94h1.932V-1.19A2.972,2.972,0,0,0,36.47.2C38.276.2,39.9-1.386,39.9-3.85s-1.666-4.032-3.472-4.032A2.963,2.963,0,0,0,33.852-6.44l-.2-1.26H32.032Zm3.892-4.508A2.086,2.086,0,0,1,33.936-3.85a2.088,2.088,0,0,1,2-2.282,2.085,2.085,0,0,1,2.016,2.268A2.1,2.1,0,0,1,35.924-1.568ZM44.506.2a2.987,2.987,0,0,0,2.6-1.456l.2,1.26H48.93V-7.7H47.306l-.2,1.26a2.976,2.976,0,0,0-2.6-1.442c-1.75,0-3.444,1.6-3.444,4.046A3.75,3.75,0,0,0,44.506.2Zm.532-1.764a2.1,2.1,0,0,1-2.03-2.282,2.1,2.1,0,0,1,2.03-2.282A2.077,2.077,0,0,1,47.026-3.85,2.077,2.077,0,0,1,45.038-1.568ZM50.946,0h1.932V-3.962a1.807,1.807,0,0,1,1.9-2.016,3.057,3.057,0,0,1,.616.056V-7.728a2.3,2.3,0,0,0-.56-.056,2.4,2.4,0,0,0-2.128,1.26h-.028l-.2-1.176h-1.54ZM63.294-3.99c0-2.548-1.568-3.892-3.486-3.892a3.819,3.819,0,0,0-3.822,4.06A3.838,3.838,0,0,0,60.144.2,5,5,0,0,0,62.818-.56V-2.212a4.277,4.277,0,0,1-2.45.84A2.414,2.414,0,0,1,57.834-3.29h5.4A5.067,5.067,0,0,0,63.294-3.99ZM57.82-4.508a2.056,2.056,0,0,1,1.974-1.82,1.659,1.659,0,0,1,1.652,1.82Zm11.634-4.48a1.058,1.058,0,0,0,1.078-1.064,1.07,1.07,0,0,0-1.078-1.078,1.073,1.073,0,0,0-1.092,1.078A1.061,1.061,0,0,0,69.454-8.988ZM68.488,0H70.42V-7.7H68.488Zm8.036-7.882A2.716,2.716,0,0,0,74.2-6.594h-.042L73.948-7.7h-1.5V0h1.932V-4.606a1.467,1.467,0,0,1,1.526-1.512c.924,0,1.4.5,1.4,1.568V0H79.24V-5.138A2.53,2.53,0,0,0,76.524-7.882ZM83.034,0h2.058l2.814-7.7H85.918L84.126-2.058h-.042L82.292-7.7H80.234ZM95.7-3.99c0-2.548-1.568-3.892-3.486-3.892A3.819,3.819,0,0,0,88.4-3.822,3.838,3.838,0,0,0,92.554.2,5,5,0,0,0,95.228-.56V-2.212a4.277,4.277,0,0,1-2.45.84A2.414,2.414,0,0,1,90.244-3.29h5.4A5.067,5.067,0,0,0,95.7-3.99ZM90.23-4.508A2.056,2.056,0,0,1,92.2-6.328a1.659,1.659,0,0,1,1.652,1.82ZM100-7.882c-1.89,0-3.024,1.008-3.024,2.394s1.134,1.862,2.38,2.212c1.036.308,1.638.49,1.638,1.036,0,.5-.49.826-1.358.826a3.907,3.907,0,0,1-2.632-1.008V-.588A4.688,4.688,0,0,0,99.722.2c1.988,0,3.15-.966,3.15-2.45,0-1.6-1.344-2.016-2.576-2.338-.938-.252-1.442-.448-1.442-.938,0-.462.434-.756,1.218-.756a4.124,4.124,0,0,1,2.324.714V-7.266A4.628,4.628,0,0,0,100-7.882Zm6.692-1.61h-1.862V-7.7H103.7v1.61h1.12v3.206a2.769,2.769,0,0,0,3.01,3.038,4.956,4.956,0,0,0,1.106-.112V-1.61a4.073,4.073,0,0,1-.686.07c-.9,0-1.554-.406-1.554-1.442V-6.09h2.1V-7.7h-2.1Zm11.844,1.61a2.49,2.49,0,0,0-2.212,1.316,2.191,2.191,0,0,0-2.156-1.316,2.342,2.342,0,0,0-2.1,1.274h-.042l-.21-1.092h-1.5V0h1.932V-4.7a1.288,1.288,0,0,1,1.274-1.414c.84,0,1.176.462,1.176,1.386V0h1.932V-4.788a1.241,1.241,0,0,1,1.274-1.33c.826,0,1.162.462,1.162,1.386V0H121V-5.11C121-6.776,120.218-7.882,118.538-7.882Zm11.3,3.892c0-2.548-1.568-3.892-3.486-3.892a3.819,3.819,0,0,0-3.822,4.06A3.838,3.838,0,0,0,126.686.2,5,5,0,0,0,129.36-.56V-2.212a4.277,4.277,0,0,1-2.45.84,2.414,2.414,0,0,1-2.534-1.918h5.4A5.067,5.067,0,0,0,129.836-3.99Zm-5.474-.518a2.056,2.056,0,0,1,1.974-1.82,1.659,1.659,0,0,1,1.652,1.82Zm11.116-3.374a2.716,2.716,0,0,0-2.324,1.288h-.042L132.9-7.7h-1.5V0h1.932V-4.606a1.467,1.467,0,0,1,1.526-1.512c.924,0,1.4.5,1.4,1.568V0h1.932V-5.138A2.53,2.53,0,0,0,135.478-7.882Zm6.93-1.61h-1.862V-7.7h-1.134v1.61h1.12v3.206a2.769,2.769,0,0,0,3.01,3.038,4.956,4.956,0,0,0,1.106-.112V-1.61a4.073,4.073,0,0,1-.686.07c-.9,0-1.554-.406-1.554-1.442V-6.09h2.1V-7.7h-2.1ZM153.174.2a3.893,3.893,0,0,0,3.962-4.046,3.873,3.873,0,0,0-3.962-4.032A3.893,3.893,0,0,0,149.2-3.85,3.9,3.9,0,0,0,153.174.2Zm0-1.764a2.1,2.1,0,0,1-2.03-2.282,2.1,2.1,0,0,1,2.03-2.282A2.09,2.09,0,0,1,155.19-3.85,2.1,2.1,0,0,1,153.174-1.568Zm5.544,4.508h1.932V-1.19A2.972,2.972,0,0,0,163.156.2c1.806,0,3.43-1.582,3.43-4.046s-1.666-4.032-3.472-4.032a2.963,2.963,0,0,0-2.576,1.442l-.2-1.26h-1.624Zm3.892-4.508a2.086,2.086,0,0,1-1.988-2.282,2.088,2.088,0,0,1,2-2.282,2.085,2.085,0,0,1,2.016,2.268A2.1,2.1,0,0,1,162.61-1.568Zm7.784-7.924h-1.862V-7.7H167.4v1.61h1.12v3.206a2.769,2.769,0,0,0,3.01,3.038,4.956,4.956,0,0,0,1.106-.112V-1.61a4.073,4.073,0,0,1-.686.07c-.9,0-1.554-.406-1.554-1.442V-6.09h2.1V-7.7h-2.1Zm4.62.5a1.058,1.058,0,0,0,1.078-1.064,1.07,1.07,0,0,0-1.078-1.078,1.073,1.073,0,0,0-1.092,1.078A1.061,1.061,0,0,0,175.014-8.988ZM174.048,0h1.932V-7.7h-1.932Zm7.5.2a3.893,3.893,0,0,0,3.962-4.046,3.873,3.873,0,0,0-3.962-4.032,3.893,3.893,0,0,0-3.976,4.032A3.9,3.9,0,0,0,181.552.2Zm0-1.764a2.1,2.1,0,0,1-2.03-2.282,2.1,2.1,0,0,1,2.03-2.282,2.09,2.09,0,0,1,2.016,2.282A2.1,2.1,0,0,1,181.552-1.568Zm9.618-6.314a2.716,2.716,0,0,0-2.324,1.288H188.8l-.21-1.106h-1.5V0h1.932V-4.606a1.467,1.467,0,0,1,1.526-1.512c.924,0,1.4.5,1.4,1.568V0h1.932V-5.138A2.53,2.53,0,0,0,191.17-7.882Zm7.392,0c-1.89,0-3.024,1.008-3.024,2.394s1.134,1.862,2.38,2.212c1.036.308,1.638.49,1.638,1.036,0,.5-.49.826-1.358.826a3.907,3.907,0,0,1-2.632-1.008V-.588A4.687,4.687,0,0,0,198.282.2c1.988,0,3.15-.966,3.15-2.45,0-1.6-1.344-2.016-2.576-2.338-.938-.252-1.442-.448-1.442-.938,0-.462.434-.756,1.218-.756a4.124,4.124,0,0,1,2.324.714V-7.266A4.628,4.628,0,0,0,198.562-7.882Z" transform="translate(72 567)" fill="#00629b"/><path d="M6274,1336l4,4-4,4" transform="translate(-5992 -777.5)" fill="none" stroke="#00629b" stroke-linecap="square" stroke-width="2"/><path d="M-714,270l6,6,6-6" transform="translate(895.5 332.5)" fill="none" stroke="#c1c6c8" stroke-width="2"/><path d="M5.088.18A4.426,4.426,0,0,0,9.516-4.464,4.44,4.44,0,0,0,5.088-9.108,4.442,4.442,0,0,0,.648-4.464,4.421,4.421,0,0,0,5.088.18Zm0-1.056a3.35,3.35,0,0,1-3.3-3.588,3.344,3.344,0,0,1,3.3-3.588A3.348,3.348,0,0,1,8.376-4.464,3.348,3.348,0,0,1,5.088-.876Zm6.78-2.376A2.239,2.239,0,0,1,14.088-5.6a2.74,2.74,0,0,1,1.74.552V-6.18a3.325,3.325,0,0,0-1.8-.456,3.261,3.261,0,0,0-3.276,3.384,3.257,3.257,0,0,0,3.276,3.4,3.6,3.6,0,0,0,1.8-.444V-1.416A2.778,2.778,0,0,1,14.1-.888,2.238,2.238,0,0,1,11.868-3.252Zm6.18,0A2.239,2.239,0,0,1,20.268-5.6a2.74,2.74,0,0,1,1.74.552V-6.18a3.325,3.325,0,0,0-1.8-.456,3.261,3.261,0,0,0-3.276,3.384,3.257,3.257,0,0,0,3.276,3.4,3.6,3.6,0,0,0,1.8-.444V-1.416a2.778,2.778,0,0,1-1.728.528A2.238,2.238,0,0,1,18.048-3.252Zm8.16,3.4A2.5,2.5,0,0,0,28.9-2.5v-4h-1.1v4.02A1.463,1.463,0,0,1,26.208-.888a1.438,1.438,0,0,1-1.536-1.584v-4.02h-1.1v4A2.469,2.469,0,0,0,26.208.144Zm4.62,2.376h1.1V-1.128A2.584,2.584,0,0,0,34.176.144a3.118,3.118,0,0,0,2.94-3.4,3.129,3.129,0,0,0-2.952-3.384,2.616,2.616,0,0,0-2.3,1.344l-.132-1.2h-.9Zm3.12-3.408a2.148,2.148,0,0,1-2.04-2.352A2.152,2.152,0,0,1,33.948-5.6a2.151,2.151,0,0,1,2.064,2.352A2.148,2.148,0,0,1,33.948-.888ZM41.268.144a2.61,2.61,0,0,0,2.316-1.332L43.716,0h.9V-6.492h-.9l-.132,1.2a2.621,2.621,0,0,0-2.316-1.344,3.141,3.141,0,0,0-2.952,3.4A3.144,3.144,0,0,0,41.268.144ZM41.5-.888A2.151,2.151,0,0,1,39.432-3.24,2.155,2.155,0,0,1,41.5-5.6a2.157,2.157,0,0,1,2.052,2.352A2.161,2.161,0,0,1,41.5-.888Zm6.492-7.128H46.932v1.524h-1v.96h.972v3.264A2.148,2.148,0,0,0,49.224.084a4.067,4.067,0,0,0,.768-.072v-.96a3.357,3.357,0,0,1-.576.06,1.289,1.289,0,0,1-1.428-1.428V-5.532h1.86v-.96h-1.86Zm3.9.036a.659.659,0,0,0,.684-.672.659.659,0,0,0-.684-.672.659.659,0,0,0-.684.672A.659.659,0,0,0,51.888-7.98ZM51.336,0h1.1V-6.492h-1.1ZM57.3.144A3.22,3.22,0,0,0,60.516-3.24a3.224,3.224,0,0,0-3.216-3.4,3.236,3.236,0,0,0-3.24,3.4A3.225,3.225,0,0,0,57.3.144Zm0-1.032A2.174,2.174,0,0,1,55.176-3.24,2.185,2.185,0,0,1,57.3-5.6,2.183,2.183,0,0,1,59.412-3.24,2.179,2.179,0,0,1,57.3-.888Zm7.824-5.748a2.342,2.342,0,0,0-1.992,1.128H63.1l-.12-.984h-.852V0h1.1V-3.96a1.57,1.57,0,0,1,1.62-1.62c.972,0,1.488.54,1.488,1.68V0h1.1V-4.3A2.18,2.18,0,0,0,65.124-6.636ZM72.66,0h1.1V-3.7A1.682,1.682,0,0,1,75.5-5.52a2.793,2.793,0,0,1,.456.048V-6.528a2.325,2.325,0,0,0-.432-.036,2.1,2.1,0,0,0-1.86,1.1h-.012l-.12-1.032H72.66Zm6.816.144a2.61,2.61,0,0,0,2.316-1.332L81.924,0h.9V-6.492h-.9l-.132,1.2a2.621,2.621,0,0,0-2.316-1.344,3.141,3.141,0,0,0-2.952,3.4A3.144,3.144,0,0,0,79.476.144ZM79.7-.888A2.151,2.151,0,0,1,77.64-3.24,2.155,2.155,0,0,1,79.7-5.6a2.157,2.157,0,0,1,2.052,2.352A2.161,2.161,0,0,1,79.7-.888ZM86.2-8.016H85.14v1.524h-1v.96h.972v3.264A2.148,2.148,0,0,0,87.432.084,4.067,4.067,0,0,0,88.2.012v-.96a3.357,3.357,0,0,1-.576.06A1.289,1.289,0,0,1,86.2-2.316V-5.532h1.86v-.96H86.2Zm3.9.036a.659.659,0,0,0,.684-.672.659.659,0,0,0-.684-.672.659.659,0,0,0-.684.672A.659.659,0,0,0,90.1-7.98ZM89.544,0h1.1V-6.492h-1.1Zm6.144-6.636A2.342,2.342,0,0,0,93.7-5.508H93.66l-.12-.984h-.852V0h1.1V-3.96a1.57,1.57,0,0,1,1.62-1.62c.972,0,1.488.54,1.488,1.68V0H98V-4.3A2.18,2.18,0,0,0,95.688-6.636Zm6.792.012A3.107,3.107,0,0,0,99.528-3.36,3.08,3.08,0,0,0,102.48-.108a2.644,2.644,0,0,0,2.232-1.224v.984a2.005,2.005,0,0,1-2.136,1.98A3.543,3.543,0,0,1,100.2.672V1.86a4.108,4.108,0,0,0,2.424.8,3.032,3.032,0,0,0,3.192-3.192V-6.492h-.9l-.132,1.128A2.663,2.663,0,0,0,102.48-6.624ZM102.7-5.6A2.083,2.083,0,0,1,104.748-3.4a2.133,2.133,0,0,1-2.052,2.28,2.112,2.112,0,0,1-2.052-2.232A2.119,2.119,0,0,1,102.7-5.6Z" transform="translate(32 169)"/><path d="M1.224,0H2.34V-8.928H1.224ZM7.572-6.636A2.342,2.342,0,0,0,5.58-5.508H5.544l-.12-.984H4.572V0h1.1V-3.96A1.57,1.57,0,0,1,7.3-5.58c.972,0,1.488.54,1.488,1.68V0h1.1V-4.3A2.18,2.18,0,0,0,7.572-6.636Zm6.3,0c-1.44,0-2.34.816-2.34,1.908,0,1.14.948,1.488,2.016,1.812.936.288,1.548.492,1.548,1.116,0,.576-.5.96-1.38.96a3.081,3.081,0,0,1-2.208-.924V-.576a3.588,3.588,0,0,0,2.244.72c1.5,0,2.424-.768,2.424-1.956,0-1.308-1.128-1.632-2.124-1.92-.876-.252-1.44-.468-1.44-1.044,0-.528.456-.876,1.272-.876a3.066,3.066,0,0,1,1.944.672V-6.072A3.4,3.4,0,0,0,13.872-6.636ZM20.3.144A2.5,2.5,0,0,0,22.992-2.5v-4h-1.1v4.02A1.463,1.463,0,0,1,20.3-.888a1.438,1.438,0,0,1-1.536-1.584v-4.02h-1.1v4A2.469,2.469,0,0,0,20.3.144ZM24.924,0h1.1V-3.7a1.682,1.682,0,0,1,1.74-1.824,2.793,2.793,0,0,1,.456.048V-6.528a2.325,2.325,0,0,0-.432-.036,2.1,2.1,0,0,0-1.86,1.1H25.92L25.8-6.492h-.876ZM31.74.144a2.61,2.61,0,0,0,2.316-1.332L34.188,0h.9V-6.492h-.9l-.132,1.2A2.621,2.621,0,0,0,31.74-6.636a3.141,3.141,0,0,0-2.952,3.4A3.144,3.144,0,0,0,31.74.144Zm.228-1.032A2.151,2.151,0,0,1,29.9-3.24,2.155,2.155,0,0,1,31.968-5.6,2.157,2.157,0,0,1,34.02-3.252,2.161,2.161,0,0,1,31.968-.888ZM40.1-6.636a2.342,2.342,0,0,0-1.992,1.128h-.036l-.12-.984H37.1V0h1.1V-3.96a1.57,1.57,0,0,1,1.62-1.62c.972,0,1.488.54,1.488,1.68V0h1.1V-4.3A2.18,2.18,0,0,0,40.1-6.636ZM45.06-3.252A2.239,2.239,0,0,1,47.28-5.6a2.74,2.74,0,0,1,1.74.552V-6.18a3.325,3.325,0,0,0-1.8-.456,3.261,3.261,0,0,0-3.276,3.384A3.257,3.257,0,0,0,47.22.144,3.6,3.6,0,0,0,49.02-.3V-1.416a2.778,2.778,0,0,1-1.728.528A2.238,2.238,0,0,1,45.06-3.252Zm11-.12c0-2.136-1.26-3.264-2.8-3.264a3.188,3.188,0,0,0-3.132,3.42A3.125,3.125,0,0,0,53.424.144a3.782,3.782,0,0,0,2.268-.72V-1.668a3.354,3.354,0,0,1-2.184.852A2.213,2.213,0,0,1,51.216-2.88h4.812A2.947,2.947,0,0,0,56.064-3.372Zm-4.848-.336a2.108,2.108,0,0,1,2.04-1.968A1.769,1.769,0,0,1,55-3.708Zm10.4.456A2.239,2.239,0,0,1,63.84-5.6a2.74,2.74,0,0,1,1.74.552V-6.18a3.325,3.325,0,0,0-1.8-.456A3.261,3.261,0,0,0,60.5-3.252,3.257,3.257,0,0,0,63.78.144,3.6,3.6,0,0,0,65.58-.3V-1.416a2.778,2.778,0,0,1-1.728.528A2.238,2.238,0,0,1,61.62-3.252Zm8.3,3.4A3.22,3.22,0,0,0,73.14-3.24a3.224,3.224,0,0,0-3.216-3.4,3.236,3.236,0,0,0-3.24,3.4A3.225,3.225,0,0,0,69.924.144Zm0-1.032A2.174,2.174,0,0,1,67.8-3.24,2.185,2.185,0,0,1,69.924-5.6,2.183,2.183,0,0,1,72.036-3.24,2.179,2.179,0,0,1,69.924-.888Zm6.864-5.748c-1.44,0-2.34.816-2.34,1.908,0,1.14.948,1.488,2.016,1.812.936.288,1.548.492,1.548,1.116,0,.576-.5.96-1.38.96a3.081,3.081,0,0,1-2.208-.924V-.576a3.588,3.588,0,0,0,2.244.72c1.5,0,2.424-.768,2.424-1.956,0-1.308-1.128-1.632-2.124-1.92-.876-.252-1.44-.468-1.44-1.044,0-.528.456-.876,1.272-.876a3.066,3.066,0,0,1,1.944.672V-6.072A3.4,3.4,0,0,0,76.788-6.636Zm5.22-1.38H80.952v1.524h-1v.96h.972v3.264A2.148,2.148,0,0,0,83.244.084a4.067,4.067,0,0,0,.768-.072v-.96a3.357,3.357,0,0,1-.576.06,1.289,1.289,0,0,1-1.428-1.428V-5.532h1.86v-.96h-1.86Z" transform="translate(216 169)"/><path d="M1.62,0H4.88V-4.22H6.22c4.06,0,6.3-2.44,6.3-5.46,0-3.2-2.4-5.24-6.5-5.24H1.62ZM6.36-7.12H4.88v-4.82H6.34c1.7,0,2.88.82,2.88,2.38S8.04-7.12,6.36-7.12ZM14.4,0h3.2V-5.42a2.474,2.474,0,0,1,2.62-2.8,3.6,3.6,0,0,1,.92.1v-3a3.418,3.418,0,0,0-.84-.08,3.392,3.392,0,0,0-3,1.78h-.04l-.32-1.66H14.4ZM27.74.28a5.643,5.643,0,0,0,5.82-5.82,5.62,5.62,0,0,0-5.82-5.82,5.643,5.643,0,0,0-5.82,5.82A5.654,5.654,0,0,0,27.74.28Zm0-2.88a2.686,2.686,0,0,1-2.58-2.94,2.686,2.686,0,0,1,2.58-2.94,2.7,2.7,0,0,1,2.6,2.94A2.713,2.713,0,0,1,27.74-2.6ZM36.3,0h3.2V-8.44h2.88v-2.64H39.46v-.86c0-1.06.6-1.52,1.76-1.52a5.56,5.56,0,0,1,1.56.24V-15.9a6.916,6.916,0,0,0-2.12-.34A4.039,4.039,0,0,0,36.3-12.2v1.12H34.78v2.64H36.3ZM53.82-5.72c0-3.7-2.3-5.64-5.12-5.64A5.539,5.539,0,0,0,43.14-5.5c0,3.36,2.24,5.78,6.14,5.78a7.6,7.6,0,0,0,3.86-1V-3.34a6.438,6.438,0,0,1-3.46,1.1,3.331,3.331,0,0,1-3.48-2.4h7.54A5.942,5.942,0,0,0,53.82-5.72Zm-7.68-.84a2.665,2.665,0,0,1,2.54-2.28,2.089,2.089,0,0,1,2.1,2.28Zm13.88-4.8c-2.86,0-4.52,1.5-4.52,3.54,0,2.02,1.64,2.74,3.4,3.24,1.44.4,2.24.62,2.24,1.3,0,.6-.64.96-1.76.96A5.964,5.964,0,0,1,55.56-3.7V-.76A7.3,7.3,0,0,0,59.52.28c3,0,4.72-1.4,4.72-3.58,0-2.34-1.94-2.96-3.76-3.4-1.26-.34-1.9-.58-1.9-1.18,0-.54.56-.88,1.56-.88a6.424,6.424,0,0,1,3.38.98V-10.5A6.972,6.972,0,0,0,60.02-11.36Zm10.4,0c-2.86,0-4.52,1.5-4.52,3.54,0,2.02,1.64,2.74,3.4,3.24,1.44.4,2.24.62,2.24,1.3,0,.6-.64.96-1.76.96A5.964,5.964,0,0,1,65.96-3.7V-.76A7.3,7.3,0,0,0,69.92.28c3,0,4.72-1.4,4.72-3.58,0-2.34-1.94-2.96-3.76-3.4-1.26-.34-1.9-.58-1.9-1.18,0-.54.56-.88,1.56-.88a6.424,6.424,0,0,1,3.38.98V-10.5A6.972,6.972,0,0,0,70.42-11.36Zm7.9-1.24a1.729,1.729,0,0,0,1.74-1.74,1.724,1.724,0,0,0-1.74-1.72,1.717,1.717,0,0,0-1.76,1.72A1.721,1.721,0,0,0,78.32-12.6ZM76.72,0h3.2V-11.08h-3.2ZM87.8.28a5.643,5.643,0,0,0,5.82-5.82,5.62,5.62,0,0,0-5.82-5.82,5.643,5.643,0,0,0-5.82,5.82A5.654,5.654,0,0,0,87.8.28Zm0-2.88a2.686,2.686,0,0,1-2.58-2.94A2.686,2.686,0,0,1,87.8-8.48a2.7,2.7,0,0,1,2.6,2.94A2.713,2.713,0,0,1,87.8-2.6Zm14.08-8.76a3.9,3.9,0,0,0-3.34,1.84h-.06l-.32-1.56H95.68V0h3.2V-6.56a1.833,1.833,0,0,1,1.92-1.9c1.16,0,1.76.62,1.76,1.98V0h3.2V-7.4A3.616,3.616,0,0,0,101.88-11.36ZM112.66.28A4.165,4.165,0,0,0,116.3-1.7l.32,1.7h2.7V-11.08h-2.7l-.32,1.7a4.209,4.209,0,0,0-3.64-1.98c-2.5,0-4.92,2.32-4.92,5.86C107.74-2.04,110.16.28,112.66.28Zm.94-2.88a2.717,2.717,0,0,1-2.64-2.94,2.729,2.729,0,0,1,2.64-2.94,2.685,2.685,0,0,1,2.58,2.94A2.685,2.685,0,0,1,113.6-2.6ZM122,0h3.2V-16.06H122Zm23.98,0-5.66-14.92h-3.76L130.98,0h3.4l1.28-3.64h5.58L142.56,0Zm-7.54-11.52,1.88,5.2h-3.76Z" transform="translate(32 141)"/><path d="M10.78-4.48c0-2.74-2.06-3.66-4.1-4.36-1.28-.44-2.3-.86-2.3-1.76,0-.76.76-1.38,2.04-1.38a6.208,6.208,0,0,1,3.5,1.18v-3.14a7.951,7.951,0,0,0-2.8-.86v-1.48H4.52v1.64A4.21,4.21,0,0,0,1.1-10.6c0,2.64,1.98,3.56,4,4.26,1.38.46,2.38.9,2.38,1.88s-.96,1.6-2.36,1.6A5.784,5.784,0,0,1,1.14-4.54v3.36A8.089,8.089,0,0,0,4.52-.04V1.44h2.6V-.18A4.486,4.486,0,0,0,10.78-4.48Zm11-10.44h-7.4l-1.2,8.1.5.34a5.854,5.854,0,0,1,2.48-.54c2,0,2.98.98,2.98,2.2,0,1.2-.96,2.14-2.7,2.14A5.572,5.572,0,0,1,12.6-4.24V-.9A7.1,7.1,0,0,0,16.78.34c3.86,0,5.74-2.6,5.74-5.18,0-2.44-1.8-4.66-5.12-4.66a5.2,5.2,0,0,0-1.24.16l.48-2.64h5.14ZM27.36,0h3.2V-15.06h-.24l-6.26,2.44V-9.4l3.3-1.34Zm8.08.14a1.793,1.793,0,0,0,1.8-1.8,1.78,1.78,0,0,0-1.8-1.8,1.78,1.78,0,0,0-1.8,1.8A1.793,1.793,0,0,0,35.44.14ZM47.8-7.68v-.04a3.66,3.66,0,0,0,2.08-3.38c0-2.18-1.86-4.16-5.18-4.16-3.3,0-5.18,1.98-5.18,4.18A3.619,3.619,0,0,0,41.6-7.72v.04a3.81,3.81,0,0,0-2.5,3.64C39.1-1.7,41.2.34,44.7.34c3.56,0,5.62-2.02,5.62-4.38A3.748,3.748,0,0,0,47.8-7.68Zm-5.28-2.98a2,2,0,0,1,2.18-1.92,2.023,2.023,0,0,1,2.2,1.92,1.988,1.988,0,0,1-2.2,1.92A1.981,1.981,0,0,1,42.52-10.66ZM44.7-6.38a2.168,2.168,0,0,1,2.44,2.04A2.168,2.168,0,0,1,44.7-2.3a2.154,2.154,0,0,1-2.4-2.04A2.142,2.142,0,0,1,44.7-6.38Zm16.34-1.3v-.04a3.66,3.66,0,0,0,2.08-3.38c0-2.18-1.86-4.16-5.18-4.16-3.3,0-5.18,1.98-5.18,4.18a3.619,3.619,0,0,0,2.08,3.36v.04a3.81,3.81,0,0,0-2.5,3.64c0,2.34,2.1,4.38,5.6,4.38,3.56,0,5.62-2.02,5.62-4.38A3.748,3.748,0,0,0,61.04-7.68Zm-5.28-2.98a2,2,0,0,1,2.18-1.92,2.023,2.023,0,0,1,2.2,1.92,1.988,1.988,0,0,1-2.2,1.92A1.981,1.981,0,0,1,55.76-10.66Zm2.18,4.28a2.168,2.168,0,0,1,2.44,2.04A2.168,2.168,0,0,1,57.94-2.3a2.154,2.154,0,0,1-2.4-2.04A2.142,2.142,0,0,1,57.94-6.38Z" transform="translate(216 141)"/><path d="M5.71-2.86A2.533,2.533,0,0,0,3.15-5.68,2.769,2.769,0,0,0,.37-2.75,2.791,2.791,0,0,0,3.44.14a3.8,3.8,0,0,0,1.93-.5V-1.67a3.219,3.219,0,0,1-1.73.55A1.666,1.666,0,0,1,1.9-2.32H5.67A2.971,2.971,0,0,0,5.71-2.86ZM1.87-3.28A1.333,1.333,0,0,1,3.14-4.42,1.045,1.045,0,0,1,4.19-3.28ZM8.91.14a2.083,2.083,0,0,0,1.82-.99l.16.85h1.35V-5.54H10.89l-.16.85a2.1,2.1,0,0,0-1.82-.99A2.7,2.7,0,0,0,6.45-2.75,2.688,2.688,0,0,0,8.91.14ZM9.38-1.3A1.359,1.359,0,0,1,8.06-2.77,1.364,1.364,0,0,1,9.38-4.24a1.343,1.343,0,0,1,1.29,1.47A1.343,1.343,0,0,1,9.38-1.3Zm5.5-1.47a1.45,1.45,0,0,1,1.53-1.47,2.429,2.429,0,0,1,1.39.42V-5.29a3.248,3.248,0,0,0-1.63-.39,2.837,2.837,0,0,0-2.91,2.9A2.835,2.835,0,0,0,16.17.14,3.593,3.593,0,0,0,17.8-.24V-1.71a2.3,2.3,0,0,1-1.39.41A1.444,1.444,0,0,1,14.88-2.77Zm5.66-5.26h-1.6V0h1.6V-3.31a.9.9,0,0,1,.96-.93c.59,0,.88.31.88.99V0h1.6V-3.7a1.806,1.806,0,0,0-1.95-1.98A1.9,1.9,0,0,0,20.55-5h-.01ZM5.87,2.46H4.23L3.04,6.11H3L1.81,2.46H.1L2.19,7.85,1.25,10.1H2.84Zm5.58,2.68A2.533,2.533,0,0,0,8.89,2.32,2.769,2.769,0,0,0,6.11,5.25,2.791,2.791,0,0,0,9.18,8.14a3.8,3.8,0,0,0,1.93-.5V6.33a3.219,3.219,0,0,1-1.73.55,1.666,1.666,0,0,1-1.74-1.2h3.77A2.971,2.971,0,0,0,11.45,5.14ZM7.61,4.72A1.333,1.333,0,0,1,8.88,3.58,1.045,1.045,0,0,1,9.93,4.72Zm7.04,3.42a2.083,2.083,0,0,0,1.82-.99l.16.85h1.35V2.46H16.63l-.16.85a2.1,2.1,0,0,0-1.82-.99,2.7,2.7,0,0,0-2.46,2.93A2.688,2.688,0,0,0,14.65,8.14Zm.47-1.44A1.359,1.359,0,0,1,13.8,5.23a1.364,1.364,0,0,1,1.32-1.47,1.343,1.343,0,0,1,1.29,1.47A1.343,1.343,0,0,1,15.12,6.7ZM19.31,8h1.6V5.29a1.237,1.237,0,0,1,1.31-1.4,1.8,1.8,0,0,1,.46.05V2.44a1.781,1.781,0,0,0-1.92.85h-.02l-.16-.83H19.31Z" transform="translate(291 132)"/><g transform="translate(20 246)" clip-path="url(#c)" style="isolation:isolate"><g transform="translate(-20 -246)"><g transform="matrix(1, 0, 0, 1, 0, 0)" filter="url(#d)"><rect width="120" height="160" rx="8" transform="translate(32 256)" fill="#fff"/></g><path d="M4.214-10.444H1.134V0h3.08C7.574,0,9.9-2.072,9.9-5.222S7.616-10.444,4.214-10.444Zm-.8,2.086h.9a2.976,2.976,0,0,1,3.276,3.15A2.979,2.979,0,0,1,4.312-2.072h-.9ZM18.466-4c0-2.59-1.61-3.948-3.584-3.948a3.877,3.877,0,0,0-3.892,4.1C10.99-1.5,12.558.2,15.288.2a5.323,5.323,0,0,0,2.7-.7V-2.338a4.507,4.507,0,0,1-2.422.77,2.332,2.332,0,0,1-2.436-1.68H18.41A4.16,4.16,0,0,0,18.466-4ZM13.09-4.592a1.866,1.866,0,0,1,1.778-1.6,1.462,1.462,0,0,1,1.47,1.6ZM22.946.2A2.916,2.916,0,0,0,25.494-1.19L25.718,0h1.89V-7.756h-1.89l-.224,1.19a2.946,2.946,0,0,0-2.548-1.386c-1.75,0-3.444,1.624-3.444,4.1A3.763,3.763,0,0,0,22.946.2ZM23.6-1.82a1.9,1.9,0,0,1-1.848-2.058A1.91,1.91,0,0,1,23.6-5.936,1.88,1.88,0,0,1,25.41-3.878,1.88,1.88,0,0,1,23.6-1.82Zm8.5-7.728H29.946v1.792H28.84v1.848h1.092v2.926A2.884,2.884,0,0,0,33.1.168,5.317,5.317,0,0,0,34.314.042V-1.834a4.383,4.383,0,0,1-.7.07c-.868,0-1.512-.378-1.512-1.358V-5.908h2.072V-7.756H32.1Zm5.768-1.694H35.63V0h2.24V-4.634a1.253,1.253,0,0,1,1.344-1.3c.826,0,1.232.434,1.232,1.386V0h2.24V-5.18a2.528,2.528,0,0,0-2.73-2.772A2.657,2.657,0,0,0,37.884-7H37.87Z" transform="translate(48 327)"/><path d="M-6592,10a5.006,5.006,0,0,1-5-5,5.006,5.006,0,0,1,5-5,5,5,0,0,1,5,5A5,5,0,0,1-6592,10Zm0-6.071a.716.716,0,0,0-.713.717V7.5a.707.707,0,0,0,.713.717.716.716,0,0,0,.714-.717V4.645A.708.708,0,0,0-6592,3.929Zm0-2.143a.715.715,0,0,0-.713.714.715.715,0,0,0,.713.714.714.714,0,0,0,.714-.714A.714.714,0,0,0-6592,1.786Z" transform="translate(6723.001 272)" fill="#c1c6c8"/><g transform="translate(-4 -2955)"><path d="M-118.2,268.977v-6.23c0-.539-.156-.692-.7-.77-1.095-.154-2.19-.23-3.285-.461a27.524,27.524,0,0,1-9.307-4.231,1.62,1.62,0,0,0-.7-.385c-.156,0-.313.077-.7.308A25.08,25.08,0,0,1-145.34,261.9c-.7.077-.86.231-.86.923v11.231a16.684,16.684,0,0,0,.313,2.769,12.46,12.46,0,0,0,3.6,6.077,27.117,27.117,0,0,0,9.7,5.923c.078,0,.156.077.313.077a.594.594,0,0,0,.391-.077c1.251-.538,2.5-1.077,3.754-1.692a20.461,20.461,0,0,0,7.352-6,11.09,11.09,0,0,0,2.346-6.154A50.656,50.656,0,0,0-118.2,268.977Z" transform="translate(198.2 2970.1)" fill="#00629b"/><g transform="translate(0.167 -0.499)"><path d="M37.184,7.922q-.037-.275-.1-.55a4.166,4.166,0,0,0-5.656-3.348,10.023,10.023,0,0,0-1.685.862.977.977,0,0,1-.447.128h-.019a.977.977,0,0,1-.447-.128,10.023,10.023,0,0,0-1.685-.862,4.166,4.166,0,0,0-5.656,3.348q-.061.275-.1.55a3.353,3.353,0,0,0-.078,1.267,6.494,6.494,0,0,0,2.619,4.965c1.156.938,2.447,1.7,3.681,2.538.467.32.943.623,1.4.96a.461.461,0,0,0,.258.111v0h.035v0a.461.461,0,0,0,.258-.111c.455-.337.93-.64,1.4-.96,1.234-.836,2.525-1.6,3.681-2.538a6.494,6.494,0,0,0,2.619-4.965A3.353,3.353,0,0,0,37.184,7.922Z" transform="translate(36.545 3233.732)" fill="none" stroke="#fff" stroke-linecap="round" stroke-linejoin="round" stroke-width="1"/><g transform="translate(62.833 3241.328)"><path d="M22270,10518h6" transform="translate(-22269.998 -10514.997)" fill="none" stroke="#fff" stroke-linecap="round" stroke-width="1"/><path d="M22286,10502v6" transform="translate(-22283.01 -10502)" fill="none" stroke="#fff" stroke-linecap="round" stroke-width="1"/></g></g></g><path d="M5.168,1.392V-.24A3.066,3.066,0,0,0,8.016-3.2c0-1.44-.768-2.32-2.672-2.992-1.36-.512-1.92-.848-1.92-1.376,0-.448.336-.9,1.376-.9a5.306,5.306,0,0,1,2.3.544l.464-1.808a5.76,5.76,0,0,0-2.32-.528v-1.408H3.68v1.52A2.957,2.957,0,0,0,.976-7.3c0,1.552,1.168,2.352,2.88,2.928,1.184.4,1.7.784,1.7,1.392,0,.64-.624.992-1.536.992a5.649,5.649,0,0,1-2.656-.7L.88-.816A6.437,6.437,0,0,0,3.6-.128v1.52ZM12.656,0h2.352V-10.4H12.992L10.24-9.12l.4,1.824,1.984-.944h.032Zm6.752,1.76A22.147,22.147,0,0,0,21.424-2.8l-2.48.16A27.028,27.028,0,0,1,17.792,1.9ZM29.968,0V-2h-3.92v-.032l.96-.8c1.5-1.344,2.768-2.736,2.768-4.48,0-1.888-1.3-3.264-3.648-3.264A5.758,5.758,0,0,0,22.72-9.5l.688,1.744a3.769,3.769,0,0,1,2.224-.864c1.2,0,1.712.672,1.712,1.52-.032,1.216-1.136,2.384-3.408,4.416L22.592-1.472V0ZM35.28-10.576c-2.688,0-3.968,2.384-3.968,5.392.016,2.944,1.2,5.36,3.888,5.36,2.656,0,3.952-2.208,3.952-5.424C39.152-8.1,38.064-10.576,35.28-10.576Zm-.032,1.84c.976,0,1.472,1.216,1.472,3.52,0,2.368-.512,3.552-1.456,3.552s-1.52-1.136-1.5-3.52C33.744-7.6,34.352-8.736,35.248-8.736Zm8.912-1.84c-2.688,0-3.968,2.384-3.968,5.392.016,2.944,1.2,5.36,3.888,5.36,2.656,0,3.952-2.208,3.952-5.424C48.032-8.1,46.944-10.576,44.16-10.576Zm-.032,1.84c.976,0,1.472,1.216,1.472,3.52,0,2.368-.512,3.552-1.456,3.552s-1.52-1.136-1.5-3.52C42.624-7.6,43.232-8.736,44.128-8.736Zm6.08,10.5A22.147,22.147,0,0,0,52.224-2.8l-2.48.16A27.028,27.028,0,0,1,48.592,1.9ZM57.2-10.576c-2.688,0-3.968,2.384-3.968,5.392.016,2.944,1.2,5.36,3.888,5.36,2.656,0,3.952-2.208,3.952-5.424C61.072-8.1,59.984-10.576,57.2-10.576Zm-.032,1.84c.976,0,1.472,1.216,1.472,3.52,0,2.368-.512,3.552-1.456,3.552s-1.52-1.136-1.5-3.52C55.664-7.6,56.272-8.736,57.168-8.736Zm8.912-1.84c-2.688,0-3.968,2.384-3.968,5.392C62.128-2.24,63.312.176,66,.176c2.656,0,3.952-2.208,3.952-5.424C69.952-8.1,68.864-10.576,66.08-10.576Zm-.032,1.84c.976,0,1.472,1.216,1.472,3.52,0,2.368-.512,3.552-1.456,3.552s-1.52-1.136-1.5-3.52C64.544-7.6,65.152-8.736,66.048-8.736Zm8.912-1.84c-2.688,0-3.968,2.384-3.968,5.392.016,2.944,1.2,5.36,3.888,5.36,2.656,0,3.952-2.208,3.952-5.424C78.832-8.1,77.744-10.576,74.96-10.576Zm-.032,1.84c.976,0,1.472,1.216,1.472,3.52,0,2.368-.512,3.552-1.456,3.552s-1.52-1.136-1.5-3.52C73.424-7.6,74.032-8.736,74.928-8.736Z" transform="translate(48 396)"/></g><g transform="translate(-12 -246)"><g transform="matrix(1, 0, 0, 1, -8, 0)" filter="url(#f)"><rect width="120" height="160" rx="8" transform="translate(160 256)" fill="#fff"/></g><rect width="32" height="160" rx="8" transform="translate(448 256)" fill="#fff" opacity="0"/><path d="M3.346,0H5.614V-8.358H8.666v-2.086H.28v2.086H3.346Zm8.918.2a3.95,3.95,0,0,0,4.074-4.074,3.934,3.934,0,0,0-4.074-4.074A3.95,3.95,0,0,0,8.19-3.878,3.958,3.958,0,0,0,12.264.2Zm0-2.016a1.88,1.88,0,0,1-1.806-2.058,1.88,1.88,0,0,1,1.806-2.058,1.89,1.89,0,0,1,1.82,2.058A1.9,1.9,0,0,1,12.264-1.82Zm8.05-7.728H18.158v1.792H17.052v1.848h1.092v2.926A2.884,2.884,0,0,0,21.308.168,5.317,5.317,0,0,0,22.526.042V-1.834a4.383,4.383,0,0,1-.7.07c-.868,0-1.512-.378-1.512-1.358V-5.908h2.072V-7.756H20.314ZM26.838.2A2.916,2.916,0,0,0,29.386-1.19L29.61,0H31.5V-7.756H29.61l-.224,1.19a2.946,2.946,0,0,0-2.548-1.386c-1.75,0-3.444,1.624-3.444,4.1A3.763,3.763,0,0,0,26.838.2ZM27.5-1.82a1.9,1.9,0,0,1-1.848-2.058A1.91,1.91,0,0,1,27.5-5.936,1.88,1.88,0,0,1,29.3-3.878,1.88,1.88,0,0,1,27.5-1.82ZM33.376,0h2.24V-11.242h-2.24ZM50.708,0l-2.2-2.282,2.17-3.374h-2.1l-1.288,2.1-1.61-1.666c1.232-.616,2.226-1.344,2.226-2.744A2.819,2.819,0,0,0,44.8-10.682c-1.876,0-3.206,1.2-3.206,2.688A3.511,3.511,0,0,0,42.84-5.6a3.041,3.041,0,0,0-2.016,2.758c0,1.792,1.428,3.08,3.514,3.08A4.509,4.509,0,0,0,47.362-.91l.882.91ZM44.814-9A1.147,1.147,0,0,1,46.06-7.9c0,.686-.616,1.092-1.5,1.512-.686-.742-.98-1.148-.98-1.582A1.108,1.108,0,0,1,44.814-9Zm-.28,7.518a1.461,1.461,0,0,1-1.61-1.442c0-.672.42-1.092,1.078-1.47l2.17,2.254A2.518,2.518,0,0,1,44.534-1.484ZM.938,20.94h2.24V16.866A2.866,2.866,0,0,0,5.614,18.2c1.82,0,3.43-1.582,3.43-4.074s-1.666-4.074-3.472-4.074a2.975,2.975,0,0,0-2.534,1.386l-.224-1.19H.938Zm4-4.76A1.87,1.87,0,0,1,3.15,14.122a1.872,1.872,0,0,1,1.806-2.058,1.877,1.877,0,0,1,1.82,2.044A1.9,1.9,0,0,1,4.942,16.18ZM17.556,14c0-2.59-1.61-3.948-3.584-3.948a3.877,3.877,0,0,0-3.892,4.1c0,2.352,1.568,4.046,4.3,4.046a5.323,5.323,0,0,0,2.7-.7V15.662a4.507,4.507,0,0,1-2.422.77,2.332,2.332,0,0,1-2.436-1.68H17.5A4.16,4.16,0,0,0,17.556,14Zm-5.376-.588a1.866,1.866,0,0,1,1.778-1.6,1.462,1.462,0,0,1,1.47,1.6ZM19.012,18h2.24V14.206a1.732,1.732,0,0,1,1.834-1.96,2.523,2.523,0,0,1,.644.07v-2.1a2.493,2.493,0,0,0-2.688,1.19h-.028l-.224-1.162H19.012Zm14.434-7.952a2.545,2.545,0,0,0-2.226,1.316,2.245,2.245,0,0,0-2.17-1.316,2.408,2.408,0,0,0-2.156,1.274h-.042l-.224-1.078H24.892V18h2.24V13.338a1.126,1.126,0,0,1,1.12-1.26c.756,0,1.036.406,1.036,1.246V18h2.24V13.24a1.094,1.094,0,0,1,1.134-1.162c.756,0,1.036.406,1.036,1.246V18h2.24V12.862C35.938,11.168,35.14,10.048,33.446,10.048ZM40.782,18.2A2.916,2.916,0,0,0,43.33,16.81L43.554,18h1.89V10.244h-1.89l-.224,1.19a2.946,2.946,0,0,0-2.548-1.386c-1.75,0-3.444,1.624-3.444,4.1A3.763,3.763,0,0,0,40.782,18.2Zm.658-2.016a1.9,1.9,0,0,1-1.848-2.058,1.91,1.91,0,0,1,1.848-2.058,1.88,1.88,0,0,1,1.806,2.058A1.88,1.88,0,0,1,41.44,16.18Zm10.206-6.132a2.728,2.728,0,0,0-2.338,1.288h-.042l-.224-1.092H47.306V18h2.24V13.408a1.283,1.283,0,0,1,1.344-1.33c.812,0,1.232.434,1.232,1.386V18h2.24V12.82A2.531,2.531,0,0,0,51.646,10.048ZM63.224,14c0-2.59-1.61-3.948-3.584-3.948a3.877,3.877,0,0,0-3.892,4.1c0,2.352,1.568,4.046,4.3,4.046a5.323,5.323,0,0,0,2.7-.7V15.662a4.507,4.507,0,0,1-2.422.77,2.332,2.332,0,0,1-2.436-1.68h5.278A4.16,4.16,0,0,0,63.224,14Zm-5.376-.588a1.866,1.866,0,0,1,1.778-1.6,1.462,1.462,0,0,1,1.47,1.6Zm11.172-3.36a2.728,2.728,0,0,0-2.338,1.288H66.64l-.224-1.092H64.68V18h2.24V13.408a1.283,1.283,0,0,1,1.344-1.33c.812,0,1.232.434,1.232,1.386V18h2.24V12.82A2.531,2.531,0,0,0,69.02,10.048Zm7.126-1.6H73.99v1.792H72.884v1.848h1.092v2.926a2.884,2.884,0,0,0,3.164,3.15,5.317,5.317,0,0,0,1.218-.126V16.166a4.382,4.382,0,0,1-.7.07c-.868,0-1.512-.378-1.512-1.358V12.092h2.072V10.244H76.146ZM4,36.2A2.913,2.913,0,0,0,6.51,34.81L6.734,36h1.89V24.758H6.384v4.62a2.765,2.765,0,0,0-2.408-1.33c-1.806,0-3.458,1.6-3.458,4.074S2.2,36.2,4,36.2Zm.6-2.016a2.072,2.072,0,0,1,0-4.116,1.88,1.88,0,0,1,1.806,2.058A1.88,1.88,0,0,1,4.606,34.18Zm7.014-7a1.211,1.211,0,1,0-1.232-1.218A1.21,1.21,0,0,0,11.62,27.18ZM10.5,36h2.24V28.244H10.5Zm7-7.952c-2,0-3.164,1.05-3.164,2.478s1.148,1.918,2.38,2.268c1.008.28,1.568.434,1.568.91,0,.42-.448.672-1.232.672a4.175,4.175,0,0,1-2.674-.966v2.058a5.108,5.108,0,0,0,2.772.728c2.1,0,3.3-.98,3.3-2.506,0-1.638-1.358-2.072-2.632-2.38-.882-.238-1.33-.406-1.33-.826,0-.378.392-.616,1.092-.616a4.5,4.5,0,0,1,2.366.686v-1.9A4.88,4.88,0,0,0,17.5,28.048ZM24.92,36.2a2.916,2.916,0,0,0,2.548-1.386L27.692,36h1.89V28.244h-1.89l-.224,1.19a2.946,2.946,0,0,0-2.548-1.386c-1.75,0-3.444,1.624-3.444,4.1A3.763,3.763,0,0,0,24.92,36.2Zm.658-2.016a2.07,2.07,0,0,1,0-4.116,1.88,1.88,0,0,1,1.806,2.058A1.88,1.88,0,0,1,25.578,34.18Zm8.106-9.422h-2.24V36H33.32l.224-1.19a2.92,2.92,0,0,0,2.52,1.386c1.806,0,3.486-1.6,3.486-4.074s-1.6-4.074-3.4-4.074a2.914,2.914,0,0,0-2.464,1.33Zm1.764,5.306a1.9,1.9,0,0,1,1.834,2.072,1.827,1.827,0,1,1-3.626-.014A1.87,1.87,0,0,1,35.448,30.064ZM42.14,27.18a1.211,1.211,0,1,0-1.232-1.218A1.21,1.21,0,0,0,42.14,27.18ZM41.02,36h2.24V28.244H41.02Zm4.13,0h2.24V24.758H45.15Zm5.25-8.82a1.211,1.211,0,1,0-1.232-1.218A1.21,1.21,0,0,0,50.4,27.18ZM49.28,36h2.24V28.244H49.28Zm6.748-9.548H53.872v1.792H52.766v1.848h1.092v2.926a2.884,2.884,0,0,0,3.164,3.15,5.317,5.317,0,0,0,1.218-.126V34.166a4.382,4.382,0,0,1-.7.07c-.868,0-1.512-.378-1.512-1.358V30.092H58.1V28.244H56.028Zm10.808,1.792h-2.3l-1.666,5.11h-.056l-1.666-5.11H58.758l2.926,7.546-1.316,3.15h2.226Z" transform="translate(168 327)"/><path d="M-6592,10a5.006,5.006,0,0,1-5-5,5.006,5.006,0,0,1,5-5,5,5,0,0,1,5,5A5,5,0,0,1-6592,10Zm0-6.071a.716.716,0,0,0-.713.717V7.5a.707.707,0,0,0,.713.717.716.716,0,0,0,.714-.717V4.645A.708.708,0,0,0-6592,3.929Zm0-2.143a.715.715,0,0,0-.713.714.715.715,0,0,0,.713.714.714.714,0,0,0,.714-.714A.714.714,0,0,0-6592,1.786Z" transform="translate(6843.001 272)" fill="#c1c6c8"/><path d="M5.168,1.392V-.24A3.066,3.066,0,0,0,8.016-3.2c0-1.44-.768-2.32-2.672-2.992-1.36-.512-1.92-.848-1.92-1.376,0-.448.336-.9,1.376-.9a5.306,5.306,0,0,1,2.3.544l.464-1.808a5.76,5.76,0,0,0-2.32-.528v-1.408H3.68v1.52A2.957,2.957,0,0,0,.976-7.3c0,1.552,1.168,2.352,2.88,2.928,1.184.4,1.7.784,1.7,1.392,0,.64-.624.992-1.536.992a5.649,5.649,0,0,1-2.656-.7L.88-.816A6.437,6.437,0,0,0,3.6-.128v1.52ZM13.248.176c2.416,0,4-1.264,4-3.152a2.753,2.753,0,0,0-1.9-2.592v-.048a2.534,2.534,0,0,0,1.5-2.288c0-1.264-1.008-2.672-3.44-2.672-2.08,0-3.664,1.168-3.664,2.928a2.523,2.523,0,0,0,1.5,2.272v.048A2.764,2.764,0,0,0,9.392-2.72C9.392-1.312,10.608.176,13.248.176Zm.1-1.68A1.424,1.424,0,0,1,11.872-2.96a1.578,1.578,0,0,1,1.264-1.552c.96.256,1.632.8,1.632,1.712A1.306,1.306,0,0,1,13.344-1.5ZM13.3-8.928a1.193,1.193,0,0,1,1.264,1.28A1.424,1.424,0,0,1,13.5-6.32c-.832-.256-1.472-.7-1.472-1.408A1.16,1.16,0,0,1,13.3-8.928ZM25.04,0V-2.48h1.248V-4.3H25.04v-6.1H22.064L18.128-4.064V-2.48h4.608V0ZM20.4-4.3v-.032l1.392-2.272c.352-.656.624-1.264.96-1.936h.064c-.048.672-.08,1.312-.08,1.936v2.3ZM28.288,1.76A22.147,22.147,0,0,0,30.3-2.8l-2.48.16A27.028,27.028,0,0,1,26.672,1.9ZM35.28-10.576c-2.688,0-3.968,2.384-3.968,5.392.016,2.944,1.2,5.36,3.888,5.36,2.656,0,3.952-2.208,3.952-5.424C39.152-8.1,38.064-10.576,35.28-10.576Zm-.032,1.84c.976,0,1.472,1.216,1.472,3.52,0,2.368-.512,3.552-1.456,3.552s-1.52-1.136-1.5-3.52C33.744-7.6,34.352-8.736,35.248-8.736Zm8.912-1.84c-2.688,0-3.968,2.384-3.968,5.392.016,2.944,1.2,5.36,3.888,5.36,2.656,0,3.952-2.208,3.952-5.424C48.032-8.1,46.944-10.576,44.16-10.576Zm-.032,1.84c.976,0,1.472,1.216,1.472,3.52,0,2.368-.512,3.552-1.456,3.552s-1.52-1.136-1.5-3.52C42.624-7.6,43.232-8.736,44.128-8.736Zm8.912-1.84c-2.688,0-3.968,2.384-3.968,5.392.016,2.944,1.2,5.36,3.888,5.36,2.656,0,3.952-2.208,3.952-5.424C56.912-8.1,55.824-10.576,53.04-10.576Zm-.032,1.84c.976,0,1.472,1.216,1.472,3.52,0,2.368-.512,3.552-1.456,3.552S51.5-2.8,51.52-5.184C51.5-7.6,52.112-8.736,53.008-8.736Z" transform="translate(168 396)"/><g transform="translate(116 -3020)"><path d="M-118.2,268.977v-6.23c0-.539-.156-.692-.7-.77-1.095-.154-2.19-.23-3.285-.461a27.524,27.524,0,0,1-9.307-4.231,1.62,1.62,0,0,0-.7-.385c-.156,0-.313.077-.7.308A25.08,25.08,0,0,1-145.34,261.9c-.7.077-.86.231-.86.923v11.231a16.684,16.684,0,0,0,.313,2.769,12.46,12.46,0,0,0,3.6,6.077,27.117,27.117,0,0,0,9.7,5.923c.078,0,.156.077.313.077a.594.594,0,0,0,.391-.077c1.251-.538,2.5-1.077,3.754-1.692a20.461,20.461,0,0,0,7.352-6,11.09,11.09,0,0,0,2.346-6.154A50.656,50.656,0,0,0-118.2,268.977Z" transform="translate(198.2 3035.1)" fill="#00629b"/><g transform="translate(-762 1498)"><g transform="translate(820 1801.667)"><g fill="none" stroke="#fff" stroke-linecap="round" stroke-linejoin="round" stroke-width="1"><circle cx="8" cy="8" r="8" stroke="none"/><circle cx="8" cy="8" r="7.5" fill="none"/></g><g transform="translate(4.706 2.07)" fill="none" stroke="#fff" stroke-linecap="round" stroke-linejoin="round" stroke-width="1"><circle cx="1.506" cy="1.506" r="1.506" stroke="none"/><circle cx="1.506" cy="1.506" r="1.006" fill="none"/></g><path d="M22307,10580l1.631,4.5h3.141l1.609,4.35" transform="translate(-22300.793 -10574.918)" fill="none" stroke="#fff" stroke-linecap="round" stroke-linejoin="round" stroke-width="1"/><line x2="5.082" transform="translate(6.871 6.494)" fill="none" stroke="#fff" stroke-linecap="round" stroke-width="1"/><path d="M6.517,6.2A3.389,3.389,0,0,1,0,4.9,3.41,3.41,0,0,1,1.888,1.857" transform="translate(3.388 5.457)" fill="none" stroke="#fff" stroke-linecap="round" stroke-linejoin="round" stroke-width="1"/></g></g></g></g><g transform="translate(228 -358)"><g transform="matrix(1, 0, 0, 1, -248, 112)" filter="url(#h)"><rect width="168" height="160" rx="8" transform="translate(288 256)" fill="#fff"/></g><path d="M1.134,0H3.416V-10.444H1.134ZM9.828-7.952A2.728,2.728,0,0,0,7.49-6.664H7.448L7.224-7.756H5.488V0h2.24V-4.592a1.283,1.283,0,0,1,1.344-1.33c.812,0,1.232.434,1.232,1.386V0h2.24V-5.18A2.531,2.531,0,0,0,9.828-7.952Zm6.356,4.074a2.029,2.029,0,0,1,2.142-2.058,3.4,3.4,0,0,1,1.946.588V-7.406a4.547,4.547,0,0,0-2.282-.546,3.971,3.971,0,0,0-4.074,4.06A3.97,3.97,0,0,0,17.99.2a5.03,5.03,0,0,0,2.282-.532V-2.394a3.224,3.224,0,0,1-1.946.574A2.021,2.021,0,0,1,16.184-3.878ZM25.41.2a3.95,3.95,0,0,0,4.074-4.074A3.934,3.934,0,0,0,25.41-7.952a3.95,3.95,0,0,0-4.074,4.074A3.958,3.958,0,0,0,25.41.2Zm0-2.016A1.88,1.88,0,0,1,23.6-3.878,1.88,1.88,0,0,1,25.41-5.936a1.89,1.89,0,0,1,1.82,2.058A1.9,1.9,0,0,1,25.41-1.82ZM39.48-7.952a2.545,2.545,0,0,0-2.226,1.316,2.245,2.245,0,0,0-2.17-1.316,2.408,2.408,0,0,0-2.156,1.274h-.042l-.224-1.078H30.926V0h2.24V-4.662a1.126,1.126,0,0,1,1.12-1.26c.756,0,1.036.406,1.036,1.246V0h2.24V-4.76A1.094,1.094,0,0,1,38.7-5.922c.756,0,1.036.406,1.036,1.246V0h2.24V-5.138C41.972-6.832,41.174-7.952,39.48-7.952ZM50.848-4c0-2.59-1.61-3.948-3.584-3.948a3.877,3.877,0,0,0-3.892,4.1C43.372-1.5,44.94.2,47.67.2a5.323,5.323,0,0,0,2.7-.7V-2.338a4.507,4.507,0,0,1-2.422.77,2.332,2.332,0,0,1-2.436-1.68h5.278A4.16,4.16,0,0,0,50.848-4Zm-5.376-.588a1.866,1.866,0,0,1,1.778-1.6,1.462,1.462,0,0,1,1.47,1.6ZM55.79,2.94h2.24V-1.134A2.866,2.866,0,0,0,60.466.2c1.82,0,3.43-1.582,3.43-4.074S62.23-7.952,60.424-7.952A2.975,2.975,0,0,0,57.89-6.566l-.224-1.19H55.79Zm4-4.76A1.87,1.87,0,0,1,58-3.878a1.872,1.872,0,0,1,1.806-2.058,1.877,1.877,0,0,1,1.82,2.044A1.9,1.9,0,0,1,59.794-1.82ZM65.352,0h2.24V-3.794a1.732,1.732,0,0,1,1.834-1.96,2.523,2.523,0,0,1,.644.07v-2.1a2.393,2.393,0,0,0-.588-.056,2.374,2.374,0,0,0-2.1,1.246h-.028L67.13-7.756H65.352ZM74.69.2a3.95,3.95,0,0,0,4.074-4.074A3.934,3.934,0,0,0,74.69-7.952a3.95,3.95,0,0,0-4.074,4.074A3.958,3.958,0,0,0,74.69.2Zm0-2.016a1.88,1.88,0,0,1-1.806-2.058A1.88,1.88,0,0,1,74.69-5.936a1.89,1.89,0,0,1,1.82,2.058A1.9,1.9,0,0,1,74.69-1.82Zm8.05-7.728H80.584v1.792H79.478v1.848H80.57v2.926A2.884,2.884,0,0,0,83.734.168,5.317,5.317,0,0,0,84.952.042V-1.834a4.382,4.382,0,0,1-.7.07c-.868,0-1.512-.378-1.512-1.358V-5.908h2.072V-7.756H82.74ZM93.3-4c0-2.59-1.61-3.948-3.584-3.948a3.877,3.877,0,0,0-3.892,4.1C85.82-1.5,87.388.2,90.118.2a5.323,5.323,0,0,0,2.7-.7V-2.338a4.507,4.507,0,0,1-2.422.77,2.332,2.332,0,0,1-2.436-1.68H93.24A4.16,4.16,0,0,0,93.3-4ZM87.92-4.592a1.866,1.866,0,0,1,1.778-1.6,1.462,1.462,0,0,1,1.47,1.6Zm8.666.714a2.029,2.029,0,0,1,2.142-2.058,3.4,3.4,0,0,1,1.946.588V-7.406a4.547,4.547,0,0,0-2.282-.546,3.971,3.971,0,0,0-4.074,4.06A3.97,3.97,0,0,0,98.392.2a5.03,5.03,0,0,0,2.282-.532V-2.394a3.224,3.224,0,0,1-1.946.574A2.021,2.021,0,0,1,96.586-3.878Zm8.316-5.67h-2.156v1.792H101.64v1.848h1.092v2.926A2.884,2.884,0,0,0,105.9.168a5.317,5.317,0,0,0,1.218-.126V-1.834a4.382,4.382,0,0,1-.7.07c-.868,0-1.512-.378-1.512-1.358V-5.908h2.072V-7.756H104.9Zm4.662.728a1.21,1.21,0,0,0,1.218-1.218,1.207,1.207,0,0,0-1.218-1.2,1.2,1.2,0,0,0-1.232,1.2A1.2,1.2,0,0,0,109.564-8.82ZM108.444,0h2.24V-7.756h-2.24ZM116.2.2a3.95,3.95,0,0,0,4.074-4.074A3.934,3.934,0,0,0,116.2-7.952a3.95,3.95,0,0,0-4.074,4.074A3.958,3.958,0,0,0,116.2.2Zm0-2.016a1.88,1.88,0,0,1-1.806-2.058A1.88,1.88,0,0,1,116.2-5.936a1.89,1.89,0,0,1,1.82,2.058A1.9,1.9,0,0,1,116.2-1.82Zm9.856-6.132a2.728,2.728,0,0,0-2.338,1.288h-.042l-.224-1.092h-1.736V0h2.24V-4.592a1.283,1.283,0,0,1,1.344-1.33c.812,0,1.232.434,1.232,1.386V0h2.24V-5.18A2.531,2.531,0,0,0,126.056-7.952Z" transform="translate(56 439)"/><path d="M-6592,10a5.006,5.006,0,0,1-5-5,5.006,5.006,0,0,1,5-5,5,5,0,0,1,5,5A5,5,0,0,1-6592,10Zm0-6.071a.716.716,0,0,0-.713.717V7.5a.707.707,0,0,0,.713.717.716.716,0,0,0,.714-.717V4.645A.708.708,0,0,0-6592,3.929Zm0-2.143a.715.715,0,0,0-.713.714.715.715,0,0,0,.713.714.714.714,0,0,0,.714-.714A.714.714,0,0,0-6592,1.786Z" transform="translate(6779.001 384)" fill="#c1c6c8"/><g transform="translate(4 -2976)"><path d="M-118.2,268.977v-6.23c0-.539-.156-.692-.7-.77-1.095-.154-2.19-.23-3.285-.461a27.524,27.524,0,0,1-9.307-4.231,1.62,1.62,0,0,0-.7-.385c-.156,0-.313.077-.7.308A25.08,25.08,0,0,1-145.34,261.9c-.7.077-.86.231-.86.923v11.231a16.684,16.684,0,0,0,.313,2.769,12.46,12.46,0,0,0,3.6,6.077,27.117,27.117,0,0,0,9.7,5.923c.078,0,.156.077.313.077a.594.594,0,0,0,.391-.077c1.251-.538,2.5-1.077,3.754-1.692a20.461,20.461,0,0,0,7.352-6,11.09,11.09,0,0,0,2.346-6.154A50.656,50.656,0,0,0-118.2,268.977Z" transform="translate(198.2 3103.1)" fill="#00629b"/><g transform="translate(-1000 -6909)"><g transform="translate(1059.001 10276.667)"><path d="M-21230.127-1.366l5.205-3.006a1.225,1.225,0,0,1,1.672.446l1.475,2.559" transform="translate(21233.754 4.535)" fill="none" stroke="#fff" stroke-linecap="round" stroke-width="1"/><path d="M1.833,0H5.194a0,0,0,0,1,0,0V3.666a0,0,0,0,1,0,0H1.833A1.833,1.833,0,0,1,0,1.833v0A1.833,1.833,0,0,1,1.833,0Z" transform="translate(9.473 6.53)" fill="none" stroke="#fff" stroke-width="1"/><path d="M1,0H13.221" transform="translate(0.834 3.169)" fill="none" stroke="#fff" stroke-linecap="round" stroke-width="1"/><circle cx="0.611" cy="0.611" r="0.611" transform="translate(10.695 7.752)" fill="none" stroke="#fff" stroke-width="1"/><path d="M-21239.842-6h-4.633A1.529,1.529,0,0,0-21246-4.472V5a1.53,1.53,0,0,0,1.529,1.528h10.5c.947,0,1.953-.387,1.953-1.528V2.548" transform="translate(21246.004 7.641)" fill="none" stroke="#fff" stroke-linecap="round" stroke-width="1"/><path d="M-21206.5-1.106V-4.472A1.529,1.529,0,0,0-21208.025-6h-1.33" transform="translate(21220.553 7.641)" fill="none" stroke="#fff" stroke-linecap="round" stroke-width="1"/></g></g></g><path d="M5.168,1.392V-.24A3.066,3.066,0,0,0,8.016-3.2c0-1.44-.768-2.32-2.672-2.992-1.36-.512-1.92-.848-1.92-1.376,0-.448.336-.9,1.376-.9a5.306,5.306,0,0,1,2.3.544l.464-1.808a5.76,5.76,0,0,0-2.32-.528v-1.408H3.68v1.52A2.957,2.957,0,0,0,.976-7.3c0,1.552,1.168,2.352,2.88,2.928,1.184.4,1.7.784,1.7,1.392,0,.64-.624.992-1.536.992a5.649,5.649,0,0,1-2.656-.7L.88-.816A6.437,6.437,0,0,0,3.6-.128v1.52ZM12.656,0h2.352V-10.4H12.992L10.24-9.12l.4,1.824,1.984-.944h.032ZM25.04,0V-2.48h1.248V-4.3H25.04v-6.1H22.064L18.128-4.064V-2.48h4.608V0ZM20.4-4.3v-.032l1.392-2.272c.352-.656.624-1.264.96-1.936h.064c-.048.672-.08,1.312-.08,1.936v2.3ZM28.288,1.76A22.147,22.147,0,0,0,30.3-2.8l-2.48.16A27.028,27.028,0,0,1,26.672,1.9ZM35.28-10.576c-2.688,0-3.968,2.384-3.968,5.392.016,2.944,1.2,5.36,3.888,5.36,2.656,0,3.952-2.208,3.952-5.424C39.152-8.1,38.064-10.576,35.28-10.576Zm-.032,1.84c.976,0,1.472,1.216,1.472,3.52,0,2.368-.512,3.552-1.456,3.552s-1.52-1.136-1.5-3.52C33.744-7.6,34.352-8.736,35.248-8.736Zm8.912-1.84c-2.688,0-3.968,2.384-3.968,5.392.016,2.944,1.2,5.36,3.888,5.36,2.656,0,3.952-2.208,3.952-5.424C48.032-8.1,46.944-10.576,44.16-10.576Zm-.032,1.84c.976,0,1.472,1.216,1.472,3.52,0,2.368-.512,3.552-1.456,3.552s-1.52-1.136-1.5-3.52C42.624-7.6,43.232-8.736,44.128-8.736Zm8.912-1.84c-2.688,0-3.968,2.384-3.968,5.392.016,2.944,1.2,5.36,3.888,5.36,2.656,0,3.952-2.208,3.952-5.424C56.912-8.1,55.824-10.576,53.04-10.576Zm-.032,1.84c.976,0,1.472,1.216,1.472,3.52,0,2.368-.512,3.552-1.456,3.552S51.5-2.8,51.52-5.184C51.5-7.6,52.112-8.736,53.008-8.736ZM61.888.64l4.48-11.6H65.28L60.816.64ZM70.88,0h1.376V-4.672a1.941,1.941,0,0,1,.112-.688,1.924,1.924,0,0,1,1.744-1.408c1.072,0,1.616.9,1.616,2.128V0H77.1V-4.784a2.319,2.319,0,0,1,.112-.7,1.823,1.823,0,0,1,1.664-1.28c1.136,0,1.68.9,1.68,2.384V0h1.376V-4.56c0-2.688-1.52-3.36-2.544-3.36a2.643,2.643,0,0,0-1.712.544,3.19,3.19,0,0,0-.864,1.008h-.032A2.289,2.289,0,0,0,74.592-7.92,2.669,2.669,0,0,0,72.16-6.5h-.048l-.064-1.248H70.816c.048.64.064,1.3.064,2.1Zm13.6-9.6v1.856h-1.2v1.072h1.2v4.224a2.869,2.869,0,0,0,.544,2.016,1.951,1.951,0,0,0,1.52.592,3.447,3.447,0,0,0,1.248-.192l-.064-1.056a3.132,3.132,0,0,1-.816.1c-.784,0-1.056-.544-1.056-1.5V-6.672h2.016V-7.744H85.856V-9.968ZM89.456,0h1.408V-4.672a1.7,1.7,0,0,1,.1-.672,2.023,2.023,0,0,1,1.888-1.408c1.328,0,1.792,1.056,1.792,2.3V0h1.408V-4.608c0-2.672-1.664-3.312-2.7-3.312a2.9,2.9,0,0,0-1.44.4,2.613,2.613,0,0,0-1.008.992h-.032V-11.36H89.456Z" transform="translate(56 508)"/><path d="M6.6,0h.882L9.45-6.7H8.6L7.038-1.089H7.029L5.238-6.7h-.81L2.655-1.1H2.646L1.062-6.7H.18l2,6.7h.891L4.833-5.517Zm5.382.108a1.957,1.957,0,0,0,1.737-1l.1.891h.675V-4.869h-.675l-.1.9a1.966,1.966,0,0,0-1.737-1.008A2.356,2.356,0,0,0,9.765-2.43,2.358,2.358,0,0,0,11.979.108Zm.171-.774A1.613,1.613,0,0,1,10.6-2.43,1.616,1.616,0,0,1,12.15-4.2a1.617,1.617,0,0,1,1.539,1.764A1.62,1.62,0,0,1,12.15-.666Zm4.284-5.319a.494.494,0,0,0,.513-.5.494.494,0,0,0-.513-.5.494.494,0,0,0-.513.5A.494.494,0,0,0,16.434-5.985ZM16.02,0h.828V-4.869H16.02ZM19.4-6.012H18.6v1.143h-.747v.72h.729V-1.7A1.611,1.611,0,0,0,20.322.063,3.05,3.05,0,0,0,20.9.009v-.72a2.518,2.518,0,0,1-.432.045A.967.967,0,0,1,19.4-1.737V-4.149H20.79v-.72H19.4Zm2.925.027a.494.494,0,0,0,.513-.5.494.494,0,0,0-.513-.5.494.494,0,0,0-.513.5A.494.494,0,0,0,22.32-5.985ZM21.906,0h.828V-4.869h-.828Zm4.608-4.977a1.756,1.756,0,0,0-1.494.846h-.027l-.09-.738h-.639V0h.828V-2.97a1.177,1.177,0,0,1,1.215-1.215c.729,0,1.116.4,1.116,1.26V0h.828V-3.222A1.635,1.635,0,0,0,26.514-4.977Zm5.094.009A2.33,2.33,0,0,0,29.394-2.52,2.31,2.31,0,0,0,31.608-.081,1.983,1.983,0,0,0,33.282-1v.738a1.5,1.5,0,0,1-1.6,1.485A2.657,2.657,0,0,1,29.9.5v.891a3.081,3.081,0,0,0,1.818.6A2.274,2.274,0,0,0,34.11-.4V-4.869h-.675l-.1.846A2,2,0,0,0,31.608-4.968Zm.162.765a1.562,1.562,0,0,1,1.539,1.656A1.6,1.6,0,0,1,31.77-.837a1.584,1.584,0,0,1-1.539-1.674A1.589,1.589,0,0,1,31.77-4.2ZM38.079,1.89h.828V-.846A1.938,1.938,0,0,0,40.59.108,2.338,2.338,0,0,0,42.8-2.439a2.347,2.347,0,0,0-2.214-2.538,1.962,1.962,0,0,0-1.728,1.008l-.1-.9h-.675Zm2.34-2.556a1.611,1.611,0,0,1-1.53-1.764A1.614,1.614,0,0,1,40.419-4.2a1.613,1.613,0,0,1,1.548,1.764A1.611,1.611,0,0,1,40.419-.666ZM48.15-2.529a2.152,2.152,0,0,0-2.1-2.448A2.391,2.391,0,0,0,43.7-2.412,2.343,2.343,0,0,0,46.17.108a2.837,2.837,0,0,0,1.7-.54v-.819a2.516,2.516,0,0,1-1.638.639A1.66,1.66,0,0,1,44.514-2.16h3.609A2.21,2.21,0,0,0,48.15-2.529Zm-3.636-.252a1.581,1.581,0,0,1,1.53-1.476,1.327,1.327,0,0,1,1.305,1.476ZM49.338,0h.828V-2.772A1.262,1.262,0,0,1,51.471-4.14a2.1,2.1,0,0,1,.342.036V-4.9a1.744,1.744,0,0,0-.324-.027,1.577,1.577,0,0,0-1.4.828h-.009L50-4.869h-.657Zm3.816-5.985a.494.494,0,0,0,.513-.5.494.494,0,0,0-.513-.5.494.494,0,0,0-.513.5A.494.494,0,0,0,53.154-5.985ZM52.74,0h.828V-4.869H52.74Zm4.473.108A2.415,2.415,0,0,0,59.625-2.43a2.418,2.418,0,0,0-2.412-2.547,2.427,2.427,0,0,0-2.43,2.547A2.419,2.419,0,0,0,57.213.108Zm0-.774A1.63,1.63,0,0,1,55.62-2.43,1.639,1.639,0,0,1,57.213-4.2,1.637,1.637,0,0,1,58.8-2.43,1.634,1.634,0,0,1,57.213-.666Zm5.526.774a1.967,1.967,0,0,0,1.737-1l.1.891h.675V-7.2h-.828v3.177a1.911,1.911,0,0,0-1.683-.954A2.345,2.345,0,0,0,60.525-2.43,2.353,2.353,0,0,0,62.739.108Zm.171-.774A1.62,1.62,0,0,1,61.353-2.43,1.623,1.623,0,0,1,62.91-4.2a1.611,1.611,0,0,1,1.53,1.764A1.614,1.614,0,0,1,62.91-.666Zm4.3-2.34a.552.552,0,0,0,.558-.567.549.549,0,0,0-.558-.558.544.544,0,0,0-.558.558A.546.546,0,0,0,67.212-3.006Zm0,3.051a.549.549,0,0,0,.558-.558.552.552,0,0,0-.558-.567.546.546,0,0,0-.558.567A.544.544,0,0,0,67.212.045ZM71.217,0h4.446V-.792H72.846C74.52-2.619,75.42-3.717,75.42-4.779a1.972,1.972,0,0,0-2.1-2.052,2.689,2.689,0,0,0-1.782.657v.936a2.328,2.328,0,0,1,1.71-.8,1.27,1.27,0,0,1,1.323,1.3C74.574-3.951,74.2-3.33,71.217,0ZM84.186-4.977a1.557,1.557,0,0,0-1.4.855,1.342,1.342,0,0,0-1.35-.855,1.453,1.453,0,0,0-1.305.828H80.1l-.09-.72h-.639V0H80.2V-3.069a1.027,1.027,0,0,1,1.008-1.116c.648,0,.927.369.927,1.071V0h.828V-3.114a1.011,1.011,0,0,1,1.017-1.071c.648,0,.918.369.918,1.071V0h.828V-3.249C85.725-4.266,85.248-4.977,84.186-4.977ZM89.307.108A2.415,2.415,0,0,0,91.719-2.43a2.418,2.418,0,0,0-2.412-2.547,2.427,2.427,0,0,0-2.43,2.547A2.419,2.419,0,0,0,89.307.108Zm0-.774A1.63,1.63,0,0,1,87.714-2.43,1.639,1.639,0,0,1,89.307-4.2,1.637,1.637,0,0,1,90.891-2.43,1.634,1.634,0,0,1,89.307-.666Zm5.868-4.311a1.756,1.756,0,0,0-1.494.846h-.027l-.09-.738h-.639V0h.828V-2.97a1.177,1.177,0,0,1,1.215-1.215c.729,0,1.116.4,1.116,1.26V0h.828V-3.222A1.635,1.635,0,0,0,95.175-4.977Zm4.176-1.035h-.792v1.143h-.747v.72h.729V-1.7A1.611,1.611,0,0,0,100.278.063a3.05,3.05,0,0,0,.576-.054v-.72a2.518,2.518,0,0,1-.432.045.967.967,0,0,1-1.071-1.071V-4.149h1.395v-.72H99.351ZM102.672-7.2h-.828V0h.828V-3.015A1.125,1.125,0,0,1,103.887-4.2c.747,0,1.116.414,1.116,1.269V0h.828V-3.222a1.6,1.6,0,0,0-1.755-1.755,1.676,1.676,0,0,0-1.395.693h-.009Zm6.156,2.223c-1.08,0-1.755.612-1.755,1.431,0,.855.711,1.116,1.512,1.359.7.216,1.161.369,1.161.837,0,.432-.378.72-1.035.72a2.311,2.311,0,0,1-1.656-.693v.891a2.691,2.691,0,0,0,1.683.54c1.125,0,1.818-.576,1.818-1.467,0-.981-.846-1.224-1.593-1.44-.657-.189-1.08-.351-1.08-.783,0-.4.342-.657.954-.657a2.3,2.3,0,0,1,1.458.5v-.819A2.549,2.549,0,0,0,108.828-4.977ZM4.113,10.535A1.506,1.506,0,0,0,5.13,9.041c0-.99-.747-1.737-2.178-1.737H.918V14H3.06c1.53,0,2.286-.837,2.286-1.845A1.615,1.615,0,0,0,4.113,10.535ZM1.746,8.06H3.015c.8,0,1.287.4,1.287,1.062,0,.639-.477,1.116-1.35,1.116H1.746Zm1.3,5.184h-1.3V10.931H3.087c.819,0,1.422.414,1.422,1.152C4.509,12.758,4,13.244,3.042,13.244Zm7.7-1.773a2.152,2.152,0,0,0-2.1-2.448,2.391,2.391,0,0,0-2.349,2.565,2.343,2.343,0,0,0,2.466,2.52,2.837,2.837,0,0,0,1.7-.54v-.819a2.516,2.516,0,0,1-1.638.639A1.66,1.66,0,0,1,7.1,11.84H10.71A2.21,2.21,0,0,0,10.737,11.471ZM7.1,11.219a1.581,1.581,0,0,1,1.53-1.476,1.327,1.327,0,0,1,1.305,1.476Zm7.074-2.2a1.756,1.756,0,0,0-1.494.846h-.027l-.09-.738h-.639V14h.828V11.03a1.177,1.177,0,0,1,1.215-1.215c.729,0,1.116.4,1.116,1.26V14h.828V10.778A1.635,1.635,0,0,0,14.175,9.023Zm7.335,2.448a2.152,2.152,0,0,0-2.1-2.448,2.391,2.391,0,0,0-2.349,2.565,2.343,2.343,0,0,0,2.466,2.52,2.837,2.837,0,0,0,1.7-.54v-.819a2.516,2.516,0,0,1-1.638.639,1.66,1.66,0,0,1-1.719-1.548h3.609A2.21,2.21,0,0,0,21.51,11.471Zm-3.636-.252A1.581,1.581,0,0,1,19.4,9.743a1.327,1.327,0,0,1,1.305,1.476ZM22.923,14h.828V9.851h1.4v-.72h-1.4V8.51c0-.684.333-.981.936-.981a2.091,2.091,0,0,1,.711.126V6.89a2.681,2.681,0,0,0-.81-.135A1.576,1.576,0,0,0,22.923,8.4v.729h-.7v.72h.7Zm3.564-5.985a.5.5,0,1,0-.513-.5A.494.494,0,0,0,26.487,8.015ZM26.073,14H26.9V9.131h-.828Zm3.375-6.012h-.792V9.131h-.747v.72h.729V12.3a1.611,1.611,0,0,0,1.737,1.764,3.05,3.05,0,0,0,.576-.054v-.72a2.518,2.518,0,0,1-.432.045.967.967,0,0,1-1.071-1.071V9.851h1.395v-.72H29.448Zm4.95,7.9h.828V13.154a1.938,1.938,0,0,0,1.683.954,2.338,2.338,0,0,0,2.205-2.547A2.347,2.347,0,0,0,36.9,9.023a1.962,1.962,0,0,0-1.728,1.008l-.1-.9H34.4Zm2.34-2.556a1.611,1.611,0,0,1-1.53-1.764,1.554,1.554,0,1,1,3.078-.009A1.611,1.611,0,0,1,36.738,13.334Zm7.731-1.863a2.152,2.152,0,0,0-2.1-2.448,2.391,2.391,0,0,0-2.349,2.565,2.343,2.343,0,0,0,2.466,2.52,2.837,2.837,0,0,0,1.7-.54v-.819a2.516,2.516,0,0,1-1.638.639,1.66,1.66,0,0,1-1.719-1.548h3.609A2.21,2.21,0,0,0,44.469,11.471Zm-3.636-.252a1.581,1.581,0,0,1,1.53-1.476,1.327,1.327,0,0,1,1.305,1.476ZM45.657,14h.828V11.228A1.262,1.262,0,0,1,47.79,9.86a2.1,2.1,0,0,1,.342.036V9.1a1.744,1.744,0,0,0-.324-.027,1.577,1.577,0,0,0-1.4.828H46.4l-.09-.774h-.657Zm3.816-5.985a.5.5,0,1,0-.513-.5A.494.494,0,0,0,49.473,8.015ZM49.059,14h.828V9.131h-.828Zm4.473.108a2.415,2.415,0,0,0,2.412-2.538,2.424,2.424,0,1,0-4.842,0A2.419,2.419,0,0,0,53.532,14.108Zm0-.774a1.63,1.63,0,0,1-1.593-1.764,1.6,1.6,0,1,1,3.177,0A1.634,1.634,0,0,1,53.532,13.334Zm5.526.774a1.967,1.967,0,0,0,1.737-1l.1.891h.675V6.8h-.828V9.977a1.911,1.911,0,0,0-1.683-.954,2.345,2.345,0,0,0-2.214,2.547A2.353,2.353,0,0,0,59.058,14.108Zm.171-.774a1.62,1.62,0,0,1-1.557-1.764,1.558,1.558,0,1,1,3.087-.009A1.614,1.614,0,0,1,59.229,13.334Zm4.3-2.34a.563.563,0,0,0,0-1.125.563.563,0,0,0,0,1.125Zm0,3.051a.563.563,0,1,0-.558-.558A.549.549,0,0,0,63.531,14.045ZM67.536,14h4.446v-.792H69.165c1.674-1.827,2.574-2.925,2.574-3.987a1.972,1.972,0,0,0-2.1-2.052,2.689,2.689,0,0,0-1.782.657v.936a2.328,2.328,0,0,1,1.71-.8,1.27,1.27,0,0,1,1.323,1.3C70.893,10.049,70.515,10.67,67.536,14ZM80.5,9.023a1.557,1.557,0,0,0-1.4.855,1.342,1.342,0,0,0-1.35-.855,1.453,1.453,0,0,0-1.305.828h-.027l-.09-.72H75.69V14h.828V10.931a1.027,1.027,0,0,1,1.008-1.116c.648,0,.927.369.927,1.071V14h.828V10.886A1.011,1.011,0,0,1,80.3,9.815c.648,0,.918.369.918,1.071V14h.828V10.751C82.044,9.734,81.567,9.023,80.5,9.023Zm5.121,5.085a2.415,2.415,0,0,0,2.412-2.538,2.424,2.424,0,1,0-4.842,0A2.419,2.419,0,0,0,85.626,14.108Zm0-.774a1.63,1.63,0,0,1-1.593-1.764,1.6,1.6,0,1,1,3.177,0A1.634,1.634,0,0,1,85.626,13.334Zm5.868-4.311A1.756,1.756,0,0,0,90,9.869h-.027l-.09-.738h-.639V14h.828V11.03a1.177,1.177,0,0,1,1.215-1.215c.729,0,1.116.4,1.116,1.26V14h.828V10.778A1.635,1.635,0,0,0,91.494,9.023ZM95.67,7.988h-.792V9.131h-.747v.72h.729V12.3A1.611,1.611,0,0,0,96.6,14.063a3.05,3.05,0,0,0,.576-.054v-.72a2.518,2.518,0,0,1-.432.045.967.967,0,0,1-1.071-1.071V9.851h1.395v-.72H95.67ZM98.991,6.8h-.828V14h.828V10.985A1.125,1.125,0,0,1,100.206,9.8c.747,0,1.116.414,1.116,1.269V14h.828V10.778a1.6,1.6,0,0,0-1.755-1.755A1.676,1.676,0,0,0,99,9.716h-.009Zm6.156,2.223c-1.08,0-1.755.612-1.755,1.431,0,.855.711,1.116,1.512,1.359.7.216,1.161.369,1.161.837,0,.432-.378.72-1.035.72a2.311,2.311,0,0,1-1.656-.693v.891a2.691,2.691,0,0,0,1.683.54c1.125,0,1.818-.576,1.818-1.467,0-.981-.846-1.224-1.593-1.44-.657-.189-1.08-.351-1.08-.783,0-.4.342-.657.954-.657a2.3,2.3,0,0,1,1.458.5V9.446A2.549,2.549,0,0,0,105.147,9.023Z" transform="translate(56 471)" fill="#5b6770"/></g></g><path d="M-6592,10a5.006,5.006,0,0,1-5-5,5.006,5.006,0,0,1,5-5,5,5,0,0,1,5,5A5,5,0,0,1-6592,10Zm0-6.071a.716.716,0,0,0-.713.717V7.5a.707.707,0,0,0,.713.717.716.716,0,0,0,.714-.717V4.645A.708.708,0,0,0-6592,3.929Zm0-2.143a.715.715,0,0,0-.713.714.715.715,0,0,0,.713.714.714.714,0,0,0,.714-.714A.714.714,0,0,0-6592,1.786Z" transform="translate(6742.001 160)" fill="#c1c6c8"/><path d="M-6592,10a5.006,5.006,0,0,1-5-5,5.006,5.006,0,0,1,5-5,5,5,0,0,1,5,5A5,5,0,0,1-6592,10Zm0-6.071a.716.716,0,0,0-.713.717V7.5a.707.707,0,0,0,.713.717.716.716,0,0,0,.714-.717V4.645A.708.708,0,0,0-6592,3.929Zm0-2.143a.715.715,0,0,0-.713.714.715.715,0,0,0,.713.714.714.714,0,0,0,.714-.714A.714.714,0,0,0-6592,1.786Z" transform="translate(6903.001 160)" fill="#c1c6c8"/></g></svg>