<svg xmlns="http://www.w3.org/2000/svg" xmlns:xlink="http://www.w3.org/1999/xlink" width="375" height="628" viewBox="0 0 375 628"><defs><linearGradient id="a" x1="0.581" y1="1.071" x2="0.387" y2="-0.139" gradientUnits="objectBoundingBox"><stop offset="0" stop-color="#e1e2e8"/><stop offset="1" stop-color="#f8f8fc"/></linearGradient><clipPath id="b"><rect x="-20" width="375" height="184" fill="none"/></clipPath><filter id="c" x="20" y="230" width="144" height="184" filterUnits="userSpaceOnUse"><feOffset dy="2" input="SourceAlpha"/><feGaussianBlur stdDeviation="4" result="d"/><feFlood flood-opacity="0.031"/><feComposite operator="in" in2="d"/><feComposite in="SourceGraphic"/></filter><filter id="e" x="148" y="230" width="144" height="184" filterUnits="userSpaceOnUse"><feOffset dy="2" input="SourceAlpha"/><feGaussianBlur stdDeviation="4" result="f"/><feFlood flood-opacity="0.031"/><feComposite operator="in" in2="f"/><feComposite in="SourceGraphic"/></filter><filter id="g" x="276" y="230" width="192" height="184" filterUnits="userSpaceOnUse"><feOffset dy="2" input="SourceAlpha"/><feGaussianBlur stdDeviation="4" result="h"/><feFlood flood-opacity="0.031"/><feComposite operator="in" in2="h"/><feComposite in="SourceGraphic"/></filter><linearGradient id="i" x1="0.5" x2="0.5" y2="1" gradientUnits="objectBoundingBox"><stop offset="0" stop-color="#f8f8fc"/><stop offset="1" stop-color="#e1e2e8"/></linearGradient><filter id="j" x="7.5" y="452.001" width="80" height="80" filterUnits="userSpaceOnUse"><feOffset dy="4" input="SourceAlpha"/><feGaussianBlur stdDeviation="8" result="k"/><feFlood flood-opacity="0.122"/><feComposite operator="in" in2="k"/><feComposite in="SourceGraphic"/></filter><clipPath id="l"><circle cx="16" cy="16" r="16" transform="translate(0 0.001)" fill="#9bcbeb"/></clipPath><linearGradient id="m" x1="-2.152" y1="0.467" x2="1.172" y2="0.515" gradientUnits="objectBoundingBox"><stop offset="0.01"/><stop offset="1" stop-opacity="0"/></linearGradient><linearGradient id="n" x1="-1.499" y1="1.742" x2="1.059" y2="0.131" xlink:href="#m"/><linearGradient id="o" x1="0.337" y1="-1.05" x2="0.603" y2="1.481" xlink:href="#m"/><linearGradient id="p" x1="0.815" y1="0.239" x2="0.092" y2="0.732" gradientUnits="objectBoundingBox"><stop offset="0.02" stop-color="#fff" stop-opacity="0"/><stop offset="0.58" stop-color="#fff" stop-opacity="0.388"/><stop offset="1" stop-color="#fff"/></linearGradient><linearGradient id="q" x1="-0.26" y1="0.481" x2="1.302" y2="0.521" xlink:href="#p"/><linearGradient id="r" x1="0.538" y1="-0.383" x2="0.467" y2="1.403" xlink:href="#m"/><linearGradient id="s" x1="0.256" y1="-0.276" x2="0.721" y2="1.203" xlink:href="#m"/><linearGradient id="t" x1="0.253" y1="0.258" x2="0.455" y2="0.476" xlink:href="#m"/><linearGradient id="u" x1="0.413" y1="0.486" x2="1.01" y2="0.583" xlink:href="#m"/><linearGradient id="v" x1="0.014" y1="0.352" x2="0.779" y2="0.604" xlink:href="#m"/><linearGradient id="w" x1="0.555" y1="1.165" x2="0.461" y2="-0.341" xlink:href="#m"/><linearGradient id="x" x1="0.635" y1="0.055" x2="0.348" y2="0.907" gradientUnits="objectBoundingBox"><stop offset="0.02" stop-color="#fff" stop-opacity="0"/><stop offset="0.58" stop-color="#fff" stop-opacity="0.388"/><stop offset="0.68" stop-color="#fff" stop-opacity="0.678"/><stop offset="1" stop-color="#fff"/></linearGradient><linearGradient id="y" x1="0.185" y1="-0.258" x2="0.961" y2="1.606" xlink:href="#m"/><clipPath id="aa"><rect width="375" height="628"/></clipPath></defs><g id="z" clip-path="url(#aa)"><rect width="375" height="628" fill="#fff"/><path d="M1.46,0h3.8V-14.92H1.46Zm21-14.92H18.84v8.74h-.02l-6-8.74H9.18V0H12.8V-8.9h.02L18.86,0h3.6Zm8.94-.32c-3.44,0-5.5,1.98-5.5,4.6,0,2.78,2.36,3.78,4.1,4.44,1.42.56,2.46.96,2.46,1.84,0,.8-.82,1.38-2.22,1.38a6.919,6.919,0,0,1-4.26-1.6V-1A8.468,8.468,0,0,0,30.64.32c3.52,0,5.68-1.98,5.68-4.8,0-3-2.5-3.96-4.56-4.72-1.38-.54-2.12-.86-2.12-1.56,0-.72.76-1.18,2.02-1.18a7.094,7.094,0,0,1,3.76,1.12v-3.4A8.182,8.182,0,0,0,31.4-15.24ZM45.68.36a6.021,6.021,0,0,0,6.44-6.34v-8.94h-3.8V-6c0,1.88-1,2.9-2.64,2.9-1.6,0-2.56-1.02-2.56-2.88v-8.94h-3.8v8.94A5.978,5.978,0,0,0,45.68.36ZM63.54-5.38A4.66,4.66,0,0,0,66.98-9.9c0-3.32-2.42-5.02-6.08-5.02H55.88V0h3.8V-4.94h.12L63.22,0h4.5ZM59.68-7.82V-11.5h1.16c1.38,0,2.32.64,2.32,1.84,0,1.18-.9,1.84-2.34,1.84ZM84.36,0,78.8-14.92H74.4L68.92,0h3.94l1.12-3.3h5.26L80.4,0ZM76.6-11.04l1.62,4.66H74.98Zm23.48-3.88H96.46v8.74h-.02l-6-8.74H86.8V0h3.62V-8.9h.02L96.48,0h3.6ZM115.16-.68V-4.46a6.187,6.187,0,0,1-3.72,1.34,4.263,4.263,0,0,1-4.4-4.34,4.235,4.235,0,0,1,4.4-4.32,6.163,6.163,0,0,1,3.72,1.24v-3.72A8.98,8.98,0,0,0,111-15.28a7.612,7.612,0,0,0-7.78,7.82A7.607,7.607,0,0,0,111,.34,8.98,8.98,0,0,0,115.16-.68Zm3.32.68h9.84V-3.38h-6.04v-2.6h5.46V-9.06h-5.46v-2.48h6.04v-3.38h-9.84Z" transform="translate(32 49)"/><path d="M0,0H375V240H0Z" transform="translate(0 184)" opacity="0.6" fill="url(#a)"/><path d="M3.312,0H5.256V-3.576l3.3-5.376H6.468L4.356-5.316H4.32L2.184-8.952h-2.2L3.312-3.564Zm8,.168a3.386,3.386,0,0,0,3.492-3.492,3.372,3.372,0,0,0-3.492-3.492A3.386,3.386,0,0,0,7.824-3.324,3.393,3.393,0,0,0,11.316.168Zm0-1.728A1.612,1.612,0,0,1,9.768-3.324a1.612,1.612,0,0,1,1.548-1.764,1.62,1.62,0,0,1,1.56,1.764A1.628,1.628,0,0,1,11.316-1.56ZM18.972.168A2.785,2.785,0,0,0,22.02-2.7V-6.648H20.1v3.936A1.031,1.031,0,0,1,18.972-1.56,1.007,1.007,0,0,1,17.88-2.7V-6.648H15.96V-2.7A2.761,2.761,0,0,0,18.972.168ZM23.532,0h1.92V-3.252a1.485,1.485,0,0,1,1.572-1.68,2.162,2.162,0,0,1,.552.06v-1.8a2.051,2.051,0,0,0-.5-.048,2.035,2.035,0,0,0-1.8,1.068h-.024l-.192-1H23.532Zm9.336-3.324A1.739,1.739,0,0,1,34.7-5.088a2.915,2.915,0,0,1,1.668.5V-6.348a3.9,3.9,0,0,0-1.956-.468,3.4,3.4,0,0,0-3.492,3.48,3.4,3.4,0,0,0,3.492,3.5,4.311,4.311,0,0,0,1.956-.456V-2.052A2.764,2.764,0,0,1,34.7-1.56,1.732,1.732,0,0,1,32.868-3.324ZM40.776.168a3.386,3.386,0,0,0,3.492-3.492,3.372,3.372,0,0,0-3.492-3.492,3.386,3.386,0,0,0-3.492,3.492A3.393,3.393,0,0,0,40.776.168Zm0-1.728a1.612,1.612,0,0,1-1.548-1.764,1.612,1.612,0,0,1,1.548-1.764,1.62,1.62,0,0,1,1.56,1.764A1.628,1.628,0,0,1,40.776-1.56ZM47,0h2.04l2.424-6.648H49.512L48.084-2.016h-.036L46.632-6.648H44.58ZM58.188-3.432c0-2.22-1.38-3.384-3.072-3.384A3.323,3.323,0,0,0,51.78-3.3,3.35,3.35,0,0,0,55.464.168a4.562,4.562,0,0,0,2.316-.6V-2a3.863,3.863,0,0,1-2.076.66,2,2,0,0,1-2.088-1.44H58.14A3.565,3.565,0,0,0,58.188-3.432Zm-4.608-.5A1.6,1.6,0,0,1,55.1-5.3a1.253,1.253,0,0,1,1.26,1.368ZM59.436,0h1.92V-3.252a1.485,1.485,0,0,1,1.572-1.68,2.162,2.162,0,0,1,.552.06v-1.8a2.051,2.051,0,0,0-.5-.048,2.035,2.035,0,0,0-1.8,1.068h-.024l-.192-1H59.436Z" transform="translate(32 221)"/><path d="M-714,270l6,6,6-6" transform="translate(895.5 316.5)" fill="none" stroke="#c1c6c8" stroke-width="2"/><path d="M5.088.18A4.426,4.426,0,0,0,9.516-4.464,4.44,4.44,0,0,0,5.088-9.108,4.442,4.442,0,0,0,.648-4.464,4.421,4.421,0,0,0,5.088.18Zm0-1.056a3.35,3.35,0,0,1-3.3-3.588,3.344,3.344,0,0,1,3.3-3.588A3.348,3.348,0,0,1,8.376-4.464,3.348,3.348,0,0,1,5.088-.876Zm6.78-2.376A2.239,2.239,0,0,1,14.088-5.6a2.74,2.74,0,0,1,1.74.552V-6.18a3.325,3.325,0,0,0-1.8-.456,3.261,3.261,0,0,0-3.276,3.384,3.257,3.257,0,0,0,3.276,3.4,3.6,3.6,0,0,0,1.8-.444V-1.416A2.778,2.778,0,0,1,14.1-.888,2.238,2.238,0,0,1,11.868-3.252Zm6.18,0A2.239,2.239,0,0,1,20.268-5.6a2.74,2.74,0,0,1,1.74.552V-6.18a3.325,3.325,0,0,0-1.8-.456,3.261,3.261,0,0,0-3.276,3.384,3.257,3.257,0,0,0,3.276,3.4,3.6,3.6,0,0,0,1.8-.444V-1.416a2.778,2.778,0,0,1-1.728.528A2.238,2.238,0,0,1,18.048-3.252Zm8.16,3.4A2.5,2.5,0,0,0,28.9-2.5v-4h-1.1v4.02A1.463,1.463,0,0,1,26.208-.888a1.438,1.438,0,0,1-1.536-1.584v-4.02h-1.1v4A2.469,2.469,0,0,0,26.208.144Zm4.62,2.376h1.1V-1.128A2.584,2.584,0,0,0,34.176.144a3.118,3.118,0,0,0,2.94-3.4,3.129,3.129,0,0,0-2.952-3.384,2.616,2.616,0,0,0-2.3,1.344l-.132-1.2h-.9Zm3.12-3.408a2.148,2.148,0,0,1-2.04-2.352A2.152,2.152,0,0,1,33.948-5.6a2.151,2.151,0,0,1,2.064,2.352A2.148,2.148,0,0,1,33.948-.888ZM41.268.144a2.61,2.61,0,0,0,2.316-1.332L43.716,0h.9V-6.492h-.9l-.132,1.2a2.621,2.621,0,0,0-2.316-1.344,3.141,3.141,0,0,0-2.952,3.4A3.144,3.144,0,0,0,41.268.144ZM41.5-.888A2.151,2.151,0,0,1,39.432-3.24,2.155,2.155,0,0,1,41.5-5.6a2.157,2.157,0,0,1,2.052,2.352A2.161,2.161,0,0,1,41.5-.888Zm6.492-7.128H46.932v1.524h-1v.96h.972v3.264A2.148,2.148,0,0,0,49.224.084a4.067,4.067,0,0,0,.768-.072v-.96a3.357,3.357,0,0,1-.576.06,1.289,1.289,0,0,1-1.428-1.428V-5.532h1.86v-.96h-1.86Zm3.9.036a.659.659,0,0,0,.684-.672.659.659,0,0,0-.684-.672.659.659,0,0,0-.684.672A.659.659,0,0,0,51.888-7.98ZM51.336,0h1.1V-6.492h-1.1ZM57.3.144A3.22,3.22,0,0,0,60.516-3.24a3.224,3.224,0,0,0-3.216-3.4,3.236,3.236,0,0,0-3.24,3.4A3.225,3.225,0,0,0,57.3.144Zm0-1.032A2.174,2.174,0,0,1,55.176-3.24,2.185,2.185,0,0,1,57.3-5.6,2.183,2.183,0,0,1,59.412-3.24,2.179,2.179,0,0,1,57.3-.888Zm7.824-5.748a2.342,2.342,0,0,0-1.992,1.128H63.1l-.12-.984h-.852V0h1.1V-3.96a1.57,1.57,0,0,1,1.62-1.62c.972,0,1.488.54,1.488,1.68V0h1.1V-4.3A2.18,2.18,0,0,0,65.124-6.636ZM72.66,0h1.1V-3.7A1.682,1.682,0,0,1,75.5-5.52a2.793,2.793,0,0,1,.456.048V-6.528a2.325,2.325,0,0,0-.432-.036,2.1,2.1,0,0,0-1.86,1.1h-.012l-.12-1.032H72.66Zm6.816.144a2.61,2.61,0,0,0,2.316-1.332L81.924,0h.9V-6.492h-.9l-.132,1.2a2.621,2.621,0,0,0-2.316-1.344,3.141,3.141,0,0,0-2.952,3.4A3.144,3.144,0,0,0,79.476.144ZM79.7-.888A2.151,2.151,0,0,1,77.64-3.24,2.155,2.155,0,0,1,79.7-5.6a2.157,2.157,0,0,1,2.052,2.352A2.161,2.161,0,0,1,79.7-.888ZM86.2-8.016H85.14v1.524h-1v.96h.972v3.264A2.148,2.148,0,0,0,87.432.084,4.067,4.067,0,0,0,88.2.012v-.96a3.357,3.357,0,0,1-.576.06A1.289,1.289,0,0,1,86.2-2.316V-5.532h1.86v-.96H86.2Zm3.9.036a.659.659,0,0,0,.684-.672.659.659,0,0,0-.684-.672.659.659,0,0,0-.684.672A.659.659,0,0,0,90.1-7.98ZM89.544,0h1.1V-6.492h-1.1Zm6.144-6.636A2.342,2.342,0,0,0,93.7-5.508H93.66l-.12-.984h-.852V0h1.1V-3.96a1.57,1.57,0,0,1,1.62-1.62c.972,0,1.488.54,1.488,1.68V0H98V-4.3A2.18,2.18,0,0,0,95.688-6.636Zm6.792.012A3.107,3.107,0,0,0,99.528-3.36,3.08,3.08,0,0,0,102.48-.108a2.644,2.644,0,0,0,2.232-1.224v.984a2.005,2.005,0,0,1-2.136,1.98A3.543,3.543,0,0,1,100.2.672V1.86a4.108,4.108,0,0,0,2.424.8,3.032,3.032,0,0,0,3.192-3.192V-6.492h-.9l-.132,1.128A2.663,2.663,0,0,0,102.48-6.624ZM102.7-5.6A2.083,2.083,0,0,1,104.748-3.4a2.133,2.133,0,0,1-2.052,2.28,2.112,2.112,0,0,1-2.052-2.232A2.119,2.119,0,0,1,102.7-5.6Z" transform="translate(32 153)"/><path d="M1.224,0H2.34V-8.928H1.224ZM7.572-6.636A2.342,2.342,0,0,0,5.58-5.508H5.544l-.12-.984H4.572V0h1.1V-3.96A1.57,1.57,0,0,1,7.3-5.58c.972,0,1.488.54,1.488,1.68V0h1.1V-4.3A2.18,2.18,0,0,0,7.572-6.636Zm6.3,0c-1.44,0-2.34.816-2.34,1.908,0,1.14.948,1.488,2.016,1.812.936.288,1.548.492,1.548,1.116,0,.576-.5.96-1.38.96a3.081,3.081,0,0,1-2.208-.924V-.576a3.588,3.588,0,0,0,2.244.72c1.5,0,2.424-.768,2.424-1.956,0-1.308-1.128-1.632-2.124-1.92-.876-.252-1.44-.468-1.44-1.044,0-.528.456-.876,1.272-.876a3.066,3.066,0,0,1,1.944.672V-6.072A3.4,3.4,0,0,0,13.872-6.636ZM20.3.144A2.5,2.5,0,0,0,22.992-2.5v-4h-1.1v4.02A1.463,1.463,0,0,1,20.3-.888a1.438,1.438,0,0,1-1.536-1.584v-4.02h-1.1v4A2.469,2.469,0,0,0,20.3.144ZM24.924,0h1.1V-3.7a1.682,1.682,0,0,1,1.74-1.824,2.793,2.793,0,0,1,.456.048V-6.528a2.325,2.325,0,0,0-.432-.036,2.1,2.1,0,0,0-1.86,1.1H25.92L25.8-6.492h-.876ZM31.74.144a2.61,2.61,0,0,0,2.316-1.332L34.188,0h.9V-6.492h-.9l-.132,1.2A2.621,2.621,0,0,0,31.74-6.636a3.141,3.141,0,0,0-2.952,3.4A3.144,3.144,0,0,0,31.74.144Zm.228-1.032A2.151,2.151,0,0,1,29.9-3.24,2.155,2.155,0,0,1,31.968-5.6,2.157,2.157,0,0,1,34.02-3.252,2.161,2.161,0,0,1,31.968-.888ZM40.1-6.636a2.342,2.342,0,0,0-1.992,1.128h-.036l-.12-.984H37.1V0h1.1V-3.96a1.57,1.57,0,0,1,1.62-1.62c.972,0,1.488.54,1.488,1.68V0h1.1V-4.3A2.18,2.18,0,0,0,40.1-6.636ZM45.06-3.252A2.239,2.239,0,0,1,47.28-5.6a2.74,2.74,0,0,1,1.74.552V-6.18a3.325,3.325,0,0,0-1.8-.456,3.261,3.261,0,0,0-3.276,3.384A3.257,3.257,0,0,0,47.22.144,3.6,3.6,0,0,0,49.02-.3V-1.416a2.778,2.778,0,0,1-1.728.528A2.238,2.238,0,0,1,45.06-3.252Zm11-.12c0-2.136-1.26-3.264-2.8-3.264a3.188,3.188,0,0,0-3.132,3.42A3.125,3.125,0,0,0,53.424.144a3.782,3.782,0,0,0,2.268-.72V-1.668a3.354,3.354,0,0,1-2.184.852A2.213,2.213,0,0,1,51.216-2.88h4.812A2.947,2.947,0,0,0,56.064-3.372Zm-4.848-.336a2.108,2.108,0,0,1,2.04-1.968A1.769,1.769,0,0,1,55-3.708Zm10.4.456A2.239,2.239,0,0,1,63.84-5.6a2.74,2.74,0,0,1,1.74.552V-6.18a3.325,3.325,0,0,0-1.8-.456A3.261,3.261,0,0,0,60.5-3.252,3.257,3.257,0,0,0,63.78.144,3.6,3.6,0,0,0,65.58-.3V-1.416a2.778,2.778,0,0,1-1.728.528A2.238,2.238,0,0,1,61.62-3.252Zm8.3,3.4A3.22,3.22,0,0,0,73.14-3.24a3.224,3.224,0,0,0-3.216-3.4,3.236,3.236,0,0,0-3.24,3.4A3.225,3.225,0,0,0,69.924.144Zm0-1.032A2.174,2.174,0,0,1,67.8-3.24,2.185,2.185,0,0,1,69.924-5.6,2.183,2.183,0,0,1,72.036-3.24,2.179,2.179,0,0,1,69.924-.888Zm6.864-5.748c-1.44,0-2.34.816-2.34,1.908,0,1.14.948,1.488,2.016,1.812.936.288,1.548.492,1.548,1.116,0,.576-.5.96-1.38.96a3.081,3.081,0,0,1-2.208-.924V-.576a3.588,3.588,0,0,0,2.244.72c1.5,0,2.424-.768,2.424-1.956,0-1.308-1.128-1.632-2.124-1.92-.876-.252-1.44-.468-1.44-1.044,0-.528.456-.876,1.272-.876a3.066,3.066,0,0,1,1.944.672V-6.072A3.4,3.4,0,0,0,76.788-6.636Zm5.22-1.38H80.952v1.524h-1v.96h.972v3.264A2.148,2.148,0,0,0,83.244.084a4.067,4.067,0,0,0,.768-.072v-.96a3.357,3.357,0,0,1-.576.06,1.289,1.289,0,0,1-1.428-1.428V-5.532h1.86v-.96h-1.86Z" transform="translate(216 153)"/><path d="M1.62,0H4.88V-4.22H6.22c4.06,0,6.3-2.44,6.3-5.46,0-3.2-2.4-5.24-6.5-5.24H1.62ZM6.36-7.12H4.88v-4.82H6.34c1.7,0,2.88.82,2.88,2.38S8.04-7.12,6.36-7.12ZM14.4,0h3.2V-5.42a2.474,2.474,0,0,1,2.62-2.8,3.6,3.6,0,0,1,.92.1v-3a3.418,3.418,0,0,0-.84-.08,3.392,3.392,0,0,0-3,1.78h-.04l-.32-1.66H14.4ZM27.74.28a5.643,5.643,0,0,0,5.82-5.82,5.62,5.62,0,0,0-5.82-5.82,5.643,5.643,0,0,0-5.82,5.82A5.654,5.654,0,0,0,27.74.28Zm0-2.88a2.686,2.686,0,0,1-2.58-2.94,2.686,2.686,0,0,1,2.58-2.94,2.7,2.7,0,0,1,2.6,2.94A2.713,2.713,0,0,1,27.74-2.6ZM36.3,0h3.2V-8.44h2.88v-2.64H39.46v-.86c0-1.06.6-1.52,1.76-1.52a5.56,5.56,0,0,1,1.56.24V-15.9a6.916,6.916,0,0,0-2.12-.34A4.039,4.039,0,0,0,36.3-12.2v1.12H34.78v2.64H36.3ZM53.82-5.72c0-3.7-2.3-5.64-5.12-5.64A5.539,5.539,0,0,0,43.14-5.5c0,3.36,2.24,5.78,6.14,5.78a7.6,7.6,0,0,0,3.86-1V-3.34a6.438,6.438,0,0,1-3.46,1.1,3.331,3.331,0,0,1-3.48-2.4h7.54A5.942,5.942,0,0,0,53.82-5.72Zm-7.68-.84a2.665,2.665,0,0,1,2.54-2.28,2.089,2.089,0,0,1,2.1,2.28Zm13.88-4.8c-2.86,0-4.52,1.5-4.52,3.54,0,2.02,1.64,2.74,3.4,3.24,1.44.4,2.24.62,2.24,1.3,0,.6-.64.96-1.76.96A5.964,5.964,0,0,1,55.56-3.7V-.76A7.3,7.3,0,0,0,59.52.28c3,0,4.72-1.4,4.72-3.58,0-2.34-1.94-2.96-3.76-3.4-1.26-.34-1.9-.58-1.9-1.18,0-.54.56-.88,1.56-.88a6.424,6.424,0,0,1,3.38.98V-10.5A6.972,6.972,0,0,0,60.02-11.36Zm10.4,0c-2.86,0-4.52,1.5-4.52,3.54,0,2.02,1.64,2.74,3.4,3.24,1.44.4,2.24.62,2.24,1.3,0,.6-.64.96-1.76.96A5.964,5.964,0,0,1,65.96-3.7V-.76A7.3,7.3,0,0,0,69.92.28c3,0,4.72-1.4,4.72-3.58,0-2.34-1.94-2.96-3.76-3.4-1.26-.34-1.9-.58-1.9-1.18,0-.54.56-.88,1.56-.88a6.424,6.424,0,0,1,3.38.98V-10.5A6.972,6.972,0,0,0,70.42-11.36Zm7.9-1.24a1.729,1.729,0,0,0,1.74-1.74,1.724,1.724,0,0,0-1.74-1.72,1.717,1.717,0,0,0-1.76,1.72A1.721,1.721,0,0,0,78.32-12.6ZM76.72,0h3.2V-11.08h-3.2ZM87.8.28a5.643,5.643,0,0,0,5.82-5.82,5.62,5.62,0,0,0-5.82-5.82,5.643,5.643,0,0,0-5.82,5.82A5.654,5.654,0,0,0,87.8.28Zm0-2.88a2.686,2.686,0,0,1-2.58-2.94A2.686,2.686,0,0,1,87.8-8.48a2.7,2.7,0,0,1,2.6,2.94A2.713,2.713,0,0,1,87.8-2.6Zm14.08-8.76a3.9,3.9,0,0,0-3.34,1.84h-.06l-.32-1.56H95.68V0h3.2V-6.56a1.833,1.833,0,0,1,1.92-1.9c1.16,0,1.76.62,1.76,1.98V0h3.2V-7.4A3.616,3.616,0,0,0,101.88-11.36ZM112.66.28A4.165,4.165,0,0,0,116.3-1.7l.32,1.7h2.7V-11.08h-2.7l-.32,1.7a4.209,4.209,0,0,0-3.64-1.98c-2.5,0-4.92,2.32-4.92,5.86C107.74-2.04,110.16.28,112.66.28Zm.94-2.88a2.717,2.717,0,0,1-2.64-2.94,2.729,2.729,0,0,1,2.64-2.94,2.685,2.685,0,0,1,2.58,2.94A2.685,2.685,0,0,1,113.6-2.6ZM122,0h3.2V-16.06H122Zm23.98,0-5.66-14.92h-3.76L130.98,0h3.4l1.28-3.64h5.58L142.56,0Zm-7.54-11.52,1.88,5.2h-3.76Z" transform="translate(32 125)"/><path d="M10.78-4.48c0-2.74-2.06-3.66-4.1-4.36-1.28-.44-2.3-.86-2.3-1.76,0-.76.76-1.38,2.04-1.38a6.208,6.208,0,0,1,3.5,1.18v-3.14a7.951,7.951,0,0,0-2.8-.86v-1.48H4.52v1.64A4.21,4.21,0,0,0,1.1-10.6c0,2.64,1.98,3.56,4,4.26,1.38.46,2.38.9,2.38,1.88s-.96,1.6-2.36,1.6A5.784,5.784,0,0,1,1.14-4.54v3.36A8.089,8.089,0,0,0,4.52-.04V1.44h2.6V-.18A4.486,4.486,0,0,0,10.78-4.48Zm11-10.44h-7.4l-1.2,8.1.5.34a5.854,5.854,0,0,1,2.48-.54c2,0,2.98.98,2.98,2.2,0,1.2-.96,2.14-2.7,2.14A5.572,5.572,0,0,1,12.6-4.24V-.9A7.1,7.1,0,0,0,16.78.34c3.86,0,5.74-2.6,5.74-5.18,0-2.44-1.8-4.66-5.12-4.66a5.2,5.2,0,0,0-1.24.16l.48-2.64h5.14ZM27.36,0h3.2V-15.06h-.24l-6.26,2.44V-9.4l3.3-1.34Zm8.08.14a1.793,1.793,0,0,0,1.8-1.8,1.78,1.78,0,0,0-1.8-1.8,1.78,1.78,0,0,0-1.8,1.8A1.793,1.793,0,0,0,35.44.14ZM47.8-7.68v-.04a3.66,3.66,0,0,0,2.08-3.38c0-2.18-1.86-4.16-5.18-4.16-3.3,0-5.18,1.98-5.18,4.18A3.619,3.619,0,0,0,41.6-7.72v.04a3.81,3.81,0,0,0-2.5,3.64C39.1-1.7,41.2.34,44.7.34c3.56,0,5.62-2.02,5.62-4.38A3.748,3.748,0,0,0,47.8-7.68Zm-5.28-2.98a2,2,0,0,1,2.18-1.92,2.023,2.023,0,0,1,2.2,1.92,1.988,1.988,0,0,1-2.2,1.92A1.981,1.981,0,0,1,42.52-10.66ZM44.7-6.38a2.168,2.168,0,0,1,2.44,2.04A2.168,2.168,0,0,1,44.7-2.3a2.154,2.154,0,0,1-2.4-2.04A2.142,2.142,0,0,1,44.7-6.38Zm16.34-1.3v-.04a3.66,3.66,0,0,0,2.08-3.38c0-2.18-1.86-4.16-5.18-4.16-3.3,0-5.18,1.98-5.18,4.18a3.619,3.619,0,0,0,2.08,3.36v.04a3.81,3.81,0,0,0-2.5,3.64c0,2.34,2.1,4.38,5.6,4.38,3.56,0,5.62-2.02,5.62-4.38A3.748,3.748,0,0,0,61.04-7.68Zm-5.28-2.98a2,2,0,0,1,2.18-1.92,2.023,2.023,0,0,1,2.2,1.92,1.988,1.988,0,0,1-2.2,1.92A1.981,1.981,0,0,1,55.76-10.66Zm2.18,4.28a2.168,2.168,0,0,1,2.44,2.04A2.168,2.168,0,0,1,57.94-2.3a2.154,2.154,0,0,1-2.4-2.04A2.142,2.142,0,0,1,57.94-6.38Z" transform="translate(216 125)"/><path d="M5.71-2.86A2.533,2.533,0,0,0,3.15-5.68,2.769,2.769,0,0,0,.37-2.75,2.791,2.791,0,0,0,3.44.14a3.8,3.8,0,0,0,1.93-.5V-1.67a3.219,3.219,0,0,1-1.73.55A1.666,1.666,0,0,1,1.9-2.32H5.67A2.971,2.971,0,0,0,5.71-2.86ZM1.87-3.28A1.333,1.333,0,0,1,3.14-4.42,1.045,1.045,0,0,1,4.19-3.28ZM8.91.14a2.083,2.083,0,0,0,1.82-.99l.16.85h1.35V-5.54H10.89l-.16.85a2.1,2.1,0,0,0-1.82-.99A2.7,2.7,0,0,0,6.45-2.75,2.688,2.688,0,0,0,8.91.14ZM9.38-1.3A1.359,1.359,0,0,1,8.06-2.77,1.364,1.364,0,0,1,9.38-4.24a1.343,1.343,0,0,1,1.29,1.47A1.343,1.343,0,0,1,9.38-1.3Zm5.5-1.47a1.45,1.45,0,0,1,1.53-1.47,2.429,2.429,0,0,1,1.39.42V-5.29a3.248,3.248,0,0,0-1.63-.39,2.837,2.837,0,0,0-2.91,2.9A2.835,2.835,0,0,0,16.17.14,3.593,3.593,0,0,0,17.8-.24V-1.71a2.3,2.3,0,0,1-1.39.41A1.444,1.444,0,0,1,14.88-2.77Zm5.66-5.26h-1.6V0h1.6V-3.31a.9.9,0,0,1,.96-.93c.59,0,.88.31.88.99V0h1.6V-3.7a1.806,1.806,0,0,0-1.95-1.98A1.9,1.9,0,0,0,20.55-5h-.01ZM5.87,2.46H4.23L3.04,6.11H3L1.81,2.46H.1L2.19,7.85,1.25,10.1H2.84Zm5.58,2.68A2.533,2.533,0,0,0,8.89,2.32,2.769,2.769,0,0,0,6.11,5.25,2.791,2.791,0,0,0,9.18,8.14a3.8,3.8,0,0,0,1.93-.5V6.33a3.219,3.219,0,0,1-1.73.55,1.666,1.666,0,0,1-1.74-1.2h3.77A2.971,2.971,0,0,0,11.45,5.14ZM7.61,4.72A1.333,1.333,0,0,1,8.88,3.58,1.045,1.045,0,0,1,9.93,4.72Zm7.04,3.42a2.083,2.083,0,0,0,1.82-.99l.16.85h1.35V2.46H16.63l-.16.85a2.1,2.1,0,0,0-1.82-.99,2.7,2.7,0,0,0-2.46,2.93A2.688,2.688,0,0,0,14.65,8.14Zm.47-1.44A1.359,1.359,0,0,1,13.8,5.23a1.364,1.364,0,0,1,1.32-1.47,1.343,1.343,0,0,1,1.29,1.47A1.343,1.343,0,0,1,15.12,6.7ZM19.31,8h1.6V5.29a1.237,1.237,0,0,1,1.31-1.4,1.8,1.8,0,0,1,.46.05V2.44a1.781,1.781,0,0,0-1.92.85h-.02l-.16-.83H19.31Z" transform="translate(291 116)"/><g transform="translate(20 230)" clip-path="url(#b)" style="isolation:isolate"><g transform="translate(-20 -246)"><g transform="matrix(1, 0, 0, 1, 0, 16)" filter="url(#c)"><rect width="120" height="160" rx="8" transform="translate(32 240)" fill="#fff"/></g><path d="M4.214-10.444H1.134V0h3.08C7.574,0,9.9-2.072,9.9-5.222S7.616-10.444,4.214-10.444Zm-.8,2.086h.9a2.976,2.976,0,0,1,3.276,3.15A2.979,2.979,0,0,1,4.312-2.072h-.9ZM18.466-4c0-2.59-1.61-3.948-3.584-3.948a3.877,3.877,0,0,0-3.892,4.1C10.99-1.5,12.558.2,15.288.2a5.323,5.323,0,0,0,2.7-.7V-2.338a4.507,4.507,0,0,1-2.422.77,2.332,2.332,0,0,1-2.436-1.68H18.41A4.16,4.16,0,0,0,18.466-4ZM13.09-4.592a1.866,1.866,0,0,1,1.778-1.6,1.462,1.462,0,0,1,1.47,1.6ZM22.946.2A2.916,2.916,0,0,0,25.494-1.19L25.718,0h1.89V-7.756h-1.89l-.224,1.19a2.946,2.946,0,0,0-2.548-1.386c-1.75,0-3.444,1.624-3.444,4.1A3.763,3.763,0,0,0,22.946.2ZM23.6-1.82a1.9,1.9,0,0,1-1.848-2.058A1.91,1.91,0,0,1,23.6-5.936,1.88,1.88,0,0,1,25.41-3.878,1.88,1.88,0,0,1,23.6-1.82Zm8.5-7.728H29.946v1.792H28.84v1.848h1.092v2.926A2.884,2.884,0,0,0,33.1.168,5.317,5.317,0,0,0,34.314.042V-1.834a4.383,4.383,0,0,1-.7.07c-.868,0-1.512-.378-1.512-1.358V-5.908h2.072V-7.756H32.1Zm5.768-1.694H35.63V0h2.24V-4.634a1.253,1.253,0,0,1,1.344-1.3c.826,0,1.232.434,1.232,1.386V0h2.24V-5.18a2.528,2.528,0,0,0-2.73-2.772A2.657,2.657,0,0,0,37.884-7H37.87Z" transform="translate(48 327)"/><path d="M-6592,10a5.006,5.006,0,0,1-5-5,5.006,5.006,0,0,1,5-5,5,5,0,0,1,5,5A5,5,0,0,1-6592,10Zm0-6.071a.716.716,0,0,0-.713.717V7.5a.707.707,0,0,0,.713.717.716.716,0,0,0,.714-.717V4.645A.708.708,0,0,0-6592,3.929Zm0-2.143a.715.715,0,0,0-.713.714.715.715,0,0,0,.713.714.714.714,0,0,0,.714-.714A.714.714,0,0,0-6592,1.786Z" transform="translate(6723.001 272)" fill="#c1c6c8"/><g transform="translate(-4 -2955)"><path d="M-118.2,268.977v-6.23c0-.539-.156-.692-.7-.77-1.095-.154-2.19-.23-3.285-.461a27.524,27.524,0,0,1-9.307-4.231,1.62,1.62,0,0,0-.7-.385c-.156,0-.313.077-.7.308A25.08,25.08,0,0,1-145.34,261.9c-.7.077-.86.231-.86.923v11.231a16.684,16.684,0,0,0,.313,2.769,12.46,12.46,0,0,0,3.6,6.077,27.117,27.117,0,0,0,9.7,5.923c.078,0,.156.077.313.077a.594.594,0,0,0,.391-.077c1.251-.538,2.5-1.077,3.754-1.692a20.461,20.461,0,0,0,7.352-6,11.09,11.09,0,0,0,2.346-6.154A50.656,50.656,0,0,0-118.2,268.977Z" transform="translate(198.2 2970.1)" fill="#00629b"/><g transform="translate(0.167 -0.499)"><path d="M37.184,7.922q-.037-.275-.1-.55a4.166,4.166,0,0,0-5.656-3.348,10.023,10.023,0,0,0-1.685.862.977.977,0,0,1-.447.128h-.019a.977.977,0,0,1-.447-.128,10.023,10.023,0,0,0-1.685-.862,4.166,4.166,0,0,0-5.656,3.348q-.061.275-.1.55a3.353,3.353,0,0,0-.078,1.267,6.494,6.494,0,0,0,2.619,4.965c1.156.938,2.447,1.7,3.681,2.538.467.32.943.623,1.4.96a.461.461,0,0,0,.258.111v0h.035v0a.461.461,0,0,0,.258-.111c.455-.337.93-.64,1.4-.96,1.234-.836,2.525-1.6,3.681-2.538a6.494,6.494,0,0,0,2.619-4.965A3.353,3.353,0,0,0,37.184,7.922Z" transform="translate(36.545 3233.732)" fill="none" stroke="#fff" stroke-linecap="round" stroke-linejoin="round" stroke-width="1"/><g transform="translate(62.833 3241.328)"><path d="M22270,10518h6" transform="translate(-22269.998 -10514.997)" fill="none" stroke="#fff" stroke-linecap="round" stroke-width="1"/><path d="M22286,10502v6" transform="translate(-22283.01 -10502)" fill="none" stroke="#fff" stroke-linecap="round" stroke-width="1"/></g></g></g><path d="M5.168,1.392V-.24A3.066,3.066,0,0,0,8.016-3.2c0-1.44-.768-2.32-2.672-2.992-1.36-.512-1.92-.848-1.92-1.376,0-.448.336-.9,1.376-.9a5.306,5.306,0,0,1,2.3.544l.464-1.808a5.76,5.76,0,0,0-2.32-.528v-1.408H3.68v1.52A2.957,2.957,0,0,0,.976-7.3c0,1.552,1.168,2.352,2.88,2.928,1.184.4,1.7.784,1.7,1.392,0,.64-.624.992-1.536.992a5.649,5.649,0,0,1-2.656-.7L.88-.816A6.437,6.437,0,0,0,3.6-.128v1.52ZM12.656,0h2.352V-10.4H12.992L10.24-9.12l.4,1.824,1.984-.944h.032Zm6.752,1.76A22.147,22.147,0,0,0,21.424-2.8l-2.48.16A27.028,27.028,0,0,1,17.792,1.9ZM29.968,0V-2h-3.92v-.032l.96-.8c1.5-1.344,2.768-2.736,2.768-4.48,0-1.888-1.3-3.264-3.648-3.264A5.758,5.758,0,0,0,22.72-9.5l.688,1.744a3.769,3.769,0,0,1,2.224-.864c1.2,0,1.712.672,1.712,1.52-.032,1.216-1.136,2.384-3.408,4.416L22.592-1.472V0ZM35.28-10.576c-2.688,0-3.968,2.384-3.968,5.392.016,2.944,1.2,5.36,3.888,5.36,2.656,0,3.952-2.208,3.952-5.424C39.152-8.1,38.064-10.576,35.28-10.576Zm-.032,1.84c.976,0,1.472,1.216,1.472,3.52,0,2.368-.512,3.552-1.456,3.552s-1.52-1.136-1.5-3.52C33.744-7.6,34.352-8.736,35.248-8.736Zm8.912-1.84c-2.688,0-3.968,2.384-3.968,5.392.016,2.944,1.2,5.36,3.888,5.36,2.656,0,3.952-2.208,3.952-5.424C48.032-8.1,46.944-10.576,44.16-10.576Zm-.032,1.84c.976,0,1.472,1.216,1.472,3.52,0,2.368-.512,3.552-1.456,3.552s-1.52-1.136-1.5-3.52C42.624-7.6,43.232-8.736,44.128-8.736Zm6.08,10.5A22.147,22.147,0,0,0,52.224-2.8l-2.48.16A27.028,27.028,0,0,1,48.592,1.9ZM57.2-10.576c-2.688,0-3.968,2.384-3.968,5.392.016,2.944,1.2,5.36,3.888,5.36,2.656,0,3.952-2.208,3.952-5.424C61.072-8.1,59.984-10.576,57.2-10.576Zm-.032,1.84c.976,0,1.472,1.216,1.472,3.52,0,2.368-.512,3.552-1.456,3.552s-1.52-1.136-1.5-3.52C55.664-7.6,56.272-8.736,57.168-8.736Zm8.912-1.84c-2.688,0-3.968,2.384-3.968,5.392C62.128-2.24,63.312.176,66,.176c2.656,0,3.952-2.208,3.952-5.424C69.952-8.1,68.864-10.576,66.08-10.576Zm-.032,1.84c.976,0,1.472,1.216,1.472,3.52,0,2.368-.512,3.552-1.456,3.552s-1.52-1.136-1.5-3.52C64.544-7.6,65.152-8.736,66.048-8.736Zm8.912-1.84c-2.688,0-3.968,2.384-3.968,5.392.016,2.944,1.2,5.36,3.888,5.36,2.656,0,3.952-2.208,3.952-5.424C78.832-8.1,77.744-10.576,74.96-10.576Zm-.032,1.84c.976,0,1.472,1.216,1.472,3.52,0,2.368-.512,3.552-1.456,3.552s-1.52-1.136-1.5-3.52C73.424-7.6,74.032-8.736,74.928-8.736Z" transform="translate(48 396)"/></g><g transform="translate(-12 -246)"><g transform="matrix(1, 0, 0, 1, -8, 16)" filter="url(#e)"><rect width="120" height="160" rx="8" transform="translate(160 240)" fill="#fff"/></g><rect width="32" height="160" rx="8" transform="translate(448 256)" fill="#fff" opacity="0"/><path d="M3.346,0H5.614V-8.358H8.666v-2.086H.28v2.086H3.346Zm8.918.2a3.95,3.95,0,0,0,4.074-4.074,3.934,3.934,0,0,0-4.074-4.074A3.95,3.95,0,0,0,8.19-3.878,3.958,3.958,0,0,0,12.264.2Zm0-2.016a1.88,1.88,0,0,1-1.806-2.058,1.88,1.88,0,0,1,1.806-2.058,1.89,1.89,0,0,1,1.82,2.058A1.9,1.9,0,0,1,12.264-1.82Zm8.05-7.728H18.158v1.792H17.052v1.848h1.092v2.926A2.884,2.884,0,0,0,21.308.168,5.317,5.317,0,0,0,22.526.042V-1.834a4.383,4.383,0,0,1-.7.07c-.868,0-1.512-.378-1.512-1.358V-5.908h2.072V-7.756H20.314ZM26.838.2A2.916,2.916,0,0,0,29.386-1.19L29.61,0H31.5V-7.756H29.61l-.224,1.19a2.946,2.946,0,0,0-2.548-1.386c-1.75,0-3.444,1.624-3.444,4.1A3.763,3.763,0,0,0,26.838.2ZM27.5-1.82a1.9,1.9,0,0,1-1.848-2.058A1.91,1.91,0,0,1,27.5-5.936,1.88,1.88,0,0,1,29.3-3.878,1.88,1.88,0,0,1,27.5-1.82ZM33.376,0h2.24V-11.242h-2.24ZM50.708,0l-2.2-2.282,2.17-3.374h-2.1l-1.288,2.1-1.61-1.666c1.232-.616,2.226-1.344,2.226-2.744A2.819,2.819,0,0,0,44.8-10.682c-1.876,0-3.206,1.2-3.206,2.688A3.511,3.511,0,0,0,42.84-5.6a3.041,3.041,0,0,0-2.016,2.758c0,1.792,1.428,3.08,3.514,3.08A4.509,4.509,0,0,0,47.362-.91l.882.91ZM44.814-9A1.147,1.147,0,0,1,46.06-7.9c0,.686-.616,1.092-1.5,1.512-.686-.742-.98-1.148-.98-1.582A1.108,1.108,0,0,1,44.814-9Zm-.28,7.518a1.461,1.461,0,0,1-1.61-1.442c0-.672.42-1.092,1.078-1.47l2.17,2.254A2.518,2.518,0,0,1,44.534-1.484ZM.938,20.94h2.24V16.866A2.866,2.866,0,0,0,5.614,18.2c1.82,0,3.43-1.582,3.43-4.074s-1.666-4.074-3.472-4.074a2.975,2.975,0,0,0-2.534,1.386l-.224-1.19H.938Zm4-4.76A1.87,1.87,0,0,1,3.15,14.122a1.872,1.872,0,0,1,1.806-2.058,1.877,1.877,0,0,1,1.82,2.044A1.9,1.9,0,0,1,4.942,16.18ZM17.556,14c0-2.59-1.61-3.948-3.584-3.948a3.877,3.877,0,0,0-3.892,4.1c0,2.352,1.568,4.046,4.3,4.046a5.323,5.323,0,0,0,2.7-.7V15.662a4.507,4.507,0,0,1-2.422.77,2.332,2.332,0,0,1-2.436-1.68H17.5A4.16,4.16,0,0,0,17.556,14Zm-5.376-.588a1.866,1.866,0,0,1,1.778-1.6,1.462,1.462,0,0,1,1.47,1.6ZM19.012,18h2.24V14.206a1.732,1.732,0,0,1,1.834-1.96,2.523,2.523,0,0,1,.644.07v-2.1a2.493,2.493,0,0,0-2.688,1.19h-.028l-.224-1.162H19.012Zm14.434-7.952a2.545,2.545,0,0,0-2.226,1.316,2.245,2.245,0,0,0-2.17-1.316,2.408,2.408,0,0,0-2.156,1.274h-.042l-.224-1.078H24.892V18h2.24V13.338a1.126,1.126,0,0,1,1.12-1.26c.756,0,1.036.406,1.036,1.246V18h2.24V13.24a1.094,1.094,0,0,1,1.134-1.162c.756,0,1.036.406,1.036,1.246V18h2.24V12.862C35.938,11.168,35.14,10.048,33.446,10.048ZM40.782,18.2A2.916,2.916,0,0,0,43.33,16.81L43.554,18h1.89V10.244h-1.89l-.224,1.19a2.946,2.946,0,0,0-2.548-1.386c-1.75,0-3.444,1.624-3.444,4.1A3.763,3.763,0,0,0,40.782,18.2Zm.658-2.016a1.9,1.9,0,0,1-1.848-2.058,1.91,1.91,0,0,1,1.848-2.058,1.88,1.88,0,0,1,1.806,2.058A1.88,1.88,0,0,1,41.44,16.18Zm10.206-6.132a2.728,2.728,0,0,0-2.338,1.288h-.042l-.224-1.092H47.306V18h2.24V13.408a1.283,1.283,0,0,1,1.344-1.33c.812,0,1.232.434,1.232,1.386V18h2.24V12.82A2.531,2.531,0,0,0,51.646,10.048ZM63.224,14c0-2.59-1.61-3.948-3.584-3.948a3.877,3.877,0,0,0-3.892,4.1c0,2.352,1.568,4.046,4.3,4.046a5.323,5.323,0,0,0,2.7-.7V15.662a4.507,4.507,0,0,1-2.422.77,2.332,2.332,0,0,1-2.436-1.68h5.278A4.16,4.16,0,0,0,63.224,14Zm-5.376-.588a1.866,1.866,0,0,1,1.778-1.6,1.462,1.462,0,0,1,1.47,1.6Zm11.172-3.36a2.728,2.728,0,0,0-2.338,1.288H66.64l-.224-1.092H64.68V18h2.24V13.408a1.283,1.283,0,0,1,1.344-1.33c.812,0,1.232.434,1.232,1.386V18h2.24V12.82A2.531,2.531,0,0,0,69.02,10.048Zm7.126-1.6H73.99v1.792H72.884v1.848h1.092v2.926a2.884,2.884,0,0,0,3.164,3.15,5.317,5.317,0,0,0,1.218-.126V16.166a4.382,4.382,0,0,1-.7.07c-.868,0-1.512-.378-1.512-1.358V12.092h2.072V10.244H76.146ZM4,36.2A2.913,2.913,0,0,0,6.51,34.81L6.734,36h1.89V24.758H6.384v4.62a2.765,2.765,0,0,0-2.408-1.33c-1.806,0-3.458,1.6-3.458,4.074S2.2,36.2,4,36.2Zm.6-2.016a2.072,2.072,0,0,1,0-4.116,1.88,1.88,0,0,1,1.806,2.058A1.88,1.88,0,0,1,4.606,34.18Zm7.014-7a1.211,1.211,0,1,0-1.232-1.218A1.21,1.21,0,0,0,11.62,27.18ZM10.5,36h2.24V28.244H10.5Zm7-7.952c-2,0-3.164,1.05-3.164,2.478s1.148,1.918,2.38,2.268c1.008.28,1.568.434,1.568.91,0,.42-.448.672-1.232.672a4.175,4.175,0,0,1-2.674-.966v2.058a5.108,5.108,0,0,0,2.772.728c2.1,0,3.3-.98,3.3-2.506,0-1.638-1.358-2.072-2.632-2.38-.882-.238-1.33-.406-1.33-.826,0-.378.392-.616,1.092-.616a4.5,4.5,0,0,1,2.366.686v-1.9A4.88,4.88,0,0,0,17.5,28.048ZM24.92,36.2a2.916,2.916,0,0,0,2.548-1.386L27.692,36h1.89V28.244h-1.89l-.224,1.19a2.946,2.946,0,0,0-2.548-1.386c-1.75,0-3.444,1.624-3.444,4.1A3.763,3.763,0,0,0,24.92,36.2Zm.658-2.016a2.07,2.07,0,0,1,0-4.116,1.88,1.88,0,0,1,1.806,2.058A1.88,1.88,0,0,1,25.578,34.18Zm8.106-9.422h-2.24V36H33.32l.224-1.19a2.92,2.92,0,0,0,2.52,1.386c1.806,0,3.486-1.6,3.486-4.074s-1.6-4.074-3.4-4.074a2.914,2.914,0,0,0-2.464,1.33Zm1.764,5.306a1.9,1.9,0,0,1,1.834,2.072,1.827,1.827,0,1,1-3.626-.014A1.87,1.87,0,0,1,35.448,30.064ZM42.14,27.18a1.211,1.211,0,1,0-1.232-1.218A1.21,1.21,0,0,0,42.14,27.18ZM41.02,36h2.24V28.244H41.02Zm4.13,0h2.24V24.758H45.15Zm5.25-8.82a1.211,1.211,0,1,0-1.232-1.218A1.21,1.21,0,0,0,50.4,27.18ZM49.28,36h2.24V28.244H49.28Zm6.748-9.548H53.872v1.792H52.766v1.848h1.092v2.926a2.884,2.884,0,0,0,3.164,3.15,5.317,5.317,0,0,0,1.218-.126V34.166a4.382,4.382,0,0,1-.7.07c-.868,0-1.512-.378-1.512-1.358V30.092H58.1V28.244H56.028Zm10.808,1.792h-2.3l-1.666,5.11h-.056l-1.666-5.11H58.758l2.926,7.546-1.316,3.15h2.226Z" transform="translate(168 327)"/><path d="M-6592,10a5.006,5.006,0,0,1-5-5,5.006,5.006,0,0,1,5-5,5,5,0,0,1,5,5A5,5,0,0,1-6592,10Zm0-6.071a.716.716,0,0,0-.713.717V7.5a.707.707,0,0,0,.713.717.716.716,0,0,0,.714-.717V4.645A.708.708,0,0,0-6592,3.929Zm0-2.143a.715.715,0,0,0-.713.714.715.715,0,0,0,.713.714.714.714,0,0,0,.714-.714A.714.714,0,0,0-6592,1.786Z" transform="translate(6843.001 272)" fill="#c1c6c8"/><path d="M5.168,1.392V-.24A3.066,3.066,0,0,0,8.016-3.2c0-1.44-.768-2.32-2.672-2.992-1.36-.512-1.92-.848-1.92-1.376,0-.448.336-.9,1.376-.9a5.306,5.306,0,0,1,2.3.544l.464-1.808a5.76,5.76,0,0,0-2.32-.528v-1.408H3.68v1.52A2.957,2.957,0,0,0,.976-7.3c0,1.552,1.168,2.352,2.88,2.928,1.184.4,1.7.784,1.7,1.392,0,.64-.624.992-1.536.992a5.649,5.649,0,0,1-2.656-.7L.88-.816A6.437,6.437,0,0,0,3.6-.128v1.52ZM13.248.176c2.416,0,4-1.264,4-3.152a2.753,2.753,0,0,0-1.9-2.592v-.048a2.534,2.534,0,0,0,1.5-2.288c0-1.264-1.008-2.672-3.44-2.672-2.08,0-3.664,1.168-3.664,2.928a2.523,2.523,0,0,0,1.5,2.272v.048A2.764,2.764,0,0,0,9.392-2.72C9.392-1.312,10.608.176,13.248.176Zm.1-1.68A1.424,1.424,0,0,1,11.872-2.96a1.578,1.578,0,0,1,1.264-1.552c.96.256,1.632.8,1.632,1.712A1.306,1.306,0,0,1,13.344-1.5ZM13.3-8.928a1.193,1.193,0,0,1,1.264,1.28A1.424,1.424,0,0,1,13.5-6.32c-.832-.256-1.472-.7-1.472-1.408A1.16,1.16,0,0,1,13.3-8.928ZM25.04,0V-2.48h1.248V-4.3H25.04v-6.1H22.064L18.128-4.064V-2.48h4.608V0ZM20.4-4.3v-.032l1.392-2.272c.352-.656.624-1.264.96-1.936h.064c-.048.672-.08,1.312-.08,1.936v2.3ZM28.288,1.76A22.147,22.147,0,0,0,30.3-2.8l-2.48.16A27.028,27.028,0,0,1,26.672,1.9ZM35.28-10.576c-2.688,0-3.968,2.384-3.968,5.392.016,2.944,1.2,5.36,3.888,5.36,2.656,0,3.952-2.208,3.952-5.424C39.152-8.1,38.064-10.576,35.28-10.576Zm-.032,1.84c.976,0,1.472,1.216,1.472,3.52,0,2.368-.512,3.552-1.456,3.552s-1.52-1.136-1.5-3.52C33.744-7.6,34.352-8.736,35.248-8.736Zm8.912-1.84c-2.688,0-3.968,2.384-3.968,5.392.016,2.944,1.2,5.36,3.888,5.36,2.656,0,3.952-2.208,3.952-5.424C48.032-8.1,46.944-10.576,44.16-10.576Zm-.032,1.84c.976,0,1.472,1.216,1.472,3.52,0,2.368-.512,3.552-1.456,3.552s-1.52-1.136-1.5-3.52C42.624-7.6,43.232-8.736,44.128-8.736Zm8.912-1.84c-2.688,0-3.968,2.384-3.968,5.392.016,2.944,1.2,5.36,3.888,5.36,2.656,0,3.952-2.208,3.952-5.424C56.912-8.1,55.824-10.576,53.04-10.576Zm-.032,1.84c.976,0,1.472,1.216,1.472,3.52,0,2.368-.512,3.552-1.456,3.552S51.5-2.8,51.52-5.184C51.5-7.6,52.112-8.736,53.008-8.736Z" transform="translate(168 396)"/><g transform="translate(116 -3020)"><path d="M-118.2,268.977v-6.23c0-.539-.156-.692-.7-.77-1.095-.154-2.19-.23-3.285-.461a27.524,27.524,0,0,1-9.307-4.231,1.62,1.62,0,0,0-.7-.385c-.156,0-.313.077-.7.308A25.08,25.08,0,0,1-145.34,261.9c-.7.077-.86.231-.86.923v11.231a16.684,16.684,0,0,0,.313,2.769,12.46,12.46,0,0,0,3.6,6.077,27.117,27.117,0,0,0,9.7,5.923c.078,0,.156.077.313.077a.594.594,0,0,0,.391-.077c1.251-.538,2.5-1.077,3.754-1.692a20.461,20.461,0,0,0,7.352-6,11.09,11.09,0,0,0,2.346-6.154A50.656,50.656,0,0,0-118.2,268.977Z" transform="translate(198.2 3035.1)" fill="#00629b"/><g transform="translate(-762 1498)"><g transform="translate(820 1801.667)"><g fill="none" stroke="#fff" stroke-linecap="round" stroke-linejoin="round" stroke-width="1"><circle cx="8" cy="8" r="8" stroke="none"/><circle cx="8" cy="8" r="7.5" fill="none"/></g><g transform="translate(4.706 2.07)" fill="none" stroke="#fff" stroke-linecap="round" stroke-linejoin="round" stroke-width="1"><circle cx="1.506" cy="1.506" r="1.506" stroke="none"/><circle cx="1.506" cy="1.506" r="1.006" fill="none"/></g><path d="M22307,10580l1.631,4.5h3.141l1.609,4.35" transform="translate(-22300.793 -10574.918)" fill="none" stroke="#fff" stroke-linecap="round" stroke-linejoin="round" stroke-width="1"/><line x2="5.082" transform="translate(6.871 6.494)" fill="none" stroke="#fff" stroke-linecap="round" stroke-width="1"/><path d="M6.517,6.2A3.389,3.389,0,0,1,0,4.9,3.41,3.41,0,0,1,1.888,1.857" transform="translate(3.388 5.457)" fill="none" stroke="#fff" stroke-linecap="round" stroke-linejoin="round" stroke-width="1"/></g></g></g></g><g transform="translate(228 -358)"><g transform="matrix(1, 0, 0, 1, -248, 128)" filter="url(#g)"><rect width="168" height="160" rx="8" transform="translate(288 240)" fill="#fff"/></g><path d="M1.134,0H3.416V-10.444H1.134ZM9.828-7.952A2.728,2.728,0,0,0,7.49-6.664H7.448L7.224-7.756H5.488V0h2.24V-4.592a1.283,1.283,0,0,1,1.344-1.33c.812,0,1.232.434,1.232,1.386V0h2.24V-5.18A2.531,2.531,0,0,0,9.828-7.952Zm6.356,4.074a2.029,2.029,0,0,1,2.142-2.058,3.4,3.4,0,0,1,1.946.588V-7.406a4.547,4.547,0,0,0-2.282-.546,3.971,3.971,0,0,0-4.074,4.06A3.97,3.97,0,0,0,17.99.2a5.03,5.03,0,0,0,2.282-.532V-2.394a3.224,3.224,0,0,1-1.946.574A2.021,2.021,0,0,1,16.184-3.878ZM25.41.2a3.95,3.95,0,0,0,4.074-4.074A3.934,3.934,0,0,0,25.41-7.952a3.95,3.95,0,0,0-4.074,4.074A3.958,3.958,0,0,0,25.41.2Zm0-2.016A1.88,1.88,0,0,1,23.6-3.878,1.88,1.88,0,0,1,25.41-5.936a1.89,1.89,0,0,1,1.82,2.058A1.9,1.9,0,0,1,25.41-1.82ZM39.48-7.952a2.545,2.545,0,0,0-2.226,1.316,2.245,2.245,0,0,0-2.17-1.316,2.408,2.408,0,0,0-2.156,1.274h-.042l-.224-1.078H30.926V0h2.24V-4.662a1.126,1.126,0,0,1,1.12-1.26c.756,0,1.036.406,1.036,1.246V0h2.24V-4.76A1.094,1.094,0,0,1,38.7-5.922c.756,0,1.036.406,1.036,1.246V0h2.24V-5.138C41.972-6.832,41.174-7.952,39.48-7.952ZM50.848-4c0-2.59-1.61-3.948-3.584-3.948a3.877,3.877,0,0,0-3.892,4.1C43.372-1.5,44.94.2,47.67.2a5.323,5.323,0,0,0,2.7-.7V-2.338a4.507,4.507,0,0,1-2.422.77,2.332,2.332,0,0,1-2.436-1.68h5.278A4.16,4.16,0,0,0,50.848-4Zm-5.376-.588a1.866,1.866,0,0,1,1.778-1.6,1.462,1.462,0,0,1,1.47,1.6ZM55.79,2.94h2.24V-1.134A2.866,2.866,0,0,0,60.466.2c1.82,0,3.43-1.582,3.43-4.074S62.23-7.952,60.424-7.952A2.975,2.975,0,0,0,57.89-6.566l-.224-1.19H55.79Zm4-4.76A1.87,1.87,0,0,1,58-3.878a1.872,1.872,0,0,1,1.806-2.058,1.877,1.877,0,0,1,1.82,2.044A1.9,1.9,0,0,1,59.794-1.82ZM65.352,0h2.24V-3.794a1.732,1.732,0,0,1,1.834-1.96,2.523,2.523,0,0,1,.644.07v-2.1a2.393,2.393,0,0,0-.588-.056,2.374,2.374,0,0,0-2.1,1.246h-.028L67.13-7.756H65.352ZM74.69.2a3.95,3.95,0,0,0,4.074-4.074A3.934,3.934,0,0,0,74.69-7.952a3.95,3.95,0,0,0-4.074,4.074A3.958,3.958,0,0,0,74.69.2Zm0-2.016a1.88,1.88,0,0,1-1.806-2.058A1.88,1.88,0,0,1,74.69-5.936a1.89,1.89,0,0,1,1.82,2.058A1.9,1.9,0,0,1,74.69-1.82Zm8.05-7.728H80.584v1.792H79.478v1.848H80.57v2.926A2.884,2.884,0,0,0,83.734.168,5.317,5.317,0,0,0,84.952.042V-1.834a4.382,4.382,0,0,1-.7.07c-.868,0-1.512-.378-1.512-1.358V-5.908h2.072V-7.756H82.74ZM93.3-4c0-2.59-1.61-3.948-3.584-3.948a3.877,3.877,0,0,0-3.892,4.1C85.82-1.5,87.388.2,90.118.2a5.323,5.323,0,0,0,2.7-.7V-2.338a4.507,4.507,0,0,1-2.422.77,2.332,2.332,0,0,1-2.436-1.68H93.24A4.16,4.16,0,0,0,93.3-4ZM87.92-4.592a1.866,1.866,0,0,1,1.778-1.6,1.462,1.462,0,0,1,1.47,1.6Zm8.666.714a2.029,2.029,0,0,1,2.142-2.058,3.4,3.4,0,0,1,1.946.588V-7.406a4.547,4.547,0,0,0-2.282-.546,3.971,3.971,0,0,0-4.074,4.06A3.97,3.97,0,0,0,98.392.2a5.03,5.03,0,0,0,2.282-.532V-2.394a3.224,3.224,0,0,1-1.946.574A2.021,2.021,0,0,1,96.586-3.878Zm8.316-5.67h-2.156v1.792H101.64v1.848h1.092v2.926A2.884,2.884,0,0,0,105.9.168a5.317,5.317,0,0,0,1.218-.126V-1.834a4.382,4.382,0,0,1-.7.07c-.868,0-1.512-.378-1.512-1.358V-5.908h2.072V-7.756H104.9Zm4.662.728a1.21,1.21,0,0,0,1.218-1.218,1.207,1.207,0,0,0-1.218-1.2,1.2,1.2,0,0,0-1.232,1.2A1.2,1.2,0,0,0,109.564-8.82ZM108.444,0h2.24V-7.756h-2.24ZM116.2.2a3.95,3.95,0,0,0,4.074-4.074A3.934,3.934,0,0,0,116.2-7.952a3.95,3.95,0,0,0-4.074,4.074A3.958,3.958,0,0,0,116.2.2Zm0-2.016a1.88,1.88,0,0,1-1.806-2.058A1.88,1.88,0,0,1,116.2-5.936a1.89,1.89,0,0,1,1.82,2.058A1.9,1.9,0,0,1,116.2-1.82Zm9.856-6.132a2.728,2.728,0,0,0-2.338,1.288h-.042l-.224-1.092h-1.736V0h2.24V-4.592a1.283,1.283,0,0,1,1.344-1.33c.812,0,1.232.434,1.232,1.386V0h2.24V-5.18A2.531,2.531,0,0,0,126.056-7.952Z" transform="translate(56 439)"/><path d="M-6592,10a5.006,5.006,0,0,1-5-5,5.006,5.006,0,0,1,5-5,5,5,0,0,1,5,5A5,5,0,0,1-6592,10Zm0-6.071a.716.716,0,0,0-.713.717V7.5a.707.707,0,0,0,.713.717.716.716,0,0,0,.714-.717V4.645A.708.708,0,0,0-6592,3.929Zm0-2.143a.715.715,0,0,0-.713.714.715.715,0,0,0,.713.714.714.714,0,0,0,.714-.714A.714.714,0,0,0-6592,1.786Z" transform="translate(6779.001 384)" fill="#c1c6c8"/><g transform="translate(4 -2976)"><path d="M-118.2,268.977v-6.23c0-.539-.156-.692-.7-.77-1.095-.154-2.19-.23-3.285-.461a27.524,27.524,0,0,1-9.307-4.231,1.62,1.62,0,0,0-.7-.385c-.156,0-.313.077-.7.308A25.08,25.08,0,0,1-145.34,261.9c-.7.077-.86.231-.86.923v11.231a16.684,16.684,0,0,0,.313,2.769,12.46,12.46,0,0,0,3.6,6.077,27.117,27.117,0,0,0,9.7,5.923c.078,0,.156.077.313.077a.594.594,0,0,0,.391-.077c1.251-.538,2.5-1.077,3.754-1.692a20.461,20.461,0,0,0,7.352-6,11.09,11.09,0,0,0,2.346-6.154A50.656,50.656,0,0,0-118.2,268.977Z" transform="translate(198.2 3103.1)" fill="#00629b"/><g transform="translate(-1000 -6909)"><g transform="translate(1059.001 10276.667)"><path d="M-21230.127-1.366l5.205-3.006a1.225,1.225,0,0,1,1.672.446l1.475,2.559" transform="translate(21233.754 4.535)" fill="none" stroke="#fff" stroke-linecap="round" stroke-width="1"/><path d="M1.833,0H5.194a0,0,0,0,1,0,0V3.666a0,0,0,0,1,0,0H1.833A1.833,1.833,0,0,1,0,1.833v0A1.833,1.833,0,0,1,1.833,0Z" transform="translate(9.473 6.53)" fill="none" stroke="#fff" stroke-width="1"/><path d="M1,0H13.221" transform="translate(0.834 3.169)" fill="none" stroke="#fff" stroke-linecap="round" stroke-width="1"/><circle cx="0.611" cy="0.611" r="0.611" transform="translate(10.695 7.752)" fill="none" stroke="#fff" stroke-width="1"/><path d="M-21239.842-6h-4.633A1.529,1.529,0,0,0-21246-4.472V5a1.53,1.53,0,0,0,1.529,1.528h10.5c.947,0,1.953-.387,1.953-1.528V2.548" transform="translate(21246.004 7.641)" fill="none" stroke="#fff" stroke-linecap="round" stroke-width="1"/><path d="M-21206.5-1.106V-4.472A1.529,1.529,0,0,0-21208.025-6h-1.33" transform="translate(21220.553 7.641)" fill="none" stroke="#fff" stroke-linecap="round" stroke-width="1"/></g></g></g><path d="M5.168,1.392V-.24A3.066,3.066,0,0,0,8.016-3.2c0-1.44-.768-2.32-2.672-2.992-1.36-.512-1.92-.848-1.92-1.376,0-.448.336-.9,1.376-.9a5.306,5.306,0,0,1,2.3.544l.464-1.808a5.76,5.76,0,0,0-2.32-.528v-1.408H3.68v1.52A2.957,2.957,0,0,0,.976-7.3c0,1.552,1.168,2.352,2.88,2.928,1.184.4,1.7.784,1.7,1.392,0,.64-.624.992-1.536.992a5.649,5.649,0,0,1-2.656-.7L.88-.816A6.437,6.437,0,0,0,3.6-.128v1.52ZM12.656,0h2.352V-10.4H12.992L10.24-9.12l.4,1.824,1.984-.944h.032ZM25.04,0V-2.48h1.248V-4.3H25.04v-6.1H22.064L18.128-4.064V-2.48h4.608V0ZM20.4-4.3v-.032l1.392-2.272c.352-.656.624-1.264.96-1.936h.064c-.048.672-.08,1.312-.08,1.936v2.3ZM28.288,1.76A22.147,22.147,0,0,0,30.3-2.8l-2.48.16A27.028,27.028,0,0,1,26.672,1.9ZM35.28-10.576c-2.688,0-3.968,2.384-3.968,5.392.016,2.944,1.2,5.36,3.888,5.36,2.656,0,3.952-2.208,3.952-5.424C39.152-8.1,38.064-10.576,35.28-10.576Zm-.032,1.84c.976,0,1.472,1.216,1.472,3.52,0,2.368-.512,3.552-1.456,3.552s-1.52-1.136-1.5-3.52C33.744-7.6,34.352-8.736,35.248-8.736Zm8.912-1.84c-2.688,0-3.968,2.384-3.968,5.392.016,2.944,1.2,5.36,3.888,5.36,2.656,0,3.952-2.208,3.952-5.424C48.032-8.1,46.944-10.576,44.16-10.576Zm-.032,1.84c.976,0,1.472,1.216,1.472,3.52,0,2.368-.512,3.552-1.456,3.552s-1.52-1.136-1.5-3.52C42.624-7.6,43.232-8.736,44.128-8.736Zm8.912-1.84c-2.688,0-3.968,2.384-3.968,5.392.016,2.944,1.2,5.36,3.888,5.36,2.656,0,3.952-2.208,3.952-5.424C56.912-8.1,55.824-10.576,53.04-10.576Zm-.032,1.84c.976,0,1.472,1.216,1.472,3.52,0,2.368-.512,3.552-1.456,3.552S51.5-2.8,51.52-5.184C51.5-7.6,52.112-8.736,53.008-8.736ZM61.888.64l4.48-11.6H65.28L60.816.64ZM70.88,0h1.376V-4.672a1.941,1.941,0,0,1,.112-.688,1.924,1.924,0,0,1,1.744-1.408c1.072,0,1.616.9,1.616,2.128V0H77.1V-4.784a2.319,2.319,0,0,1,.112-.7,1.823,1.823,0,0,1,1.664-1.28c1.136,0,1.68.9,1.68,2.384V0h1.376V-4.56c0-2.688-1.52-3.36-2.544-3.36a2.643,2.643,0,0,0-1.712.544,3.19,3.19,0,0,0-.864,1.008h-.032A2.289,2.289,0,0,0,74.592-7.92,2.669,2.669,0,0,0,72.16-6.5h-.048l-.064-1.248H70.816c.048.64.064,1.3.064,2.1Zm13.6-9.6v1.856h-1.2v1.072h1.2v4.224a2.869,2.869,0,0,0,.544,2.016,1.951,1.951,0,0,0,1.52.592,3.447,3.447,0,0,0,1.248-.192l-.064-1.056a3.132,3.132,0,0,1-.816.1c-.784,0-1.056-.544-1.056-1.5V-6.672h2.016V-7.744H85.856V-9.968ZM89.456,0h1.408V-4.672a1.7,1.7,0,0,1,.1-.672,2.023,2.023,0,0,1,1.888-1.408c1.328,0,1.792,1.056,1.792,2.3V0h1.408V-4.608c0-2.672-1.664-3.312-2.7-3.312a2.9,2.9,0,0,0-1.44.4,2.613,2.613,0,0,0-1.008.992h-.032V-11.36H89.456Z" transform="translate(56 508)"/><path d="M6.6,0h.882L9.45-6.7H8.6L7.038-1.089H7.029L5.238-6.7h-.81L2.655-1.1H2.646L1.062-6.7H.18l2,6.7h.891L4.833-5.517Zm5.382.108a1.957,1.957,0,0,0,1.737-1l.1.891h.675V-4.869h-.675l-.1.9a1.966,1.966,0,0,0-1.737-1.008A2.356,2.356,0,0,0,9.765-2.43,2.358,2.358,0,0,0,11.979.108Zm.171-.774A1.613,1.613,0,0,1,10.6-2.43,1.616,1.616,0,0,1,12.15-4.2a1.617,1.617,0,0,1,1.539,1.764A1.62,1.62,0,0,1,12.15-.666Zm4.284-5.319a.494.494,0,0,0,.513-.5.494.494,0,0,0-.513-.5.494.494,0,0,0-.513.5A.494.494,0,0,0,16.434-5.985ZM16.02,0h.828V-4.869H16.02ZM19.4-6.012H18.6v1.143h-.747v.72h.729V-1.7A1.611,1.611,0,0,0,20.322.063,3.05,3.05,0,0,0,20.9.009v-.72a2.518,2.518,0,0,1-.432.045A.967.967,0,0,1,19.4-1.737V-4.149H20.79v-.72H19.4Zm2.925.027a.494.494,0,0,0,.513-.5.494.494,0,0,0-.513-.5.494.494,0,0,0-.513.5A.494.494,0,0,0,22.32-5.985ZM21.906,0h.828V-4.869h-.828Zm4.608-4.977a1.756,1.756,0,0,0-1.494.846h-.027l-.09-.738h-.639V0h.828V-2.97a1.177,1.177,0,0,1,1.215-1.215c.729,0,1.116.4,1.116,1.26V0h.828V-3.222A1.635,1.635,0,0,0,26.514-4.977Zm5.094.009A2.33,2.33,0,0,0,29.394-2.52,2.31,2.31,0,0,0,31.608-.081,1.983,1.983,0,0,0,33.282-1v.738a1.5,1.5,0,0,1-1.6,1.485A2.657,2.657,0,0,1,29.9.5v.891a3.081,3.081,0,0,0,1.818.6A2.274,2.274,0,0,0,34.11-.4V-4.869h-.675l-.1.846A2,2,0,0,0,31.608-4.968Zm.162.765a1.562,1.562,0,0,1,1.539,1.656A1.6,1.6,0,0,1,31.77-.837a1.584,1.584,0,0,1-1.539-1.674A1.589,1.589,0,0,1,31.77-4.2ZM38.079,1.89h.828V-.846A1.938,1.938,0,0,0,40.59.108,2.338,2.338,0,0,0,42.8-2.439a2.347,2.347,0,0,0-2.214-2.538,1.962,1.962,0,0,0-1.728,1.008l-.1-.9h-.675Zm2.34-2.556a1.611,1.611,0,0,1-1.53-1.764A1.614,1.614,0,0,1,40.419-4.2a1.613,1.613,0,0,1,1.548,1.764A1.611,1.611,0,0,1,40.419-.666ZM48.15-2.529a2.152,2.152,0,0,0-2.1-2.448A2.391,2.391,0,0,0,43.7-2.412,2.343,2.343,0,0,0,46.17.108a2.837,2.837,0,0,0,1.7-.54v-.819a2.516,2.516,0,0,1-1.638.639A1.66,1.66,0,0,1,44.514-2.16h3.609A2.21,2.21,0,0,0,48.15-2.529Zm-3.636-.252a1.581,1.581,0,0,1,1.53-1.476,1.327,1.327,0,0,1,1.305,1.476ZM49.338,0h.828V-2.772A1.262,1.262,0,0,1,51.471-4.14a2.1,2.1,0,0,1,.342.036V-4.9a1.744,1.744,0,0,0-.324-.027,1.577,1.577,0,0,0-1.4.828h-.009L50-4.869h-.657Zm3.816-5.985a.494.494,0,0,0,.513-.5.494.494,0,0,0-.513-.5.494.494,0,0,0-.513.5A.494.494,0,0,0,53.154-5.985ZM52.74,0h.828V-4.869H52.74Zm4.473.108A2.415,2.415,0,0,0,59.625-2.43a2.418,2.418,0,0,0-2.412-2.547,2.427,2.427,0,0,0-2.43,2.547A2.419,2.419,0,0,0,57.213.108Zm0-.774A1.63,1.63,0,0,1,55.62-2.43,1.639,1.639,0,0,1,57.213-4.2,1.637,1.637,0,0,1,58.8-2.43,1.634,1.634,0,0,1,57.213-.666Zm5.526.774a1.967,1.967,0,0,0,1.737-1l.1.891h.675V-7.2h-.828v3.177a1.911,1.911,0,0,0-1.683-.954A2.345,2.345,0,0,0,60.525-2.43,2.353,2.353,0,0,0,62.739.108Zm.171-.774A1.62,1.62,0,0,1,61.353-2.43,1.623,1.623,0,0,1,62.91-4.2a1.611,1.611,0,0,1,1.53,1.764A1.614,1.614,0,0,1,62.91-.666Zm4.3-2.34a.552.552,0,0,0,.558-.567.549.549,0,0,0-.558-.558.544.544,0,0,0-.558.558A.546.546,0,0,0,67.212-3.006Zm0,3.051a.549.549,0,0,0,.558-.558.552.552,0,0,0-.558-.567.546.546,0,0,0-.558.567A.544.544,0,0,0,67.212.045ZM71.217,0h4.446V-.792H72.846C74.52-2.619,75.42-3.717,75.42-4.779a1.972,1.972,0,0,0-2.1-2.052,2.689,2.689,0,0,0-1.782.657v.936a2.328,2.328,0,0,1,1.71-.8,1.27,1.27,0,0,1,1.323,1.3C74.574-3.951,74.2-3.33,71.217,0ZM84.186-4.977a1.557,1.557,0,0,0-1.4.855,1.342,1.342,0,0,0-1.35-.855,1.453,1.453,0,0,0-1.305.828H80.1l-.09-.72h-.639V0H80.2V-3.069a1.027,1.027,0,0,1,1.008-1.116c.648,0,.927.369.927,1.071V0h.828V-3.114a1.011,1.011,0,0,1,1.017-1.071c.648,0,.918.369.918,1.071V0h.828V-3.249C85.725-4.266,85.248-4.977,84.186-4.977ZM89.307.108A2.415,2.415,0,0,0,91.719-2.43a2.418,2.418,0,0,0-2.412-2.547,2.427,2.427,0,0,0-2.43,2.547A2.419,2.419,0,0,0,89.307.108Zm0-.774A1.63,1.63,0,0,1,87.714-2.43,1.639,1.639,0,0,1,89.307-4.2,1.637,1.637,0,0,1,90.891-2.43,1.634,1.634,0,0,1,89.307-.666Zm5.868-4.311a1.756,1.756,0,0,0-1.494.846h-.027l-.09-.738h-.639V0h.828V-2.97a1.177,1.177,0,0,1,1.215-1.215c.729,0,1.116.4,1.116,1.26V0h.828V-3.222A1.635,1.635,0,0,0,95.175-4.977Zm4.176-1.035h-.792v1.143h-.747v.72h.729V-1.7A1.611,1.611,0,0,0,100.278.063a3.05,3.05,0,0,0,.576-.054v-.72a2.518,2.518,0,0,1-.432.045.967.967,0,0,1-1.071-1.071V-4.149h1.395v-.72H99.351ZM102.672-7.2h-.828V0h.828V-3.015A1.125,1.125,0,0,1,103.887-4.2c.747,0,1.116.414,1.116,1.269V0h.828V-3.222a1.6,1.6,0,0,0-1.755-1.755,1.676,1.676,0,0,0-1.395.693h-.009Zm6.156,2.223c-1.08,0-1.755.612-1.755,1.431,0,.855.711,1.116,1.512,1.359.7.216,1.161.369,1.161.837,0,.432-.378.72-1.035.72a2.311,2.311,0,0,1-1.656-.693v.891a2.691,2.691,0,0,0,1.683.54c1.125,0,1.818-.576,1.818-1.467,0-.981-.846-1.224-1.593-1.44-.657-.189-1.08-.351-1.08-.783,0-.4.342-.657.954-.657a2.3,2.3,0,0,1,1.458.5v-.819A2.549,2.549,0,0,0,108.828-4.977ZM4.113,10.535A1.506,1.506,0,0,0,5.13,9.041c0-.99-.747-1.737-2.178-1.737H.918V14H3.06c1.53,0,2.286-.837,2.286-1.845A1.615,1.615,0,0,0,4.113,10.535ZM1.746,8.06H3.015c.8,0,1.287.4,1.287,1.062,0,.639-.477,1.116-1.35,1.116H1.746Zm1.3,5.184h-1.3V10.931H3.087c.819,0,1.422.414,1.422,1.152C4.509,12.758,4,13.244,3.042,13.244Zm7.7-1.773a2.152,2.152,0,0,0-2.1-2.448,2.391,2.391,0,0,0-2.349,2.565,2.343,2.343,0,0,0,2.466,2.52,2.837,2.837,0,0,0,1.7-.54v-.819a2.516,2.516,0,0,1-1.638.639A1.66,1.66,0,0,1,7.1,11.84H10.71A2.21,2.21,0,0,0,10.737,11.471ZM7.1,11.219a1.581,1.581,0,0,1,1.53-1.476,1.327,1.327,0,0,1,1.305,1.476Zm7.074-2.2a1.756,1.756,0,0,0-1.494.846h-.027l-.09-.738h-.639V14h.828V11.03a1.177,1.177,0,0,1,1.215-1.215c.729,0,1.116.4,1.116,1.26V14h.828V10.778A1.635,1.635,0,0,0,14.175,9.023Zm7.335,2.448a2.152,2.152,0,0,0-2.1-2.448,2.391,2.391,0,0,0-2.349,2.565,2.343,2.343,0,0,0,2.466,2.52,2.837,2.837,0,0,0,1.7-.54v-.819a2.516,2.516,0,0,1-1.638.639,1.66,1.66,0,0,1-1.719-1.548h3.609A2.21,2.21,0,0,0,21.51,11.471Zm-3.636-.252A1.581,1.581,0,0,1,19.4,9.743a1.327,1.327,0,0,1,1.305,1.476ZM22.923,14h.828V9.851h1.4v-.72h-1.4V8.51c0-.684.333-.981.936-.981a2.091,2.091,0,0,1,.711.126V6.89a2.681,2.681,0,0,0-.81-.135A1.576,1.576,0,0,0,22.923,8.4v.729h-.7v.72h.7Zm3.564-5.985a.5.5,0,1,0-.513-.5A.494.494,0,0,0,26.487,8.015ZM26.073,14H26.9V9.131h-.828Zm3.375-6.012h-.792V9.131h-.747v.72h.729V12.3a1.611,1.611,0,0,0,1.737,1.764,3.05,3.05,0,0,0,.576-.054v-.72a2.518,2.518,0,0,1-.432.045.967.967,0,0,1-1.071-1.071V9.851h1.395v-.72H29.448Zm4.95,7.9h.828V13.154a1.938,1.938,0,0,0,1.683.954,2.338,2.338,0,0,0,2.205-2.547A2.347,2.347,0,0,0,36.9,9.023a1.962,1.962,0,0,0-1.728,1.008l-.1-.9H34.4Zm2.34-2.556a1.611,1.611,0,0,1-1.53-1.764,1.554,1.554,0,1,1,3.078-.009A1.611,1.611,0,0,1,36.738,13.334Zm7.731-1.863a2.152,2.152,0,0,0-2.1-2.448,2.391,2.391,0,0,0-2.349,2.565,2.343,2.343,0,0,0,2.466,2.52,2.837,2.837,0,0,0,1.7-.54v-.819a2.516,2.516,0,0,1-1.638.639,1.66,1.66,0,0,1-1.719-1.548h3.609A2.21,2.21,0,0,0,44.469,11.471Zm-3.636-.252a1.581,1.581,0,0,1,1.53-1.476,1.327,1.327,0,0,1,1.305,1.476ZM45.657,14h.828V11.228A1.262,1.262,0,0,1,47.79,9.86a2.1,2.1,0,0,1,.342.036V9.1a1.744,1.744,0,0,0-.324-.027,1.577,1.577,0,0,0-1.4.828H46.4l-.09-.774h-.657Zm3.816-5.985a.5.5,0,1,0-.513-.5A.494.494,0,0,0,49.473,8.015ZM49.059,14h.828V9.131h-.828Zm4.473.108a2.415,2.415,0,0,0,2.412-2.538,2.424,2.424,0,1,0-4.842,0A2.419,2.419,0,0,0,53.532,14.108Zm0-.774a1.63,1.63,0,0,1-1.593-1.764,1.6,1.6,0,1,1,3.177,0A1.634,1.634,0,0,1,53.532,13.334Zm5.526.774a1.967,1.967,0,0,0,1.737-1l.1.891h.675V6.8h-.828V9.977a1.911,1.911,0,0,0-1.683-.954,2.345,2.345,0,0,0-2.214,2.547A2.353,2.353,0,0,0,59.058,14.108Zm.171-.774a1.62,1.62,0,0,1-1.557-1.764,1.558,1.558,0,1,1,3.087-.009A1.614,1.614,0,0,1,59.229,13.334Zm4.3-2.34a.563.563,0,0,0,0-1.125.563.563,0,0,0,0,1.125Zm0,3.051a.563.563,0,1,0-.558-.558A.549.549,0,0,0,63.531,14.045ZM67.536,14h4.446v-.792H69.165c1.674-1.827,2.574-2.925,2.574-3.987a1.972,1.972,0,0,0-2.1-2.052,2.689,2.689,0,0,0-1.782.657v.936a2.328,2.328,0,0,1,1.71-.8,1.27,1.27,0,0,1,1.323,1.3C70.893,10.049,70.515,10.67,67.536,14ZM80.5,9.023a1.557,1.557,0,0,0-1.4.855,1.342,1.342,0,0,0-1.35-.855,1.453,1.453,0,0,0-1.305.828h-.027l-.09-.72H75.69V14h.828V10.931a1.027,1.027,0,0,1,1.008-1.116c.648,0,.927.369.927,1.071V14h.828V10.886A1.011,1.011,0,0,1,80.3,9.815c.648,0,.918.369.918,1.071V14h.828V10.751C82.044,9.734,81.567,9.023,80.5,9.023Zm5.121,5.085a2.415,2.415,0,0,0,2.412-2.538,2.424,2.424,0,1,0-4.842,0A2.419,2.419,0,0,0,85.626,14.108Zm0-.774a1.63,1.63,0,0,1-1.593-1.764,1.6,1.6,0,1,1,3.177,0A1.634,1.634,0,0,1,85.626,13.334Zm5.868-4.311A1.756,1.756,0,0,0,90,9.869h-.027l-.09-.738h-.639V14h.828V11.03a1.177,1.177,0,0,1,1.215-1.215c.729,0,1.116.4,1.116,1.26V14h.828V10.778A1.635,1.635,0,0,0,91.494,9.023ZM95.67,7.988h-.792V9.131h-.747v.72h.729V12.3A1.611,1.611,0,0,0,96.6,14.063a3.05,3.05,0,0,0,.576-.054v-.72a2.518,2.518,0,0,1-.432.045.967.967,0,0,1-1.071-1.071V9.851h1.395v-.72H95.67ZM98.991,6.8h-.828V14h.828V10.985A1.125,1.125,0,0,1,100.206,9.8c.747,0,1.116.414,1.116,1.269V14h.828V10.778a1.6,1.6,0,0,0-1.755-1.755A1.676,1.676,0,0,0,99,9.716h-.009Zm6.156,2.223c-1.08,0-1.755.612-1.755,1.431,0,.855.711,1.116,1.512,1.359.7.216,1.161.369,1.161.837,0,.432-.378.72-1.035.72a2.311,2.311,0,0,1-1.656-.693v.891a2.691,2.691,0,0,0,1.683.54c1.125,0,1.818-.576,1.818-1.467,0-.981-.846-1.224-1.593-1.44-.657-.189-1.08-.351-1.08-.783,0-.4.342-.657.954-.657a2.3,2.3,0,0,1,1.458.5V9.446A2.549,2.549,0,0,0,105.147,9.023Z" transform="translate(56 471)" fill="#5b6770"/></g></g><path d="M-6592,10a5.006,5.006,0,0,1-5-5,5.006,5.006,0,0,1,5-5,5,5,0,0,1,5,5A5,5,0,0,1-6592,10Zm0-6.071a.716.716,0,0,0-.713.717V7.5a.707.707,0,0,0,.713.717.716.716,0,0,0,.714-.717V4.645A.708.708,0,0,0-6592,3.929Zm0-2.143a.715.715,0,0,0-.713.714.715.715,0,0,0,.713.714.714.714,0,0,0,.714-.714A.714.714,0,0,0-6592,1.786Z" transform="translate(6742.001 144)" fill="#c1c6c8"/><path d="M-6592,10a5.006,5.006,0,0,1-5-5,5.006,5.006,0,0,1,5-5,5,5,0,0,1,5,5A5,5,0,0,1-6592,10Zm0-6.071a.716.716,0,0,0-.713.717V7.5a.707.707,0,0,0,.713.717.716.716,0,0,0,.714-.717V4.645A.708.708,0,0,0-6592,3.929Zm0-2.143a.715.715,0,0,0-.713.714.715.715,0,0,0,.713.714.714.714,0,0,0,.714-.714A.714.714,0,0,0-6592,1.786Z" transform="translate(6903.001 144)" fill="#c1c6c8"/><g transform="translate(-0.5 24.001)"><path d="M-1022.171-554H-1056l8-7.568V-674a16,16,0,0,1,16-16h256a16,16,0,0,1,16,16v104a16,16,0,0,1-16,16Z" transform="translate(1104 1121.999)" fill="url(#i)"/><g transform="translate(-8 26.999)"><g transform="matrix(1, 0, 0, 1, 8.5, -51)" filter="url(#j)"><circle cx="16" cy="16" r="16" transform="translate(31.5 472)" fill="#9bcbeb"/></g><g transform="translate(40 421)" clip-path="url(#l)"><g transform="translate(1.337 4.284)"><path d="M187.825,265.873a1.527,1.527,0,0,1,.06,1.218,1.554,1.554,0,0,1-.529.5l-1.916,1.3a2.575,2.575,0,0,1-1.2.54.887.887,0,0,1-.98-.694c-.044-.51.49-.858.74-1.305a2.67,2.67,0,0,0-.024-1.962,35.924,35.924,0,0,1-.941-4.979c.393-.161,1.537-.882,1.944-.762.458.139.872,1.42,1.076,1.838A33.288,33.288,0,0,1,187.825,265.873Z" transform="translate(-163.941 -233.218)" fill="#f1af8c"/><path d="M199.424,206.471a20.24,20.24,0,0,0,1.822,4.1.2.2,0,0,1,.043.129.2.2,0,0,1-.078.108,5.6,5.6,0,0,1-2.72,1.584.333.333,0,0,1-.205-.018.339.339,0,0,1-.128-.176,12.056,12.056,0,0,1-.887-4.947,20.363,20.363,0,0,1,.2-2.516c.028-.2.043-1.1.219-1.208.268-.158.562.394.679.568A10.289,10.289,0,0,1,199.424,206.471Z" transform="translate(-179.215 -184.806)" fill="#fff"/><path d="M205.78,205.54s.626.235,1.136,2,1.726,6.037,1.726,6.037-1.881.94-2.352.587S205.78,205.54,205.78,205.54Z" transform="translate(-187.749 -186.566)" fill="url(#m)"/><path d="M213.956,192.407a10.077,10.077,0,0,0-3.048.3,5.05,5.05,0,0,0-2.57,1.6,5.54,5.54,0,0,0-1.1,3.163,20.789,20.789,0,0,0,.192,3.4,53.867,53.867,0,0,1,.211,7.962c-.031.636-.394,3.956.053,4.41.278.286-.278.572.118.666a24.005,24.005,0,0,0,12.11-.9,3.667,3.667,0,0,0,1.944-1.542c.417-.815-.708-4.046-.843-4.952q-.612-4.15-.883-8.344a27.268,27.268,0,0,0-.242-3.785c-.185-.882-.752-1.122-1.572-1.338A19.777,19.777,0,0,0,213.956,192.407Z" transform="translate(-201.262 -175.249)" fill="#fff"/><path d="M228.14,231.913a3.163,3.163,0,0,0,.632,1.574,2.716,2.716,0,0,0,1.086.664c1.93.728,4.13.614,5.98,1.527a1.29,1.29,0,0,1,.355.232,1.125,1.125,0,0,1-.026,1.388,4.165,4.165,0,0,1-2.956,1.349,25.5,25.5,0,0,1-7.993.33.733.733,0,0,1-.4-.151.719.719,0,0,1-.168-.375c-.6-2.663-.128-5.436-.117-8.165,0-1.574-.139-3.15-.032-4.721a9.579,9.579,0,0,1,.6-2.856c.246-.622.965-2,1.4-.721a30.831,30.831,0,0,1,1.13,6.321C227.769,229.515,227.913,230.72,228.14,231.913Z" transform="translate(-218.107 -200.28)" fill="url(#n)"/><path d="M245.981,170.381c.46-.074.718-.536.512-1.649-.022-.124-.051-.243-.085-.362a.3.3,0,0,0-.018-.067c-.05-.172-.107-.344-.162-.515a3.758,3.758,0,0,1-.242-1.281,2.3,2.3,0,0,0-.08-.945,1.547,1.547,0,0,0-.515-.623c-.5-.382-1.944-1.1-2.221-.151a4.333,4.333,0,0,0-.028,1.293,3.888,3.888,0,0,1-.319,1.734C242.52,168.421,244.852,170.562,245.981,170.381Z" transform="translate(-230.811 -151.065)" fill="#f1af8c"/><path d="M247.7,176.149s-2.56-.972-3.054-2.509l2.728.893S247.443,175.939,247.7,176.149Z" transform="translate(-232.209 -159.095)" fill="url(#o)"/><path d="M299.865,206.337a17.2,17.2,0,0,1-1.4,8.5.632.632,0,0,1-.171.257.694.694,0,0,1-.417.1,5.11,5.11,0,0,1-3.174-1.019,1.216,1.216,0,0,1-.562-.8,1.308,1.308,0,0,1,.1-.51,56.424,56.424,0,0,1,2.478-6.041,3.438,3.438,0,0,1,1.666-1.9C299.406,204.534,299.794,205.576,299.865,206.337Z" transform="translate(-291.31 -185.959)" fill="#fff"/><path d="M250.925,192.638a13.993,13.993,0,0,1-1.866-2.725,4.5,4.5,0,0,1-.725-1.865.372.372,0,0,1,.035-.224.4.4,0,0,1,.128-.118l1.043-.707a2.1,2.1,0,0,0,1,1.558c.555.394,2.145.826,1.8,1.644A17.094,17.094,0,0,1,250.925,192.638Z" transform="translate(-237.409 -170.6)" fill="#00629b"/><path d="M233.893,191.862a18.308,18.308,0,0,0,1.043,1.792,1.354,1.354,0,0,0,.555.555.153.153,0,0,0,.1.014c.061-.021.075-.1.079-.165a10.931,10.931,0,0,0-.16-3.193,2.945,2.945,0,0,0-.45-1.029,2.85,2.85,0,0,0-.927-.576c.056.171.112.343.162.515a.168.168,0,0,1,.017.051v.015c.033.119.062.239.085.362C234.607,191.326,234.349,191.788,233.893,191.862Z" transform="translate(-218.724 -172.546)" fill="#00629b"/><path d="M250.925,192.638a13.993,13.993,0,0,1-1.866-2.725,4.5,4.5,0,0,1-.725-1.865.372.372,0,0,1,.035-.224.4.4,0,0,1,.128-.118l1.043-.707a2.1,2.1,0,0,0,1,1.558c.555.394,2.145.826,1.8,1.644A17.094,17.094,0,0,1,250.925,192.638Z" transform="translate(-237.409 -170.6)" fill="url(#p)"/><path d="M233.893,191.862a18.308,18.308,0,0,0,1.043,1.792,1.354,1.354,0,0,0,.555.555.153.153,0,0,0,.1.014c.061-.021.075-.1.079-.165a10.931,10.931,0,0,0-.16-3.193,2.945,2.945,0,0,0-.45-1.029,2.85,2.85,0,0,0-.927-.576c.056.171.112.343.162.515a.168.168,0,0,1,.017.051v.015c.033.119.062.239.085.362C234.607,191.326,234.349,191.788,233.893,191.862Z" transform="translate(-218.724 -172.546)" fill="url(#q)"/><path d="M252.273,278.994l-6.081-1.162a2.19,2.19,0,0,1-1.019-.375,1.524,1.524,0,0,1-.471-1.362,4.474,4.474,0,0,1,.5-1.413,46.129,46.129,0,0,1,2.627-4.811,7.683,7.683,0,0,1,2.857.821,1.045,1.045,0,0,1,.386.36c.365.694-.633,1.708-.972,2.235a1.308,1.308,0,0,0-.253.576.95.95,0,0,0,.081.432c.329.808,1.5,1.279,2.221,1.694a7.48,7.48,0,0,0,3.093,1.039,18.274,18.274,0,0,1,2.548.153,3.65,3.65,0,0,1,2.392,1.866,2.21,2.21,0,0,1-1.706-.011,9.986,9.986,0,0,0-3.228-.26C254.543,278.835,252.606,279.648,252.273,278.994Z" transform="translate(-244.69 -241.958)" fill="#f1af8c"/><path d="M236.222,70.622a4.243,4.243,0,0,0-1.3-.584,1.608,1.608,0,0,0-1.429.319,2.974,2.974,0,0,1,2.123,1.12.207.207,0,0,0,.107.092.2.2,0,0,0,.112-.021c.192-.072,1.627.255,1.71.082C237.539,71.63,236.4,70.729,236.222,70.622Z" transform="translate(-220.498 -69.843)" fill="#00629b"/><path d="M236.222,70.622a4.243,4.243,0,0,0-1.3-.584,1.608,1.608,0,0,0-1.429.319,2.974,2.974,0,0,1,2.123,1.12.207.207,0,0,0,.107.092.2.2,0,0,0,.112-.021c.192-.072,1.627.255,1.71.082C237.539,71.63,236.4,70.729,236.222,70.622Z" transform="translate(-220.498 -69.843)" fill="url(#r)"/><ellipse cx="1.686" cy="2.077" rx="1.686" ry="2.077" transform="translate(17.142 7.213)" fill="#00629b"/><ellipse cx="1.559" cy="1.922" rx="1.559" ry="1.922" transform="translate(16.923 7.602)" fill="#00629b"/><ellipse cx="1.559" cy="1.922" rx="1.559" ry="1.922" transform="translate(16.923 7.602)" fill="url(#s)"/><path d="M227.637,96.19l-.39,7.138a2.873,2.873,0,0,1-2.843,2.72,4.345,4.345,0,0,1-4.671-3.252c-.487-1.419-.927-5.587,0-6.739S225.879,92.068,227.637,96.19Z" transform="translate(-208.606 -90.537)" fill="#f1af8c"/><path d="M216.858,78.716a3.56,3.56,0,0,1,3.268,1.752,2.055,2.055,0,0,1,.039,1.767.742.742,0,0,0-.108.561,1.47,1.47,0,0,1-.6,1.25,3.441,3.441,0,0,0-.665.467l.068-1.329a.278.278,0,0,0-.211-.33l-.846-.394s-.261.19-.293.205a1.063,1.063,0,0,1-.444.085,6.246,6.246,0,0,1-.991-.056,9.365,9.365,0,0,1-2.051-.619.933.933,0,0,0,.253.547l-2.156.417a5.859,5.859,0,0,0-.757,1.413,4.926,4.926,0,0,0-.292,1.223,4.42,4.42,0,0,0,.157,1.692,1.775,1.775,0,0,1-.38-.4,2.184,2.184,0,0,1-.639.3.278.278,0,0,1-.149.013c-.106-.029-.128-.154-.139-.254a11.378,11.378,0,0,0-1.058-2.507,3.771,3.771,0,0,1,.383-3.16,2.547,2.547,0,0,1,.671-.783c.993-.728,2.4-.394,3.536-.775.539-.18.972-.523,1.487-.75A5.343,5.343,0,0,1,216.858,78.716Z" transform="translate(-199.856 -77.349)" fill="#3f3d56"/><path d="M216.858,78.716a3.56,3.56,0,0,1,3.268,1.752,2.055,2.055,0,0,1,.039,1.767.742.742,0,0,0-.108.561,1.47,1.47,0,0,1-.6,1.25,3.441,3.441,0,0,0-.665.467l.068-1.329a.278.278,0,0,0-.211-.33l-.846-.394s-.261.19-.293.205a1.063,1.063,0,0,1-.444.085,6.246,6.246,0,0,1-.991-.056,9.365,9.365,0,0,1-2.051-.619.933.933,0,0,0,.253.547l-2.156.417a5.859,5.859,0,0,0-.757,1.413,4.926,4.926,0,0,0-.292,1.223,4.42,4.42,0,0,0,.157,1.692,1.775,1.775,0,0,1-.38-.4,2.184,2.184,0,0,1-.639.3.278.278,0,0,1-.149.013c-.106-.029-.128-.154-.139-.254a11.378,11.378,0,0,0-1.058-2.507,3.771,3.771,0,0,1,.383-3.16,2.547,2.547,0,0,1,.671-.783c.993-.728,2.4-.394,3.536-.775.539-.18.972-.523,1.487-.75A5.343,5.343,0,0,1,216.858,78.716Z" transform="translate(-199.856 -77.349)" fill="url(#t)"/><ellipse cx="1.667" cy="2.056" rx="1.667" ry="2.056" transform="translate(7.876 7.49)" fill="#00629b"/><ellipse cx="1.667" cy="2.056" rx="1.667" ry="2.056" transform="translate(7.876 7.49)" fill="url(#u)"/><ellipse cx="1.667" cy="2.056" rx="1.667" ry="2.056" transform="translate(7.238 7.49)" fill="#00629b"/><path d="M249.75,76.529l.833.089.2.021.833-4.1a4.766,4.766,0,0,1,2.821-3.352,1.5,1.5,0,0,1,.641-.076l.568.051-.278-.074-.555-.147a1.829,1.829,0,0,0-.533-.065,3.929,3.929,0,0,0-3.4,2.963Z" transform="translate(-240.857 -68.876)" fill="#00629b"/><path d="M249.75,76.529l.833.089.2.021.833-4.1a4.766,4.766,0,0,1,2.821-3.352,1.5,1.5,0,0,1,.641-.076l.568.051-.278-.074-.555-.147a1.829,1.829,0,0,0-.533-.065,3.929,3.929,0,0,0-3.4,2.963Z" transform="translate(-240.857 -68.876)" fill="url(#v)"/><path d="M251.75,76.529l.833.089.833-4.11a4.816,4.816,0,0,1,2.85-3.382,1.465,1.465,0,0,1,.648-.078l.453.04-.555-.147a1.828,1.828,0,0,0-.533-.065,3.929,3.929,0,0,0-3.4,2.963Z" transform="translate(-242.857 -68.876)" fill="#00629b"/><path d="M214.792,101.417a1.766,1.766,0,0,0-1.316-.862,5.241,5.241,0,0,0-1.624.075c.521.417,1.974,1.037,2,1.148a3.384,3.384,0,0,1,.007.591c-.019.286-.029.586-.028.872a2.222,2.222,0,0,1,.447-.339,1.111,1.111,0,0,0,.375-.24A1.154,1.154,0,0,0,214.792,101.417Z" transform="translate(-194.864 -96.124)" fill="url(#w)"/><path d="M251.868,152.128a6.47,6.47,0,0,0,1.847-.308.278.278,0,0,0-.16-.533c-1.43.43-2.506.373-3.193-.169a2.823,2.823,0,0,1-.875-2.148.278.278,0,1,0-.555-.028,3.368,3.368,0,0,0,1.087,2.614A2.9,2.9,0,0,0,251.868,152.128Z" transform="translate(-239.011 -137.598)" fill="#00629b"/><path d="M251.868,152.128a6.47,6.47,0,0,0,1.847-.308.278.278,0,0,0-.16-.533c-1.43.43-2.506.373-3.193-.169a2.823,2.823,0,0,1-.875-2.148.278.278,0,1,0-.555-.028,3.368,3.368,0,0,0,1.087,2.614A2.9,2.9,0,0,0,251.868,152.128Z" transform="translate(-239.011 -137.598)" fill="url(#x)"/><path d="M238.374,160.465a.736.736,0,0,0-.351.38.659.659,0,0,0,.311.616,1.162,1.162,0,0,0,.576.278,1.337,1.337,0,0,0,.875-.311,1.158,1.158,0,0,0,.364-.351.878.878,0,0,0-.48-1.152C239.214,159.729,238.731,160.23,238.374,160.465Z" transform="translate(-223.816 -147.245)" fill="#00629b"/><path d="M238.374,160.465a.736.736,0,0,0-.351.38.659.659,0,0,0,.311.616,1.162,1.162,0,0,0,.576.278,1.337,1.337,0,0,0,.875-.311,1.158,1.158,0,0,0,.364-.351.878.878,0,0,0-.48-1.152C239.214,159.729,238.731,160.23,238.374,160.465Z" transform="translate(-223.816 -147.245)" fill="url(#y)"/></g></g></g></g><path d="M9.3,15.46V13.975a5.071,5.071,0,0,1-2.9.915,4.262,4.262,0,0,1-4.17-4.47A4.244,4.244,0,0,1,6.4,5.95a5.061,5.061,0,0,1,2.9.9V5.38a5.69,5.69,0,0,0-2.955-.765A5.536,5.536,0,0,0,.81,10.405a5.553,5.553,0,0,0,5.535,5.82A5.732,5.732,0,0,0,9.3,15.46ZM12.645,4h-1.38V16h1.38V10.975a1.875,1.875,0,0,1,2.025-1.98c1.245,0,1.86.69,1.86,2.115V16h1.38V10.63A2.675,2.675,0,0,0,14.985,7.7,2.793,2.793,0,0,0,12.66,8.86h-.015Zm14.61,7.785c0-2.67-1.575-4.08-3.5-4.08a3.985,3.985,0,0,0-3.915,4.275,3.906,3.906,0,0,0,4.11,4.2,4.728,4.728,0,0,0,2.835-.9V13.915a4.193,4.193,0,0,1-2.73,1.065,2.766,2.766,0,0,1-2.865-2.58H27.21A3.684,3.684,0,0,0,27.255,11.785Zm-6.06-.42a2.635,2.635,0,0,1,2.55-2.46,2.211,2.211,0,0,1,2.175,2.46Zm8.91.57a2.8,2.8,0,0,1,2.775-2.94,3.424,3.424,0,0,1,2.175.69V8.275a4.156,4.156,0,0,0-2.25-.57,4.076,4.076,0,0,0-4.095,4.23,4.071,4.071,0,0,0,4.095,4.245,4.5,4.5,0,0,0,2.25-.555v-1.4a3.473,3.473,0,0,1-2.16.66A2.8,2.8,0,0,1,30.1,11.935ZM43.965,16l-3.87-4.26L43.83,7.885H42.075L38.49,11.65V4H37.11V16h1.38V11.875L42.18,16ZM50.73,5.98H49.41v1.9H48.165v1.2H49.38v4.08a2.685,2.685,0,0,0,2.9,2.94,5.083,5.083,0,0,0,.96-.09v-1.2a4.2,4.2,0,0,1-.72.075A1.611,1.611,0,0,1,50.73,13.1V9.085h2.325v-1.2H50.73ZM56.265,4h-1.38V16h1.38V10.975a1.875,1.875,0,0,1,2.025-1.98c1.245,0,1.86.69,1.86,2.115V16h1.38V10.63A2.675,2.675,0,0,0,58.6,7.7,2.793,2.793,0,0,0,56.28,8.86h-.015ZM67.14,16.18a3.262,3.262,0,0,0,2.9-1.665L70.2,16h1.125V7.885H70.2l-.165,1.5a3.276,3.276,0,0,0-2.9-1.68c-1.9,0-3.69,1.65-3.69,4.245A3.93,3.93,0,0,0,67.14,16.18Zm.285-1.29a2.689,2.689,0,0,1-2.58-2.94,2.6,2.6,0,1,1,5.145-.015A2.7,2.7,0,0,1,67.425,14.89ZM75.54,5.98H74.22v1.9H72.975v1.2H74.19v4.08a2.685,2.685,0,0,0,2.895,2.94,5.083,5.083,0,0,0,.96-.09v-1.2a4.2,4.2,0,0,1-.72.075A1.611,1.611,0,0,1,75.54,13.1V9.085h2.325v-1.2H75.54ZM91,7.75h-2.13l-1.935,5.7h-.045l-1.92-5.7H82.74l3.105,7.995-1.41,3.4H86.52Zm4.77,8.46a4.171,4.171,0,0,0,4.245-4.335,4.253,4.253,0,1,0-8.505,0A4.174,4.174,0,0,0,95.775,16.21Zm0-1.89A2.25,2.25,0,0,1,93.6,11.875a2.183,2.183,0,1,1,4.335,0A2.248,2.248,0,0,1,95.775,14.32Zm9.465,1.89a3.38,3.38,0,0,0,3.66-3.51V7.75h-2.07V12.7a1.461,1.461,0,0,1-1.59,1.62,1.431,1.431,0,0,1-1.545-1.6V7.75h-2.07v4.965A3.34,3.34,0,0,0,105.24,16.21Zm5.715-.21h2.07V11.755a1.936,1.936,0,0,1,2.04-2.16,3.275,3.275,0,0,1,.66.06V7.72a2.464,2.464,0,0,0-.6-.06,2.574,2.574,0,0,0-2.28,1.35h-.03l-.21-1.26h-1.65Zm11.22-4.125A2.371,2.371,0,0,1,124.62,9.43a3.592,3.592,0,0,1,2.13.645V8.125a4.754,4.754,0,0,0-2.385-.57,4.188,4.188,0,0,0-4.275,4.305,4.2,4.2,0,0,0,4.275,4.35,5.053,5.053,0,0,0,2.385-.585V13.69a3.561,3.561,0,0,1-2.115.63A2.366,2.366,0,0,1,122.175,11.875ZM132.21,16.21a4.171,4.171,0,0,0,4.245-4.335,4.253,4.253,0,1,0-8.505,0A4.174,4.174,0,0,0,132.21,16.21Zm0-1.89a2.25,2.25,0,0,1-2.175-2.445,2.183,2.183,0,1,1,4.335,0A2.248,2.248,0,0,1,132.21,14.32ZM140,16H142.2l3.015-8.25h-2.13l-1.92,6.045h-.045L139.2,7.75H137Zm13.575-4.275c0-2.73-1.68-4.17-3.735-4.17a4.092,4.092,0,0,0-4.1,4.35,4.112,4.112,0,0,0,4.455,4.3,5.359,5.359,0,0,0,2.865-.81V13.63a4.583,4.583,0,0,1-2.625.9,2.587,2.587,0,0,1-2.715-2.055h5.79A5.429,5.429,0,0,0,153.57,11.725Zm-5.865-.555a2.2,2.2,0,0,1,2.115-1.95,1.777,1.777,0,0,1,1.77,1.95ZM155.25,16h2.07V11.755a1.936,1.936,0,0,1,2.04-2.16,3.275,3.275,0,0,1,.66.06V7.72a2.464,2.464,0,0,0-.6-.06,2.574,2.574,0,0,0-2.28,1.35h-.03l-.21-1.26h-1.65Zm13.53.18a3.262,3.262,0,0,0,2.9-1.665L171.84,16h1.125V7.885H171.84l-.165,1.5a3.276,3.276,0,0,0-2.9-1.68c-1.9,0-3.69,1.65-3.69,4.245A3.93,3.93,0,0,0,168.78,16.18Zm.285-1.29a2.689,2.689,0,0,1-2.58-2.94,2.6,2.6,0,1,1,5.145-.015A2.7,2.7,0,0,1,169.065,14.89ZM179.235,7.7a2.927,2.927,0,0,0-2.49,1.41H176.7l-.15-1.23h-1.065V16h1.38V11.05a1.962,1.962,0,0,1,2.025-2.025c1.215,0,1.86.675,1.86,2.1V16h1.38V10.63A2.725,2.725,0,0,0,179.235,7.7Zm8.505,8.475a3.279,3.279,0,0,0,2.9-1.665L190.8,16h1.125V4h-1.38V9.3a3.185,3.185,0,0,0-2.8-1.59c-1.92,0-3.69,1.635-3.69,4.245A3.921,3.921,0,0,0,187.74,16.18Zm.285-1.29a2.7,2.7,0,0,1-2.6-2.94,2.6,2.6,0,1,1,5.145-.015A2.69,2.69,0,0,1,188.025,14.89ZM4.875,41.21a4.328,4.328,0,0,0,0-8.655,4.328,4.328,0,0,0,0,8.655Zm0-1.89A2.25,2.25,0,0,1,2.7,36.875,2.25,2.25,0,0,1,4.875,34.43a2.239,2.239,0,0,1,2.16,2.445A2.248,2.248,0,0,1,4.875,39.32Zm7.56-2.445A2.371,2.371,0,0,1,14.88,34.43a3.592,3.592,0,0,1,2.13.645v-1.95a4.754,4.754,0,0,0-2.385-.57,4.328,4.328,0,0,0,0,8.655,5.053,5.053,0,0,0,2.385-.585V38.69a3.561,3.561,0,0,1-2.115.63A2.366,2.366,0,0,1,12.435,36.875Zm7.86,0A2.371,2.371,0,0,1,22.74,34.43a3.592,3.592,0,0,1,2.13.645v-1.95a4.754,4.754,0,0,0-2.385-.57,4.328,4.328,0,0,0,0,8.655,5.053,5.053,0,0,0,2.385-.585V38.69a3.561,3.561,0,0,1-2.115.63A2.366,2.366,0,0,1,20.3,36.875Zm9.9,4.335a3.38,3.38,0,0,0,3.66-3.51V32.75h-2.07V37.7a1.461,1.461,0,0,1-1.59,1.62,1.431,1.431,0,0,1-1.545-1.6V32.75H26.58v4.965A3.34,3.34,0,0,0,30.195,41.21Zm5.715,2.94h2.07V39.725a3.184,3.184,0,0,0,2.685,1.485c1.935,0,3.675-1.695,3.675-4.335s-1.785-4.32-3.72-4.32A3.174,3.174,0,0,0,37.86,34.1l-.21-1.35H35.91Zm4.17-4.83a2.235,2.235,0,0,1-2.13-2.445,2.169,2.169,0,1,1,4.305-.015A2.254,2.254,0,0,1,40.08,39.32Zm9.195,1.89a3.2,3.2,0,0,0,2.79-1.56l.21,1.35h1.74V32.75h-1.74l-.21,1.35a3.188,3.188,0,0,0-2.79-1.545c-1.875,0-3.69,1.71-3.69,4.335C45.585,39.485,47.4,41.21,49.275,41.21Zm.57-1.89a2.25,2.25,0,0,1-2.175-2.445,2.25,2.25,0,0,1,2.175-2.445,2.226,2.226,0,0,1,2.13,2.445A2.226,2.226,0,0,1,49.845,39.32Zm8.805-8.49H56.655v1.92H55.44v1.725h1.2V37.91a2.967,2.967,0,0,0,3.225,3.255,5.31,5.31,0,0,0,1.185-.12v-1.77a4.364,4.364,0,0,1-.735.075c-.96,0-1.665-.435-1.665-1.545v-3.33H60.9V32.75H58.65Zm4.95.54a1.133,1.133,0,0,0,1.155-1.14A1.163,1.163,0,1,0,63.6,31.37ZM62.565,41h2.07V32.75h-2.07Zm8.04.21a4.328,4.328,0,1,0-4.26-4.335A4.171,4.171,0,0,0,70.605,41.21Zm0-1.89a2.25,2.25,0,0,1-2.175-2.445,2.183,2.183,0,1,1,4.335,0A2.248,2.248,0,0,1,70.605,39.32Zm10.3-6.765a2.91,2.91,0,0,0-2.49,1.38h-.045L78.15,32.75h-1.6V41h2.07V36.065a1.572,1.572,0,0,1,1.635-1.62c.99,0,1.5.54,1.5,1.68V41h2.07V35.495A2.711,2.711,0,0,0,80.91,32.555ZM89.76,41h2.07V36.755a1.936,1.936,0,0,1,2.04-2.16,3.275,3.275,0,0,1,.66.06V32.72a2.464,2.464,0,0,0-.6-.06,2.574,2.574,0,0,0-2.28,1.35h-.03l-.21-1.26H89.76Zm9.09.21a3.2,3.2,0,0,0,2.79-1.56l.21,1.35h1.74V32.75h-1.74l-.21,1.35a3.188,3.188,0,0,0-2.79-1.545c-1.875,0-3.69,1.71-3.69,4.335C95.16,39.485,96.975,41.21,98.85,41.21Zm.57-1.89a2.25,2.25,0,0,1-2.175-2.445A2.25,2.25,0,0,1,99.42,34.43a2.226,2.226,0,0,1,2.13,2.445A2.226,2.226,0,0,1,99.42,39.32Zm8.805-8.49h-2v1.92h-1.215v1.725h1.2V37.91a2.967,2.967,0,0,0,3.225,3.255,5.31,5.31,0,0,0,1.185-.12v-1.77a4.364,4.364,0,0,1-.735.075c-.96,0-1.665-.435-1.665-1.545v-3.33h2.25V32.75h-2.25Zm4.95.54a1.133,1.133,0,0,0,1.155-1.14,1.163,1.163,0,1,0-1.155,1.14ZM112.14,41h2.07V32.75h-2.07Zm8.61-8.445a2.91,2.91,0,0,0-2.49,1.38h-.045l-.225-1.185h-1.6V41h2.07V36.065a1.572,1.572,0,0,1,1.635-1.62c.99,0,1.5.54,1.5,1.68V41h2.07V35.495A2.711,2.711,0,0,0,120.75,32.555Zm8.25.015a3.939,3.939,0,0,0-3.72,4.125,3.883,3.883,0,0,0,3.69,4.14A3.088,3.088,0,0,0,131.6,39.41v.915a2.291,2.291,0,0,1-2.535,2.2,4.673,4.673,0,0,1-2.94-1.17v2.025a5.377,5.377,0,0,0,3.105.975,4.1,4.1,0,0,0,4.44-4.29V32.75H131.94l-.225,1.29A3.2,3.2,0,0,0,129,32.57Zm.51,1.845a2.153,2.153,0,0,1,2.13,2.265,2.142,2.142,0,1,1-2.13-2.265Zm13.755,6.765a3.262,3.262,0,0,0,2.9-1.665L146.325,41h1.125V32.885h-1.125l-.165,1.5a3.276,3.276,0,0,0-2.9-1.68c-1.9,0-3.69,1.65-3.69,4.245A3.93,3.93,0,0,0,143.265,41.18Zm.285-1.29a2.689,2.689,0,0,1-2.58-2.94,2.6,2.6,0,1,1,5.145-.015A2.7,2.7,0,0,1,143.55,39.89ZM149.97,41h1.38V36.38a2.1,2.1,0,0,1,2.175-2.28,3.492,3.492,0,0,1,.57.06V32.84a2.906,2.906,0,0,0-.54-.045,2.628,2.628,0,0,0-2.325,1.38h-.015l-.15-1.29h-1.1Zm12.255-4.215c0-2.67-1.575-4.08-3.5-4.08a3.985,3.985,0,0,0-3.915,4.275,3.906,3.906,0,0,0,4.11,4.2,4.728,4.728,0,0,0,2.835-.9V38.915a4.193,4.193,0,0,1-2.73,1.065,2.766,2.766,0,0,1-2.865-2.58h6.015A3.684,3.684,0,0,0,162.225,36.785Zm-6.06-.42a2.635,2.635,0,0,1,2.55-2.46,2.211,2.211,0,0,1,2.175,2.46ZM168.3,41h1.38V36.38a2.1,2.1,0,0,1,2.175-2.28,3.492,3.492,0,0,1,.57.06V32.84a2.906,2.906,0,0,0-.54-.045,2.628,2.628,0,0,0-2.325,1.38h-.015l-.15-1.29h-1.1Zm6.36-9.975a.84.84,0,1,0-.855-.84A.824.824,0,0,0,174.66,31.025ZM173.97,41h1.38V32.885h-1.38Zm7.1-8.28a3.883,3.883,0,0,0-3.69,4.08,3.85,3.85,0,0,0,3.69,4.065,3.305,3.305,0,0,0,2.79-1.53v1.23a2.506,2.506,0,0,1-2.67,2.475,4.429,4.429,0,0,1-2.97-1.2v1.485a5.135,5.135,0,0,0,3.03,1.005,3.79,3.79,0,0,0,3.99-3.99V32.885H184.11l-.165,1.41A3.329,3.329,0,0,0,181.065,32.72Zm.27,1.275a2.6,2.6,0,0,1,2.565,2.76,2.666,2.666,0,0,1-2.565,2.85,2.816,2.816,0,0,1,0-5.61Zm7.8-4.995h-1.38V41h1.38V35.975a1.875,1.875,0,0,1,2.025-1.98c1.245,0,1.86.69,1.86,2.115V41h1.38V35.63a2.675,2.675,0,0,0-2.925-2.925,2.793,2.793,0,0,0-2.325,1.155h-.015Zm9.345,1.98h-1.32v1.905h-1.245v1.2h1.215v4.08a2.685,2.685,0,0,0,2.9,2.94,5.084,5.084,0,0,0,.96-.09v-1.2a4.2,4.2,0,0,1-.72.075A1.611,1.611,0,0,1,198.48,38.1v-4.02H200.8v-1.2H198.48ZM207.165,41h1.38V34.085h2.325v-1.2h-2.34V31.85c0-1.14.555-1.635,1.56-1.635a3.484,3.484,0,0,1,1.185.21V29.15a4.468,4.468,0,0,0-1.35-.225,2.626,2.626,0,0,0-2.76,2.745v1.215h-1.17v1.2h1.17Zm8.49.18a4.026,4.026,0,0,0,4.02-4.23,4.04,4.04,0,1,0-8.07,0A4.032,4.032,0,0,0,215.655,41.18Zm0-1.29A2.717,2.717,0,0,1,213,36.95a2.663,2.663,0,1,1,5.295,0A2.724,2.724,0,0,1,215.655,39.89Zm6.03,1.11h1.38V36.38a2.1,2.1,0,0,1,2.175-2.28,3.492,3.492,0,0,1,.57.06V32.84a2.906,2.906,0,0,0-.54-.045,2.628,2.628,0,0,0-2.325,1.38h-.015l-.15-1.29h-1.1ZM7.785,57.885H6.345L4.11,64.065H4.08l-2.235-6.18H.345l3.03,7.83L1.98,69.15H3.39ZM12.63,66.18a4.242,4.242,0,1,0-4.05-4.23A4.026,4.026,0,0,0,12.63,66.18Zm0-1.29a2.964,2.964,0,0,1,0-5.9,2.965,2.965,0,0,1,0,5.9Zm9.225,1.29a3.126,3.126,0,0,0,3.36-3.3V57.885h-1.38V62.91a1.829,1.829,0,0,1-1.98,1.98,1.8,1.8,0,0,1-1.92-1.98V57.885h-1.38V62.88A3.087,3.087,0,0,0,21.855,66.18Zm6.24-.105a.938.938,0,1,0-.93-.93A.916.916,0,0,0,28.095,66.075ZM10.365,87.84H9.015V96.6H9L2.94,87.84H1.53V99H2.895V90.09H2.91L9.075,99h1.29Zm9.615,6.945c0-2.67-1.575-4.08-3.495-4.08A3.985,3.985,0,0,0,12.57,94.98a3.906,3.906,0,0,0,4.11,4.2,4.728,4.728,0,0,0,2.835-.9V96.915a4.193,4.193,0,0,1-2.73,1.065A2.766,2.766,0,0,1,13.92,95.4h6.015A3.684,3.684,0,0,0,19.98,94.785Zm-6.06-.42a2.635,2.635,0,0,1,2.55-2.46,2.211,2.211,0,0,1,2.175,2.46Zm14.94.42c0-2.67-1.575-4.08-3.495-4.08A3.985,3.985,0,0,0,21.45,94.98a3.906,3.906,0,0,0,4.11,4.2,4.728,4.728,0,0,0,2.835-.9V96.915a4.193,4.193,0,0,1-2.73,1.065A2.766,2.766,0,0,1,22.8,95.4h6.015A3.684,3.684,0,0,0,28.86,94.785Zm-6.06-.42a2.635,2.635,0,0,1,2.55-2.46,2.211,2.211,0,0,1,2.175,2.46ZM34.02,99.18a3.279,3.279,0,0,0,2.9-1.665L37.08,99h1.125V87h-1.38v5.295a3.185,3.185,0,0,0-2.805-1.59c-1.92,0-3.69,1.635-3.69,4.245A3.921,3.921,0,0,0,34.02,99.18Zm.285-1.29a2.978,2.978,0,1,1,2.55-2.955A2.7,2.7,0,0,1,34.305,97.89ZM46.185,87H44.8V99h1.38V93.975A1.875,1.875,0,0,1,48.21,92c1.245,0,1.86.69,1.86,2.115V99h1.38V93.63a2.675,2.675,0,0,0-2.925-2.925A2.793,2.793,0,0,0,46.2,91.86h-.015Zm14.61,7.785c0-2.67-1.575-4.08-3.495-4.08a3.985,3.985,0,0,0-3.915,4.275,3.906,3.906,0,0,0,4.11,4.2,4.728,4.728,0,0,0,2.835-.9V96.915A4.193,4.193,0,0,1,57.6,97.98a2.766,2.766,0,0,1-2.865-2.58H60.75A3.684,3.684,0,0,0,60.795,94.785Zm-6.06-.42a2.635,2.635,0,0,1,2.55-2.46,2.211,2.211,0,0,1,2.175,2.46ZM62.805,99h1.38V87h-1.38Zm3.93,3.15h1.38V97.59a3.23,3.23,0,0,0,2.805,1.59c1.92,0,3.675-1.635,3.675-4.245,0-2.58-1.77-4.23-3.69-4.23a3.27,3.27,0,0,0-2.88,1.68l-.165-1.5H66.735Zm3.9-4.26a2.974,2.974,0,1,1,2.58-2.955A2.685,2.685,0,0,1,70.635,97.89ZM78.42,87.615a4.109,4.109,0,0,0-2.835,1.155v1.56a3.656,3.656,0,0,1,2.6-1.365A1.949,1.949,0,0,1,80.235,91c0,1.215-1.005,2.145-2.745,4.14h1.485c1.665-1.845,2.7-2.925,2.7-4.38A3.129,3.129,0,0,0,78.42,87.615ZM78.3,97.2a.938.938,0,1,0,.945.945A.919.919,0,0,0,78.3,97.2Zm17.6,1.26V96.975a5.071,5.071,0,0,1-2.9.915,4.481,4.481,0,0,1,0-8.94,5.061,5.061,0,0,1,2.9.9V88.38a5.69,5.69,0,0,0-2.955-.765,5.812,5.812,0,0,0,0,11.61A5.732,5.732,0,0,0,95.9,98.46Zm4.965.72a3.262,3.262,0,0,0,2.895-1.665L103.92,99h1.125V90.885H103.92l-.165,1.5a3.276,3.276,0,0,0-2.895-1.68c-1.905,0-3.69,1.65-3.69,4.245A3.93,3.93,0,0,0,100.86,99.18Zm.285-1.29a2.976,2.976,0,1,1,2.565-2.955A2.689,2.689,0,0,1,101.145,97.89ZM107.6,99h1.38V87H107.6Zm3.96,0h1.38V87h-1.38Zm11.55.18a4.242,4.242,0,1,0-4.05-4.23A4.026,4.026,0,0,0,123.1,99.18Zm0-1.29a2.965,2.965,0,1,1,2.64-2.94A2.717,2.717,0,0,1,123.1,97.89Zm9.78-7.185a2.927,2.927,0,0,0-2.49,1.41h-.045l-.15-1.23h-1.065V99h1.38V94.05a1.962,1.962,0,0,1,2.025-2.025c1.215,0,1.86.675,1.86,2.1V99h1.38V93.63A2.725,2.725,0,0,0,132.885,90.705ZM144.165,99h2.07V87.735h-.165l-4.485,1.77v2.1l2.58-1.065Zm10.98-5.76v-.03a2.75,2.75,0,0,0,1.59-2.55c0-1.605-1.38-3.09-3.765-3.09s-3.765,1.485-3.765,3.105a2.744,2.744,0,0,0,1.59,2.535v.03a2.9,2.9,0,0,0-1.9,2.76c0,1.755,1.56,3.255,4.08,3.255,2.565,0,4.1-1.485,4.1-3.255A2.863,2.863,0,0,0,155.145,93.24Zm-3.99-2.31a1.674,1.674,0,0,1,1.815-1.605,1.7,1.7,0,0,1,1.83,1.605,1.839,1.839,0,0,1-3.645,0ZM152.97,94.1a1.726,1.726,0,1,1-2.01,1.71A1.8,1.8,0,0,1,152.97,94.1Zm10.17-6.525c-2.46,0-4.44,2.235-4.44,5.85s1.98,5.835,4.44,5.835,4.47-2.235,4.47-5.835S165.615,87.57,163.14,87.57Zm0,1.95c1.32,0,2.4,1.425,2.4,3.9,0,2.445-1.08,3.87-2.4,3.87-1.3,0-2.34-1.41-2.34-3.87S161.835,89.52,163.14,89.52Zm10.545-1.95c-2.46,0-4.44,2.235-4.44,5.85s1.98,5.835,4.44,5.835,4.47-2.235,4.47-5.835S176.16,87.57,173.685,87.57Zm0,1.95c1.32,0,2.4,1.425,2.4,3.9,0,2.445-1.08,3.87-2.4,3.87-1.3,0-2.34-1.41-2.34-3.87S172.38,89.52,173.685,89.52Zm14.4-1.95c-2.46,0-4.44,2.235-4.44,5.85s1.98,5.835,4.44,5.835,4.47-2.235,4.47-5.835S190.56,87.57,188.085,87.57Zm0,1.95c1.32,0,2.4,1.425,2.4,3.9,0,2.445-1.08,3.87-2.4,3.87-1.3,0-2.34-1.41-2.34-3.87S186.78,89.52,188.085,89.52Zm10.545-1.95c-2.46,0-4.44,2.235-4.44,5.85s1.98,5.835,4.44,5.835,4.47-2.235,4.47-5.835S201.105,87.57,198.63,87.57Zm0,1.95c1.32,0,2.4,1.425,2.4,3.9,0,2.445-1.08,3.87-2.4,3.87-1.3,0-2.34-1.41-2.34-3.87S197.325,89.52,198.63,89.52Zm12.795-1.695H206.1l-.93,5.97.315.225a4.3,4.3,0,0,1,1.9-.435c1.575,0,2.4.81,2.4,1.875,0,1.035-.825,1.815-2.205,1.815a4.189,4.189,0,0,1-2.91-1.215v2.22a5.1,5.1,0,0,0,3.09.975,3.847,3.847,0,0,0,4.2-3.825,3.518,3.518,0,0,0-3.81-3.5,3.763,3.763,0,0,0-1.02.15l.45-2.355h3.84ZM219.675,99h2.07V87.735h-.165l-4.485,1.77v2.1l2.58-1.065Zm9.165-7.38c-.135,0-.27.015-.42.03l3.09-3.825H229l-3.09,3.825a5.717,5.717,0,0,0-1.65,3.66,4.159,4.159,0,0,0,8.31-.06A3.712,3.712,0,0,0,228.84,91.62Zm-.435,5.76a2.074,2.074,0,0,1-2.085-2.1,1.676,1.676,0,0,1,1.875-2.1,2.127,2.127,0,0,1,2.295,2.115A2.061,2.061,0,0,1,228.4,97.38Zm10.005-5.76c-.135,0-.27.015-.42.03l3.09-3.825h-2.505l-3.09,3.825a5.717,5.717,0,0,0-1.65,3.66,4.159,4.159,0,0,0,8.31-.06A3.712,3.712,0,0,0,238.41,91.62Zm-.435,5.76a2.074,2.074,0,0,1-2.085-2.1,1.676,1.676,0,0,1,1.875-2.1,2.127,2.127,0,0,1,2.295,2.115A2.061,2.061,0,0,1,237.975,97.38Zm6.63,1.695a.938.938,0,1,0-.93-.93A.916.916,0,0,0,244.6,99.075Z" transform="translate(80 472.001)"/><path d="M3.72.15A2.757,2.757,0,0,0,6.59-2.82V-7.44H5.66v4.66A1.863,1.863,0,0,1,3.72-.73,1.809,1.809,0,0,1,1.86-2.76V-7.44H.93v4.63A2.7,2.7,0,0,0,3.72.15ZM8.36,2.1h.92V-.94A2.153,2.153,0,0,0,11.15.12,2.6,2.6,0,0,0,13.6-2.71a2.608,2.608,0,0,0-2.46-2.82A2.18,2.18,0,0,0,9.22-4.41l-.11-1H8.36Zm2.6-2.84A1.79,1.79,0,0,1,9.26-2.7a1.793,1.793,0,0,1,1.7-1.97,1.792,1.792,0,0,1,1.72,1.96A1.79,1.79,0,0,1,10.96-.74Zm6.11.86A2.186,2.186,0,0,0,19-.99l.11.99h.75V-8h-.92v3.53a2.123,2.123,0,0,0-1.87-1.06A2.605,2.605,0,0,0,14.61-2.7,2.614,2.614,0,0,0,17.07.12Zm.19-.86A1.8,1.8,0,0,1,15.53-2.7a1.8,1.8,0,0,1,1.73-1.97,1.79,1.79,0,0,1,1.7,1.96A1.793,1.793,0,0,1,17.26-.74Zm6.38.86A2.175,2.175,0,0,0,25.57-.99l.11.99h.75V-5.41h-.75l-.11,1a2.184,2.184,0,0,0-1.93-1.12A2.617,2.617,0,0,0,21.18-2.7,2.62,2.62,0,0,0,23.64.12Zm.19-.86A1.792,1.792,0,0,1,22.11-2.7a1.8,1.8,0,0,1,1.72-1.97,1.8,1.8,0,0,1,1.71,1.96A1.8,1.8,0,0,1,23.83-.74Zm5.41-5.94h-.88v1.27h-.83v.8h.81v2.72A1.79,1.79,0,0,0,30.27.07a3.389,3.389,0,0,0,.64-.06v-.8a2.8,2.8,0,0,1-.48.05,1.074,1.074,0,0,1-1.19-1.19V-4.61h1.55v-.8H29.24Zm7.32,3.87c0-1.78-1.05-2.72-2.33-2.72a2.656,2.656,0,0,0-2.61,2.85A2.6,2.6,0,0,0,34.36.12a3.152,3.152,0,0,0,1.89-.6v-.91a2.8,2.8,0,0,1-1.82.71A1.844,1.844,0,0,1,32.52-2.4h4.01A2.456,2.456,0,0,0,36.56-2.81Zm-4.04-.28a1.756,1.756,0,0,1,1.7-1.64,1.474,1.474,0,0,1,1.45,1.64ZM40,.12A2.186,2.186,0,0,0,41.93-.99l.11.99h.75V-8h-.92v3.53A2.123,2.123,0,0,0,40-5.53,2.605,2.605,0,0,0,37.54-2.7,2.614,2.614,0,0,0,40,.12Zm.19-.86A1.8,1.8,0,0,1,38.46-2.7a1.8,1.8,0,0,1,1.73-1.97,1.79,1.79,0,0,1,1.7,1.96A1.793,1.793,0,0,1,40.19-.74Zm4.78-2.6a.613.613,0,0,0,.62-.63.611.611,0,0,0-.62-.62.6.6,0,0,0-.62.62A.607.607,0,0,0,44.97-3.34Zm0,3.39a.611.611,0,0,0,.62-.62.613.613,0,0,0-.62-.63.607.607,0,0,0-.62.63A.6.6,0,0,0,44.97.05ZM49.42,0h4.94V-.88H51.23c1.86-2.03,2.86-3.25,2.86-4.43a2.191,2.191,0,0,0-2.33-2.28,2.987,2.987,0,0,0-1.98.73v1.04a2.587,2.587,0,0,1,1.9-.89,1.411,1.411,0,0,1,1.47,1.45C53.15-4.39,52.73-3.7,49.42,0Zm5.86,0h4.94V-.88H57.09c1.86-2.03,2.86-3.25,2.86-4.43a2.191,2.191,0,0,0-2.33-2.28,2.987,2.987,0,0,0-1.98.73v1.04a2.587,2.587,0,0,1,1.9-.89,1.411,1.411,0,0,1,1.47,1.45C59.01-4.39,58.59-3.7,55.28,0Zm5.84,1.33h.89L65.36-8.76h-.9ZM66.29,0h.99l3.89-7.44H66.23v.87h3.52Zm4.62,1.33h.89L75.15-8.76h-.9ZM75.87,0h4.94V-.88H77.68c1.86-2.03,2.86-3.25,2.86-4.43a2.191,2.191,0,0,0-2.33-2.28,2.987,2.987,0,0,0-1.98.73v1.04a2.587,2.587,0,0,1,1.9-.89A1.411,1.411,0,0,1,79.6-5.26C79.6-4.39,79.18-3.7,75.87,0Zm8.9-7.59c-1.54,0-2.78,1.46-2.78,3.88S83.23.15,84.77.15s2.79-1.45,2.79-3.86S86.31-7.59,84.77-7.59Zm0,.88c1.02,0,1.86,1.1,1.86,3S85.79-.73,84.77-.73s-1.84-1.08-1.84-2.98S83.74-6.71,84.77-6.71ZM88.55,0h4.94V-.88H90.36c1.86-2.03,2.86-3.25,2.86-4.43a2.191,2.191,0,0,0-2.33-2.28,2.987,2.987,0,0,0-1.98.73v1.04a2.587,2.587,0,0,1,1.9-.89,1.411,1.411,0,0,1,1.47,1.45C92.28-4.39,91.86-3.7,88.55,0Zm8.9-7.59c-1.54,0-2.78,1.46-2.78,3.88S95.91.15,97.45.15s2.79-1.45,2.79-3.86S98.99-7.59,97.45-7.59Zm0,.88c1.02,0,1.86,1.1,1.86,3S98.47-.73,97.45-.73s-1.84-1.08-1.84-2.98S96.42-6.71,97.45-6.71Z" transform="translate(243 43)" fill="#5b6770"/></g></svg>