<svg xmlns="http://www.w3.org/2000/svg" xmlns:xlink="http://www.w3.org/1999/xlink" width="375" height="736" viewBox="0 0 375 736"><defs><linearGradient id="a" x1="0.581" y1="1.071" x2="0.387" y2="-0.139" gradientUnits="objectBoundingBox"><stop offset="0" stop-color="#e1e2e8"/><stop offset="1" stop-color="#f8f8fc"/></linearGradient><filter id="b" x="22.919" y="502.177" width="326.905" height="134.905" filterUnits="userSpaceOnUse"><feOffset dy="3" input="SourceAlpha"/><feGaussianBlur stdDeviation="3" result="c"/><feFlood flood-color="#00a7b5" flood-opacity="0.102"/><feComposite operator="in" in2="c"/><feComposite in="SourceGraphic"/></filter><filter id="d" x="20" y="286" width="176" height="152" filterUnits="userSpaceOnUse"><feOffset dy="2" input="SourceAlpha"/><feGaussianBlur stdDeviation="4" result="e"/><feFlood flood-opacity="0.031"/><feComposite operator="in" in2="e"/><feComposite in="SourceGraphic"/></filter><filter id="f" x="180" y="286" width="176" height="152" filterUnits="userSpaceOnUse"><feOffset dy="2" input="SourceAlpha"/><feGaussianBlur stdDeviation="4" result="g"/><feFlood flood-opacity="0.031"/><feComposite operator="in" in2="g"/><feComposite in="SourceGraphic"/></filter><clipPath id="i"><rect width="375" height="736"/></clipPath></defs><g id="h" clip-path="url(#i)"><rect width="375" height="736" fill="#fff"/><path d="M1.46,0h3.8V-3.9H6.38c4.28,0,6.52-2.62,6.52-5.64,0-3.28-2.42-5.38-6.76-5.38H1.46Zm5.1-7.26H5.26V-11.5H6.54c1.46,0,2.54.72,2.54,2.1S8-7.26,6.56-7.26ZM24.48-5.38A4.66,4.66,0,0,0,27.92-9.9c0-3.32-2.42-5.02-6.08-5.02H16.82V0h3.8V-4.94h.12L24.16,0h4.5ZM20.62-7.82V-11.5h1.16c1.38,0,2.32.64,2.32,1.84,0,1.18-.9,1.84-2.34,1.84ZM39.28.36a7.594,7.594,0,0,0,7.8-7.82,7.583,7.583,0,0,0-7.8-7.82,7.611,7.611,0,0,0-7.82,7.82A7.611,7.611,0,0,0,39.28.36Zm0-3.46a4.056,4.056,0,0,1-4-4.36,4.074,4.074,0,0,1,4-4.38,4.082,4.082,0,0,1,3.98,4.38A4.064,4.064,0,0,1,39.28-3.1ZM49.86-4.28v3.6A5.135,5.135,0,0,0,52.9.26c3.38,0,5.2-2.26,5.2-5.38v-9.8H54.3V-5.6c0,1.6-.82,2.42-2.14,2.42A3.125,3.125,0,0,1,49.86-4.28ZM62.88,0h9.84V-3.38H66.68v-2.6h5.46V-9.06H66.68v-2.48h6.04v-3.38H62.88ZM88.2-.68V-4.46a6.187,6.187,0,0,1-3.72,1.34,4.263,4.263,0,0,1-4.4-4.34,4.235,4.235,0,0,1,4.4-4.32,6.163,6.163,0,0,1,3.72,1.24v-3.72a8.98,8.98,0,0,0-4.16-1.02,7.612,7.612,0,0,0-7.78,7.82A7.607,7.607,0,0,0,84.04.34,8.98,8.98,0,0,0,88.2-.68ZM95.7,0h3.78V-11.5h4.24v-3.42H91.44v3.42H95.7Zm11.86,0h3.8V-14.92h-3.8Zm15.76.36a7.594,7.594,0,0,0,7.8-7.82,7.583,7.583,0,0,0-7.8-7.82,7.611,7.611,0,0,0-7.82,7.82A7.611,7.611,0,0,0,123.32.36Zm0-3.46a4.056,4.056,0,0,1-4-4.36,4.074,4.074,0,0,1,4-4.38,4.082,4.082,0,0,1,3.98,4.38A4.064,4.064,0,0,1,123.32-3.1Zm25.22-11.82h-3.62v8.74h-.02l-6-8.74h-3.64V0h3.62V-8.9h.02L144.94,0h3.6Z" transform="translate(32 49)"/><rect width="375" height="448" transform="translate(0 240)" opacity="0.6" fill="url(#a)"/><g transform="translate(0 135)"><rect width="312" height="1" transform="translate(32 512)"/><path d="M.37,0H5.31V-.88H2.18C4.04-2.91,5.04-4.13,5.04-5.31A2.191,2.191,0,0,0,2.71-7.59a2.987,2.987,0,0,0-1.98.73v1.04a2.587,2.587,0,0,1,1.9-.89A1.412,1.412,0,0,1,4.1-5.26C4.1-4.39,3.68-3.7.37,0Zm8.9-7.59c-1.54,0-2.78,1.46-2.78,3.88S7.73.15,9.27.15s2.79-1.45,2.79-3.86S10.81-7.59,9.27-7.59Zm0,.88c1.02,0,1.86,1.1,1.86,3S10.29-.73,9.27-.73,7.43-1.81,7.43-3.71,8.24-6.71,9.27-6.71ZM14.91,0h.92V-7.47h-.09L13.06-6.36v.97l1.85-.79Zm5.33-7.59a2.5,2.5,0,0,0-2.56,2.53,2.415,2.415,0,0,0,2.45,2.38,3.046,3.046,0,0,0,.41-.03L18.35,0h1.12l2.27-2.82a3.546,3.546,0,0,0,1.03-2.29A2.431,2.431,0,0,0,20.24-7.59Zm1.03,3.96a2.417,2.417,0,0,1-.95.2A1.645,1.645,0,0,1,18.61-5.1a1.607,1.607,0,0,1,1.63-1.64,1.587,1.587,0,0,1,1.61,1.65A2.266,2.266,0,0,1,21.27-3.63Z" transform="translate(32 529)"/><path d="M-25.41,0h4.94V-.88H-23.6c1.86-2.03,2.86-3.25,2.86-4.43a2.191,2.191,0,0,0-2.33-2.28,2.987,2.987,0,0,0-1.98.73v1.04a2.587,2.587,0,0,1,1.9-.89,1.412,1.412,0,0,1,1.47,1.45C-21.68-4.39-22.1-3.7-25.41,0Zm8.9-7.59c-1.54,0-2.78,1.46-2.78,3.88S-18.05.15-16.51.15s2.79-1.45,2.79-3.86S-14.97-7.59-16.51-7.59Zm0,.88c1.02,0,1.86,1.1,1.86,3s-.84,2.98-1.86,2.98-1.84-1.08-1.84-2.98S-17.54-6.71-16.51-6.71Zm9.55,4.12H-8.24V-7.44h-.77l-3.74,5.11v.56h3.63V0h.88V-1.77h1.28Zm-4.69,0V-2.6l2.53-3.46v3.47Zm11.24,0H-1.69V-7.44h-.77L-6.2-2.33v.56h3.63V0h.88V-1.77H-.41Zm-4.69,0V-2.6l2.53-3.46v3.47Z" transform="translate(344 529)"/><path d="M2587,2660.225s81.31-2.391,175.1-26.745,128.9-52.255,128.9-52.255" transform="translate(-2553 -2172.225)" fill="none" stroke="#5b6770" stroke-linecap="round" stroke-linejoin="round" stroke-width="4" opacity="0.2"/><g transform="matrix(1, 0, 0, 1, 0, -135)" filter="url(#b)"><path d="M2587,2693.225s81.31-3.389,175.1-37.917,128.9-74.083,128.9-74.083" transform="translate(-2553 -2070.23)" fill="none" stroke="#00a7b5" stroke-linecap="round" stroke-linejoin="round" stroke-width="4"/></g><g transform="translate(0 118)"><circle cx="12" cy="12" r="12" transform="translate(326 246)" fill="#00a7b5" opacity="0.2"/><circle cx="6" cy="6" r="6" transform="translate(332 252)" fill="#00a7b5"/></g></g><path d="M-714,270l6,6,6-6" transform="translate(895.5 440)" fill="none" stroke="#c1c6c8" stroke-width="2"/><path d="M1.428,15H7.322V13.782H2.73v-9.2h-1.3Zm13.58-3.934c0-2.492-1.47-3.808-3.262-3.808a3.719,3.719,0,0,0-3.654,3.99,3.645,3.645,0,0,0,3.836,3.92,4.413,4.413,0,0,0,2.646-.84V13.054a3.913,3.913,0,0,1-2.548.994A2.582,2.582,0,0,1,9.352,11.64h5.614A3.438,3.438,0,0,0,15.008,11.066Zm-5.656-.392a2.459,2.459,0,0,1,2.38-2.3,2.064,2.064,0,0,1,2.03,2.3Zm9-5.026H17.122V7.426H15.96v1.12h1.134v3.808A2.506,2.506,0,0,0,19.8,15.1a4.745,4.745,0,0,0,.9-.084v-1.12a3.917,3.917,0,0,1-.672.07A1.5,1.5,0,0,1,18.354,12.3V8.546h2.17V7.426h-2.17Zm3.878,2.674h.784l.224-3.738H21.966Zm5.334-1.064c-1.68,0-2.73.952-2.73,2.226,0,1.33,1.106,1.736,2.352,2.114,1.092.336,1.806.574,1.806,1.3,0,.672-.588,1.12-1.61,1.12a3.594,3.594,0,0,1-2.576-1.078v1.386a4.186,4.186,0,0,0,2.618.84c1.75,0,2.828-.9,2.828-2.282,0-1.526-1.316-1.9-2.478-2.24-1.022-.294-1.68-.546-1.68-1.218,0-.616.532-1.022,1.484-1.022a3.577,3.577,0,0,1,2.268.784V7.916A3.965,3.965,0,0,0,27.566,7.258Zm10.724,0c-1.68,0-2.73.952-2.73,2.226,0,1.33,1.106,1.736,2.352,2.114,1.092.336,1.806.574,1.806,1.3,0,.672-.588,1.12-1.61,1.12a3.594,3.594,0,0,1-2.576-1.078v1.386a4.186,4.186,0,0,0,2.618.84c1.75,0,2.828-.9,2.828-2.282,0-1.526-1.316-1.9-2.478-2.24-1.022-.294-1.68-.546-1.68-1.218,0-.616.532-1.022,1.484-1.022a3.577,3.577,0,0,1,2.268.784V7.916A3.965,3.965,0,0,0,38.29,7.258Zm10.962,3.808c0-2.492-1.47-3.808-3.262-3.808a3.719,3.719,0,0,0-3.654,3.99,3.645,3.645,0,0,0,3.836,3.92,4.413,4.413,0,0,0,2.646-.84V13.054a3.913,3.913,0,0,1-2.548.994A2.582,2.582,0,0,1,43.6,11.64H49.21A3.438,3.438,0,0,0,49.252,11.066ZM43.6,10.674a2.459,2.459,0,0,1,2.38-2.3,2.064,2.064,0,0,1,2.03,2.3Zm13.944.392c0-2.492-1.47-3.808-3.262-3.808a3.719,3.719,0,0,0-3.654,3.99,3.645,3.645,0,0,0,3.836,3.92,4.413,4.413,0,0,0,2.646-.84V13.054a3.913,3.913,0,0,1-2.548.994,2.582,2.582,0,0,1-2.674-2.408H57.5A3.438,3.438,0,0,0,57.54,11.066Zm-5.656-.392a2.459,2.459,0,0,1,2.38-2.3,2.064,2.064,0,0,1,2.03,2.3ZM64.5,3.8H63.21V15H64.5V10.31a1.75,1.75,0,0,1,1.89-1.848c1.162,0,1.736.644,1.736,1.974V15h1.288V9.988a2.5,2.5,0,0,0-2.73-2.73,2.607,2.607,0,0,0-2.17,1.078H64.5ZM74.984,15.168a3.757,3.757,0,0,0,3.752-3.948,3.771,3.771,0,1,0-7.532,0A3.763,3.763,0,0,0,74.984,15.168Zm0-1.2a2.536,2.536,0,0,1-2.478-2.744,2.486,2.486,0,1,1,4.942,0A2.542,2.542,0,0,1,74.984,13.964ZM87.164,15h1.47l2.128-7.574H89.488l-1.61,6.132h-.042L85.918,7.426H84.574l-1.932,6.132h-.028L81.032,7.426H79.688L81.83,15H83.3l1.918-5.936h.042Zm16.268-7.742a2.422,2.422,0,0,0-2.184,1.33,2.088,2.088,0,0,0-2.1-1.33,2.26,2.26,0,0,0-2.03,1.288h-.042l-.14-1.12h-.994V15H97.23V10.226A1.6,1.6,0,0,1,98.8,8.49c1.008,0,1.442.574,1.442,1.666V15h1.288V10.156A1.573,1.573,0,0,1,103.11,8.49c1.008,0,1.428.574,1.428,1.666V15h1.288V9.946C105.826,8.364,105.084,7.258,103.432,7.258Zm7.658,7.91a2.918,2.918,0,0,0,3.136-3.08V7.426h-1.288v4.69a1.707,1.707,0,0,1-1.848,1.848,1.678,1.678,0,0,1-1.792-1.848V7.426H108.01v4.662A2.881,2.881,0,0,0,111.09,15.168Zm6.2-3.962a2.613,2.613,0,0,1,2.59-2.744,3.2,3.2,0,0,1,2.03.644V7.79a3.879,3.879,0,0,0-2.1-.532,3.8,3.8,0,0,0-3.822,3.948,3.8,3.8,0,0,0,3.822,3.962,4.2,4.2,0,0,0,2.1-.518v-1.3a3.241,3.241,0,0,1-2.016.616A2.611,2.611,0,0,1,117.292,11.206ZM125.118,3.8H123.83V15h1.288V10.31a1.75,1.75,0,0,1,1.89-1.848c1.162,0,1.736.644,1.736,1.974V15h1.288V9.988a2.5,2.5,0,0,0-2.73-2.73,2.607,2.607,0,0,0-2.17,1.078h-.014ZM141.9,7.426H140.56l-2.086,5.768h-.028L136.36,7.426h-1.4l2.828,7.308-1.3,3.206H137.8Zm4.522,7.742a3.757,3.757,0,0,0,3.752-3.948,3.771,3.771,0,1,0-7.532,0A3.763,3.763,0,0,0,146.426,15.168Zm0-1.2a2.536,2.536,0,0,1-2.478-2.744,2.486,2.486,0,1,1,4.942,0A2.542,2.542,0,0,1,146.426,13.964Zm8.61,1.2a2.918,2.918,0,0,0,3.136-3.08V7.426h-1.288v4.69a1.707,1.707,0,0,1-1.848,1.848,1.678,1.678,0,0,1-1.792-1.848V7.426h-1.288v4.662A2.881,2.881,0,0,0,155.036,15.168Zm10.024-3.962a2.613,2.613,0,0,1,2.59-2.744,3.2,3.2,0,0,1,2.03.644V7.79a3.879,3.879,0,0,0-2.1-.532,3.8,3.8,0,0,0-3.822,3.948,3.8,3.8,0,0,0,3.822,3.962,4.2,4.2,0,0,0,2.1-.518v-1.3a3.241,3.241,0,0,1-2.016.616A2.611,2.611,0,0,1,165.06,11.206Zm9.688,3.962A3.757,3.757,0,0,0,178.5,11.22a3.771,3.771,0,1,0-7.532,0A3.763,3.763,0,0,0,174.748,15.168Zm0-1.2a2.536,2.536,0,0,1-2.478-2.744,2.486,2.486,0,1,1,4.942,0A2.542,2.542,0,0,1,174.748,13.964Zm8.61,1.2a2.918,2.918,0,0,0,3.136-3.08V7.426h-1.288v4.69a1.707,1.707,0,0,1-1.848,1.848,1.678,1.678,0,0,1-1.792-1.848V7.426h-1.288v4.662A2.881,2.881,0,0,0,183.358,15.168ZM188.776,15h1.288V3.8h-1.288Zm6.636.168a3.06,3.06,0,0,0,2.7-1.554L198.268,15h1.05V3.8H198.03V8.742a2.973,2.973,0,0,0-2.618-1.484c-1.792,0-3.444,1.526-3.444,3.962A3.66,3.66,0,0,0,195.412,15.168Zm.266-1.2a2.52,2.52,0,0,1-2.422-2.744,2.423,2.423,0,1,1,4.8-.014A2.511,2.511,0,0,1,195.678,13.964Zm12.754-6.692a3.624,3.624,0,0,0-3.444,3.808,3.594,3.594,0,0,0,3.444,3.794,3.085,3.085,0,0,0,2.6-1.428v1.148a2.339,2.339,0,0,1-2.492,2.31,4.133,4.133,0,0,1-2.772-1.12V17.17a4.793,4.793,0,0,0,2.828.938,3.537,3.537,0,0,0,3.724-3.724V7.426h-1.05l-.154,1.316A3.107,3.107,0,0,0,208.432,7.272Zm.252,1.19a2.43,2.43,0,0,1,2.394,2.576,2.489,2.489,0,0,1-2.394,2.66,2.463,2.463,0,0,1-2.394-2.6A2.472,2.472,0,0,1,208.684,8.462Zm12.432,2.6c0-2.492-1.47-3.808-3.262-3.808a3.719,3.719,0,0,0-3.654,3.99,3.645,3.645,0,0,0,3.836,3.92,4.413,4.413,0,0,0,2.646-.84V13.054a3.913,3.913,0,0,1-2.548.994,2.582,2.582,0,0,1-2.674-2.408h5.614A3.438,3.438,0,0,0,221.116,11.066Zm-5.656-.392a2.459,2.459,0,0,1,2.38-2.3,2.064,2.064,0,0,1,2.03,2.3Zm9-5.026H223.23V7.426h-1.162v1.12H223.2v3.808a2.506,2.506,0,0,0,2.7,2.744,4.744,4.744,0,0,0,.9-.084v-1.12a3.916,3.916,0,0,1-.672.07,1.5,1.5,0,0,1-1.666-1.666V8.546h2.17V7.426h-2.17ZM232.568,15h1.288V8.546h2.17V7.426h-2.184V6.46c0-1.064.518-1.526,1.456-1.526a3.252,3.252,0,0,1,1.106.2V3.94a4.17,4.17,0,0,0-1.26-.21,2.451,2.451,0,0,0-2.576,2.562V7.426h-1.092v1.12h1.092Zm4.872,0h1.288V10.688a1.963,1.963,0,0,1,2.03-2.128,3.259,3.259,0,0,1,.532.056V7.384a2.713,2.713,0,0,0-.5-.042,2.453,2.453,0,0,0-2.17,1.288H238.6l-.14-1.2H237.44Zm8.288.168a3.757,3.757,0,0,0,3.752-3.948,3.771,3.771,0,1,0-7.532,0A3.763,3.763,0,0,0,245.728,15.168Zm0-1.2a2.536,2.536,0,0,1-2.478-2.744,2.486,2.486,0,1,1,4.942,0A2.542,2.542,0,0,1,245.728,13.964Zm13.118-6.706a2.422,2.422,0,0,0-2.184,1.33,2.088,2.088,0,0,0-2.1-1.33,2.26,2.26,0,0,0-2.03,1.288h-.042l-.14-1.12h-.994V15h1.288V10.226a1.6,1.6,0,0,1,1.568-1.736c1.008,0,1.442.574,1.442,1.666V15h1.288V10.156a1.573,1.573,0,0,1,1.582-1.666c1.008,0,1.428.574,1.428,1.666V15h1.288V9.946C261.24,8.364,260.5,7.258,258.846,7.258Zm14.266.168h-1.344l-2.086,5.768h-.028l-2.086-5.768h-1.4L269,14.734l-1.3,3.206h1.316Zm4.522,7.742a3.757,3.757,0,0,0,3.752-3.948,3.771,3.771,0,1,0-7.532,0A3.763,3.763,0,0,0,277.634,15.168Zm0-1.2a2.536,2.536,0,0,1-2.478-2.744,2.486,2.486,0,1,1,4.942,0A2.542,2.542,0,0,1,277.634,13.964Zm8.61,1.2a2.918,2.918,0,0,0,3.136-3.08V7.426h-1.288v4.69a1.707,1.707,0,0,1-1.848,1.848,1.678,1.678,0,0,1-1.792-1.848V7.426h-1.288v4.662A2.881,2.881,0,0,0,286.244,15.168Zm5.39-.168h1.288V10.688a1.963,1.963,0,0,1,2.03-2.128,3.259,3.259,0,0,1,.532.056V7.384a2.713,2.713,0,0,0-.5-.042,2.453,2.453,0,0,0-2.17,1.288H292.8l-.14-1.2h-1.022ZM3.556,31.258c-1.68,0-2.73.952-2.73,2.226,0,1.33,1.106,1.736,2.352,2.114,1.092.336,1.806.574,1.806,1.3,0,.672-.588,1.12-1.61,1.12A3.594,3.594,0,0,1,.8,36.942v1.386a4.186,4.186,0,0,0,2.618.84c1.75,0,2.828-.9,2.828-2.282,0-1.526-1.316-1.9-2.478-2.24-1.022-.294-1.68-.546-1.68-1.218,0-.616.532-1.022,1.484-1.022a3.577,3.577,0,0,1,2.268.784V31.916A3.965,3.965,0,0,0,3.556,31.258Zm7.5,7.91a2.918,2.918,0,0,0,3.136-3.08V31.426H12.908v4.69a1.707,1.707,0,0,1-1.848,1.848,1.678,1.678,0,0,1-1.792-1.848v-4.69H7.98v4.662A2.881,2.881,0,0,0,11.06,39.168Zm5.39,2.772h1.288V37.684a3.014,3.014,0,0,0,2.618,1.484c1.792,0,3.43-1.526,3.43-3.962a3.651,3.651,0,0,0-3.444-3.948,3.052,3.052,0,0,0-2.688,1.568l-.154-1.4H16.45Zm3.64-3.976a2.506,2.506,0,0,1-2.38-2.744,2.511,2.511,0,0,1,2.38-2.758A2.509,2.509,0,0,1,22.5,35.206,2.506,2.506,0,0,1,20.09,37.964Zm12.026-2.9c0-2.492-1.47-3.808-3.262-3.808a3.719,3.719,0,0,0-3.654,3.99,3.645,3.645,0,0,0,3.836,3.92,4.413,4.413,0,0,0,2.646-.84V37.054a3.913,3.913,0,0,1-2.548.994A2.582,2.582,0,0,1,26.46,35.64h5.614A3.438,3.438,0,0,0,32.116,35.066Zm-5.656-.392a2.459,2.459,0,0,1,2.38-2.3,2.064,2.064,0,0,1,2.03,2.3ZM33.964,39h1.288V34.688a1.963,1.963,0,0,1,2.03-2.128,3.259,3.259,0,0,1,.532.056V31.384a2.713,2.713,0,0,0-.5-.042,2.453,2.453,0,0,0-2.17,1.288h-.014l-.14-1.2H33.964Zm9.422-9.31a.784.784,0,1,0-.8-.784A.769.769,0,0,0,43.386,29.69ZM42.742,39H44.03V31.426H42.742Zm4.074,0H48.1V32.546h2.17v-1.12H48.09V30.46c0-1.064.518-1.526,1.456-1.526a3.252,3.252,0,0,1,1.106.2V27.94a4.17,4.17,0,0,0-1.26-.21,2.451,2.451,0,0,0-2.576,2.562v1.134H45.724v1.12h1.092Zm14.14-7.574H59.612l-2.086,5.768H57.5l-2.086-5.768h-1.4l2.828,7.308-1.3,3.206h1.316Zm4.522,7.742A3.757,3.757,0,0,0,69.23,35.22a3.771,3.771,0,1,0-7.532,0A3.763,3.763,0,0,0,65.478,39.168Zm0-1.2A2.536,2.536,0,0,1,63,35.22a2.486,2.486,0,1,1,4.942,0A2.542,2.542,0,0,1,65.478,37.964Zm8.61,1.2a2.918,2.918,0,0,0,3.136-3.08V31.426H75.936v4.69a1.707,1.707,0,0,1-1.848,1.848A1.678,1.678,0,0,1,72.3,36.116v-4.69H71.008v4.662A2.881,2.881,0,0,0,74.088,39.168ZM83.3,39h1.288V34.688a1.963,1.963,0,0,1,2.03-2.128,3.259,3.259,0,0,1,.532.056V31.384a2.713,2.713,0,0,0-.5-.042,2.453,2.453,0,0,0-2.17,1.288h-.014l-.14-1.2H83.3Zm11.438-3.934c0-2.492-1.47-3.808-3.262-3.808a3.719,3.719,0,0,0-3.654,3.99,3.645,3.645,0,0,0,3.836,3.92,4.413,4.413,0,0,0,2.646-.84V37.054a3.913,3.913,0,0,1-2.548.994,2.582,2.582,0,0,1-2.674-2.408H94.7A3.438,3.438,0,0,0,94.738,35.066Zm-5.656-.392a2.459,2.459,0,0,1,2.38-2.3,2.064,2.064,0,0,1,2.03,2.3Zm9-5.026H96.852v1.778H95.69v1.12h1.134v3.808a2.506,2.506,0,0,0,2.7,2.744,4.745,4.745,0,0,0,.9-.084v-1.12a3.917,3.917,0,0,1-.672.07A1.5,1.5,0,0,1,98.084,36.3V32.546h2.17v-1.12h-2.17Zm4.55.042a.784.784,0,1,0-.8-.784A.769.769,0,0,0,102.634,29.69ZM101.99,39h1.288V31.426H101.99Zm3.668,0h1.288V34.688a1.963,1.963,0,0,1,2.03-2.128,3.259,3.259,0,0,1,.532.056V31.384a2.713,2.713,0,0,0-.5-.042,2.453,2.453,0,0,0-2.17,1.288h-.014l-.14-1.2h-1.022ZM117.1,35.066c0-2.492-1.47-3.808-3.262-3.808a3.719,3.719,0,0,0-3.654,3.99,3.645,3.645,0,0,0,3.836,3.92,4.413,4.413,0,0,0,2.646-.84V37.054a3.913,3.913,0,0,1-2.548.994,2.582,2.582,0,0,1-2.674-2.408h5.614A3.438,3.438,0,0,0,117.1,35.066Zm-5.656-.392a2.459,2.459,0,0,1,2.38-2.3,2.064,2.064,0,0,1,2.03,2.3Zm14.28,4.494a3.044,3.044,0,0,0,2.7-1.554L128.576,39h1.05V31.426h-1.05l-.154,1.4a3.058,3.058,0,0,0-2.7-1.568,3.664,3.664,0,0,0-3.444,3.962A3.668,3.668,0,0,0,125.72,39.168Zm.266-1.2a2.509,2.509,0,0,1-2.408-2.744,2.423,2.423,0,1,1,4.8-.014A2.521,2.521,0,0,1,125.986,37.964Zm7.574-8.316h-1.232v1.778h-1.162v1.12H132.3v3.808A2.506,2.506,0,0,0,135,39.1a4.744,4.744,0,0,0,.9-.084v-1.12a3.916,3.916,0,0,1-.672.07A1.5,1.5,0,0,1,133.56,36.3V32.546h2.17v-1.12h-2.17Zm10.654,9.52a3.044,3.044,0,0,0,2.7-1.554L147.07,39h1.05V31.426h-1.05l-.154,1.4a3.058,3.058,0,0,0-2.7-1.568,3.664,3.664,0,0,0-3.444,3.962A3.668,3.668,0,0,0,144.214,39.168Zm.266-1.2a2.509,2.509,0,0,1-2.408-2.744,2.423,2.423,0,1,1,4.8-.014A2.521,2.521,0,0,1,144.48,37.964Zm8.946-6.692a3.624,3.624,0,0,0-3.444,3.808,3.594,3.594,0,0,0,3.444,3.794,3.085,3.085,0,0,0,2.6-1.428v1.148a2.339,2.339,0,0,1-2.492,2.31,4.133,4.133,0,0,1-2.772-1.12V41.17a4.793,4.793,0,0,0,2.828.938,3.537,3.537,0,0,0,3.724-3.724V31.426h-1.05l-.154,1.316A3.107,3.107,0,0,0,153.426,31.272Zm.252,1.19a2.43,2.43,0,0,1,2.394,2.576,2.489,2.489,0,0,1-2.394,2.66,2.628,2.628,0,0,1,0-5.236Zm12.432,2.6c0-2.492-1.47-3.808-3.262-3.808a3.719,3.719,0,0,0-3.654,3.99,3.645,3.645,0,0,0,3.836,3.92,4.413,4.413,0,0,0,2.646-.84V37.054a3.913,3.913,0,0,1-2.548.994,2.582,2.582,0,0,1-2.674-2.408h5.614A3.438,3.438,0,0,0,166.11,35.066Zm-5.656-.392a2.459,2.459,0,0,1,2.38-2.3,2.064,2.064,0,0,1,2.03,2.3Zm15.274-2.66a1.358,1.358,0,0,0-.238.014l2.786-3.472h-2.7L172.788,32a5.439,5.439,0,0,0-1.582,3.486,4.018,4.018,0,0,0,8.022-.056A3.492,3.492,0,0,0,175.728,32.014ZM175.2,37.25a1.762,1.762,0,0,1-1.764-1.792,2.468,2.468,0,0,1,.616-1.61,2.645,2.645,0,0,1,.966-.2,1.812,1.812,0,0,1,1.946,1.82A1.759,1.759,0,0,1,175.2,37.25ZM180.348,39h2.394l5.348-10.444h-7.728v2.058h4.41Zm9.506.07a.875.875,0,1,0-.868-.868A.855.855,0,0,0,189.854,39.07Zm11.984-5.46a2.343,2.343,0,0,0,1.582-2.324c0-1.54-1.162-2.7-3.388-2.7h-3.164V39H200.2c2.38,0,3.556-1.3,3.556-2.87A2.512,2.512,0,0,0,201.838,33.61Zm-3.682-3.85h1.974c1.246,0,2,.616,2,1.652,0,.994-.742,1.736-2.1,1.736h-1.876Zm2.016,8.064h-2.016v-3.6h2.086c1.274,0,2.212.644,2.212,1.792C202.454,37.068,201.656,37.824,200.172,37.824Zm8.484,1.344a3.044,3.044,0,0,0,2.7-1.554L211.512,39h1.05V31.426h-1.05l-.154,1.4a3.058,3.058,0,0,0-2.7-1.568,3.664,3.664,0,0,0-3.444,3.962A3.668,3.668,0,0,0,208.656,39.168Zm.266-1.2a2.509,2.509,0,0,1-2.408-2.744,2.423,2.423,0,1,1,4.8-.014A2.521,2.521,0,0,1,208.922,37.964Zm8.372-6.706c-1.68,0-2.73.952-2.73,2.226,0,1.33,1.106,1.736,2.352,2.114,1.092.336,1.806.574,1.806,1.3,0,.672-.588,1.12-1.61,1.12a3.594,3.594,0,0,1-2.576-1.078v1.386a4.186,4.186,0,0,0,2.618.84c1.75,0,2.828-.9,2.828-2.282,0-1.526-1.316-1.9-2.478-2.24-1.022-.294-1.68-.546-1.68-1.218,0-.616.532-1.022,1.484-1.022a3.577,3.577,0,0,1,2.268.784V31.916A3.965,3.965,0,0,0,217.294,31.258Zm10.962,3.808c0-2.492-1.47-3.808-3.262-3.808a3.719,3.719,0,0,0-3.654,3.99,3.645,3.645,0,0,0,3.836,3.92,4.413,4.413,0,0,0,2.646-.84V37.054a3.913,3.913,0,0,1-2.548.994A2.582,2.582,0,0,1,222.6,35.64h5.614A3.438,3.438,0,0,0,228.256,35.066Zm-5.656-.392a2.459,2.459,0,0,1,2.38-2.3,2.064,2.064,0,0,1,2.03,2.3Zm10.472,4.494a3.06,3.06,0,0,0,2.7-1.554L235.928,39h1.05V27.8H235.69v4.942a2.973,2.973,0,0,0-2.618-1.484c-1.792,0-3.444,1.526-3.444,3.962A3.66,3.66,0,0,0,233.072,39.168Zm.266-1.2a2.52,2.52,0,0,1-2.422-2.744,2.423,2.423,0,1,1,4.8-.014A2.511,2.511,0,0,1,233.338,37.964Zm13.09,1.2a3.757,3.757,0,0,0,3.752-3.948,3.771,3.771,0,1,0-7.532,0A3.763,3.763,0,0,0,246.428,39.168Zm0-1.2a2.536,2.536,0,0,1-2.478-2.744,2.486,2.486,0,1,1,4.942,0A2.542,2.542,0,0,1,246.428,37.964Zm9.128-6.706a2.732,2.732,0,0,0-2.324,1.316h-.042l-.14-1.148h-.994V39h1.288V34.38a1.832,1.832,0,0,1,1.89-1.89c1.134,0,1.736.63,1.736,1.96V39h1.288V33.988A2.543,2.543,0,0,0,255.556,31.258Zm11.746,7.91a3.045,3.045,0,0,0,2.7-1.554L270.158,39h1.05V31.426h-1.05l-.154,1.4a3.058,3.058,0,0,0-2.7-1.568,3.664,3.664,0,0,0-3.444,3.962A3.668,3.668,0,0,0,267.3,39.168Zm.266-1.2a2.509,2.509,0,0,1-2.408-2.744,2.423,2.423,0,1,1,4.8-.014A2.521,2.521,0,0,1,267.568,37.964Zm9.492-6.706a2.732,2.732,0,0,0-2.324,1.316h-.042l-.14-1.148h-.994V39h1.288V34.38a1.832,1.832,0,0,1,1.89-1.89c1.134,0,1.736.63,1.736,1.96V39h1.288V33.988A2.543,2.543,0,0,0,277.06,31.258ZM7.616,59.066c0-2.492-1.47-3.808-3.262-3.808A3.719,3.719,0,0,0,.7,59.248a3.645,3.645,0,0,0,3.836,3.92,4.413,4.413,0,0,0,2.646-.84V61.054a3.913,3.913,0,0,1-2.548.994A2.582,2.582,0,0,1,1.96,59.64H7.574A3.438,3.438,0,0,0,7.616,59.066ZM1.96,58.674a2.459,2.459,0,0,1,2.38-2.3,2.064,2.064,0,0,1,2.03,2.3Zm9.884-3.416c-1.68,0-2.73.952-2.73,2.226,0,1.33,1.106,1.736,2.352,2.114,1.092.336,1.806.574,1.806,1.3,0,.672-.588,1.12-1.61,1.12a3.594,3.594,0,0,1-2.576-1.078v1.386a4.186,4.186,0,0,0,2.618.84c1.75,0,2.828-.9,2.828-2.282,0-1.526-1.316-1.9-2.478-2.24-1.022-.294-1.68-.546-1.68-1.218,0-.616.532-1.022,1.484-1.022a3.577,3.577,0,0,1,2.268.784V55.916A3.965,3.965,0,0,0,11.844,55.258Zm6.09-1.61H16.7v1.778H15.54v1.12h1.134v3.808a2.506,2.506,0,0,0,2.7,2.744,4.745,4.745,0,0,0,.9-.084v-1.12a3.917,3.917,0,0,1-.672.07A1.5,1.5,0,0,1,17.934,60.3V56.546H20.1v-1.12h-2.17Zm4.55.042a.784.784,0,1,0-.8-.784A.769.769,0,0,0,22.484,53.69ZM21.84,63h1.288V55.426H21.84ZM33,55.258a2.422,2.422,0,0,0-2.184,1.33,2.088,2.088,0,0,0-2.1-1.33,2.26,2.26,0,0,0-2.03,1.288h-.042l-.14-1.12h-.994V63H26.8V58.226a1.6,1.6,0,0,1,1.568-1.736c1.008,0,1.442.574,1.442,1.666V63h1.288V58.156a1.573,1.573,0,0,1,1.582-1.666c1.008,0,1.428.574,1.428,1.666V63h1.288V57.946C35.392,56.364,34.65,55.258,33,55.258Zm7.63,7.91a3.044,3.044,0,0,0,2.7-1.554L43.484,63h1.05V55.426h-1.05l-.154,1.4a3.058,3.058,0,0,0-2.7-1.568,3.993,3.993,0,0,0,0,7.91Zm.266-1.2a2.778,2.778,0,1,1,2.394-2.758A2.509,2.509,0,0,1,40.894,61.964Zm7.574-8.316H47.236v1.778H46.074v1.12h1.134v3.808a2.506,2.506,0,0,0,2.7,2.744,4.745,4.745,0,0,0,.9-.084v-1.12a3.917,3.917,0,0,1-.672.07A1.5,1.5,0,0,1,48.468,60.3V56.546h2.17v-1.12h-2.17Zm10.248,5.418c0-2.492-1.47-3.808-3.262-3.808a3.719,3.719,0,0,0-3.654,3.99,3.645,3.645,0,0,0,3.836,3.92,4.413,4.413,0,0,0,2.646-.84V61.054a3.913,3.913,0,0,1-2.548.994A2.582,2.582,0,0,1,53.06,59.64h5.614A3.438,3.438,0,0,0,58.716,59.066Zm-5.656-.392a2.459,2.459,0,0,1,2.38-2.3,2.064,2.064,0,0,1,2.03,2.3Zm10.472,4.494a3.06,3.06,0,0,0,2.7-1.554L66.388,63h1.05V51.8H66.15v4.942a2.973,2.973,0,0,0-2.618-1.484c-1.792,0-3.444,1.526-3.444,3.962A3.66,3.66,0,0,0,63.532,63.168Zm.266-1.2a2.78,2.78,0,1,1,2.38-2.758A2.52,2.52,0,0,1,63.8,61.964Zm12.754,1.2a3.044,3.044,0,0,0,2.7-1.554L79.408,63h1.05V55.426h-1.05l-.154,1.4a3.058,3.058,0,0,0-2.7-1.568,3.993,3.993,0,0,0,0,7.91Zm.266-1.2a2.778,2.778,0,1,1,2.394-2.758A2.509,2.509,0,0,1,76.818,61.964Zm9.492-6.706a2.732,2.732,0,0,0-2.324,1.316h-.042l-.14-1.148H82.81V63H84.1V58.38a1.832,1.832,0,0,1,1.89-1.89c1.134,0,1.736.63,1.736,1.96V63h1.288V57.988A2.543,2.543,0,0,0,86.31,55.258Zm8.47,0a2.732,2.732,0,0,0-2.324,1.316h-.042l-.14-1.148H91.28V63h1.288V58.38a1.832,1.832,0,0,1,1.89-1.89c1.134,0,1.736.63,1.736,1.96V63h1.288V57.988A2.543,2.543,0,0,0,94.78,55.258Zm7.952,7.91a2.918,2.918,0,0,0,3.136-3.08V55.426H104.58v4.69a1.707,1.707,0,0,1-1.848,1.848,1.678,1.678,0,0,1-1.792-1.848v-4.69H99.652v4.662A2.881,2.881,0,0,0,102.732,63.168Zm8.344,0a3.044,3.044,0,0,0,2.7-1.554L113.932,63h1.05V55.426h-1.05l-.154,1.4a3.058,3.058,0,0,0-2.7-1.568,3.993,3.993,0,0,0,0,7.91Zm.266-1.2a2.778,2.778,0,1,1,2.394-2.758A2.509,2.509,0,0,1,111.342,61.964ZM117.362,63h1.288V51.8h-1.288Zm9.87-7.742c-1.68,0-2.73.952-2.73,2.226,0,1.33,1.106,1.736,2.352,2.114,1.092.336,1.806.574,1.806,1.3,0,.672-.588,1.12-1.61,1.12a3.594,3.594,0,0,1-2.576-1.078v1.386a4.186,4.186,0,0,0,2.618.84c1.75,0,2.828-.9,2.828-2.282,0-1.526-1.316-1.9-2.478-2.24-1.022-.294-1.68-.546-1.68-1.218,0-.616.532-1.022,1.484-1.022a3.577,3.577,0,0,1,2.268.784V55.916A3.965,3.965,0,0,0,127.232,55.258Zm7.476,7.91a3.044,3.044,0,0,0,2.7-1.554L137.564,63h1.05V55.426h-1.05l-.154,1.4a3.058,3.058,0,0,0-2.7-1.568,3.993,3.993,0,0,0,0,7.91Zm.266-1.2a2.778,2.778,0,1,1,2.394-2.758A2.509,2.509,0,0,1,134.974,61.964ZM140.994,63h1.288V51.8h-1.288Zm6.622.168a3.044,3.044,0,0,0,2.7-1.554L150.472,63h1.05V55.426h-1.05l-.154,1.4a3.058,3.058,0,0,0-2.7-1.568,3.993,3.993,0,0,0,0,7.91Zm.266-1.2a2.778,2.778,0,1,1,2.394-2.758A2.509,2.509,0,0,1,147.882,61.964ZM153.874,63h1.288V58.688a1.963,1.963,0,0,1,2.03-2.128,3.259,3.259,0,0,1,.532.056V55.384a2.713,2.713,0,0,0-.5-.042,2.453,2.453,0,0,0-2.17,1.288h-.014l-.14-1.2h-1.022Zm11.354-7.574h-1.344L161.8,61.194h-.028l-2.086-5.768h-1.4l2.828,7.308-1.3,3.206h1.316Zm8.26,7.742a3.959,3.959,0,1,0-3.78-3.948A3.757,3.757,0,0,0,173.488,63.168Zm0-1.2a2.768,2.768,0,1,1,2.464-2.744A2.536,2.536,0,0,1,173.488,61.964ZM179.41,63H180.7V56.546h2.17v-1.12h-2.184V54.46c0-1.064.518-1.526,1.456-1.526a3.252,3.252,0,0,1,1.106.2V51.94a4.17,4.17,0,0,0-1.26-.21,2.451,2.451,0,0,0-2.576,2.562v1.134h-1.092v1.12h1.092Zm14.742-3.136c0-1.918-1.442-2.562-2.87-3.052-.9-.308-1.61-.6-1.61-1.232,0-.532.532-.966,1.428-.966a4.345,4.345,0,0,1,2.45.826v-2.2a5.566,5.566,0,0,0-1.96-.6V51.6h-1.82v1.148a2.947,2.947,0,0,0-2.394,2.828c0,1.848,1.386,2.492,2.8,2.982.966.322,1.666.63,1.666,1.316S191.17,61,190.19,61a4.049,4.049,0,0,1-2.786-1.176v2.352a5.662,5.662,0,0,0,2.366.8v1.036h1.82V62.874A3.14,3.14,0,0,0,194.152,59.864Zm7.7-7.308h-5.18l-.84,5.67.35.238a4.1,4.1,0,0,1,1.736-.378c1.4,0,2.086.686,2.086,1.54s-.672,1.5-1.89,1.5a3.9,3.9,0,0,1-2.688-1.092V62.37a4.969,4.969,0,0,0,2.926.868,3.664,3.664,0,0,0,4.018-3.626,3.284,3.284,0,0,0-3.584-3.262,3.638,3.638,0,0,0-.868.112l.336-1.848h3.6Zm8.3,0h-5.18l-.84,5.67.35.238a4.1,4.1,0,0,1,1.736-.378c1.4,0,2.086.686,2.086,1.54s-.672,1.5-1.89,1.5a3.9,3.9,0,0,1-2.688-1.092V62.37a4.969,4.969,0,0,0,2.926.868,3.664,3.664,0,0,0,4.018-3.626,3.284,3.284,0,0,0-3.584-3.262,3.638,3.638,0,0,0-.868.112l.336-1.848h3.6Zm1.5,12.32h1.6a9.586,9.586,0,0,0,.966-3.668v-.6h-2v.77A12.3,12.3,0,0,1,211.652,64.876Zm8.12-12.558c-2.38,0-4.27,2.1-4.27,5.474,0,3.346,1.89,5.446,4.27,5.446s4.284-2.1,4.284-5.446C224.056,54.418,222.138,52.318,219.772,52.318Zm0,2.1c1.12,0,2.058,1.232,2.058,3.374,0,2.114-.938,3.346-2.058,3.346s-2-1.232-2-3.346C217.77,55.65,218.652,54.418,219.772,54.418Zm9.982-2.1c-2.38,0-4.27,2.1-4.27,5.474,0,3.346,1.89,5.446,4.27,5.446s4.284-2.1,4.284-5.446C234.038,54.418,232.12,52.318,229.754,52.318Zm0,2.1c1.12,0,2.058,1.232,2.058,3.374,0,2.114-.938,3.346-2.058,3.346s-2-1.232-2-3.346C227.752,55.65,228.634,54.418,229.754,54.418Zm9.982-2.1c-2.38,0-4.27,2.1-4.27,5.474,0,3.346,1.89,5.446,4.27,5.446s4.284-2.1,4.284-5.446C244.02,54.418,242.1,52.318,239.736,52.318Zm0,2.1c1.12,0,2.058,1.232,2.058,3.374,0,2.114-.938,3.346-2.058,3.346s-2-1.232-2-3.346C237.734,55.65,238.616,54.418,239.736,54.418ZM246.5,63.07a.875.875,0,1,0-.868-.868A.855.855,0,0,0,246.5,63.07Z" transform="translate(32 96)"/><path d="M3.816-9.144C1.884-9.144.648-8.028.648-6.468c0,1.6,1.32,2.184,2.424,2.64.972.4,1.6.684,1.6,1.284s-.588,1.02-1.476,1.02a3.962,3.962,0,0,1-2.52-.984v1.9a4.725,4.725,0,0,0,2.712.8c1.98,0,3.288-1.128,3.288-2.808,0-1.7-1.392-2.268-2.664-2.772C3.072-5.772,2.58-6.012,2.58-6.54c0-.564.552-.876,1.344-.876a4.1,4.1,0,0,1,2.22.684v-1.8A4.7,4.7,0,0,0,3.816-9.144ZM13.992-3.432c0-2.22-1.38-3.384-3.072-3.384A3.323,3.323,0,0,0,7.584-3.3,3.35,3.35,0,0,0,11.268.168a4.562,4.562,0,0,0,2.316-.6V-2a3.863,3.863,0,0,1-2.076.66A2,2,0,0,1,9.42-2.784h4.524A3.565,3.565,0,0,0,13.992-3.432Zm-4.608-.5A1.6,1.6,0,0,1,10.908-5.3a1.253,1.253,0,0,1,1.26,1.368Zm11.9.5c0-2.22-1.38-3.384-3.072-3.384A3.323,3.323,0,0,0,14.88-3.3,3.35,3.35,0,0,0,18.564.168a4.562,4.562,0,0,0,2.316-.6V-2a3.863,3.863,0,0,1-2.076.66,2,2,0,0,1-2.088-1.44H21.24A3.565,3.565,0,0,0,21.288-3.432Zm-4.608-.5A1.6,1.6,0,0,1,18.2-5.3a1.253,1.253,0,0,1,1.26,1.368ZM27.708-8.184H25.86v1.536h-.948v1.584h.936v2.508A2.472,2.472,0,0,0,28.56.144,4.557,4.557,0,0,0,29.6.036V-1.572a3.756,3.756,0,0,1-.6.06c-.744,0-1.3-.324-1.3-1.164V-5.064h1.776V-6.648H27.708Zm4.944-1.452h-1.92V0h1.92V-3.972A1.074,1.074,0,0,1,33.8-5.088c.708,0,1.056.372,1.056,1.188V0h1.92V-4.44a2.167,2.167,0,0,0-2.34-2.376A2.277,2.277,0,0,0,32.664-6h-.012Zm11.724,6.2c0-2.22-1.38-3.384-3.072-3.384A3.323,3.323,0,0,0,37.968-3.3,3.35,3.35,0,0,0,41.652.168a4.562,4.562,0,0,0,2.316-.6V-2a3.863,3.863,0,0,1-2.076.66A2,2,0,0,1,39.8-2.784h4.524A3.565,3.565,0,0,0,44.376-3.432Zm-4.608-.5A1.6,1.6,0,0,1,41.292-5.3a1.253,1.253,0,0,1,1.26,1.368ZM49.584-7.56A1.037,1.037,0,0,0,50.628-8.6a1.035,1.035,0,0,0-1.044-1.032A1.03,1.03,0,0,0,48.528-8.6,1.033,1.033,0,0,0,49.584-7.56ZM48.624,0h1.92V-6.648h-1.92Zm10.86-6.816a2.181,2.181,0,0,0-1.908,1.128,1.924,1.924,0,0,0-1.86-1.128,2.064,2.064,0,0,0-1.848,1.092h-.036l-.192-.924H52.152V0h1.92V-4a.965.965,0,0,1,.96-1.08c.648,0,.888.348.888,1.068V0h1.92V-4.08a.938.938,0,0,1,.972-1c.648,0,.888.348.888,1.068V0h1.92V-4.4C61.62-5.856,60.936-6.816,59.484-6.816Zm3.7,9.336H65.1V-.972A2.456,2.456,0,0,0,67.188.168c1.56,0,2.94-1.356,2.94-3.492a3.205,3.205,0,0,0-2.976-3.492A2.55,2.55,0,0,0,64.98-5.628l-.192-1.02H63.18Zm3.432-4.08a1.6,1.6,0,0,1-1.536-1.764,1.6,1.6,0,0,1,1.548-1.764,1.609,1.609,0,0,1,1.56,1.752A1.632,1.632,0,0,1,66.612-1.56ZM73.968.168A2.5,2.5,0,0,0,76.152-1.02L76.344,0h1.62V-6.648h-1.62l-.192,1.02a2.525,2.525,0,0,0-2.184-1.188A3.242,3.242,0,0,0,71.016-3.3,3.226,3.226,0,0,0,73.968.168Zm.564-1.728a1.63,1.63,0,0,1-1.584-1.764,1.637,1.637,0,0,1,1.584-1.764A1.611,1.611,0,0,1,76.08-3.324,1.611,1.611,0,0,1,74.532-1.56Zm6.6-1.764a1.739,1.739,0,0,1,1.836-1.764,2.915,2.915,0,0,1,1.668.5V-6.348a3.9,3.9,0,0,0-1.956-.468,3.4,3.4,0,0,0-3.492,3.48A3.4,3.4,0,0,0,82.68.168a4.311,4.311,0,0,0,1.956-.456V-2.052a2.764,2.764,0,0,1-1.668.492A1.732,1.732,0,0,1,81.132-3.324Zm7.128-4.86H86.412v1.536h-.948v1.584H86.4v2.508a2.472,2.472,0,0,0,2.712,2.7A4.557,4.557,0,0,0,90.156.036V-1.572a3.756,3.756,0,0,1-.6.06c-.744,0-1.3-.324-1.3-1.164V-5.064h1.776V-6.648H88.26ZM97.392.168a3.386,3.386,0,0,0,3.492-3.492,3.372,3.372,0,0,0-3.492-3.492A3.386,3.386,0,0,0,93.9-3.324,3.393,3.393,0,0,0,97.392.168Zm0-1.728a1.612,1.612,0,0,1-1.548-1.764,1.612,1.612,0,0,1,1.548-1.764,1.62,1.62,0,0,1,1.56,1.764A1.628,1.628,0,0,1,97.392-1.56ZM102.528,0h1.92V-5.064h1.728V-6.648h-1.752v-.516c0-.636.36-.912,1.056-.912a3.336,3.336,0,0,1,.936.144V-9.54a4.149,4.149,0,0,0-1.272-.2,2.424,2.424,0,0,0-2.616,2.424v.672h-.912v1.584h.912ZM115.92-3.432c0-2.22-1.38-3.384-3.072-3.384A3.323,3.323,0,0,0,109.512-3.3,3.35,3.35,0,0,0,113.2.168a4.562,4.562,0,0,0,2.316-.6V-2a3.863,3.863,0,0,1-2.076.66,2,2,0,0,1-2.088-1.44h4.524A3.565,3.565,0,0,0,115.92-3.432Zm-4.608-.5A1.6,1.6,0,0,1,112.836-5.3a1.253,1.253,0,0,1,1.26,1.368ZM123.06-6.648H121l-1.26,2.076h-.012l-1.272-2.076h-2.1L118.6-3.312,116.328,0H118.4l1.272-2.088h.024L120.972,0h2.184l-2.3-3.4Zm3.24-1.536h-1.848v1.536H123.5v1.584h.936v2.508a2.472,2.472,0,0,0,2.712,2.7A4.557,4.557,0,0,0,128.2.036V-1.572a3.756,3.756,0,0,1-.6.06c-.744,0-1.3-.324-1.3-1.164V-5.064h1.776V-6.648H126.3ZM129.324,0h1.92V-3.252a1.485,1.485,0,0,1,1.572-1.68,2.163,2.163,0,0,1,.552.06v-1.8a2.051,2.051,0,0,0-.5-.048,2.035,2.035,0,0,0-1.8,1.068h-.024l-.192-1h-1.524ZM136.8.168a2.5,2.5,0,0,0,2.184-1.188L139.176,0h1.62V-6.648h-1.62l-.192,1.02A2.525,2.525,0,0,0,136.8-6.816,3.242,3.242,0,0,0,133.848-3.3,3.226,3.226,0,0,0,136.8.168Zm.564-1.728a1.63,1.63,0,0,1-1.584-1.764,1.637,1.637,0,0,1,1.584-1.764,1.611,1.611,0,0,1,1.548,1.764A1.611,1.611,0,0,1,137.364-1.56ZM145.38,0h1.92V-3.252a1.485,1.485,0,0,1,1.572-1.68,2.163,2.163,0,0,1,.552.06v-1.8a2.051,2.051,0,0,0-.5-.048,2.035,2.035,0,0,0-1.8,1.068H147.1l-.192-1H145.38Zm10.932-3.432c0-2.22-1.38-3.384-3.072-3.384A3.323,3.323,0,0,0,149.9-3.3,3.35,3.35,0,0,0,153.588.168a4.562,4.562,0,0,0,2.316-.6V-2a3.863,3.863,0,0,1-2.076.66,2,2,0,0,1-2.088-1.44h4.524A3.566,3.566,0,0,0,156.312-3.432Zm-4.608-.5A1.6,1.6,0,0,1,153.228-5.3a1.253,1.253,0,0,1,1.26,1.368ZM160.176-6.8A3.174,3.174,0,0,0,157.2-3.48a3.132,3.132,0,0,0,2.952,3.348,2.43,2.43,0,0,0,2.04-1.1v.612c0,.972-.816,1.644-1.992,1.644a3.9,3.9,0,0,1-2.34-.912V1.932a4.489,4.489,0,0,0,2.52.756A3.4,3.4,0,0,0,164.112-.84V-6.648h-1.62l-.192,1A2.519,2.519,0,0,0,160.176-6.8Zm.5,1.692a1.555,1.555,0,0,1,1.536,1.632,1.569,1.569,0,0,1-1.536,1.656,1.568,1.568,0,0,1-1.548-1.644A1.582,1.582,0,0,1,160.68-5.112Zm7.956,5.28A2.785,2.785,0,0,0,171.684-2.7V-6.648h-1.92v3.936a1.031,1.031,0,0,1-1.128,1.152,1.007,1.007,0,0,1-1.092-1.14V-6.648h-1.92V-2.7A2.761,2.761,0,0,0,168.636.168ZM173.208,0h1.92V-9.636h-1.92Zm6.12.168a2.5,2.5,0,0,0,2.184-1.188L181.7,0h1.62V-6.648H181.7l-.192,1.02a2.525,2.525,0,0,0-2.184-1.188A3.242,3.242,0,0,0,176.376-3.3,3.226,3.226,0,0,0,179.328.168Zm.564-1.728a1.63,1.63,0,0,1-1.584-1.764,1.637,1.637,0,0,1,1.584-1.764,1.611,1.611,0,0,1,1.548,1.764A1.611,1.611,0,0,1,179.892-1.56ZM184.92,0h1.92V-3.252a1.485,1.485,0,0,1,1.572-1.68,2.163,2.163,0,0,1,.552.06v-1.8a2.051,2.051,0,0,0-.5-.048,2.035,2.035,0,0,0-1.8,1.068h-.024l-.192-1H184.92Zm9.948-8.184H193.02v1.536h-.948v1.584h.936v2.508a2.472,2.472,0,0,0,2.712,2.7,4.557,4.557,0,0,0,1.044-.108V-1.572a3.756,3.756,0,0,1-.6.06c-.744,0-1.3-.324-1.3-1.164V-5.064h1.776V-6.648h-1.776Zm6.12,8.352a3.386,3.386,0,0,0,3.492-3.492,3.372,3.372,0,0,0-3.492-3.492A3.386,3.386,0,0,0,197.5-3.324,3.393,3.393,0,0,0,200.988.168Zm0-1.728a1.612,1.612,0,0,1-1.548-1.764,1.612,1.612,0,0,1,1.548-1.764,1.62,1.62,0,0,1,1.56,1.764A1.628,1.628,0,0,1,200.988-1.56Zm4.728,4.08h1.92V-.972a2.456,2.456,0,0,0,2.088,1.14c1.56,0,2.94-1.356,2.94-3.492a3.205,3.205,0,0,0-2.976-3.492,2.55,2.55,0,0,0-2.172,1.188l-.192-1.02h-1.608Zm3.432-4.08a1.6,1.6,0,0,1-1.536-1.764,1.6,1.6,0,0,1,1.548-1.764,1.609,1.609,0,0,1,1.56,1.752A1.632,1.632,0,0,1,209.148-1.56Zm4.716-1.524h3.492V-4.56h-3.492Zm7.98,3.252A2.785,2.785,0,0,0,224.892-2.7V-6.648h-1.92v3.936a1.031,1.031,0,0,1-1.128,1.152,1.007,1.007,0,0,1-1.092-1.14V-6.648h-1.92V-2.7A2.761,2.761,0,0,0,221.844.168ZM226.4,2.52h1.92V-.972a2.456,2.456,0,0,0,2.088,1.14c1.56,0,2.94-1.356,2.94-3.492a3.205,3.205,0,0,0-2.976-3.492A2.55,2.55,0,0,0,228.2-5.628l-.192-1.02H226.4Zm3.432-4.08A1.6,1.6,0,0,1,228.3-3.324a1.6,1.6,0,0,1,1.548-1.764,1.609,1.609,0,0,1,1.56,1.752A1.632,1.632,0,0,1,229.836-1.56Zm7.236-5.256c-1.716,0-2.712.9-2.712,2.124s.984,1.644,2.04,1.944c.864.24,1.344.372,1.344.78,0,.36-.384.576-1.056.576A3.578,3.578,0,0,1,234.4-2.22V-.456a4.378,4.378,0,0,0,2.376.624c1.8,0,2.832-.84,2.832-2.148,0-1.4-1.164-1.776-2.256-2.04-.756-.2-1.14-.348-1.14-.708,0-.324.336-.528.936-.528a3.855,3.855,0,0,1,2.028.588V-6.3A4.183,4.183,0,0,0,237.072-6.816Zm4.74,2.928a1.061,1.061,0,0,0,1.08-1.08,1.058,1.058,0,0,0-1.08-1.068,1.065,1.065,0,0,0-1.08,1.068A1.068,1.068,0,0,0,241.812-3.888Zm0,3.972A1.068,1.068,0,0,0,242.892-1a1.061,1.061,0,0,0-1.08-1.08A1.068,1.068,0,0,0,240.732-1,1.076,1.076,0,0,0,241.812.084Z" transform="translate(32 469)"/><path d="M.972,0H6.588V-1.752H2.928V-3.708H6.276v-1.62H2.928v-1.86h3.66V-8.952H.972Zm9.576-6.816c-1.716,0-2.712.9-2.712,2.124s.984,1.644,2.04,1.944c.864.24,1.344.372,1.344.78,0,.36-.384.576-1.056.576A3.578,3.578,0,0,1,7.872-2.22V-.456a4.378,4.378,0,0,0,2.376.624c1.8,0,2.832-.84,2.832-2.148,0-1.4-1.164-1.776-2.256-2.04-.756-.2-1.14-.348-1.14-.708,0-.324.336-.528.936-.528a3.855,3.855,0,0,1,2.028.588V-6.3A4.183,4.183,0,0,0,10.548-6.816Zm5.976-1.368H14.676v1.536h-.948v1.584h.936v2.508a2.472,2.472,0,0,0,2.712,2.7A4.557,4.557,0,0,0,18.42.036V-1.572a3.756,3.756,0,0,1-.6.06c-.744,0-1.3-.324-1.3-1.164V-5.064H18.3V-6.648H16.524Zm4,.624A1.037,1.037,0,0,0,21.564-8.6,1.035,1.035,0,0,0,20.52-9.636,1.03,1.03,0,0,0,19.464-8.6,1.033,1.033,0,0,0,20.52-7.56ZM19.56,0h1.92V-6.648H19.56ZM30.42-6.816a2.181,2.181,0,0,0-1.908,1.128,1.924,1.924,0,0,0-1.86-1.128A2.064,2.064,0,0,0,24.8-5.724h-.036l-.192-.924H23.088V0h1.92V-4a.965.965,0,0,1,.96-1.08c.648,0,.888.348.888,1.068V0h1.92V-4.08a.938.938,0,0,1,.972-1c.648,0,.888.348.888,1.068V0h1.92V-4.4C32.556-5.856,31.872-6.816,30.42-6.816ZM36.708.168A2.5,2.5,0,0,0,38.892-1.02L39.084,0H40.7V-6.648h-1.62l-.192,1.02a2.525,2.525,0,0,0-2.184-1.188A3.242,3.242,0,0,0,33.756-3.3,3.226,3.226,0,0,0,36.708.168Zm.564-1.728a1.63,1.63,0,0,1-1.584-1.764,1.637,1.637,0,0,1,1.584-1.764A1.611,1.611,0,0,1,38.82-3.324,1.611,1.611,0,0,1,37.272-1.56Zm7.284-6.624H42.708v1.536H41.76v1.584H42.7v2.508a2.472,2.472,0,0,0,2.712,2.7A4.557,4.557,0,0,0,46.452.036V-1.572a3.756,3.756,0,0,1-.6.06c-.744,0-1.3-.324-1.3-1.164V-5.064h1.776V-6.648H44.556ZM53.6-3.432c0-2.22-1.38-3.384-3.072-3.384A3.323,3.323,0,0,0,47.2-3.3,3.35,3.35,0,0,0,50.88.168a4.562,4.562,0,0,0,2.316-.6V-2a3.863,3.863,0,0,1-2.076.66,2,2,0,0,1-2.088-1.44h4.524A3.565,3.565,0,0,0,53.6-3.432ZM49-3.936A1.6,1.6,0,0,1,50.52-5.3a1.253,1.253,0,0,1,1.26,1.368ZM57.48.168A2.5,2.5,0,0,0,59.628-1.02L59.82,0h1.62V-9.636H59.52v3.96a2.37,2.37,0,0,0-2.064-1.14,3.2,3.2,0,0,0-2.964,3.492A3.214,3.214,0,0,0,57.48.168ZM58-1.56a1.629,1.629,0,0,1-1.572-1.764A1.636,1.636,0,0,1,58-5.088a1.611,1.611,0,0,1,1.548,1.764A1.611,1.611,0,0,1,58-1.56ZM66.024,0h1.92V-3.252a1.485,1.485,0,0,1,1.572-1.68,2.162,2.162,0,0,1,.552.06v-1.8a2.051,2.051,0,0,0-.5-.048,2.035,2.035,0,0,0-1.8,1.068H67.74l-.192-1H66.024ZM76.956-3.432c0-2.22-1.38-3.384-3.072-3.384A3.323,3.323,0,0,0,70.548-3.3,3.35,3.35,0,0,0,74.232.168a4.562,4.562,0,0,0,2.316-.6V-2a3.863,3.863,0,0,1-2.076.66,2,2,0,0,1-2.088-1.44h4.524A3.565,3.565,0,0,0,76.956-3.432Zm-4.608-.5A1.6,1.6,0,0,1,73.872-5.3a1.253,1.253,0,0,1,1.26,1.368Zm8.328-2.88c-1.716,0-2.712.9-2.712,2.124S78.948-3.048,80-2.748c.864.24,1.344.372,1.344.78,0,.36-.384.576-1.056.576A3.578,3.578,0,0,1,78-2.22V-.456a4.378,4.378,0,0,0,2.376.624c1.8,0,2.832-.84,2.832-2.148,0-1.4-1.164-1.776-2.256-2.04-.756-.2-1.14-.348-1.14-.708,0-.324.336-.528.936-.528a3.855,3.855,0,0,1,2.028.588V-6.3A4.183,4.183,0,0,0,80.676-6.816Zm6.7,6.984A2.785,2.785,0,0,0,90.42-2.7V-6.648H88.5v3.936A1.031,1.031,0,0,1,87.372-1.56,1.007,1.007,0,0,1,86.28-2.7V-6.648H84.36V-2.7A2.761,2.761,0,0,0,87.372.168ZM91.944,0h1.92V-9.636h-1.92Zm5.784-8.184H95.88v1.536h-.948v1.584h.936v2.508A2.472,2.472,0,0,0,98.58.144,4.557,4.557,0,0,0,99.624.036V-1.572a3.756,3.756,0,0,1-.6.06c-.744,0-1.3-.324-1.3-1.164V-5.064H99.5V-6.648H97.728Z" transform="translate(32 277)"/><path d="M-7.5-8.952H-9.36V-3.2h-.012L-13.32-8.952h-1.9V0h1.872V-5.844h.012L-9.348,0H-7.5ZM-2.628.168A3.386,3.386,0,0,0,.864-3.324,3.372,3.372,0,0,0-2.628-6.816,3.386,3.386,0,0,0-6.12-3.324,3.393,3.393,0,0,0-2.628.168Zm0-1.728A1.612,1.612,0,0,1-4.176-3.324,1.612,1.612,0,0,1-2.628-5.088a1.62,1.62,0,0,1,1.56,1.764A1.628,1.628,0,0,1-2.628-1.56ZM5.82-6.816a2.338,2.338,0,0,0-2,1.1H3.78l-.192-.936H2.1V0H4.02V-3.936a1.1,1.1,0,0,1,1.152-1.14c.7,0,1.056.372,1.056,1.188V0h1.92V-4.44A2.17,2.17,0,0,0,5.82-6.816Zm9.924,3.384c0-2.22-1.38-3.384-3.072-3.384A3.323,3.323,0,0,0,9.336-3.3,3.35,3.35,0,0,0,13.02.168a4.562,4.562,0,0,0,2.316-.6V-2a3.863,3.863,0,0,1-2.076.66,2,2,0,0,1-2.088-1.44H15.7A3.565,3.565,0,0,0,15.744-3.432Zm-4.608-.5A1.6,1.6,0,0,1,12.66-5.3a1.253,1.253,0,0,1,1.26,1.368Z" transform="translate(48 501)" fill="#5b6770" opacity="0.8"/><path d="M-13.386-2.688c0-1.644-1.236-2.2-2.46-2.616-.768-.264-1.38-.516-1.38-1.056,0-.456.456-.828,1.224-.828a3.725,3.725,0,0,1,2.1.708V-8.364a4.771,4.771,0,0,0-1.68-.516v-.888h-1.56v.984A2.526,2.526,0,0,0-19.194-6.36c0,1.584,1.188,2.136,2.4,2.556.828.276,1.428.54,1.428,1.128s-.576.96-1.416.96A3.47,3.47,0,0,1-19.17-2.724V-.708a4.853,4.853,0,0,0,2.028.684V.864h1.56V-.108A2.692,2.692,0,0,0-13.386-2.688Zm.8,2.688H-6.03V-1.752H-9.066C-7.434-3.516-6.4-4.824-6.4-6.144A2.948,2.948,0,0,0-9.594-9.156a3.935,3.935,0,0,0-2.484.852v1.956A2.946,2.946,0,0,1-9.942-7.356,1.418,1.418,0,0,1-8.418-5.94C-8.418-5.04-8.766-4.428-12.582,0ZM-1.194-9.156c-2.04,0-3.66,1.8-3.66,4.692C-4.854-1.6-3.234.2-1.194.2S2.478-1.6,2.478-4.464C2.478-7.356.834-9.156-1.194-9.156Zm0,1.8C-.234-7.356.57-6.3.57-4.464.57-2.652-.234-1.6-1.194-1.6S-2.91-2.652-2.91-4.464C-2.91-6.3-2.154-7.356-1.194-7.356ZM3.1,1.608H4.914L8.958-10.548H7.134ZM15.654,0h2.184l1.788-6.648H17.718l-1.044,4.62h-.036L15.4-6.648H13.53l-1.26,4.62h-.036l-1-4.62H9.222L11,0h2.208L14.43-4.32h.036Z" transform="translate(100 501)" fill="#00a7b5"/><path d="M-13.23-2.688c0-1.644-1.236-2.2-2.46-2.616-.768-.264-1.38-.516-1.38-1.056,0-.456.456-.828,1.224-.828a3.725,3.725,0,0,1,2.1.708V-8.364a4.771,4.771,0,0,0-1.68-.516v-.888h-1.56v.984A2.526,2.526,0,0,0-19.038-6.36c0,1.584,1.188,2.136,2.4,2.556.828.276,1.428.54,1.428,1.128s-.576.96-1.416.96a3.47,3.47,0,0,1-2.388-1.008V-.708a4.853,4.853,0,0,0,2.028.684V.864h1.56V-.108A2.692,2.692,0,0,0-13.23-2.688Zm6.6-6.264h-4.44l-.72,4.86.3.2A3.512,3.512,0,0,1-10-4.212c1.2,0,1.788.588,1.788,1.32s-.576,1.284-1.62,1.284a3.343,3.343,0,0,1-2.3-.936v2A4.259,4.259,0,0,0-9.63.2,3.141,3.141,0,0,0-6.186-2.9,2.815,2.815,0,0,0-9.258-5.7,3.119,3.119,0,0,0-10-5.6l.288-1.584H-6.63Zm5.28-.2c-2.04,0-3.66,1.8-3.66,4.692C-5.01-1.6-3.39.2-1.35.2S2.322-1.6,2.322-4.464C2.322-7.356.678-9.156-1.35-9.156Zm0,1.8C-.39-7.356.414-6.3.414-4.464.414-2.652-.39-1.6-1.35-1.6S-3.066-2.652-3.066-4.464C-3.066-6.3-2.31-7.356-1.35-7.356Zm4.3,8.964H4.758L8.8-10.548H6.978ZM15.5,0h2.184L19.47-6.648H17.562l-1.044,4.62h-.036l-1.236-4.62H13.374l-1.26,4.62h-.036l-1-4.62H9.066L10.842,0H13.05l1.224-4.32h.036Z" transform="translate(156 501)" fill="#5b6770" opacity="0.8"/><path d="M-16.794-2.688c0-1.644-1.236-2.2-2.46-2.616-.768-.264-1.38-.516-1.38-1.056,0-.456.456-.828,1.224-.828a3.725,3.725,0,0,1,2.1.708V-8.364a4.771,4.771,0,0,0-1.68-.516v-.888h-1.56v.984A2.526,2.526,0,0,0-22.6-6.36c0,1.584,1.188,2.136,2.4,2.556.828.276,1.428.54,1.428,1.128s-.576.96-1.416.96a3.47,3.47,0,0,1-2.388-1.008V-.708a4.853,4.853,0,0,0,2.028.684V.864h1.56V-.108A2.692,2.692,0,0,0-16.794-2.688ZM-13.9,0h1.92V-9.036h-.144l-3.756,1.464V-5.64l1.98-.8Zm7.56-9.156c-2.04,0-3.66,1.8-3.66,4.692C-10-1.6-8.382.2-6.342.2S-2.67-1.6-2.67-4.464C-2.67-7.356-4.314-9.156-6.342-9.156Zm0,1.8c.96,0,1.764,1.056,1.764,2.892,0,1.812-.8,2.868-1.764,2.868S-8.058-2.652-8.058-4.464C-8.058-6.3-7.3-7.356-6.342-7.356Zm8.556-1.8c-2.04,0-3.66,1.8-3.66,4.692C-1.446-1.6.174.2,2.214.2S5.886-1.6,5.886-4.464C5.886-7.356,4.242-9.156,2.214-9.156Zm0,1.8c.96,0,1.764,1.056,1.764,2.892,0,1.812-.8,2.868-1.764,2.868S.5-2.652.5-4.464C.5-6.3,1.254-7.356,2.214-7.356Zm4.3,8.964H8.322l4.044-12.156H10.542ZM19.062,0h2.184l1.788-6.648H21.126l-1.044,4.62h-.036L18.81-6.648H16.938l-1.26,4.62h-.036l-1-4.62H12.63L14.406,0h2.208l1.224-4.32h.036Z" transform="translate(215 501)" fill="#5b6770" opacity="0.8"/><rect width="208" height="1" transform="translate(32 515)" fill="#5b6770" opacity="0.2"/><rect width="40" height="1" transform="translate(80 515)" fill="#00a7b5"/><path d="M1.232,0H7.518V-1.778H3.192V-4.466H7.154V-6.118H3.192V-8.652H7.518V-10.43H1.232ZM12.278.2A2.975,2.975,0,0,0,14.854-1.26L15.05,0h1.624V-11.228H14.742V-6.51a2.846,2.846,0,0,0-2.478-1.372c-1.806,0-3.458,1.568-3.458,4.032S10.486.2,12.278.2Zm.5-1.764a2.1,2.1,0,0,1-2.03-2.282,2.1,2.1,0,0,1,2.03-2.282A2.077,2.077,0,0,1,14.77-3.85,2.077,2.077,0,0,1,12.782-1.568Zm6.9-7.42a1.058,1.058,0,0,0,1.078-1.064,1.07,1.07,0,0,0-1.078-1.078,1.073,1.073,0,0,0-1.092,1.078A1.061,1.061,0,0,0,19.684-8.988ZM18.718,0H20.65V-7.7H18.718ZM24.99-9.492H23.128V-7.7H21.994v1.61h1.12v3.206A2.769,2.769,0,0,0,26.124.154,4.956,4.956,0,0,0,27.23.042V-1.61a4.073,4.073,0,0,1-.686.07c-.9,0-1.554-.406-1.554-1.442V-6.09h2.1V-7.7h-2.1ZM35.224.2a2.987,2.987,0,0,0,2.6-1.456l.2,1.26h1.624V-7.7H38.024l-.2,1.26a2.976,2.976,0,0,0-2.6-1.442c-1.75,0-3.444,1.6-3.444,4.046A3.75,3.75,0,0,0,35.224.2Zm.532-1.764a2.1,2.1,0,0,1-2.03-2.282,2.1,2.1,0,0,1,2.03-2.282A2.077,2.077,0,0,1,37.744-3.85,2.077,2.077,0,0,1,35.756-1.568Zm8.638-6.314c-1.89,0-3.024,1.008-3.024,2.394S42.5-3.626,43.75-3.276c1.036.308,1.638.49,1.638,1.036,0,.5-.49.826-1.358.826A3.907,3.907,0,0,1,41.4-2.422V-.588A4.687,4.687,0,0,0,44.114.2c1.988,0,3.15-.966,3.15-2.45,0-1.6-1.344-2.016-2.576-2.338-.938-.252-1.442-.448-1.442-.938,0-.462.434-.756,1.218-.756a4.124,4.124,0,0,1,2.324.714V-7.266A4.628,4.628,0,0,0,44.394-7.882Zm7.154,0c-1.89,0-3.024,1.008-3.024,2.394s1.134,1.862,2.38,2.212c1.036.308,1.638.49,1.638,1.036,0,.5-.49.826-1.358.826a3.907,3.907,0,0,1-2.632-1.008V-.588A4.687,4.687,0,0,0,51.268.2c1.988,0,3.15-.966,3.15-2.45,0-1.6-1.344-2.016-2.576-2.338C50.9-4.844,50.4-5.04,50.4-5.53c0-.462.434-.756,1.218-.756a4.124,4.124,0,0,1,2.324.714V-7.266A4.628,4.628,0,0,0,51.548-7.882ZM59.262.2A3.155,3.155,0,0,0,62.678-3.08V-7.7H60.746v4.62a1.364,1.364,0,0,1-1.484,1.512,1.335,1.335,0,0,1-1.442-1.5V-7.7H55.888v4.634A3.117,3.117,0,0,0,59.262.2ZM72.814-7.882A2.49,2.49,0,0,0,70.6-6.566a2.191,2.191,0,0,0-2.156-1.316,2.342,2.342,0,0,0-2.1,1.274H66.3L66.094-7.7H64.6V0h1.932V-4.7A1.288,1.288,0,0,1,67.8-6.118c.84,0,1.176.462,1.176,1.386V0H70.91V-4.788a1.241,1.241,0,0,1,1.274-1.33c.826,0,1.162.462,1.162,1.386V0h1.932V-5.11C75.278-6.776,74.494-7.882,72.814-7.882ZM77.238,2.94H79.17V-1.19A2.972,2.972,0,0,0,81.676.2c1.806,0,3.43-1.582,3.43-4.046S83.44-7.882,81.634-7.882A2.963,2.963,0,0,0,79.058-6.44l-.2-1.26H77.238ZM81.13-1.568A2.086,2.086,0,0,1,79.142-3.85a2.088,2.088,0,0,1,2-2.282A2.085,2.085,0,0,1,83.16-3.864,2.1,2.1,0,0,1,81.13-1.568Zm7.784-7.924H87.052V-7.7H85.918v1.61h1.12v3.206A2.769,2.769,0,0,0,90.048.154,4.956,4.956,0,0,0,91.154.042V-1.61a4.073,4.073,0,0,1-.686.07c-.9,0-1.554-.406-1.554-1.442V-6.09h2.1V-7.7h-2.1Zm4.62.5a1.058,1.058,0,0,0,1.078-1.064,1.07,1.07,0,0,0-1.078-1.078,1.073,1.073,0,0,0-1.092,1.078A1.061,1.061,0,0,0,93.534-8.988ZM92.568,0H94.5V-7.7H92.568Zm7.5.2a3.893,3.893,0,0,0,3.962-4.046,3.873,3.873,0,0,0-3.962-4.032A3.893,3.893,0,0,0,96.1-3.85,3.9,3.9,0,0,0,100.072.2Zm0-1.764a2.1,2.1,0,0,1-2.03-2.282,2.1,2.1,0,0,1,2.03-2.282,2.09,2.09,0,0,1,2.016,2.282A2.1,2.1,0,0,1,100.072-1.568Zm9.618-6.314a2.716,2.716,0,0,0-2.324,1.288h-.042l-.21-1.106h-1.5V0h1.932V-4.606a1.467,1.467,0,0,1,1.526-1.512c.924,0,1.4.5,1.4,1.568V0h1.932V-5.138A2.53,2.53,0,0,0,109.69-7.882Zm7.392,0c-1.89,0-3.024,1.008-3.024,2.394s1.134,1.862,2.38,2.212c1.036.308,1.638.49,1.638,1.036,0,.5-.49.826-1.358.826a3.907,3.907,0,0,1-2.632-1.008V-.588A4.688,4.688,0,0,0,116.8.2c1.988,0,3.15-.966,3.15-2.45,0-1.6-1.344-2.016-2.576-2.338-.938-.252-1.442-.448-1.442-.938,0-.462.434-.756,1.218-.756a4.124,4.124,0,0,1,2.324.714V-7.266A4.628,4.628,0,0,0,117.082-7.882Z" transform="translate(32 199)" fill="#00a7b5"/><path d="M4.13-10.43h-2.9V0h2.9C7.476,0,9.772-2.072,9.772-5.222S7.518-10.43,4.13-10.43ZM3.192-8.638H4.228A3.242,3.242,0,0,1,7.77-5.208a3.24,3.24,0,0,1-3.556,3.4H3.192Zm9.212-.35a1.058,1.058,0,0,0,1.078-1.064A1.07,1.07,0,0,0,12.4-11.13a1.073,1.073,0,0,0-1.092,1.078A1.061,1.061,0,0,0,12.4-8.988ZM11.438,0H13.37V-7.7H11.438ZM18.13-7.882c-1.89,0-3.024,1.008-3.024,2.394s1.134,1.862,2.38,2.212c1.036.308,1.638.49,1.638,1.036,0,.5-.49.826-1.358.826a3.907,3.907,0,0,1-2.632-1.008V-.588A4.687,4.687,0,0,0,17.85.2C19.838.2,21-.77,21-2.254c0-1.6-1.344-2.016-2.576-2.338-.938-.252-1.442-.448-1.442-.938,0-.462.434-.756,1.218-.756a4.124,4.124,0,0,1,2.324.714V-7.266A4.628,4.628,0,0,0,18.13-7.882ZM24.066-3.85a2.213,2.213,0,0,1,2.282-2.282,3.352,3.352,0,0,1,1.988.6V-7.35a4.437,4.437,0,0,0-2.226-.532,3.909,3.909,0,0,0-3.99,4.018A3.919,3.919,0,0,0,26.11.2,4.716,4.716,0,0,0,28.336-.35V-2.156a3.324,3.324,0,0,1-1.974.588A2.208,2.208,0,0,1,24.066-3.85ZM30.044,0h1.932V-11.228H30.044Zm6.972.2a2.987,2.987,0,0,0,2.6-1.456l.2,1.26H41.44V-7.7H39.816l-.2,1.26a2.976,2.976,0,0,0-2.6-1.442c-1.75,0-3.444,1.6-3.444,4.046A3.75,3.75,0,0,0,37.016.2Zm.532-1.764a2.1,2.1,0,0,1-2.03-2.282,2.1,2.1,0,0,1,2.03-2.282A2.077,2.077,0,0,1,39.536-3.85,2.077,2.077,0,0,1,37.548-1.568Zm6.9-7.42a1.058,1.058,0,0,0,1.078-1.064A1.07,1.07,0,0,0,44.45-11.13a1.073,1.073,0,0,0-1.092,1.078A1.061,1.061,0,0,0,44.45-8.988ZM43.484,0h1.932V-7.7H43.484Zm12.18-7.882a2.49,2.49,0,0,0-2.212,1.316A2.191,2.191,0,0,0,51.3-7.882a2.342,2.342,0,0,0-2.1,1.274h-.042L48.944-7.7h-1.5V0h1.932V-4.7a1.288,1.288,0,0,1,1.274-1.414c.84,0,1.176.462,1.176,1.386V0H53.76V-4.788a1.241,1.241,0,0,1,1.274-1.33c.826,0,1.162.462,1.162,1.386V0h1.932V-5.11C58.128-6.776,57.344-7.882,55.664-7.882Zm11.3,3.892c0-2.548-1.568-3.892-3.486-3.892a3.819,3.819,0,0,0-3.822,4.06A3.838,3.838,0,0,0,63.812.2,5,5,0,0,0,66.486-.56V-2.212a4.277,4.277,0,0,1-2.45.84A2.414,2.414,0,0,1,61.5-3.29h5.4A5.067,5.067,0,0,0,66.962-3.99Zm-5.474-.518a2.056,2.056,0,0,1,1.974-1.82,1.659,1.659,0,0,1,1.652,1.82ZM68.53,0h1.932V-3.962a1.807,1.807,0,0,1,1.9-2.016,3.057,3.057,0,0,1,.616.056V-7.728a2.3,2.3,0,0,0-.56-.056,2.4,2.4,0,0,0-2.128,1.26h-.028L70.07-7.7H68.53Z" transform="translate(208 199)" fill="#00a7b5"/><path d="M6274,1336l4,4-4,4" transform="translate(-5982 -1146)" fill="none" stroke="#00a7b5" stroke-linecap="square" stroke-width="2"/><path d="M6274,1336l4,4-4,4" transform="translate(-6114 -1146)" fill="none" stroke="#00a7b5" stroke-linecap="square" stroke-width="2"/><g transform="matrix(1, 0, 0, 1, 0, 0)" filter="url(#d)"><rect width="152" height="128" rx="8" transform="translate(32 296)" fill="#fff"/></g><g transform="matrix(1, 0, 0, 1, 0, 0)" filter="url(#f)"><rect width="152" height="128" rx="8" transform="translate(192 296)" fill="#fff"/></g><path d="M5.484-4.62A2.008,2.008,0,0,0,6.84-6.612c0-1.32-1-2.316-2.9-2.316H1.224V0H4.08C6.12,0,7.128-1.116,7.128-2.46A2.153,2.153,0,0,0,5.484-4.62ZM2.328-7.92H4.02c1.068,0,1.716.528,1.716,1.416,0,.852-.636,1.488-1.8,1.488H2.328ZM4.056-1.008H2.328V-4.092H4.116c1.092,0,1.9.552,1.9,1.536C6.012-1.656,5.328-1.008,4.056-1.008ZM11.328.144a2.61,2.61,0,0,0,2.316-1.332L13.776,0h.9V-6.492h-.9l-.132,1.2a2.621,2.621,0,0,0-2.316-1.344,3.141,3.141,0,0,0-2.952,3.4A3.144,3.144,0,0,0,11.328.144Zm.228-1.032A2.151,2.151,0,0,1,9.492-3.24,2.155,2.155,0,0,1,11.556-5.6a2.157,2.157,0,0,1,2.052,2.352A2.161,2.161,0,0,1,11.556-.888ZM16.716,0h1.1V-9.6h-1.1Zm5.676.144a2.61,2.61,0,0,0,2.316-1.332L24.84,0h.9V-6.492h-.9l-.132,1.2a2.621,2.621,0,0,0-2.316-1.344,3.141,3.141,0,0,0-2.952,3.4A3.144,3.144,0,0,0,22.392.144ZM22.62-.888A2.151,2.151,0,0,1,20.556-3.24,2.155,2.155,0,0,1,22.62-5.6a2.157,2.157,0,0,1,2.052,2.352A2.161,2.161,0,0,1,22.62-.888Zm8.136-5.748a2.342,2.342,0,0,0-1.992,1.128h-.036l-.12-.984h-.852V0h1.1V-3.96a1.57,1.57,0,0,1,1.62-1.62c.972,0,1.488.54,1.488,1.68V0h1.1V-4.3A2.18,2.18,0,0,0,30.756-6.636Zm4.956,3.384A2.239,2.239,0,0,1,37.932-5.6a2.74,2.74,0,0,1,1.74.552V-6.18a3.325,3.325,0,0,0-1.8-.456A3.261,3.261,0,0,0,34.6-3.252a3.257,3.257,0,0,0,3.276,3.4,3.6,3.6,0,0,0,1.8-.444V-1.416a2.778,2.778,0,0,1-1.728.528A2.238,2.238,0,0,1,35.712-3.252Zm11-.12c0-2.136-1.26-3.264-2.8-3.264a3.188,3.188,0,0,0-3.132,3.42A3.125,3.125,0,0,0,44.076.144a3.782,3.782,0,0,0,2.268-.72V-1.668a3.354,3.354,0,0,1-2.184.852A2.213,2.213,0,0,1,41.868-2.88H46.68A2.947,2.947,0,0,0,46.716-3.372Zm-4.848-.336a2.108,2.108,0,0,1,2.04-1.968,1.769,1.769,0,0,1,1.74,1.968Z" transform="translate(48 405)"/><path d="M1.224,0H2.34V-8.928H1.224ZM7.572-6.636A2.342,2.342,0,0,0,5.58-5.508H5.544l-.12-.984H4.572V0h1.1V-3.96A1.57,1.57,0,0,1,7.3-5.58c.972,0,1.488.54,1.488,1.68V0h1.1V-4.3A2.18,2.18,0,0,0,7.572-6.636Zm4.956,3.384A2.239,2.239,0,0,1,14.748-5.6a2.74,2.74,0,0,1,1.74.552V-6.18a3.325,3.325,0,0,0-1.8-.456,3.261,3.261,0,0,0-3.276,3.384,3.257,3.257,0,0,0,3.276,3.4,3.6,3.6,0,0,0,1.8-.444V-1.416a2.778,2.778,0,0,1-1.728.528A2.238,2.238,0,0,1,12.528-3.252Zm8.3,3.4A3.22,3.22,0,0,0,24.048-3.24a3.224,3.224,0,0,0-3.216-3.4,3.236,3.236,0,0,0-3.24,3.4A3.225,3.225,0,0,0,20.832.144Zm0-1.032A2.174,2.174,0,0,1,18.708-3.24,2.185,2.185,0,0,1,20.832-5.6,2.183,2.183,0,0,1,22.944-3.24,2.179,2.179,0,0,1,20.832-.888ZM32.076-6.636A2.076,2.076,0,0,0,30.2-5.5a1.79,1.79,0,0,0-1.8-1.14,1.938,1.938,0,0,0-1.74,1.1h-.036l-.12-.96h-.852V0h1.1V-4.092A1.369,1.369,0,0,1,28.1-5.58c.864,0,1.236.492,1.236,1.428V0h1.1V-4.152A1.348,1.348,0,0,1,31.8-5.58c.864,0,1.224.492,1.224,1.428V0h1.1V-4.332C34.128-5.688,33.492-6.636,32.076-6.636ZM41.6-3.372c0-2.136-1.26-3.264-2.8-3.264a3.188,3.188,0,0,0-3.132,3.42A3.125,3.125,0,0,0,38.964.144a3.782,3.782,0,0,0,2.268-.72V-1.668a3.354,3.354,0,0,1-2.184.852A2.213,2.213,0,0,1,36.756-2.88h4.812A2.947,2.947,0,0,0,41.6-3.372Zm-4.848-.336A2.108,2.108,0,0,1,38.8-5.676a1.769,1.769,0,0,1,1.74,1.968Zm12.672-5.22H48.2A7.622,7.622,0,0,0,46.092-3.7,7.607,7.607,0,0,0,48.2,1.548h1.224A7.323,7.323,0,0,1,47.148-3.7,7.269,7.269,0,0,1,49.428-8.928ZM50.844,0h1.1V-5.532h1.86v-.96H51.936V-7.32c0-.912.444-1.308,1.248-1.308a2.787,2.787,0,0,1,.948.168V-9.48a3.574,3.574,0,0,0-1.08-.18,2.1,2.1,0,0,0-2.208,2.2v.972h-.936v.96h.936Zm6.792.144A3.22,3.22,0,0,0,60.852-3.24a3.224,3.224,0,0,0-3.216-3.4,3.236,3.236,0,0,0-3.24,3.4A3.225,3.225,0,0,0,57.636.144Zm0-1.032A2.174,2.174,0,0,1,55.512-3.24,2.185,2.185,0,0,1,57.636-5.6,2.183,2.183,0,0,1,59.748-3.24,2.179,2.179,0,0,1,57.636-.888ZM62.46,0h1.1V-3.7A1.682,1.682,0,0,1,65.3-5.52a2.793,2.793,0,0,1,.456.048V-6.528a2.325,2.325,0,0,0-.432-.036,2.1,2.1,0,0,0-1.86,1.1h-.012l-.12-1.032H62.46Zm5.868-8.016H67.272v1.524h-1v.96h.972v3.264A2.148,2.148,0,0,0,69.564.084a4.067,4.067,0,0,0,.768-.072v-.96a3.357,3.357,0,0,1-.576.06,1.289,1.289,0,0,1-1.428-1.428V-5.532h1.86v-.96h-1.86Zm6.324,1.38A2.342,2.342,0,0,0,72.66-5.508h-.036l-.12-.984h-.852V0h1.1V-3.96a1.57,1.57,0,0,1,1.62-1.62c.972,0,1.488.54,1.488,1.68V0h1.1V-4.3A2.18,2.18,0,0,0,74.652-6.636ZM79.488-7.98a.659.659,0,0,0,.684-.672.659.659,0,0,0-.684-.672.659.659,0,0,0-.684.672A.659.659,0,0,0,79.488-7.98ZM78.936,0h1.1V-6.492h-1.1Zm5.676-6.624A3.107,3.107,0,0,0,81.66-3.36,3.08,3.08,0,0,0,84.612-.108a2.644,2.644,0,0,0,2.232-1.224v.984a2.005,2.005,0,0,1-2.136,1.98,3.543,3.543,0,0,1-2.376-.96V1.86a4.108,4.108,0,0,0,2.424.8A3.032,3.032,0,0,0,87.948-.528V-6.492h-.9l-.132,1.128A2.663,2.663,0,0,0,84.612-6.624Zm.216,1.02A2.083,2.083,0,0,1,86.88-3.4a2.133,2.133,0,0,1-2.052,2.28,2.112,2.112,0,0,1-2.052-2.232A2.119,2.119,0,0,1,84.828-5.6Zm6.24-4h-1.1V0h1.1V-4.02A1.5,1.5,0,0,1,92.688-5.6c1,0,1.488.552,1.488,1.692V0h1.1V-4.3a2.14,2.14,0,0,0-2.34-2.34,2.234,2.234,0,0,0-1.86.924h-.012Zm7.476,1.584H97.488v1.524h-1v.96h.972v3.264A2.148,2.148,0,0,0,99.78.084a4.067,4.067,0,0,0,.768-.072v-.96a3.357,3.357,0,0,1-.576.06,1.289,1.289,0,0,1-1.428-1.428V-5.532h1.86v-.96h-1.86ZM101.892,0H103V-9.6h-1.1Zm8.364-6.492H109.1l-1.788,4.944h-.024L105.5-6.492h-1.2l2.424,6.264L105.612,2.52h1.128Zm-.024-2.436a7.269,7.269,0,0,1,2.28,5.232,7.323,7.323,0,0,1-2.28,5.244h1.224A7.607,7.607,0,0,0,113.568-3.7a7.622,7.622,0,0,0-2.112-5.232Z" transform="translate(208 405)"/><path d="M12.936-5.376c0-3.288-2.472-4.392-4.92-5.232-1.536-.528-2.76-1.032-2.76-2.112,0-.912.912-1.656,2.448-1.656a7.449,7.449,0,0,1,4.2,1.416v-3.768a9.541,9.541,0,0,0-3.36-1.032v-1.776H5.424v1.968a5.052,5.052,0,0,0-4.1,4.848c0,3.168,2.376,4.272,4.8,5.112,1.656.552,2.856,1.08,2.856,2.256s-1.152,1.92-2.832,1.92A6.941,6.941,0,0,1,1.368-5.448v4.032A9.707,9.707,0,0,0,5.424-.048V1.728h3.12V-.216A5.383,5.383,0,0,0,12.936-5.376ZM14.544,0h13.1V-3.5H21.576C24.84-7.032,26.9-9.648,26.9-12.288c0-3.528-2.52-6.024-6.384-6.024a7.87,7.87,0,0,0-4.968,1.7V-12.7a5.891,5.891,0,0,1,4.272-2.016,2.835,2.835,0,0,1,3.048,2.832C22.872-10.08,22.176-8.856,14.544,0ZM36.456-18.312a6.537,6.537,0,0,0-6.84,6.528A5.9,5.9,0,0,0,35.664-5.9h.168L31.128,0H35.76l4.8-5.928A9.33,9.33,0,0,0,43.224-11.9,6.4,6.4,0,0,0,36.456-18.312Zm1.9,9.264a4.531,4.531,0,0,1-1.68.312,3.039,3.039,0,0,1-3.192-3.1,2.981,2.981,0,0,1,3-3.048,2.947,2.947,0,0,1,2.976,3.048A4.4,4.4,0,0,1,38.352-9.048Zm21.336,2.04H56.832V-17.9H53.448L44.736-6.1V-3.84h8.472V0h3.624V-3.84h2.856Zm-10.944,0v-.024l4.464-6.12v6.144ZM61.032,3.216h2.736a16.433,16.433,0,0,0,1.656-6.288V-4.1H61.992v1.32A21.092,21.092,0,0,1,61.032,3.216Zm13.92-21.528c-4.08,0-7.32,3.6-7.32,9.384,0,5.736,3.24,9.336,7.32,9.336,4.056,0,7.344-3.6,7.344-9.336C82.3-14.712,79.008-18.312,74.952-18.312Zm0,3.6c1.92,0,3.528,2.112,3.528,5.784,0,3.624-1.608,5.736-3.528,5.736S71.52-5.3,71.52-8.928C71.52-12.6,73.032-14.712,74.952-14.712Zm17.112-3.6c-4.08,0-7.32,3.6-7.32,9.384,0,5.736,3.24,9.336,7.32,9.336,4.056,0,7.344-3.6,7.344-9.336C99.408-14.712,96.12-18.312,92.064-18.312Zm0,3.6c1.92,0,3.528,2.112,3.528,5.784,0,3.624-1.608,5.736-3.528,5.736S88.632-5.3,88.632-8.928C88.632-12.6,90.144-14.712,92.064-14.712Zm17.112-3.6c-4.08,0-7.32,3.6-7.32,9.384,0,5.736,3.24,9.336,7.32,9.336,4.056,0,7.344-3.6,7.344-9.336C116.52-14.712,113.232-18.312,109.176-18.312Zm0,3.6c1.92,0,3.528,2.112,3.528,5.784,0,3.624-1.608,5.736-3.528,5.736s-3.432-2.112-3.432-5.736C105.744-12.6,107.256-14.712,109.176-14.712Z" transform="translate(48 377)"/><path d="M12.936-5.376c0-3.288-2.472-4.392-4.92-5.232-1.536-.528-2.76-1.032-2.76-2.112,0-.912.912-1.656,2.448-1.656a7.449,7.449,0,0,1,4.2,1.416v-3.768a9.541,9.541,0,0,0-3.36-1.032v-1.776H5.424v1.968a5.052,5.052,0,0,0-4.1,4.848c0,3.168,2.376,4.272,4.8,5.112,1.656.552,2.856,1.08,2.856,2.256s-1.152,1.92-2.832,1.92A6.941,6.941,0,0,1,1.368-5.448v4.032A9.707,9.707,0,0,0,5.424-.048V1.728h3.12V-.216A5.383,5.383,0,0,0,12.936-5.376ZM15.6-16.728V-13.2a6.045,6.045,0,0,1,4.224-1.656c1.92,0,2.928.936,2.928,2.112,0,1.224-1.032,2.16-3.336,2.16H17.568v2.976h2.256c2.232,0,3.36.936,3.36,2.232,0,1.392-1.392,2.3-3.336,2.3A6.222,6.222,0,0,1,15.24-5.064v3.816A8.507,8.507,0,0,0,20.472.408c4.32,0,6.648-2.616,6.648-5.352A4.572,4.572,0,0,0,24.1-9.288V-9.36a4.369,4.369,0,0,0,2.472-4.008c0-2.616-2.112-4.944-6.024-4.944A7.9,7.9,0,0,0,15.6-16.728ZM28.872,3.216h2.736a16.433,16.433,0,0,0,1.656-6.288V-4.1H29.832v1.32A21.092,21.092,0,0,1,28.872,3.216Zm18.1-21.12h-8.88l-1.44,9.72.6.408a7.024,7.024,0,0,1,2.976-.648c2.4,0,3.576,1.176,3.576,2.64,0,1.44-1.152,2.568-3.24,2.568a6.686,6.686,0,0,1-4.608-1.872V-1.08A8.518,8.518,0,0,0,40.968.408c4.632,0,6.888-3.12,6.888-6.216,0-2.928-2.16-5.592-6.144-5.592a6.237,6.237,0,0,0-1.488.192l.576-3.168h6.168Zm10.56-.408c-4.08,0-7.32,3.6-7.32,9.384,0,5.736,3.24,9.336,7.32,9.336,4.056,0,7.344-3.6,7.344-9.336C64.872-14.712,61.584-18.312,57.528-18.312Zm0,3.6c1.92,0,3.528,2.112,3.528,5.784,0,3.624-1.608,5.736-3.528,5.736S54.1-5.3,54.1-8.928C54.1-12.6,55.608-14.712,57.528-14.712Zm17.112-3.6c-4.08,0-7.32,3.6-7.32,9.384,0,5.736,3.24,9.336,7.32,9.336,4.056,0,7.344-3.6,7.344-9.336C81.984-14.712,78.7-18.312,74.64-18.312Zm0,3.6c1.92,0,3.528,2.112,3.528,5.784,0,3.624-1.608,5.736-3.528,5.736S71.208-5.3,71.208-8.928C71.208-12.6,72.72-14.712,74.64-14.712Z" transform="translate(208 377)"/><path d="M25.389,17.933h-.631a7.574,7.574,0,0,0-2.45-3.137,11.6,11.6,0,0,1,1.086-1.461.6.6,0,0,0-.429-.982,9.7,9.7,0,0,0-3.915.718,13.38,13.38,0,0,0-4.344-.718A11.991,11.991,0,0,0,6.169,15.61L4.7,14.748a1.439,1.439,0,0,0-1.92.431A1.283,1.283,0,0,0,3.239,17l1.44.838a5.854,5.854,0,0,0-.455,2.3,6.732,6.732,0,0,0,2.652,5.149l1.313,4.478A.836.836,0,0,0,9,30.338H12.1a.8.8,0,0,0,.808-1.006l-.48-1.628a13.431,13.431,0,0,0,4.521,0l.606,2.036a.836.836,0,0,0,.808.575h3.107a.8.8,0,0,0,.808-1.006l-.934-3.185a8.116,8.116,0,0,0,3.41-3.76h.657a1.146,1.146,0,0,0,1.162-1.1V18.987A1.183,1.183,0,0,0,25.389,17.933ZM15.943,15.9a8.119,8.119,0,0,0-2.021-.1,7.772,7.772,0,0,0-2.93.814.813.813,0,0,1-.328.072.687.687,0,0,1-.606-.335.658.658,0,0,1,.278-.91,8.961,8.961,0,0,1,3.485-.982,9.762,9.762,0,0,1,2.374.1.657.657,0,0,1,.556.766A.674.674,0,0,1,15.943,15.9Zm5,2.682A1.007,1.007,0,1,1,22,17.574,1.041,1.041,0,0,1,20.944,18.579Z" transform="translate(45.424 300.662)" fill="#00a7b5"/><g transform="translate(62 217.989)"><g transform="translate(146 94.011)"><path d="M164,108.011h-7.522l-2.285-2,2.285-2H164Zm-5.483-11.73.865,1.73h-5.189ZM164,102.01v-2a2,2,0,0,0-2-2h-.382l-1.723-3.447a1,1,0,0,0-1.267-.482l-9.821,3.929H148a2,2,0,0,0-2,2v12a2,2,0,0,0,2,2h14a2,2,0,0,0,2-2v-2h1a1,1,0,0,0,1-1v-6a1,1,0,0,0-1-1Z" transform="translate(-146 -94.011)" fill="#00a7b5" fill-rule="evenodd"/><rect width="2" height="1.714" rx="0.857" transform="translate(10.857 11.14)" fill="#00a7b5"/></g></g></g></svg>