<svg xmlns="http://www.w3.org/2000/svg" xmlns:xlink="http://www.w3.org/1999/xlink" width="375" height="916" viewBox="0 0 375 916"><defs><linearGradient id="a" x1="0.5" x2="0.5" y2="1" gradientUnits="objectBoundingBox"><stop offset="0" stop-color="#f8f8fc"/><stop offset="1" stop-color="#e1e2e8"/></linearGradient><filter id="b" x="8" y="92.001" width="80" height="80" filterUnits="userSpaceOnUse"><feOffset dy="4" input="SourceAlpha"/><feGaussianBlur stdDeviation="8" result="c"/><feFlood flood-opacity="0.122"/><feComposite operator="in" in2="c"/><feComposite in="SourceGraphic"/></filter><clipPath id="d"><circle cx="16" cy="16" r="16" transform="translate(0 0.001)" fill="#9bcbeb"/></clipPath><linearGradient id="e" x1="-2.152" y1="0.467" x2="1.172" y2="0.515" gradientUnits="objectBoundingBox"><stop offset="0.01"/><stop offset="1" stop-opacity="0"/></linearGradient><linearGradient id="f" x1="-1.499" y1="1.742" x2="1.059" y2="0.131" xlink:href="#e"/><linearGradient id="g" x1="0.337" y1="-1.05" x2="0.603" y2="1.481" xlink:href="#e"/><linearGradient id="h" x1="0.815" y1="0.239" x2="0.092" y2="0.732" gradientUnits="objectBoundingBox"><stop offset="0.02" stop-color="#fff" stop-opacity="0"/><stop offset="0.58" stop-color="#fff" stop-opacity="0.388"/><stop offset="1" stop-color="#fff"/></linearGradient><linearGradient id="i" x1="-0.26" y1="0.481" x2="1.302" y2="0.521" xlink:href="#h"/><linearGradient id="j" x1="0.538" y1="-0.383" x2="0.467" y2="1.403" xlink:href="#e"/><linearGradient id="k" x1="0.256" y1="-0.276" x2="0.721" y2="1.203" xlink:href="#e"/><linearGradient id="l" x1="0.253" y1="0.258" x2="0.455" y2="0.476" xlink:href="#e"/><linearGradient id="m" x1="0.413" y1="0.486" x2="1.01" y2="0.583" xlink:href="#e"/><linearGradient id="n" x1="0.014" y1="0.352" x2="0.779" y2="0.604" xlink:href="#e"/><linearGradient id="o" x1="0.555" y1="1.165" x2="0.461" y2="-0.341" xlink:href="#e"/><linearGradient id="p" x1="0.635" y1="0.055" x2="0.348" y2="0.907" gradientUnits="objectBoundingBox"><stop offset="0.02" stop-color="#fff" stop-opacity="0"/><stop offset="0.58" stop-color="#fff" stop-opacity="0.388"/><stop offset="0.68" stop-color="#fff" stop-opacity="0.678"/><stop offset="1" stop-color="#fff"/></linearGradient><linearGradient id="q" x1="0.185" y1="-0.258" x2="0.961" y2="1.606" xlink:href="#e"/><linearGradient id="r" x1="0.581" y1="1.071" x2="0.387" y2="-0.139" gradientUnits="objectBoundingBox"><stop offset="0" stop-color="#e1e2e8"/><stop offset="1" stop-color="#f8f8fc"/></linearGradient><filter id="s" x="22.9" y="593.208" width="326.892" height="160.892" filterUnits="userSpaceOnUse"><feOffset dy="3" input="SourceAlpha"/><feGaussianBlur stdDeviation="3" result="t"/><feFlood flood-color="#00a7b5" flood-opacity="0.102"/><feComposite operator="in" in2="t"/><feComposite in="SourceGraphic"/></filter><filter id="u" x="20" y="334" width="176" height="152" filterUnits="userSpaceOnUse"><feOffset dy="2" input="SourceAlpha"/><feGaussianBlur stdDeviation="4" result="v"/><feFlood flood-opacity="0.031"/><feComposite operator="in" in2="v"/><feComposite in="SourceGraphic"/></filter><filter id="w" x="180" y="334" width="176" height="152" filterUnits="userSpaceOnUse"><feOffset dy="2" input="SourceAlpha"/><feGaussianBlur stdDeviation="4" result="x"/><feFlood flood-opacity="0.031"/><feComposite operator="in" in2="x"/><feComposite in="SourceGraphic"/></filter><clipPath id="z"><rect width="375" height="916"/></clipPath></defs><g id="y" clip-path="url(#z)"><rect width="375" height="916" fill="#fff"/><text transform="translate(32 49)" font-size="20" font-family="HeroNew-ExtraBold, Hero New" font-weight="800" letter-spacing="0.1em"><tspan x="0" y="0">PROJECTION</tspan></text><g transform="translate(0 -335.999)"><path d="M-1022.171-530H-1056l8-7.568V-674a16,16,0,0,1,16-16h256a16,16,0,0,1,16,16v128a16,16,0,0,1-16,16Z" transform="translate(1104 1121.999)" fill="url(#a)"/><g transform="translate(-8 26.999)"><g transform="matrix(1, 0, 0, 1, 8, 309)" filter="url(#b)"><circle cx="16" cy="16" r="16" transform="translate(32 112)" fill="#9bcbeb"/></g><g transform="translate(40 421)" clip-path="url(#d)"><g transform="translate(1.337 4.284)"><path d="M187.825,265.873a1.527,1.527,0,0,1,.06,1.218,1.554,1.554,0,0,1-.529.5l-1.916,1.3a2.575,2.575,0,0,1-1.2.54.887.887,0,0,1-.98-.694c-.044-.51.49-.858.74-1.305a2.67,2.67,0,0,0-.024-1.962,35.924,35.924,0,0,1-.941-4.979c.393-.161,1.537-.882,1.944-.762.458.139.872,1.42,1.076,1.838A33.288,33.288,0,0,1,187.825,265.873Z" transform="translate(-163.941 -233.218)" fill="#f1af8c"/><path d="M199.424,206.471a20.24,20.24,0,0,0,1.822,4.1.2.2,0,0,1,.043.129.2.2,0,0,1-.078.108,5.6,5.6,0,0,1-2.72,1.584.333.333,0,0,1-.205-.018.339.339,0,0,1-.128-.176,12.056,12.056,0,0,1-.887-4.947,20.363,20.363,0,0,1,.2-2.516c.028-.2.043-1.1.219-1.208.268-.158.562.394.679.568A10.289,10.289,0,0,1,199.424,206.471Z" transform="translate(-179.215 -184.806)" fill="#fff"/><path d="M205.78,205.54s.626.235,1.136,2,1.726,6.037,1.726,6.037-1.881.94-2.352.587S205.78,205.54,205.78,205.54Z" transform="translate(-187.749 -186.566)" fill="url(#e)"/><path d="M213.956,192.407a10.077,10.077,0,0,0-3.048.3,5.05,5.05,0,0,0-2.57,1.6,5.54,5.54,0,0,0-1.1,3.163,20.789,20.789,0,0,0,.192,3.4,53.867,53.867,0,0,1,.211,7.962c-.031.636-.394,3.956.053,4.41.278.286-.278.572.118.666a24.005,24.005,0,0,0,12.11-.9,3.667,3.667,0,0,0,1.944-1.542c.417-.815-.708-4.046-.843-4.952q-.612-4.15-.883-8.344a27.268,27.268,0,0,0-.242-3.785c-.185-.882-.752-1.122-1.572-1.338A19.777,19.777,0,0,0,213.956,192.407Z" transform="translate(-201.262 -175.249)" fill="#fff"/><path d="M228.14,231.913a3.163,3.163,0,0,0,.632,1.574,2.716,2.716,0,0,0,1.086.664c1.93.728,4.13.614,5.98,1.527a1.29,1.29,0,0,1,.355.232,1.125,1.125,0,0,1-.026,1.388,4.165,4.165,0,0,1-2.956,1.349,25.5,25.5,0,0,1-7.993.33.733.733,0,0,1-.4-.151.719.719,0,0,1-.168-.375c-.6-2.663-.128-5.436-.117-8.165,0-1.574-.139-3.15-.032-4.721a9.579,9.579,0,0,1,.6-2.856c.246-.622.965-2,1.4-.721a30.831,30.831,0,0,1,1.13,6.321C227.769,229.515,227.913,230.72,228.14,231.913Z" transform="translate(-218.107 -200.28)" fill="url(#f)"/><path d="M245.981,170.381c.46-.074.718-.536.512-1.649-.022-.124-.051-.243-.085-.362a.3.3,0,0,0-.018-.067c-.05-.172-.107-.344-.162-.515a3.758,3.758,0,0,1-.242-1.281,2.3,2.3,0,0,0-.08-.945,1.547,1.547,0,0,0-.515-.623c-.5-.382-1.944-1.1-2.221-.151a4.333,4.333,0,0,0-.028,1.293,3.888,3.888,0,0,1-.319,1.734C242.52,168.421,244.852,170.562,245.981,170.381Z" transform="translate(-230.811 -151.065)" fill="#f1af8c"/><path d="M247.7,176.149s-2.56-.972-3.054-2.509l2.728.893S247.443,175.939,247.7,176.149Z" transform="translate(-232.209 -159.095)" fill="url(#g)"/><path d="M299.865,206.337a17.2,17.2,0,0,1-1.4,8.5.632.632,0,0,1-.171.257.694.694,0,0,1-.417.1,5.11,5.11,0,0,1-3.174-1.019,1.216,1.216,0,0,1-.562-.8,1.308,1.308,0,0,1,.1-.51,56.424,56.424,0,0,1,2.478-6.041,3.438,3.438,0,0,1,1.666-1.9C299.406,204.534,299.794,205.576,299.865,206.337Z" transform="translate(-291.31 -185.959)" fill="#fff"/><path d="M250.925,192.638a13.993,13.993,0,0,1-1.866-2.725,4.5,4.5,0,0,1-.725-1.865.372.372,0,0,1,.035-.224.4.4,0,0,1,.128-.118l1.043-.707a2.1,2.1,0,0,0,1,1.558c.555.394,2.145.826,1.8,1.644A17.094,17.094,0,0,1,250.925,192.638Z" transform="translate(-237.409 -170.6)" fill="#00629b"/><path d="M233.893,191.862a18.308,18.308,0,0,0,1.043,1.792,1.354,1.354,0,0,0,.555.555.153.153,0,0,0,.1.014c.061-.021.075-.1.079-.165a10.931,10.931,0,0,0-.16-3.193,2.945,2.945,0,0,0-.45-1.029,2.85,2.85,0,0,0-.927-.576c.056.171.112.343.162.515a.168.168,0,0,1,.017.051v.015c.033.119.062.239.085.362C234.607,191.326,234.349,191.788,233.893,191.862Z" transform="translate(-218.724 -172.546)" fill="#00629b"/><path d="M250.925,192.638a13.993,13.993,0,0,1-1.866-2.725,4.5,4.5,0,0,1-.725-1.865.372.372,0,0,1,.035-.224.4.4,0,0,1,.128-.118l1.043-.707a2.1,2.1,0,0,0,1,1.558c.555.394,2.145.826,1.8,1.644A17.094,17.094,0,0,1,250.925,192.638Z" transform="translate(-237.409 -170.6)" fill="url(#h)"/><path d="M233.893,191.862a18.308,18.308,0,0,0,1.043,1.792,1.354,1.354,0,0,0,.555.555.153.153,0,0,0,.1.014c.061-.021.075-.1.079-.165a10.931,10.931,0,0,0-.16-3.193,2.945,2.945,0,0,0-.45-1.029,2.85,2.85,0,0,0-.927-.576c.056.171.112.343.162.515a.168.168,0,0,1,.017.051v.015c.033.119.062.239.085.362C234.607,191.326,234.349,191.788,233.893,191.862Z" transform="translate(-218.724 -172.546)" fill="url(#i)"/><path d="M252.273,278.994l-6.081-1.162a2.19,2.19,0,0,1-1.019-.375,1.524,1.524,0,0,1-.471-1.362,4.474,4.474,0,0,1,.5-1.413,46.129,46.129,0,0,1,2.627-4.811,7.683,7.683,0,0,1,2.857.821,1.045,1.045,0,0,1,.386.36c.365.694-.633,1.708-.972,2.235a1.308,1.308,0,0,0-.253.576.95.95,0,0,0,.081.432c.329.808,1.5,1.279,2.221,1.694a7.48,7.48,0,0,0,3.093,1.039,18.274,18.274,0,0,1,2.548.153,3.65,3.65,0,0,1,2.392,1.866,2.21,2.21,0,0,1-1.706-.011,9.986,9.986,0,0,0-3.228-.26C254.543,278.835,252.606,279.648,252.273,278.994Z" transform="translate(-244.69 -241.958)" fill="#f1af8c"/><path d="M236.222,70.622a4.243,4.243,0,0,0-1.3-.584,1.608,1.608,0,0,0-1.429.319,2.974,2.974,0,0,1,2.123,1.12.207.207,0,0,0,.107.092.2.2,0,0,0,.112-.021c.192-.072,1.627.255,1.71.082C237.539,71.63,236.4,70.729,236.222,70.622Z" transform="translate(-220.498 -69.843)" fill="#00629b"/><path d="M236.222,70.622a4.243,4.243,0,0,0-1.3-.584,1.608,1.608,0,0,0-1.429.319,2.974,2.974,0,0,1,2.123,1.12.207.207,0,0,0,.107.092.2.2,0,0,0,.112-.021c.192-.072,1.627.255,1.71.082C237.539,71.63,236.4,70.729,236.222,70.622Z" transform="translate(-220.498 -69.843)" fill="url(#j)"/><ellipse cx="1.686" cy="2.077" rx="1.686" ry="2.077" transform="translate(17.142 7.213)" fill="#00629b"/><ellipse cx="1.559" cy="1.922" rx="1.559" ry="1.922" transform="translate(16.923 7.602)" fill="#00629b"/><ellipse cx="1.559" cy="1.922" rx="1.559" ry="1.922" transform="translate(16.923 7.602)" fill="url(#k)"/><path d="M227.637,96.19l-.39,7.138a2.873,2.873,0,0,1-2.843,2.72,4.345,4.345,0,0,1-4.671-3.252c-.487-1.419-.927-5.587,0-6.739S225.879,92.068,227.637,96.19Z" transform="translate(-208.606 -90.537)" fill="#f1af8c"/><path d="M216.858,78.716a3.56,3.56,0,0,1,3.268,1.752,2.055,2.055,0,0,1,.039,1.767.742.742,0,0,0-.108.561,1.47,1.47,0,0,1-.6,1.25,3.441,3.441,0,0,0-.665.467l.068-1.329a.278.278,0,0,0-.211-.33l-.846-.394s-.261.19-.293.205a1.063,1.063,0,0,1-.444.085,6.246,6.246,0,0,1-.991-.056,9.365,9.365,0,0,1-2.051-.619.933.933,0,0,0,.253.547l-2.156.417a5.859,5.859,0,0,0-.757,1.413,4.926,4.926,0,0,0-.292,1.223,4.42,4.42,0,0,0,.157,1.692,1.775,1.775,0,0,1-.38-.4,2.184,2.184,0,0,1-.639.3.278.278,0,0,1-.149.013c-.106-.029-.128-.154-.139-.254a11.378,11.378,0,0,0-1.058-2.507,3.771,3.771,0,0,1,.383-3.16,2.547,2.547,0,0,1,.671-.783c.993-.728,2.4-.394,3.536-.775.539-.18.972-.523,1.487-.75A5.343,5.343,0,0,1,216.858,78.716Z" transform="translate(-199.856 -77.349)" fill="#3f3d56"/><path d="M216.858,78.716a3.56,3.56,0,0,1,3.268,1.752,2.055,2.055,0,0,1,.039,1.767.742.742,0,0,0-.108.561,1.47,1.47,0,0,1-.6,1.25,3.441,3.441,0,0,0-.665.467l.068-1.329a.278.278,0,0,0-.211-.33l-.846-.394s-.261.19-.293.205a1.063,1.063,0,0,1-.444.085,6.246,6.246,0,0,1-.991-.056,9.365,9.365,0,0,1-2.051-.619.933.933,0,0,0,.253.547l-2.156.417a5.859,5.859,0,0,0-.757,1.413,4.926,4.926,0,0,0-.292,1.223,4.42,4.42,0,0,0,.157,1.692,1.775,1.775,0,0,1-.38-.4,2.184,2.184,0,0,1-.639.3.278.278,0,0,1-.149.013c-.106-.029-.128-.154-.139-.254a11.378,11.378,0,0,0-1.058-2.507,3.771,3.771,0,0,1,.383-3.16,2.547,2.547,0,0,1,.671-.783c.993-.728,2.4-.394,3.536-.775.539-.18.972-.523,1.487-.75A5.343,5.343,0,0,1,216.858,78.716Z" transform="translate(-199.856 -77.349)" fill="url(#l)"/><ellipse cx="1.667" cy="2.056" rx="1.667" ry="2.056" transform="translate(7.876 7.49)" fill="#00629b"/><ellipse cx="1.667" cy="2.056" rx="1.667" ry="2.056" transform="translate(7.876 7.49)" fill="url(#m)"/><ellipse cx="1.667" cy="2.056" rx="1.667" ry="2.056" transform="translate(7.238 7.49)" fill="#00629b"/><path d="M249.75,76.529l.833.089.2.021.833-4.1a4.766,4.766,0,0,1,2.821-3.352,1.5,1.5,0,0,1,.641-.076l.568.051-.278-.074-.555-.147a1.829,1.829,0,0,0-.533-.065,3.929,3.929,0,0,0-3.4,2.963Z" transform="translate(-240.857 -68.876)" fill="#00629b"/><path d="M249.75,76.529l.833.089.2.021.833-4.1a4.766,4.766,0,0,1,2.821-3.352,1.5,1.5,0,0,1,.641-.076l.568.051-.278-.074-.555-.147a1.829,1.829,0,0,0-.533-.065,3.929,3.929,0,0,0-3.4,2.963Z" transform="translate(-240.857 -68.876)" fill="url(#n)"/><path d="M251.75,76.529l.833.089.833-4.11a4.816,4.816,0,0,1,2.85-3.382,1.465,1.465,0,0,1,.648-.078l.453.04-.555-.147a1.828,1.828,0,0,0-.533-.065,3.929,3.929,0,0,0-3.4,2.963Z" transform="translate(-242.857 -68.876)" fill="#00629b"/><path d="M214.792,101.417a1.766,1.766,0,0,0-1.316-.862,5.241,5.241,0,0,0-1.624.075c.521.417,1.974,1.037,2,1.148a3.384,3.384,0,0,1,.007.591c-.019.286-.029.586-.028.872a2.222,2.222,0,0,1,.447-.339,1.111,1.111,0,0,0,.375-.24A1.154,1.154,0,0,0,214.792,101.417Z" transform="translate(-194.864 -96.124)" fill="url(#o)"/><path d="M251.868,152.128a6.47,6.47,0,0,0,1.847-.308.278.278,0,0,0-.16-.533c-1.43.43-2.506.373-3.193-.169a2.823,2.823,0,0,1-.875-2.148.278.278,0,1,0-.555-.028,3.368,3.368,0,0,0,1.087,2.614A2.9,2.9,0,0,0,251.868,152.128Z" transform="translate(-239.011 -137.598)" fill="#00629b"/><path d="M251.868,152.128a6.47,6.47,0,0,0,1.847-.308.278.278,0,0,0-.16-.533c-1.43.43-2.506.373-3.193-.169a2.823,2.823,0,0,1-.875-2.148.278.278,0,1,0-.555-.028,3.368,3.368,0,0,0,1.087,2.614A2.9,2.9,0,0,0,251.868,152.128Z" transform="translate(-239.011 -137.598)" fill="url(#p)"/><path d="M238.374,160.465a.736.736,0,0,0-.351.38.659.659,0,0,0,.311.616,1.162,1.162,0,0,0,.576.278,1.337,1.337,0,0,0,.875-.311,1.158,1.158,0,0,0,.364-.351.878.878,0,0,0-.48-1.152C239.214,159.729,238.731,160.23,238.374,160.465Z" transform="translate(-223.816 -147.245)" fill="#00629b"/><path d="M238.374,160.465a.736.736,0,0,0-.351.38.659.659,0,0,0,.311.616,1.162,1.162,0,0,0,.576.278,1.337,1.337,0,0,0,.875-.311,1.158,1.158,0,0,0,.364-.351.878.878,0,0,0-.48-1.152C239.214,159.729,238.731,160.23,238.374,160.465Z" transform="translate(-223.816 -147.245)" fill="url(#q)"/></g></g></g></g><text transform="translate(80 112.001)" font-size="15" font-family="HeroNew-Regular, Hero New"><tspan x="0" y="16">Let&apos;s see how much you could get </tspan><tspan x="0" y="41">from your super if you retire at </tspan><tspan x="0" y="66" font-family="HeroNew-SemiBold, Hero New" font-weight="600">age 67</tspan><tspan y="66">. Based on an estimated </tspan><tspan x="0" y="91">annual salary of </tspan><tspan y="91" font-family="HeroNew-SemiBold, Hero New" font-weight="600">$55,000</tspan><tspan y="91">.</tspan></text><text transform="translate(80 233)" fill="#00629b" font-size="14" font-family="HeroNew-SemiBold, Hero New" font-weight="600"><tspan x="0" y="0">Edit assumptions</tspan></text><path d="M6274,1336l4,4-4,4" transform="translate(-6066 -1112)" fill="none" stroke="#00629b" stroke-linecap="square" stroke-width="2"/><g transform="translate(0 288)"><rect width="375" height="628" fill="#fff"/><rect width="375" height="520" opacity="0.6" fill="url(#r)"/><g transform="translate(0 -36)"><rect width="312" height="1" transform="translate(32 512)"/><text transform="translate(32 529)" font-size="10" font-family="HeroNew-Regular, Hero New"><tspan x="0" y="0">2019</tspan></text><text transform="translate(344 529)" font-size="10" font-family="HeroNew-Regular, Hero New"><tspan x="-25.78" y="0">2044</tspan></text><path d="M2587,2673.225s81.31-2.784,175.1-31.146,128.9-60.854,128.9-60.854" transform="translate(-2553 -2185.225)" fill="none" stroke="#5b6770" stroke-linecap="round" stroke-linejoin="round" stroke-width="4" opacity="0.2"/><g transform="matrix(1, 0, 0, 1, 0, -252)" filter="url(#s)"><path d="M2587,2719.225s81.31-4.176,175.1-46.719,128.9-91.281,128.9-91.281" transform="translate(-2553 -1979.23)" fill="none" stroke="#00a7b5" stroke-linecap="round" stroke-linejoin="round" stroke-width="4"/></g><g transform="translate(0 92)"><circle cx="12" cy="12" r="12" transform="translate(326 246)" fill="#00a7b5" opacity="0.2"/><circle cx="6" cy="6" r="6" transform="translate(332 252)" fill="#00a7b5"/></g></g><text transform="translate(32 229)" font-size="12" font-family="HeroNew-Bold, Hero New" font-weight="700"><tspan x="0" y="0">See the impact of extra regular top-ups:</tspan></text><text transform="translate(32 37)" font-size="12" font-family="HeroNew-Bold, Hero New" font-weight="700"><tspan x="0" y="0">Estimated result</tspan></text><text transform="translate(48 269)" fill="#5b6770" font-size="12" font-family="HeroNew-Bold, Hero New" font-weight="700" opacity="0.8"><tspan x="-16.188" y="0">None</tspan></text><text transform="translate(100 269)" fill="#00a7b5" font-size="12" font-family="HeroNew-Bold, Hero New" font-weight="700"><tspan x="-19.854" y="0">$20/w</tspan></text><text transform="translate(156 269)" fill="#5b6770" font-size="12" font-family="HeroNew-Bold, Hero New" font-weight="700" opacity="0.8"><tspan x="-19.698" y="0">$50/w</tspan></text><text transform="translate(215 269)" fill="#5b6770" font-size="12" font-family="HeroNew-Bold, Hero New" font-weight="700" opacity="0.8"><tspan x="-23.262" y="0">$100/w</tspan></text><rect width="208" height="1" transform="translate(32 283)" fill="#5b6770" opacity="0.2"/><rect width="40" height="1" transform="translate(80 283)" fill="#00a7b5"/><g transform="matrix(1, 0, 0, 1, 0, -288)" filter="url(#u)"><rect width="152" height="128" rx="8" transform="translate(32 344)" fill="#fff"/></g><g transform="matrix(1, 0, 0, 1, 0, -288)" filter="url(#w)"><rect width="152" height="128" rx="8" transform="translate(192 344)" fill="#fff"/></g><text transform="translate(48 165)" font-size="12" font-family="HeroNew-Regular, Hero New"><tspan x="0" y="0">Balance</tspan></text><text transform="translate(208 165)" font-size="12" font-family="HeroNew-Regular, Hero New"><tspan x="0" y="0">Income (fortnightly)</tspan></text><text transform="translate(48 137)" font-size="24" font-family="HeroNew-Bold, Hero New" font-weight="700"><tspan x="0" y="0">$294,000</tspan></text><text transform="translate(208 137)" font-size="24" font-family="HeroNew-Bold, Hero New" font-weight="700"><tspan x="0" y="0">$3,500</tspan></text><path d="M25.389,17.933h-.631a7.574,7.574,0,0,0-2.45-3.137,11.6,11.6,0,0,1,1.086-1.461.6.6,0,0,0-.429-.982,9.7,9.7,0,0,0-3.915.718,13.38,13.38,0,0,0-4.344-.718A11.991,11.991,0,0,0,6.169,15.61L4.7,14.748a1.439,1.439,0,0,0-1.92.431A1.283,1.283,0,0,0,3.239,17l1.44.838a5.854,5.854,0,0,0-.455,2.3,6.732,6.732,0,0,0,2.652,5.149l1.313,4.478A.836.836,0,0,0,9,30.338H12.1a.8.8,0,0,0,.808-1.006l-.48-1.628a13.431,13.431,0,0,0,4.521,0l.606,2.036a.836.836,0,0,0,.808.575h3.107a.8.8,0,0,0,.808-1.006l-.934-3.185a8.116,8.116,0,0,0,3.41-3.76h.657a1.146,1.146,0,0,0,1.162-1.1V18.987A1.183,1.183,0,0,0,25.389,17.933ZM15.943,15.9a8.119,8.119,0,0,0-2.021-.1,7.772,7.772,0,0,0-2.93.814.813.813,0,0,1-.328.072.687.687,0,0,1-.606-.335.658.658,0,0,1,.278-.91,8.961,8.961,0,0,1,3.485-.982,9.762,9.762,0,0,1,2.374.1.657.657,0,0,1,.556.766A.674.674,0,0,1,15.943,15.9Zm5,2.682A1.007,1.007,0,1,1,22,17.574,1.041,1.041,0,0,1,20.944,18.579Z" transform="translate(45.424 60.662)" fill="#00a7b5"/><g transform="translate(62 -22.011)"><g transform="translate(146 94.011)"><path d="M164,108.011h-7.522l-2.285-2,2.285-2H164Zm-5.483-11.73.865,1.73h-5.189ZM164,102.01v-2a2,2,0,0,0-2-2h-.382l-1.723-3.447a1,1,0,0,0-1.267-.482l-9.821,3.929H148a2,2,0,0,0-2,2v12a2,2,0,0,0,2,2h14a2,2,0,0,0,2-2v-2h1a1,1,0,0,0,1-1v-6a1,1,0,0,0-1-1Z" transform="translate(-146 -94.011)" fill="#00a7b5" fill-rule="evenodd"/><rect width="2" height="1.714" rx="0.857" transform="translate(10.857 11.14)" fill="#00a7b5"/></g></g><path d="M-714,270l6,6,6-6" transform="translate(895.5 332.5)" fill="none" stroke="#c1c6c8" stroke-width="2"/><text transform="translate(31.5 557)" fill="#00a7b5" font-size="12" font-family="HeroNew-SemiBold, Hero New" font-weight="600"><tspan x="0" y="0">How this projection works</tspan></text><path d="M6274,1336l3,3-3,3" transform="translate(-6078 -786)" fill="none" stroke="#00a7b5" stroke-linecap="square" stroke-width="1.5"/></g></g></svg>