<svg xmlns="http://www.w3.org/2000/svg" xmlns:xlink="http://www.w3.org/1999/xlink" width="375" height="916" viewBox="0 0 375 916"><defs><linearGradient id="a" x1="0.5" x2="0.5" y2="1" gradientUnits="objectBoundingBox"><stop offset="0" stop-color="#f8f8fc"/><stop offset="1" stop-color="#e1e2e8"/></linearGradient><filter id="b" x="8" y="92.001" width="80" height="80" filterUnits="userSpaceOnUse"><feOffset dy="4" input="SourceAlpha"/><feGaussianBlur stdDeviation="8" result="c"/><feFlood flood-opacity="0.122"/><feComposite operator="in" in2="c"/><feComposite in="SourceGraphic"/></filter><clipPath id="d"><circle cx="16" cy="16" r="16" transform="translate(0 0.001)" fill="#9bcbeb"/></clipPath><linearGradient id="e" x1="-2.152" y1="0.467" x2="1.172" y2="0.515" gradientUnits="objectBoundingBox"><stop offset="0.01"/><stop offset="1" stop-opacity="0"/></linearGradient><linearGradient id="f" x1="-1.499" y1="1.742" x2="1.059" y2="0.131" xlink:href="#e"/><linearGradient id="g" x1="0.337" y1="-1.05" x2="0.603" y2="1.481" xlink:href="#e"/><linearGradient id="h" x1="0.815" y1="0.239" x2="0.092" y2="0.732" gradientUnits="objectBoundingBox"><stop offset="0.02" stop-color="#fff" stop-opacity="0"/><stop offset="0.58" stop-color="#fff" stop-opacity="0.388"/><stop offset="1" stop-color="#fff"/></linearGradient><linearGradient id="i" x1="-0.26" y1="0.481" x2="1.302" y2="0.521" xlink:href="#h"/><linearGradient id="j" x1="0.538" y1="-0.383" x2="0.467" y2="1.403" xlink:href="#e"/><linearGradient id="k" x1="0.256" y1="-0.276" x2="0.721" y2="1.203" xlink:href="#e"/><linearGradient id="l" x1="0.253" y1="0.258" x2="0.455" y2="0.476" xlink:href="#e"/><linearGradient id="m" x1="0.413" y1="0.486" x2="1.01" y2="0.583" xlink:href="#e"/><linearGradient id="n" x1="0.014" y1="0.352" x2="0.779" y2="0.604" xlink:href="#e"/><linearGradient id="o" x1="0.555" y1="1.165" x2="0.461" y2="-0.341" xlink:href="#e"/><linearGradient id="p" x1="0.635" y1="0.055" x2="0.348" y2="0.907" gradientUnits="objectBoundingBox"><stop offset="0.02" stop-color="#fff" stop-opacity="0"/><stop offset="0.58" stop-color="#fff" stop-opacity="0.388"/><stop offset="0.68" stop-color="#fff" stop-opacity="0.678"/><stop offset="1" stop-color="#fff"/></linearGradient><linearGradient id="q" x1="0.185" y1="-0.258" x2="0.961" y2="1.606" xlink:href="#e"/><linearGradient id="r" x1="0.581" y1="1.071" x2="0.387" y2="-0.139" gradientUnits="objectBoundingBox"><stop offset="0" stop-color="#e1e2e8"/><stop offset="1" stop-color="#f8f8fc"/></linearGradient><filter id="s" x="22.9" y="593.208" width="326.892" height="160.892" filterUnits="userSpaceOnUse"><feOffset dy="3" input="SourceAlpha"/><feGaussianBlur stdDeviation="3" result="t"/><feFlood flood-color="#00a7b5" flood-opacity="0.102"/><feComposite operator="in" in2="t"/><feComposite in="SourceGraphic"/></filter><filter id="u" x="20" y="334" width="176" height="152" filterUnits="userSpaceOnUse"><feOffset dy="2" input="SourceAlpha"/><feGaussianBlur stdDeviation="4" result="v"/><feFlood flood-opacity="0.031"/><feComposite operator="in" in2="v"/><feComposite in="SourceGraphic"/></filter><filter id="w" x="180" y="334" width="176" height="152" filterUnits="userSpaceOnUse"><feOffset dy="2" input="SourceAlpha"/><feGaussianBlur stdDeviation="4" result="x"/><feFlood flood-opacity="0.031"/><feComposite operator="in" in2="x"/><feComposite in="SourceGraphic"/></filter><clipPath id="z"><rect width="375" height="916"/></clipPath></defs><g id="y" clip-path="url(#z)"><rect width="375" height="916" fill="#fff"/><path d="M1.46,0h3.8V-3.9H6.38c4.28,0,6.52-2.62,6.52-5.64,0-3.28-2.42-5.38-6.76-5.38H1.46Zm5.1-7.26H5.26V-11.5H6.54c1.46,0,2.54.72,2.54,2.1S8-7.26,6.56-7.26ZM24.48-5.38A4.66,4.66,0,0,0,27.92-9.9c0-3.32-2.42-5.02-6.08-5.02H16.82V0h3.8V-4.94h.12L24.16,0h4.5ZM20.62-7.82V-11.5h1.16c1.38,0,2.32.64,2.32,1.84,0,1.18-.9,1.84-2.34,1.84ZM39.28.36a7.594,7.594,0,0,0,7.8-7.82,7.583,7.583,0,0,0-7.8-7.82,7.611,7.611,0,0,0-7.82,7.82A7.611,7.611,0,0,0,39.28.36Zm0-3.46a4.056,4.056,0,0,1-4-4.36,4.074,4.074,0,0,1,4-4.38,4.082,4.082,0,0,1,3.98,4.38A4.064,4.064,0,0,1,39.28-3.1ZM49.86-4.28v3.6A5.135,5.135,0,0,0,52.9.26c3.38,0,5.2-2.26,5.2-5.38v-9.8H54.3V-5.6c0,1.6-.82,2.42-2.14,2.42A3.125,3.125,0,0,1,49.86-4.28ZM62.88,0h9.84V-3.38H66.68v-2.6h5.46V-9.06H66.68v-2.48h6.04v-3.38H62.88ZM88.2-.68V-4.46a6.187,6.187,0,0,1-3.72,1.34,4.263,4.263,0,0,1-4.4-4.34,4.235,4.235,0,0,1,4.4-4.32,6.163,6.163,0,0,1,3.72,1.24v-3.72a8.98,8.98,0,0,0-4.16-1.02,7.612,7.612,0,0,0-7.78,7.82A7.607,7.607,0,0,0,84.04.34,8.98,8.98,0,0,0,88.2-.68ZM95.7,0h3.78V-11.5h4.24v-3.42H91.44v3.42H95.7Zm11.86,0h3.8V-14.92h-3.8Zm15.76.36a7.594,7.594,0,0,0,7.8-7.82,7.583,7.583,0,0,0-7.8-7.82,7.611,7.611,0,0,0-7.82,7.82A7.611,7.611,0,0,0,123.32.36Zm0-3.46a4.056,4.056,0,0,1-4-4.36,4.074,4.074,0,0,1,4-4.38,4.082,4.082,0,0,1,3.98,4.38A4.064,4.064,0,0,1,123.32-3.1Zm25.22-11.82h-3.62v8.74h-.02l-6-8.74h-3.64V0h3.62V-8.9h.02L144.94,0h3.6Z" transform="translate(32 49)"/><g transform="translate(0 -335.999)"><path d="M-1022.171-530H-1056l8-7.568V-674a16,16,0,0,1,16-16h256a16,16,0,0,1,16,16v128a16,16,0,0,1-16,16Z" transform="translate(1104 1121.999)" fill="url(#a)"/><g transform="translate(-8 26.999)"><g transform="matrix(1, 0, 0, 1, 8, 309)" filter="url(#b)"><circle cx="16" cy="16" r="16" transform="translate(32 112)" fill="#9bcbeb"/></g><g transform="translate(40 421)" clip-path="url(#d)"><g transform="translate(1.337 4.284)"><path d="M187.825,265.873a1.527,1.527,0,0,1,.06,1.218,1.554,1.554,0,0,1-.529.5l-1.916,1.3a2.575,2.575,0,0,1-1.2.54.887.887,0,0,1-.98-.694c-.044-.51.49-.858.74-1.305a2.67,2.67,0,0,0-.024-1.962,35.924,35.924,0,0,1-.941-4.979c.393-.161,1.537-.882,1.944-.762.458.139.872,1.42,1.076,1.838A33.288,33.288,0,0,1,187.825,265.873Z" transform="translate(-163.941 -233.218)" fill="#f1af8c"/><path d="M199.424,206.471a20.24,20.24,0,0,0,1.822,4.1.2.2,0,0,1,.043.129.2.2,0,0,1-.078.108,5.6,5.6,0,0,1-2.72,1.584.333.333,0,0,1-.205-.018.339.339,0,0,1-.128-.176,12.056,12.056,0,0,1-.887-4.947,20.363,20.363,0,0,1,.2-2.516c.028-.2.043-1.1.219-1.208.268-.158.562.394.679.568A10.289,10.289,0,0,1,199.424,206.471Z" transform="translate(-179.215 -184.806)" fill="#fff"/><path d="M205.78,205.54s.626.235,1.136,2,1.726,6.037,1.726,6.037-1.881.94-2.352.587S205.78,205.54,205.78,205.54Z" transform="translate(-187.749 -186.566)" fill="url(#e)"/><path d="M213.956,192.407a10.077,10.077,0,0,0-3.048.3,5.05,5.05,0,0,0-2.57,1.6,5.54,5.54,0,0,0-1.1,3.163,20.789,20.789,0,0,0,.192,3.4,53.867,53.867,0,0,1,.211,7.962c-.031.636-.394,3.956.053,4.41.278.286-.278.572.118.666a24.005,24.005,0,0,0,12.11-.9,3.667,3.667,0,0,0,1.944-1.542c.417-.815-.708-4.046-.843-4.952q-.612-4.15-.883-8.344a27.268,27.268,0,0,0-.242-3.785c-.185-.882-.752-1.122-1.572-1.338A19.777,19.777,0,0,0,213.956,192.407Z" transform="translate(-201.262 -175.249)" fill="#fff"/><path d="M228.14,231.913a3.163,3.163,0,0,0,.632,1.574,2.716,2.716,0,0,0,1.086.664c1.93.728,4.13.614,5.98,1.527a1.29,1.29,0,0,1,.355.232,1.125,1.125,0,0,1-.026,1.388,4.165,4.165,0,0,1-2.956,1.349,25.5,25.5,0,0,1-7.993.33.733.733,0,0,1-.4-.151.719.719,0,0,1-.168-.375c-.6-2.663-.128-5.436-.117-8.165,0-1.574-.139-3.15-.032-4.721a9.579,9.579,0,0,1,.6-2.856c.246-.622.965-2,1.4-.721a30.831,30.831,0,0,1,1.13,6.321C227.769,229.515,227.913,230.72,228.14,231.913Z" transform="translate(-218.107 -200.28)" fill="url(#f)"/><path d="M245.981,170.381c.46-.074.718-.536.512-1.649-.022-.124-.051-.243-.085-.362a.3.3,0,0,0-.018-.067c-.05-.172-.107-.344-.162-.515a3.758,3.758,0,0,1-.242-1.281,2.3,2.3,0,0,0-.08-.945,1.547,1.547,0,0,0-.515-.623c-.5-.382-1.944-1.1-2.221-.151a4.333,4.333,0,0,0-.028,1.293,3.888,3.888,0,0,1-.319,1.734C242.52,168.421,244.852,170.562,245.981,170.381Z" transform="translate(-230.811 -151.065)" fill="#f1af8c"/><path d="M247.7,176.149s-2.56-.972-3.054-2.509l2.728.893S247.443,175.939,247.7,176.149Z" transform="translate(-232.209 -159.095)" fill="url(#g)"/><path d="M299.865,206.337a17.2,17.2,0,0,1-1.4,8.5.632.632,0,0,1-.171.257.694.694,0,0,1-.417.1,5.11,5.11,0,0,1-3.174-1.019,1.216,1.216,0,0,1-.562-.8,1.308,1.308,0,0,1,.1-.51,56.424,56.424,0,0,1,2.478-6.041,3.438,3.438,0,0,1,1.666-1.9C299.406,204.534,299.794,205.576,299.865,206.337Z" transform="translate(-291.31 -185.959)" fill="#fff"/><path d="M250.925,192.638a13.993,13.993,0,0,1-1.866-2.725,4.5,4.5,0,0,1-.725-1.865.372.372,0,0,1,.035-.224.4.4,0,0,1,.128-.118l1.043-.707a2.1,2.1,0,0,0,1,1.558c.555.394,2.145.826,1.8,1.644A17.094,17.094,0,0,1,250.925,192.638Z" transform="translate(-237.409 -170.6)" fill="#00629b"/><path d="M233.893,191.862a18.308,18.308,0,0,0,1.043,1.792,1.354,1.354,0,0,0,.555.555.153.153,0,0,0,.1.014c.061-.021.075-.1.079-.165a10.931,10.931,0,0,0-.16-3.193,2.945,2.945,0,0,0-.45-1.029,2.85,2.85,0,0,0-.927-.576c.056.171.112.343.162.515a.168.168,0,0,1,.017.051v.015c.033.119.062.239.085.362C234.607,191.326,234.349,191.788,233.893,191.862Z" transform="translate(-218.724 -172.546)" fill="#00629b"/><path d="M250.925,192.638a13.993,13.993,0,0,1-1.866-2.725,4.5,4.5,0,0,1-.725-1.865.372.372,0,0,1,.035-.224.4.4,0,0,1,.128-.118l1.043-.707a2.1,2.1,0,0,0,1,1.558c.555.394,2.145.826,1.8,1.644A17.094,17.094,0,0,1,250.925,192.638Z" transform="translate(-237.409 -170.6)" fill="url(#h)"/><path d="M233.893,191.862a18.308,18.308,0,0,0,1.043,1.792,1.354,1.354,0,0,0,.555.555.153.153,0,0,0,.1.014c.061-.021.075-.1.079-.165a10.931,10.931,0,0,0-.16-3.193,2.945,2.945,0,0,0-.45-1.029,2.85,2.85,0,0,0-.927-.576c.056.171.112.343.162.515a.168.168,0,0,1,.017.051v.015c.033.119.062.239.085.362C234.607,191.326,234.349,191.788,233.893,191.862Z" transform="translate(-218.724 -172.546)" fill="url(#i)"/><path d="M252.273,278.994l-6.081-1.162a2.19,2.19,0,0,1-1.019-.375,1.524,1.524,0,0,1-.471-1.362,4.474,4.474,0,0,1,.5-1.413,46.129,46.129,0,0,1,2.627-4.811,7.683,7.683,0,0,1,2.857.821,1.045,1.045,0,0,1,.386.36c.365.694-.633,1.708-.972,2.235a1.308,1.308,0,0,0-.253.576.95.95,0,0,0,.081.432c.329.808,1.5,1.279,2.221,1.694a7.48,7.48,0,0,0,3.093,1.039,18.274,18.274,0,0,1,2.548.153,3.65,3.65,0,0,1,2.392,1.866,2.21,2.21,0,0,1-1.706-.011,9.986,9.986,0,0,0-3.228-.26C254.543,278.835,252.606,279.648,252.273,278.994Z" transform="translate(-244.69 -241.958)" fill="#f1af8c"/><path d="M236.222,70.622a4.243,4.243,0,0,0-1.3-.584,1.608,1.608,0,0,0-1.429.319,2.974,2.974,0,0,1,2.123,1.12.207.207,0,0,0,.107.092.2.2,0,0,0,.112-.021c.192-.072,1.627.255,1.71.082C237.539,71.63,236.4,70.729,236.222,70.622Z" transform="translate(-220.498 -69.843)" fill="#00629b"/><path d="M236.222,70.622a4.243,4.243,0,0,0-1.3-.584,1.608,1.608,0,0,0-1.429.319,2.974,2.974,0,0,1,2.123,1.12.207.207,0,0,0,.107.092.2.2,0,0,0,.112-.021c.192-.072,1.627.255,1.71.082C237.539,71.63,236.4,70.729,236.222,70.622Z" transform="translate(-220.498 -69.843)" fill="url(#j)"/><ellipse cx="1.686" cy="2.077" rx="1.686" ry="2.077" transform="translate(17.142 7.213)" fill="#00629b"/><ellipse cx="1.559" cy="1.922" rx="1.559" ry="1.922" transform="translate(16.923 7.602)" fill="#00629b"/><ellipse cx="1.559" cy="1.922" rx="1.559" ry="1.922" transform="translate(16.923 7.602)" fill="url(#k)"/><path d="M227.637,96.19l-.39,7.138a2.873,2.873,0,0,1-2.843,2.72,4.345,4.345,0,0,1-4.671-3.252c-.487-1.419-.927-5.587,0-6.739S225.879,92.068,227.637,96.19Z" transform="translate(-208.606 -90.537)" fill="#f1af8c"/><path d="M216.858,78.716a3.56,3.56,0,0,1,3.268,1.752,2.055,2.055,0,0,1,.039,1.767.742.742,0,0,0-.108.561,1.47,1.47,0,0,1-.6,1.25,3.441,3.441,0,0,0-.665.467l.068-1.329a.278.278,0,0,0-.211-.33l-.846-.394s-.261.19-.293.205a1.063,1.063,0,0,1-.444.085,6.246,6.246,0,0,1-.991-.056,9.365,9.365,0,0,1-2.051-.619.933.933,0,0,0,.253.547l-2.156.417a5.859,5.859,0,0,0-.757,1.413,4.926,4.926,0,0,0-.292,1.223,4.42,4.42,0,0,0,.157,1.692,1.775,1.775,0,0,1-.38-.4,2.184,2.184,0,0,1-.639.3.278.278,0,0,1-.149.013c-.106-.029-.128-.154-.139-.254a11.378,11.378,0,0,0-1.058-2.507,3.771,3.771,0,0,1,.383-3.16,2.547,2.547,0,0,1,.671-.783c.993-.728,2.4-.394,3.536-.775.539-.18.972-.523,1.487-.75A5.343,5.343,0,0,1,216.858,78.716Z" transform="translate(-199.856 -77.349)" fill="#3f3d56"/><path d="M216.858,78.716a3.56,3.56,0,0,1,3.268,1.752,2.055,2.055,0,0,1,.039,1.767.742.742,0,0,0-.108.561,1.47,1.47,0,0,1-.6,1.25,3.441,3.441,0,0,0-.665.467l.068-1.329a.278.278,0,0,0-.211-.33l-.846-.394s-.261.19-.293.205a1.063,1.063,0,0,1-.444.085,6.246,6.246,0,0,1-.991-.056,9.365,9.365,0,0,1-2.051-.619.933.933,0,0,0,.253.547l-2.156.417a5.859,5.859,0,0,0-.757,1.413,4.926,4.926,0,0,0-.292,1.223,4.42,4.42,0,0,0,.157,1.692,1.775,1.775,0,0,1-.38-.4,2.184,2.184,0,0,1-.639.3.278.278,0,0,1-.149.013c-.106-.029-.128-.154-.139-.254a11.378,11.378,0,0,0-1.058-2.507,3.771,3.771,0,0,1,.383-3.16,2.547,2.547,0,0,1,.671-.783c.993-.728,2.4-.394,3.536-.775.539-.18.972-.523,1.487-.75A5.343,5.343,0,0,1,216.858,78.716Z" transform="translate(-199.856 -77.349)" fill="url(#l)"/><ellipse cx="1.667" cy="2.056" rx="1.667" ry="2.056" transform="translate(7.876 7.49)" fill="#00629b"/><ellipse cx="1.667" cy="2.056" rx="1.667" ry="2.056" transform="translate(7.876 7.49)" fill="url(#m)"/><ellipse cx="1.667" cy="2.056" rx="1.667" ry="2.056" transform="translate(7.238 7.49)" fill="#00629b"/><path d="M249.75,76.529l.833.089.2.021.833-4.1a4.766,4.766,0,0,1,2.821-3.352,1.5,1.5,0,0,1,.641-.076l.568.051-.278-.074-.555-.147a1.829,1.829,0,0,0-.533-.065,3.929,3.929,0,0,0-3.4,2.963Z" transform="translate(-240.857 -68.876)" fill="#00629b"/><path d="M249.75,76.529l.833.089.2.021.833-4.1a4.766,4.766,0,0,1,2.821-3.352,1.5,1.5,0,0,1,.641-.076l.568.051-.278-.074-.555-.147a1.829,1.829,0,0,0-.533-.065,3.929,3.929,0,0,0-3.4,2.963Z" transform="translate(-240.857 -68.876)" fill="url(#n)"/><path d="M251.75,76.529l.833.089.833-4.11a4.816,4.816,0,0,1,2.85-3.382,1.465,1.465,0,0,1,.648-.078l.453.04-.555-.147a1.828,1.828,0,0,0-.533-.065,3.929,3.929,0,0,0-3.4,2.963Z" transform="translate(-242.857 -68.876)" fill="#00629b"/><path d="M214.792,101.417a1.766,1.766,0,0,0-1.316-.862,5.241,5.241,0,0,0-1.624.075c.521.417,1.974,1.037,2,1.148a3.384,3.384,0,0,1,.007.591c-.019.286-.029.586-.028.872a2.222,2.222,0,0,1,.447-.339,1.111,1.111,0,0,0,.375-.24A1.154,1.154,0,0,0,214.792,101.417Z" transform="translate(-194.864 -96.124)" fill="url(#o)"/><path d="M251.868,152.128a6.47,6.47,0,0,0,1.847-.308.278.278,0,0,0-.16-.533c-1.43.43-2.506.373-3.193-.169a2.823,2.823,0,0,1-.875-2.148.278.278,0,1,0-.555-.028,3.368,3.368,0,0,0,1.087,2.614A2.9,2.9,0,0,0,251.868,152.128Z" transform="translate(-239.011 -137.598)" fill="#00629b"/><path d="M251.868,152.128a6.47,6.47,0,0,0,1.847-.308.278.278,0,0,0-.16-.533c-1.43.43-2.506.373-3.193-.169a2.823,2.823,0,0,1-.875-2.148.278.278,0,1,0-.555-.028,3.368,3.368,0,0,0,1.087,2.614A2.9,2.9,0,0,0,251.868,152.128Z" transform="translate(-239.011 -137.598)" fill="url(#p)"/><path d="M238.374,160.465a.736.736,0,0,0-.351.38.659.659,0,0,0,.311.616,1.162,1.162,0,0,0,.576.278,1.337,1.337,0,0,0,.875-.311,1.158,1.158,0,0,0,.364-.351.878.878,0,0,0-.48-1.152C239.214,159.729,238.731,160.23,238.374,160.465Z" transform="translate(-223.816 -147.245)" fill="#00629b"/><path d="M238.374,160.465a.736.736,0,0,0-.351.38.659.659,0,0,0,.311.616,1.162,1.162,0,0,0,.576.278,1.337,1.337,0,0,0,.875-.311,1.158,1.158,0,0,0,.364-.351.878.878,0,0,0-.48-1.152C239.214,159.729,238.731,160.23,238.374,160.465Z" transform="translate(-223.816 -147.245)" fill="url(#q)"/></g></g></g></g><path d="M1.53,16H7.845V14.695H2.925V4.84H1.53Zm14.55-4.215c0-2.67-1.575-4.08-3.5-4.08A3.985,3.985,0,0,0,8.67,11.98a3.906,3.906,0,0,0,4.11,4.2,4.728,4.728,0,0,0,2.835-.9V13.915a4.193,4.193,0,0,1-2.73,1.065A2.766,2.766,0,0,1,10.02,12.4h6.015A3.684,3.684,0,0,0,16.08,11.785Zm-6.06-.42a2.635,2.635,0,0,1,2.55-2.46,2.211,2.211,0,0,1,2.175,2.46ZM19.665,5.98h-1.32v1.9H17.1v1.2h1.215v4.08a2.685,2.685,0,0,0,2.9,2.94,5.083,5.083,0,0,0,.96-.09v-1.2a4.2,4.2,0,0,1-.72.075A1.611,1.611,0,0,1,19.665,13.1V9.085H21.99v-1.2H19.665ZM23.82,8.845h.84L24.9,4.84H23.535ZM29.535,7.7c-1.8,0-2.925,1.02-2.925,2.385,0,1.425,1.185,1.86,2.52,2.265,1.17.36,1.935.615,1.935,1.4,0,.72-.63,1.2-1.725,1.2A3.851,3.851,0,0,1,26.58,13.8V15.28a4.485,4.485,0,0,0,2.805.9c1.875,0,3.03-.96,3.03-2.445,0-1.635-1.41-2.04-2.655-2.4-1.095-.315-1.8-.585-1.8-1.305,0-.66.57-1.095,1.59-1.095a3.832,3.832,0,0,1,2.43.84V8.41A4.249,4.249,0,0,0,29.535,7.7Zm11.49,0c-1.8,0-2.925,1.02-2.925,2.385,0,1.425,1.185,1.86,2.52,2.265,1.17.36,1.935.615,1.935,1.4,0,.72-.63,1.2-1.725,1.2A3.851,3.851,0,0,1,38.07,13.8V15.28a4.485,4.485,0,0,0,2.805.9c1.875,0,3.03-.96,3.03-2.445,0-1.635-1.41-2.04-2.655-2.4-1.1-.315-1.8-.585-1.8-1.305,0-.66.57-1.095,1.59-1.095a3.832,3.832,0,0,1,2.43.84V8.41A4.249,4.249,0,0,0,41.025,7.7Zm11.745,4.08c0-2.67-1.575-4.08-3.495-4.08A3.985,3.985,0,0,0,45.36,11.98a3.906,3.906,0,0,0,4.11,4.2,4.728,4.728,0,0,0,2.835-.9V13.915a4.193,4.193,0,0,1-2.73,1.065A2.766,2.766,0,0,1,46.71,12.4h6.015A3.684,3.684,0,0,0,52.77,11.785Zm-6.06-.42a2.635,2.635,0,0,1,2.55-2.46,2.211,2.211,0,0,1,2.175,2.46Zm14.94.42c0-2.67-1.575-4.08-3.495-4.08A3.985,3.985,0,0,0,54.24,11.98a3.906,3.906,0,0,0,4.11,4.2,4.728,4.728,0,0,0,2.835-.9V13.915a4.193,4.193,0,0,1-2.73,1.065A2.766,2.766,0,0,1,55.59,12.4h6.015A3.684,3.684,0,0,0,61.65,11.785Zm-6.06-.42a2.635,2.635,0,0,1,2.55-2.46,2.211,2.211,0,0,1,2.175,2.46ZM69.1,4h-1.38V16H69.1V10.975a1.875,1.875,0,0,1,2.025-1.98c1.245,0,1.86.69,1.86,2.115V16h1.38V10.63A2.675,2.675,0,0,0,71.445,7.7,2.793,2.793,0,0,0,69.12,8.86H69.1ZM80.34,16.18a4.026,4.026,0,0,0,4.02-4.23,4.04,4.04,0,1,0-8.07,0A4.032,4.032,0,0,0,80.34,16.18Zm0-1.29a2.717,2.717,0,0,1-2.655-2.94,2.664,2.664,0,1,1,5.3,0A2.724,2.724,0,0,1,80.34,14.89ZM93.39,16h1.575l2.28-8.115H95.88l-1.725,6.57H94.11l-2.055-6.57h-1.44l-2.07,6.57h-.03L86.82,7.885H85.38L87.675,16H89.25l2.055-6.36h.045Zm17.43-8.3a2.6,2.6,0,0,0-2.34,1.425A2.237,2.237,0,0,0,106.23,7.7a2.422,2.422,0,0,0-2.175,1.38h-.045l-.15-1.2H102.8V16h1.38V10.885a1.711,1.711,0,0,1,1.68-1.86c1.08,0,1.545.615,1.545,1.785V16h1.38V10.81a1.685,1.685,0,0,1,1.695-1.785c1.08,0,1.53.615,1.53,1.785V16h1.38V10.585C113.385,8.89,112.59,7.7,110.82,7.7Zm8.2,8.475a3.126,3.126,0,0,0,3.36-3.3V7.885H121V12.91a1.829,1.829,0,0,1-1.98,1.98,1.8,1.8,0,0,1-1.92-1.98V7.885h-1.38V12.88A3.087,3.087,0,0,0,119.025,16.18Zm6.645-4.245a2.8,2.8,0,0,1,2.775-2.94,3.424,3.424,0,0,1,2.175.69V8.275a4.156,4.156,0,0,0-2.25-.57,4.076,4.076,0,0,0-4.095,4.23,4.071,4.071,0,0,0,4.095,4.245,4.5,4.5,0,0,0,2.25-.555v-1.4a3.472,3.472,0,0,1-2.16.66A2.8,2.8,0,0,1,125.67,11.935ZM134.055,4h-1.38V16h1.38V10.975a1.875,1.875,0,0,1,2.025-1.98c1.245,0,1.86.69,1.86,2.115V16h1.38V10.63A2.675,2.675,0,0,0,136.395,7.7,2.793,2.793,0,0,0,134.07,8.86h-.015ZM152.04,7.885H150.6l-2.235,6.18h-.03L146.1,7.885h-1.5l3.03,7.83-1.4,3.435h1.41Zm4.845,8.3a4.026,4.026,0,0,0,4.02-4.23,4.04,4.04,0,1,0-8.07,0A4.032,4.032,0,0,0,156.885,16.18Zm0-1.29a2.717,2.717,0,0,1-2.655-2.94,2.663,2.663,0,1,1,5.295,0A2.724,2.724,0,0,1,156.885,14.89Zm9.225,1.29a3.126,3.126,0,0,0,3.36-3.3V7.885h-1.38V12.91a1.829,1.829,0,0,1-1.98,1.98,1.8,1.8,0,0,1-1.92-1.98V7.885h-1.38V12.88A3.087,3.087,0,0,0,166.11,16.18Zm10.74-4.245a2.8,2.8,0,0,1,2.775-2.94,3.424,3.424,0,0,1,2.175.69V8.275a4.156,4.156,0,0,0-2.25-.57,4.076,4.076,0,0,0-4.1,4.23,4.071,4.071,0,0,0,4.1,4.245,4.5,4.5,0,0,0,2.25-.555v-1.4a3.473,3.473,0,0,1-2.16.66A2.8,2.8,0,0,1,176.85,11.935Zm10.38,4.245a4.026,4.026,0,0,0,4.02-4.23,4.04,4.04,0,1,0-8.07,0A4.032,4.032,0,0,0,187.23,16.18Zm0-1.29a2.717,2.717,0,0,1-2.655-2.94,2.663,2.663,0,1,1,5.295,0A2.724,2.724,0,0,1,187.23,14.89Zm9.225,1.29a3.126,3.126,0,0,0,3.36-3.3V7.885h-1.38V12.91a1.829,1.829,0,0,1-1.98,1.98,1.8,1.8,0,0,1-1.92-1.98V7.885h-1.38V12.88A3.087,3.087,0,0,0,196.455,16.18Zm5.8-.18h1.38V4h-1.38Zm7.11.18a3.279,3.279,0,0,0,2.9-1.665L212.43,16h1.125V4h-1.38V9.3a3.185,3.185,0,0,0-2.8-1.59c-1.92,0-3.69,1.635-3.69,4.245A3.921,3.921,0,0,0,209.37,16.18Zm.285-1.29a2.7,2.7,0,0,1-2.6-2.94,2.6,2.6,0,1,1,5.145-.015A2.69,2.69,0,0,1,209.655,14.89ZM223.32,7.72a3.883,3.883,0,0,0-3.69,4.08,3.85,3.85,0,0,0,3.69,4.065,3.305,3.305,0,0,0,2.79-1.53v1.23a2.506,2.506,0,0,1-2.67,2.475,4.429,4.429,0,0,1-2.97-1.2v1.485a5.135,5.135,0,0,0,3.03,1,3.79,3.79,0,0,0,3.99-3.99V7.885h-1.125L226.2,9.3A3.329,3.329,0,0,0,223.32,7.72Zm.27,1.275a2.6,2.6,0,0,1,2.565,2.76,2.666,2.666,0,0,1-2.565,2.85,2.639,2.639,0,0,1-2.565-2.79A2.648,2.648,0,0,1,223.59,8.995Zm13.32,2.79c0-2.67-1.575-4.08-3.5-4.08A3.985,3.985,0,0,0,229.5,11.98a3.906,3.906,0,0,0,4.11,4.2,4.728,4.728,0,0,0,2.835-.9V13.915a4.193,4.193,0,0,1-2.73,1.065,2.766,2.766,0,0,1-2.865-2.58h6.015A3.684,3.684,0,0,0,236.91,11.785Zm-6.06-.42a2.635,2.635,0,0,1,2.55-2.46,2.211,2.211,0,0,1,2.175,2.46Zm9.645-5.385h-1.32v1.9H237.93v1.2h1.215v4.08a2.685,2.685,0,0,0,2.9,2.94,5.084,5.084,0,0,0,.96-.09v-1.2a4.2,4.2,0,0,1-.72.075,1.611,1.611,0,0,1-1.785-1.785V9.085h2.325v-1.2h-2.325ZM1.695,41h1.38V34.085H5.4v-1.2H3.06V31.85c0-1.14.555-1.635,1.56-1.635a3.484,3.484,0,0,1,1.185.21V29.15a4.468,4.468,0,0,0-1.35-.225,2.626,2.626,0,0,0-2.76,2.745v1.215H.525v1.2h1.17Zm5.22,0H8.3V36.38A2.1,2.1,0,0,1,10.47,34.1a3.492,3.492,0,0,1,.57.06V32.84a2.906,2.906,0,0,0-.54-.045,2.628,2.628,0,0,0-2.325,1.38H8.16l-.15-1.29h-1.1Zm8.88.18a4.026,4.026,0,0,0,4.02-4.23,4.04,4.04,0,1,0-8.07,0A4.032,4.032,0,0,0,15.8,41.18Zm0-1.29a2.717,2.717,0,0,1-2.655-2.94,2.664,2.664,0,1,1,5.3,0A2.724,2.724,0,0,1,15.8,39.89ZM29.85,32.705a2.6,2.6,0,0,0-2.34,1.425,2.237,2.237,0,0,0-2.25-1.425,2.422,2.422,0,0,0-2.175,1.38H23.04l-.15-1.2H21.825V41H23.2V35.885a1.711,1.711,0,0,1,1.68-1.86c1.08,0,1.545.615,1.545,1.785V41h1.38V35.81a1.685,1.685,0,0,1,1.695-1.785c1.08,0,1.53.615,1.53,1.785V41h1.38V35.585C32.415,33.89,31.62,32.705,29.85,32.705Zm15.285.18h-1.44l-2.235,6.18h-.03l-2.235-6.18h-1.5l3.03,7.83-1.4,3.435h1.41ZM49.98,41.18A4.026,4.026,0,0,0,54,36.95a4.04,4.04,0,1,0-8.07,0A4.032,4.032,0,0,0,49.98,41.18Zm0-1.29a2.717,2.717,0,0,1-2.655-2.94,2.663,2.663,0,1,1,5.295,0A2.724,2.724,0,0,1,49.98,39.89Zm9.225,1.29a3.126,3.126,0,0,0,3.36-3.3V32.885h-1.38V37.91a1.829,1.829,0,0,1-1.98,1.98,1.8,1.8,0,0,1-1.92-1.98V32.885H55.9V37.88A3.087,3.087,0,0,0,59.205,41.18ZM64.98,41h1.38V36.38a2.1,2.1,0,0,1,2.175-2.28,3.492,3.492,0,0,1,.57.06V32.84a2.906,2.906,0,0,0-.54-.045,2.628,2.628,0,0,0-2.325,1.38h-.015l-.15-1.29h-1.1ZM76.9,32.705c-1.8,0-2.925,1.02-2.925,2.385,0,1.425,1.185,1.86,2.52,2.265,1.17.36,1.935.615,1.935,1.4,0,.72-.63,1.2-1.725,1.2a3.851,3.851,0,0,1-2.76-1.155V40.28a4.485,4.485,0,0,0,2.805.9c1.875,0,3.03-.96,3.03-2.445,0-1.635-1.41-2.04-2.655-2.4-1.1-.315-1.8-.585-1.8-1.305,0-.66.57-1.095,1.59-1.095a3.832,3.832,0,0,1,2.43.84V33.41A4.249,4.249,0,0,0,76.9,32.705Zm8.04,8.475a3.126,3.126,0,0,0,3.36-3.3V32.885h-1.38V37.91a1.829,1.829,0,0,1-1.98,1.98,1.8,1.8,0,0,1-1.92-1.98V32.885h-1.38V37.88A3.087,3.087,0,0,0,84.945,41.18Zm5.775,2.97H92.1V39.59A3.23,3.23,0,0,0,94.9,41.18c1.92,0,3.675-1.635,3.675-4.245,0-2.58-1.77-4.23-3.69-4.23a3.27,3.27,0,0,0-2.88,1.68l-.165-1.5H90.72Zm3.9-4.26a2.685,2.685,0,0,1-2.55-2.94,2.59,2.59,0,1,1,5.13-.015A2.685,2.685,0,0,1,94.62,39.89Zm12.885-3.1c0-2.67-1.575-4.08-3.5-4.08A3.985,3.985,0,0,0,100.1,36.98a3.906,3.906,0,0,0,4.11,4.2,4.728,4.728,0,0,0,2.835-.9V38.915a4.193,4.193,0,0,1-2.73,1.065,2.766,2.766,0,0,1-2.865-2.58h6.015A3.684,3.684,0,0,0,107.505,36.785Zm-6.06-.42A2.635,2.635,0,0,1,104,33.9a2.211,2.211,0,0,1,2.175,2.46ZM109.485,41h1.38V36.38a2.1,2.1,0,0,1,2.175-2.28,3.492,3.492,0,0,1,.57.06V32.84a2.906,2.906,0,0,0-.54-.045,2.628,2.628,0,0,0-2.325,1.38h-.015l-.15-1.29h-1.1Zm10.1-9.975a.84.84,0,1,0-.855-.84A.824.824,0,0,0,119.58,31.025ZM118.89,41h1.38V32.885h-1.38Zm4.365,0h1.38V34.085h2.325v-1.2h-2.34V31.85c0-1.14.555-1.635,1.56-1.635a3.484,3.484,0,0,1,1.185.21V29.15a4.468,4.468,0,0,0-1.35-.225,2.626,2.626,0,0,0-2.76,2.745v1.215h-1.17v1.2h1.17Zm15.15-8.115h-1.44l-2.235,6.18h-.03l-2.235-6.18h-1.5l3.03,7.83-1.4,3.435h1.41Zm4.845,8.295a4.026,4.026,0,0,0,4.02-4.23,4.04,4.04,0,1,0-8.07,0A4.032,4.032,0,0,0,143.25,41.18Zm0-1.29a2.717,2.717,0,0,1-2.655-2.94,2.663,2.663,0,1,1,5.295,0A2.724,2.724,0,0,1,143.25,39.89Zm9.225,1.29a3.126,3.126,0,0,0,3.36-3.3V32.885h-1.38V37.91a1.829,1.829,0,0,1-1.98,1.98,1.8,1.8,0,0,1-1.92-1.98V32.885h-1.38V37.88A3.087,3.087,0,0,0,152.475,41.18Zm9.87-.18h1.38V36.38A2.1,2.1,0,0,1,165.9,34.1a3.492,3.492,0,0,1,.57.06V32.84a2.906,2.906,0,0,0-.54-.045,2.628,2.628,0,0,0-2.325,1.38h-.015l-.15-1.29h-1.1ZM174.6,36.785c0-2.67-1.575-4.08-3.5-4.08a3.985,3.985,0,0,0-3.915,4.275,3.906,3.906,0,0,0,4.11,4.2,4.728,4.728,0,0,0,2.835-.9V38.915a4.193,4.193,0,0,1-2.73,1.065,2.766,2.766,0,0,1-2.865-2.58h6.015A3.684,3.684,0,0,0,174.6,36.785Zm-6.06-.42a2.635,2.635,0,0,1,2.55-2.46,2.211,2.211,0,0,1,2.175,2.46Zm9.645-5.385h-1.32v1.905H175.62v1.2h1.215v4.08a2.685,2.685,0,0,0,2.9,2.94,5.084,5.084,0,0,0,.96-.09v-1.2a4.2,4.2,0,0,1-.72.075,1.611,1.611,0,0,1-1.785-1.785v-4.02h2.325v-1.2h-2.325Zm4.875.045a.84.84,0,1,0-.855-.84A.824.824,0,0,0,183.06,31.025ZM182.37,41h1.38V32.885h-1.38Zm3.93,0h1.38V36.38a2.1,2.1,0,0,1,2.175-2.28,3.492,3.492,0,0,1,.57.06V32.84a2.906,2.906,0,0,0-.54-.045,2.628,2.628,0,0,0-2.325,1.38h-.015l-.15-1.29h-1.1Zm12.255-4.215c0-2.67-1.575-4.08-3.5-4.08a3.985,3.985,0,0,0-3.915,4.275,3.906,3.906,0,0,0,4.11,4.2,4.728,4.728,0,0,0,2.835-.9V38.915a4.193,4.193,0,0,1-2.73,1.065A2.766,2.766,0,0,1,192.5,37.4h6.015A3.684,3.684,0,0,0,198.555,36.785Zm-6.06-.42a2.635,2.635,0,0,1,2.55-2.46,2.211,2.211,0,0,1,2.175,2.46Zm15.3,4.815a3.262,3.262,0,0,0,2.9-1.665L210.855,41h1.125V32.885h-1.125l-.165,1.5a3.276,3.276,0,0,0-2.9-1.68c-1.9,0-3.69,1.65-3.69,4.245A3.93,3.93,0,0,0,207.795,41.18Zm.285-1.29a2.689,2.689,0,0,1-2.58-2.94,2.6,2.6,0,1,1,5.145-.015A2.7,2.7,0,0,1,208.08,39.89Zm8.115-8.91h-1.32v1.905H213.63v1.2h1.215v4.08a2.685,2.685,0,0,0,2.9,2.94,5.084,5.084,0,0,0,.96-.09v-1.2a4.2,4.2,0,0,1-.72.075A1.611,1.611,0,0,1,216.2,38.1v-4.02h2.325v-1.2H216.2ZM4.3,66.21a3.2,3.2,0,0,0,2.79-1.56L7.3,66h1.74V57.75H7.3l-.21,1.35A3.188,3.188,0,0,0,4.3,57.555c-1.875,0-3.69,1.71-3.69,4.335C.615,64.485,2.43,66.21,4.3,66.21Zm.57-1.89a2.462,2.462,0,0,1,0-4.89,2.468,2.468,0,0,1,0,4.89Zm9.585-6.75a3.939,3.939,0,0,0-3.72,4.125,3.883,3.883,0,0,0,3.69,4.14,3.088,3.088,0,0,0,2.625-1.425v.915A2.291,2.291,0,0,1,14.52,67.53a4.673,4.673,0,0,1-2.94-1.17v2.025a5.377,5.377,0,0,0,3.1.975,4.1,4.1,0,0,0,4.44-4.29V57.75H17.4l-.225,1.29A3.2,3.2,0,0,0,14.46,57.57Zm.51,1.845A2.153,2.153,0,0,1,17.1,61.68a2.142,2.142,0,1,1-2.13-2.265Zm13.68,2.31c0-2.73-1.68-4.17-3.735-4.17a4.332,4.332,0,0,0,.36,8.655,5.359,5.359,0,0,0,2.865-.81V63.63a4.583,4.583,0,0,1-2.625.9A2.587,2.587,0,0,1,22.8,62.475h5.79A5.429,5.429,0,0,0,28.65,61.725Zm-5.865-.555A2.2,2.2,0,0,1,24.9,59.22a1.777,1.777,0,0,1,1.77,1.95ZM38.37,58.62c-.135,0-.27.015-.42.03l3.09-3.825H38.535l-3.09,3.825a5.717,5.717,0,0,0-1.65,3.66,4.159,4.159,0,0,0,8.31-.06A3.712,3.712,0,0,0,38.37,58.62Zm-.435,5.76a2.074,2.074,0,0,1-2.085-2.1,2.849,2.849,0,0,1,.72-1.86,2.849,2.849,0,0,1,1.155-.24,2.127,2.127,0,0,1,2.3,2.115A2.061,2.061,0,0,1,37.935,64.38ZM43.425,66h2.22L51.4,54.825H43.41v1.9h4.9Zm9.9.075a.938.938,0,1,0-.93-.93A.916.916,0,0,0,53.325,66.075Zm12.84-5.85a2.51,2.51,0,0,0,1.695-2.49c0-1.65-1.245-2.9-3.63-2.9H60.84V66h3.57c2.55,0,3.81-1.395,3.81-3.075A2.691,2.691,0,0,0,66.165,60.225ZM62.22,56.1h2.115c1.335,0,2.145.66,2.145,1.77,0,1.065-.8,1.86-2.25,1.86H62.22Zm2.16,8.64H62.22V60.885h2.235c1.365,0,2.37.69,2.37,1.92C66.825,63.93,65.97,64.74,64.38,64.74Zm9.09,1.44a3.262,3.262,0,0,0,2.895-1.665L76.53,66h1.125V57.885H76.53l-.165,1.5a3.276,3.276,0,0,0-2.895-1.68c-1.905,0-3.69,1.65-3.69,4.245A3.93,3.93,0,0,0,73.47,66.18Zm.285-1.29a2.976,2.976,0,1,1,2.565-2.955A2.689,2.689,0,0,1,73.755,64.89Zm8.97-7.185c-1.8,0-2.925,1.02-2.925,2.385,0,1.425,1.185,1.86,2.52,2.265,1.17.36,1.935.615,1.935,1.4,0,.72-.63,1.2-1.725,1.2a3.851,3.851,0,0,1-2.76-1.155V65.28a4.485,4.485,0,0,0,2.805.9c1.875,0,3.03-.96,3.03-2.445,0-1.635-1.41-2.04-2.655-2.4-1.095-.315-1.8-.585-1.8-1.305,0-.66.57-1.095,1.59-1.095a3.832,3.832,0,0,1,2.43.84V58.41A4.249,4.249,0,0,0,82.725,57.705Zm11.745,4.08c0-2.67-1.575-4.08-3.5-4.08A3.985,3.985,0,0,0,87.06,61.98a3.906,3.906,0,0,0,4.11,4.2A4.728,4.728,0,0,0,94,65.28V63.915a4.193,4.193,0,0,1-2.73,1.065A2.766,2.766,0,0,1,88.41,62.4h6.015A3.684,3.684,0,0,0,94.47,61.785Zm-6.06-.42a2.635,2.635,0,0,1,2.55-2.46,2.211,2.211,0,0,1,2.175,2.46ZM99.63,66.18a3.279,3.279,0,0,0,2.895-1.665L102.69,66h1.125V54h-1.38v5.295a3.185,3.185,0,0,0-2.805-1.59c-1.92,0-3.69,1.635-3.69,4.245A3.921,3.921,0,0,0,99.63,66.18Zm.285-1.29a2.978,2.978,0,1,1,2.55-2.955A2.7,2.7,0,0,1,99.915,64.89Zm14.025,1.29a4.242,4.242,0,1,0-4.05-4.23A4.026,4.026,0,0,0,113.94,66.18Zm0-1.29a2.965,2.965,0,1,1,2.64-2.94A2.717,2.717,0,0,1,113.94,64.89Zm9.78-7.185a2.927,2.927,0,0,0-2.49,1.41h-.045l-.15-1.23H119.97V66h1.38V61.05a1.962,1.962,0,0,1,2.025-2.025c1.215,0,1.86.675,1.86,2.1V66h1.38V60.63A2.725,2.725,0,0,0,123.72,57.705Zm12.585,8.475a3.262,3.262,0,0,0,2.9-1.665L139.365,66h1.125V57.885h-1.125l-.165,1.5a3.276,3.276,0,0,0-2.9-1.68c-1.9,0-3.69,1.65-3.69,4.245A3.93,3.93,0,0,0,136.305,66.18Zm.285-1.29a2.976,2.976,0,1,1,2.565-2.955A2.689,2.689,0,0,1,136.59,64.89Zm10.17-7.185a2.927,2.927,0,0,0-2.49,1.41h-.045l-.15-1.23H143.01V66h1.38V61.05a1.962,1.962,0,0,1,2.025-2.025c1.215,0,1.86.675,1.86,2.1V66h1.38V60.63A2.725,2.725,0,0,0,146.76,57.705Zm16.32,4.08c0-2.67-1.575-4.08-3.5-4.08a3.985,3.985,0,0,0-3.915,4.275,3.906,3.906,0,0,0,4.11,4.2,4.728,4.728,0,0,0,2.835-.9V63.915a4.193,4.193,0,0,1-2.73,1.065,2.766,2.766,0,0,1-2.865-2.58h6.015A3.684,3.684,0,0,0,163.08,61.785Zm-6.06-.42a2.635,2.635,0,0,1,2.55-2.46,2.211,2.211,0,0,1,2.175,2.46Zm10.59-3.66c-1.8,0-2.925,1.02-2.925,2.385,0,1.425,1.185,1.86,2.52,2.265,1.17.36,1.935.615,1.935,1.4,0,.72-.63,1.2-1.725,1.2a3.851,3.851,0,0,1-2.76-1.155V65.28a4.485,4.485,0,0,0,2.805.9c1.875,0,3.03-.96,3.03-2.445,0-1.635-1.41-2.04-2.655-2.4-1.1-.315-1.8-.585-1.8-1.305,0-.66.57-1.095,1.59-1.095a3.832,3.832,0,0,1,2.43.84V58.41A4.249,4.249,0,0,0,167.61,57.705Zm6.525-1.725h-1.32v1.905H171.57v1.2h1.215v4.08a2.685,2.685,0,0,0,2.9,2.94,5.084,5.084,0,0,0,.96-.09v-1.2a4.2,4.2,0,0,1-.72.075,1.611,1.611,0,0,1-1.785-1.785v-4.02h2.325v-1.2h-2.325Zm4.875.045a.84.84,0,1,0-.855-.84A.824.824,0,0,0,179.01,56.025ZM178.32,66h1.38V57.885h-1.38Zm11.955-8.295a2.6,2.6,0,0,0-2.34,1.425,2.237,2.237,0,0,0-2.25-1.425,2.422,2.422,0,0,0-2.175,1.38h-.045l-.15-1.2H182.25V66h1.38V60.885a1.711,1.711,0,0,1,1.68-1.86c1.08,0,1.545.615,1.545,1.785V66h1.38V60.81a1.685,1.685,0,0,1,1.7-1.785c1.08,0,1.53.615,1.53,1.785V66h1.38V60.585C192.84,58.89,192.045,57.705,190.275,57.705Zm8.175,8.475a3.262,3.262,0,0,0,2.9-1.665L201.51,66h1.125V57.885H201.51l-.165,1.5a3.276,3.276,0,0,0-2.9-1.68c-1.9,0-3.69,1.65-3.69,4.245A3.93,3.93,0,0,0,198.45,66.18Zm.285-1.29a2.976,2.976,0,1,1,2.565-2.955A2.689,2.689,0,0,1,198.735,64.89Zm8.115-8.91h-1.32v1.905h-1.245v1.2H205.5v4.08a2.685,2.685,0,0,0,2.9,2.94,5.084,5.084,0,0,0,.96-.09v-1.2a4.2,4.2,0,0,1-.72.075A1.611,1.611,0,0,1,206.85,63.1v-4.02h2.325v-1.2H206.85Zm10.98,5.805c0-2.67-1.575-4.08-3.5-4.08a3.985,3.985,0,0,0-3.915,4.275,3.906,3.906,0,0,0,4.11,4.2,4.728,4.728,0,0,0,2.835-.9V63.915a4.193,4.193,0,0,1-2.73,1.065,2.766,2.766,0,0,1-2.865-2.58h6.015A3.684,3.684,0,0,0,217.83,61.785Zm-6.06-.42a2.635,2.635,0,0,1,2.55-2.46,2.211,2.211,0,0,1,2.175,2.46Zm11.22,4.815a3.279,3.279,0,0,0,2.9-1.665L226.05,66h1.125V54h-1.38v5.295a3.185,3.185,0,0,0-2.8-1.59c-1.92,0-3.69,1.635-3.69,4.245A3.921,3.921,0,0,0,222.99,66.18Zm.285-1.29a2.978,2.978,0,1,1,2.55-2.955A2.7,2.7,0,0,1,223.275,64.89ZM4.425,91.18a3.262,3.262,0,0,0,2.9-1.665L7.485,91H8.61V82.885H7.485l-.165,1.5a3.276,3.276,0,0,0-2.9-1.68c-1.9,0-3.69,1.65-3.69,4.245A3.93,3.93,0,0,0,4.425,91.18Zm.285-1.29A2.974,2.974,0,0,1,4.71,84a2.976,2.976,0,0,1,0,5.895Zm10.17-7.185a2.927,2.927,0,0,0-2.49,1.41h-.045l-.15-1.23H11.13V91h1.38V86.05a1.962,1.962,0,0,1,2.025-2.025c1.215,0,1.86.675,1.86,2.1V91h1.38V85.63A2.725,2.725,0,0,0,14.88,82.705Zm9.075,0a2.927,2.927,0,0,0-2.49,1.41H21.42l-.15-1.23H20.2V91h1.38V86.05a1.962,1.962,0,0,1,2.025-2.025c1.215,0,1.86.675,1.86,2.1V91h1.38V85.63A2.725,2.725,0,0,0,23.955,82.705Zm8.52,8.475a3.126,3.126,0,0,0,3.36-3.3V82.885h-1.38V87.91a1.829,1.829,0,0,1-1.98,1.98,1.8,1.8,0,0,1-1.92-1.98V82.885h-1.38V87.88A3.087,3.087,0,0,0,32.475,91.18Zm8.94,0a3.262,3.262,0,0,0,2.9-1.665L44.475,91H45.6V82.885H44.475l-.165,1.5a3.276,3.276,0,0,0-2.9-1.68c-1.9,0-3.69,1.65-3.69,4.245A3.93,3.93,0,0,0,41.415,91.18Zm.285-1.29a2.976,2.976,0,1,1,2.565-2.955A2.689,2.689,0,0,1,41.7,89.89ZM48.15,91h1.38V79H48.15Zm10.575-8.295c-1.8,0-2.925,1.02-2.925,2.385,0,1.425,1.185,1.86,2.52,2.265,1.17.36,1.935.615,1.935,1.395,0,.72-.63,1.2-1.725,1.2a3.851,3.851,0,0,1-2.76-1.155V90.28a4.485,4.485,0,0,0,2.805.9c1.875,0,3.03-.96,3.03-2.445,0-1.635-1.41-2.04-2.655-2.4-1.1-.315-1.8-.585-1.8-1.305,0-.66.57-1.1,1.59-1.1a3.832,3.832,0,0,1,2.43.84V83.41A4.248,4.248,0,0,0,58.725,82.705Zm8.01,8.475a3.262,3.262,0,0,0,2.9-1.665L69.795,91H70.92V82.885H69.795l-.165,1.5a3.276,3.276,0,0,0-2.9-1.68c-1.9,0-3.69,1.65-3.69,4.245A3.93,3.93,0,0,0,66.735,91.18Zm.285-1.29a2.976,2.976,0,1,1,2.565-2.955A2.689,2.689,0,0,1,67.02,89.89ZM73.47,91h1.38V79H73.47Zm7.1.18a3.262,3.262,0,0,0,2.895-1.665L83.625,91H84.75V82.885H83.625l-.165,1.5a3.276,3.276,0,0,0-2.895-1.68c-1.905,0-3.69,1.65-3.69,4.245A3.93,3.93,0,0,0,80.565,91.18Zm.285-1.29a2.976,2.976,0,1,1,2.565-2.955A2.689,2.689,0,0,1,80.85,89.89ZM87.27,91h1.38V86.38a2.1,2.1,0,0,1,2.175-2.28,3.491,3.491,0,0,1,.57.06V82.84a2.907,2.907,0,0,0-.54-.045,2.628,2.628,0,0,0-2.325,1.38h-.015l-.15-1.29h-1.1Zm12.165-8.115H98l-2.235,6.18h-.03L93.5,82.885H92l3.03,7.83L93.63,94.15h1.41Zm8.85,8.295a4.242,4.242,0,1,0-4.05-4.23A4.026,4.026,0,0,0,108.285,91.18Zm0-1.29a2.965,2.965,0,1,1,2.64-2.94A2.717,2.717,0,0,1,108.285,89.89ZM114.63,91h1.38V84.085h2.325v-1.2h-2.34V81.85c0-1.14.555-1.635,1.56-1.635a3.484,3.484,0,0,1,1.185.21V79.15a4.468,4.468,0,0,0-1.35-.225,2.626,2.626,0,0,0-2.76,2.745v1.215h-1.17v1.2h1.17Zm15.645-3.315c0-2.04-1.56-2.7-3.075-3.21-1.02-.36-1.86-.69-1.86-1.47,0-.675.63-1.215,1.695-1.215a4.649,4.649,0,0,1,2.595.855V80.59a5.742,5.742,0,0,0-2.13-.645V78.79h-1.71v1.245a3.083,3.083,0,0,0-2.58,2.955c0,1.95,1.5,2.61,3.015,3.135,1.065.375,1.92.72,1.92,1.56s-.825,1.4-1.95,1.4a4.265,4.265,0,0,1-2.97-1.26v2.235a5.561,5.561,0,0,0,2.565.885v1.14h1.71V90.835A3.29,3.29,0,0,0,130.275,87.685Zm8.175-7.86h-5.325l-.93,5.97.315.225a4.3,4.3,0,0,1,1.9-.435c1.575,0,2.4.81,2.4,1.875,0,1.035-.825,1.815-2.205,1.815a4.189,4.189,0,0,1-2.91-1.215v2.22a5.1,5.1,0,0,0,3.09.975,3.847,3.847,0,0,0,4.2-3.825,3.518,3.518,0,0,0-3.81-3.5,3.763,3.763,0,0,0-1.02.15l.45-2.355h3.84Zm8.79,0h-5.325l-.93,5.97.315.225a4.3,4.3,0,0,1,1.9-.435c1.575,0,2.4.81,2.4,1.875,0,1.035-.825,1.815-2.205,1.815a4.189,4.189,0,0,1-2.91-1.215v2.22a5.1,5.1,0,0,0,3.09.975,3.847,3.847,0,0,0,4.2-3.825,3.518,3.518,0,0,0-3.81-3.5,3.763,3.763,0,0,0-1.02.15l.45-2.355h3.84Zm1.635,13.185h1.5a10.164,10.164,0,0,0,.99-3.8V88.57H149.49v.78A12.565,12.565,0,0,1,148.875,93.01Zm8.415-13.44c-2.46,0-4.44,2.235-4.44,5.85s1.98,5.835,4.44,5.835,4.47-2.235,4.47-5.835S159.765,79.57,157.29,79.57Zm0,1.95c1.32,0,2.4,1.425,2.4,3.9,0,2.445-1.08,3.87-2.4,3.87-1.3,0-2.34-1.41-2.34-3.87S155.985,81.52,157.29,81.52Zm10.545-1.95c-2.46,0-4.44,2.235-4.44,5.85s1.98,5.835,4.44,5.835,4.47-2.235,4.47-5.835S170.31,79.57,167.835,79.57Zm0,1.95c1.32,0,2.4,1.425,2.4,3.9,0,2.445-1.08,3.87-2.4,3.87-1.3,0-2.34-1.41-2.34-3.87S166.53,81.52,167.835,81.52Zm10.545-1.95c-2.46,0-4.44,2.235-4.44,5.85s1.98,5.835,4.44,5.835,4.47-2.235,4.47-5.835S180.855,79.57,178.38,79.57Zm0,1.95c1.32,0,2.4,1.425,2.4,3.9,0,2.445-1.08,3.87-2.4,3.87-1.3,0-2.34-1.41-2.34-3.87S177.075,81.52,178.38,81.52Zm7.17,9.555a.938.938,0,1,0-.93-.93A.916.916,0,0,0,185.55,91.075Z" transform="translate(80 112.001)"/><path d="M1.232,0H7.518V-1.778H3.192V-4.466H7.154V-6.118H3.192V-8.652H7.518V-10.43H1.232ZM12.278.2A2.975,2.975,0,0,0,14.854-1.26L15.05,0h1.624V-11.228H14.742V-6.51a2.846,2.846,0,0,0-2.478-1.372c-1.806,0-3.458,1.568-3.458,4.032S10.486.2,12.278.2Zm.5-1.764a2.1,2.1,0,0,1-2.03-2.282,2.1,2.1,0,0,1,2.03-2.282A2.077,2.077,0,0,1,14.77-3.85,2.077,2.077,0,0,1,12.782-1.568Zm6.9-7.42a1.058,1.058,0,0,0,1.078-1.064,1.07,1.07,0,0,0-1.078-1.078,1.073,1.073,0,0,0-1.092,1.078A1.061,1.061,0,0,0,19.684-8.988ZM18.718,0H20.65V-7.7H18.718ZM24.99-9.492H23.128V-7.7H21.994v1.61h1.12v3.206A2.769,2.769,0,0,0,26.124.154,4.956,4.956,0,0,0,27.23.042V-1.61a4.073,4.073,0,0,1-.686.07c-.9,0-1.554-.406-1.554-1.442V-6.09h2.1V-7.7h-2.1ZM35.224.2a2.987,2.987,0,0,0,2.6-1.456l.2,1.26h1.624V-7.7H38.024l-.2,1.26a2.976,2.976,0,0,0-2.6-1.442c-1.75,0-3.444,1.6-3.444,4.046A3.75,3.75,0,0,0,35.224.2Zm.532-1.764a2.1,2.1,0,0,1-2.03-2.282,2.1,2.1,0,0,1,2.03-2.282A2.077,2.077,0,0,1,37.744-3.85,2.077,2.077,0,0,1,35.756-1.568Zm8.638-6.314c-1.89,0-3.024,1.008-3.024,2.394S42.5-3.626,43.75-3.276c1.036.308,1.638.49,1.638,1.036,0,.5-.49.826-1.358.826A3.907,3.907,0,0,1,41.4-2.422V-.588A4.687,4.687,0,0,0,44.114.2c1.988,0,3.15-.966,3.15-2.45,0-1.6-1.344-2.016-2.576-2.338-.938-.252-1.442-.448-1.442-.938,0-.462.434-.756,1.218-.756a4.124,4.124,0,0,1,2.324.714V-7.266A4.628,4.628,0,0,0,44.394-7.882Zm7.154,0c-1.89,0-3.024,1.008-3.024,2.394s1.134,1.862,2.38,2.212c1.036.308,1.638.49,1.638,1.036,0,.5-.49.826-1.358.826a3.907,3.907,0,0,1-2.632-1.008V-.588A4.687,4.687,0,0,0,51.268.2c1.988,0,3.15-.966,3.15-2.45,0-1.6-1.344-2.016-2.576-2.338C50.9-4.844,50.4-5.04,50.4-5.53c0-.462.434-.756,1.218-.756a4.124,4.124,0,0,1,2.324.714V-7.266A4.628,4.628,0,0,0,51.548-7.882ZM59.262.2A3.155,3.155,0,0,0,62.678-3.08V-7.7H60.746v4.62a1.364,1.364,0,0,1-1.484,1.512,1.335,1.335,0,0,1-1.442-1.5V-7.7H55.888v4.634A3.117,3.117,0,0,0,59.262.2ZM72.814-7.882A2.49,2.49,0,0,0,70.6-6.566a2.191,2.191,0,0,0-2.156-1.316,2.342,2.342,0,0,0-2.1,1.274H66.3L66.094-7.7H64.6V0h1.932V-4.7A1.288,1.288,0,0,1,67.8-6.118c.84,0,1.176.462,1.176,1.386V0H70.91V-4.788a1.241,1.241,0,0,1,1.274-1.33c.826,0,1.162.462,1.162,1.386V0h1.932V-5.11C75.278-6.776,74.494-7.882,72.814-7.882ZM77.238,2.94H79.17V-1.19A2.972,2.972,0,0,0,81.676.2c1.806,0,3.43-1.582,3.43-4.046S83.44-7.882,81.634-7.882A2.963,2.963,0,0,0,79.058-6.44l-.2-1.26H77.238ZM81.13-1.568A2.086,2.086,0,0,1,79.142-3.85a2.088,2.088,0,0,1,2-2.282A2.085,2.085,0,0,1,83.16-3.864,2.1,2.1,0,0,1,81.13-1.568Zm7.784-7.924H87.052V-7.7H85.918v1.61h1.12v3.206A2.769,2.769,0,0,0,90.048.154,4.956,4.956,0,0,0,91.154.042V-1.61a4.073,4.073,0,0,1-.686.07c-.9,0-1.554-.406-1.554-1.442V-6.09h2.1V-7.7h-2.1Zm4.62.5a1.058,1.058,0,0,0,1.078-1.064,1.07,1.07,0,0,0-1.078-1.078,1.073,1.073,0,0,0-1.092,1.078A1.061,1.061,0,0,0,93.534-8.988ZM92.568,0H94.5V-7.7H92.568Zm7.5.2a3.893,3.893,0,0,0,3.962-4.046,3.873,3.873,0,0,0-3.962-4.032A3.893,3.893,0,0,0,96.1-3.85,3.9,3.9,0,0,0,100.072.2Zm0-1.764a2.1,2.1,0,0,1-2.03-2.282,2.1,2.1,0,0,1,2.03-2.282,2.09,2.09,0,0,1,2.016,2.282A2.1,2.1,0,0,1,100.072-1.568Zm9.618-6.314a2.716,2.716,0,0,0-2.324,1.288h-.042l-.21-1.106h-1.5V0h1.932V-4.606a1.467,1.467,0,0,1,1.526-1.512c.924,0,1.4.5,1.4,1.568V0h1.932V-5.138A2.53,2.53,0,0,0,109.69-7.882Zm7.392,0c-1.89,0-3.024,1.008-3.024,2.394s1.134,1.862,2.38,2.212c1.036.308,1.638.49,1.638,1.036,0,.5-.49.826-1.358.826a3.907,3.907,0,0,1-2.632-1.008V-.588A4.688,4.688,0,0,0,116.8.2c1.988,0,3.15-.966,3.15-2.45,0-1.6-1.344-2.016-2.576-2.338-.938-.252-1.442-.448-1.442-.938,0-.462.434-.756,1.218-.756a4.124,4.124,0,0,1,2.324.714V-7.266A4.628,4.628,0,0,0,117.082-7.882Z" transform="translate(80 233)" fill="#00629b"/><path d="M6274,1336l4,4-4,4" transform="translate(-6066 -1112)" fill="none" stroke="#00629b" stroke-linecap="square" stroke-width="2"/><path d="M0,0H375V628H0Z" transform="translate(0 288)" fill="#fff"/><path d="M0,0H375V520H0Z" transform="translate(0 288)" opacity="0.6" fill="url(#r)"/><g transform="translate(0 252)"><rect width="312" height="1" transform="translate(32 512)"/><path d="M.37,0H5.31V-.88H2.18C4.04-2.91,5.04-4.13,5.04-5.31A2.191,2.191,0,0,0,2.71-7.59a2.987,2.987,0,0,0-1.98.73v1.04a2.587,2.587,0,0,1,1.9-.89A1.412,1.412,0,0,1,4.1-5.26C4.1-4.39,3.68-3.7.37,0Zm8.9-7.59c-1.54,0-2.78,1.46-2.78,3.88S7.73.15,9.27.15s2.79-1.45,2.79-3.86S10.81-7.59,9.27-7.59Zm0,.88c1.02,0,1.86,1.1,1.86,3S10.29-.73,9.27-.73,7.43-1.81,7.43-3.71,8.24-6.71,9.27-6.71ZM14.91,0h.92V-7.47h-.09L13.06-6.36v.97l1.85-.79Zm5.33-7.59a2.5,2.5,0,0,0-2.56,2.53,2.415,2.415,0,0,0,2.45,2.38,3.046,3.046,0,0,0,.41-.03L18.35,0h1.12l2.27-2.82a3.546,3.546,0,0,0,1.03-2.29A2.431,2.431,0,0,0,20.24-7.59Zm1.03,3.96a2.417,2.417,0,0,1-.95.2A1.645,1.645,0,0,1,18.61-5.1a1.607,1.607,0,0,1,1.63-1.64,1.587,1.587,0,0,1,1.61,1.65A2.266,2.266,0,0,1,21.27-3.63Z" transform="translate(32 529)"/><path d="M-25.41,0h4.94V-.88H-23.6c1.86-2.03,2.86-3.25,2.86-4.43a2.191,2.191,0,0,0-2.33-2.28,2.987,2.987,0,0,0-1.98.73v1.04a2.587,2.587,0,0,1,1.9-.89,1.412,1.412,0,0,1,1.47,1.45C-21.68-4.39-22.1-3.7-25.41,0Zm8.9-7.59c-1.54,0-2.78,1.46-2.78,3.88S-18.05.15-16.51.15s2.79-1.45,2.79-3.86S-14.97-7.59-16.51-7.59Zm0,.88c1.02,0,1.86,1.1,1.86,3s-.84,2.98-1.86,2.98-1.84-1.08-1.84-2.98S-17.54-6.71-16.51-6.71Zm9.55,4.12H-8.24V-7.44h-.77l-3.74,5.11v.56h3.63V0h.88V-1.77h1.28Zm-4.69,0V-2.6l2.53-3.46v3.47Zm11.24,0H-1.69V-7.44h-.77L-6.2-2.33v.56h3.63V0h.88V-1.77H-.41Zm-4.69,0V-2.6l2.53-3.46v3.47Z" transform="translate(344 529)"/><path d="M2587,2673.225s81.31-2.784,175.1-31.146,128.9-60.854,128.9-60.854" transform="translate(-2553 -2185.225)" fill="none" stroke="#5b6770" stroke-linecap="round" stroke-linejoin="round" stroke-width="4" opacity="0.2"/><g transform="matrix(1, 0, 0, 1, 0, -252)" filter="url(#s)"><path d="M2587,2719.225s81.31-4.176,175.1-46.719,128.9-91.281,128.9-91.281" transform="translate(-2553 -1979.23)" fill="none" stroke="#00a7b5" stroke-linecap="round" stroke-linejoin="round" stroke-width="4"/></g><g transform="translate(0 92)"><circle cx="12" cy="12" r="12" transform="translate(326 246)" fill="#00a7b5" opacity="0.2"/><circle cx="6" cy="6" r="6" transform="translate(332 252)" fill="#00a7b5"/></g></g><path d="M3.816-9.144C1.884-9.144.648-8.028.648-6.468c0,1.6,1.32,2.184,2.424,2.64.972.4,1.6.684,1.6,1.284s-.588,1.02-1.476,1.02a3.962,3.962,0,0,1-2.52-.984v1.9a4.725,4.725,0,0,0,2.712.8c1.98,0,3.288-1.128,3.288-2.808,0-1.7-1.392-2.268-2.664-2.772C3.072-5.772,2.58-6.012,2.58-6.54c0-.564.552-.876,1.344-.876a4.1,4.1,0,0,1,2.22.684v-1.8A4.7,4.7,0,0,0,3.816-9.144ZM13.992-3.432c0-2.22-1.38-3.384-3.072-3.384A3.323,3.323,0,0,0,7.584-3.3,3.35,3.35,0,0,0,11.268.168a4.562,4.562,0,0,0,2.316-.6V-2a3.863,3.863,0,0,1-2.076.66A2,2,0,0,1,9.42-2.784h4.524A3.565,3.565,0,0,0,13.992-3.432Zm-4.608-.5A1.6,1.6,0,0,1,10.908-5.3a1.253,1.253,0,0,1,1.26,1.368Zm11.9.5c0-2.22-1.38-3.384-3.072-3.384A3.323,3.323,0,0,0,14.88-3.3,3.35,3.35,0,0,0,18.564.168a4.562,4.562,0,0,0,2.316-.6V-2a3.863,3.863,0,0,1-2.076.66,2,2,0,0,1-2.088-1.44H21.24A3.565,3.565,0,0,0,21.288-3.432Zm-4.608-.5A1.6,1.6,0,0,1,18.2-5.3a1.253,1.253,0,0,1,1.26,1.368ZM27.708-8.184H25.86v1.536h-.948v1.584h.936v2.508A2.472,2.472,0,0,0,28.56.144,4.557,4.557,0,0,0,29.6.036V-1.572a3.756,3.756,0,0,1-.6.06c-.744,0-1.3-.324-1.3-1.164V-5.064h1.776V-6.648H27.708Zm4.944-1.452h-1.92V0h1.92V-3.972A1.074,1.074,0,0,1,33.8-5.088c.708,0,1.056.372,1.056,1.188V0h1.92V-4.44a2.167,2.167,0,0,0-2.34-2.376A2.277,2.277,0,0,0,32.664-6h-.012Zm11.724,6.2c0-2.22-1.38-3.384-3.072-3.384A3.323,3.323,0,0,0,37.968-3.3,3.35,3.35,0,0,0,41.652.168a4.562,4.562,0,0,0,2.316-.6V-2a3.863,3.863,0,0,1-2.076.66A2,2,0,0,1,39.8-2.784h4.524A3.565,3.565,0,0,0,44.376-3.432Zm-4.608-.5A1.6,1.6,0,0,1,41.292-5.3a1.253,1.253,0,0,1,1.26,1.368ZM49.584-7.56A1.037,1.037,0,0,0,50.628-8.6a1.035,1.035,0,0,0-1.044-1.032A1.03,1.03,0,0,0,48.528-8.6,1.033,1.033,0,0,0,49.584-7.56ZM48.624,0h1.92V-6.648h-1.92Zm10.86-6.816a2.181,2.181,0,0,0-1.908,1.128,1.924,1.924,0,0,0-1.86-1.128,2.064,2.064,0,0,0-1.848,1.092h-.036l-.192-.924H52.152V0h1.92V-4a.965.965,0,0,1,.96-1.08c.648,0,.888.348.888,1.068V0h1.92V-4.08a.938.938,0,0,1,.972-1c.648,0,.888.348.888,1.068V0h1.92V-4.4C61.62-5.856,60.936-6.816,59.484-6.816Zm3.7,9.336H65.1V-.972A2.456,2.456,0,0,0,67.188.168c1.56,0,2.94-1.356,2.94-3.492a3.205,3.205,0,0,0-2.976-3.492A2.55,2.55,0,0,0,64.98-5.628l-.192-1.02H63.18Zm3.432-4.08a1.6,1.6,0,0,1-1.536-1.764,1.6,1.6,0,0,1,1.548-1.764,1.609,1.609,0,0,1,1.56,1.752A1.632,1.632,0,0,1,66.612-1.56ZM73.968.168A2.5,2.5,0,0,0,76.152-1.02L76.344,0h1.62V-6.648h-1.62l-.192,1.02a2.525,2.525,0,0,0-2.184-1.188A3.242,3.242,0,0,0,71.016-3.3,3.226,3.226,0,0,0,73.968.168Zm.564-1.728a1.63,1.63,0,0,1-1.584-1.764,1.637,1.637,0,0,1,1.584-1.764A1.611,1.611,0,0,1,76.08-3.324,1.611,1.611,0,0,1,74.532-1.56Zm6.6-1.764a1.739,1.739,0,0,1,1.836-1.764,2.915,2.915,0,0,1,1.668.5V-6.348a3.9,3.9,0,0,0-1.956-.468,3.4,3.4,0,0,0-3.492,3.48A3.4,3.4,0,0,0,82.68.168a4.311,4.311,0,0,0,1.956-.456V-2.052a2.764,2.764,0,0,1-1.668.492A1.732,1.732,0,0,1,81.132-3.324Zm7.128-4.86H86.412v1.536h-.948v1.584H86.4v2.508a2.472,2.472,0,0,0,2.712,2.7A4.557,4.557,0,0,0,90.156.036V-1.572a3.756,3.756,0,0,1-.6.06c-.744,0-1.3-.324-1.3-1.164V-5.064h1.776V-6.648H88.26ZM97.392.168a3.386,3.386,0,0,0,3.492-3.492,3.372,3.372,0,0,0-3.492-3.492A3.386,3.386,0,0,0,93.9-3.324,3.393,3.393,0,0,0,97.392.168Zm0-1.728a1.612,1.612,0,0,1-1.548-1.764,1.612,1.612,0,0,1,1.548-1.764,1.62,1.62,0,0,1,1.56,1.764A1.628,1.628,0,0,1,97.392-1.56ZM102.528,0h1.92V-5.064h1.728V-6.648h-1.752v-.516c0-.636.36-.912,1.056-.912a3.336,3.336,0,0,1,.936.144V-9.54a4.149,4.149,0,0,0-1.272-.2,2.424,2.424,0,0,0-2.616,2.424v.672h-.912v1.584h.912ZM115.92-3.432c0-2.22-1.38-3.384-3.072-3.384A3.323,3.323,0,0,0,109.512-3.3,3.35,3.35,0,0,0,113.2.168a4.562,4.562,0,0,0,2.316-.6V-2a3.863,3.863,0,0,1-2.076.66,2,2,0,0,1-2.088-1.44h4.524A3.565,3.565,0,0,0,115.92-3.432Zm-4.608-.5A1.6,1.6,0,0,1,112.836-5.3a1.253,1.253,0,0,1,1.26,1.368ZM123.06-6.648H121l-1.26,2.076h-.012l-1.272-2.076h-2.1L118.6-3.312,116.328,0H118.4l1.272-2.088h.024L120.972,0h2.184l-2.3-3.4Zm3.24-1.536h-1.848v1.536H123.5v1.584h.936v2.508a2.472,2.472,0,0,0,2.712,2.7A4.557,4.557,0,0,0,128.2.036V-1.572a3.756,3.756,0,0,1-.6.06c-.744,0-1.3-.324-1.3-1.164V-5.064h1.776V-6.648H126.3ZM129.324,0h1.92V-3.252a1.485,1.485,0,0,1,1.572-1.68,2.163,2.163,0,0,1,.552.06v-1.8a2.051,2.051,0,0,0-.5-.048,2.035,2.035,0,0,0-1.8,1.068h-.024l-.192-1h-1.524ZM136.8.168a2.5,2.5,0,0,0,2.184-1.188L139.176,0h1.62V-6.648h-1.62l-.192,1.02A2.525,2.525,0,0,0,136.8-6.816,3.242,3.242,0,0,0,133.848-3.3,3.226,3.226,0,0,0,136.8.168Zm.564-1.728a1.63,1.63,0,0,1-1.584-1.764,1.637,1.637,0,0,1,1.584-1.764,1.611,1.611,0,0,1,1.548,1.764A1.611,1.611,0,0,1,137.364-1.56ZM145.38,0h1.92V-3.252a1.485,1.485,0,0,1,1.572-1.68,2.163,2.163,0,0,1,.552.06v-1.8a2.051,2.051,0,0,0-.5-.048,2.035,2.035,0,0,0-1.8,1.068H147.1l-.192-1H145.38Zm10.932-3.432c0-2.22-1.38-3.384-3.072-3.384A3.323,3.323,0,0,0,149.9-3.3,3.35,3.35,0,0,0,153.588.168a4.562,4.562,0,0,0,2.316-.6V-2a3.863,3.863,0,0,1-2.076.66,2,2,0,0,1-2.088-1.44h4.524A3.566,3.566,0,0,0,156.312-3.432Zm-4.608-.5A1.6,1.6,0,0,1,153.228-5.3a1.253,1.253,0,0,1,1.26,1.368ZM160.176-6.8A3.174,3.174,0,0,0,157.2-3.48a3.132,3.132,0,0,0,2.952,3.348,2.43,2.43,0,0,0,2.04-1.1v.612c0,.972-.816,1.644-1.992,1.644a3.9,3.9,0,0,1-2.34-.912V1.932a4.489,4.489,0,0,0,2.52.756A3.4,3.4,0,0,0,164.112-.84V-6.648h-1.62l-.192,1A2.519,2.519,0,0,0,160.176-6.8Zm.5,1.692a1.555,1.555,0,0,1,1.536,1.632,1.569,1.569,0,0,1-1.536,1.656,1.568,1.568,0,0,1-1.548-1.644A1.582,1.582,0,0,1,160.68-5.112Zm7.956,5.28A2.785,2.785,0,0,0,171.684-2.7V-6.648h-1.92v3.936a1.031,1.031,0,0,1-1.128,1.152,1.007,1.007,0,0,1-1.092-1.14V-6.648h-1.92V-2.7A2.761,2.761,0,0,0,168.636.168ZM173.208,0h1.92V-9.636h-1.92Zm6.12.168a2.5,2.5,0,0,0,2.184-1.188L181.7,0h1.62V-6.648H181.7l-.192,1.02a2.525,2.525,0,0,0-2.184-1.188A3.242,3.242,0,0,0,176.376-3.3,3.226,3.226,0,0,0,179.328.168Zm.564-1.728a1.63,1.63,0,0,1-1.584-1.764,1.637,1.637,0,0,1,1.584-1.764,1.611,1.611,0,0,1,1.548,1.764A1.611,1.611,0,0,1,179.892-1.56ZM184.92,0h1.92V-3.252a1.485,1.485,0,0,1,1.572-1.68,2.163,2.163,0,0,1,.552.06v-1.8a2.051,2.051,0,0,0-.5-.048,2.035,2.035,0,0,0-1.8,1.068h-.024l-.192-1H184.92Zm9.948-8.184H193.02v1.536h-.948v1.584h.936v2.508a2.472,2.472,0,0,0,2.712,2.7,4.557,4.557,0,0,0,1.044-.108V-1.572a3.756,3.756,0,0,1-.6.06c-.744,0-1.3-.324-1.3-1.164V-5.064h1.776V-6.648h-1.776Zm6.12,8.352a3.386,3.386,0,0,0,3.492-3.492,3.372,3.372,0,0,0-3.492-3.492A3.386,3.386,0,0,0,197.5-3.324,3.393,3.393,0,0,0,200.988.168Zm0-1.728a1.612,1.612,0,0,1-1.548-1.764,1.612,1.612,0,0,1,1.548-1.764,1.62,1.62,0,0,1,1.56,1.764A1.628,1.628,0,0,1,200.988-1.56Zm4.728,4.08h1.92V-.972a2.456,2.456,0,0,0,2.088,1.14c1.56,0,2.94-1.356,2.94-3.492a3.205,3.205,0,0,0-2.976-3.492,2.55,2.55,0,0,0-2.172,1.188l-.192-1.02h-1.608Zm3.432-4.08a1.6,1.6,0,0,1-1.536-1.764,1.6,1.6,0,0,1,1.548-1.764,1.609,1.609,0,0,1,1.56,1.752A1.632,1.632,0,0,1,209.148-1.56Zm4.716-1.524h3.492V-4.56h-3.492Zm7.98,3.252A2.785,2.785,0,0,0,224.892-2.7V-6.648h-1.92v3.936a1.031,1.031,0,0,1-1.128,1.152,1.007,1.007,0,0,1-1.092-1.14V-6.648h-1.92V-2.7A2.761,2.761,0,0,0,221.844.168ZM226.4,2.52h1.92V-.972a2.456,2.456,0,0,0,2.088,1.14c1.56,0,2.94-1.356,2.94-3.492a3.205,3.205,0,0,0-2.976-3.492A2.55,2.55,0,0,0,228.2-5.628l-.192-1.02H226.4Zm3.432-4.08A1.6,1.6,0,0,1,228.3-3.324a1.6,1.6,0,0,1,1.548-1.764,1.609,1.609,0,0,1,1.56,1.752A1.632,1.632,0,0,1,229.836-1.56Zm7.236-5.256c-1.716,0-2.712.9-2.712,2.124s.984,1.644,2.04,1.944c.864.24,1.344.372,1.344.78,0,.36-.384.576-1.056.576A3.578,3.578,0,0,1,234.4-2.22V-.456a4.378,4.378,0,0,0,2.376.624c1.8,0,2.832-.84,2.832-2.148,0-1.4-1.164-1.776-2.256-2.04-.756-.2-1.14-.348-1.14-.708,0-.324.336-.528.936-.528a3.855,3.855,0,0,1,2.028.588V-6.3A4.183,4.183,0,0,0,237.072-6.816Zm4.74,2.928a1.061,1.061,0,0,0,1.08-1.08,1.058,1.058,0,0,0-1.08-1.068,1.065,1.065,0,0,0-1.08,1.068A1.068,1.068,0,0,0,241.812-3.888Zm0,3.972A1.068,1.068,0,0,0,242.892-1a1.061,1.061,0,0,0-1.08-1.08A1.068,1.068,0,0,0,240.732-1,1.076,1.076,0,0,0,241.812.084Z" transform="translate(32 517)"/><path d="M.972,0H6.588V-1.752H2.928V-3.708H6.276v-1.62H2.928v-1.86h3.66V-8.952H.972Zm9.576-6.816c-1.716,0-2.712.9-2.712,2.124s.984,1.644,2.04,1.944c.864.24,1.344.372,1.344.78,0,.36-.384.576-1.056.576A3.578,3.578,0,0,1,7.872-2.22V-.456a4.378,4.378,0,0,0,2.376.624c1.8,0,2.832-.84,2.832-2.148,0-1.4-1.164-1.776-2.256-2.04-.756-.2-1.14-.348-1.14-.708,0-.324.336-.528.936-.528a3.855,3.855,0,0,1,2.028.588V-6.3A4.183,4.183,0,0,0,10.548-6.816Zm5.976-1.368H14.676v1.536h-.948v1.584h.936v2.508a2.472,2.472,0,0,0,2.712,2.7A4.557,4.557,0,0,0,18.42.036V-1.572a3.756,3.756,0,0,1-.6.06c-.744,0-1.3-.324-1.3-1.164V-5.064H18.3V-6.648H16.524Zm4,.624A1.037,1.037,0,0,0,21.564-8.6,1.035,1.035,0,0,0,20.52-9.636,1.03,1.03,0,0,0,19.464-8.6,1.033,1.033,0,0,0,20.52-7.56ZM19.56,0h1.92V-6.648H19.56ZM30.42-6.816a2.181,2.181,0,0,0-1.908,1.128,1.924,1.924,0,0,0-1.86-1.128A2.064,2.064,0,0,0,24.8-5.724h-.036l-.192-.924H23.088V0h1.92V-4a.965.965,0,0,1,.96-1.08c.648,0,.888.348.888,1.068V0h1.92V-4.08a.938.938,0,0,1,.972-1c.648,0,.888.348.888,1.068V0h1.92V-4.4C32.556-5.856,31.872-6.816,30.42-6.816ZM36.708.168A2.5,2.5,0,0,0,38.892-1.02L39.084,0H40.7V-6.648h-1.62l-.192,1.02a2.525,2.525,0,0,0-2.184-1.188A3.242,3.242,0,0,0,33.756-3.3,3.226,3.226,0,0,0,36.708.168Zm.564-1.728a1.63,1.63,0,0,1-1.584-1.764,1.637,1.637,0,0,1,1.584-1.764A1.611,1.611,0,0,1,38.82-3.324,1.611,1.611,0,0,1,37.272-1.56Zm7.284-6.624H42.708v1.536H41.76v1.584H42.7v2.508a2.472,2.472,0,0,0,2.712,2.7A4.557,4.557,0,0,0,46.452.036V-1.572a3.756,3.756,0,0,1-.6.06c-.744,0-1.3-.324-1.3-1.164V-5.064h1.776V-6.648H44.556ZM53.6-3.432c0-2.22-1.38-3.384-3.072-3.384A3.323,3.323,0,0,0,47.2-3.3,3.35,3.35,0,0,0,50.88.168a4.562,4.562,0,0,0,2.316-.6V-2a3.863,3.863,0,0,1-2.076.66,2,2,0,0,1-2.088-1.44h4.524A3.565,3.565,0,0,0,53.6-3.432ZM49-3.936A1.6,1.6,0,0,1,50.52-5.3a1.253,1.253,0,0,1,1.26,1.368ZM57.48.168A2.5,2.5,0,0,0,59.628-1.02L59.82,0h1.62V-9.636H59.52v3.96a2.37,2.37,0,0,0-2.064-1.14,3.2,3.2,0,0,0-2.964,3.492A3.214,3.214,0,0,0,57.48.168ZM58-1.56a1.629,1.629,0,0,1-1.572-1.764A1.636,1.636,0,0,1,58-5.088a1.611,1.611,0,0,1,1.548,1.764A1.611,1.611,0,0,1,58-1.56ZM66.024,0h1.92V-3.252a1.485,1.485,0,0,1,1.572-1.68,2.162,2.162,0,0,1,.552.06v-1.8a2.051,2.051,0,0,0-.5-.048,2.035,2.035,0,0,0-1.8,1.068H67.74l-.192-1H66.024ZM76.956-3.432c0-2.22-1.38-3.384-3.072-3.384A3.323,3.323,0,0,0,70.548-3.3,3.35,3.35,0,0,0,74.232.168a4.562,4.562,0,0,0,2.316-.6V-2a3.863,3.863,0,0,1-2.076.66,2,2,0,0,1-2.088-1.44h4.524A3.565,3.565,0,0,0,76.956-3.432Zm-4.608-.5A1.6,1.6,0,0,1,73.872-5.3a1.253,1.253,0,0,1,1.26,1.368Zm8.328-2.88c-1.716,0-2.712.9-2.712,2.124S78.948-3.048,80-2.748c.864.24,1.344.372,1.344.78,0,.36-.384.576-1.056.576A3.578,3.578,0,0,1,78-2.22V-.456a4.378,4.378,0,0,0,2.376.624c1.8,0,2.832-.84,2.832-2.148,0-1.4-1.164-1.776-2.256-2.04-.756-.2-1.14-.348-1.14-.708,0-.324.336-.528.936-.528a3.855,3.855,0,0,1,2.028.588V-6.3A4.183,4.183,0,0,0,80.676-6.816Zm6.7,6.984A2.785,2.785,0,0,0,90.42-2.7V-6.648H88.5v3.936A1.031,1.031,0,0,1,87.372-1.56,1.007,1.007,0,0,1,86.28-2.7V-6.648H84.36V-2.7A2.761,2.761,0,0,0,87.372.168ZM91.944,0h1.92V-9.636h-1.92Zm5.784-8.184H95.88v1.536h-.948v1.584h.936v2.508A2.472,2.472,0,0,0,98.58.144,4.557,4.557,0,0,0,99.624.036V-1.572a3.756,3.756,0,0,1-.6.06c-.744,0-1.3-.324-1.3-1.164V-5.064H99.5V-6.648H97.728Z" transform="translate(32 325)"/><path d="M-7.5-8.952H-9.36V-3.2h-.012L-13.32-8.952h-1.9V0h1.872V-5.844h.012L-9.348,0H-7.5ZM-2.628.168A3.386,3.386,0,0,0,.864-3.324,3.372,3.372,0,0,0-2.628-6.816,3.386,3.386,0,0,0-6.12-3.324,3.393,3.393,0,0,0-2.628.168Zm0-1.728A1.612,1.612,0,0,1-4.176-3.324,1.612,1.612,0,0,1-2.628-5.088a1.62,1.62,0,0,1,1.56,1.764A1.628,1.628,0,0,1-2.628-1.56ZM5.82-6.816a2.338,2.338,0,0,0-2,1.1H3.78l-.192-.936H2.1V0H4.02V-3.936a1.1,1.1,0,0,1,1.152-1.14c.7,0,1.056.372,1.056,1.188V0h1.92V-4.44A2.17,2.17,0,0,0,5.82-6.816Zm9.924,3.384c0-2.22-1.38-3.384-3.072-3.384A3.323,3.323,0,0,0,9.336-3.3,3.35,3.35,0,0,0,13.02.168a4.562,4.562,0,0,0,2.316-.6V-2a3.863,3.863,0,0,1-2.076.66,2,2,0,0,1-2.088-1.44H15.7A3.565,3.565,0,0,0,15.744-3.432Zm-4.608-.5A1.6,1.6,0,0,1,12.66-5.3a1.253,1.253,0,0,1,1.26,1.368Z" transform="translate(48 557)" fill="#5b6770" opacity="0.8"/><path d="M-13.386-2.688c0-1.644-1.236-2.2-2.46-2.616-.768-.264-1.38-.516-1.38-1.056,0-.456.456-.828,1.224-.828a3.725,3.725,0,0,1,2.1.708V-8.364a4.771,4.771,0,0,0-1.68-.516v-.888h-1.56v.984A2.526,2.526,0,0,0-19.194-6.36c0,1.584,1.188,2.136,2.4,2.556.828.276,1.428.54,1.428,1.128s-.576.96-1.416.96A3.47,3.47,0,0,1-19.17-2.724V-.708a4.853,4.853,0,0,0,2.028.684V.864h1.56V-.108A2.692,2.692,0,0,0-13.386-2.688Zm.8,2.688H-6.03V-1.752H-9.066C-7.434-3.516-6.4-4.824-6.4-6.144A2.948,2.948,0,0,0-9.594-9.156a3.935,3.935,0,0,0-2.484.852v1.956A2.946,2.946,0,0,1-9.942-7.356,1.418,1.418,0,0,1-8.418-5.94C-8.418-5.04-8.766-4.428-12.582,0ZM-1.194-9.156c-2.04,0-3.66,1.8-3.66,4.692C-4.854-1.6-3.234.2-1.194.2S2.478-1.6,2.478-4.464C2.478-7.356.834-9.156-1.194-9.156Zm0,1.8C-.234-7.356.57-6.3.57-4.464.57-2.652-.234-1.6-1.194-1.6S-2.91-2.652-2.91-4.464C-2.91-6.3-2.154-7.356-1.194-7.356ZM3.1,1.608H4.914L8.958-10.548H7.134ZM15.654,0h2.184l1.788-6.648H17.718l-1.044,4.62h-.036L15.4-6.648H13.53l-1.26,4.62h-.036l-1-4.62H9.222L11,0h2.208L14.43-4.32h.036Z" transform="translate(100 557)" fill="#00a7b5"/><path d="M-13.23-2.688c0-1.644-1.236-2.2-2.46-2.616-.768-.264-1.38-.516-1.38-1.056,0-.456.456-.828,1.224-.828a3.725,3.725,0,0,1,2.1.708V-8.364a4.771,4.771,0,0,0-1.68-.516v-.888h-1.56v.984A2.526,2.526,0,0,0-19.038-6.36c0,1.584,1.188,2.136,2.4,2.556.828.276,1.428.54,1.428,1.128s-.576.96-1.416.96a3.47,3.47,0,0,1-2.388-1.008V-.708a4.853,4.853,0,0,0,2.028.684V.864h1.56V-.108A2.692,2.692,0,0,0-13.23-2.688Zm6.6-6.264h-4.44l-.72,4.86.3.2A3.512,3.512,0,0,1-10-4.212c1.2,0,1.788.588,1.788,1.32s-.576,1.284-1.62,1.284a3.343,3.343,0,0,1-2.3-.936v2A4.259,4.259,0,0,0-9.63.2,3.141,3.141,0,0,0-6.186-2.9,2.815,2.815,0,0,0-9.258-5.7,3.119,3.119,0,0,0-10-5.6l.288-1.584H-6.63Zm5.28-.2c-2.04,0-3.66,1.8-3.66,4.692C-5.01-1.6-3.39.2-1.35.2S2.322-1.6,2.322-4.464C2.322-7.356.678-9.156-1.35-9.156Zm0,1.8C-.39-7.356.414-6.3.414-4.464.414-2.652-.39-1.6-1.35-1.6S-3.066-2.652-3.066-4.464C-3.066-6.3-2.31-7.356-1.35-7.356Zm4.3,8.964H4.758L8.8-10.548H6.978ZM15.5,0h2.184L19.47-6.648H17.562l-1.044,4.62h-.036l-1.236-4.62H13.374l-1.26,4.62h-.036l-1-4.62H9.066L10.842,0H13.05l1.224-4.32h.036Z" transform="translate(156 557)" fill="#5b6770" opacity="0.8"/><path d="M-16.794-2.688c0-1.644-1.236-2.2-2.46-2.616-.768-.264-1.38-.516-1.38-1.056,0-.456.456-.828,1.224-.828a3.725,3.725,0,0,1,2.1.708V-8.364a4.771,4.771,0,0,0-1.68-.516v-.888h-1.56v.984A2.526,2.526,0,0,0-22.6-6.36c0,1.584,1.188,2.136,2.4,2.556.828.276,1.428.54,1.428,1.128s-.576.96-1.416.96a3.47,3.47,0,0,1-2.388-1.008V-.708a4.853,4.853,0,0,0,2.028.684V.864h1.56V-.108A2.692,2.692,0,0,0-16.794-2.688ZM-13.9,0h1.92V-9.036h-.144l-3.756,1.464V-5.64l1.98-.8Zm7.56-9.156c-2.04,0-3.66,1.8-3.66,4.692C-10-1.6-8.382.2-6.342.2S-2.67-1.6-2.67-4.464C-2.67-7.356-4.314-9.156-6.342-9.156Zm0,1.8c.96,0,1.764,1.056,1.764,2.892,0,1.812-.8,2.868-1.764,2.868S-8.058-2.652-8.058-4.464C-8.058-6.3-7.3-7.356-6.342-7.356Zm8.556-1.8c-2.04,0-3.66,1.8-3.66,4.692C-1.446-1.6.174.2,2.214.2S5.886-1.6,5.886-4.464C5.886-7.356,4.242-9.156,2.214-9.156Zm0,1.8c.96,0,1.764,1.056,1.764,2.892,0,1.812-.8,2.868-1.764,2.868S.5-2.652.5-4.464C.5-6.3,1.254-7.356,2.214-7.356Zm4.3,8.964H8.322l4.044-12.156H10.542ZM19.062,0h2.184l1.788-6.648H21.126l-1.044,4.62h-.036L18.81-6.648H16.938l-1.26,4.62h-.036l-1-4.62H12.63L14.406,0h2.208l1.224-4.32h.036Z" transform="translate(215 557)" fill="#5b6770" opacity="0.8"/><path d="M0,0H208V1H0Z" transform="translate(32 571)" fill="#5b6770" opacity="0.2"/><path d="M0,0H40V1H0Z" transform="translate(80 571)" fill="#00a7b5"/><g transform="matrix(1, 0, 0, 1, 0, 0)" filter="url(#u)"><path d="M8,0H144a8,8,0,0,1,8,8V120a8,8,0,0,1-8,8H8a8,8,0,0,1-8-8V8A8,8,0,0,1,8,0Z" transform="translate(32 344)" fill="#fff"/></g><g transform="matrix(1, 0, 0, 1, 0, 0)" filter="url(#w)"><path d="M8,0H144a8,8,0,0,1,8,8V120a8,8,0,0,1-8,8H8a8,8,0,0,1-8-8V8A8,8,0,0,1,8,0Z" transform="translate(192 344)" fill="#fff"/></g><path d="M5.484-4.62A2.008,2.008,0,0,0,6.84-6.612c0-1.32-1-2.316-2.9-2.316H1.224V0H4.08C6.12,0,7.128-1.116,7.128-2.46A2.153,2.153,0,0,0,5.484-4.62ZM2.328-7.92H4.02c1.068,0,1.716.528,1.716,1.416,0,.852-.636,1.488-1.8,1.488H2.328ZM4.056-1.008H2.328V-4.092H4.116c1.092,0,1.9.552,1.9,1.536C6.012-1.656,5.328-1.008,4.056-1.008ZM11.328.144a2.61,2.61,0,0,0,2.316-1.332L13.776,0h.9V-6.492h-.9l-.132,1.2a2.621,2.621,0,0,0-2.316-1.344,3.141,3.141,0,0,0-2.952,3.4A3.144,3.144,0,0,0,11.328.144Zm.228-1.032A2.151,2.151,0,0,1,9.492-3.24,2.155,2.155,0,0,1,11.556-5.6a2.157,2.157,0,0,1,2.052,2.352A2.161,2.161,0,0,1,11.556-.888ZM16.716,0h1.1V-9.6h-1.1Zm5.676.144a2.61,2.61,0,0,0,2.316-1.332L24.84,0h.9V-6.492h-.9l-.132,1.2a2.621,2.621,0,0,0-2.316-1.344,3.141,3.141,0,0,0-2.952,3.4A3.144,3.144,0,0,0,22.392.144ZM22.62-.888A2.151,2.151,0,0,1,20.556-3.24,2.155,2.155,0,0,1,22.62-5.6a2.157,2.157,0,0,1,2.052,2.352A2.161,2.161,0,0,1,22.62-.888Zm8.136-5.748a2.342,2.342,0,0,0-1.992,1.128h-.036l-.12-.984h-.852V0h1.1V-3.96a1.57,1.57,0,0,1,1.62-1.62c.972,0,1.488.54,1.488,1.68V0h1.1V-4.3A2.18,2.18,0,0,0,30.756-6.636Zm4.956,3.384A2.239,2.239,0,0,1,37.932-5.6a2.74,2.74,0,0,1,1.74.552V-6.18a3.325,3.325,0,0,0-1.8-.456A3.261,3.261,0,0,0,34.6-3.252a3.257,3.257,0,0,0,3.276,3.4,3.6,3.6,0,0,0,1.8-.444V-1.416a2.778,2.778,0,0,1-1.728.528A2.238,2.238,0,0,1,35.712-3.252Zm11-.12c0-2.136-1.26-3.264-2.8-3.264a3.188,3.188,0,0,0-3.132,3.42A3.125,3.125,0,0,0,44.076.144a3.782,3.782,0,0,0,2.268-.72V-1.668a3.354,3.354,0,0,1-2.184.852A2.213,2.213,0,0,1,41.868-2.88H46.68A2.947,2.947,0,0,0,46.716-3.372Zm-4.848-.336a2.108,2.108,0,0,1,2.04-1.968,1.769,1.769,0,0,1,1.74,1.968Z" transform="translate(48 453)"/><path d="M1.224,0H2.34V-8.928H1.224ZM7.572-6.636A2.342,2.342,0,0,0,5.58-5.508H5.544l-.12-.984H4.572V0h1.1V-3.96A1.57,1.57,0,0,1,7.3-5.58c.972,0,1.488.54,1.488,1.68V0h1.1V-4.3A2.18,2.18,0,0,0,7.572-6.636Zm4.956,3.384A2.239,2.239,0,0,1,14.748-5.6a2.74,2.74,0,0,1,1.74.552V-6.18a3.325,3.325,0,0,0-1.8-.456,3.261,3.261,0,0,0-3.276,3.384,3.257,3.257,0,0,0,3.276,3.4,3.6,3.6,0,0,0,1.8-.444V-1.416a2.778,2.778,0,0,1-1.728.528A2.238,2.238,0,0,1,12.528-3.252Zm8.3,3.4A3.22,3.22,0,0,0,24.048-3.24a3.224,3.224,0,0,0-3.216-3.4,3.236,3.236,0,0,0-3.24,3.4A3.225,3.225,0,0,0,20.832.144Zm0-1.032A2.174,2.174,0,0,1,18.708-3.24,2.185,2.185,0,0,1,20.832-5.6,2.183,2.183,0,0,1,22.944-3.24,2.179,2.179,0,0,1,20.832-.888ZM32.076-6.636A2.076,2.076,0,0,0,30.2-5.5a1.79,1.79,0,0,0-1.8-1.14,1.938,1.938,0,0,0-1.74,1.1h-.036l-.12-.96h-.852V0h1.1V-4.092A1.369,1.369,0,0,1,28.1-5.58c.864,0,1.236.492,1.236,1.428V0h1.1V-4.152A1.348,1.348,0,0,1,31.8-5.58c.864,0,1.224.492,1.224,1.428V0h1.1V-4.332C34.128-5.688,33.492-6.636,32.076-6.636ZM41.6-3.372c0-2.136-1.26-3.264-2.8-3.264a3.188,3.188,0,0,0-3.132,3.42A3.125,3.125,0,0,0,38.964.144a3.782,3.782,0,0,0,2.268-.72V-1.668a3.354,3.354,0,0,1-2.184.852A2.213,2.213,0,0,1,36.756-2.88h4.812A2.947,2.947,0,0,0,41.6-3.372Zm-4.848-.336A2.108,2.108,0,0,1,38.8-5.676a1.769,1.769,0,0,1,1.74,1.968Zm12.672-5.22H48.2A7.622,7.622,0,0,0,46.092-3.7,7.607,7.607,0,0,0,48.2,1.548h1.224A7.323,7.323,0,0,1,47.148-3.7,7.269,7.269,0,0,1,49.428-8.928ZM50.844,0h1.1V-5.532h1.86v-.96H51.936V-7.32c0-.912.444-1.308,1.248-1.308a2.787,2.787,0,0,1,.948.168V-9.48a3.574,3.574,0,0,0-1.08-.18,2.1,2.1,0,0,0-2.208,2.2v.972h-.936v.96h.936Zm6.792.144A3.22,3.22,0,0,0,60.852-3.24a3.224,3.224,0,0,0-3.216-3.4,3.236,3.236,0,0,0-3.24,3.4A3.225,3.225,0,0,0,57.636.144Zm0-1.032A2.174,2.174,0,0,1,55.512-3.24,2.185,2.185,0,0,1,57.636-5.6,2.183,2.183,0,0,1,59.748-3.24,2.179,2.179,0,0,1,57.636-.888ZM62.46,0h1.1V-3.7A1.682,1.682,0,0,1,65.3-5.52a2.793,2.793,0,0,1,.456.048V-6.528a2.325,2.325,0,0,0-.432-.036,2.1,2.1,0,0,0-1.86,1.1h-.012l-.12-1.032H62.46Zm5.868-8.016H67.272v1.524h-1v.96h.972v3.264A2.148,2.148,0,0,0,69.564.084a4.067,4.067,0,0,0,.768-.072v-.96a3.357,3.357,0,0,1-.576.06,1.289,1.289,0,0,1-1.428-1.428V-5.532h1.86v-.96h-1.86Zm6.324,1.38A2.342,2.342,0,0,0,72.66-5.508h-.036l-.12-.984h-.852V0h1.1V-3.96a1.57,1.57,0,0,1,1.62-1.62c.972,0,1.488.54,1.488,1.68V0h1.1V-4.3A2.18,2.18,0,0,0,74.652-6.636ZM79.488-7.98a.659.659,0,0,0,.684-.672.659.659,0,0,0-.684-.672.659.659,0,0,0-.684.672A.659.659,0,0,0,79.488-7.98ZM78.936,0h1.1V-6.492h-1.1Zm5.676-6.624A3.107,3.107,0,0,0,81.66-3.36,3.08,3.08,0,0,0,84.612-.108a2.644,2.644,0,0,0,2.232-1.224v.984a2.005,2.005,0,0,1-2.136,1.98,3.543,3.543,0,0,1-2.376-.96V1.86a4.108,4.108,0,0,0,2.424.8A3.032,3.032,0,0,0,87.948-.528V-6.492h-.9l-.132,1.128A2.663,2.663,0,0,0,84.612-6.624Zm.216,1.02A2.083,2.083,0,0,1,86.88-3.4a2.133,2.133,0,0,1-2.052,2.28,2.112,2.112,0,0,1-2.052-2.232A2.119,2.119,0,0,1,84.828-5.6Zm6.24-4h-1.1V0h1.1V-4.02A1.5,1.5,0,0,1,92.688-5.6c1,0,1.488.552,1.488,1.692V0h1.1V-4.3a2.14,2.14,0,0,0-2.34-2.34,2.234,2.234,0,0,0-1.86.924h-.012Zm7.476,1.584H97.488v1.524h-1v.96h.972v3.264A2.148,2.148,0,0,0,99.78.084a4.067,4.067,0,0,0,.768-.072v-.96a3.357,3.357,0,0,1-.576.06,1.289,1.289,0,0,1-1.428-1.428V-5.532h1.86v-.96h-1.86ZM101.892,0H103V-9.6h-1.1Zm8.364-6.492H109.1l-1.788,4.944h-.024L105.5-6.492h-1.2l2.424,6.264L105.612,2.52h1.128Zm-.024-2.436a7.269,7.269,0,0,1,2.28,5.232,7.323,7.323,0,0,1-2.28,5.244h1.224A7.607,7.607,0,0,0,113.568-3.7a7.622,7.622,0,0,0-2.112-5.232Z" transform="translate(208 453)"/><path d="M12.936-5.376c0-3.288-2.472-4.392-4.92-5.232-1.536-.528-2.76-1.032-2.76-2.112,0-.912.912-1.656,2.448-1.656a7.449,7.449,0,0,1,4.2,1.416v-3.768a9.541,9.541,0,0,0-3.36-1.032v-1.776H5.424v1.968a5.052,5.052,0,0,0-4.1,4.848c0,3.168,2.376,4.272,4.8,5.112,1.656.552,2.856,1.08,2.856,2.256s-1.152,1.92-2.832,1.92A6.941,6.941,0,0,1,1.368-5.448v4.032A9.707,9.707,0,0,0,5.424-.048V1.728h3.12V-.216A5.383,5.383,0,0,0,12.936-5.376ZM14.544,0h13.1V-3.5H21.576C24.84-7.032,26.9-9.648,26.9-12.288c0-3.528-2.52-6.024-6.384-6.024a7.87,7.87,0,0,0-4.968,1.7V-12.7a5.891,5.891,0,0,1,4.272-2.016,2.835,2.835,0,0,1,3.048,2.832C22.872-10.08,22.176-8.856,14.544,0ZM36.456-18.312a6.537,6.537,0,0,0-6.84,6.528A5.9,5.9,0,0,0,35.664-5.9h.168L31.128,0H35.76l4.8-5.928A9.33,9.33,0,0,0,43.224-11.9,6.4,6.4,0,0,0,36.456-18.312Zm1.9,9.264a4.531,4.531,0,0,1-1.68.312,3.039,3.039,0,0,1-3.192-3.1,2.981,2.981,0,0,1,3-3.048,2.947,2.947,0,0,1,2.976,3.048A4.4,4.4,0,0,1,38.352-9.048Zm21.336,2.04H56.832V-17.9H53.448L44.736-6.1V-3.84h8.472V0h3.624V-3.84h2.856Zm-10.944,0v-.024l4.464-6.12v6.144ZM61.032,3.216h2.736a16.433,16.433,0,0,0,1.656-6.288V-4.1H61.992v1.32A21.092,21.092,0,0,1,61.032,3.216Zm13.92-21.528c-4.08,0-7.32,3.6-7.32,9.384,0,5.736,3.24,9.336,7.32,9.336,4.056,0,7.344-3.6,7.344-9.336C82.3-14.712,79.008-18.312,74.952-18.312Zm0,3.6c1.92,0,3.528,2.112,3.528,5.784,0,3.624-1.608,5.736-3.528,5.736S71.52-5.3,71.52-8.928C71.52-12.6,73.032-14.712,74.952-14.712Zm17.112-3.6c-4.08,0-7.32,3.6-7.32,9.384,0,5.736,3.24,9.336,7.32,9.336,4.056,0,7.344-3.6,7.344-9.336C99.408-14.712,96.12-18.312,92.064-18.312Zm0,3.6c1.92,0,3.528,2.112,3.528,5.784,0,3.624-1.608,5.736-3.528,5.736S88.632-5.3,88.632-8.928C88.632-12.6,90.144-14.712,92.064-14.712Zm17.112-3.6c-4.08,0-7.32,3.6-7.32,9.384,0,5.736,3.24,9.336,7.32,9.336,4.056,0,7.344-3.6,7.344-9.336C116.52-14.712,113.232-18.312,109.176-18.312Zm0,3.6c1.92,0,3.528,2.112,3.528,5.784,0,3.624-1.608,5.736-3.528,5.736s-3.432-2.112-3.432-5.736C105.744-12.6,107.256-14.712,109.176-14.712Z" transform="translate(48 425)"/><path d="M12.936-5.376c0-3.288-2.472-4.392-4.92-5.232-1.536-.528-2.76-1.032-2.76-2.112,0-.912.912-1.656,2.448-1.656a7.449,7.449,0,0,1,4.2,1.416v-3.768a9.541,9.541,0,0,0-3.36-1.032v-1.776H5.424v1.968a5.052,5.052,0,0,0-4.1,4.848c0,3.168,2.376,4.272,4.8,5.112,1.656.552,2.856,1.08,2.856,2.256s-1.152,1.92-2.832,1.92A6.941,6.941,0,0,1,1.368-5.448v4.032A9.707,9.707,0,0,0,5.424-.048V1.728h3.12V-.216A5.383,5.383,0,0,0,12.936-5.376ZM15.6-16.728V-13.2a6.045,6.045,0,0,1,4.224-1.656c1.92,0,2.928.936,2.928,2.112,0,1.224-1.032,2.16-3.336,2.16H17.568v2.976h2.256c2.232,0,3.36.936,3.36,2.232,0,1.392-1.392,2.3-3.336,2.3A6.222,6.222,0,0,1,15.24-5.064v3.816A8.507,8.507,0,0,0,20.472.408c4.32,0,6.648-2.616,6.648-5.352A4.572,4.572,0,0,0,24.1-9.288V-9.36a4.369,4.369,0,0,0,2.472-4.008c0-2.616-2.112-4.944-6.024-4.944A7.9,7.9,0,0,0,15.6-16.728ZM28.872,3.216h2.736a16.433,16.433,0,0,0,1.656-6.288V-4.1H29.832v1.32A21.092,21.092,0,0,1,28.872,3.216Zm18.1-21.12h-8.88l-1.44,9.72.6.408a7.024,7.024,0,0,1,2.976-.648c2.4,0,3.576,1.176,3.576,2.64,0,1.44-1.152,2.568-3.24,2.568a6.686,6.686,0,0,1-4.608-1.872V-1.08A8.518,8.518,0,0,0,40.968.408c4.632,0,6.888-3.12,6.888-6.216,0-2.928-2.16-5.592-6.144-5.592a6.237,6.237,0,0,0-1.488.192l.576-3.168h6.168Zm10.56-.408c-4.08,0-7.32,3.6-7.32,9.384,0,5.736,3.24,9.336,7.32,9.336,4.056,0,7.344-3.6,7.344-9.336C64.872-14.712,61.584-18.312,57.528-18.312Zm0,3.6c1.92,0,3.528,2.112,3.528,5.784,0,3.624-1.608,5.736-3.528,5.736S54.1-5.3,54.1-8.928C54.1-12.6,55.608-14.712,57.528-14.712Zm17.112-3.6c-4.08,0-7.32,3.6-7.32,9.384,0,5.736,3.24,9.336,7.32,9.336,4.056,0,7.344-3.6,7.344-9.336C81.984-14.712,78.7-18.312,74.64-18.312Zm0,3.6c1.92,0,3.528,2.112,3.528,5.784,0,3.624-1.608,5.736-3.528,5.736S71.208-5.3,71.208-8.928C71.208-12.6,72.72-14.712,74.64-14.712Z" transform="translate(208 425)"/><path d="M25.389,17.933h-.631a7.574,7.574,0,0,0-2.45-3.137,11.6,11.6,0,0,1,1.086-1.461.6.6,0,0,0-.429-.982,9.7,9.7,0,0,0-3.915.718,13.38,13.38,0,0,0-4.344-.718A11.991,11.991,0,0,0,6.169,15.61L4.7,14.748a1.439,1.439,0,0,0-1.92.431A1.283,1.283,0,0,0,3.239,17l1.44.838a5.854,5.854,0,0,0-.455,2.3,6.732,6.732,0,0,0,2.652,5.149l1.313,4.478A.836.836,0,0,0,9,30.338H12.1a.8.8,0,0,0,.808-1.006l-.48-1.628a13.431,13.431,0,0,0,4.521,0l.606,2.036a.836.836,0,0,0,.808.575h3.107a.8.8,0,0,0,.808-1.006l-.934-3.185a8.116,8.116,0,0,0,3.41-3.76h.657a1.146,1.146,0,0,0,1.162-1.1V18.987A1.183,1.183,0,0,0,25.389,17.933ZM15.943,15.9a8.119,8.119,0,0,0-2.021-.1,7.772,7.772,0,0,0-2.93.814.813.813,0,0,1-.328.072.687.687,0,0,1-.606-.335.658.658,0,0,1,.278-.91,8.961,8.961,0,0,1,3.485-.982,9.762,9.762,0,0,1,2.374.1.657.657,0,0,1,.556.766A.674.674,0,0,1,15.943,15.9Zm5,2.682A1.007,1.007,0,1,1,22,17.574,1.041,1.041,0,0,1,20.944,18.579Z" transform="translate(45.424 348.662)" fill="#00a7b5"/><g transform="translate(62 265.989)"><g transform="translate(146 94.011)"><path d="M164,108.011h-7.522l-2.285-2,2.285-2H164Zm-5.483-11.73.865,1.73h-5.189ZM164,102.01v-2a2,2,0,0,0-2-2h-.382l-1.723-3.447a1,1,0,0,0-1.267-.482l-9.821,3.929H148a2,2,0,0,0-2,2v12a2,2,0,0,0,2,2h14a2,2,0,0,0,2-2v-2h1a1,1,0,0,0,1-1v-6a1,1,0,0,0-1-1Z" transform="translate(-146 -94.011)" fill="#00a7b5" fill-rule="evenodd"/><rect width="2" height="1.714" rx="0.857" transform="translate(10.857 11.14)" fill="#00a7b5"/></g></g><path d="M-714,270l6,6,6-6" transform="translate(895.5 620.5)" fill="none" stroke="#c1c6c8" stroke-width="2"/><path d="M6.744,0h1.68V-8.94H6.744v3.672H2.736V-8.94H1.056V0h1.68V-3.72H6.744Zm6.6.168A3.337,3.337,0,0,0,16.74-3.3a3.32,3.32,0,0,0-3.4-3.456A3.336,3.336,0,0,0,9.936-3.3,3.34,3.34,0,0,0,13.344.168Zm0-1.512A1.8,1.8,0,0,1,11.6-3.3a1.8,1.8,0,0,1,1.74-1.956A1.791,1.791,0,0,1,15.072-3.3,1.8,1.8,0,0,1,13.344-1.344ZM23.772,0h1.884l1.788-6.6H25.812L24.66-1.776h-.036L23.256-6.6H21.612L20.22-1.776h-.036L19.08-6.6H17.34L19.14,0h1.9l1.356-4.572h.036Zm9.54-8.136h-1.6V-6.6h-.972v1.38h.96v2.748a2.373,2.373,0,0,0,2.58,2.6,4.248,4.248,0,0,0,.948-.1V-1.38a3.491,3.491,0,0,1-.588.06c-.768,0-1.332-.348-1.332-1.236V-5.22h1.8V-6.6h-1.8Zm4.764-1.488H36.42V0h1.656V-3.984A1.215,1.215,0,0,1,39.4-5.256c.792,0,1.188.432,1.188,1.344V0H42.24V-4.392A2.152,2.152,0,0,0,39.9-6.756a2.253,2.253,0,0,0-1.8.84h-.024Zm6.7,1.92a.907.907,0,0,0,.924-.912.917.917,0,0,0-.924-.924.92.92,0,0,0-.936.924A.91.91,0,0,0,44.772-7.7ZM43.944,0H45.6V-6.6H43.944ZM49.68-6.756c-1.62,0-2.592.864-2.592,2.052s.972,1.6,2.04,1.9c.888.264,1.4.42,1.4.888,0,.432-.42.708-1.164.708a3.349,3.349,0,0,1-2.256-.864V-.5A4.018,4.018,0,0,0,49.44.168c1.7,0,2.7-.828,2.7-2.1,0-1.368-1.152-1.728-2.208-2-.8-.216-1.236-.384-1.236-.8,0-.4.372-.648,1.044-.648a3.535,3.535,0,0,1,1.992.612V-6.228A3.967,3.967,0,0,0,49.68-6.756ZM56.556,2.52h1.656V-1.02A2.547,2.547,0,0,0,60.36.168c1.548,0,2.94-1.356,2.94-3.468a3.178,3.178,0,0,0-2.976-3.456A2.54,2.54,0,0,0,58.116-5.52L57.948-6.6H56.556Zm3.336-3.864a1.788,1.788,0,0,1-1.7-1.956A1.789,1.789,0,0,1,59.9-5.256a1.787,1.787,0,0,1,1.728,1.944A1.8,1.8,0,0,1,59.892-1.344ZM64.668,0h1.656V-3.4a1.549,1.549,0,0,1,1.632-1.728,2.62,2.62,0,0,1,.528.048V-6.624A1.971,1.971,0,0,0,68-6.672a2.059,2.059,0,0,0-1.824,1.08h-.024L65.988-6.6h-1.32ZM72.4.168a3.337,3.337,0,0,0,3.4-3.468,3.32,3.32,0,0,0-3.4-3.456A3.336,3.336,0,0,0,68.988-3.3,3.34,3.34,0,0,0,72.4.168Zm0-1.512A1.8,1.8,0,0,1,70.656-3.3,1.8,1.8,0,0,1,72.4-5.256,1.791,1.791,0,0,1,74.124-3.3,1.8,1.8,0,0,1,72.4-1.344ZM78.012-7.7a.907.907,0,0,0,.924-.912.917.917,0,0,0-.924-.924.92.92,0,0,0-.936.924A.91.91,0,0,0,78.012-7.7ZM75.936,2.52h1.848A5.493,5.493,0,0,0,78.84-1.068V-6.6H77.184V-.936A4.572,4.572,0,0,1,75.936,2.52ZM86.472-3.42c0-2.184-1.344-3.336-2.988-3.336a3.273,3.273,0,0,0-3.276,3.48A3.29,3.29,0,0,0,83.772.168,4.287,4.287,0,0,0,86.064-.48V-1.9a3.666,3.666,0,0,1-2.1.72A2.069,2.069,0,0,1,81.792-2.82h4.632A4.342,4.342,0,0,0,86.472-3.42ZM81.78-3.864a1.762,1.762,0,0,1,1.692-1.56,1.422,1.422,0,0,1,1.416,1.56Zm7.332.564a1.9,1.9,0,0,1,1.956-1.956,2.873,2.873,0,0,1,1.7.516V-6.3a3.8,3.8,0,0,0-1.908-.456,3.35,3.35,0,0,0-3.42,3.444,3.359,3.359,0,0,0,3.42,3.48A4.042,4.042,0,0,0,92.772-.3V-1.848a2.849,2.849,0,0,1-1.692.5A1.893,1.893,0,0,1,89.112-3.3Zm7.08-4.836H94.6V-6.6h-.972v1.38h.96v2.748a2.373,2.373,0,0,0,2.58,2.6,4.248,4.248,0,0,0,.948-.1V-1.38a3.491,3.491,0,0,1-.588.06c-.768,0-1.332-.348-1.332-1.236V-5.22h1.8V-6.6h-1.8Zm3.96.432a.907.907,0,0,0,.924-.912.917.917,0,0,0-.924-.924.92.92,0,0,0-.936.924A.91.91,0,0,0,100.152-7.7ZM99.324,0h1.656V-6.6H99.324Zm6.432.168a3.337,3.337,0,0,0,3.4-3.468,3.32,3.32,0,0,0-3.4-3.456A3.336,3.336,0,0,0,102.348-3.3,3.34,3.34,0,0,0,105.756.168Zm0-1.512a1.8,1.8,0,0,1-1.74-1.956,1.8,1.8,0,0,1,1.74-1.956A1.791,1.791,0,0,1,107.484-3.3,1.8,1.8,0,0,1,105.756-1.344ZM114-6.756a2.328,2.328,0,0,0-1.992,1.1h-.036l-.18-.948h-1.284V0h1.656V-3.948a1.258,1.258,0,0,1,1.308-1.3c.792,0,1.2.432,1.2,1.344V0h1.656V-4.4A2.169,2.169,0,0,0,114-6.756ZM126.7,0h1.884l1.788-6.6h-1.632l-1.152,4.824h-.036L126.18-6.6h-1.644l-1.392,4.824h-.036L122-6.6h-1.74l1.8,6.6h1.9l1.356-4.572h.036Zm7.68.168a3.337,3.337,0,0,0,3.4-3.468,3.32,3.32,0,0,0-3.4-3.456A3.336,3.336,0,0,0,130.968-3.3,3.34,3.34,0,0,0,134.376.168Zm0-1.512a1.8,1.8,0,0,1-1.74-1.956,1.8,1.8,0,0,1,1.74-1.956A1.791,1.791,0,0,1,136.1-3.3,1.8,1.8,0,0,1,134.376-1.344ZM139.128,0h1.656V-3.4a1.549,1.549,0,0,1,1.632-1.728,2.62,2.62,0,0,1,.528.048V-6.624a1.971,1.971,0,0,0-.48-.048,2.059,2.059,0,0,0-1.824,1.08h-.024L140.448-6.6h-1.32ZM150.3,0l-2.808-3.456L150.216-6.6h-1.992l-2.568,3.048V-9.624H144V0h1.656V-3.252L148.248,0Zm3.2-6.756c-1.62,0-2.592.864-2.592,2.052s.972,1.6,2.04,1.9c.888.264,1.4.42,1.4.888,0,.432-.42.708-1.164.708a3.349,3.349,0,0,1-2.256-.864V-.5a4.018,4.018,0,0,0,2.328.672c1.7,0,2.7-.828,2.7-2.1,0-1.368-1.152-1.728-2.208-2-.8-.216-1.236-.384-1.236-.8,0-.4.372-.648,1.044-.648a3.535,3.535,0,0,1,1.992.612V-6.228A3.967,3.967,0,0,0,153.5-6.756Z" transform="translate(31.5 845)" fill="#00a7b5"/><path d="M6274,1336l3,3-3,3" transform="translate(-6078 -498)" fill="none" stroke="#00a7b5" stroke-linecap="square" stroke-width="1.5"/></g></svg>