<svg xmlns="http://www.w3.org/2000/svg" xmlns:xlink="http://www.w3.org/1999/xlink" width="375" height="628" viewBox="0 0 375 628"><defs><clipPath id="b"><rect width="375" height="628"/></clipPath></defs><g id="a" clip-path="url(#b)"><rect width="375" height="628" fill="#fff"/><text transform="translate(32 49)" font-size="20" font-family="HeroNew-ExtraBold, Hero New" font-weight="800" letter-spacing="0.1em"><tspan x="0" y="0">TIME TO TAKE CONTROL.</tspan></text><path d="M-714,270l6,6,6-6" transform="translate(895.5 332.5)" fill="none" stroke="#c1c6c8" stroke-width="2"/><path d="M42.96,0H54.42l12.9-44.76H56.22l-7.74,31.2h-.12l-9-31.2H28.86L20.04-13.62h-.06l-8.1-31.14H.36L13.68,0H25.56l8.58-29.52h.06ZM78.3,0H89.7V-44.76H78.3Zm26.16,0h11.4V-11.7h3.36c12.84,0,19.56-7.86,19.56-16.92,0-9.84-7.26-16.14-20.28-16.14H104.46Zm15.3-21.78h-3.9V-34.5h3.84c4.38,0,7.62,2.16,7.62,6.3S124.08-21.78,119.76-21.78Z" transform="translate(118 335)" fill="#e1e2e8"/></g></svg>