<svg xmlns="http://www.w3.org/2000/svg" xmlns:xlink="http://www.w3.org/1999/xlink" width="375" height="628" viewBox="0 0 375 628"><defs><clipPath id="b"><rect width="375" height="628"/></clipPath></defs><g id="a" clip-path="url(#b)"><rect width="375" height="628" fill="#fff"/><path d="M4.64,0H8.42V-11.5h4.24v-3.42H.38v3.42H4.64ZM16.5,0h3.8V-14.92H16.5ZM29.08-9.74h.08L32.02,0h3.2l2.92-9.76h.08L39.26,0h3.62l-2.1-14.92H36.46L33.74-5.76h-.02l-2.8-9.16H26.48L24.4,0h3.58ZM46.98,0h9.84V-3.38H50.78v-2.6h5.46V-9.06H50.78v-2.48h6.04v-3.38H46.98ZM70.76,0h3.78V-11.5h4.24v-3.42H66.5v3.42h4.26ZM89.18.36a7.594,7.594,0,0,0,7.8-7.82,7.583,7.583,0,0,0-7.8-7.82,7.611,7.611,0,0,0-7.82,7.82A7.611,7.611,0,0,0,89.18.36Zm0-3.46a4.056,4.056,0,0,1-4-4.36,4.074,4.074,0,0,1,4-4.38,4.082,4.082,0,0,1,3.98,4.38A4.064,4.064,0,0,1,89.18-3.1ZM110.56,0h3.78V-11.5h4.24v-3.42H106.3v3.42h4.26Zm24.22,0-5.56-14.92h-4.4L119.34,0h3.94l1.12-3.3h5.26L130.82,0Zm-7.76-11.04,1.62,4.66H125.4ZM151.68,0l-5.72-7.6,5.56-7.32h-4.38l-5.12,6.88v-6.88h-3.8V0h3.8V-7l5.18,7Zm3.28,0h9.84V-3.38h-6.04v-2.6h5.46V-9.06h-5.46v-2.48h6.04v-3.38h-9.84Zm32.3-.68V-4.46a6.187,6.187,0,0,1-3.72,1.34,4.263,4.263,0,0,1-4.4-4.34,4.235,4.235,0,0,1,4.4-4.32,6.163,6.163,0,0,1,3.72,1.24v-3.72a8.98,8.98,0,0,0-4.16-1.02,7.612,7.612,0,0,0-7.78,7.82A7.607,7.607,0,0,0,183.1.34,8.98,8.98,0,0,0,187.26-.68ZM198.46.36a7.594,7.594,0,0,0,7.8-7.82,7.583,7.583,0,0,0-7.8-7.82,7.611,7.611,0,0,0-7.82,7.82A7.611,7.611,0,0,0,198.46.36Zm0-3.46a4.056,4.056,0,0,1-4-4.36,4.074,4.074,0,0,1,4-4.38,4.082,4.082,0,0,1,3.98,4.38A4.064,4.064,0,0,1,198.46-3.1Zm25.22-11.82h-3.62v8.74h-.02l-6-8.74H210.4V0h3.62V-8.9h.02L220.08,0h3.6ZM231.78,0h3.78V-11.5h4.24v-3.42H227.52v3.42h4.26ZM251.3-5.38a4.66,4.66,0,0,0,3.44-4.52c0-3.32-2.42-5.02-6.08-5.02h-5.02V0h3.8V-4.94h.12L250.98,0h4.5Zm-3.86-2.44V-11.5h1.16c1.38,0,2.32.64,2.32,1.84,0,1.18-.9,1.84-2.34,1.84ZM266.1.36a7.594,7.594,0,0,0,7.8-7.82,7.583,7.583,0,0,0-7.8-7.82,7.611,7.611,0,0,0-7.82,7.82A7.611,7.611,0,0,0,266.1.36Zm0-3.46a4.056,4.056,0,0,1-4-4.36,4.074,4.074,0,0,1,4-4.38,4.082,4.082,0,0,1,3.98,4.38A4.064,4.064,0,0,1,266.1-3.1ZM278.04,0h9.82V-3.44h-6.02V-14.92h-3.8Zm15.04.14a2,2,0,0,0,2.02-2,2.014,2.014,0,0,0-2.02-2.02,2,2,0,0,0-2,2.02A1.981,1.981,0,0,0,293.08.14Z" transform="translate(32 49)"/><path d="M-714,270l6,6,6-6" transform="translate(895.5 332)" fill="none" stroke="#c1c6c8" stroke-width="2"/><path d="M42.96,0H54.42l12.9-44.76H56.22l-7.74,31.2h-.12l-9-31.2H28.86L20.04-13.62h-.06l-8.1-31.14H.36L13.68,0H25.56l8.58-29.52h.06ZM78.3,0H89.7V-44.76H78.3Zm26.16,0h11.4V-11.7h3.36c12.84,0,19.56-7.86,19.56-16.92,0-9.84-7.26-16.14-20.28-16.14H104.46Zm15.3-21.78h-3.9V-34.5h3.84c4.38,0,7.62,2.16,7.62,6.3S124.08-21.78,119.76-21.78Z" transform="translate(118 335)" fill="#e1e2e8"/></g></svg>